<svg viewBox="0 0 1444 400" xmlns="http://www.w3.org/2000/svg"><g><g><g><g><g><line x1="30.5625" y1="337.4444444444445" x2="25.5625" y2="337.4444444444445" style="visibility: inherit;" fill="rgb(0, 0, 0)" stroke="rgb(204, 204, 204)" stroke-width="1px"></line><line x1="30.5625" y1="295.8888888888889" x2="25.5625" y2="295.8888888888889" style="visibility: inherit;" fill="rgb(0, 0, 0)" stroke="rgb(204, 204, 204)" stroke-width="1px"></line><line x1="30.5625" y1="254.33333333333337" x2="25.5625" y2="254.33333333333337" style="visibility: inherit;" fill="rgb(0, 0, 0)" stroke="rgb(204, 204, 204)" stroke-width="1px"></line><line x1="30.5625" y1="212.7777777777778" x2="25.5625" y2="212.7777777777778" style="visibility: inherit;" fill="rgb(0, 0, 0)" stroke="rgb(204, 204, 204)" stroke-width="1px"></line><line x1="30.5625" y1="171.22222222222223" x2="25.5625" y2="171.22222222222223" style="visibility: inherit;" fill="rgb(0, 0, 0)" stroke="rgb(204, 204, 204)" stroke-width="1px"></line><line x1="30.5625" y1="129.6666666666667" x2="25.5625" y2="129.6666666666667" style="visibility: inherit;" fill="rgb(0, 0, 0)" stroke="rgb(204, 204, 204)" stroke-width="1px"></line><line x1="30.5625" y1="88.11111111111117" x2="25.5625" y2="88.11111111111117" style="visibility: inherit;" fill="rgb(0, 0, 0)" stroke="rgb(204, 204, 204)" stroke-width="1px"></line><line x1="30.5625" y1="46.55555555555559" x2="25.5625" y2="46.55555555555559" style="visibility: inherit;" fill="rgb(0, 0, 0)" stroke="rgb(204, 204, 204)" stroke-width="1px"></line><line x1="30.5625" y1="5.000000000000061" x2="25.5625" y2="5.000000000000061" style="visibility: inherit;" fill="rgb(0, 0, 0)" stroke="rgb(204, 204, 204)" stroke-width="1px"></line></g><g transform="translate(20.5625, 0)"><text x="0" y="337.4444444444445" dx="0em" dy="0.3em" style="text-anchor: end; visibility: inherit; font-family: Roboto, sans-serif; font-size: 12px; font-weight: 200;" fill="rgb(33, 33, 33)" stroke="none" stroke-width="1px">0</text><text x="0" y="295.8888888888889" dx="0em" dy="0.3em" style="text-anchor: end; visibility: inherit; font-family: Roboto, sans-serif; font-size: 12px; font-weight: 200;" fill="rgb(33, 33, 33)" stroke="none" stroke-width="1px">10</text><text x="0" y="254.33333333333337" dx="0em" dy="0.3em" style="text-anchor: end; visibility: inherit; font-family: Roboto, sans-serif; font-size: 12px; font-weight: 200;" fill="rgb(33, 33, 33)" stroke="none" stroke-width="1px">20</text><text x="0" y="212.7777777777778" dx="0em" dy="0.3em" style="text-anchor: end; visibility: inherit; font-family: Roboto, sans-serif; font-size: 12px; font-weight: 200;" fill="rgb(33, 33, 33)" stroke="none" stroke-width="1px">30</text><text x="0" y="171.22222222222223" dx="0em" dy="0.3em" style="text-anchor: end; visibility: inherit; font-family: Roboto, sans-serif; font-size: 12px; font-weight: 200;" fill="rgb(33, 33, 33)" stroke="none" stroke-width="1px">40</text><text x="0" y="129.6666666666667" dx="0em" dy="0.3em" style="text-anchor: end; visibility: inherit; font-family: Roboto, sans-serif; font-size: 12px; font-weight: 200;" fill="rgb(33, 33, 33)" stroke="none" stroke-width="1px">50</text><text x="0" y="88.11111111111117" dx="0em" dy="0.3em" style="text-anchor: end; visibility: inherit; font-family: Roboto, sans-serif; font-size: 12px; font-weight: 200;" fill="rgb(33, 33, 33)" stroke="none" stroke-width="1px">60</text><text x="0" y="46.55555555555559" dx="0em" dy="0.3em" style="text-anchor: end; visibility: inherit; font-family: Roboto, sans-serif; font-size: 12px; font-weight: 200;" fill="rgb(33, 33, 33)" stroke="none" stroke-width="1px">70</text><text x="0" y="5.000000000000061" dx="0em" dy="0.3em" style="text-anchor: end; visibility: hidden; font-family: Roboto, sans-serif; font-size: 12px; font-weight: 200;" fill="rgb(33, 33, 33)" stroke="none" stroke-width="1px">80</text></g><line x1="30.5625" y1="0" x2="30.5625" y2="374" fill="rgb(0, 0, 0)" stroke="rgb(204, 204, 204)" stroke-width="1px"></line></g></g><g transform="translate(30, 0)" clip-path="url(#clip_0)"><clipPath id="clip_0"><rect width="1413" height="374"></rect></clipPath><g><g><g><line x1="44.972454330081824" y1="0" x2="44.972454330081824" y2="374" fill="rgb(0, 0, 0)" stroke="rgb(66, 66, 66)" stroke-width="1px" opacity="0.25"></line><line x1="162.75891266341526" y1="0" x2="162.75891266341526" y2="374" fill="rgb(0, 0, 0)" stroke="rgb(66, 66, 66)" stroke-width="1px" opacity="0.25"></line><line x1="280.54537099674866" y1="0" x2="280.54537099674866" y2="374" fill="rgb(0, 0, 0)" stroke="rgb(66, 66, 66)" stroke-width="1px" opacity="0.25"></line><line x1="398.331829330082" y1="0" x2="398.331829330082" y2="374" fill="rgb(0, 0, 0)" stroke="rgb(66, 66, 66)" stroke-width="1px" opacity="0.25"></line><line x1="516.1182876634153" y1="0" x2="516.1182876634153" y2="374" fill="rgb(0, 0, 0)" stroke="rgb(66, 66, 66)" stroke-width="1px" opacity="0.25"></line><line x1="633.9047459967488" y1="0" x2="633.9047459967488" y2="374" fill="rgb(0, 0, 0)" stroke="rgb(66, 66, 66)" stroke-width="1px" opacity="0.25"></line><line x1="751.6912043300822" y1="0" x2="751.6912043300822" y2="374" fill="rgb(0, 0, 0)" stroke="rgb(66, 66, 66)" stroke-width="1px" opacity="0.25"></line><line x1="869.4776626634157" y1="0" x2="869.4776626634157" y2="374" fill="rgb(0, 0, 0)" stroke="rgb(66, 66, 66)" stroke-width="1px" opacity="0.25"></line><line x1="987.264120996749" y1="0" x2="987.264120996749" y2="374" fill="rgb(0, 0, 0)" stroke="rgb(66, 66, 66)" stroke-width="1px" opacity="0.25"></line><line x1="1105.0505793300824" y1="0" x2="1105.0505793300824" y2="374" fill="rgb(0, 0, 0)" stroke="rgb(66, 66, 66)" stroke-width="1px" opacity="0.25"></line><line x1="1222.837037663416" y1="0" x2="1222.837037663416" y2="374" fill="rgb(0, 0, 0)" stroke="rgb(66, 66, 66)" stroke-width="1px" opacity="0.25"></line><line x1="1340.6234959967492" y1="0" x2="1340.6234959967492" y2="374" fill="rgb(0, 0, 0)" stroke="rgb(66, 66, 66)" stroke-width="1px" opacity="0.25"></line></g><g><line x1="0" y1="337.4444444444445" x2="1413.4375" y2="337.4444444444445" fill="rgb(0, 0, 0)" stroke="rgb(66, 66, 66)" stroke-width="1px" opacity="0.25"></line><line x1="0" y1="295.8888888888889" x2="1413.4375" y2="295.8888888888889" fill="rgb(0, 0, 0)" stroke="rgb(66, 66, 66)" stroke-width="1px" opacity="0.25"></line><line x1="0" y1="254.33333333333337" x2="1413.4375" y2="254.33333333333337" fill="rgb(0, 0, 0)" stroke="rgb(66, 66, 66)" stroke-width="1px" opacity="0.25"></line><line x1="0" y1="212.7777777777778" x2="1413.4375" y2="212.7777777777778" fill="rgb(0, 0, 0)" stroke="rgb(66, 66, 66)" stroke-width="1px" opacity="0.25"></line><line x1="0" y1="171.22222222222223" x2="1413.4375" y2="171.22222222222223" fill="rgb(0, 0, 0)" stroke="rgb(66, 66, 66)" stroke-width="1px" opacity="0.25"></line><line x1="0" y1="129.6666666666667" x2="1413.4375" y2="129.6666666666667" fill="rgb(0, 0, 0)" stroke="rgb(66, 66, 66)" stroke-width="1px" opacity="0.25"></line><line x1="0" y1="88.11111111111117" x2="1413.4375" y2="88.11111111111117" fill="rgb(0, 0, 0)" stroke="rgb(66, 66, 66)" stroke-width="1px" opacity="0.25"></line><line x1="0" y1="46.55555555555559" x2="1413.4375" y2="46.55555555555559" fill="rgb(0, 0, 0)" stroke="rgb(66, 66, 66)" stroke-width="1px" opacity="0.25"></line><line x1="0" y1="5.000000000000061" x2="1413.4375" y2="5.000000000000061" fill="rgb(0, 0, 0)" stroke="rgb(66, 66, 66)" stroke-width="1px" opacity="0.25"></line></g></g></g><g><g><line x1="0" y1="337.4444444444445" x2="1413.4375" y2="337.4444444444445" fill="rgb(0, 0, 0)" stroke="rgb(153, 153, 153)" stroke-width="1.5px"></line></g></g><g><g><line x1="44.972454330081824" y1="0" x2="44.972454330081824" y2="374" fill="rgb(0, 0, 0)" stroke="rgb(153, 153, 153)" stroke-width="1.5px"></line></g></g><g><g><g><g><g><path stroke="rgb(238, 51, 119)" stroke-width="2px" d="M46.40944912174849,296.2907219992744L47.710989486331826,165.38091169757607L48.24691787174849,205.10101152638924L48.84762880924849,165.2604221928662L49.70746995508182,207.66702819023112L51.014899642581824,138.86637138327512L51.63916787174849,84.69979081142606L53.559087142581824,135.9818119942982L53.86533193424849,110.34093414585763L56.39774078841516,157.4142356648534L56.51552724674849,140.31771145965726L59.71342959049849,176.8289288303715L60.83240094466516,58.59527731424839L60.973744694665164,94.43366341105333L63.129236882165166,119.66695600229477L64.0597499029985,-19.6346707950957L64.2010936529985,48.84008703011859L65.97377985091516,44.01854123411581L69.24235406966517,96.13600023343952L69.59571344466517,140.89792454237977L71.8513241217485,163.3097538199201L74.94910797591517,140.8455589582622L75.52037229883184,173.54796222953172L75.96207151758183,187.09484104166165L76.15641917383184,214.24199161471904L76.55100380924851,222.11534564652376L77.09282151758184,239.97275316581317L78.34724729883185,254.76343394291598L79.31898558008184,266.2547805633792L79.5192225592485,239.9834369597484L80.19649469466518,254.72447954788805L80.29072386133184,262.8094792676476L80.62052594466518,273.39574300617375L81.95151292383184,280.8621658425357L82.2754256842485,283.895355095315L83.65941656966518,286.52659306619665L84.60759755924852,246.53554033136155L85.31431630924851,260.9126060322648L86.14471084049852,264.98655591714277L88.76545953841517,276.0962421429359L88.93036058008184,285.4215534604151L89.99043870508184,275.7393465722385L90.49692047591518,285.2706801585969L92.00458714258185,271.49086591238984L93.80083063216519,280.38723294317504L95.31438662174851,288.09875315012937L95.3497225592485,287.0067794855803L95.72663922591519,280.03382787716436L95.96810146549852,285.40867561733273L96.17422776758185,290.2326563272722L96.51580849674853,294.72652587742004L96.65715224674852,291.6781212878272L98.8715376634152,296.22725426066756L99.46046995508186,297.3487418842798L99.69015354883186,296.43126032622826L99.90216917383187,295.70391078934654L100.09062750716521,301.1017109375373L102.16955849674852,304.6212782732156L102.41102073633186,307.974510672203L102.90572386133188,309.9819363393903L103.24141526758187,313.4831072401763L103.37686969466519,313.2729103118309L103.56532802799853,316.7006154986453L103.74200771549853,318.7108157981482L104.23671084049853,320.56148086782935L104.5782915696652,311.27011608377364L104.99054417383186,314.2379288353923L106.4864321946652,315.0802806666354L106.91635276758187,312.4768300294394L107.66429677799853,314.59876238767515L108.02943479883187,313.76442137011446L109.89046084049853,314.80396293553156L110.44994651758186,313.3791521505348L114.57836188216521,316.81669908930223L114.8610493821652,318.0504549302526L115.80334104883187,316.30940855022567L116.09191787174854,318.5759866135776L117.72914964258187,319.4383601652538L117.98827985091522,320.46587490869916L118.4476470384152,322.2051803146484L120.97416656966521,315.88304899244173L123.32400641341522,318.1207183898227L123.81870953841522,227.13261816637146L124.60787880924855,243.86050009120257L124.77277985091521,259.43740230086013L125.31459755924854,258.94630992197744L125.34404417383188,269.7785404653086L126.2568892259152,279.9259554377576L126.53368740299855,287.3829792362234L127.25218479883188,291.9493245822154L127.6938840175819,298.9412757488481L128.53016787174855,302.60500279652L128.98364573633188,302.39901269776357L131.2215884446652,305.0697923551444L131.81052073633188,297.04551095228794L132.43478896549854,294.926206196113L132.51135016341522,299.35006223173536L133.6951040696652,301.646749386339L133.72455068424856,243.54293202601457L135.49723688216523,240.94191168236136L136.90478505924855,250.6558703254588L140.62094781966522,265.2757704820827L144.11331630924855,268.6398759448006L144.30177464258188,279.58424865947546L144.4018931321652,286.72178133704665L144.54323688216522,285.95470160039196L144.7788097988319,219.21766942633414L151.69287490299857,238.80668295418525L151.7399894863319,256.1910583866049L151.78710406966525,269.5405926823152L153.3654426113319,278.0405740113845L153.81303115299858,285.10007640730277L155.4502629238319,205.7355036637447L155.48559886133188,228.5471858647532L155.6622785488319,146.4261258681346L157.51152594466524,119.65837977285896L158.1004582363319,159.3184959547674L158.74828375716524,189.43369709690506L159.0898644863319,215.6483512394941L159.82014052799857,237.43339693551275L160.08516005924855,246.45710419342632L160.5033019863319,260.03220031363395L161.82251031966524,266.16208980430673L162.75302334049857,276.06824600710377L166.39851422591525,283.67877851921696L166.56341526758192,193.509486845266L167.7118332363319,217.7582113990356L168.4597772467486,142.30343493001692L168.8602512050819,176.01370900825688L168.9544803717486,202.52535597555004L169.4079582363319,225.92834745464927L170.2206847988319,243.58945815789883L170.47981500716523,252.506332901544L172.62941787174856,264.61167202056373L174.90858584049857,242.74631318882334L175.49162880924857,189.40596151432555L178.67186318424856,197.05292834876283L180.84502334049856,221.73428913041036L181.05114964258192,243.24879246248807L182.81794651758193,257.01256756857276L183.37154287174857,180.38954854812917L188.54236839258192,207.61432712136445L189.07829677799862,63.81477156579622L190.5447381842486,115.96877865870954L190.78031110091524,157.82432274458304L191.19256370508194,188.1601216478151L191.84038922591523,213.36147052576834L192.1525233404986,215.17004818066513L192.86513141341524,232.08273296524075L194.8203866217486,249.10377795035834L196.02769781966526,264.66287474315857L197.67670823633193,276.2241261202613L200.31512490299858,178.11655472107876L201.89935276758195,207.04994165729005L202.17615094466527,226.8393806486436L202.90053766341526,243.25786934766043L204.06662360091528,258.60815514304534L204.15496344466527,122.65624199638071L205.79808453841528,163.4680574146586L208.64851683008195,193.37476108718005L208.88997906966526,217.88055341599852L209.2492277675819,238.7012003746971L209.90883193424858,253.91176254118903L210.4742069342486,266.1547722405759L214.54961839258192,277.84442401249413L215.5979178717486,192.18690968661204L215.6685897467486,215.57160438359074L217.58850901758194,235.20187892219985L218.64858714258193,250.97059634395362L219.09028636133192,262.7052123716242L219.4141991217486,271.496503932537L219.50842828841525,279.7206859243669L219.7498905279986,281.6760680282983L220.65684625716528,289.6028322181336L220.91008714258192,265.9349121402024L221.9760545904986,276.42679394539084L222.12328766341528,286.23183850438767L223.41893870508193,293.66488838506837L225.7923358404986,294.1057198909635L227.0644295904986,301.03713380610003L227.30000250716526,305.8768392741552L227.3471170904986,308.63765270179147L229.75585016341526,293.2018779479051L229.95608714258194,296.17750175814507L231.4284178717486,299.8988805836096L232.9478631842486,300.63340534731975L233.15398948633194,300.3917552786289L233.28944391341525,303.1576302335436L233.51323818424862,266.77365260805885L238.20702854883194,279.36547428146633L238.2835897467486,269.31497707294596L240.96323167383196,265.6368172533817L241.72295433008193,246.08111243307644L243.44852594466528,216.62351767269814L244.0492368821653,238.67281369565367L244.40848558008196,253.60821625973202L247.94207933008195,268.64787258931335L250.81017959049862,279.833095654077L250.9044087571653,287.0795638891538L251.92326162174862,293.8197034082794L252.37673948633196,300.2786396261309L253.9079634446653,304.9315206874413L254.34377334049864,279.7458606234394L255.24483974674862,287.1305853773119L256.47570823633197,286.35850428970355L256.6818345384153,294.23051867351296L259.938630111332,300.4898802418075L261.07526943424864,292.9925606858912L262.23546604883194,299.02497686800825L262.30613792383195,304.03821211489674L262.85384495508197,298.9931595619464L263.26020823633195,293.30269853612674L263.3426587571653,296.8001076259154L263.56056370508196,267.3489385380696L263.949259017582,276.2027541828964L266.846805892582,285.7319926574082L267.288505111332,294.1543859445453L268.39569781966526,298.565909984647L271.0400038092486,303.66885403230884L271.0458931321653,307.37530677028576L271.1695689134153,310.6442346994724L271.634825423832,310.47790565050815L273.507630111332,279.39202887289133L273.7078670904986,261.93319103722365L274.80328115299864,273.8616398091151L278.118969955082,283.8883276363241L278.84924599674866,289.4051759068193L281.193196517582,293.7525005751733L281.935251205082,300.77699058431125L282.01181240299866,299.19869681976434L282.50062620508197,302.0654414408646L282.995329330082,304.74169002903113L283.72560537174866,307.91148390875344L284.17908323633196,311.45057456418743L286.09311318424864,311.75518374065456L286.864614486332,309.428852400408L288.63730068424866,305.99885760086846L289.2203436529986,308.3691726107444L289.59137099674865,309.6451935581932L292.1355584967486,313.22311798619455L292.394688705082,316.1158760909549L293.0955181321653,316.66207950520345L295.03899469466535,319.2026838472776L295.47480459049865,315.55478262249306L297.359387923832,316.1396462261174L297.924762923832,317.01312916910604L299.0260663092487,123.4682311998682L299.57377334049863,161.26180625811233L299.956579330082,152.3445542594196L302.7893436529987,180.6135642279838L305.6044400071653,208.47694802943766L305.769341048832,216.86225149470357L306.158036361332,237.2677582388808L306.829419173832,254.1502317327147L307.1768892259153,267.2290129283708L308.28997125716535,278.55917586376734L308.366532455082,288.63354683153204L308.401868392582,295.37148863447277L308.5844374029987,252.08648822338768L309.850641830082,264.37017425138197L318.7788553717487,276.90123460747225L321.122805892582,286.5520903825025L322.1416587571653,293.41864374260854L322.165216048832,300.57329295884836L322.25944521549866,305.5338939233192L322.430235580082,308.5871423713553L322.818930892582,309.4032576618344L323.560985580082,313.40191027835345L325.45145823633203,276.6902119317214L327.65406500716534,287.1670677470017L328.773036361332,234.3178842730137L329.11461709049865,252.2760865508301L329.9273436529987,263.64713005956935L330.663509017582,274.9129319503858L331.3996743821653,281.5957740588947L331.88259886133204,287.2876499804362L334.52101552799866,291.70842313494984L335.398524642582,297.35122932852664L336.39382021549864,301.7715829721665L337.97804808008203,305.46471376034225L340.97571344466536,276.2800216728789L343.20187750716536,280.11891116680107L343.543458236332,288.01806729937715L350.02171344466535,246.54442098224266L350.804993392582,260.4634388125003L350.840329330082,254.58723907015548L351.04645563216536,268.00846866667393L351.2938071946653,280.52697831922205L352.5659009446654,280.46673061476895L352.76613792383205,290.3307604606423L353.29028766341537,297.58047122124617L353.36095953841533,301.75661134055287L353.5670858404987,306.17427348876816L355.1395350592487,307.42077438395415L356.91222125716536,306.54507533890296L357.589493392582,306.59878453293607L358.6024569342487,309.1697503864434L360.77561709049866,313.29126925995615L363.2373540696654,314.4883057572895L365.6932017259154,312.61596538372464L366.4823709967487,263.9564094258491L367.5071131842487,277.46572434953663L369.35047125716534,284.8664121335227L369.7568345384153,283.5517078335136L371.0465962571654,292.79081435905954L371.8239868821654,298.5165998186567L372.33635797591535,298.038947880472L372.58959886133204,262.3584132990879L373.11374860091536,274.82681463890407L374.6685298509153,285.59564603540474L376.48833063216534,287.14776335271074L377.60730198633206,292.2820519382043L380.2633866217487,293.03033792609244L380.4223983404987,299.801969006069L381.052555892582,304.01713639132777L383.0902616217487,273.2470899860006L383.3199452154987,281.8012999587542L385.9524725592487,288.1436639446645L386.2233814134153,223.9287722337481L387.55436839258203,243.54518280783523L388.8912446946653,254.57104356733348L388.93835927799864,258.49440605307194L390.17511709049865,204.91879052849274L390.41069000716533,227.53105907438854L391.64744781966533,245.69380308362108L392.77819781966537,214.0830900200653L395.29882802799864,236.07969909205286L395.699301986332,254.32017593352725L398.3377186529987,200.5088956025076L399.98083974674864,225.2685682869089L400.8701275071653,187.57291930644774L403.97380068424866,209.8145499939049L406.565102767582,220.00308515503608L408.5910298509154,239.16768743521322L409.5451001634153,243.85805808008786L410.0515819342487,257.98924154785806L410.416719955082,269.84805539301396L412.13640224674873,279.363674883191L412.3837538092487,266.85093368435776L414.93971995508207,210.27883325797882L415.8113397467487,227.97322007165403L419.3449334967487,239.18164954619448L419.66295693424865,256.63248289879306L420.045762923832,269.1602585616865L421.32963531966533,280.6885184401797L422.4250493821654,286.08994531482006L424.82789313216534,290.8956830012762L427.1541756842487,294.4217238607378L427.35441266341536,296.65724785452716L429.692473861332,302.1150962860767L430.2342915696654,305.7403625958271L430.399192611332,310.14793270480163L431.8067407884153,311.1625427504502L432.03053505924873,313.1948754951786L432.73136448633204,313.47784888416646L432.8314829759154,316.9492206833372L433.27318219466537,239.80955117503348L433.4086366217487,257.8358681368262L433.5912056321653,271.31059155417256L435.0223111009154,282.6593381517684L435.1047616217487,291.100563330668L435.38744912174866,277.2772963252739L437.50760537174864,285.8291268915925L437.57827724674866,294.1146104005438L437.6725064134154,300.278172660467L438.0376444342487,305.3894827677915L441.211989486332,305.0818445201007L442.56653375716536,307.14582866207394L442.6372056321654,310.354646660823L444.46878505924866,313.42408557939933L444.8457017259154,313.28782583402324L445.4110767259154,315.7015561860937L446.5536053717487,314.17428989745287L448.0259361009154,312.9394538990956L448.13194391341534,316.0320914516689L448.9034452154987,316.3267666167557L449.091903548832,316.8909699959124L450.310993392582,312.26122187634826L451.724430892582,313.4200217214732L452.71383714258207,315.2113975043436L454.0448241217487,308.4384753244724L454.4511874029987,308.6642843790271L455.1049022467487,309.01433561648935L455.31102854883204,312.8068347189639L458.3734764654987,312.55142486999944L459.3452147467487,312.9595573094992L460.6879803717487,316.14682511018447L460.71742698633204,316.7412612580729L462.37821604883203,317.44170118200554L462.82580459049876,315.7606161819122L462.86702985091534,317.3544261031327L463.5914165696654,265.6497371715687L464.05078375716533,274.47531403984357L464.3275819342487,263.42602892149074L464.6220480800821,275.08042136162055L467.201571517582,194.3927861520677L470.7057186529987,218.9501080673824L472.24283193424867,238.755312966391L475.62330328841534,257.4141244271738L476.0944491217487,272.1789230001775L476.318243392582,283.49525342301325L477.5608905279987,291.83020816842026L478.2204946946654,296.59165328290175L479.82827985091535,299.18986878034366L480.2817577154987,243.38649175143422L480.3229829759154,258.60800632457875L480.9943657884154,272.47173605882546L481.9131001634154,217.82758538026354L485.2346782884154,239.6256616939339L486.70111969466535,255.0541091009696L487.31949860091544,269.75750012223347L487.5315142259154,280.5413768881513L487.8789842779987,289.3153755585846L489.2747538092487,297.5777274254028L489.59866656966534,299.36164052245863L489.99914052799875,302.79463018224914L493.8507577154987,304.2036403140461L495.68822646549876,308.0984340891072L497.2312290696654,311.2580922803478L498.52099078841536,314.6574493218419L501.7365611009154,309.3454157910578L502.0369165696654,311.44978438709836L503.19711318424874,274.039313831022L504.0451756842487,284.04593680441957L504.8637915696654,291.8234747336222L505.68829677799874,299.32442529566396L506.41268349674874,302.3953990181338L506.8308254238321,306.3456624126475L506.9014972988321,308.9660709097153L507.8143423509154,312.11539642923407L510.5823241217488,313.7616472804281L511.27726422591536,315.7375040629493L511.58350901758206,313.4206869204034L513.491649642582,313.97614968399387L515.3232290696654,310.6280927513455L518.9039374029987,264.505804567423L519.0217238613321,272.18417241590805L525.6295441738321,282.39087349587754L526.2538124029987,288.54033479913664L530.7355871425821,294.1252898551988L532.3021470384155,300.67168914725784L534.8227772467487,293.42280819138216L535.6943970384154,300.15956330183076L538.4682681321653,305.7492458948792L539.1102043300821,309.2912168499603L539.6107967779988,312.216848647603L539.9052629238321,314.3680680815447L541.3304790696654,315.7004088505694L544.5166027675821,318.10199739333694L544.7286183925821,317.32761482607026L546.3128462571653,318.748129416127L548.0384178717487,255.7617479583573L549.1279426113321,251.91062138406053L550.1821314134154,253.895883920942L552.7616548509154,269.0446575836242L553.8217329759154,280.03335360070605L553.933630111332,289.5725332168516L555.3293996425821,82.022460302865L556.5602681321654,131.21383995465877L556.7192798509154,151.06814704883715L556.9842993821654,151.54120515941477L559.2340207363321,187.2079443456774L561.3954022467487,213.72912444236906L562.0196704759154,218.37151937031504L562.6969426113321,239.0760157813795L563.8041353196654,257.20888534202845L564.5520793300822,271.06061260817853L566.5132238613321,277.86499982292185L568.1327876634155,285.9202155633613L573.5568540696654,290.5742617747925L575.2706470384154,282.0792350457835L575.8419113613321,290.97074183199624L576.0244803717488,296.91776452255635L578.4096561529988,303.1080812882772L579.7583111009154,260.95030836354823L579.8525402675821,274.20172940220675L580.3119074550821,283.6820724656283L580.8596144863321,214.48376567920837L583.3743553717487,237.38680301688083L585.2412707363321,254.67131395378615L585.9067642259155,268.51467482279867L586.7489374029989,279.40772995867565L587.8914660488321,284.48332488736764L588.2801613613321,229.09398694304303L588.2860506842487,247.720624505157L588.3567225592487,261.0001221317779L591.2130441738321,274.04685988681035L591.6370754238321,285.1926831128056L594.7701952154988,289.8934073396673L596.8903514654988,295.76170690124434L597.1494816738322,301.38464008489086L597.1965962571654,300.14734279674025L598.5982551113322,303.7885341715421L598.6453696946654,308.1835113497526L599.5405467779988,10.607881806581677L601.3426795904987,66.31066555523034L603.7101874029987,118.17139274763916L604.9528345384155,159.98081482851123L605.8539009446654,192.66488285968268L608.5099855800821,211.28102428735278L609.0400246425821,231.86123506827607L611.2190741217488,237.7947986354043L615.5477264654988,255.4188463700832L616.3192277675821,269.6139982117299L621.5430571946655,277.7359889115029L625.9247134446655,285.25843285283514L628.3157785488321,292.8050430739805L628.4158970384154,294.520406008155L628.7456991217488,292.65896604780954L630.0236821946655,297.818895572487L630.4889387050822,301.7175527716188L635.3181834967488,306.59765307303337L636.0190129238322,301.88376489159316L636.4430441738322,306.0643969859827L637.7799204759154,233.60291993931787L638.5926470384155,252.36962989634293L639.4053736009155,267.8912052859149L640.3830012050822,279.73536883374965L640.8247004238322,289.1623326697423L641.6492056321655,296.0716325461976L642.7446196946655,294.6047893836853L643.5750142259154,301.2272198005324L646.6315728196655,306.29765216751673L646.6610194342488,310.7726513320375L647.1380545904989,314.36186871005447L648.6810571946655,312.32657975096186L650.4301861009155,308.05819071456074L651.2959165696656,312.7574311086147L652.9625949550821,300.7455413173524L653.9578905279988,306.41192432543073L654.5644907884155,307.70985034545606L655.8130272467488,154.81918018955938L656.9732238613321,139.45143184899447L659.4644074550822,-20.46671252590411L659.5056327154988,49.16819883816503L659.8943280279989,103.83742946492087L660.1829048509155,149.0439635438902L663.1570129238321,183.98820874451394L663.8048384446655,213.45068593999116L665.1063788092489,231.1268085388107L666.4373657884155,203.51165974201862L666.8613970384155,226.6478049177231L666.9615155279988,246.23565910908655L667.6034517259155,258.4994243133313L668.0510402675822,271.4955681420628L670.4774413092488,280.16643354129235L671.2489426113322,289.04530264879423L671.3785077154988,286.1677636788566L672.0734478196655,189.00935681710877L674.5469634446655,117.04188283324432L674.9356587571655,155.42575186019627L675.5187017259154,188.8668578205545L675.5834842779989,194.27643489027335L675.8131678717489,208.07322097130074L676.8496887050821,232.54936851163004L678.8108332363321,250.6974586362253L679.7354569342489,265.26830378383613L680.0770376634156,276.48696457235195L680.2419387050821,286.52949951665806L680.7366418300822,280.4935157832347L687.7331574550822,288.9731984777061L688.1100741217489,232.96393950590624L689.8474243821655,250.85572084805008L692.2914933925822,265.0565363488248L692.9510975592489,269.5672317188303L693.0806626634155,222.22626642025745L695.1772616217488,242.15774926850983L695.7426366217488,257.6166503099054L698.5165077154988,260.23459049972826L698.7638592779989,271.5813435139624L700.2479686529989,280.0134474062152L700.5306561529989,287.82840884287316L700.7073358404988,289.45201512463217L702.2680064134155,283.8887644790596L704.3587160488321,291.88762228830547L706.5083189134156,295.9483588585103L707.0678045904988,302.31787545274454L707.2150376634155,307.68587655007116L707.7097407884155,310.2712887788821L707.7980806321656,313.3440909670466L708.4223488613322,316.1734902620321L708.4282381842488,315.831601604886L710.1655884446656,314.7568633172781L713.1455858404988,266.4628974734839L717.2563332363322,278.6238265550743L717.5566887050821,285.9691305804208L718.4930910488322,266.77714509815286L718.5519842779989,279.023989300068L719.7592954759155,286.3884451326814L720.8841561529988,291.5390643387704L721.2021795904989,297.93468352977453L721.2964087571655,295.6074631502153L724.3529673509156,185.89970939821052L724.3765246425822,213.3917444801281L724.7593306321656,233.84574380153686L725.9784204759155,251.5901914212513L726.1433215175822,266.8618825234367L729.0644256842489,277.9607013668532L729.0703150071656,266.8865618445541L729.6298006842488,182.7600530034753L730.5249777675822,210.37521877340097L731.6321704759156,230.9006807967156L731.6557277675822,244.05042255858288L734.9478592779989,260.1984554937657L735.5250129238322,273.08585178146177L738.5226782884155,282.7604716350456L742.2623983404989,290.46789524050445L743.2989191738322,244.06700906349735L743.7523970384156,261.4244117074027L745.9491144863322,274.9715340582118L746.9974139654988,284.1634492265584L748.7936574550822,292.11914707189675L753.3284361009155,298.97745161506236L753.7230207363323,300.9160511582642L754.7065376634156,295.3620652545465L757.3979582363322,292.30475392889764L757.5451913092489,299.4344838588909L758.340249902999,304.23311647914323L760.9433306321655,301.8324951983225L761.485148340499,307.42225841231334L763.3461743821656,311.5137316360515L766.1966066738322,310.02421651425163L766.9504400071655,313.0635876476145L767.2743527675823,313.67218675025646L768.7996874029989,316.788921565546L771.0199621425822,318.9954773808056L772.0329256842489,320.8001929864248L775.0953736009155,321.9449623233711L776.114226465499,312.6648559840495L776.308574121749,313.10287994003096L778.782089746749,313.2538564066553L781.6325220384157,315.61335071726353L781.7856444342489,316.05557075715365L783.8704647467489,309.47903403475266L785.8080519863322,312.4050701652716L787.1861535488323,314.7543791968094L787.8457577154988,317.38299777972435L791.2438970384155,318.61973076556313L792.0860702154989,318.11703625065104L792.8929074550822,320.21637982958174L795.4900988613323,318.1419626291615L796.5148410488322,319.97581164911236L801.4559829759156,319.40823222325787L801.626773340499,318.7254866265711L802.7162980800822,320.6431705165008L802.9989855800823,321.6588788070757L803.4760207363323,320.94510399806336L804.2357433925822,318.9710618213111L806.3735676113323,275.89002927001L806.4913540696656,285.6450333774541L806.5149113613322,294.67565824035444L806.6385871425823,299.01990027197445L807.7634478196657,304.05089946562646L808.5467277675823,306.48671687000007L809.9248293300822,311.0407460924229L812.3630090175823,182.28494679527083L814.1710311529989,72.10556974090417L814.3830467779989,119.84744241458002L814.5302798509156,106.61152611590882L816.485535059249,144.03417057263158L817.5220558925822,180.75898482058287L817.704624902999,210.227390297152L819.7482199550822,233.00733757116856L821.9154907884156,245.60082050825588L822.3866366217488,261.64766346400654L822.9932368821655,274.2924206186852L823.3112603196656,273.53486134710744L826.2088071946656,282.73321328668726L828.0816118821657,290.7855470835548L829.3065910488322,296.1986514106895L831.9450077154988,302.10251252509534L833.340777246749,305.499628440995L838.8296262050823,310.37288662099235L839.7365819342489,308.882260026164L840.0604946946656,312.7171883235723L840.2548423509155,314.00329032026536L840.6317590175823,224.52879829896403L840.9497824550822,245.1029276314808L841.0263436529989,246.6257161116679L842.2866587571657,223.5683366290262L849.1123840175824,244.69774070407527L850.4198137050822,256.97846392598876L851.6919074550823,251.82412014490072L852.192499902999,266.8004083311746L854.4422212571656,277.6773747176215L855.054710840499,285.9760837298196L857.1630884446657,287.8799426191299L857.5400051113323,294.1118618631296L858.1407160488324,300.59137566862637L858.4587394863322,158.43643129119448L858.5765259446657,189.73943863748846L858.9298853196657,215.84465910836855L860.249093652999,231.69128964088864L862.7873918300824,175.7879616240065L864.0241496425823,204.9652277198951L864.0771535488323,191.5493206612948L868.4764777675822,207.4756140056729L870.1784920904989,230.37291703834637L870.3787290696656,249.35689211592018L870.8793215175823,264.3700153692956L871.4918111009156,274.31100845954643L871.5507043300823,242.19048625168662L871.7273840175824,258.376129939324L872.2750910488323,272.0322428974838L873.2703866217489,283.80903273423496L874.5365910488323,171.32278954188018L877.1632290696657,110.26641936408141L877.2162329759155,150.14252786085336L877.8758371425823,175.91416440311002L878.1938605800824,205.3438067078823L879.1597095384155,226.49631770347764L879.295163965499,244.1265474989298L879.7133058925823,260.94623662797216L883.9477290696656,251.07502045234787L884.2186379238323,266.5015970611632L884.9430246425823,243.605618706602L887.687449121749,260.70432359318585L887.7640103196657,273.86617570723945L889.0891079759157,271.93141789970815L889.9195025071656,276.7465643522847L892.3812394863322,285.5931866908901L894.4425025071656,283.47302896273135L896.344753809249,-34.860956441359974L897.4872824550822,32.5753612769996L897.493171777999,88.95502009815812L897.6816301113323,136.99280664094422L903.482613184249,175.04497836935366L904.1068814134156,201.83013609971874L904.8136001634156,219.55670145823908L905.8383423509157,60.675609783127854L906.4154959967491,114.04051484197633L907.652253809249,154.42684914215613L909.7252954759156,188.97058622315888L909.9785363613323,217.19813665979729L921.1034673509156,227.21692604197628L921.3154829759158,245.03536931334787L923.1470624029989,260.4398017686647L923.359078027999,273.20380231767564L927.9233032884157,283.98529328740705L927.9291926113324,288.54390783922196L929.0304959967491,296.49065729101227L933.7478436529991,301.1937783589871L934.1777642259157,302.5279124623599L934.6960246425823,302.83867137427296L934.7136926113322,306.88203988177384L935.8621105800822,309.6650115763039L937.1459829759157,313.62659798899415L937.1636509446656,315.19141640694244L937.564124902999,318.01806548408376L939.0894595384157,320.0280131581495L939.5841626634157,318.0238284939981L940.3615532884157,319.7759818199838L940.7855845384157,319.948443316637L941.186058496749,319.7009899832555L941.2802876634156,322.061776579572L941.7985480800824,320.8031901442898L941.9752277675823,320.1248532001622L944.6489803717491,320.22125146212426L945.0082290696657,321.65302123776206L945.6737225592491,320.0375075235722L946.4275558925823,320.11237735335754L947.051824121749,322.18521495806954L947.5759738613323,324.327270488324L948.2179100592491,325.61364023186013L951.3333618821657,135.19896523182064L953.1590519863323,174.11536528394862L955.020078027999,165.89742536857054L956.133160059249,199.11110644166467L956.6867564134157,223.37795046984988L956.9576652675823,243.68008697737454L957.210906152999,260.24638495796944L957.528929590499,274.5642372933019L963.6243788092489,282.26377682635433L965.691531152999,292.06952477043933L965.7033097988324,300.1565340668312L967.4288814134158,305.25995153138524L968.1120428717489,310.14411448491535L969.7433853196657,313.57398125319685L972.7704972988324,314.0386562219382L974.0543696946656,311.330772919479L978.3005715175824,314.9003265940001L979.1780806321657,255.72462718774352L980.5267355800823,270.10256780324625L983.1887095384158,280.9324148671223L984.9260597988323,291.42666289433316L986.2570467779991,298.7415617754021L986.5102876634156,304.4388128807777L987.0697733404991,307.0219310779545L987.705820215499,309.59494579255636L990.1911144863323,314.06721041271464L991.5162121425824,317.0517671103163L993.7247082363324,317.1789283345713L995.709410059249,318.5082981865067L995.8154178717491,318.0745419831111L997.334863184249,318.7896031928884L998.412609277999,319.3549385616112L998.5716209967491,317.368140709315L1004.0015767259157,315.98835948195534L1004.4314972988324,316.05708902480717L1004.6965168300824,302.44999023704406L1004.7789673509158,307.4686414074528L1004.9026431321656,308.945878555904L1005.3796782884157,310.055738186198L1006.1747368821657,314.53522911497555L1008.235999902999,262.4323484327682L1009.5022043300823,276.01966613766524L1010.6447329759158,285.688961502475L1012.423308496749,291.0889704676965L1013.5422798509157,298.8166206004222L1013.819078027999,303.10277849107314L1015.2737407884157,307.46505320392185L1016.6400637050823,311.6612360969289L1017.7531457363324,312.28793399083116L1018.2066236009157,316.2005545188122L1020.0617603196658,307.96691589745944L1020.3856730800824,312.572930952123L1021.6872134446658,308.55639901601836L1024.1607290696656,311.0460256675368L1027.2938488613324,243.302929746269L1028.1890259446657,254.59916221657767L1028.271476465499,268.16716952079696L1029.3786691738323,279.58190497520894L1029.6083527675823,285.8436078280608L1029.6731353196656,291.1771849714703L1029.9970480800823,298.3137895914968L1030.7391027675824,302.68139356928845L1033.1831717779992,307.68612215061546L1034.137242090499,309.8048591110936L1036.451745996749,314.0597365257871L1037.635499902999,315.7674894850306L1037.8180689134156,314.7215149763573L1038.0654204759157,318.2633881566272L1038.801585840499,319.6652853560987L1040.4034816738324,318.86858631286697L1041.4400025071657,312.636168556587L1041.4930064134157,314.5781997933728L1044.3081027675823,317.43075650438277L1045.4741887050825,319.769728461673L1045.6979829759157,302.4687369641491L1045.9571131842492,307.7962151731513L1046.2810259446658,306.8512996201088L1047.600234277999,310.659755178375L1047.7356887050823,313.110322262512L1048.3658462571657,296.14455968141533L1049.0784543300824,299.87298386149916L1050.2798762050825,292.6400043936834L1050.5566743821657,267.9423856797959L1051.9053293300824,237.76923937133782L1052.3058032884157,255.47787548063994L1052.547265527999,269.8765288683478L1052.8417316738323,281.6605540328055L1054.0608215175823,291.3971746619142L1055.9512941738324,279.0864422238348L1057.0349295904991,281.6331223145971L1058.5484855800823,288.27432930436527L1060.4625155279991,294.7090213667032L1060.8217642259158,300.5583634607535L1061.2104595384158,306.31060244447985L1064.6380454759158,311.71011141835584L1065.197531152999,309.97886968956203L1067.9125090175824,313.28132740634663L1068.501441309249,316.6150355374388L1068.5191092779992,320.0713062812677L1068.9843657884157,321.1840696978403L1069.7087525071656,320.2270839994086L1071.1987512050823,307.8996913897938L1071.5521105800824,309.793281992908L1072.211714746749,312.9822616762339L1074.4791040696657,316.9741358168723L1075.2034907884158,319.794104017242L1075.7570871425826,319.8414677514692L1080.0857394863324,322.2054423904997L1081.0751457363324,323.96451255612226L1081.2164894863324,320.2675733174164L1082.176449121749,316.75278071763347L1083.8136808925824,317.38004320941155L1085.038660059249,319.70028604042625L1087.8890923509157,156.56044808418568L1092.7418944342492,189.2834304443281L1093.0658071946657,207.80620462242345L1093.112921777999,230.04375923270848L1093.4839491217492,249.2574412170638L1094.208335840499,264.80776578666814L1094.738374902999,278.3238385318283L1095.8396782884158,288.5247319882629L1096.0929191738326,295.8832598388607L1096.6877407884158,300.7052273491023L1096.7466340175824,305.7838873507445L1097.406238184249,306.74032341124206L1099.2849321946658,171.509725905643L1099.7560780279991,199.75697218247473L1100.6571444342492,225.56553999743105L1102.1353644863323,245.8367907611098L1103.095324121749,259.43336927686L1103.9728332363325,271.37622953463017L1105.2449269863325,282.13467379735647L1107.8951222988323,281.2848797273112L1108.254370996749,287.0787928563864L1109.8091522467491,294.20511942194656L1109.9563853196657,300.40407050466615L1112.6890311529992,305.8730511603043L1113.7549986009158,281.51815865760005L1115.1154321946658,289.1555692815115L1115.321558496749,294.6680471046763L1115.3686730800823,301.04460821448413L1116.1990676113323,306.31406841727346L1117.2355884446658,306.8722680827161L1121.8115923509158,297.5830545547417L1124.9741587571657,302.62265248426945L1125.9282290696658,308.7378507629698L1126.2874777675825,313.4664745650556L1126.982417871749,312.64058125404773L1128.5960923509158,314.72752488762745L1130.3628892259158,315.08609684449254L1132.371148340499,288.67312911676163L1135.2274699550824,293.20206966024074L1137.4418553717492,299.0242556245176L1137.9130012050825,299.82156463551905L1139.2322095384159,304.6810123641363L1139.4854504238324,307.7025866073294L1140.7752121425824,311.11960495752146L1141.2051327154993,314.6569274704355L1143.4725220384157,317.0137913111076L1144.3205845384157,318.78256768888036L1144.6916118821657,319.78287221250906L1145.2098722988324,320.8975403822102L1146.2935077154991,322.81957410149874L1146.3406222988324,324.9083617833437L1146.5761952154992,319.1312312433864L1147.070898340499,316.58733550096184L1148.8082486009157,318.1394931966832L1149.2558371425823,317.48346316560935L1150.3218045904991,320.00939657750257L1151.346546777999,285.8445814879407L1155.056820215499,294.6731873166563L1155.3807329759159,295.9979032875699L1157.353656152999,300.7415319793702L1157.8071340175825,305.6331771686301L1161.381953027999,310.1337320175138L1161.699976465499,314.1765420569076L1164.4444009446656,313.21224875342267L1165.5339256842492,314.0697927127262L1166.4997746425825,312.63184573464764L1168.4196939134158,252.2194667949664L1168.5551483404993,267.2028022576216L1169.444436100916,279.82991273049595L1169.5033293300824,287.28879245687125L1170.2630519863326,291.7220830665848L1172.2772004238325,299.03711098142367L1172.4597694342492,305.1265901489356L1174.8390558925826,308.2973908172686L1174.9862889654992,264.29825621392774L1176.988658757166,226.88911252932908L1178.3196457363324,247.01837185634898L1178.6553371425825,262.19023806688836L1179.9627668300825,274.3456836364347L1180.7401574550825,280.7911867339091L1181.546994694666,286.1412593363664L1181.558773340499,295.2344117587626L1182.4362824550824,300.92011284397597L1184.2030793300826,306.65898684687L1184.3679803717491,311.77364284801416L1184.544660059249,312.6106126854785L1185.5399556321659,316.6819334128142L1185.5811808925826,315.55156609365474L1188.042917871749,261.4714759245114L1188.8144191738324,273.54156583902017L1190.0747342779991,280.2321789674503L1190.4398722988324,289.62687158896205L1192.9605025071658,296.93606000619735L1193.131292871749,302.0491475710148L1193.5317668300825,304.00119294660954L1194.5329517259158,293.7774419959731L1194.5859556321657,300.4022736191495L1195.3103423509158,306.0984917290802L1195.7225949550825,309.57174793941147L1196.3939777675826,313.87981088899795L1196.723779850916,309.34983814194385L1198.0253202154993,313.1123681081765L1198.6554777675824,312.13287391133576L1201.900494694666,314.1119696627786L1202.1242889654993,314.64319550281607L1204.5153540696658,317.0585646138126L1205.3457486009158,261.15016044077885L1206.6767355800823,271.06067303417217L1207.6602525071658,276.7095050165237L1209.8393019863324,287.03665516449456L1210.1337681321659,219.74295558775887L1211.4411978196658,242.43710367503772L1212.5130545904992,259.98779240997374L1213.0489829759158,265.1587304328686L1214.603764225916,277.34891823886284L1218.4318241217493,287.81907612714593L1220.2869608404992,292.0580117392547L1220.357632715499,293.9393282451636L1220.8346678717492,297.6103493000459L1220.8994504238326,304.8496881619076L1221.3411496425824,310.03097050150075L1221.6827303717491,313.4675401673834L1222.831148340499,295.3242080677446" style="fill: none;" fill="none"></path></g></g></g></g><g opacity="0.2"><g><g><g><path stroke="rgb(238, 51, 119)" stroke-width="2px" d="M46.40944912174849,296.2907219992744L47.710989486331826,60.653063456217524L48.24691787174849,262.2979552798801L48.84762880924849,87.49159181382926L49.70746995508182,307.81446891360815L51.014899642581824,-46.1578589545355L51.63916787174849,-75.16875508626296L53.559087142581824,298.0914194107056L53.86533193424849,24.9847245958117L56.39774078841516,320.4351554234823L56.51552724674849,79.27451587253151L59.71342959049849,310.3286395496792L60.83240094466516,-381.83951009114577L60.973744694665164,229.90626335144046L63.129236882165166,216.16103858947758L64.0597499029985,-557.236216905382L64.2010936529985,315.02954598532784L65.97377985091516,25.166644287109452L69.24235406966517,300.85037752787275L69.59571344466517,317.36527252197266L71.8513241217485,251.92350773281524L74.94910797591517,51.81756201850049L75.52037229883184,303.39237073262535L75.96207151758183,240.96248965793188L76.15641917383184,322.31779873106217L76.55100380924851,253.48978301154247L77.09282151758184,311.18650043275625L78.34724729883185,313.7831103642782L79.31898558008184,312.13125705718994L79.5192225592485,135.0606742858887L80.19649469466518,313.61565579308404L80.29072386133184,295.11745016309953L80.62052594466518,315.7072487513225L81.95151292383184,310.70892755720354L82.2754256842485,296.02196006774903L83.65941656966518,297.04727552202013L84.60759755924852,86.62324074639218L85.31431630924851,318.40593883726336L86.14471084049852,281.2789709515042L88.76545953841517,320.52760339313085L88.93036058008184,322.71784054438274L89.99043870508184,237.014637374878L90.49692047591518,323.392771159278L92.00458714258185,216.37536014980742L93.80083063216519,315.97076360914446L95.31438662174851,318.9434904416402L95.3497225592485,282.6390370262994L95.72663922591519,252.14279895358618L95.96810146549852,306.9075871255663L96.17422776758185,309.52823491626316L96.51580849674853,312.7017475234138L96.65715224674852,279.4846421559652L98.8715376634152,314.4236199378968L99.46046995508186,301.8346595976088L99.69015354883186,292.76135554843484L99.90216917383187,292.7945262485081L100.09062750716521,322.69283074802826L102.16955849674852,318.69950547748147L102.41102073633186,321.38740815056696L102.90572386133188,318.01162362628514L103.24141526758187,327.4877693812053L103.37686969466519,312.43212362925215L103.56532802799853,330.41142279836873L103.74200771549853,326.751610687044L104.23671084049853,327.9641364998288L104.5782915696652,274.1046756108602L104.99054417383186,326.109175072776L106.4864321946652,318.44968690872196L106.91635276758187,302.0630301581489L107.66429677799853,323.0864900747935L108.02943479883187,310.4270578490364L109.89046084049853,318.9621286498176L110.44994651758186,307.6799096107483L114.57836188216521,330.56688568592074L114.8610493821652,322.9854779614343L115.80334104883187,309.3452234056261L116.09191787174854,327.6422984759013L117.72914964258187,322.8878542529212L117.98827985091522,324.57593376901417L118.4476470384152,329.1624017847909L120.97416656966521,290.59452415042455L123.32400641341522,327.0713958528307L123.81870953841522,-136.81977861192482L124.60787880924855,310.7720271852282L124.77277985091521,321.74501068856983L125.31459755924854,256.9819404178196L125.34404417383188,313.1074624379476L126.2568892259152,320.5156151771546L126.53368740299855,317.21107434166805L127.25218479883188,310.2147059228685L127.6938840175819,326.90908036231997L128.53016787174855,317.25991096496585L128.98364573633188,301.57505230373806L131.2215884446652,315.75291097429067L131.81052073633188,264.9483853658041L132.43478896549854,286.44898717668326L132.51135016341522,317.04548636542427L133.6951040696652,310.83349800109863L133.72455068424856,11.127662658691468L135.49723688216523,230.53783031039768L136.90478505924855,289.5117048899333L140.62094781966522,323.7553710990482L144.11331630924855,282.0962977939182L144.30177464258188,323.36173951360917L144.4018931321652,315.27191204494903L144.54323688216522,282.88638265397816L144.7788097988319,-47.73045925564226L151.69287490299857,317.16273706224234L151.7399894863319,325.7285601139069L151.78710406966525,322.93872986369666L153.3654426113319,312.0404993269179L153.81303115299858,313.33808599048194L155.4502629238319,-111.72278730604377L155.48559886133188,319.7939146677653L155.6622785488319,-182.05811411539705L157.51152594466524,12.58739539252395L158.1004582363319,317.9589606814915L158.74828375716524,309.89450166490343L159.0898644863319,320.50696780946527L159.82014052799857,324.5735797193316L160.08516005924855,282.55193322499593L160.5033019863319,314.3325847943624L161.82251031966524,290.681647766961L162.75302334049857,315.6928708182441L166.39851422591525,314.1209085676405L166.56341526758192,-167.16767985026033L167.7118332363319,314.7531096140544L168.4597772467486,-159.5156709459092L168.8602512050819,310.8548053211636L168.9544803717486,308.5719438446893L169.4079582363319,319.5403133710226L170.2206847988319,314.23390097088287L170.47981500716523,288.173831876119L172.62941787174856,313.0330284966363L174.90858584049857,155.28487786187068L175.49162880924857,-23.955445183647974L178.67186318424856,227.6407956865099L180.84502334049856,320.4597322569953L181.05114964258192,329.30680579079524L182.81794651758193,312.0676679929098L183.37154287174857,-126.10252753363713L188.54236839258192,316.51344141430326L189.07829677799862,-511.383450656467L190.5447381842486,324.5848070303599L190.78031110091524,325.2464990880755L191.19256370508194,309.5033172607422L191.84038922591523,314.16686603758075L192.1525233404986,222.40435880025228L192.86513141341524,299.7334721035428L194.8203866217486,317.1879578908285L196.02769781966526,326.8992619143592L197.67670823633193,322.4691316286723L200.31512490299858,-214.313730875651L201.89935276758195,322.7834894021352L202.17615094466527,305.99713661405775L202.90053766341526,308.9318241437276L204.06662360091528,320.00929832458496L204.15496344466527,-421.1514105902778L205.79808453841528,326.7153190877703L208.64851683008195,313.00157577726577L208.88997906966526,315.9037227312724L209.2492277675819,321.9837882094913L209.90883193424858,314.75401120715674L210.4742069342486,315.12681103812326L214.54961839258192,324.6030311001672L215.5979178717486,-150.4431476169162L215.6685897467486,309.1103831715054L217.58850901758194,313.7229770766364L218.64858714258193,314.0454660309686L219.09028636133192,309.6436764823066L219.4141991217486,306.6616701761882L219.50842828841525,312.61741389168634L219.7498905279986,289.497596444024L220.65684625716528,321.30988897747466L220.91008714258192,171.26323182847767L221.9760545904986,318.3943211661445L222.12328766341528,325.45201674037514L223.41893870508193,323.39708790779116L225.7923358404986,295.869045914544L227.0644295904986,328.762789466646L227.30000250716526,325.2356611463759L227.3471170904986,319.6809064123366L229.75585016341526,231.4587789323595L229.95608714258194,308.0799969991048L231.4284178717486,314.7843958854676L232.9478631842486,303.57150440216066L233.15398948633194,299.4251550038656L233.28944391341525,314.22113005320233L233.51323818424862,121.23774210611982L238.20702854883194,329.732760975096L238.2835897467486,229.1129882388645L240.96323167383196,250.9241779751248L241.72295433008193,167.8582931518555L243.44852594466528,98.79313863118497L244.0492368821653,326.8699977874756L244.40848558008196,313.3498265160455L247.94207933008195,328.8064979076386L250.81017959049862,324.57398791313176L250.9044087571653,316.065436829461L251.92326162174862,320.78026148478193L252.37673948633196,326.1143844975366L253.9079634446653,323.54304493268336L254.34377334049864,179.00322036743168L255.24483974674862,316.66948439280196L256.47570823633197,283.27017993927007L256.6818345384153,325.71857620875045L259.938630111332,325.5273265149859L261.07526943424864,263.003282462226L262.23546604883194,323.15464159647627L262.30613792383195,324.0911531024509L262.85384495508197,278.8129493501452L263.26020823633195,270.54085443284777L263.3426587571653,310.7897439850702L263.56056370508196,149.54426218668624L263.949259017582,311.61801676220364L266.846805892582,323.84894655545554L267.288505111332,327.8439590930939L268.39569781966526,316.21200614505346L271.0400038092486,324.08063022295636L271.0458931321653,322.20111772219343L271.1695689134153,323.7199464162191L271.634825423832,309.8125894546509L273.507630111332,155.0485217624241L273.7078670904986,192.097839694553L274.80328115299864,321.5754348966811L278.118969955082,323.99507894515995L278.84924599674866,311.47256898880005L281.193196517582,311.14179924858945L281.935251205082,328.8749506208632L282.01181240299866,292.88552176157634L282.50062620508197,313.53241992526586L282.995329330082,315.4466843816969L283.72560537174866,320.59065942764283L284.17908323633196,325.6069371859233L286.09311318424864,312.97362044652306L286.864614486332,300.12352703942196L288.63730068424866,292.27887840271L289.2203436529986,317.85043265024825L289.59137099674865,314.7492773479886L292.1355584967486,327.53481569819985L292.394688705082,327.6869085099963L293.0955181321653,318.84689316219755L295.03899469466535,329.3651012155745L295.47480459049865,300.96317772335476L297.359387923832,318.47910064061483L297.924762923832,320.5070609410604L299.0260663092487,-650.7113606770832L299.57377334049863,312.4361064910889L299.956579330082,116.67554626464846L302.7893436529987,293.6896041022407L305.6044400071653,319.93048323525323L305.769341048832,250.40346535576717L306.158036361332,318.88978521558977L306.829419173832,321.68012570805024L307.1768892259153,319.5441377109952L308.28997125716535,323.8798276053535L308.366532455082,328.931030702591L308.401868392582,322.3232558462355L308.5844374029987,78.94648657904737L309.850641830082,313.5049183633593L318.7788553717487,327.02547603183325L321.122805892582,325.15551348262363L322.1416587571653,320.8848571830326L322.165216048832,329.1918898238076L322.25944521549866,325.37629778120254L322.430235580082,320.80013616349964L322.818930892582,312.6677188237508L323.560985580082,329.3965207444297L325.45145823633203,129.84341854519315L327.65406500716534,329.0744910081228L328.773036361332,22.921150377061707L329.11461709049865,324.10889566209585L329.9273436529987,309.1313040945265L330.663509017582,319.97613951365156L331.3996743821653,308.32714249293014L331.88259886133204,310.0551536666023L334.52101552799866,309.3915157530043L335.398524642582,319.9224541028341L336.39382021549864,319.45299754672584L337.97804808008203,320.23723691304525L340.97571344466536,159.54125332302522L343.20187750716536,295.47446914248997L343.543458236332,319.6146918296814L350.02171344466535,80.6498357137045L350.804993392582,316.13951013353136L350.840329330082,231.08244010077587L351.04645563216536,321.69338705274794L351.2938071946653,330.6010169294146L352.5659009446654,280.2257397969564L352.76613792383205,329.78687984413574L353.29028766341537,326.57931426366173L353.36095953841533,318.4611718177796L353.5670858404987,323.8449220816295L355.1395350592487,312.406777964698L356.91222125716536,303.0422791586982L357.589493392582,306.81362130906854L358.6024569342487,319.4536138004727L360.77561709049866,329.7773447540072L363.2373540696654,319.27645174662274L365.6932017259154,305.12660388946534L366.4823709967487,69.31818559434683L367.5071131842487,331.50298404428696L369.35047125716534,314.46916326946683L369.7568345384153,278.29289063347716L371.0465962571654,329.74724046124356L371.8239868821654,321.4197416570452L372.33635797591535,296.12834012773305L372.58959886133204,119.63627497355147L373.11374860091536,324.70041999816897L374.6685298509153,328.67097162140743L376.48833063216534,293.3562326219347L377.60730198633206,312.8192062801785L380.2633866217487,296.0234818776449L380.4223983404987,326.8884933259753L381.052555892582,320.8778059323629L383.0902616217487,150.16690436469185L383.3199452154987,316.0181398497688L385.9524725592487,313.5131198883057L386.2233814134153,-32.930794609917506L387.55436839258203,322.01082510418365L388.8912446946653,298.67448660532636L388.93835927799864,274.187855996026L390.17511709049865,-9.383671569824182L390.41069000716533,317.9801332579719L391.64744781966533,318.34477912055127L392.77819781966537,87.64023776584207L395.29882802799864,324.06613538000323L395.699301986332,327.282083299425L398.3377186529987,-14.73622572157113L399.98083974674864,324.3072590245141L400.8701275071653,36.790323384602935L403.97380068424866,298.7810727437338L406.565102767582,260.75722579956056L408.5910298509154,315.82609655592177L409.5451001634153,262.6195406595866L410.0515819342487,314.51397541893857L410.416719955082,317.2833107736376L412.13640224674873,317.4261528438992L412.3837538092487,216.79996888902457L414.93971995508207,-16.00956844753681L415.8113397467487,298.750767326355L419.3449334967487,284.0153674443563L419.66295693424865,326.43581630918715L420.045762923832,319.27136121326026L421.32963531966533,326.80155795415243L422.4250493821654,307.6956528133816L424.82789313216534,310.11863374710083L427.1541756842487,308.525887298584L427.35441266341536,305.5993438296848L429.692473861332,323.94649001227486L430.2342915696654,320.2414278348287L430.399192611332,327.7782131406996L431.8067407884153,315.22098293304447L432.03053505924873,321.3242064740923L432.73136448633204,314.60974244011777L432.8314829759154,330.8347078800202L433.27318219466537,-68.74912685818136L433.4086366217487,329.94113598399696L433.5912056321653,325.20948522355826L435.0223111009154,328.05432454215156L435.1047616217487,324.86546404626637L435.38744912174866,221.98422830369742L437.50760537174864,320.03644915686715L437.57827724674866,327.25654443634886L437.6725064134154,324.93242170015975L438.0376444342487,325.8347231970893L441.211989486332,303.8512915293376L442.56653375716536,315.40176522996694L442.6372056321654,323.1899186558194L444.46878505924866,325.7018412537045L444.8457017259154,312.74278685251875L445.4110767259154,325.35647759437563L446.5536053717487,308.0652247428894L448.0259361009154,308.0001099056668L448.13194391341534,328.4026416619619L448.9034452154987,317.50546727710304L449.091903548832,319.1477835125394L450.310993392582,293.74222939809164L451.724430892582,318.0552211019728L452.71383714258207,322.3769006358253L454.0448241217487,281.3467866049873L454.4511874029987,309.56752059724596L455.1049022467487,310.4145405663385L455.31102854883204,327.9768311288622L458.3734764654987,311.5297854741415L459.3452147467487,314.59208706749814L460.6879803717487,328.8958963129256L460.71742698633204,319.1190058496264L462.37821604883203,320.2434608777364L462.82580459049876,309.03627618153894L462.86702985091534,323.72966578801476L463.5914165696654,58.83098144531258L464.05078375716533,309.77762151294286L464.3275819342487,219.22888844807943L464.6220480800821,321.69799112213985L467.201571517582,-128.35775468614364L470.7057186529987,317.1793957286411L472.24283193424867,317.97613256242545L475.62330328841534,332.04937027030525L476.0944491217487,331.23811729219227L476.318243392582,328.7605751143562L477.5608905279987,325.17002715004816L478.2204946946654,315.6374337408278L479.82827985091535,309.5827307701111L480.2817577154987,20.172983635796502L480.3229829759154,319.494064617157L480.9943657884154,327.9266549958123L481.9131001634154,-0.7490173339843218L485.2346782884154,326.8179669486152L486.70111969466535,316.76789872911246L487.31949860091544,328.571064207289L487.5315142259154,323.67688395182296L487.8789842779987,324.41137024031747L489.2747538092487,330.62713489267566L489.59866656966534,306.49729291068184L489.99914052799875,316.52658882141117L493.8507577154987,309.83968084123404L495.68822646549876,323.6776091893514L497.2312290696654,323.8967250453102L498.52099078841536,328.2548774878184L501.7365611009154,288.0972816679213L502.0369165696654,319.8672587712606L503.19711318424874,124.39743160671662L504.0451756842487,324.07242869800996L504.8637915696654,322.9336264504327L505.68829677799874,329.3282275438309L506.41268349674874,314.6792939080133L506.8308254238321,322.1467159907023L506.9014972988321,319.44770489798657L507.8143423509154,324.71269850730897L510.5823241217488,320.34665068520445L511.27726422591536,323.6409311930339L511.58350901758206,304.15341835021974L513.491649642582,316.19800073835586L515.3232290696654,297.235865020752L518.9039374029987,80.01665183173293L519.0217238613321,302.8976438098484L525.6295441738321,323.2176778157552L526.2538124029987,313.13818001217317L530.7355871425821,316.46511007944747L532.3021470384155,326.85728631549415L534.8227772467487,264.4272843678793L535.6943970384154,327.10658374362527L538.4682681321653,328.10797626707296L539.1102043300821,323.4591006702847L539.6107967779988,323.9193758381738L539.9052629238321,322.97294581731165L541.3304790696654,321.029771926668L544.5166027675821,327.7083515644074L544.7286183925821,314.23008455700347L546.3128462571653,324.43018777635365L548.0384178717487,3.816222127278702L549.1279426113321,236.5061150868734L550.1821314134154,261.8369340684679L552.7616548509154,329.639752234353L553.8217329759154,323.9881376690335L553.933630111332,327.7292516814338L555.3293996425821,-748.1778313530816L556.5602681321654,327.97935856183375L556.7192798509154,230.4853754255507L556.9842993821654,153.4334376017253L559.2340207363321,329.8749010907279L561.3954022467487,319.8138448291355L562.0196704759154,236.94109908209907L562.6969426113321,321.89400142563716L563.8041353196654,329.74036358462445L564.5520793300822,326.4675216727787L566.5132238613321,305.082548681895L568.1327876634155,318.1410785251194L573.5568540696654,309.1904466205173L575.2706470384154,248.09912812974724L575.8419113613321,326.5367689768474L576.0244803717488,320.7058552847968L578.4096561529988,327.86934835116074L579.7583111009154,92.31921666463222L579.8525402675821,327.2074135568407L580.3119074550821,321.6034447193146L580.8596144863321,-62.309461466471326L583.3743553717487,328.99895236757067L585.2412707363321,323.8093577014076L585.9067642259155,323.8881182988485L586.7489374029989,322.9799505021837L587.8914660488321,304.7857046021356L588.2801613613321,7.536635165744399L588.2860506842487,322.227174753613L588.3567225592487,314.1181126382616L591.2130441738321,326.23381090694005L591.6370754238321,329.7759760167864L594.7701952154988,308.6963042471144L596.8903514654988,319.2349051475525L597.1494816738322,323.87637281947667L597.1965962571654,295.19815364413796L598.5982551113322,318.35329967074927L598.6453696946654,325.76342006259495L599.5405467779988,-1179.6946363661025L601.3426795904987,289.1218005498251L603.7101874029987,325.61430151727467L604.9528345384155,327.2185031519996L605.8539009446654,323.40115498436825L608.5099855800821,285.7455899980334L609.0400246425821,314.18207819196914L611.2190741217488,261.52905290391715L615.5477264654988,325.9150373087989L616.3192277675821,326.3946055783166L621.5430571946655,310.22395171059503L625.9247134446655,315.3482086181641L628.3157785488321,322.99148395856224L628.4158970384154,301.3818577448527L628.7456991217488,285.2132062064277L630.0236821946655,318.4586136711969L630.4889387050822,317.3121815681458L635.3181834967488,326.11805427869166L636.0190129238322,283.02821216583254L636.4430441738322,322.78692536354066L637.7799204759154,-56.24298824734153L638.5926470384155,327.43646972444327L639.4053736009155,329.9775068442027L640.3830012050822,327.1120230250889L640.8247004238322,326.8701880137126L641.6492056321655,323.708832052019L642.7446196946655,288.7374167336358L643.5750142259154,327.71694146792095L646.6315728196655,326.579381635454L646.6610194342488,328.6726479901208L647.1380545904989,328.7187382221222L648.6810571946655,304.1854239145915L650.4301861009155,290.9846345689562L651.2959165696656,331.5543926848306L652.9625949550821,252.6979821523031L653.9578905279988,329.07745635774404L654.5644907884155,312.9015544255575L655.8130272467488,-456.74350043402774L656.9732238613321,77.98043848673507L659.4644074550822,-660.139290025499L659.5056327154988,327.7078442944421L659.8943280279989,322.5143519719442L660.1829048509155,329.8700998597675L663.1570129238321,323.76518954700896L663.8048384446655,331.3005947219001L665.1063788092489,301.83129893408886L666.4373657884155,93.05106455485033L666.8613970384155,319.1923856205411L666.9615155279988,324.5870758745406L667.6034517259155,307.55448513031007L668.0510402675822,323.4801434569889L670.4774413092488,314.84989513821074L671.2489426113322,324.5607790788015L671.3785077154988,274.6576077991062L672.0734478196655,-199.62427062988272L674.5469634446655,-170.8280131022135L674.9356587571655,308.96122796800404L675.5187017259154,322.6312816619873L675.5834842779989,215.9147431691488L675.8131678717489,263.26036529541017L676.8496887050821,330.45395867294735L678.8108332363321,323.28981913460626L679.7354569342489,323.5516843742795L680.0770376634156,321.361607726415L680.2419387050821,326.6996392938826L680.7366418300822,256.3495808495416L687.7331574550822,322.89192925559155L688.1100741217489,8.92690361870665L689.8474243821655,322.42284621662566L692.2914933925822,321.85979835192364L692.9510975592489,287.6100131988526L693.0806626634155,32.862405225965766L695.1772616217488,321.8836806615194L695.7426366217488,319.4522544754876L698.5165077154988,270.70635125901964L698.7638592779989,316.9683555708991L700.2479686529989,313.7418629752265L700.5306561529989,319.0882545895047L700.7073358404988,295.9464402516683L702.2680064134155,261.6357618967692L704.3587160488321,323.8830535252889L706.5083189134156,312.1913051393297L707.0678045904988,327.7959418296814L707.2150376634155,329.1578809393777L707.7097407884155,320.6129376941257L707.7980806321656,325.63529971970456L708.4223488613322,327.49108744197423L708.4282381842488,314.4640469763014L710.1655884446656,310.45791016684643L713.1455858404988,73.28703409830736L717.2563332363322,327.2675428814358L717.5566887050821,315.3503466818068L718.4930910488322,190.009203169081L718.5519842779989,328.01136610772875L719.7592954759155,315.8462684631348L720.8841561529988,312.14154116312665L721.2021795904989,323.51716029379105L721.2964087571655,286.2985816319784L724.3529673509156,-252.931305609809L724.3765246425822,323.3598848077986L724.7593306321656,315.6617410871718L725.9784204759155,322.5679819001092L726.1433215175822,327.9486469321781L729.0644256842489,322.3559767405192L729.0703150071656,222.59000375535754L729.6298006842488,-153.74598236083975L730.5249777675822,320.8358818531037L731.6321704759156,313.002528889974L731.6557277675822,296.649389606052L734.9478592779989,324.7905872344971L735.5250129238322,324.6354369322459L738.5226782884155,321.45895104938086L742.2623983404989,321.29758966234L743.2989191738322,58.46346435546882L743.7523970384156,330.8540222830243L745.9491144863322,329.16002346144785L746.9974139654988,320.9311098999448L748.7936574550822,323.9419384532505L753.3284361009155,326.4106697877248L753.7230207363323,308.67044933107167L754.7065376634156,273.1461216396756L757.3979582363322,280.0755086263021L757.5451913092489,327.95340357886425L758.340249902999,323.4276469601526L760.9433306321655,292.23001007503933L761.485148340499,329.7813112682767L763.3461743821656,327.8796245310042L766.1966066738322,304.06615602705216L766.9504400071655,325.2210721810659L767.2743527675823,316.10658316082424L768.7996874029989,329.25586082670424L771.0199621425822,327.8217006418441L772.0329256842489,328.01905540890164L775.0953736009155,326.5240396711562L776.114226465499,275.54443062676324L776.308574121749,314.85497576395676L778.782089746749,313.8577622731527L781.6325220384157,325.0513279596965L781.7856444342489,317.82445091671417L783.8704647467489,283.1728871451484L785.8080519863322,324.10921468734745L787.1861535488323,324.15161532296077L787.8457577154988,327.8974721113841L791.2438970384155,323.5666627089183L792.0860702154989,316.1062581910028L792.8929074550822,328.61375414530437L795.4900988613323,309.8442938274808L796.5148410488322,327.31120772891575L801.4559829759156,317.13791451983985L801.626773340499,315.99450423982415L802.7162980800822,328.3139060762194L802.9989855800823,325.72171196937563L803.4760207363323,318.0900047620138L804.2357433925822,311.0748931143019L806.3735676113323,103.56589906480585L806.4913540696656,324.6650498072307L806.5149113613322,330.79815769195557L806.6385871425823,316.3968683984545L807.7634478196657,324.1748962402344L808.5467277675823,316.2299864874946L809.9248293300822,329.25686298211417L812.3630090175823,-332.73825039333764L814.1710311529989,-368.6119384765625L814.3830467779989,310.81493310928346L814.5302798509156,53.66786092122401L816.485535059249,293.72474839952264L817.5220558925822,327.65824181238816L817.704624902999,328.1010122034285L819.7482199550822,324.1271266672347L821.9154907884156,295.97475225660537L822.3866366217488,325.83503528700936L822.9932368821655,324.87144923739964L823.3112603196656,270.50462426079645L826.2088071946656,319.52662104500666L828.0816118821657,322.99488227102495L829.3065910488322,317.8510687192281L831.9450077154988,325.7179569827186L833.340777246749,319.08809210459395L838.8296262050823,329.8659193409814L839.7365819342489,302.9197536468506L840.0604946946656,328.0569015132057L840.2548423509155,319.1476983070374L840.6317590175823,-133.36916978624126L840.9497824550822,327.3994449615479L841.0263436529989,252.7168700324165L842.2866587571657,131.33881869845922L849.1123840175824,329.21535700427165L850.4198137050822,306.1013568136427L851.6919074550823,231.2067450205485L852.192499902999,326.7055610762702L854.4422212571656,321.1852402634091L855.054710840499,319.17091977861196L857.1630884446657,295.4953781763713L857.5400051113323,319.0395388391283L858.1407160488324,326.50943089061315L858.4587394863322,-410.1833462185329L858.5765259446657,314.9514680226644L858.9298853196657,320.2655409918891L860.249093652999,295.077811770969L862.7873918300824,-47.82535044352209L864.0241496425823,321.67429210344955L864.0771535488323,137.88569242689348L868.4764777675822,271.18078738318553L870.1784920904989,321.9621291690403L870.3787290696656,325.2927924262153L870.8793215175823,324.4225083827973L871.4918111009156,314.0749808205499L871.5507043300823,113.70839742024742L871.7273840175824,323.1187046898736L872.2750910488323,326.6566947301229L873.2703866217489,330.91619208123956L874.5365910488323,-278.622183227539L877.1632290696657,-133.95906134711367L877.2162329759155,309.6469618479411L877.8758371425823,279.0007105721368L878.1938605800824,323.06237592697147L879.1597095384155,311.1063616858589L879.295163965499,314.64746668073866L879.7133058925823,328.2249931441413L883.9477290696656,211.59015574985082L884.2186379238323,328.20790349642436L884.9430246425823,152.02170528835723L887.687449121749,329.0991431395213L887.7640103196657,326.5135841634539L889.0891079759157,264.1923866695828L889.9195025071656,296.0071501625909L892.3812394863322,320.97967604531186L894.4425025071656,274.9923980500963L896.344753809249,-1308.1968980577258L897.4872824550822,302.32063215043814L897.493171777999,314.4736553827922L897.6816301113323,329.1439528120889L903.482613184249,327.2536652829912L904.1068814134156,308.9707670211792L904.8136001634156,290.4629628923205L905.8383423509157,-574.8487569173176L906.4154959967491,327.50013507737054L907.652253809249,315.9721863428752L909.7252954759156,327.14553454717003L909.9785363613323,330.1083384063509L921.1034673509156,267.2920835706923L921.3154829759158,316.30914239883424L923.1470624029989,322.05753158993195L923.359078027999,324.2598045137194L927.9233032884157,327.1112571663327L927.9291926113324,306.77836604648166L929.0304959967491,328.2776550981734L933.7478436529991,320.0062626308865L934.1777642259157,307.8644488758511L934.6960246425823,304.0817070219252L934.7136926113322,323.0555139117771L935.8621105800822,320.7968983544244L937.1459829759157,329.4729436397553L937.1636509446656,321.45069007873536L937.564124902999,329.3246617926492L939.0894595384157,328.06780385441255L939.5841626634157,310.0070898373922L940.3615532884157,326.7845951239268L940.7855845384157,320.6382893032498L941.186058496749,318.71117664972945L941.2802876634156,331.5049229648378L941.7985480800824,315.768844403161L941.9752277675823,317.4115054236518L944.6489803717491,320.6068445099725L945.0082290696657,327.3801003403134L945.6737225592491,313.5754526668125L946.4275558925823,320.4118566724989L947.051824121749,330.47656537691756L947.5759738613323,332.89549260934194L948.2179100592491,330.7591192060047L951.3333618821657,-626.4597347683376L953.1590519863323,329.7809654924605L955.020078027999,133.02566570705838L956.133160059249,331.96583073404105L956.6867564134157,320.4453265825908L956.9576652675823,324.88863300747346L957.210906152999,326.5115768803491L957.528929590499,331.8356466346317L963.6243788092489,313.06193495856394L965.691531152999,331.2925165467792L965.7033097988324,332.50457125239905L967.4288814134158,325.673621389601L968.1120428717489,329.68076629903584L969.7433853196657,327.2934483263228L972.7704972988324,315.89735609690354L974.0543696946656,300.49923970964227L978.3005715175824,329.1785412920846L979.1780806321657,19.021829562717073L980.5267355800823,327.61433026525714L983.1887095384158,324.2518031226264L984.9260597988323,333.4036550031768L986.2570467779991,328.0011572996776L986.5102876634156,327.22781730228L987.0697733404991,317.3544038666619L987.705820215499,319.8870046509637L990.1911144863323,331.9562688933479L991.5162121425824,328.98999390072294L993.7247082363324,317.68757323159116L995.709410059249,323.8257775942485L995.8154178717491,316.33951716952856L997.334863184249,321.6498480319977L998.412609277999,321.6162800365024L998.5716209967491,309.42094930013025L1004.0015767259157,310.4692345725166L1004.4314972988324,316.33200719621453L1004.6965168300824,248.02159508599178L1004.7789673509158,327.54324608908763L1004.9026431321656,314.8548271497091L1005.3796782884157,314.49517670737373L1006.1747368821657,332.45319283008575L1008.235999902999,54.02082570393885L1009.5022043300823,330.36893695725337L1010.6447329759158,324.36614296171405L1012.423308496749,312.68900632858276L1013.5422798509157,329.72722113132477L1013.819078027999,320.2474100536771L1015.2737407884157,324.91415205531655L1016.6400637050823,328.4459676689572L1017.7531457363324,314.7947255664402L1018.2066236009157,331.8510366307365L1020.0617603196658,275.0323614120484L1020.3856730800824,330.9969911707772L1021.6872134446658,292.4902712715997L1024.1607290696656,321.00453227361044L1027.2938488613324,-27.669453938802008L1028.1890259446657,299.7840920978123L1028.271476465499,322.4391987376743L1029.3786691738323,325.24084679285687L1029.6083527675823,310.8904192394681L1029.6731353196656,312.5114935451084L1029.9970480800823,326.86020807160276L1030.7391027675824,320.15180948045526L1033.1831717779992,327.70503647592335L1034.137242090499,318.27980695300636L1036.451745996749,331.079246184561L1037.635499902999,322.59850132200455L1037.8180689134156,310.537616941664L1038.0654204759157,332.4308808777068L1038.801585840499,325.27287415398496L1040.4034816738324,315.6817901399401L1041.4400025071657,287.70649753146705L1041.4930064134157,322.34632474051585L1044.3081027675823,328.8409833484226L1045.4741887050825,329.1256162908342L1045.6979829759157,233.2647709740533L1045.9571131842492,329.1061280091604L1046.2810259446658,303.0716374079387L1047.600234277999,325.8935774114397L1047.7356887050823,322.9125905990601L1048.3658462571657,228.28150935702854L1049.0784543300824,314.7866805818346L1050.2798762050825,263.7080865224203L1050.5566743821657,169.1519108242459L1051.9053293300824,117.07665413750546L1052.3058032884157,326.31241991784844L1052.547265527999,327.47114241917933L1052.8417316738323,328.79665469063656L1054.0608215175823,330.34365717834896L1055.9512941738324,229.84351247151693L1057.0349295904991,291.81984267764625L1058.5484855800823,314.8391572634379L1060.4625155279991,320.447789616055L1060.8217642259158,323.9557318369548L1061.2104595384158,329.3195583793852L1064.6380454759158,333.30814731385976L1065.197531152999,303.053902774387L1067.9125090175824,326.49115827348504L1068.501441309249,329.9498680618074L1068.5191092779992,333.89638925658335L1068.9843657884157,325.63512336413066L1069.7087525071656,316.3991412056817L1071.1987512050823,258.59012095133465L1071.5521105800824,317.367644405365L1072.211714746749,325.73818040953745L1074.4791040696657,332.9416323794259L1075.2034907884158,331.07397681872055L1075.7570871425826,320.03092268837827L1080.0857394863324,331.6613409466214L1081.0751457363324,331.00079321861267L1081.2164894863324,305.47981636259294L1082.176449121749,302.69361031850184L1083.8136808925824,319.8890931765239L1085.038660059249,328.98125736448503L1087.8890923509157,-495.9989037407768L1092.7418944342492,320.1753598848979L1093.0658071946657,281.897301334805L1093.112921777999,318.9939776738485L1093.4839491217492,326.1121691544851L1094.208335840499,327.00906406508557L1094.738374902999,332.388129512469L1095.8396782884158,329.32830581400134L1096.0929191738326,325.31737124125164L1096.6877407884158,319.99309739006895L1096.7466340175824,326.0985273573134L1097.406238184249,310.56606765323215L1099.2849321946658,-369.41266411675343L1099.7560780279991,312.7459572898017L1100.6571444342492,328.7998112572564L1102.1353644863323,326.92179381582474L1103.095324121749,313.8196833398608L1103.9728332363325,319.14767056571117L1105.2449269863325,325.16845084826156L1107.8951222988323,277.88570344713L1108.254370996749,310.2544453726875L1109.8091522467491,322.71042568418716L1109.9563853196657,325.19987483554416L1112.6890311529992,327.74897378285726L1113.7549986009158,184.09858864678282L1115.1154321946658,319.7052117771573L1115.321558496749,316.7179583973355L1115.3686730800823,326.55085265371537L1116.1990676113323,327.3919092284309L1117.2355884446658,309.1050667444865L1121.8115923509158,260.426200442844L1124.9741587571657,322.7810442023807L1125.9282290696658,333.1986438777712L1126.2874777675825,332.38096977339853L1126.982417871749,309.3370080100166L1128.5960923509158,323.0752994219462L1130.3628892259158,316.520384671953L1132.371148340499,183.0212582058377L1135.2274699550824,311.31783183415735L1137.4418553717492,322.31299948162507L1137.9130012050825,303.0108006795248L1139.2322095384159,324.1188032786052L1139.4854504238324,319.78888358010187L1140.7752121425824,324.78767835828995L1141.2051327154993,328.80621752209134L1143.4725220384157,326.44124667379594L1144.3205845384157,325.85767319997154L1144.6916118821657,323.78409030702386L1145.2098722988324,325.35621306101484L1146.2935077154991,330.507708978653L1146.3406222988324,333.26351251072356L1146.5761952154992,296.0227090835572L1147.070898340499,306.4117525312636L1148.8082486009157,324.3481239795685L1149.2558371425823,314.85934304131405L1150.3218045904991,330.1131302250756L1151.346546777999,149.18532112969297L1155.056820215499,329.9876106315189L1155.3807329759159,301.29676717122396L1157.353656152999,319.71604674657186L1157.8071340175825,325.19975792566936L1161.381953027999,328.13595141304864L1161.699976465499,330.34778221448266L1164.4444009446656,309.355075539483L1165.5339256842492,317.4999685499403L1166.4997746425825,306.88005782233347L1168.4196939134158,10.56995103624138L1168.5551483404993,327.1361441082425L1169.444436100916,330.3383546219932L1169.5033293300824,317.1243113623725L1170.2630519863326,309.45524550543894L1172.2772004238325,328.29722264077935L1172.4597694342492,329.48450681898333L1174.8390558925826,320.9805934906006L1174.9862889654992,88.3017178005643L1176.988658757166,77.25253779093431L1178.3196457363324,327.53540916442876L1178.6553371425825,322.87770290904575L1179.9627668300825,322.96746591462033L1180.7401574550825,306.57319912380643L1181.546994694666,307.5415497461955L1181.558773340499,331.6070214483473L1182.4362824550824,323.6629171848297L1184.2030793300826,329.6144828584459L1184.3679803717491,332.23226685259084L1184.544660059249,315.958492035336L1185.5399556321659,332.9672163221572L1185.5811808925826,311.0300968170166L1188.042917871749,45.151115247938414L1188.8144191738324,321.8219254970551L1190.0747342779991,306.9946314811707L1190.4398722988324,327.2056420750088L1192.9605025071658,326.1728136751387L1193.131292871749,322.501497830285L1193.5317668300825,311.8093744489882L1194.5329517259158,252.88243819342722L1194.5859556321657,326.90160011185543L1195.3103423509158,328.8833641688029L1195.7225949550825,323.4647727807363L1196.3939777675826,331.11206268734406L1196.723779850916,291.22994715372727L1198.0253202154993,328.16248797310726L1198.6554777675824,308.2148971239726L1201.900494694666,322.0283526685503L1202.1242889654993,316.7680988629659L1204.5153540696658,326.7200410577986L1205.3457486009158,37.51654374864371L1206.6767355800823,310.7027234077454L1207.6602525071658,299.30483294592966L1209.8393019863324,328.3452557563782L1210.1337681321659,-49.431842719184L1211.4411978196658,333.21369602415297L1212.5130545904992,330.1905473497179L1213.0489829759158,285.842482524448L1214.603764225916,326.1096694628398L1218.4318241217493,329.6997076802784L1220.2869608404992,309.0137541876899L1220.357632715499,301.46459426879886L1220.8346678717492,312.29443351957536L1220.8994504238326,333.80704360935425L1221.3411496425824,330.7560998598735L1221.6827303717491,327.21381883091397L1222.831148340499,222.75087966918952" style="fill: none;" fill="none"></path></g></g></g></g></g></g><g transform="translate(30, 374)" clip-path="url(#clip_1)"><clipPath id="clip_1"><rect width="1413" height="26"></rect></clipPath><g><g><line x1="44.972454330081824" y1="0" x2="44.972454330081824" y2="5" style="visibility: inherit;" fill="rgb(0, 0, 0)" stroke="rgb(204, 204, 204)" stroke-width="1px"></line><line x1="162.75891266341526" y1="0" x2="162.75891266341526" y2="5" style="visibility: inherit;" fill="rgb(0, 0, 0)" stroke="rgb(204, 204, 204)" stroke-width="1px"></line><line x1="280.54537099674866" y1="0" x2="280.54537099674866" y2="5" style="visibility: inherit;" fill="rgb(0, 0, 0)" stroke="rgb(204, 204, 204)" stroke-width="1px"></line><line x1="398.331829330082" y1="0" x2="398.331829330082" y2="5" style="visibility: inherit;" fill="rgb(0, 0, 0)" stroke="rgb(204, 204, 204)" stroke-width="1px"></line><line x1="516.1182876634153" y1="0" x2="516.1182876634153" y2="5" style="visibility: inherit;" fill="rgb(0, 0, 0)" stroke="rgb(204, 204, 204)" stroke-width="1px"></line><line x1="633.9047459967488" y1="0" x2="633.9047459967488" y2="5" style="visibility: inherit;" fill="rgb(0, 0, 0)" stroke="rgb(204, 204, 204)" stroke-width="1px"></line><line x1="751.6912043300822" y1="0" x2="751.6912043300822" y2="5" style="visibility: inherit;" fill="rgb(0, 0, 0)" stroke="rgb(204, 204, 204)" stroke-width="1px"></line><line x1="869.4776626634157" y1="0" x2="869.4776626634157" y2="5" style="visibility: inherit;" fill="rgb(0, 0, 0)" stroke="rgb(204, 204, 204)" stroke-width="1px"></line><line x1="987.264120996749" y1="0" x2="987.264120996749" y2="5" style="visibility: inherit;" fill="rgb(0, 0, 0)" stroke="rgb(204, 204, 204)" stroke-width="1px"></line><line x1="1105.0505793300824" y1="0" x2="1105.0505793300824" y2="5" style="visibility: inherit;" fill="rgb(0, 0, 0)" stroke="rgb(204, 204, 204)" stroke-width="1px"></line><line x1="1222.837037663416" y1="0" x2="1222.837037663416" y2="5" style="visibility: inherit;" fill="rgb(0, 0, 0)" stroke="rgb(204, 204, 204)" stroke-width="1px"></line><line x1="1340.6234959967492" y1="0" x2="1340.6234959967492" y2="5" style="visibility: inherit;" fill="rgb(0, 0, 0)" stroke="rgb(204, 204, 204)" stroke-width="1px"></line></g><g transform="translate(0, 8)"><text x="44.972454330081824" y="0" dx="0em" dy="0.95em" style="text-anchor: middle; visibility: inherit; font-family: Roboto, sans-serif; font-size: 12px; font-weight: 200;" fill="rgb(33, 33, 33)" stroke="none" stroke-width="1px">0</text><text x="162.75891266341526" y="0" dx="0em" dy="0.95em" style="text-anchor: middle; visibility: inherit; font-family: Roboto, sans-serif; font-size: 12px; font-weight: 200;" fill="rgb(33, 33, 33)" stroke="none" stroke-width="1px">20k</text><text x="280.54537099674866" y="0" dx="0em" dy="0.95em" style="text-anchor: middle; visibility: inherit; font-family: Roboto, sans-serif; font-size: 12px; font-weight: 200;" fill="rgb(33, 33, 33)" stroke="none" stroke-width="1px">40k</text><text x="398.331829330082" y="0" dx="0em" dy="0.95em" style="text-anchor: middle; visibility: inherit; font-family: Roboto, sans-serif; font-size: 12px; font-weight: 200;" fill="rgb(33, 33, 33)" stroke="none" stroke-width="1px">60k</text><text x="516.1182876634153" y="0" dx="0em" dy="0.95em" style="text-anchor: middle; visibility: inherit; font-family: Roboto, sans-serif; font-size: 12px; font-weight: 200;" fill="rgb(33, 33, 33)" stroke="none" stroke-width="1px">80k</text><text x="633.9047459967488" y="0" dx="0em" dy="0.95em" style="text-anchor: middle; visibility: inherit; font-family: Roboto, sans-serif; font-size: 12px; font-weight: 200;" fill="rgb(33, 33, 33)" stroke="none" stroke-width="1px">100k</text><text x="751.6912043300822" y="0" dx="0em" dy="0.95em" style="text-anchor: middle; visibility: inherit; font-family: Roboto, sans-serif; font-size: 12px; font-weight: 200;" fill="rgb(33, 33, 33)" stroke="none" stroke-width="1px">120k</text><text x="869.4776626634157" y="0" dx="0em" dy="0.95em" style="text-anchor: middle; visibility: inherit; font-family: Roboto, sans-serif; font-size: 12px; font-weight: 200;" fill="rgb(33, 33, 33)" stroke="none" stroke-width="1px">140k</text><text x="987.264120996749" y="0" dx="0em" dy="0.95em" style="text-anchor: middle; visibility: inherit; font-family: Roboto, sans-serif; font-size: 12px; font-weight: 200;" fill="rgb(33, 33, 33)" stroke="none" stroke-width="1px">160k</text><text x="1105.0505793300824" y="0" dx="0em" dy="0.95em" style="text-anchor: middle; visibility: inherit; font-family: Roboto, sans-serif; font-size: 12px; font-weight: 200;" fill="rgb(33, 33, 33)" stroke="none" stroke-width="1px">180k</text><text x="1222.837037663416" y="0" dx="0em" dy="0.95em" style="text-anchor: middle; visibility: inherit; font-family: Roboto, sans-serif; font-size: 12px; font-weight: 200;" fill="rgb(33, 33, 33)" stroke="none" stroke-width="1px">200k</text><text x="1340.6234959967492" y="0" dx="0em" dy="0.95em" style="text-anchor: middle; visibility: inherit; font-family: Roboto, sans-serif; font-size: 12px; font-weight: 200;" fill="rgb(33, 33, 33)" stroke="none" stroke-width="1px">220k</text></g><line x1="0" y1="0" x2="1413.4375" y2="0" fill="rgb(0, 0, 0)" stroke="rgb(204, 204, 204)" stroke-width="1px"></line></g></g></g></g></svg>