<svg viewBox="0 0 1444 400" xmlns="http://www.w3.org/2000/svg"><g><g><g><g><g><line x1="51.125" y1="341" x2="46.125" y2="341" style="visibility: inherit;" fill="rgb(0, 0, 0)" stroke="rgb(204, 204, 204)" stroke-width="1px"></line><line x1="51.125" y1="294.25" x2="46.125" y2="294.25" style="visibility: inherit;" fill="rgb(0, 0, 0)" stroke="rgb(204, 204, 204)" stroke-width="1px"></line><line x1="51.125" y1="247.5" x2="46.125" y2="247.5" style="visibility: inherit;" fill="rgb(0, 0, 0)" stroke="rgb(204, 204, 204)" stroke-width="1px"></line><line x1="51.125" y1="200.75" x2="46.125" y2="200.75" style="visibility: inherit;" fill="rgb(0, 0, 0)" stroke="rgb(204, 204, 204)" stroke-width="1px"></line><line x1="51.125" y1="154" x2="46.125" y2="154" style="visibility: inherit;" fill="rgb(0, 0, 0)" stroke="rgb(204, 204, 204)" stroke-width="1px"></line><line x1="51.125" y1="107.24999999999999" x2="46.125" y2="107.24999999999999" style="visibility: inherit;" fill="rgb(0, 0, 0)" stroke="rgb(204, 204, 204)" stroke-width="1px"></line><line x1="51.125" y1="60.49999999999999" x2="46.125" y2="60.49999999999999" style="visibility: inherit;" fill="rgb(0, 0, 0)" stroke="rgb(204, 204, 204)" stroke-width="1px"></line><line x1="51.125" y1="13.749999999999993" x2="46.125" y2="13.749999999999993" style="visibility: inherit;" fill="rgb(0, 0, 0)" stroke="rgb(204, 204, 204)" stroke-width="1px"></line></g><g transform="translate(41.125, 0)"><text x="0" y="341" dx="0em" dy="0.3em" style="text-anchor: end; visibility: inherit; font-family: Roboto, sans-serif; font-size: 12px; font-weight: 200;" fill="rgb(33, 33, 33)" stroke="none" stroke-width="1px">-100</text><text x="0" y="294.25" dx="0em" dy="0.3em" style="text-anchor: end; visibility: inherit; font-family: Roboto, sans-serif; font-size: 12px; font-weight: 200;" fill="rgb(33, 33, 33)" stroke="none" stroke-width="1px">-80</text><text x="0" y="247.5" dx="0em" dy="0.3em" style="text-anchor: end; visibility: inherit; font-family: Roboto, sans-serif; font-size: 12px; font-weight: 200;" fill="rgb(33, 33, 33)" stroke="none" stroke-width="1px">-60</text><text x="0" y="200.75" dx="0em" dy="0.3em" style="text-anchor: end; visibility: inherit; font-family: Roboto, sans-serif; font-size: 12px; font-weight: 200;" fill="rgb(33, 33, 33)" stroke="none" stroke-width="1px">-40</text><text x="0" y="154" dx="0em" dy="0.3em" style="text-anchor: end; visibility: inherit; font-family: Roboto, sans-serif; font-size: 12px; font-weight: 200;" fill="rgb(33, 33, 33)" stroke="none" stroke-width="1px">-20</text><text x="0" y="107.24999999999999" dx="0em" dy="0.3em" style="text-anchor: end; visibility: inherit; font-family: Roboto, sans-serif; font-size: 12px; font-weight: 200;" fill="rgb(33, 33, 33)" stroke="none" stroke-width="1px">0</text><text x="0" y="60.49999999999999" dx="0em" dy="0.3em" style="text-anchor: end; visibility: inherit; font-family: Roboto, sans-serif; font-size: 12px; font-weight: 200;" fill="rgb(33, 33, 33)" stroke="none" stroke-width="1px">20</text><text x="0" y="13.749999999999993" dx="0em" dy="0.3em" style="text-anchor: end; visibility: inherit; font-family: Roboto, sans-serif; font-size: 12px; font-weight: 200;" fill="rgb(33, 33, 33)" stroke="none" stroke-width="1px">40</text></g><line x1="51.125" y1="0" x2="51.125" y2="374" fill="rgb(0, 0, 0)" stroke="rgb(204, 204, 204)" stroke-width="1px"></line></g></g><g transform="translate(51, 0)" clip-path="url(#clip_0)"><clipPath id="clip_0"><rect width="1392" height="374"></rect></clipPath><g><g><g><line x1="11.072916666666686" y1="0" x2="11.072916666666686" y2="374" fill="rgb(0, 0, 0)" stroke="rgb(66, 66, 66)" stroke-width="1px" opacity="0.25"></line><line x1="127.14583333333344" y1="0" x2="127.14583333333344" y2="374" fill="rgb(0, 0, 0)" stroke="rgb(66, 66, 66)" stroke-width="1px" opacity="0.25"></line><line x1="243.2187500000002" y1="0" x2="243.2187500000002" y2="374" fill="rgb(0, 0, 0)" stroke="rgb(66, 66, 66)" stroke-width="1px" opacity="0.25"></line><line x1="359.29166666666697" y1="0" x2="359.29166666666697" y2="374" fill="rgb(0, 0, 0)" stroke="rgb(66, 66, 66)" stroke-width="1px" opacity="0.25"></line><line x1="475.36458333333377" y1="0" x2="475.36458333333377" y2="374" fill="rgb(0, 0, 0)" stroke="rgb(66, 66, 66)" stroke-width="1px" opacity="0.25"></line><line x1="591.4375000000006" y1="0" x2="591.4375000000006" y2="374" fill="rgb(0, 0, 0)" stroke="rgb(66, 66, 66)" stroke-width="1px" opacity="0.25"></line><line x1="707.5104166666673" y1="0" x2="707.5104166666673" y2="374" fill="rgb(0, 0, 0)" stroke="rgb(66, 66, 66)" stroke-width="1px" opacity="0.25"></line><line x1="823.583333333334" y1="0" x2="823.583333333334" y2="374" fill="rgb(0, 0, 0)" stroke="rgb(66, 66, 66)" stroke-width="1px" opacity="0.25"></line><line x1="939.6562500000009" y1="0" x2="939.6562500000009" y2="374" fill="rgb(0, 0, 0)" stroke="rgb(66, 66, 66)" stroke-width="1px" opacity="0.25"></line><line x1="1055.7291666666677" y1="0" x2="1055.7291666666677" y2="374" fill="rgb(0, 0, 0)" stroke="rgb(66, 66, 66)" stroke-width="1px" opacity="0.25"></line><line x1="1171.8020833333344" y1="0" x2="1171.8020833333344" y2="374" fill="rgb(0, 0, 0)" stroke="rgb(66, 66, 66)" stroke-width="1px" opacity="0.25"></line><line x1="1287.8750000000011" y1="0" x2="1287.8750000000011" y2="374" fill="rgb(0, 0, 0)" stroke="rgb(66, 66, 66)" stroke-width="1px" opacity="0.25"></line></g><g><line x1="0" y1="341" x2="1392.875" y2="341" fill="rgb(0, 0, 0)" stroke="rgb(66, 66, 66)" stroke-width="1px" opacity="0.25"></line><line x1="0" y1="294.25" x2="1392.875" y2="294.25" fill="rgb(0, 0, 0)" stroke="rgb(66, 66, 66)" stroke-width="1px" opacity="0.25"></line><line x1="0" y1="247.5" x2="1392.875" y2="247.5" fill="rgb(0, 0, 0)" stroke="rgb(66, 66, 66)" stroke-width="1px" opacity="0.25"></line><line x1="0" y1="200.75" x2="1392.875" y2="200.75" fill="rgb(0, 0, 0)" stroke="rgb(66, 66, 66)" stroke-width="1px" opacity="0.25"></line><line x1="0" y1="154" x2="1392.875" y2="154" fill="rgb(0, 0, 0)" stroke="rgb(66, 66, 66)" stroke-width="1px" opacity="0.25"></line><line x1="0" y1="107.24999999999999" x2="1392.875" y2="107.24999999999999" fill="rgb(0, 0, 0)" stroke="rgb(66, 66, 66)" stroke-width="1px" opacity="0.25"></line><line x1="0" y1="60.49999999999999" x2="1392.875" y2="60.49999999999999" fill="rgb(0, 0, 0)" stroke="rgb(66, 66, 66)" stroke-width="1px" opacity="0.25"></line><line x1="0" y1="13.749999999999993" x2="1392.875" y2="13.749999999999993" fill="rgb(0, 0, 0)" stroke="rgb(66, 66, 66)" stroke-width="1px" opacity="0.25"></line></g></g></g><g><g><line x1="0" y1="107.24999999999999" x2="1392.875" y2="107.24999999999999" fill="rgb(0, 0, 0)" stroke="rgb(153, 153, 153)" stroke-width="1.5px"></line></g></g><g><g><line x1="11.072916666666686" y1="0" x2="11.072916666666686" y2="374" fill="rgb(0, 0, 0)" stroke="rgb(153, 153, 153)" stroke-width="1.5px"></line></g></g><g><g><g><g><g><path stroke="rgb(238, 51, 119)" stroke-width="2px" d="M12.48900625000002,68.55491154193876L13.771611979166687,65.64258005354135L14.29974375000002,63.079664821312086L14.891715625000021,63.940450631053764L15.739047916666689,67.02786245452172L17.02745729166669,66.33274190291453L17.642643750000023,65.3505500705706L19.534632291666693,63.664955639186346L19.836421875000024,65.06232419522904L22.33198958333336,66.58515632866526L22.44806250000003,65.14674695762723L25.59944218750003,66.33783694664378L26.702134895833364,65.19447495452702L26.841422395833362,62.652907879332304L28.965556770833366,64.13634791207151L29.88253281250003,61.65157342935266L30.021820312500036,63.88750670187562L31.76871770833337,62.85313133107533L34.98974114583337,64.15279528839712L35.33795989583337,67.56547728457852L37.56075625000004,68.97456077974101L40.61347395833338,67.9788176306585L41.17642760416671,69.36397599526384L41.61170104166671,74.08814968909294L41.80322135416671,76.47486232188183L42.19206562500005,76.48377037331149L42.72600104166671,76.68823771827464L43.96217760416671,81.07424432510794L44.91977916666671,81.99696573261117L45.11710312500005,82.1612646142698L45.78452239583338,81.22595772517555L45.87738072916671,80.95480083921373L46.20238489583338,84.33480884929654L47.51400885416671,85.82583659696373L47.83320937500005,85.39028681851521L49.19706614583338,88.4681116084467L50.13145312500005,90.62517894667091L50.82789062500005,92.44828945604084L51.64620468750006,92.60834285088558L54.228827083333385,95.34412667816255L54.39132916666672,97.38072595511318L55.435985416666725,100.96500104766773L55.93509895833339,102.36184327590084L57.42083229166673,103.53028910081257L59.19094427083339,105.27915429318507L60.68248125000006,106.32239201526227L60.717303125000065,107.10920497587213L61.08873645833339,106.83159134088118L61.326685937500066,106.80979562571396L61.52981354166673,107.35122628329111L61.86642500000006,105.670596537651L62.005712500000065,105.83393405952874L64.1878833333334,106.47963384731055L64.76824791666672,107.1868968375888L64.99459010416673,108.5297828477059L65.20352135416672,109.50948689533858L65.38923802083339,111.13001945565902L67.43792500000006,110.47339635608313L67.67587447916674,109.64936538479392L68.16338072916673,111.48742530329604L68.49418854166673,113.95951691065939L68.6276723958334,113.42002048225343L68.81338906250006,114.18742668427919L68.98749843750007,116.00025943067126L69.47500468750006,116.87407545217353L69.8116161458334,117.4695775260214L70.21787135416673,117.77637734416166L71.69199739583341,118.62519814860053L72.11566354166673,118.28764856342411L72.85272656250007,119.41944038683542L73.21255260416673,120.00533712799763L75.04650468750008,120.16020635920877L75.59785104166674,119.69136089513971L79.66620677083341,122.55465839237783L79.94478177083342,124.5624599111329L80.87336510416674,124.52300873564381L81.15774375000008,127.03089837278098L82.77115729166674,128.53701505165944L83.02651770833342,129.55133958276485L83.4792020833334,131.04264118060948L85.96896614583342,132.76102654013428L88.28462083333342,136.21037309472803L88.77212708333342,136.93903839536085L89.54981562500008,138.69664054193572L89.71231770833342,140.71683942755217L90.24625312500008,142.92413964403923L90.27527135416676,143.32849734085227L91.17483645833343,143.95005701453894L91.44760781250008,143.96300227622405L92.15565260416675,145.77325640529276L92.59092604166676,146.0954410574548L93.4150437500001,147.9865969793483L93.86192447916675,146.90549093272455L96.06730989583343,148.9148240755608L96.64767447916675,150.42653515994036L97.2628609375001,150.15153214011409L97.33830833333342,150.2923894904524L98.50484114583342,152.5806987882959L98.53385937500009,154.11788718273104L100.28075677083342,154.79775953441688L101.6678281250001,154.6342164432722L105.32992864583343,156.94943843678757L108.77149062500011,158.73283141310637L108.95720729166678,162.188911391035L109.05586927083343,164.22854884219694L109.19515677083344,166.4052872893584L109.42730260416678,167.45808373911683L116.24078281250011,170.0924919147081L116.28721197916677,173.02758283772442L116.33364114583344,174.6519199431963L117.88901822916678,177.45032095445342L118.33009531250012,178.7642319451607L119.94350885416678,180.6950762376077L119.97833072916677,182.88191680790058L120.15244010416677,183.4357121458178L121.97478489583345,182.71977396412478L122.55514947916679,183.46470718705035L123.19355052083345,184.23876259107377L123.53016197916679,186.21480981651717L124.24981406250012,188.07856335118868L124.51097812500011,186.97069889605203L124.9230369791668,187.6442755532287L126.22305364583345,187.59855322456536L127.14002968750012,188.28616307907308L130.73248645833345,189.61797914451867L130.89498854166678,191.3731792541078L132.02669947916678,190.75495029224774L132.76376250000013,192.53729136096564L133.15841041666678,194.00938384141273L133.25126875000012,195.39278036757938L133.6981494791668,195.59059900605388L134.4990526041668,196.56586966008922L134.75441302083345,197.78212930274807L136.87274375000013,197.47990728626885L139.11875468750011,197.83834635742699L139.6933156250001,197.9525404225047L142.82728437500012,198.95201670728179L144.96882968750015,201.35554018658053L145.1719572916668,203.22136243376457L146.91305104166682,202.85126606776976L147.45859375000015,203.1402701898786L152.55419479166682,205.45496796006944L153.08232656250013,206.20633813567946L154.52743437500013,207.9501345763842L154.7595802083335,209.11985350690202L155.1658354166668,208.82865872257486L155.8042364583335,209.88115847487077L156.11182968750015,209.0967079001969L156.8140708333335,209.70749170925663L158.74088125000014,210.06250503656426L159.93062864583348,211.4879694223178L161.55564947916682,212.3342238235293L164.15568281250015,212.558679126725L165.7168635416668,214.1194962875251L165.9896348958335,216.61391489157705L166.70348333333348,216.05894037921925L167.85260520833347,217.90744848600784L167.93965989583347,218.85512429516916L169.5588770833335,219.6098997214747L172.36784166666683,218.86923668696977L172.60579114583348,220.05732548963624L172.95981354166682,219.74693007096928L173.60982187500016,221.11457432449086L174.16697187500014,223.34782328558148L178.18309479166683,225.8044153114333L179.21614375000019,225.10567154090995L179.28578750000017,225.64392761549468L181.17777604166682,227.48263047664253L182.22243229166682,228.439673402539L182.65770572916682,227.2799626085211L182.97690625000016,228.5168157746831L183.06976458333352,227.76957675381016L183.30771406250014,227.4011448777796L184.2014755208335,228.8222412234212L184.45103229166685,228.82315200850687L185.5014921875002,229.51248296964422L185.6465833333335,228.74909685507023L186.92338541666683,230.4089776679246L189.26225468750016,231.8208541237806L190.51584218750017,232.67353331275737L190.7479880208335,233.11395856243732L190.7944171875002,231.7772431477099L193.16810833333352,232.05661466472858L193.36543229166682,231.16564234060854L194.81634375000016,232.70658527980495L196.31368437500018,235.2810195475439L196.51681197916682,236.58472440955003L196.65029583333353,237.2381590614077L196.87083437500016,233.36678592756246L201.49634010416688,235.79983698522926L201.5717875000002,235.5020392163267L204.21244635416684,236.27804152358934L204.96111666666687,236.80304424754274L206.6615848958335,236.2090644931117L207.2535567708335,237.11379429621053L207.60757916666685,237.66609453616582L211.08976666666686,238.0788853983723L213.91614218750018,239.87607268179602L214.0090005208335,242.65005600996926L215.01303125000018,243.9790659185101L215.45991197916686,245.01463694539459L216.96885989583353,247.6184948537095L217.3983296875002,245.73049375322208L218.2862875000002,246.5858735697011L219.49924947916685,248.4440385640891L219.70237708333354,248.73269097814816L222.91179322916688,249.4328534794637L224.0318968750002,249.05018836599893L225.17521510416688,248.39279282841923L225.24485885416686,247.91930572155192L225.78459791666685,248.94427331259308L226.18504947916685,249.17588655130433L226.26630052083354,248.64609710038795L226.48103541666686,248.32008878756437L226.86407604166686,247.64667786255578L229.71946979166688,247.60996626770574L230.15474322916688,249.18903710489334L231.24582864583354,251.24587245658924L233.85166562500018,252.16271599353064L233.85746927083352,253.43843903399076L233.97934583333355,253.0825742996261L234.43783385416688,254.0715179090917L236.28339322916685,253.77160465281966L236.4807171875002,252.96497403750232L237.5601953125002,253.3007803850922L240.82764791666685,254.719100527251L241.54730000000023,256.2148928294851L243.85715104166687,255.4013840302049L244.58841041666687,255.5956576430177L244.6638578125002,255.0522875852088L245.14556041666688,256.1915911918243L245.63306666666688,257.3501629261462L246.3527187500002,256.7805937312673L246.7995994791669,257.2286830157145L248.68578437500022,258.9736112380111L249.44606197916687,257.66668568802544L251.1929593750002,257.25404933891826L251.76752031250024,255.66155080002258L252.13315000000023,256.6992073567844L254.64032500000022,258.31183655040553L254.8956854166669,259.3858096105027L255.58631927083357,260.34621576167484L257.50152239583355,260.76076268273465L257.93099218750024,260.551378967904L259.7881588541669,261.4324263592903L260.3453088541669,260.02973352593926L261.43059062500026,260.2424395650446L261.9703296875002,261.58368347881793L262.34756666666686,259.9908457469826L265.1391203125002,259.83338666533507L267.91326302083354,260.039472374718L268.0757651041669,260.14562523635277L268.4588057291669,261.56487282015524L269.1204213541669,261.3986954172265L269.4628364583336,263.1068272177228L270.5597255208336,264.4444384816367L270.63517291666693,263.6099051287237L270.6699947916669,263.9826578371098L270.84990781250025,263.1441821473734L272.0976916666669,263.51475827359326L280.8960187500003,263.40323383063605L283.2058697916669,264.32114093184896L284.20990052083357,263.7967669477497L284.2331151041669,264.8718681709317L284.32597343750024,266.3761241448996L284.4942791666669,268.2876556025408L284.87731979166693,268.81944495093524L285.6085791666669,268.90433817586654L287.4715494791669,267.73506054466054L289.6421130208336,268.255204426329L290.74480572916696,266.7095757953967L291.0814171875003,265.3154799646254L291.88232031250027,266.76398810912104L292.6077760416669,267.4139382518842L293.3332317708336,267.65659844696637L293.80913072916695,268.038508432866L296.4091640625003,268.4991611621864L297.27390729166694,269.3952508467108L298.2547234375003,270.0642390837407L299.81590416666694,269.6896822063236L302.7699598958336,269.4383874581741L304.9637380208336,268.66728286158934L305.3003494791669,268.2187066031447L311.6843598958336,269.9780765686791L312.45624479166696,269.22603156362857L312.49106666666694,269.8343342955501L312.69419427083363,271.71356450522666L312.9379473958336,273.1589284817753L314.1915348958336,271.40700885139927L314.388858854167,272.36839331692875L314.9053833333336,271.73487248664236L314.9750270833336,272.26646637157705L315.1781546875003,273.30817435611175L316.7277281250003,273.9708935422014L318.47462552083357,274.9622557578334L319.14204479166693,276.4575335834701L320.1402718750003,277.9532836988989L322.2818171875003,279.697036272321L324.7077411458336,282.19811354163L327.1278614583336,281.22767958070995L327.9055500000003,281.5239587166005L328.91538437500026,281.97313183610385L330.7319255208336,284.0300326257129L331.1323770833336,282.1936355709378L332.4033755208336,283.4025205134824L333.1694567708336,285.1554423522532L333.6743739583336,286.08265412899493L333.92393072916695,283.60373761059947L334.4404552083336,285.8984334135223L335.97261770833364,287.035558044447L337.76594427083364,286.80907566987156L338.868636979167,287.7227939450159L341.48608125000027,286.00331698126905L341.6427796875003,288.4707464843377L342.26376979166696,288.9068892979133L344.2718312500003,288.677206670722L344.49817343750027,289.8090854354545L347.0924031250003,290.33947063031553L347.3593708333336,290.4884512753706L348.670994791667,289.26105873834456L349.98842239583365,290.53086813172786L350.0348515625003,289.6004087692983L351.2536171875003,289.95346357397136L351.48576302083364,290.5300851597142L352.70452864583365,289.37025898089024L353.8188286458336,291.6175687836807L356.3027890625003,293.77220138924923L356.69743697916704,294.0812341834514L359.2974703125003,293.6961555405783L360.9166875000003,293.4163554894389L361.79303802083365,293.359670809703L364.85155937500036,290.8219230300561L367.405163541667,290.1259716325104L369.4016177083336,291.3413284153223L370.3418083333337,291.69201988939284L370.8409218750003,292.20329847148133L371.200747916667,293.1823295006042L372.8954125000003,291.96044257234615L373.1391656250004,290.4294852491306L375.65794791666696,290.40536676375757L376.5168875000004,291.15806830190576L379.99907500000035,292.97088518351677L380.3124718750003,294.79754766631413L380.68970885416707,296.1677366956734L381.95490364583367,297.4890313708515L383.0343817708337,298.5994541044021L385.4022692708337,298.72496249159053L387.6947093750004,298.0706002384812L387.8920333333337,299.00617896321535L390.196080729167,299.016786470438L390.7300161458337,299.18584006502226L390.892518229167,300.0555357414404L392.27958958333375,300.74916293763476L392.5001281250004,300.1606599628397L393.190761979167,298.30443157668657L393.2894239583337,299.55594245525793L393.7246973958337,299.53887130047957L393.85818125000037,301.4730799200223L394.03809427083377,303.0781103326548L395.44838020833373,301.9120076524153L395.52963125000036,302.88292395487906L395.8082062500004,302.37717786324407L397.8975187500004,303.2218359223396L397.9671625000004,304.46501317909485L398.06002083333374,304.85673279516794L398.41984687500036,302.11014707368935L401.54801197916703,301.6681613753821L402.8828505208337,303.64051657283983L402.9524942708337,303.06563299627845L404.75742812500044,303.0045271184583L405.12886145833374,304.34665750714464L405.6860114583337,303.93485659958776L406.8119187500004,303.3405496168284L408.26283020833375,302.54826321030845L408.36729583333374,300.53543178101535L409.12757343750036,300.47780150620264L409.3132901041671,300.78801480649406L410.5146447916671,297.84735764597644L411.9075197916671,299.9146279647731L412.8825322916671,298.2536569273299L414.1941562500004,298.55079724596555L414.5946078125004,298.7925363525281L415.23881250000045,299.5363615214451L415.44194010416703,298.81395278450833L418.45983593750043,297.9086024513005L419.41743750000046,295.50249635618195L420.74066875000045,295.88358504804984L420.7696869791671,294.8771647265197L422.40631510416705,296.39795795843133L422.8473921875004,295.7466683877717L422.8880177083338,295.70988971815194L423.60186614583375,296.4918791741187L424.05455052083374,295.9998107504888L424.32732187500045,295.31084761238446L424.61750416666706,295.1235703819302L427.1595010416671,292.8690070433066L430.6126703125004,290.45235470157036L432.12742187500044,291.3743880909377L435.4587145833338,292.37710576388787L435.9230062500004,293.0982720592304L436.1435447916671,293.12812751600615L437.3681140625004,293.71433371599096L438.01812239583376,293.37577759977637L439.6025177083338,292.0024385051446L440.04939843750043,291.4044165290607L440.09002395833375,291.69546645460235L440.7516395833337,292.6834213318642L441.6570083333338,293.2170868160102L444.9302645833337,291.8214818383672L446.3753723958338,289.32811063014816L446.98475520833375,288.5256470925279L447.19368645833373,290.22834898047984L447.5361015625004,292.6704414829678L448.91156562500043,296.2121716678196L449.2307661458338,297.8943363523526L449.6254140625004,296.04307246017794L453.42099843750043,294.31672656860627L455.23173593750045,295.5637144877646L456.7522911458338,294.0927662908343L458.0232895833338,294.68756565565326L461.19208020833383,295.218721748308L461.48806614583384,294.90066574169447L462.6313843750005,294.3562127157311L463.46710937500046,293.6809759365924L464.2738161458338,289.6470165433413L465.08632656250046,291.02215526119284L465.8001750000004,291.42574573529095L466.2122338541671,292.6412309533145L466.2818776041671,294.67725724266256L467.18144270833375,293.47897874105996L469.9091562500004,293.96226843825207L470.5939864583338,292.22783723061264L470.89577604166715,290.97888515619417L472.7761572916671,290.1900721027691L474.58109114583374,287.49810466402676L478.1097078125004,287.610364167165L478.2257807291672,285.84363622051177L484.73747135416716,286.3642840145564L485.35265781250047,288.722661399725L489.76923229166715,286.9469506453537L491.3130020833338,289.9858295592517L493.79696250000046,290.5306469466567L494.65590208333384,292.18416158885L497.3894192708338,292.3633474328537L498.0220166666671,294.4112721044556L498.5153265625005,293.7937652650464L498.80550885416716,295.2097572376718L500.2099911458338,294.5695768968574L503.34976354166713,293.38159922729426L503.5586947916671,295.4659331065058L505.11987552083383,297.84265397879597L506.82034375000046,298.26948605611415L507.89401822916716,298.10861178266595L508.9328708333338,299.1787157315222L511.4748677083338,298.34762294913986L512.5195239583338,296.9467051555765L512.6297932291671,297.35100634019L514.0052572916671,299.65123197492295L515.2182192708339,300.45218514964057L515.3749177083338,302.4925978626018L515.6360817708338,302.5997570773129L517.8530744791672,302.10399137657197L519.9830125000005,299.27654431280547L520.5981989583338,298.09943262431665L521.2656182291671,297.26581555440936L522.3567036458338,295.78167075025965L523.0937666666671,296.17669716920796L525.0263807291672,295.903592404098L526.6223833333339,296.5630050534969L531.9675411458338,298.6032153983884L533.6564020833339,298.1107718006748L534.2193557291672,299.9375489247622L534.3992687500005,300.1090441332485L536.7497453125005,300.0687948883554L538.0787802083338,300.59160550602127L538.1716385416672,301.9787309151319L538.6243229166672,300.93449361653546L539.1640619791672,299.2425292995089L541.6422187500006,299.4507449743361L543.4819744791672,299.0803017137218L544.1377864583338,296.9819541738644L544.9677078125005,299.1537274397385L546.0936151041672,297.4730730467615L546.4766557291672,297.0670948738716L546.4824593750005,296.62023345906425L546.5521031250005,297.7804358250212L549.3668713541672,296.03075920155135L549.7847338541671,295.15047463266444L552.8722734375006,297.2787073237768L554.9615859375006,300.42218945368694L555.2169463541671,302.34781002318516L555.2633755208338,302.26741486959185L556.6446432291672,303.0763655771614L556.6910723958339,304.09464564242376L557.5732265625005,304.230283297844L559.3491421875005,303.5980667223511L561.6822078125005,302.8322779742859L562.9067770833338,303.6222539780921L563.7947348958338,304.7402854059844L566.4121791666672,304.2751790884899L566.9345072916672,301.5672739699496L569.0818562500006,301.6459571230422L573.3475359375005,303.2986861314782L574.1078135416673,305.0322252532966L579.2556473958339,305.1234589402776L583.5735598958339,305.7200864080509L585.9298401041672,304.8499481776492L586.0285020833339,303.43571690393577L586.3535062500006,305.5797637468425L587.6128973958339,305.3742536167977L588.0713854166672,303.33413515891056L592.8303750000006,305.12877701445757L593.5210088541672,307.1288739103026L593.9388713541673,305.8211365237194L595.2562989583339,304.59214395637173L596.0572020833339,305.3846880464145L596.8581052083339,306.4508626388223L597.8215104166673,307.65877873791936L598.2567838541672,308.5709970084324L599.0692942708339,307.6956806824601L600.1487723958339,308.3352991998987L600.9670864583338,307.1824205160774L603.9791786458339,306.42725509648614L604.0081968750006,308.6586647720742L604.4782921875005,308.94214422000306L605.9988473958339,306.8033503857681L607.7225302083339,306.4493179581506L608.5756661458339,306.9903553789411L610.2180979166671,305.67307777925765L611.1989140625005,308.35932346760774L611.7966895833339,308.8794567408525L613.0270625000006,308.42452574271863L614.1703807291673,309.57685287872084L616.6253229166673,309.3001323579083L616.6659484375006,309.2206124018296L617.0489890625006,308.1787782248389L617.333367708334,310.1166943404302L620.2642088541672,309.7721599080741L620.9026098958338,309.0898988134527L622.1852156250006,309.91522400910566L623.4968395833339,310.8037948841644L623.9147020833339,314.1099949260388L624.0133640625006,313.4281441799668L624.6459614583339,312.8114821141456L625.0870385416673,313.6740993456438L627.4781406250006,312.3472112620986L628.2384182291672,310.25369968137073L628.3660984375006,309.86177259223405L629.0509286458339,309.55821066488215L631.488459895834,311.478665013229L631.8715005208339,310.047966438226L632.4460614583339,309.8622726485666L632.5099015625005,309.40661400203203L632.7362437500007,311.24332327560023L633.7576854166672,312.65403918993815L635.6902994791673,312.93204740343367L636.6014718750006,310.22825251625284L636.9380833333339,311.08928589666925L637.1005854166673,311.2343913256728L637.5880916666673,310.3659835576696L644.4828229166673,310.4323073386894L644.8542562500006,309.54305097577935L646.5663317708339,308.89905374143893L648.9748447916672,308.53906986311574L649.6248531250006,309.3615735975543L649.7525333333339,310.45632770281156L651.8186312500006,312.3290995615412L652.3757812500006,311.79211269519243L655.1092984375006,311.9234290401261L655.3530515625006,312.30287870725954L656.8155703125007,313.83348327128857L657.0941453125006,315.8321603619955L657.2682546875006,315.7380837697904L658.8062208333339,314.49211078795764L660.8665151041673,314.67041693618273L662.9848458333339,317.14609272710777L663.5361921875007,317.7604784602507L663.6812833333339,320.1684402938353L664.1687895833339,321.7459360309972L664.255844270834,322.87689052172766L664.8710307291673,322.1235899205865L664.8768343750006,320.7805901142646L666.5889098958339,321.7890427281609L669.5255546875006,322.65840114038394L673.5764994791673,325.03908783659307L673.8724854166672,327.0788630808589L674.7952651041674,328.2570008345602L674.8533015625006,330.23128031318646L676.043048958334,330.47509814123515L677.1515453125006,327.7823112552977L677.4649421875007,326.3533287863427L677.557800520834,325.211690777182L680.5698927083339,327.2204016062732L680.5931072916674,329.58687586570704L680.970344270834,329.10256852932713L682.171698958334,329.4775208841001L682.3342010416673,330.8867823132066L685.2128093750006,330.2339913183998L685.218613020834,331.02560001806813L685.7699593750007,328.7572532383315L686.6521135416673,328.18432988863884L687.743198958334,328.4601943376994L687.7664135416674,328.56215262439537L691.0106515625006,329.1212952997421L691.5794088541674,327.91849551408563L694.533464583334,327.3792570130752L698.2187796875007,326.45091205729847L699.2402213541673,325.1489388552809L699.6871020833339,325.9590807412072L701.8518619791673,319.50863946708074L702.8849109375006,320.15509570147213L704.6550229166673,321.6975741617332L709.1238302083341,323.60044588028984L709.5126744791672,324.99625588559786L710.4818833333339,322.3070439998601L713.1341494791674,321.10539443527017L713.2792406250007,324.6908432772505L714.0627328125007,325.69086445258046L716.6279442708341,326.1949630807717L717.1618796875006,326.85784372893005L718.9958317708341,325.9830980269673L721.8047963541674,325.7990238164713L722.547663020834,326.551093461899L722.8668635416674,326.27176391823133L724.3700078125007,323.88288488183844L726.5579822916673,322.2669259817952L727.5562093750007,323.58312002432774L730.574105208334,322.9161566258465L731.5781359375007,321.86651758201873L731.7696562500006,319.6302200050986L734.2071875000006,320.0375887657671L737.016152083334,320.49911983692397L737.1670468750007,319.17107130594053L739.2215375000007,319.1287527776321L741.1309369791674,320.472605531737L742.4889901041673,320.5537116569875L743.1389984375007,321.05567938189495L746.487702083334,320.8312261494063L747.3176234375007,321.80791569964595L748.1127229166673,321.5380165196777L750.6721307291674,322.005531299696L751.6819651041674,320.1591570954208L756.551223958334,318.98182099188847L756.7195296875008,320.19902584334596L757.7932041666674,319.7065235120486L758.0717791666673,319.61959672788225L758.5418744791673,321.1236768787658L759.2905447916675,323.43825218721673L761.3972682291673,321.977643261309L761.5133411458341,323.19542418317445L761.5365557291674,321.2605927912112L761.6584322916673,321.84171951037376L762.766928645834,322.052076780174L763.5388135416674,317.5705758948118L764.8968666666673,318.80437525900123L767.2995760416673,317.94774800612066L769.0812953125007,318.54822457371984L769.2902265625007,317.7777030606177L769.4353177083341,318.13138615760056L771.3621281250006,317.7171344540345L772.3835697916674,314.16396642858405L772.5634828125008,316.13134045548924L774.5773479166673,317.75722494083794L776.7130895833341,317.6499397465241L777.1773812500007,317.10318152973275L777.7751567708341,318.009056339814L778.0885536458339,314.9027507671942L780.9439473958341,316.2292587192241L782.789506770834,314.9469265867379L783.9966651041674,316.07937489899854L786.5966984375007,316.04725545050985L787.9721625000008,317.3670704889479L793.3811604166674,317.8091361656334L794.2749218750007,317.005363112652L794.594122395834,316.10823570725415L794.7856427083341,315.76936457822393L795.1570760416673,316.9192112975889L795.4704729166674,317.31316187330674L795.5459203125007,316.49844268757965L796.787900520834,315.13945017972685L803.5143260416673,314.8298451512583L804.8027354166674,314.7483178019148L806.0563229166675,314.9034171390233L806.5496328125007,314.981721042609L808.766625520834,315.48586618345246L809.3702046875006,316.2860144380034L811.447909895834,316.6693525889159L811.8193432291674,313.2659445078088L812.4113151041674,314.9928784204255L812.7247119791674,317.80548445325934L812.840784895834,318.0509247711646L813.1890036458341,317.88183934619803L814.4890203125008,317.98075614874193L816.9903916666675,317.6909814715753L818.2091572916675,318.231700201064L818.2613901041674,316.3606128654715L822.5967135416674,316.2051411407659L824.2739671875007,316.4475140013273L824.4712911458341,315.07772052113023L824.9646010416675,316.95649501660506L825.5681802083341,316.5160753963712L825.6262166666675,317.2678139685252L825.8003260416673,315.47869234074426L826.3400651041675,315.616861362372L827.3208812500008,313.80575015633434L828.5686651041674,311.24407337259555L831.1570911458341,310.7921722265188L831.209323958334,313.3670572163347L831.8593322916674,313.49648753179576L832.1727291666675,315.76507267771933L833.1245270833341,315.054605463495L833.2580109375008,315.92589357642345L833.6700697916674,316.56860972045274L837.8428911458341,316.4905536699169L838.1098588541674,317.99232847594203L838.8237072916675,317.6123940460124L841.5282062500007,318.41963285384486L841.6036536458341,318.4719929423166L842.9094739583342,317.5114695903645L843.727788020834,314.09827965712435L846.1537119791674,315.6323348157874L848.1849880208341,316.68927058166435L850.0595656250008,316.0455046954645L851.1854729166674,315.859620232812L851.1912765625008,315.72071050280846L851.3769932291674,317.1757961740058L857.0935843750008,316.332819785274L857.7087708333341,315.4016617883022L858.405208333334,313.96015425592867L859.4150427083342,314.3805733749883L859.9838000000009,313.6212412126554L861.2025656250008,314.79604789795025L863.245448958334,317.16956657077105L863.4950057291675,316.7750841419318L874.4580927083341,315.97869425141164L874.6670239583342,317.282396433539L876.4719578125008,319.76523406806535L876.6808890625008,317.6092862534757L881.1787145833342,318.20023164178815L881.1845182291673,317.53820403596467L882.2698000000007,319.340974376843L886.9185203125008,319.21245099881935L887.3421864583341,318.1400027988724L887.8529072916675,319.0653652762073L887.8703182291674,319.0014405516543L889.0020291666674,318.2281068633205L890.2672239583342,317.3062062128549L890.2846348958342,315.2764194189839L890.6792828125008,313.06425590032995L892.1824270833342,313.77252975078153L892.6699333333341,314.558592629208L893.4360145833342,315.4330523489108L893.8538770833342,316.5622841261379L894.2485250000008,318.168346244697L894.3413833333341,317.02459421682687L894.8521041666676,319.2931130832699L895.0262135416674,317.7742585520956L897.6610687500009,318.47726887552045L898.0150911458342,316.97656659196304L898.6709031250009,317.43947970637066L899.4137697916674,318.07797925765027L900.0289562500008,316.02640651937094L900.5454807291675,316.1110555209777L901.1780781250009,317.1601459342687L904.2482067708343,315.5238354173063L906.0473369791674,315.7165636989879L907.8812890625009,313.66031507280724L908.9781781250008,314.4851066305419L909.5237208333341,313.7742837488L909.7906885416676,314.63409489149603L910.0402453125008,311.97528054042465L910.3536421875009,312.3717524856234L916.3604156250008,311.85953770398334L918.3974953125008,311.7406229839264L918.4091026041675,312.9514644706677L920.1095708333343,310.4623810835227L920.7827937500008,310.75047648012986L922.3904036458341,310.0964578633337L925.3734776041675,310.50503290214766L926.6386723958342,311.40880630905326L930.8231010416675,312.1062621950698L931.6878442708341,309.17690560337644L933.0168791666675,309.659242969487L935.6401270833342,310.11110828855345L937.3522026041675,309.10893523008593L938.6638265625008,309.04034058976936L938.9133833333342,307.6794987482132L939.4647296875008,306.2909478793384L940.0915234375008,306.44015151102076L942.5406619791676,306.5002815329133L943.8464822916675,307.6598001736878L946.0228494791676,306.93944477228155L947.9786781250008,307.8801386005706L948.0831437500009,308.2966530710082L949.5804843750008,308.38777560469475L950.6425515625008,308.0106542339084L950.7992500000009,307.24971414487817L956.1502114583342,305.4071725343168L956.5738776041675,305.96409204280377L956.8350416666675,307.56402508001327L956.9162927083343,308.3163469408417L957.0381692708341,307.4301311567993L957.5082645833342,308.6803912795044L958.2917567708341,307.3665649729138L960.3230328125009,304.56588503497164L961.5708166666675,304.75949622454107L962.6967239583342,304.63323317576936L964.4494250000008,304.30640517083395L965.5521177083342,306.49479157135954L965.8248890625008,305.1382585462417L967.2583895833342,305.19258120985705L968.6048354166675,305.9965364911706L969.7017244791675,301.0616194898725L970.1486052083342,303.61513240296364L971.9767536458343,304.3485097309647L972.2959541666676,302.53610325977786L973.5785598958342,304.5678674978064L976.0160911458343,304.21146866178884L979.1036307291675,303.5123435886413L979.9857848958342,303.89800544037104L980.0670359375009,305.36839754306214L981.1581213541676,305.58742265481106L981.3844635416675,305.0005369931726L981.4483036458341,306.09200950863107L981.7675041666675,305.33396662713807L982.4987635416676,305.9111841697829L984.9072765625009,305.2572456565966L985.8474671875009,307.66417335251725L988.1283000000008,307.49297772391446L989.2948328125009,306.6390097883845L989.4747458333342,306.4360437415047L989.7184989583342,305.83651674445497L990.4439546875009,305.5607701162976L992.0225463541676,306.8079976924643L993.0439880208341,304.69506003446463L993.0962208333342,304.5145153394308L995.8703635416676,305.4273296635124L997.0194854166676,306.47887680377744L997.2400239583343,305.01617399093453L997.495384375001,305.7683893460985L997.8145848958342,305.20404745252574L999.1146015625009,304.4500393192899L999.2480854166675,304.57952720967387L999.8690755208343,305.778570975045L1000.5713166666675,307.3629738149481L1001.7552604166675,306.6515784881462L1002.0280317708343,301.69768088515195L1003.3570666666675,297.68242416902854L1003.7517145833343,301.2601469653803L1003.989664062501,302.84915883206986L1004.2798463541675,304.7809824344608L1005.4812010416675,305.2688630960061L1007.3441713541677,305.00849402599925L1008.4120421875009,304.44608549637314L1009.9035791666676,307.2891745723304L1011.7897640625009,305.65720025356745L1012.1437864583343,305.13907181784424L1012.5268270833343,307.1484698261015L1015.9045489583343,309.0780329295153L1016.455895312501,307.42604670112564L1019.1313760416675,307.8507238736568L1019.711740625001,308.2279128353452L1019.729151562501,308.84420427645483L1020.1876395833342,308.78694621535334L1020.9014880208342,310.1805127446826L1022.3698104166676,309.57561853925193L1022.7180291666675,306.435404213268L1023.3680375000009,307.6612389437345L1025.6024411458343,306.0845456212351L1026.3162895833343,307.1155288767489L1026.8618322916677,308.6758062038161L1031.1275119791676,309.3054587104589L1032.1025244791676,309.81616082975626L1032.2418119791676,311.33849119813726L1033.187806250001,309.36325473524323L1034.8012197916676,307.92216136723505L1036.008378125001,308.4603539297561L1038.8173427083343,307.28213259296257L1043.599546875001,306.6463559652697L1043.9187473958343,307.76401918612567L1043.9651765625008,307.0703111512077L1044.330806250001,309.1786451993475L1045.044654687501,308.80088576778485L1045.5669828125008,307.53390662753355L1046.6522645833343,307.77461092061816L1046.9018213541676,307.20043897300576L1047.4879895833342,307.0601785824268L1047.5460260416676,306.40163100604764L1048.1960343750009,306.9124259443645L1050.0473973958344,303.79117866290125L1050.5116890625009,304.79433527574946L1051.3996468750008,304.8852242134889L1052.8563619791676,305.947317478091L1053.802356250001,305.6118279433493L1054.6670994791675,305.22122190286666L1055.9206869791676,305.5775047516024L1058.5323276041677,306.1408474711733L1058.886350000001,306.79108442530287L1060.4185125000008,306.3804720438739L1060.5636036458343,305.716829665281L1063.2564953125009,305.4595348038495L1064.3069552083343,304.0344402820445L1065.6475973958343,304.43525781874473L1065.850725000001,303.9919264240632L1065.8971541666676,303.3478523002918L1066.7154682291678,305.3943519009634L1067.7369098958343,306.38740512001385L1072.2463427083342,305.4613013161649L1075.3629005208343,304.1814871321861L1076.3030911458343,305.09747972573786L1076.6571135416677,305.02972570487617L1077.3419437500008,305.2534786878328L1078.9321427083344,304.9521015690407L1080.6732364583343,305.22302708042787L1082.652279687501,305.7583702803701L1085.4670479166675,305.74171161659956L1087.649218750001,306.4902015305233L1088.1135104166676,306.5580268555222L1089.4135270833342,306.5709057754944L1089.6630838541678,305.680977511936L1090.9340822916677,306.6922349361846L1091.357748437501,306.80528392062735L1093.5921520833342,308.3540069521757L1094.4278770833344,307.84466121207015L1094.7935067708343,308.6624710465299L1095.3042276041676,307.1156931610764L1096.3720984375009,304.91656308904186L1096.4185276041676,302.9020836125603L1096.6506734375012,302.6776915749542L1097.138179687501,301.279393688888L1098.8502552083341,301.78227116906686L1099.2913322916677,302.34369264478715L1100.341792187501,302.14444964118985L1101.351626562501,302.06555303723167L1105.007923437501,303.90284579587416L1105.3271239583344,303.7100361124073L1107.2713453125011,304.90712701919836L1107.7182260416678,305.3529508753074L1111.2410390625012,305.13958396303275L1111.554435937501,305.8017924450844L1114.2589348958343,306.24060374442814L1115.3326093750009,304.581857900175L1116.2844072916678,297.94252724039757L1118.1763958333343,299.26372609605954L1118.309879687501,301.39157804863106L1119.1862302083343,302.931662020814L1119.2442666666677,304.60229222117385L1119.9929369791678,305.27902045677916L1121.9777838541677,306.6663022647764L1122.157696875001,306.7081952389451L1124.5023697916677,307.2407289168336L1124.6474609375011,311.78732365775886L1126.6207005208344,312.1727473196092L1127.9323244791678,311.8743584773304L1128.2631322916677,311.8007661550332L1129.5515416666676,314.52881248228465L1130.3176229166677,317.3293694896119L1131.1127223958345,316.9780527625574L1131.124329687501,317.0814406612788L1131.9890729166677,315.8194999678353L1133.7301666666676,314.6188984476264L1133.892668750001,314.9467600888201L1134.066778125001,316.4638399176747L1135.0475942708342,317.2020856136442L1135.0882197916676,315.98741140320783L1137.514143750001,317.62420162165074L1138.2744213541675,315.226380054187L1139.516401562501,316.4610263761133L1139.8762276041678,317.5475528857112L1142.3601880208344,316.14891472983356L1142.528493750001,318.4315988630294L1142.9231416666678,320.90094387771603L1143.9097614583343,321.41868175698846L1143.9619942708343,321.25670770036004L1144.6758427083344,321.63655193985954L1145.0820979166676,322.4886498351213L1145.7437135416676,323.7803373256776L1146.0687177083344,322.43121783570075L1147.351323437501,321.434620722418L1147.9723135416677,322.4995175999681L1151.1701223958344,323.9915297446473L1151.390660937501,324.22201570016733L1153.7469411458344,324.6930777815389L1154.5652552083343,322.3387590048637L1155.8768791666678,320.76615267737117L1156.8460880208345,319.8933078459375L1158.9934369791677,321.10619218281687L1159.2836192708344,320.8713617510142L1160.5720286458343,321.0386700015499L1161.628292187501,320.6619018253671L1162.1564239583345,321.5359356257905L1163.6885864583344,320.7466221502296L1167.4609562500011,320.2239391653436L1169.289104687501,320.7289119600215L1169.3587484375012,322.2722716426021L1169.8288437500012,321.4726609877877L1169.8926838541677,323.19176234659614L1170.3279572916676,325.07806125209385L1170.664568750001,324.01664932668723L1171.796279687501,325.0632288622897" style="fill: none;" fill="none"></path></g></g></g></g><g opacity="0.2"><g><g><g><path stroke="rgb(238, 51, 119)" stroke-width="2px" d="M12.48900625000002,68.55491154193876L13.771611979166687,63.31271486282346L14.29974375000002,59.38906688690182L14.891715625000021,65.6207045316696L15.739047916666689,74.31909421682357L17.02745729166669,64.46336810588835L17.642643750000023,62.45168552398682L19.534632291666693,58.33655700683594L19.836421875000024,69.71404025554656L22.33198958333336,71.85892058610914L22.44806250000003,60.01090159416197L25.59944218750003,70.69294149875638L26.702134895833364,60.93531193733214L26.841422395833362,53.04553608894346L28.965556770833366,69.80913851261138L29.88253281250003,52.06217641830441L30.021820312500036,72.57949608564375L31.76871770833337,58.80879809856413L34.98974114583337,69.25780045986174L35.33795989583337,81.01947754621504L37.56075625000004,74.54591225385664L40.61347395833338,64.03258147239683L41.17642760416671,74.86372679471968L41.61170104166671,92.87329806685446L41.80322135416671,85.97662912607191L42.19206562500005,76.51926796436308L42.72600104166671,77.50363523960111L43.96217760416671,98.57585189938543L44.91977916666671,85.68071215152739L45.11710312500005,82.81744318008421L45.78452239583338,77.48936158418654L45.87738072916671,79.87124745845793L46.20238489583338,97.84412921667096L47.51400885416671,91.78616738319396L47.83320937500005,83.64897110462186L49.19706614583338,100.77441671192643L50.13145312500005,99.25064826607704L50.82789062500005,99.73883826732633L51.64620468750006,93.24842346310615L54.228827083333385,106.28544374704359L54.39132916666672,105.52604022100567L55.435985416666725,115.30057683587073L55.93509895833339,107.94873686805366L57.42083229166673,108.20375431925058L59.19094427083339,112.27423419356344L60.68248125000006,110.49516114592551L60.717303125000065,110.25634715259073L61.08873645833339,105.72116775587199L61.326685937500066,106.72261470928787L61.52981354166673,109.51691027581691L61.86642500000006,98.94817350208757L62.005712500000065,106.4872766871005L64.1878833333334,109.06240940615533L64.76824791666672,110.01592812538146L64.99459010416673,113.90129548609255L65.20352135416672,113.42828475832937L65.38923802083339,117.61212544441221L67.43792500000006,107.84691181927917L67.67587447916674,106.35324939228592L68.16338072916673,118.83965089321134L68.49418854166673,123.8478681862354L68.6276723958334,111.26203741431235L68.81338906250006,117.25704848170278L68.98749843750007,123.25158472657202L69.47500468750006,120.3693373441696L69.8116161458334,119.85158462524412L70.21787135416673,119.00357612371442L71.69199739583341,122.0204802751541L72.11566354166673,116.93745056986806L72.85272656250007,123.94660674929617L73.21255260416673,122.34892370700834L75.04650468750008,120.7796832025051L75.59785104166674,117.81597923636434L79.66620677083341,134.0078474164009L79.94478177083342,132.5936654448509L80.87336510416674,124.36520404219627L81.15774375000008,137.0624564886093L82.77115729166674,134.56148155927656L83.02651770833342,133.60863759517667L83.4792020833334,137.00784744024273L85.96896614583342,139.63456785678864L88.28462083333342,150.00775911808012L88.77212708333342,139.85369956493378L89.54981562500008,145.7270490646362L89.71231770833342,148.79763491153713L90.24625312500008,151.75334045886993L90.27527135416676,144.94592812061308L91.17483645833343,146.4362957000732L91.44760781250008,144.01478332281113L92.15565260416675,153.01427290439605L92.59092604166676,147.3841796636581L93.4150437500001,155.55122065544128L93.86192447916675,142.58106675148008L96.06730989583343,156.95215663909912L96.64767447916675,156.4733794927597L97.2628609375001,149.05152006149288L97.33830833333342,150.85581889152525L98.50484114583342,161.73393597602842L98.53385937500009,160.2666407585144L100.28075677083342,157.5172489404678L101.6678281250001,153.98004407882686L105.32992864583343,166.2103264093399L108.77149062500011,165.86640331745147L108.95720729166678,176.01323130130766L109.05586927083343,172.38709864616393L109.19515677083344,175.11224107742308L109.42730260416678,171.66926953792571L116.24078281250011,180.6301246166229L116.28721197916677,184.7679465293884L116.33364114583344,181.1492683649063L117.88901822916678,188.64392499923704L118.33009531250012,184.01987590789793L119.94350885416678,188.41845340728756L119.97833072916677,191.62927908897396L120.15244010416677,185.65089349746702L121.97478489583345,179.8560212373733L122.55514947916679,186.4444400787353L123.19355052083345,187.3349842071533L123.53016197916679,194.11899871826168L124.24981406250012,195.5335774898529L124.51097812500011,182.53924107551575L124.9230369791668,190.33858218193052L126.22305364583345,187.41566390991207L127.14002968750012,191.03660249710083L130.73248645833345,194.94524340629576L130.89498854166678,198.39397969245908L132.02669947916678,188.28203444480894L132.76376250000013,199.66665563583373L133.15841041666678,199.89775376319884L133.25126875000012,200.92636647224424L133.6981494791668,196.38187355995174L134.4990526041668,200.46695227622982L134.75441302083345,202.64716787338253L136.87274375000013,196.27101922035217L139.11875468750011,199.2721026420593L139.6933156250001,198.40931668281553L142.82728437500012,202.94992184638977L144.96882968750015,210.969634103775L145.1719572916668,210.6846514225006L146.91305104166682,201.37088060379028L147.45859375000015,204.2962866783142L152.55419479166682,214.7137590408325L153.08232656250013,209.21181883811948L154.52743437500013,214.92532033920284L154.7595802083335,213.79872922897337L155.1658354166668,207.66387958526607L155.8042364583335,214.09115748405455L156.11182968750015,205.95890560150144L156.8140708333335,212.1506269454956L158.74088125000014,211.48255834579467L159.93062864583348,217.18982696533203L161.55564947916682,215.71924142837523L164.15568281250015,213.45650033950804L165.7168635416668,220.3627649307251L165.9896348958335,226.59158930778503L166.70348333333348,213.83904232978819L167.85260520833347,225.3014809131622L167.93965989583347,222.64582753181458L169.5588770833335,222.62900142669676L172.36784166666683,215.90658454895018L172.60579114583348,224.80968070030212L172.95981354166682,218.50534839630123L173.60982187500016,226.58515133857725L174.16697187500014,232.2808191299438L178.18309479166683,235.6307834148407L179.21614375000019,222.31069645881652L179.28578750000017,227.7969519138336L181.17777604166682,234.83744192123413L182.22243229166682,232.26784510612484L182.65770572916682,222.6411194324493L182.97690625000016,233.46422843933104L183.06976458333352,224.7806206703186L183.30771406250014,225.92741737365722L184.2014755208335,234.50662660598755L184.45103229166685,228.82679514884947L185.5014921875002,232.2698068141937L185.6465833333335,225.69555239677427L186.92338541666683,237.04850091934202L189.26225468750016,237.4683599472046L190.51584218750017,236.08425006866455L190.7479880208335,234.87565956115722L190.7944171875002,226.4303814888L193.16810833333352,233.17410073280334L193.36543229166682,227.6017530441284L194.81634375000016,238.87035703659058L196.31368437500018,245.57875661849974L196.51681197916682,241.79954385757446L196.65029583333353,239.85189766883846L196.87083437500016,217.8812933921814L201.49634010416688,245.53204121589658L201.5717875000002,234.31084814071653L204.21244635416684,239.38205075263977L204.96111666666687,238.90305514335628L206.6615848958335,233.83314547538757L207.2535567708335,240.73271350860594L207.60757916666685,239.87529549598693L211.08976666666686,239.73004884719845L213.91614218750018,247.06482181549072L214.0090005208335,253.74598932266235L215.01303125000018,249.29510555267333L215.45991197916686,249.15692105293272L216.96885989583353,258.033926486969L217.3983296875002,238.17848935127256L218.2862875000002,250.00739283561703L219.49924947916685,255.87669854164122L219.70237708333354,249.88730063438413L222.91179322916688,252.23350348472593L224.0318968750002,247.5195279121399L225.17521510416688,245.76321067810056L225.24485885416686,246.02535729408262L225.78459791666685,253.0441436767578L226.18504947916685,250.1023395061493L226.26630052083354,246.5269392967224L226.48103541666686,247.0160555362701L226.86407604166686,244.95303416252136L229.71946979166688,247.46311988830564L230.15474322916688,255.50532045364378L231.24582864583354,259.4732138633728L233.85166562500018,255.83009014129638L233.85746927083352,258.5413311958313L233.97934583333355,251.65911536216734L234.43783385416688,258.02729234695437L236.28339322916685,252.57195162773132L236.4807171875002,249.7384515762329L237.5601953125002,254.64400577545166L240.82764791666685,260.3923810958862L241.54730000000023,262.19806203842165L243.85715104166687,252.14734883308407L244.58841041666687,256.3727520942688L244.6638578125002,252.87880735397337L245.14556041666688,260.74880561828616L245.63306666666688,261.98444986343384L246.3527187500002,254.5023169517517L246.7995994791669,259.0210401535034L248.68578437500022,265.9533241271972L249.44606197916687,252.43898348808287L251.1929593750002,255.60350394248962L251.76752031250024,249.29155664443968L252.13315000000023,260.8498335838318L254.64032500000022,264.7623533248901L254.8956854166669,263.6817018508911L255.58631927083357,264.1878403663635L257.50152239583355,262.41895036697383L257.93099218750024,259.7138441085815L259.7881588541669,264.9566159248352L260.3453088541669,254.41896219253536L261.43059062500026,261.0932637214661L261.9703296875002,266.9486591339111L262.34756666666686,253.6194948196411L265.1391203125002,259.2035503387451L267.91326302083354,260.86381521224973L268.0757651041669,260.57023668289185L268.4588057291669,267.24186315536497L269.1204213541669,260.73398580551145L269.4628364583336,269.93935441970825L270.5597255208336,269.79488353729243L270.63517291666693,260.2717717170715L270.6699947916669,265.4736686706543L270.84990781250025,259.79027938842773L272.0976916666669,264.9970627784729L280.8960187500003,262.95713605880735L283.2058697916669,267.99276933670046L284.20990052083357,261.6992710113525L284.2331151041669,269.17227306365965L284.32597343750024,272.3931480407715L284.4942791666669,275.9337814331054L284.87731979166693,270.94660234451294L285.6085791666669,269.243911075592L287.4715494791669,263.0579500198364L289.6421130208336,270.3357799530029L290.74480572916696,260.52706127166743L291.0814171875003,259.7390966415405L291.88232031250027,272.5580206871033L292.6077760416669,270.013738822937L293.3332317708336,268.6272392272949L293.80913072916695,269.56614837646487L296.4091640625003,270.3417720794678L297.27390729166694,272.9796095848084L298.2547234375003,272.7401920318604L299.81590416666694,268.1914546966552L302.7699598958336,268.4332084655762L304.9637380208336,265.58286447525023L305.3003494791669,266.4244015693664L311.6843598958336,277.0155564308167L312.45624479166696,266.2178515434265L312.49106666666694,272.2675452232361L312.69419427083363,279.2304853439331L312.9379473958336,278.94038438796997L314.1915348958336,264.399330329895L314.388858854167,276.21393117904665L314.9053833333336,269.2007891654968L314.9750270833336,274.39284191131594L315.1781546875003,277.4750062942505L316.7277281250003,276.62177028656004L318.47462552083357,278.9277046203613L319.14204479166693,282.43864488601685L320.1402718750003,283.93628416061404L322.2818171875003,286.6720465660095L324.7077411458336,292.20242261886597L327.1278614583336,277.34594373703L327.9055500000003,282.7090752601623L328.91538437500026,283.7698243141174L330.7319255208336,292.25763578414916L331.1323770833336,274.8480473518372L332.4033755208336,288.23806028366084L333.1694567708336,292.1671297073364L333.6743739583336,289.7915012359619L333.92393072916695,273.6880715370178L334.4404552083336,295.0772166252136L335.97261770833364,291.58405656814574L337.76594427083364,285.9031461715698L338.868636979167,291.3776670455933L341.48608125000027,279.12540912628174L341.6427796875003,298.3404644966125L342.26376979166696,290.65146055221555L344.2718312500003,287.75847616195676L344.49817343750027,294.33660049438475L347.0924031250003,292.4610114097595L347.3593708333336,291.0843738555908L348.670994791667,284.3514885902405L349.98842239583365,295.6101057052612L350.0348515625003,285.87857131958003L351.2536171875003,291.36568279266356L351.48576302083364,292.8365715026855L352.70452864583365,284.7309542655945L353.8188286458336,300.6068079948425L356.3027890625003,302.39073181152344L356.69743697916704,295.31736536026L359.2974703125003,292.1558409690857L360.9166875000003,292.29715528488157L361.79303802083365,293.13293209075925L364.85155937500036,280.67093191146853L367.405163541667,287.3421660423279L369.4016177083336,296.20275554656985L370.3418083333337,293.09478578567507L370.8409218750003,294.2484127998352L371.200747916667,297.09845361709597L372.8954125000003,287.0728948593139L373.1391656250004,284.3056559562683L375.65794791666696,290.30889282226565L376.5168875000004,294.1688744544983L379.99907500000035,300.22215270996094L380.3124718750003,302.1041975975037L380.68970885416707,301.64849281311035L381.95490364583367,302.77421007156374L383.0343817708337,303.0411450386047L385.4022692708337,299.22699604034426L387.6947093750004,295.4531512260437L387.8920333333337,302.7484938621521L390.196080729167,299.0592164993286L390.7300161458337,299.8620544433594L390.892518229167,303.53431844711304L392.27958958333375,303.52367172241213L392.5001281250004,297.8066480636596L393.190761979167,290.879518032074L393.2894239583337,304.56198596954346L393.7246973958337,299.47058668136594L393.85818125000037,309.20991439819335L394.03809427083377,309.49823198318484L395.44838020833373,297.2475969314575L395.52963125000036,306.7665891647339L395.8082062500004,300.35419349670406L397.8975187500004,306.6004681587219L397.9671625000004,309.4377222061157L398.06002083333374,306.4236112594605L398.41984687500036,291.1238041877747L401.54801197916703,299.90021858215334L402.8828505208337,311.5299373626709L402.9524942708337,300.76609869003295L404.75742812500044,302.7601036071777L405.12886145833374,309.71517906188967L405.6860114583337,302.28765296936035L406.8119187500004,300.963321685791L408.26283020833375,299.37911758422854L408.36729583333374,292.4841060638428L409.12757343750036,300.24728040695186L409.3132901041671,302.02886800765987L410.5146447916671,286.0847290039062L411.9075197916671,308.18370923995974L412.8825322916671,291.6097727775574L414.1941562500004,299.73935852050784L414.5946078125004,299.75949277877805L415.23881250000045,302.511662197113L415.44194010416703,295.9243178367615L418.45983593750043,294.2872011184692L419.41743750000046,285.878071975708L420.74066875000045,297.4079398155212L420.7696869791671,290.8514834403992L422.40631510416705,302.48113088607784L422.8473921875004,293.1415101051331L422.8880177083338,295.56277503967283L423.60186614583375,299.61983699798583L424.05455052083374,294.03153705596924L424.32732187500045,292.55499505996704L424.61750416666706,294.3744614601135L427.1595010416671,283.85075368881223L430.6126703125004,280.78574533462523L432.12742187500044,295.06252164840697L435.4587145833338,296.38797645568843L435.9230062500004,295.98293724060056L436.1435447916671,293.2475493431091L437.3681140625004,296.05915851593016L438.01812239583376,292.02155313491824L439.6025177083338,286.5090821266174L440.04939843750043,289.01232862472534L440.09002395833375,292.85966615676875L440.7516395833337,296.6352408409118L441.6570083333338,295.35174875259395L444.9302645833337,286.23906192779543L446.3753723958338,279.35462579727175L446.98475520833375,285.3157929420471L447.19368645833373,297.0391565322876L447.5361015625004,302.4388114929199L448.91156562500043,310.37909240722655L449.2307661458338,304.6229950904846L449.6254140625004,288.6380168914795L453.42099843750043,287.4113430023193L455.23173593750045,300.55166616439817L456.7522911458338,288.2089735031128L458.0232895833338,297.0667631149292L461.19208020833383,297.343346118927L461.48806614583384,293.62844171524046L462.6313843750005,292.17840061187746L463.46710937500046,290.98002882003783L464.2738161458338,273.5111789703369L465.08632656250046,296.52271013259883L465.8001750000004,293.0401076316833L466.2122338541671,297.5031718254089L466.2818776041671,302.8213624000549L467.18144270833375,288.6858647346496L469.9091562500004,295.89542722702026L470.5939864583338,285.2901124000549L470.89577604166715,285.98307685852046L472.7761572916671,287.03481988906856L474.58109114583374,276.7302349090576L478.1097078125004,288.059402179718L478.2257807291672,278.77672443389895L484.73747135416716,288.4468751907349L485.35265781250047,298.1561709403992L489.76923229166715,279.84410762786865L491.3130020833338,302.14134521484374L493.79696250000046,292.70991649627683L494.65590208333384,298.7982201576233L497.3894192708338,293.08009080886836L498.0220166666671,302.602970790863L498.5153265625005,291.3237379074096L498.80550885416716,300.8737251281738L500.2099911458338,292.00885553359984L503.34976354166713,288.6296885490417L503.5586947916671,303.80326862335204L505.11987552083383,307.34953746795657L506.82034375000046,299.976814365387L507.89401822916716,297.4651146888733L508.9328708333338,303.459131526947L511.4748677083338,295.02325181961055L512.5195239583338,291.34303398132323L512.6297932291671,298.9682110786438L514.0052572916671,308.85213451385493L515.2182192708339,303.65599784851076L515.3749177083338,310.654248714447L515.6360817708338,303.0283939361572L517.8530744791672,300.12092857360835L519.9830125000005,287.96675605773925L520.5981989583338,293.3909858703613L521.2656182291671,293.93134727478025L522.3567036458338,289.8450915336609L523.0937666666671,297.7568028450012L525.0263807291672,294.8111733436584L526.6223833333339,299.2006556510925L531.9675411458338,306.7640567779541L533.6564020833339,296.14099740982056L534.2193557291672,307.24465742111204L534.3992687500005,300.7950249671936L536.7497453125005,299.907797908783L538.0787802083338,302.68284797668457L538.1716385416672,307.5272325515747L538.6243229166672,296.75754442214964L539.1640619791672,292.4746720314026L541.6422187500006,300.283607673645L543.4819744791672,297.5985286712646L544.1377864583338,288.58856401443484L544.9677078125005,307.84082050323485L546.0936151041672,290.75045547485354L546.4766557291672,295.443182182312L546.4824593750005,294.83278779983516L546.5521031250005,302.42124528884887L549.3668713541672,289.0320527076721L549.7847338541671,291.6293363571167L552.8722734375006,305.7916380882263L554.9615859375006,312.9961179733276L555.2169463541671,310.05029230117793L555.2633755208338,301.94583425521853L556.6446432291672,306.31216840744014L556.6910723958339,308.16776590347285L557.5732265625005,304.77283391952517L559.3491421875005,301.0692004203796L561.6822078125005,299.7691229820251L562.9067770833338,306.7821579933167L563.7947348958338,309.2124111175537L566.4121791666672,302.41475381851194L566.9345072916672,290.7356534957886L569.0818562500006,301.9606897354126L573.3475359375005,309.90960216522217L574.1078135416673,311.96638174057006L579.2556473958339,305.4883936882019L583.5735598958339,308.10659627914424L585.9298401041672,301.3693952560425L586.0285020833339,297.778791809082L586.3535062500006,314.15595111846926L587.6128973958339,304.55221309661863L588.0713854166672,295.1736613273621L592.8303750000006,312.3073444366455L593.5210088541672,315.12926149368286L593.9388713541673,300.59018697738645L595.2562989583339,299.6761736869812L596.0572020833339,308.5548644065857L596.8581052083339,310.7155610084534L597.8215104166673,312.49044313430784L598.2567838541672,312.2198700904846L599.0692942708339,304.1944153785705L600.1487723958339,310.8937732696533L600.9670864583338,302.57090578079226L603.9791786458339,303.40659341812136L604.0081968750006,317.5843034744263L604.4782921875005,310.0760620117187L605.9988473958339,298.2481750488281L607.7225302083339,305.03318824768064L608.5756661458339,309.1545050621032L610.2180979166671,300.4039673805237L611.1989140625005,319.1043062210083L611.7966895833339,310.95998983383174L613.0270625000006,306.6048017501831L614.1703807291673,314.18616142272947L616.6253229166673,308.1932502746582L616.6659484375006,308.90253257751465L617.0489890625006,304.0114415168762L617.333367708334,317.8683588027954L620.2642088541672,308.3940221786499L620.9026098958338,306.360854434967L622.1852156250006,313.2165247917175L623.4968395833339,314.3580783843994L623.9147020833339,327.3347950935364L624.0133640625006,310.7007411956787L624.6459614583339,310.3448338508606L625.0870385416673,317.1245682716369L627.4781406250006,307.03965892791746L628.2384182291672,301.87965335845945L628.3660984375006,308.29406423568724L629.0509286458339,308.3439629554748L631.488459895834,319.1604824066162L631.8715005208339,304.3251721382141L632.4460614583339,309.1194974899292L632.5099015625005,307.5839794158935L632.7362437500007,318.59016036987305L633.7576854166672,318.29690284729L635.6902994791673,314.04408025741577L636.6014718750006,299.4130729675293L636.9380833333339,314.5334194183349L637.1005854166673,311.814813041687L637.5880916666673,306.8923524856567L644.4828229166673,310.69760246276854L644.8542562500006,305.9860255241394L646.5663317708339,306.32306480407715L648.9748447916672,307.099134349823L649.6248531250006,312.65158853530886L649.7525333333339,314.8353441238403L651.8186312500006,319.82018699645994L652.3757812500006,309.64416522979735L655.1092984375006,312.44869441986083L655.3530515625006,313.8206773757935L656.8155703125007,319.95590152740476L657.0941453125006,323.826868724823L657.2682546875006,315.3617774009705L658.8062208333339,309.50821886062624L660.8665151041673,315.3836415290832L662.9848458333339,327.0487958908081L663.5361921875007,320.21802139282227L663.6812833333339,329.8002876281738L664.1687895833339,328.05591897964473L664.255844270834,327.4007084846496L664.8710307291673,319.1103875160217L664.8768343750006,315.4085908889771L666.5889098958339,325.82285318374636L669.5255546875006,326.13583478927615L673.5764994791673,334.5618346214294L673.8724854166672,335.23796405792234L674.7952651041674,332.9695518493652L674.8533015625006,338.1283982276916L676.043048958334,331.4503694534302L677.1515453125006,317.01116371154785L677.4649421875007,320.63739891052245L677.557800520834,320.64513874053955L680.5698927083339,335.2552449226379L680.5931072916674,339.05277290344236L680.970344270834,327.16533918380736L682.171698958334,330.97733030319216L682.3342010416673,336.52382802963257L685.2128093750006,327.6228273391723L685.218613020834,334.19203481674197L685.7699593750007,319.6838661193848L686.6521135416673,325.89263648986815L687.743198958334,329.5636521339417L687.7664135416674,328.96998577117915L691.0106515625006,331.35786600112914L691.5794088541674,323.10729637145994L694.533464583334,325.2223030090332L698.2187796875007,322.7375322341919L699.2402213541673,319.94104604721065L699.6871020833339,329.1996482849121L701.8518619791673,293.70687437057495L702.8849109375006,322.7409206390381L704.6550229166673,327.8674880027771L709.1238302083341,331.2119327545166L709.5126744791672,330.57949590682983L710.4818833333339,311.55019645690913L713.1341494791674,316.2987961769104L713.2792406250007,339.03263864517214L714.0627328125007,329.69094915390014L716.6279442708341,328.2113575935364L717.1618796875006,329.5093663215637L718.9958317708341,322.48411521911623L721.8047963541674,325.0627269744873L722.547663020834,329.55937204360964L722.8668635416674,325.1544457435608L724.3700078125007,314.3273687362671L726.5579822916673,315.80309038162227L727.5562093750007,328.84789619445803L730.574105208334,320.2483030319214L731.5781359375007,317.6679614067077L731.7696562500006,310.6850296974182L734.2071875000006,321.6670638084412L737.016152083334,322.3452441215515L737.1670468750007,313.85887718200684L739.2215375000007,318.95947866439815L741.1309369791674,325.8480165481567L742.4889901041673,320.8781361579895L743.1389984375007,323.0635502815246L746.487702083334,319.9334132194519L747.3176234375007,325.7146739006042L748.1127229166673,320.4584197998047L750.6721307291674,323.8755904197693L751.6819651041674,312.77366027832034L756.551223958334,314.27247657775877L756.7195296875008,325.067845249176L757.7932041666674,317.73651418685915L758.0717791666673,319.271889591217L758.5418744791673,327.1399974822998L759.2905447916675,332.6965534210205L761.3972682291673,316.1352075576782L761.5133411458341,328.066547870636L761.5365557291674,313.5212672233581L761.6584322916673,324.1662263870239L762.766928645834,322.89350585937495L763.5388135416674,299.64457235336306L764.8968666666673,323.73957271575927L767.2995760416673,314.5212389945984L769.0812953125007,320.9501308441162L769.2902265625007,314.6956170082092L769.4353177083341,319.5461185455322L771.3621281250006,316.0601276397705L772.3835697916674,299.9512943267822L772.5634828125008,324.00083656311034L774.5773479166673,324.26076288223265L776.7130895833341,317.2207989692688L777.1773812500007,314.91614866256714L777.7751567708341,321.6325555801392L778.0885536458339,302.47752847671507L780.9439473958341,321.5352905273437L782.789506770834,309.8175980567932L783.9966651041674,320.6091681480408L786.5966984375007,315.91877765655516L787.9721625000008,322.64633064270015L793.3811604166674,319.5773988723755L794.2749218750007,313.79027090072634L794.594122395834,312.5197260856628L794.7856427083341,314.41388006210326L795.1570760416673,321.51859817504885L795.4704729166674,318.888964176178L795.5459203125007,313.23956594467165L796.787900520834,309.7034801483154L803.5143260416673,313.59142503738406L804.8027354166674,314.42220840454104L806.0563229166675,315.52381448745723L806.5496328125007,315.2949366569519L808.766625520834,317.5024467468262L809.3702046875006,319.48660745620725L811.447909895834,318.2027051925659L811.8193432291674,299.6523121833801L812.4113151041674,321.9006140708923L812.7247119791674,329.0559085845947L812.840784895834,319.0326860427856L813.1890036458341,317.20549764633176L814.4890203125008,318.37642335891724L816.9903916666675,316.53188276290894L818.2091572916675,320.39457511901855L818.2613901041674,308.8762635231018L822.5967135416674,315.58325424194334L824.2739671875007,317.417005443573L824.4712911458341,309.5985466003418L824.9646010416675,324.47159299850466L825.5681802083341,314.7543969154358L825.6262166666675,320.2747682571411L825.8003260416673,308.3222058296203L826.3400651041675,316.16953744888303L827.3208812500008,306.5613053321838L828.5686651041674,300.99736623764034L831.1570911458341,308.9845676422119L831.209323958334,323.6665971755981L831.8593322916674,314.01420879364014L832.1727291666675,324.8394132614136L833.1245270833341,312.2127366065979L833.2580109375008,319.4110460281372L833.6700697916674,319.1394742965698L837.8428911458341,316.17832946777344L838.1098588541674,323.9994277000427L838.8237072916675,316.09265632629393L841.5282062500007,321.64858808517454L841.6036536458341,318.68143329620364L842.9094739583342,313.6693761825561L843.727788020834,300.4455199241638L846.1537119791674,321.7685554504394L848.1849880208341,320.9170136451721L850.0595656250008,313.47044115066524L851.1854729166674,315.11608238220214L851.1912765625008,315.1650715827942L851.3769932291674,322.9961388587951L857.0935843750008,312.9609142303467L857.7087708333341,311.677029800415L858.405208333334,308.1941241264343L859.4150427083342,316.0622498512268L859.9838000000009,310.58391256332396L861.2025656250008,319.49527463912966L863.245448958334,326.6636412620544L863.4950057291675,315.1971544265747L874.4580927083341,312.79313468933105L874.6670239583342,322.4972051620483L876.4719578125008,329.69658460617063L876.6808890625008,308.98549499511716L881.1787145833342,320.56401319503783L881.1845182291673,314.89009361267085L882.2698000000007,326.5520557403564L886.9185203125008,318.69835748672483L887.3421864583341,313.8502099990844L887.8529072916675,322.7668151855469L887.8703182291674,318.74574165344234L889.0020291666674,315.1347721099853L890.2672239583342,313.6186036109924L890.2846348958342,307.15727224349973L890.6792828125008,304.2156018257141L892.1824270833342,316.6056251525879L892.6699333333341,317.7028441429138L893.4360145833342,318.93089122772216L893.8538770833342,321.0792112350464L894.2485250000008,324.5925947189331L894.3413833333341,312.44958610534667L894.8521041666676,328.36718854904177L895.0262135416674,311.69884042739864L897.6610687500009,321.28931016921996L898.0150911458342,310.97375745773314L898.6709031250009,319.29113216400145L899.4137697916674,320.63197746276853L900.0289562500008,307.82011556625366L900.5454807291675,316.44965152740474L901.1780781250009,321.3565075874328L904.2482067708343,308.9785933494568L906.0473369791674,316.4874768257141L907.8812890625009,305.4353205680847L908.9781781250008,317.7842728614807L909.5237208333341,310.9309922218323L909.7906885416676,318.0733394622803L910.0402453125008,301.34002313613894L910.3536421875009,313.9576402664185L916.3604156250008,309.8106785774231L918.3974953125008,311.26496410369873L918.4091026041675,317.7948304176331L920.1095708333343,300.5060475349426L920.7827937500008,311.9028580665588L922.3904036458341,307.4803833961487L925.3734776041675,312.1393330574035L926.6386723958342,315.023899936676L930.8231010416675,314.89608573913574L931.6878442708341,297.45947923660276L933.0168791666675,311.5885924339294L935.6401270833342,311.91856956481934L937.3522026041675,305.1002429962158L938.6638265625008,308.7659620285034L938.9133833333342,302.2361313819885L939.4647296875008,300.7367444038391L940.0915234375008,307.03696603775023L942.5406619791676,306.74080162048335L943.8464822916675,312.29787473678584L946.0228494791676,304.0580231666565L947.9786781250008,311.64291391372683L948.0831437500009,309.9627109527588L949.5804843750008,308.7522657394409L950.6425515625008,306.50216875076296L950.7992500000009,304.2059537887573L956.1502114583342,298.0370060920715L956.5738776041675,308.1917700767517L956.8350416666675,313.9637572288513L956.9162927083343,311.32563438415525L957.0381692708341,303.88526802062984L957.5082645833342,313.6814317703247L958.2917567708341,302.11125974655147L960.3230328125009,293.3631652832031L961.5708166666675,305.5339409828186L962.6967239583342,304.1281809806824L964.4494250000008,302.99909315109255L965.5521177083342,315.2483371734619L965.8248890625008,299.71212644577025L967.2583895833342,305.4098718643188L968.6048354166675,309.2123576164246L969.7017244791675,281.3219514846802L970.1486052083342,313.82918405532837L971.9767536458343,307.2820190429687L972.2959541666676,295.2864773750305L973.5785598958342,312.6949244499207L976.0160911458343,302.7858733177185L979.1036307291675,300.71584329605105L979.9857848958342,305.44065284729004L980.0670359375009,311.24996595382686L981.1581213541676,306.46352310180663L981.3844635416675,302.65299434661864L981.4483036458341,310.4578995704651L981.7675041666675,302.3017951011658L982.4987635416676,308.22005434036254L984.9072765625009,302.6414916038513L985.8474671875009,317.29188413619994L988.1283000000008,306.8081952095032L989.2948328125009,303.22313804626464L989.4747458333342,305.6241795539856L989.7184989583342,303.4384087562561L990.4439546875009,304.4577836036682L992.0225463541676,311.79690799713137L993.0439880208341,296.2433094024658L993.0962208333342,303.7923365592957L995.8703635416676,309.07858695983884L997.0194854166676,310.68506536483767L997.2400239583343,299.16536273956297L997.495384375001,308.77725076675415L997.8145848958342,302.9466798782348L999.1146015625009,301.43400678634646L999.2480854166675,305.0974787712097L999.8690755208343,310.5747460365295L1000.5713166666675,313.7005851745605L1001.7552604166675,303.8059971809387L1002.0280317708343,281.882090473175L1003.3570666666675,281.62139730453487L1003.7517145833343,315.57103815078733L1003.989664062501,309.2052062988281L1004.2798463541675,312.50827684402464L1005.4812010416675,307.2203857421875L1007.3441713541677,303.9670177459717L1008.4120421875009,302.19645137786864L1009.9035791666676,318.66153087615965L1011.7897640625009,299.1293029785156L1012.1437864583343,303.06655807495116L1012.5268270833343,315.18606185913086L1015.9045489583343,316.79628534317015L1016.455895312501,300.8181017875671L1019.1313760416675,309.5494325637817L1019.711740625001,309.7366686820984L1019.729151562501,311.30937004089355L1020.1876395833342,308.55791397094725L1020.9014880208342,315.7547788619995L1022.3698104166676,307.1560417175293L1022.7180291666675,293.87454690933225L1023.3680375000009,312.56457786560054L1025.6024411458343,299.77777233123777L1026.3162895833343,311.2394618988037L1026.8618322916677,314.916915512085L1031.1275119791676,311.82406873703L1032.1025244791676,311.8589693069458L1032.2418119791676,317.4278126716614L1033.187806250001,301.462308883667L1034.8012197916676,302.15778789520266L1036.008378125001,310.61312417984004L1038.8173427083343,302.5692472457886L1043.599546875001,304.10324945449827L1043.9187473958343,312.23467206954956L1043.9651765625008,304.29547901153563L1044.330806250001,317.61198139190674L1045.044654687501,307.2898480415344L1045.5669828125008,302.4659900665283L1046.6522645833343,308.7374280929565L1046.9018213541676,304.9037511825561L1047.4879895833342,306.4991370201111L1047.5460260416676,303.767440700531L1048.1960343750009,308.9556056976318L1050.0473973958344,291.30618953704834L1050.5116890625009,308.8069617271423L1051.3996468750008,305.248779964447L1052.8563619791676,310.195690536499L1053.802356250001,304.2698698043823L1054.6670994791675,303.6587977409363L1055.9206869791676,307.0026361465454L1058.5323276041677,308.39421834945676L1058.886350000001,309.3920322418213L1060.4185125000008,304.73802251815795L1060.5636036458343,303.0622601509094L1063.2564953125009,304.43035535812373L1064.3069552083343,298.33406219482424L1065.6475973958343,306.03852796554565L1065.850725000001,302.21860084533694L1065.8971541666676,300.7715558052063L1066.7154682291678,313.5803503036499L1067.7369098958343,310.3596179962158L1072.2463427083342,301.75688610076907L1075.3629005208343,299.0622303962707L1076.3030911458343,308.761450099945L1076.6571135416677,304.75870962142943L1077.3419437500008,306.1484906196594L1078.9321427083344,303.7465930938721L1080.6732364583343,306.3067291259765L1082.652279687501,307.89974308013916L1085.4670479166675,305.67507696151733L1087.649218750001,309.4841611862182L1088.1135104166676,306.8293281555176L1089.4135270833342,306.6224214553833L1089.6630838541678,302.12126445770264L1090.9340822916677,310.7372646331787L1091.357748437501,307.2574798583984L1093.5921520833342,314.5488990783691L1094.4278770833344,305.807278251648L1094.7935067708343,311.93371038436885L1095.3042276041676,300.9285816192627L1096.3720984375009,296.1200428009033L1096.4185276041676,294.8441657066345L1096.6506734375012,301.78012342453L1097.138179687501,295.6862021446228L1098.8502552083341,303.79378108978267L1099.2913322916677,304.58937854766845L1100.341792187501,301.3474776268005L1101.351626562501,301.7499666213989L1105.007923437501,311.2520168304443L1105.3271239583344,302.93879737854L1107.2713453125011,309.69549064636226L1107.7182260416678,307.1362462997437L1111.2410390625012,304.2861163139343L1111.554435937501,308.450626373291L1114.2589348958343,307.99584894180293L1115.3326093750009,297.9468745231628L1116.2844072916678,271.3852046012878L1118.1763958333343,304.5485215187073L1118.309879687501,309.9029858589172L1119.1862302083343,309.09199790954585L1119.2442666666677,311.28481302261355L1119.9929369791678,307.98593339920046L1121.9777838541677,312.2154294967651L1122.157696875001,306.8757671356201L1124.5023697916677,309.37086362838744L1124.6474609375011,329.97370262145995L1126.6207005208344,313.7144419670105L1127.9323244791678,310.6808031082153L1128.2631322916677,311.50639686584475L1129.5515416666676,325.4409977912903L1130.3176229166677,328.5315975189209L1131.1127223958345,315.5727858543396L1131.124329687501,317.49499225616455L1131.9890729166677,310.7717371940613L1133.7301666666676,309.8164923667907L1133.892668750001,316.2582066535949L1134.066778125001,322.53215923309324L1135.0475942708342,320.155068397522L1135.0882197916676,311.1287145614624L1137.514143750001,324.1713624954224L1138.2744213541675,305.6350937843323L1139.516401562501,321.39961166381835L1139.8762276041678,321.89365892410274L1142.3601880208344,310.5543621063232L1142.528493750001,327.56233539581297L1142.9231416666678,330.77832393646236L1143.9097614583343,323.48963327407836L1143.9619942708343,320.60881147384646L1144.6758427083344,323.1559288978576L1145.0820979166676,325.89704141616824L1145.7437135416676,328.94708728790283L1146.0687177083344,317.03473987579343L1147.351323437501,317.44823226928713L1147.9723135416677,326.75910511016843L1151.1701223958344,329.9595783233642L1151.390660937501,325.1439595222473L1153.7469411458344,326.5773261070251L1154.5652552083343,312.9214838981628L1155.8768791666678,314.4757273674011L1156.8460880208345,316.40192852020266L1158.9934369791677,325.95772953033446L1159.2836192708344,319.93204002380367L1160.5720286458343,321.70790300369265L1161.628292187501,319.154829120636L1162.1564239583345,325.0320708274841L1163.6885864583344,317.5893682479858L1167.4609562500011,318.13320722579954L1169.289104687501,322.7488031387329L1169.3587484375012,328.4457103729248L1169.8288437500012,318.2742183685302L1169.8926838541677,330.06816778182986L1170.3279572916676,332.62325687408446L1170.664568750001,319.771001625061L1171.796279687501,329.2495470046997" style="fill: none;" fill="none"></path></g></g></g></g></g></g><g transform="translate(51, 374)" clip-path="url(#clip_1)"><clipPath id="clip_1"><rect width="1392" height="26"></rect></clipPath><g><g><line x1="11.072916666666686" y1="0" x2="11.072916666666686" y2="5" style="visibility: inherit;" fill="rgb(0, 0, 0)" stroke="rgb(204, 204, 204)" stroke-width="1px"></line><line x1="127.14583333333344" y1="0" x2="127.14583333333344" y2="5" style="visibility: inherit;" fill="rgb(0, 0, 0)" stroke="rgb(204, 204, 204)" stroke-width="1px"></line><line x1="243.2187500000002" y1="0" x2="243.2187500000002" y2="5" style="visibility: inherit;" fill="rgb(0, 0, 0)" stroke="rgb(204, 204, 204)" stroke-width="1px"></line><line x1="359.29166666666697" y1="0" x2="359.29166666666697" y2="5" style="visibility: inherit;" fill="rgb(0, 0, 0)" stroke="rgb(204, 204, 204)" stroke-width="1px"></line><line x1="475.36458333333377" y1="0" x2="475.36458333333377" y2="5" style="visibility: inherit;" fill="rgb(0, 0, 0)" stroke="rgb(204, 204, 204)" stroke-width="1px"></line><line x1="591.4375000000006" y1="0" x2="591.4375000000006" y2="5" style="visibility: inherit;" fill="rgb(0, 0, 0)" stroke="rgb(204, 204, 204)" stroke-width="1px"></line><line x1="707.5104166666673" y1="0" x2="707.5104166666673" y2="5" style="visibility: inherit;" fill="rgb(0, 0, 0)" stroke="rgb(204, 204, 204)" stroke-width="1px"></line><line x1="823.583333333334" y1="0" x2="823.583333333334" y2="5" style="visibility: inherit;" fill="rgb(0, 0, 0)" stroke="rgb(204, 204, 204)" stroke-width="1px"></line><line x1="939.6562500000009" y1="0" x2="939.6562500000009" y2="5" style="visibility: inherit;" fill="rgb(0, 0, 0)" stroke="rgb(204, 204, 204)" stroke-width="1px"></line><line x1="1055.7291666666677" y1="0" x2="1055.7291666666677" y2="5" style="visibility: inherit;" fill="rgb(0, 0, 0)" stroke="rgb(204, 204, 204)" stroke-width="1px"></line><line x1="1171.8020833333344" y1="0" x2="1171.8020833333344" y2="5" style="visibility: inherit;" fill="rgb(0, 0, 0)" stroke="rgb(204, 204, 204)" stroke-width="1px"></line><line x1="1287.8750000000011" y1="0" x2="1287.8750000000011" y2="5" style="visibility: inherit;" fill="rgb(0, 0, 0)" stroke="rgb(204, 204, 204)" stroke-width="1px"></line></g><g transform="translate(0, 8)"><text x="11.072916666666686" y="0" dx="0em" dy="0.95em" style="text-anchor: middle; visibility: inherit; font-family: Roboto, sans-serif; font-size: 12px; font-weight: 200;" fill="rgb(33, 33, 33)" stroke="none" stroke-width="1px">0</text><text x="127.14583333333344" y="0" dx="0em" dy="0.95em" style="text-anchor: middle; visibility: inherit; font-family: Roboto, sans-serif; font-size: 12px; font-weight: 200;" fill="rgb(33, 33, 33)" stroke="none" stroke-width="1px">20k</text><text x="243.2187500000002" y="0" dx="0em" dy="0.95em" style="text-anchor: middle; visibility: inherit; font-family: Roboto, sans-serif; font-size: 12px; font-weight: 200;" fill="rgb(33, 33, 33)" stroke="none" stroke-width="1px">40k</text><text x="359.29166666666697" y="0" dx="0em" dy="0.95em" style="text-anchor: middle; visibility: inherit; font-family: Roboto, sans-serif; font-size: 12px; font-weight: 200;" fill="rgb(33, 33, 33)" stroke="none" stroke-width="1px">60k</text><text x="475.36458333333377" y="0" dx="0em" dy="0.95em" style="text-anchor: middle; visibility: inherit; font-family: Roboto, sans-serif; font-size: 12px; font-weight: 200;" fill="rgb(33, 33, 33)" stroke="none" stroke-width="1px">80k</text><text x="591.4375000000006" y="0" dx="0em" dy="0.95em" style="text-anchor: middle; visibility: inherit; font-family: Roboto, sans-serif; font-size: 12px; font-weight: 200;" fill="rgb(33, 33, 33)" stroke="none" stroke-width="1px">100k</text><text x="707.5104166666673" y="0" dx="0em" dy="0.95em" style="text-anchor: middle; visibility: inherit; font-family: Roboto, sans-serif; font-size: 12px; font-weight: 200;" fill="rgb(33, 33, 33)" stroke="none" stroke-width="1px">120k</text><text x="823.583333333334" y="0" dx="0em" dy="0.95em" style="text-anchor: middle; visibility: inherit; font-family: Roboto, sans-serif; font-size: 12px; font-weight: 200;" fill="rgb(33, 33, 33)" stroke="none" stroke-width="1px">140k</text><text x="939.6562500000009" y="0" dx="0em" dy="0.95em" style="text-anchor: middle; visibility: inherit; font-family: Roboto, sans-serif; font-size: 12px; font-weight: 200;" fill="rgb(33, 33, 33)" stroke="none" stroke-width="1px">160k</text><text x="1055.7291666666677" y="0" dx="0em" dy="0.95em" style="text-anchor: middle; visibility: inherit; font-family: Roboto, sans-serif; font-size: 12px; font-weight: 200;" fill="rgb(33, 33, 33)" stroke="none" stroke-width="1px">180k</text><text x="1171.8020833333344" y="0" dx="0em" dy="0.95em" style="text-anchor: middle; visibility: inherit; font-family: Roboto, sans-serif; font-size: 12px; font-weight: 200;" fill="rgb(33, 33, 33)" stroke="none" stroke-width="1px">200k</text><text x="1287.8750000000011" y="0" dx="0em" dy="0.95em" style="text-anchor: middle; visibility: inherit; font-family: Roboto, sans-serif; font-size: 12px; font-weight: 200;" fill="rgb(33, 33, 33)" stroke="none" stroke-width="1px">220k</text></g><line x1="0" y1="0" x2="1392.875" y2="0" fill="rgb(0, 0, 0)" stroke="rgb(204, 204, 204)" stroke-width="1px"></line></g></g></g></g></svg>