<svg viewBox="0 0 1444 400" xmlns="http://www.w3.org/2000/svg"><g><g><g><g><g><line x1="51.125" y1="339.0975486642226" x2="46.125" y2="339.0975486642226" style="visibility: inherit;" fill="rgb(0, 0, 0)" stroke="rgb(204, 204, 204)" stroke-width="1px"></line><line x1="51.125" y1="297.17976803467315" x2="46.125" y2="297.17976803467315" style="visibility: inherit;" fill="rgb(0, 0, 0)" stroke="rgb(204, 204, 204)" stroke-width="1px"></line><line x1="51.125" y1="255.2619874051237" x2="46.125" y2="255.2619874051237" style="visibility: inherit;" fill="rgb(0, 0, 0)" stroke="rgb(204, 204, 204)" stroke-width="1px"></line><line x1="51.125" y1="213.3442067755742" x2="46.125" y2="213.3442067755742" style="visibility: inherit;" fill="rgb(0, 0, 0)" stroke="rgb(204, 204, 204)" stroke-width="1px"></line><line x1="51.125" y1="171.42642614602477" x2="46.125" y2="171.42642614602477" style="visibility: inherit;" fill="rgb(0, 0, 0)" stroke="rgb(204, 204, 204)" stroke-width="1px"></line><line x1="51.125" y1="129.50864551647527" x2="46.125" y2="129.50864551647527" style="visibility: inherit;" fill="rgb(0, 0, 0)" stroke="rgb(204, 204, 204)" stroke-width="1px"></line><line x1="51.125" y1="87.59086488692583" x2="46.125" y2="87.59086488692583" style="visibility: inherit;" fill="rgb(0, 0, 0)" stroke="rgb(204, 204, 204)" stroke-width="1px"></line><line x1="51.125" y1="45.67308425737639" x2="46.125" y2="45.67308425737639" style="visibility: inherit;" fill="rgb(0, 0, 0)" stroke="rgb(204, 204, 204)" stroke-width="1px"></line><line x1="51.125" y1="3.7553036278268985" x2="46.125" y2="3.7553036278268985" style="visibility: inherit;" fill="rgb(0, 0, 0)" stroke="rgb(204, 204, 204)" stroke-width="1px"></line></g><g transform="translate(41.125, 0)"><text x="0" y="339.0975486642226" dx="0em" dy="0.3em" style="text-anchor: end; visibility: inherit; font-family: Roboto, sans-serif; font-size: 12px; font-weight: 200;" fill="rgb(33, 33, 33)" stroke="none" stroke-width="1px">-500</text><text x="0" y="297.17976803467315" dx="0em" dy="0.3em" style="text-anchor: end; visibility: inherit; font-family: Roboto, sans-serif; font-size: 12px; font-weight: 200;" fill="rgb(33, 33, 33)" stroke="none" stroke-width="1px">-400</text><text x="0" y="255.2619874051237" dx="0em" dy="0.3em" style="text-anchor: end; visibility: inherit; font-family: Roboto, sans-serif; font-size: 12px; font-weight: 200;" fill="rgb(33, 33, 33)" stroke="none" stroke-width="1px">-300</text><text x="0" y="213.3442067755742" dx="0em" dy="0.3em" style="text-anchor: end; visibility: inherit; font-family: Roboto, sans-serif; font-size: 12px; font-weight: 200;" fill="rgb(33, 33, 33)" stroke="none" stroke-width="1px">-200</text><text x="0" y="171.42642614602477" dx="0em" dy="0.3em" style="text-anchor: end; visibility: inherit; font-family: Roboto, sans-serif; font-size: 12px; font-weight: 200;" fill="rgb(33, 33, 33)" stroke="none" stroke-width="1px">-100</text><text x="0" y="129.50864551647527" dx="0em" dy="0.3em" style="text-anchor: end; visibility: inherit; font-family: Roboto, sans-serif; font-size: 12px; font-weight: 200;" fill="rgb(33, 33, 33)" stroke="none" stroke-width="1px">0</text><text x="0" y="87.59086488692583" dx="0em" dy="0.3em" style="text-anchor: end; visibility: inherit; font-family: Roboto, sans-serif; font-size: 12px; font-weight: 200;" fill="rgb(33, 33, 33)" stroke="none" stroke-width="1px">100</text><text x="0" y="45.67308425737639" dx="0em" dy="0.3em" style="text-anchor: end; visibility: inherit; font-family: Roboto, sans-serif; font-size: 12px; font-weight: 200;" fill="rgb(33, 33, 33)" stroke="none" stroke-width="1px">200</text><text x="0" y="3.7553036278268985" dx="0em" dy="0.3em" style="text-anchor: end; visibility: hidden; font-family: Roboto, sans-serif; font-size: 12px; font-weight: 200;" fill="rgb(33, 33, 33)" stroke="none" stroke-width="1px">300</text></g><line x1="51.125" y1="0" x2="51.125" y2="374" fill="rgb(0, 0, 0)" stroke="rgb(204, 204, 204)" stroke-width="1px"></line></g></g><g transform="translate(51, 0)" clip-path="url(#clip_0)"><clipPath id="clip_0"><rect width="1392" height="374"></rect></clipPath><g><g><g><line x1="91.22236187692083" y1="0" x2="91.22236187692083" y2="374" fill="rgb(0, 0, 0)" stroke="rgb(66, 66, 66)" stroke-width="1px" opacity="0.25"></line><line x1="234.32586357884207" y1="0" x2="234.32586357884207" y2="374" fill="rgb(0, 0, 0)" stroke="rgb(66, 66, 66)" stroke-width="1px" opacity="0.25"></line><line x1="377.4293652807632" y1="0" x2="377.4293652807632" y2="374" fill="rgb(0, 0, 0)" stroke="rgb(66, 66, 66)" stroke-width="1px" opacity="0.25"></line><line x1="520.5328669826845" y1="0" x2="520.5328669826845" y2="374" fill="rgb(0, 0, 0)" stroke="rgb(66, 66, 66)" stroke-width="1px" opacity="0.25"></line><line x1="663.6363686846056" y1="0" x2="663.6363686846056" y2="374" fill="rgb(0, 0, 0)" stroke="rgb(66, 66, 66)" stroke-width="1px" opacity="0.25"></line><line x1="806.7398703865271" y1="0" x2="806.7398703865271" y2="374" fill="rgb(0, 0, 0)" stroke="rgb(66, 66, 66)" stroke-width="1px" opacity="0.25"></line><line x1="949.8433720884482" y1="0" x2="949.8433720884482" y2="374" fill="rgb(0, 0, 0)" stroke="rgb(66, 66, 66)" stroke-width="1px" opacity="0.25"></line><line x1="1092.9468737903694" y1="0" x2="1092.9468737903694" y2="374" fill="rgb(0, 0, 0)" stroke="rgb(66, 66, 66)" stroke-width="1px" opacity="0.25"></line><line x1="1236.0503754922906" y1="0" x2="1236.0503754922906" y2="374" fill="rgb(0, 0, 0)" stroke="rgb(66, 66, 66)" stroke-width="1px" opacity="0.25"></line><line x1="1379.1538771942119" y1="0" x2="1379.1538771942119" y2="374" fill="rgb(0, 0, 0)" stroke="rgb(66, 66, 66)" stroke-width="1px" opacity="0.25"></line></g><g><line x1="0" y1="339.0975486642226" x2="1392.875" y2="339.0975486642226" fill="rgb(0, 0, 0)" stroke="rgb(66, 66, 66)" stroke-width="1px" opacity="0.25"></line><line x1="0" y1="297.17976803467315" x2="1392.875" y2="297.17976803467315" fill="rgb(0, 0, 0)" stroke="rgb(66, 66, 66)" stroke-width="1px" opacity="0.25"></line><line x1="0" y1="255.2619874051237" x2="1392.875" y2="255.2619874051237" fill="rgb(0, 0, 0)" stroke="rgb(66, 66, 66)" stroke-width="1px" opacity="0.25"></line><line x1="0" y1="213.3442067755742" x2="1392.875" y2="213.3442067755742" fill="rgb(0, 0, 0)" stroke="rgb(66, 66, 66)" stroke-width="1px" opacity="0.25"></line><line x1="0" y1="171.42642614602477" x2="1392.875" y2="171.42642614602477" fill="rgb(0, 0, 0)" stroke="rgb(66, 66, 66)" stroke-width="1px" opacity="0.25"></line><line x1="0" y1="129.50864551647527" x2="1392.875" y2="129.50864551647527" fill="rgb(0, 0, 0)" stroke="rgb(66, 66, 66)" stroke-width="1px" opacity="0.25"></line><line x1="0" y1="87.59086488692583" x2="1392.875" y2="87.59086488692583" fill="rgb(0, 0, 0)" stroke="rgb(66, 66, 66)" stroke-width="1px" opacity="0.25"></line><line x1="0" y1="45.67308425737639" x2="1392.875" y2="45.67308425737639" fill="rgb(0, 0, 0)" stroke="rgb(66, 66, 66)" stroke-width="1px" opacity="0.25"></line><line x1="0" y1="3.7553036278268985" x2="1392.875" y2="3.7553036278268985" fill="rgb(0, 0, 0)" stroke="rgb(66, 66, 66)" stroke-width="1px" opacity="0.25"></line></g></g></g><g><g><line x1="0" y1="129.50864551647527" x2="1392.875" y2="129.50864551647527" fill="rgb(0, 0, 0)" stroke="rgb(153, 153, 153)" stroke-width="1.5px"></line></g></g><g><g><line x1="91.22236187692083" y1="0" x2="91.22236187692083" y2="374" fill="rgb(0, 0, 0)" stroke="rgb(153, 153, 153)" stroke-width="1.5px"></line></g></g><g><g><g><g><g><path stroke="rgb(238, 51, 119)" stroke-width="2px" d="M94.79994941946887,392.06406587973316L95.5154669279785,343.6891858898051L96.23098443648809,315.95329522727997L96.94650194499769,298.326174313562L97.6620194535073,323.7445421009387L98.37753696201692,298.47331192807576L99.0930544705265,286.43194383365267L99.80857197903612,260.2825618345864L100.52408948754572,249.7730360874668L101.23960699605533,249.03332991348358L101.95512450456492,239.80388117225013L102.67064201307454,237.34469101146578L103.38615952158415,222.38688764647662L104.10167703009375,198.73492583975124L104.81719453860337,191.07110111933278L105.53271204711295,179.48826513124024L106.24822955562257,182.89581769542693L106.96374706413218,169.41007232896294L107.67926457264178,184.44900026958555L108.39478208115138,193.5910169592735L109.110299589661,197.8487240089935L109.8258170981706,209.1777628161427L110.54133460668021,214.65454372977462L111.2568521151898,221.0188098345526L111.97236962369942,207.24294684284226L112.68788713220903,189.5658302579272L113.40340464071863,180.9521051029835L114.11892214922824,183.05140701704678L114.83443965773783,168.91116499481518L115.54995716624745,182.61024366408932L116.26547467475706,190.086651244432L116.98099218326666,187.96707179805023L117.69650969177626,173.0518876110884L118.41202720028588,178.3704214527418L119.12754470879548,169.61535440526248L119.84306221730509,166.10130442095965L120.5585797258147,157.23840563876632L121.27409723432429,153.9191801730764L121.98961474283391,152.2252437895521L122.70513225134351,149.89975881260216L123.42064975985312,147.5462696641103L124.13616726836271,146.68866606978347L124.85168477687233,150.69175845573992L125.56720228538194,156.68924808450853L126.28271979389154,158.24241709334228L126.99823730240114,151.43936405247857L127.71375481091074,164.0992703012729L128.42927231942036,182.76204484824137L129.14478982792997,184.98774678081264L129.86030733643958,176.11537669259738L130.57582484494918,182.24905904457356L131.2913423534588,173.07532149291276L132.0068598619684,173.3734924195322L132.722377370478,171.33870195774884L133.4378948789876,167.98367298085705L134.1534123874972,157.7419933727099L134.86892989600682,166.2204677661374L135.58444740451642,167.55302283471266L136.299964913026,170.163936235459L137.01548242153564,178.39311773707945L137.73099993004524,181.80899159331474L138.44651743855485,182.03753820400354L139.16203494706446,162.71631930042966L139.87755245557406,161.72080224675537L140.59306996408367,178.25851506453452L141.30858747259327,184.97838702258986L142.02410498110288,188.81246375869387L142.7396224896125,194.90267037066735L143.4551399981221,204.5381760000626L144.1706575066317,193.95974312726213L144.8861750151413,194.54257222249652L145.6016925236509,198.57588549265074L146.31721003216052,187.2643318004027L147.03272754067012,186.9481114918366L147.74824504917973,190.51472421660475L148.46376255768934,192.3754668620975L149.17928006619894,196.4757518513523L149.89479757470855,196.64470135321898L150.61031508321815,195.47650809632086L151.32583259172776,186.1994404273377L152.04135010023734,188.50731508849276L152.75686760874697,187.890974614728L153.47238511725658,185.22841658744895L154.18790262576618,186.01010166571422L154.9034201342758,187.84727884994527L155.6189376427854,189.28062780606868L156.334455151295,193.454982677006L157.0499726598046,205.53608406098712L157.76549016831422,198.68237258301494L158.4810076768238,186.72821953006317L159.19652518533343,184.68658137815703L159.91204269384303,186.24385639305248L160.62756020235264,188.50505686368783L161.34307771086222,188.8698992952529L162.05859521937185,188.31481737016497L162.77411272788146,192.00080836673706L163.48963023639106,193.73570353010527L164.20514774490067,191.34434630482897L164.92066525341025,192.59999490710396L165.63618276191988,193.4961336580112L166.3517002704295,181.49209821412907L167.0672177789391,187.77349325355613L167.78273528744867,189.3322411348318L168.4982527959583,193.4815481283713L169.21377030446791,180.1163994262169L169.92928781297752,188.01356508802508L170.64480532148713,194.62074112073296L171.3603228299967,199.0235068216809L172.07584033850634,199.8089762052834L172.79135784701595,200.77589586775198L173.50687535552555,198.98079192256537L174.22239286403513,202.65013659024584L174.93791037254476,204.5126448073324L175.65342788105437,206.9781646633111L176.36894538956398,213.40094582815271L177.08446289807358,209.46081923309237L177.7999804065832,211.37551817758882L178.5154979150928,211.16006906903863L179.23101542360237,191.2941190864319L179.94653293211198,184.40032422497933L180.66205044062158,181.65496654650656L181.37756794913122,190.7774367578843L182.09308545764083,204.964971405752L182.80860296615043,203.74500315839822L183.52412047466004,203.32676479244293L184.23963798316964,206.38184478710147L184.95515549167922,205.37339468441897L185.67067300018883,201.95421714732169L186.38619050869843,202.3695064885381L187.10170801720804,207.7897196582321L187.81722552571767,203.002564808018L188.53274303422728,199.76582503964084L189.2482605427369,197.71572169336392L189.9637780512465,208.27337930073483L190.6792955597561,204.2903909267488L191.39481306826568,198.15863076723028L192.11033057677528,200.79317383613736L192.8258480852849,199.22494462179176L193.5413655937945,202.08308551055597L194.25688310230413,203.29148308643923L194.97240061081374,207.75175419576127L195.68791811932334,207.7355543884207L196.40343562783295,207.70936347549957L197.11895313634255,207.43433281080354L197.83447064485213,204.9005307057275L198.54998815336174,186.23793365455995L199.26550566187134,174.56656835565914L199.98102317038095,183.84049882041958L200.69654067889059,190.8996412469597L201.4120581874002,196.31261448031387L202.1275756959098,203.4245194980255L202.8430932044194,192.12360375601523L203.558610712929,181.95343303416678L204.2741282214386,172.95514590276733L204.9896457299482,163.81860033261108L205.7051632384578,159.26927033556308L206.4206807469674,160.63884408573355L207.13619825547704,158.62488380137103L207.85171576398665,154.72262672848814L208.56723327249625,153.13695076883866L209.28275078100586,152.86253254961042L209.99826828951544,149.9714415959912L210.71378579802504,147.52626663750195L211.42930330653465,129.15490413253474L212.14482081504426,124.06942799520125L212.8603383235539,132.8128093642349L213.5758558320635,146.70520627713142L214.2913733405731,144.34737619123828L215.0068908490827,142.37761083983074L215.72240835759231,146.4309091348308L216.4379258661019,146.12467925494104L217.1534433746115,130.0747198021545L217.8689608831211,130.4933625312426L218.5844783916307,130.56051592534948L219.29999590014035,120.52874239230565L220.01551340864995,126.37150141590922L220.73103091715956,128.60628933232712L221.44654842566916,119.1465300267314L222.16206593417877,147.32341475306268L222.87758344268835,128.72684741932065L223.59310095119795,117.80663690482722L224.30861845970756,121.65354105900383L225.02413596821717,102.52040837309231L225.7396534767268,97.18048394977787L226.4551709852364,113.95660083500815L227.170688493746,124.74322509598329L227.88620600225562,143.22071868970758L228.60172351076523,144.54448804015598L229.3172410192748,137.93402717496986L230.0327585277844,132.2189632864538L230.74827603629402,143.37741644040656L231.46379354480362,146.3195292729031L232.17931105331326,150.98273919800968L232.89482856182286,153.98464286624565L233.61034607033247,141.84822994243135L234.32586357884207,142.94779499680698L235.04138108735165,178.8975335639053L235.75689859586126,159.72659307137513L236.47241610437086,167.10955601090583L237.18793361288047,166.34146706645672L237.90345112139008,164.10388214824778L238.6189686298997,186.68774776655044L239.33448613840932,187.03086716722976L240.05000364691892,187.95980864307694L240.76552115542853,188.56721514378384L241.4810386639381,185.0300030596047L242.1965561724477,179.39659036854178L242.91207368095732,176.15969790011098L243.62759118946693,172.45176603640454L244.34310869797653,173.58271794180354L245.05862620648617,173.08252256362815L245.77414371499577,172.17661918084994L246.48966122350538,171.71637070424944L247.20517873201499,176.52604441210744L247.92069624052456,181.28875202449018L248.63621374903417,182.7338920630626L249.35173125754378,183.6818159466868L250.06724876605338,180.77089860264994L250.782766274563,180.3084046239099L251.49828378307262,174.7452444069633L252.21380129158223,176.737383046059L252.92931880009183,180.10876578434323L253.64483630860144,178.83605360061202L254.36035381711102,173.85583647651814L255.07587132562062,164.80234503375078L255.79138883413023,162.82639731418143L256.50690634263987,163.98487713228002L257.2224238511495,142.1834055194307L257.9379413596591,146.54529273028385L258.6534588681687,161.8826972778884L259.3689763766783,159.88150251517771L260.08449388518784,167.1778102343202L260.80001139369745,150.84274005664568L261.51552890220705,140.42119602424924L262.2310464107167,117.68070858048023L262.9465639192263,132.85940687390604L263.6620814277359,135.03637734555528L264.37759893624553,121.76480918200222L265.09311644475514,116.16359186114033L265.80863395326475,102.95424118515325L266.5241514617743,93.00660856820656L267.2396689702839,111.72711028643369L267.95518647879356,118.7865818692398L268.67070398730317,123.80634992905657L269.3862214958128,130.48542543385105L270.1017390043224,132.64271384281344L270.817256512832,141.00499924738259L271.5327740213416,143.95820947177438L272.2482915298512,143.85709680866248L272.96380903836075,148.94134188271266L273.67932654687036,147.05699418239604L274.39484405538,144.58050889926616L275.1103615638896,145.27668746968004L275.82587907239923,140.74032783556484L276.54139658090884,135.78571168272833L277.25691408941844,133.59527604763866L277.97243159792805,134.54711377527272L278.68794910643766,130.63873637587605L279.4034666149472,137.3154354733623L280.1189841234568,133.77691370747243L280.8345016319665,136.7521918209554L281.5500191404761,137.1899798495811L282.2655366489857,139.78774824133748L282.9810541574953,139.8415039999851L283.6965716660049,121.8749148260302L284.4120891745145,131.94574051969857L285.12760668302406,129.3978442686772L285.84312419153366,138.20302297085658L286.55864170004327,140.52251345615431L287.27415920855293,140.41778599984207L287.98967671706254,122.34804321285836L288.70519422557214,124.6862029004856L289.42071173408175,128.8725013428666L290.13622924259136,130.74383775018822L290.85174675110096,134.0432663864226L291.5672642596105,118.36276403049683L292.2827817681201,122.84433121221429L292.9982992766297,142.17420199809095L293.7138167851394,137.10319090298233L294.429334293649,148.49161435459666L295.1448518021586,144.58283714795223L295.8603693106682,159.88865427887242L296.5758868191778,155.04093117400632L297.2914043276874,135.24164080420812L298.00692183619697,132.17307591024576L298.7224393447066,133.90941265320217L299.4379568532162,139.97368512188748L300.15347436172584,149.6933989347655L300.86899187023545,130.81670194163627L301.58450937874505,129.8261494316448L302.30002688725466,111.18099846504816L303.01554439576427,109.07096626960521L303.7310619042739,112.45064626811649L304.4465794127834,121.21506214713524L305.162096921293,120.62704900515988L305.87761442980263,121.16936055213104L306.5931319383123,118.80457206982632L307.3086494468219,122.81965717650812L308.0241669553315,131.14119465023677L308.7396844638411,132.42892777162672L309.4552019723507,116.26402151506807L310.17071948086027,123.3399938065419L310.8862369893699,125.12248918643674L311.6017544978795,135.84383005872803L312.3172720063891,144.2647453359641L313.03278951489875,152.27254586061017L313.74830702340836,150.41405615067728L314.46382453191796,149.81970100647126L315.17934204042757,150.46614498484257L315.8948595489372,145.48619076839918L316.6103770574467,150.76139044635684L317.32589456595633,150.89040268647435L318.04141207446594,124.32798116723268L318.75692958297554,132.07975683625514L319.4724470914852,134.63103132473685L320.1879645999948,144.17913551723115L320.9034821085044,146.027813688581L321.618999617014,144.99975604697389L322.33451712552363,148.44214045572645L323.0500346340332,152.2468771601897L323.7655521425428,151.32249995403538L324.4810696510524,148.694863166477L325.196587159562,126.38350913023342L325.91210466807166,130.61652353889465L326.62762217658127,128.2995294993551L327.3431396850909,105.90339482273698L328.0586571936005,102.63647765643296L328.7741747021101,115.39733573910317L329.48969221061964,99.5328665121125L330.20520971912924,111.47798826383736L330.92072722763885,135.82033717029495L331.63624473614846,119.00887263757419L332.3517622446581,122.05097284278483L333.0672797531677,119.88703749889169L333.78279726167733,125.26372992715274L334.49831477018694,126.11523524375117L335.2138322786965,133.16707079919937L335.9293497872061,135.08893281317802L336.6448672957157,135.01514928663104L337.3603848042253,114.43858771274894L338.0759023127349,137.37921051264212L338.7914198212446,120.44153629125307L339.5069373297542,101.11537286707744L340.2224548382638,112.99054173941985L340.9379723467734,114.60914219664002L341.65348985528294,119.42826255928455L342.36900736379255,122.28642811362208L343.08452487230215,105.75685525459477L343.80004238081176,94.53568692050183L344.5155598893214,93.94739971113522L345.23107739783103,100.70171831872838L345.94659490634064,100.02950987833708L346.66211241485024,104.24618405215188L347.37762992335985,106.27383957115141L348.0931474318694,112.01311461928934L348.808664940379,117.34994939593169L349.5241824488886,118.38677094797356L350.2396999573982,119.23882929033697L350.9552174659079,121.6631079859846L351.6707349744175,98.94056739455542L352.3862524829271,86.08848010294976L353.1017699914367,100.3730205978536L353.8172874999463,91.35868382582302L354.5328050084559,98.37906942883963L355.2483225169655,108.00238283724758L355.9638400254751,113.59098442528109L356.6793575339847,120.48355232376225L357.3948750424943,121.46394155839357L358.1103925510039,122.80878823133555L358.8259100595135,130.49616870271996L359.5414275680231,125.9050511468319L360.2569450765327,125.02680794446854L360.9724625850423,126.05282116524609L361.6879800935519,112.06275284708846L362.4034976020615,119.20274838338878L363.1190151105711,123.36208747321629L363.8345326190808,125.95134166968356L364.5500501275904,131.06612662573676L365.2655676361,132.929827005158L365.9810851446096,134.56607959654727L366.6966026531191,134.12123384646773L367.41212016162876,136.80833464884947L368.12763767013837,142.88898059770855L368.843155178648,143.3469520711134L369.5586726871576,140.99839768919142L370.2741901956672,136.08610679848474L370.9897077041768,136.2652027133825L371.7052252126864,133.88062135544953L372.420742721196,134.96231018469817L373.1362602297056,142.55577141452002L373.8517777382152,167.93580061943698L374.5672952467248,163.35012282856133L375.28281275523443,158.19633351568302L375.998330263744,176.02688642426702L376.7138477722536,177.15435668144912L377.4293652807632,177.48461468071037L378.1448827892728,179.8102233730717L378.8604002977824,178.88714096698752L379.575917806292,176.1954750671845L380.2914353148017,181.07555014348299L381.0069528233113,179.99443055998148L381.7224703318209,180.63359175870895L382.4379878403305,172.96588646828474L383.1535053488401,166.6651405369479L383.8690228573497,163.17287046072377L384.5845403658593,170.5229337668023L385.3000578743689,169.8444750849259L386.0155753828785,168.8162912083768L386.73109289138813,172.4571607225422L387.44661039989774,167.92703348846692L388.1621279084073,161.34559745077854L388.8776454169169,161.17777044904827L389.5931629254265,160.415849311046L390.3086804339361,154.6863847143604L391.0241979424457,158.20286747911464L391.7397154509553,157.0227122114231L392.4552329594649,147.80070131566913L393.1707504679746,151.24419299732125L393.8862679764842,150.00429751505078L394.6017854849938,151.8604425067551L395.3173029935034,162.5560558763181L396.032820502013,158.54768319346437L396.7483380105226,151.82128055724723L397.4638555190322,147.80635326853616L398.1793730275418,151.63070005774313L398.89489053605143,146.21202988338334L399.61040804456104,143.23011274381807L400.32592555307065,137.02967538724147L401.0414430615802,116.60355706919674L401.7569605700898,133.8424364305733L402.4724780785994,131.3623405141353L403.187995587109,144.40006054808444L403.9035130956186,146.99708413980113L404.6190306041282,168.53669950601898L405.3345481126379,152.34135262619998L406.0500656211475,145.8407830365183L406.7655831296571,128.21829215898015L407.4811006381667,123.4298908402909L408.1966181466763,122.55873293264953L408.9121356551859,125.06883063559664L409.6276531636955,123.34454373583941L410.34317067220513,125.94821866429422L411.05868818071474,123.95226899828583L411.77420568922435,146.43906675699503L412.48972319773395,161.7879240001509L413.2052407062435,152.91118423174643L413.9207582147531,132.21034623110506L414.6362757232627,130.8407341218445L415.3517932317723,109.92169273179131L416.0673107402819,109.99764163542763L416.78282824879153,112.84395420271406L417.49834575730114,119.54798202974716L418.2138632658108,123.02938930033062L418.9293807743204,107.59188842811042L419.64489828283,101.30965725355249L420.3604157913396,103.15770746743969L421.0759332998492,142.1455047542241L421.79145080835883,133.062173723236L422.50696831686844,135.00810161252735L423.22248582537804,114.59502790616142L423.93800333388765,99.42719634967355L424.65352084239726,101.73222080639154L425.36903835090686,85.58196775846118L426.0845558594164,82.29657001212294L426.800073367926,95.06483186028908L427.5155908764356,125.75564075985716L428.23110838494523,130.63808341138164L428.94662589345484,143.00037220265378L429.66214340196444,160.405487696201L430.37766091047405,166.57972977830164L431.0931784189837,173.97051025490768L431.8086959274933,144.255660150802L432.5242134360029,144.58000224737796L433.23973094451253,119.24274482128368L433.95524845302214,124.55561893083257L434.67076596153174,107.67506049009457L435.38628347004135,114.24933043893174L436.10180097855095,125.82940545170285L436.81731848706056,147.05504789343303L437.53283599557017,145.1791242882639L438.2483535040797,158.97176427769176L438.9638710125893,162.68976586776674L439.67938852109893,162.35497851445965L440.39490602960853,163.64726323732864L441.11042353811814,134.13057127172226L441.82594104662775,142.6826273614211L442.54145855513735,148.07782609181965L443.25697606364696,161.70233688643808L443.9724935721566,160.64024732038195L444.68801108066623,165.97922019229867L445.40352858917583,182.45999339071253L446.11904609768544,158.7585282134555L446.83456360619505,162.17931013785474L447.55008111470465,135.05940094281056L448.26559862321426,107.5151052938629L448.98111613172387,105.38479663958847L449.6966336402335,111.01539019102096L450.4121511487431,122.00642515500874L451.1276686572526,159.91714879965375L451.84318616576223,179.85011556078317L452.55870367427184,210.37999800600173L453.27422118278145,198.0150067822286L453.98973869129105,198.90551122335827L454.70525619980066,184.359655339964L455.42077370831026,169.18014475610565L456.13629121681987,158.8893904916368L456.85180872532953,143.83129735390128L457.56732623383914,166.9738178738508L458.28284374234875,161.82124169807247L458.99836125085835,158.22881888110683L459.71387875936796,129.56846350768697L460.42939626787756,127.65568580713725L461.14491377638717,127.37042084392986L461.8604312848968,127.81737313270813L462.5759487934064,127.19931307811544L463.29146630191593,124.74199368740878L464.00698381042554,126.59635309922697L464.72250131893514,127.9414210793636L465.43801882744475,130.19308297035857L466.15353633595436,134.35637382126373L466.86905384446396,133.1477988177675L467.58457135297357,136.26676594324047L468.3000888614832,139.15149593963562L469.0156063699928,128.45095098759424L469.73112387850244,111.45853495998924L470.44664138701205,104.97424815341198L471.16215889552166,113.94504001996496L471.87767640403126,100.28037281972391L472.59319391254087,98.51190965478736L473.3087114210505,106.2701758330997L474.0242289295601,103.30109446693892L474.7397464380697,88.69262438041159L475.4552639465793,81.82258865611016L476.17078145508884,73.79387953279593L476.88629896359845,78.64804758882649L477.60181647210806,68.50538920185048L478.31733398061766,84.38598359599057L479.03285148912727,72.42395082198574L479.7483689976369,87.95142366102034L480.4638865061465,79.97103418074934L481.1794040146561,79.8673085180317L481.89492152316575,86.48217543039283L482.61043903167536,91.64263807963948L483.32595654018496,77.61801778800096L484.04147404869457,85.3103099586806L484.7569915572042,71.45753170398723L485.4725090657138,79.05373904496723L486.1880265742234,70.20170455216916L486.903544082733,56.59312877266155L487.6190615912426,50.88364109921267L488.33457909975215,46.68581342409954L489.05009660826175,44.51185906816662L489.76561411677136,41.039855621034825L490.48113162528097,57.02889461222888L491.1966491337906,51.387934678606875L491.9121666423002,45.48231517461557L492.6276841508098,36.40391712352289L493.3432016593194,37.23400393306523L494.058719167829,37.12203669514514L494.77423667633866,34.870944301266846L495.48975418484827,32.64463587011957L496.2052716933579,28.356418968942034L496.9207892018675,27.67106479742966L497.6363067103771,26.85408961210597L498.3518242188867,25.165936730362926L499.0673417273963,21.620003924453652L499.7828592359059,33.54794585871802L500.4983767444155,27.659897821523142L501.21389425292506,28.5909750526733L501.92941176143466,58.808165971847345L502.64492926994427,62.45470682591414L503.3604467784539,57.475515120974734L504.0759642869635,53.50461505275164L504.7914817954731,49.68928589968685L505.5069993039827,44.18777463744027L506.2225168124923,47.80466901289711L506.9380343210019,47.96514342529514L507.65355182951157,45.32926227995774L508.3690693380212,43.28654767837158L509.0845868465308,58.21995152839756L509.8001043550404,54.65991007960451L510.51562186355,46.249592875229524L511.2311393720596,45.800499332346504L511.9466568805692,40.455758945785824L512.6621743890788,38.364671268336025L513.3776918975883,37.44439465861546L514.0932094060979,34.45195599213673L514.8087269146075,30.67109935892687L515.5242444231172,29.73745992229278L516.2397619316268,26.842170011222667L516.9552794401365,27.709015821298838L517.6707969486461,25.70839751271761L518.3863144571557,25.373404603084552L519.1018319656653,25.589836443453084L519.8173494741749,25.628717862356286L520.5328669826845,47.78833074871514L521.2483844911941,63.181039062124135L521.9639019997037,61.83966956636366L522.6794195082133,60.8840455821579L523.3949370167229,72.70210119256821L524.1104545252325,87.02783267637489L524.8259720337421,72.43068039937312L525.5414895422517,70.84349888658444L526.2570070507612,66.93266741702968L526.9725245592708,61.88297871713913L527.6880420677804,84.87704680113067L528.4035595762901,72.478380036509L529.1190770847998,65.03065892902926L529.8345945933094,85.32780828143665L530.550112101819,88.43611785676924L531.2656296103286,106.46872114955573L531.9811471188382,89.61631311023079L532.6966646273478,96.35399072244095L533.4121821358574,89.73285096922433L534.127699644367,96.35518455018237L534.8432171528766,109.24500743371708L535.5587346613862,100.98441641260887L536.2742521698958,112.08351441358553L536.9897696784054,101.68875729751237L537.705287186915,98.50269757450648L538.4208046954245,110.97734074230046L539.1363222039341,93.06708782186027L539.8518397124437,98.21550852449512L540.5673572209533,90.20718493084459L541.2828747294631,79.23981958672591L541.9983922379727,67.3974160555126L542.7139097464823,58.64242768551299L543.4294272549919,55.30360118641406L544.1449447635015,49.970400174539556L544.8604622720111,44.17521554339254L545.5759797805207,48.232964955007645L546.2914972890303,71.61740563669655L547.0070147975399,76.22574867012229L547.7225323060495,99.28535134162993L548.4380498145591,89.93985761820225L549.1535673230687,108.51764288706181L549.8690848315783,118.56923459909532L550.5846023400879,124.79664035305132L551.3001198485974,129.81663449576965L552.015637357107,132.02017174488776L552.7311548656166,135.33657944866866L553.4466723741263,143.3845715020791L554.162189882636,147.61815934583578L554.8777073911456,124.5558163774447L555.5932248996552,134.5758588638264L556.3087424081648,142.00058517093242L557.0242599166744,118.13132606214162L557.739777425184,129.07747481708705L558.4552949336936,140.7972247592048L559.1708124422032,151.11573983915451L559.8863299507128,125.80547878863848L560.6018474592224,138.31263706604616L561.317364967732,145.7958485385014L562.0328824762416,121.68412786189845L562.7483999847512,123.61129269660785L563.4639174932607,106.74781437926573L564.1794350017703,114.742041164349L564.89495251028,104.70021298349961L565.6104700187896,114.33175650591357L566.3259875272992,121.34135387025862L567.0415050358089,100.8527776675476L567.7570225443185,86.20207257924562L568.4725400528281,70.90697385895245L569.1880575613377,93.19414644535624L569.9035750698473,78.99515025262565L570.6190925783569,91.27075816524658L571.3346100868665,90.96488704969437L572.0501275953761,74.81901625685246L572.7656451038857,87.64680920767445L573.4811626123953,78.89356664582138L574.196680120905,67.66705262188198L574.9121976294145,56.732137411511516L575.6277151379242,49.52705537218634L576.3432326464336,57.531241565510285L577.0587501549433,47.35602832936108L577.7742676634529,41.6402042056961L578.4897851719625,38.2235932398754L579.2053026804722,35.09774741943468L579.9208201889818,42.504179846308006L580.6363376974914,37.7810505262955L581.351855206001,33.86748349867821L582.0673727145106,31.471649358826987L582.7828902230202,30.55948649937241L583.4984077315298,29.62528934215838L584.2139252400394,53.00885864334202L584.929442748549,45.18157857447471L585.6449602570586,37.700595416391735L586.3604777655682,61.043714652723885L587.0759952740779,75.08585774588084L587.7915127825875,67.36109027310997L588.507030291097,81.08146209783004L589.2225477996066,91.64047660948188L589.9380653081162,78.97681404846968L590.6535828166258,67.74995304022693L591.3691003251354,60.05203636176944L592.0846178336451,63.13679367523218L592.8001353421547,53.17598780317404L593.5156528506643,47.935274952289106L594.2311703591739,51.99293441906288L594.9466878676835,53.051780993184686L595.6622053761931,73.8068816525359L596.3777228847027,67.86468985088337L597.0932403932123,59.04941073739863L597.808757901722,53.378482447606935L598.5242754102316,71.74633254346396L599.2397929187412,85.64427312892873L599.9553104272508,97.836868985517L600.6708279357604,106.96253618608313L601.3863454442699,113.677853154208L602.1018629527795,104.85890097309529L602.8173804612891,111.84849883127652L603.5328979697987,116.81140081415965L604.2484154783083,104.31310691651753L604.963932986818,93.4490975870373L605.6794504953276,77.69236600039312L606.3949680038372,90.93090559714713L607.1104855123468,100.08005642165928L607.8260030208564,87.57068683559407L608.541520529366,78.18703668166368L609.2570380378756,67.0821195671159L609.9725555463853,71.29664739136143L610.6880730548949,62.62811056900141L611.4035905634045,55.76004663865904L612.1191080719141,80.47271001194822L612.8346255804237,66.98878529894435L613.5501430889332,62.856130301127465L614.2656605974428,65.78102977037199L614.9811781059524,84.52271695179432L615.696695614462,94.94822500736929L616.4122131229716,103.36325032700091L617.1277306314812,85.46954108036878L617.8432481399909,102.81648514984641L618.5587656485005,97.7248017000816L619.2742831570101,88.77905533524216L619.9898006655197,80.70624106962859L620.7053181740293,70.06576871512647L621.420835682539,65.80135263853641L622.1363531910486,89.0323968209455L622.8518706995582,83.13631188348154L623.5673882080678,77.5270754287221L624.2829057165774,68.47549645475394L624.998423225087,68.67143742677403L625.7139407335966,82.07373844680957L626.4294582421061,93.20281674429232L627.1449757506157,80.53658965057323L627.8604932591253,69.70277972994793L628.5760107676349,65.7615317384366L629.2915282761445,57.104580869678514L630.0070457846541,87.83709311519875L630.7225632931638,75.42259596627714L631.4380808016734,66.5298512813437L632.153598310183,60.53114974414743L632.8691158186926,72.05412470628602L633.5846333272023,70.12900191521977L634.3001508357119,59.961087705787115L635.0156683442215,79.36784154699266L635.7311858527311,101.24664682285884L636.4467033612407,116.47090678349916L637.1622208697503,95.70372206542243L637.8777383782599,80.07443322268227L638.5932558867694,65.48660827011139L639.308773395279,61.64510147446701L640.0242909037886,53.72360862308162L640.7398084122982,45.91793603704517L641.4553259208078,39.53410526505468L642.1708434293174,37.00706034508225L642.886360937827,33.42613746484662L643.6018784463367,28.436172287964894L644.3173959548463,33.104914058966L645.032913463356,31.69740119519096L645.7484309718656,28.2320799171138L646.4639484803752,27.30712828094899L647.1794659888848,26.323842237852485L647.8949834973944,28.90540455422045L648.610501005904,26.578789555302542L649.3260185144136,30.034596868167L650.0415360229232,28.636193583646264L650.7570535314328,35.46767157902789L651.4725710399423,45.34136735505551L652.1880885484519,42.74876004118331L652.9036060569615,36.42809778823813L653.6191235654711,31.75667224466625L654.3346410739807,33.75439410066837L655.0501585824903,30.472329026553346L655.765676091,30.226006079667417L656.4811935995097,29.605723714077005L657.1967111080193,60.97708375035148L657.9122286165289,86.4040555536449L658.6277461250385,72.37150885047086L659.3432636335481,61.13645803937463L660.0587811420577,52.243072671866706L660.7742986505673,47.073304370205605L661.4898161590769,73.69051272569077L662.2053336675865,63.97106376359175L662.9208511760961,77.25115330273488L663.6363686846056,69.8692137343372L664.3518861931152,83.86248846173358L665.0674037016248,73.51670082713937L665.7829212101344,65.9623273325251L666.498438718644,60.04954400857647L667.2139562271536,54.91907725138756L667.9294737356632,48.28110481523701L668.644991244173,47.95515112604667L669.3605087526826,44.598448966674034L670.0760262611922,39.330865988197104L670.7915437697018,35.77599661776462L671.5070612782114,33.45875848126367L672.222578786721,31.3576430883613L672.9380962952306,38.90749047287118L673.6536138037402,34.53689797937119L674.3691313122498,38.200133911904025L675.0846488207594,36.92029727172592L675.800166329269,33.402523409559336L676.5156838377785,30.621346808646283L677.2312013462881,30.443344856152674L677.9467188547977,31.467038692975304L678.6622363633073,34.12091365214657L679.3777538718169,32.544435600118995L680.0932713803265,30.438897961215023L680.8087888888361,26.751525049845476L681.5243063973459,23.00805180361536L682.2398239058555,23.808528611451983L682.9553414143651,20.789687880199967L683.6708589228747,23.583005714438944L684.3863764313843,23.97210713946202L685.1018939398939,24.4788314667408L685.8174114484035,23.860883898495082L686.5329289569131,21.471168773220857L687.2484464654227,19.320121978310425L687.9639639739323,17.266247468265345L688.6794814824418,19.409557395511086L689.3949989909514,26.15230887620012L690.110516499461,42.29159130763194L690.8260340079706,34.424537583770494L691.5415515164802,30.082038858380727L692.2570690249898,28.885163698691002L692.9725865334995,28.738014299083737L693.6881040420091,60.850036875293455L694.4036215505188,50.12320947942973L695.1191390590284,41.29285562333416L695.834656567538,36.54125253317043L696.5501740760475,31.16710921632214L697.2656915845572,28.434420444707104L697.9812090930667,60.514879480487394L698.6967266015764,50.23444408350718L699.4122441100859,45.445528317555926L700.1277616185956,39.40042486861249L700.8432791271051,34.96889065124884L701.5587966356148,30.68882288719562L702.2743141441243,31.189501258704116L702.989831652634,28.7302670780713L703.7053491611435,25.398111093895725L704.4208666696533,23.267925354355345L705.1363841781628,22.925828319688062L705.8519016866725,21.720142713644016L706.567419195182,21.40957710316195L707.2829367036917,20.150909683445775L707.9984542122013,19.885225075852528L708.7139717207108,17.355039102898534L709.4294892292205,18.903390999846103L710.14500673773,24.777745652197883L710.8605242462397,23.64208447284087L711.5760417547492,21.930447796630812L712.2915592632589,22.08517240313733L713.0070767717684,23.49758356774857L713.7225942802781,23.889764421428218L714.4381117887876,21.862046453892553L715.1536292972974,44.55427654455879L715.8691468058068,40.53888888969183L716.5846643143166,34.18099907079894L717.3001818228261,32.53655940683432L718.0156993313358,31.76053791839581L718.7312168398453,30.7991234092802L719.446734348355,25.72453248258719L720.1622518568646,23.697027810530173L720.8777693653741,22.001435137078353L721.5932868738838,24.59781359613758L722.3088043823933,22.221074138517388L723.024321890903,50.72043400569152L723.7398393994125,45.15817729446808L724.4553569079222,40.30934453668886L725.1708744164317,49.092704997993096L725.8863919249414,39.96081553649958L726.6019094334509,35.16046957149402L727.3174269419607,44.499868096499334L728.0329444504702,42.00413487501676L728.7484619589799,40.009749851189554L729.4639794674894,41.09529376840559L730.1794969759991,36.31339551477457L730.8950144845086,62.98239200379493L731.6105319930183,55.512871842423266L732.3260495015279,49.47917359321784L733.0415670100375,43.09556454086406L733.7570845185471,37.09233422923866L734.4726020270567,29.99071168482996L735.1881195355663,25.91998105230387L735.9036370440759,25.280362940074237L736.6191545525855,33.822490758342774L737.3346720610951,29.71941576079037L738.0501895696048,25.266010806241443L738.7657070781145,24.56983723876571L739.481224586624,33.977419272047015L740.1967420951337,28.506891597692515L740.9122596036432,64.00434509105393L741.6277771121529,84.84231820427658L742.3432946206624,69.3130817245576L743.0588121291721,58.858467130560776L743.7743296376816,49.82508108864886L744.4898471461913,61.9767317870296L745.2053646547008,51.9253525206114L745.9208821632104,46.79402081876874L746.63639967172,41.98927084250035L747.3519171802296,37.966623113925934L748.0674346887392,34.13038652502771L748.7829521972488,29.10238062405025L749.4984697057585,48.55081401532873L750.2139872142681,39.3976477595866L750.9295047227777,35.314662785310475L751.6450222312873,31.402074761655648L752.360539739797,29.957106031877114L753.0760572483065,33.603298414552626L753.7915747568162,29.09894387085659L754.5070922653257,26.476910420671587L755.2226097738354,24.45770296558194L755.9381272823449,24.18582054743275L756.6536447908546,23.158750610693268L757.3691622993641,22.810230352941183L758.0846798078737,21.019222023461996L758.8001973163833,20.426707725395428L759.5157148248929,19.516573811389588L760.2312323334025,21.457892981991154L760.9467498419122,43.585579385265156L761.6622673504218,38.38340625720628L762.3777848589314,33.31746510114878L763.093302367441,27.662638854825943L763.8088198759506,27.00898457743422L764.5243373844603,50.1478364901052L765.2398548929698,45.60716229197813L765.9553724014795,37.81954339623866L766.670889909989,33.84840576717839L767.3864074184987,26.739380649782245L768.1019249270082,31.99134020036727L768.8174424355179,28.690735479043962L769.5329599440274,51.623045229960965L770.2484774525371,42.6621632409561L770.9639949610466,37.21786365438334L771.6795124695562,32.297222171906334L772.3950299780658,27.973281647012847L773.1105474865755,24.140067274295046L773.8260649950851,22.510315718163884L774.5415825035947,23.848812162583204L775.2571000121043,24.45531182064315L775.9726175206139,25.270981208313565L776.6881350291236,28.406689815174975L777.4036525376331,25.481739861078328L778.1191700461428,26.769850287178713L778.8346875546523,25.46423083078141L779.550205063162,27.405087672540642L780.2657225716715,21.991769212696315L780.9812400801812,22.435326816809443L781.6967575886907,21.505856260600567L782.4122750972004,24.494402703680894L783.1277926057099,26.680413525104964L783.8433101142195,24.302962398418398L784.5588276227292,27.650338762018063L785.2743451312388,51.24243869844894L785.9898626397484,46.600497321594396L786.705380148258,41.359946298706795L787.4208976567676,61.38152339734468L788.1364151652772,94.25337629384295L788.8519326737868,79.82494217221033L789.5674501822964,68.57005597175866L790.2829676908061,57.95630493132175L790.9984851993156,47.440885599836534L791.7140027078253,42.58499136727031L792.4295202163348,42.32954628753328L793.1450377248445,42.32369588557747L793.860555233354,43.92744793357036L794.5760727418638,44.84280039486653L795.2915902503732,41.57477931940038L796.0071077588827,41.61012317118478L796.7226252673925,35.93135407874398L797.4381427759021,39.17997769601428L798.1536602844117,37.808046984832565L798.8691777929213,29.32927093594038L799.5846953014309,36.23497544372713L800.3002128099405,35.25573851606968L801.0157303184501,28.409052275431666L801.7312478269597,25.667644383360766L802.4467653354694,21.052527944535072L803.1622828439789,18.155634331623414L803.8778003524886,16.92595543869641L804.5933178609981,14.52460384561424L805.3088353695078,11.528233253202242" style="fill: none;" fill="none"></path></g></g></g></g><g opacity="0.2"><g><g><g><path stroke="rgb(238, 51, 119)" stroke-width="2px" d="M91.93787938543045,434.08340842902885L92.65339689394004,287.1655145559337L93.36891440244966,671.0562837807595L94.08443191095927,255.11440273864324L94.79994941946887,304.0254860514027L95.5154669279785,200.9144040904118L96.23098443648809,228.2762840070577L96.94650194499769,239.64705125979262L97.6620194535073,411.77163095488527L98.37753696201692,208.24230194883748L99.0930544705265,242.4038540291319L99.80857197903612,162.87292123010366L100.52408948754572,210.04600225126237L101.23960699605533,246.20463570385988L101.95512450456492,204.18501564206193L102.67064201307454,227.78481056562188L103.38615952158415,163.90295333973688L104.10167703009375,105.83138207491915L104.81719453860337,160.85759165404443L105.53271204711295,133.69108520667035L106.24822955562257,196.40031145203508L106.96374706413218,115.86511981257625L107.67926457264178,244.24961538585063L108.39478208115138,229.98639590522058L109.110299589661,214.81521155806408L109.8258170981706,254.35695836948545L110.54133460668021,236.50869920946354L111.2568521151898,246.42663312971598L111.97236962369942,152.2247633378666L112.68788713220903,118.94489675986533L113.40340464071863,146.5313269640302L114.11892214922824,191.44196171997137L114.83443965773783,112.38604667846253L115.54995716624745,237.37877330870947L116.26547467475706,219.98015040093003L116.98099218326666,179.49150538394844L117.69650969177626,113.4066396760407L118.41202720028588,199.64013835430626L119.12754470879548,134.6009049554573L119.84306221730509,152.04697287319541L120.5585797258147,121.79058037021238L121.27409723432429,140.6434077842143L121.98961474283391,145.44995938880055L122.70513225134351,140.59832535058317L123.42064975985312,138.13272310578182L124.13616726836271,143.25837122497148L124.85168477687233,166.70368163984915L125.56720228538194,180.67867160563094L126.28271979389154,164.45498229083313L126.99823730240114,124.22754027469384L127.71375481091074,214.7383170941468L128.42927231942036,257.41246114422637L129.14478982792997,193.89048945375734L129.86030733643958,140.62610381147095L130.57582484494918,206.78367370832729L131.2913423534588,136.3805085783779L132.0068598619684,174.56617255612207L132.722377370478,163.19955960003617L133.4378948789876,154.56358278112475L134.1534123874972,116.77533772143464L134.86892989600682,200.13432376152988L135.58444740451642,172.88323788114874L136.299964913026,180.60758164395992L137.01548242153564,211.3098230813974L137.73099993004524,195.47248015688385L138.44651743855485,182.95172427949848L139.16203494706446,85.43146852453545L139.87755245557406,157.73873505588807L140.59306996408367,244.40935272921035L141.30858747259327,211.85787043177922L142.02410498110288,204.14876868423303L142.7396224896125,219.2634942530666L143.4551399981221,243.08019527048478L144.1706575066317,151.64601448800028L144.8861750151413,196.8738884777297L145.6016925236509,214.70913787734503L146.31721003216052,142.01811859280008L147.03272754067012,185.68323029249166L147.74824504917973,204.78117480059433L148.46376255768934,199.81843731256265L149.17928006619894,212.87689157654526L149.89479757470855,197.32049935304377L150.61031508321815,190.8037351109995L151.32583259172776,149.09117001995767L152.04135010023734,197.73881367966626L152.75686760874697,185.4256127310878L153.47238511725658,174.57818451779542L154.18790262576618,189.13684196950686L154.9034201342758,195.19598756944268L155.6189376427854,195.0140236196853L156.334455151295,210.15240213541344L157.0499726598046,253.86048953823763L157.76549016831422,171.2675266977551L158.4810076768238,138.91160735541294L159.19652518533343,176.52002877560923L159.91204269384303,192.47295644953635L160.62756020235264,197.5498587426304L161.34307771086222,190.32926902104896L162.05859521937185,186.09448967037844L162.77411272788146,206.7447723500221L163.48963023639106,200.67528418244734L164.20514774490067,181.77891740497074L164.92066525341025,197.62258931568016L165.63618276191988,197.08068866134093L166.3517002704295,133.47595644180572L167.0672177789391,212.89907340992283L167.78273528744867,195.56723265966798L168.4982527959583,210.07877610196206L169.21377030446791,126.6558046190609L169.92928781297752,219.6022277345669L170.64480532148713,221.049445251102L171.3603228299967,216.63456962522608L172.07584033850634,202.95085373965807L172.79135784701595,204.64357451759207L173.50687535552555,191.80037614187043L174.22239286403513,217.32751526088344L174.93791037254476,211.96267767564458L175.65342788105437,216.84024408718955L176.36894538956398,239.0920704874439L177.08446289807358,193.70031285288783L177.7999804065832,219.03431395556026L178.5154979150928,210.29827263483932L179.23101542360237,111.83031915610027L179.94653293211198,156.82514477919565L180.66205044062158,170.67353583262383L181.37756794913122,227.2673176033729L182.09308545764083,261.7151099971948L182.80860296615043,198.86513016898502L183.52412047466004,201.65381132862245L184.23963798316964,218.60216476573254L184.95515549167922,201.33959427368967L185.67067300018883,188.27750699893474L186.38619050869843,204.03066385340347L187.10170801720804,229.47057233700605L187.81722552571767,183.853945407163L188.53274303422728,186.81886596613313L189.2482605427369,189.51530830825666L189.9637780512465,250.50400973021667L190.6792955597561,188.3584374308051L191.39481306826568,173.6315901291571L192.11033057677528,211.33134611176519L192.8258480852849,192.95202776440962L193.5413655937945,213.51564906561245L194.25688310230413,208.12507338997236L194.97240061081374,225.59283863304927L195.68791811932334,207.6707551590585L196.40343562783295,207.60459982381505L197.11895313634255,206.3342101520194L197.83447064485213,194.7653222854234L198.54998815336174,111.5875454498899L199.26550566187134,127.88110716005595L199.98102317038095,220.93622067946131L200.69654067889059,219.1362109531203L201.4120581874002,217.96450741373027L202.1275756959098,231.87213956887217L202.8430932044194,146.91994078797427L203.558610712929,141.27275014677286L204.2741282214386,136.96199737716964L204.9896457299482,127.27241805198621L205.7051632384578,141.0719503473708L206.4206807469674,166.11713908641568L207.13619825547704,150.56904266392075L207.85171576398665,139.1135984369565L208.56723327249625,146.79424693024086L209.28275078100586,151.7648596726976L209.99826828951544,138.40707778151403L210.71378579802504,137.74556680354505L211.42930330653465,55.669454112666045L212.14482081504426,103.72752344586716L212.8603383235539,167.7863348403697L213.5758558320635,202.27479392871717L214.2913733405731,134.91605584766606L215.0068908490827,134.49854943420058L215.72240835759231,162.64410231483086L216.4379258661019,144.89975973538196L217.1534433746115,65.87488199100822L217.8689608831211,132.1679334475951L218.5844783916307,130.8291295017772L219.29999590014035,80.40164826013007L220.01551340864995,149.7425375103235L220.73103091715956,137.54544099799884L221.44654842566916,81.30749280434836L222.16206593417877,260.03095365838783L222.87758344268835,54.34057808435237L223.59310095119795,74.12579484685348L224.30861845970756,137.04115767571037L225.02413596821717,25.98787762944612L225.7396534767268,75.82078625652021L226.4551709852364,181.06106837592938L227.170688493746,167.88972213988384L227.88620600225562,217.1306930646047L228.60172351076523,149.83956544194965L229.3172410192748,111.49218371422538L230.0327585277844,109.35870773238939L230.74827603629402,188.01122905621793L231.46379354480362,158.08798060288896L232.17931105331326,169.63557889843614L232.89482856182286,165.99225753918952L233.61034607033247,93.30257824717414L234.32586357884207,147.34605521430953L235.04138108735165,322.6964878322986L235.75689859586126,83.04283110125436L236.47241610437086,196.64140776902877L237.18793361288047,163.26911128866007L237.90345112139008,155.15354247541228L238.6189686298997,277.0232102397609L239.33448613840932,188.40334476994698L240.05000364691892,191.67557454646578L240.76552115542853,190.99684114661144L241.4810386639381,170.88115472288797L242.1965561724477,156.86293960429023L242.91207368095732,163.21212802638766L243.62759118946693,157.62003858157885L244.34310869797653,178.10652556339963L245.05862620648617,171.08174105092647L245.77414371499577,168.55300564973714L246.48966122350538,169.87537679784754L247.20517873201499,195.7647392435394L247.92069624052456,200.33958247402117L248.63621374903417,188.51445221735233L249.35173125754378,187.47351148118352L250.06724876605338,169.12722922650244L250.782766274563,178.45842870894964L251.49828378307262,152.49260353917697L252.21380129158223,184.70593760244174L252.92931880009183,193.5942967374803L253.64483630860144,173.74520486568707L254.36035381711102,153.9349679801425L255.07587132562062,128.5883792626814L255.79138883413023,154.92260643590416L256.50690634263987,168.6187964046742L257.2224238511495,54.977519068033395L257.9379413596591,163.99284157369644L258.6534588681687,223.23231546830655L259.3689763766783,151.8767234643351L260.08449388518784,196.36304111088998L260.80001139369745,85.50245934594771L261.51552890220705,98.73501989466338L262.2310464107167,26.718758805404075L262.9465639192263,193.57420004760942L263.6620814277359,143.74425923215213L264.37759893624553,68.67853652779009L265.09311644475514,93.75872257769271L265.80863395326475,50.11683848120488L266.5241514617743,53.21607810041982L267.2396689702839,186.6091171593422L267.95518647879356,147.0244682004641L268.67070398730317,143.88542216832374L269.3862214958128,157.2017274530292L270.1017390043224,141.27186747866267L270.817256512832,174.4541408656593L271.5327740213416,155.77105036934142L272.2482915298512,143.45264615621488L272.96380903836075,169.27832217891356L273.67932654687036,139.51960338112943L274.39484405538,134.67456776674658L275.1103615638896,148.0614017513356L275.82587907239923,122.59488929910412L276.54139658090884,115.96724707138239L277.25691408941844,124.83353350727985L277.97243159792805,138.35446468580886L278.68794910643766,115.00522677828954L279.4034666149472,164.02223186330716L280.1189841234568,119.62282664391283L280.8345016319665,148.65330427488738L281.5500191404761,138.94113196408392L282.2655366489857,150.17882180836307L282.9810541574953,140.0565270345756L283.6965716660049,50.00855813021038L284.4120891745145,172.22904329437205L285.12760668302406,119.20625926459172L285.84312419153366,173.42373777957397L286.55864170004327,149.80047539734554L287.27415920855293,139.99887617459305L287.98967671706254,50.06907206492354L288.70519422557214,134.03884165099444L289.42071173408175,145.61769511239058L290.13622924259136,138.2291833794748L290.85174675110096,147.24098093136018L291.5672642596105,55.64075460679375L292.2827817681201,140.770599939084L292.9982992766297,219.4936851415976L293.7138167851394,116.81914652254808L294.429334293649,194.04530816105387L295.1448518021586,128.94772832137465L295.8603693106682,221.11192280255298L296.5758868191778,135.65003875454198L297.2914043276874,56.044479325015374L298.00692183619697,119.89881633439627L298.7224393447066,140.85475962502775L299.4379568532162,164.2307749966287L300.15347436172584,188.57225418627772L300.86899187023545,55.30991396911928L301.58450937874505,125.86393939167895L302.30002688725466,36.60039459866177L303.01554439576427,100.63083748783332L303.7310619042739,125.96936626216147L304.4465794127834,156.27272566321014L305.162096921293,118.27499643725854L305.87761442980263,123.33860674001585L306.5931319383123,109.3454181406073L307.3086494468219,138.87999760323535L308.0241669553315,164.4273445451513L308.7396844638411,137.57986025718657L309.4552019723507,51.60439648883351L310.17071948086027,151.6438829724371L310.8862369893699,132.2524707060162L311.6017544978795,178.7291935478932L312.3172720063891,177.94840644490856L313.03278951489875,184.30374795919434L313.74830702340836,142.9800973109457L314.46382453191796,147.44228042964707L315.17934204042757,153.0519208983279L315.8948595489372,125.56637390262549L316.6103770574467,171.86218915818762L317.32589456595633,151.4064516469443L318.04141207446594,18.0782950902659L318.75692958297554,163.08685951234506L319.4724470914852,144.83612927866383L320.1879645999948,182.3715522872081L320.9034821085044,153.42252637398056L321.618999617014,140.88752548054532L322.33451712552363,162.21167809073694L323.0500346340332,167.4658239780426L323.7655521425428,147.624991129418L324.4810696510524,138.18431601624368L325.196587159562,37.13809298525901L325.91210466807166,147.54858117353942L326.62762217658127,119.03155334119685L327.3431396850909,16.31885611626455L328.0586571936005,89.56880899121688L328.7741747021101,166.44076806978418L329.48969221061964,36.07498960414977L330.20520971912924,159.25847527073677L330.92072722763885,233.18973279612527L331.63624473614846,51.763014506691235L332.3517622446581,134.2193736636274L333.0672797531677,111.23129612331911L333.78279726167733,146.7704996401969L334.49831477018694,129.52125651014472L335.2138322786965,161.37441302099222L335.9293497872061,142.77638086909258L336.6448672957157,134.7200151804432L337.3603848042253,32.13234141722037L338.0759023127349,229.1417017122152L338.7914198212446,52.69083940569673L339.5069373297542,23.810719170374824L340.2224548382638,160.49121722878948L340.9379723467734,121.08354402552075L341.65348985528294,138.7047440098627L342.36900736379255,133.7190903309723L343.08452487230215,39.638563818485366L343.80004238081176,49.65101358413008L344.5155598893214,91.5942508736688L345.23107739783103,127.718992749101L345.94659490634064,97.34067611677183L346.66211241485024,121.11288074741101L347.37762992335985,114.3844616471495L348.0931474318694,134.9702148118414L348.808664940379,138.6972885025009L349.5241824488886,122.53405715614113L350.2396999573982,122.64706265979068L350.9552174659079,131.36022276857483L351.6707349744175,8.050405028838737L352.3862524829271,34.6801309365273L353.1017699914367,157.511182577469L353.8172874999463,55.30133673770076L354.5328050084559,126.46061184090583L355.2483225169655,146.49563647087942L355.9638400254751,135.94539077741516L356.6793575339847,148.0538239176868L357.3948750424943,125.38549849691883L358.1103925510039,128.18817492310353L358.8259100595135,161.2456905882576L359.5414275680231,107.54058092327963L360.2569450765327,121.51383513501507L360.9724625850423,130.1568740483563L361.6879800935519,56.10247957445822L362.4034976020615,147.76273052858977L363.1190151105711,139.9994438325262L363.8345326190808,136.30835845555285L364.5500501275904,151.52526644994944L365.2655676361,140.38462852284297L365.9810851446096,141.11108996210424L366.6966026531191,132.34185084614964L367.41212016162876,147.55673785837644L368.12763767013837,167.2115643931449L368.843155178648,145.1788379647328L369.5586726871576,131.60418016150362L370.2741901956672,116.43694323565784L370.9897077041768,136.98158637297354L371.7052252126864,124.34229592371767L372.420742721196,139.28906550169276L373.1362602297056,172.9296163338076L373.8517777382152,269.45591743910455L374.5672952467248,145.00741166505887L375.28281275523443,137.58117626416967L375.998330263744,247.34909805860312L376.7138477722536,181.6642377101774L377.4293652807632,178.80564667775542L378.1448827892728,189.11265814251703L378.8604002977824,175.19481134265084L379.575917806292,165.42881146797248L380.2914353148017,200.59585044867686L381.0069528233113,175.66995222597544L381.7224703318209,183.19023655361892L382.4379878403305,142.29506530658776L383.1535053488401,141.46215681160064L383.8690228573497,149.20379015582722L384.5845403658593,199.92318699111647L385.3000578743689,167.13064035742022L386.0155753828785,164.70355570218047L386.73109289138813,187.02063877920375L387.44661039989774,149.80652455216585L388.1621279084073,135.01985330002492L388.8776454169169,160.5064624421273L389.5931629254265,157.36816475903686L390.3086804339361,131.76852632761802L391.0241979424457,172.26879853813162L391.7397154509553,152.30209114065684L392.4552329594649,110.91265773265329L393.1707504679746,165.01815972392967L393.8862679764842,145.04471558596902L394.6017854849938,159.2850224735723L395.3173029935034,205.3385093545702L396.032820502013,142.51419246204932L396.7483380105226,124.91567001237867L397.4638555190322,131.7466441136918L398.1793730275418,166.92808721457104L398.89489053605143,124.5373491859441L399.61040804456104,131.30244418555728L400.32592555307065,112.22792596093502L401.0414430615802,34.89908379701781L401.7569605700898,202.79795387607936L402.4724780785994,121.44195684838331L403.187995587109,196.55094068388104L403.9035130956186,157.38517850666787L404.6190306041282,254.69516097089047L405.3345481126379,87.55996510692378L406.0500656211475,119.83850467779168L406.7655831296571,57.728328648827464L407.4811006381667,104.27628556553385L408.1966181466763,119.07410130208403L408.9121356551859,135.1092214473851L409.6276531636955,116.44739613681047L410.34317067220513,136.36291837811336L411.05868818071474,115.96847033425246L411.77420568922435,236.38625779183178L412.48972319773395,223.18335297277446L413.2052407062435,117.40422515812847L413.9207582147531,49.406994228539595L414.6362757232627,125.36228568480205L415.3517932317723,26.245527171578615L416.0673107402819,110.30143724997278L416.78282824879153,124.22920447185992L417.49834575730114,146.36409333787967L418.2138632658108,136.9550183826644L418.9293807743204,45.84188493922978L419.64489828283,76.18073255532059L420.3604157913396,110.54990832298853L421.0759332998492,298.0966939013617L421.79145080835883,96.72884959928373L422.50696831686844,142.79181316969286L423.22248582537804,32.94273308069753L423.93800333388765,38.755870123722154L424.65352084239726,110.95231863326345L425.36903835090686,20.98095556673965L426.0845558594164,69.15497902676995L426.800073367926,146.13787925295378L427.5155908764356,248.5188763581297L428.23110838494523,150.16785401747947L428.94662589345484,192.44952736774226L429.66214340196444,230.02594967038982L430.37766091047405,191.27669810670446L431.0931784189837,203.53363216133178L431.8086959274933,25.39625973437918L432.5242134360029,145.87737063368178L433.23973094451253,17.893715116906584L433.95524845302214,145.807115369028L434.67076596153174,40.152826727142774L435.38628347004135,140.54641023428033L436.10180097855095,172.14970550278744L436.81731848706056,231.95761766035366L437.53283599557017,137.67542986758718L438.2483535040797,214.14232423540327L438.9638710125893,177.56177222806667L439.67938852109893,161.01582910123147L440.39490602960853,168.81640212880444L441.11042353811814,16.063803409296778L441.82594104662775,176.89085172021657L442.54145855513735,169.6586210134139L443.25697606364696,216.2003800649118L443.9724935721566,156.39188905615734L444.68801108066623,187.33511167996554L445.40352858917583,248.38308618436787L446.11904609768544,63.95266750442732L446.83456360619505,175.86243783545203L447.55008111470465,26.579764162633587L448.26559862321426,-2.662077301927682L448.98111613172387,96.86356202249071L449.6966336402335,133.53776439675107L450.4121511487431,165.97056501095997L451.1276686572526,311.5600433782337L451.84318616576223,259.5819826053009L452.55870367427184,332.4995277868759L453.27422118278145,148.5550418871361L453.98973869129105,202.46752898787705L454.70525619980066,126.17623180638688L455.42077370831026,108.46210242067224L456.13629121681987,117.72637343376138L456.85180872532953,83.59892480295943L457.56732623383914,259.54389995364863L458.28284374234875,141.2109369949591L458.99836125085835,143.8591276132444L459.71387875936796,14.927042014007604L460.42939626787756,120.00457500493829L461.14491377638717,126.2293609911003L461.8604312848968,129.6051822878213L462.5759487934064,124.72707285974441L463.29146630191593,114.91271612458235L464.00698381042554,134.01379074649964L464.72250131893514,133.32169299991008L465.43801882744475,139.19973053433853L466.15353633595436,151.0095372248844L466.86905384446396,128.31349880378255L467.58457135297357,148.74263444513235L468.3000888614832,150.69041592521626L469.0156063699928,85.64877117942868L469.73112387850244,43.48887084956933L470.44664138701205,79.03710092710284L471.16215889552166,149.82820748617684L471.87767640403126,45.62170401875986L472.59319391254087,91.43805699504124L473.3087114210505,137.30324054634912L474.0242289295601,91.42476900229558L474.7397464380697,30.258744034302396L475.4552639465793,54.34244575890434L476.17078145508884,41.679043039538996L476.88629896359845,98.06471981294874L477.60181647210806,27.934755653946294L478.31733398061766,147.90836117255094L479.03285148912727,24.575819725966568L479.7483689976369,150.06131501715885L480.4638865061465,48.04947625966513L481.1794040146561,79.45240586716125L481.89492152316575,112.94164307983739L482.61043903167536,112.28448867662597L483.32595654018496,21.519536621447084L484.04147404869457,116.0794786413991L484.7569915572042,16.046418685213673L485.4725090657138,109.4385684088871L486.1880265742234,34.79356658097689L486.903544082733,2.158825654631168L487.6190615912426,28.04569040541705L488.33457909975215,29.894502723647037L489.05009660826175,35.81604164443492L489.76561411677136,27.15184183250779L490.48113162528097,120.98505057700515L491.1966491337906,28.824094944118755L491.9121666423002,21.859837158650237L492.6276841508098,0.09032491915218932L493.3432016593194,40.55435117123464L494.058719167829,36.67416774346482L494.77423667633866,25.866574725753598L495.48975418484827,23.73940214553051L496.2052716933579,11.203551364231924L496.9207892018675,24.929648111380086L497.6363067103771,23.586188870811245L498.3518242188867,18.413325203390887L499.0673417273963,7.436272700816475L499.7828592359059,81.2597135957756L500.4983767444155,4.107705672743528L501.21389425292506,32.31528397727384L501.92941176143466,179.67692964854356L502.64492926994427,77.0408702421813L503.3604467784539,37.55874830121719L504.0759642869635,37.621014779859294L504.7914817954731,34.42796928742764L505.5069993039827,22.181729588454093L506.2225168124923,62.272246514724294L506.9380343210019,48.60704107488715L507.65355182951157,34.78573769860835L508.3690693380212,35.11568927202693L509.0845868465308,117.95356692850156L509.8001043550404,40.419744284432156L510.51562186355,12.608324057729668L511.2311393720596,44.00412516081424L511.9466568805692,19.076797399543103L512.6621743890788,30.00032055853704L513.3776918975883,33.76328821973321L514.0932094060979,22.482201326221777L514.8087269146075,15.547672826087437L515.5242444231172,26.002902175756372L516.2397619316268,15.261010366942058L516.9552794401365,31.176399061603647L517.6707969486461,17.705924278392867L518.3863144571557,24.033432964552198L519.1018319656653,26.45556380492717L519.8173494741749,25.784243537969218L520.5328669826845,136.4267822941505L521.2483844911941,124.7518723157603L521.9639019997037,56.474191583321456L522.6794195082133,57.06154964533497L523.3949370167229,119.97432363420923L524.1104545252325,144.33075861160194L524.8259720337421,14.042071291365916L525.5414895422517,64.49477283542974L526.2570070507612,51.28934153881069L526.9725245592708,41.684223917577015L527.6880420677804,176.85331913709675L528.4035595762901,22.883712978022228L529.1190770847998,35.23977449911024L529.8345945933094,166.51640569106635L530.550112101819,100.86935615809949L531.2656296103286,178.5991343207018L531.9811471188382,22.206680952930988L532.6966646273478,123.30470117128172L533.4121821358574,63.248291956357676L534.127699644367,122.84451887401453L534.8432171528766,160.80429896785586L535.5587346613862,67.94205232817623L536.2742521698958,156.4799064174921L536.9897696784054,60.10972883321966L537.705287186915,85.75845868248291L538.4208046954245,160.87591341347644L539.1363222039341,21.426076140099575L539.8518397124437,118.80919133503441L540.5673572209533,58.17389055624251L541.2828747294631,35.37035821025111L541.9983922379727,20.0278019306594L542.7139097464823,23.622474205514525L543.4294272549919,41.94829519001835L544.1449447635015,28.637596127041668L544.8604622720111,20.994477018804286L545.5759797805207,64.46396260146788L546.2914972890303,165.15516836345225L547.0070147975399,94.65912080382539L547.7225323060495,191.5237620276605L548.4380498145591,52.5578827244915L549.1535673230687,182.82878396250007L549.8690848315783,158.77560144722946L550.5846023400879,149.70626336887526L551.3001198485974,149.89661106664295L552.015637357107,140.8343207413605L552.7311548656166,148.60221026379207L553.4466723741263,175.57653971572088L554.162189882636,164.5525107208623L554.8777073911456,32.30644450388058L555.5932248996552,174.65602880935302L556.3087424081648,171.6994903993568L557.0242599166744,22.65428962697834L557.739777425184,172.86206983686876L558.4552949336936,187.67622452767586L559.1708124422032,192.3898001589534L559.8863299507128,24.56443458657438L560.6018474592224,188.34127017567667L561.317364967732,175.7286944283225L562.0328824762416,25.237245155486484L562.7483999847512,131.31995203544562L563.4639174932607,39.29390110989713L564.1794350017703,146.71894830468221L564.89495251028,64.53290026010211L565.6104700187896,152.85793059556931L566.3259875272992,149.37974332763864L567.0415050358089,18.898472856703762L567.7570225443185,27.599252226037574L568.4725400528281,9.726578977779745L569.1880575613377,182.34283679097146L569.9035750698473,22.19916548170304L570.6190925783569,140.3731898157303L571.3346100868665,89.7414025874858L572.0501275953761,10.23553308548461L572.7656451038857,138.9579810109625L573.4811626123953,43.88059639840908L574.196680120905,22.760996526124273L574.9121976294145,12.992476570029895L575.6277151379242,20.70672721488549L576.3432326464336,89.54798633880608L577.0587501549433,6.655175384764136L577.7742676634529,18.77690771103645L578.4897851719625,24.557149376592523L579.2053026804722,22.594364137671942L579.9208201889818,72.12990955380118L580.6363376974914,18.888533246245654L581.351855206001,18.213215388208976L582.0673727145106,21.888312799422128L582.7828902230202,26.91083506155419L583.4984077315298,25.888500713302115L584.2139252400394,146.54313584807673L584.929442748549,13.872458299005316L585.6449602570586,7.776662784059773L586.3604777655682,154.4161915980525L587.0759952740779,131.25443011850865L587.7915127825875,36.4620203820267L588.507030291097,135.96294939671017L589.2225477996066,133.8765346560893L589.9380653081162,28.322163804420995L590.6535828166258,22.842509007255675L591.3691003251354,29.26036964793972L592.0846178336451,75.47582292908284L592.8001353421547,13.332764314941585L593.5156528506643,26.9724235487493L594.2311703591739,68.22357228615793L594.9466878676835,57.28716728967193L595.6622053761931,156.82728428994096L596.3777228847027,44.095922644272996L597.0932403932123,23.788294283459653L597.808757901722,30.694769288439993L598.5242754102316,145.21773292689224L599.2397929187412,141.23603547078773L599.9553104272508,146.60725241187L600.6708279357604,143.46520498834778L601.3863454442699,140.53912102670742L602.1018629527795,69.58309224864459L602.8173804612891,139.8068902640013L603.5328979697987,136.66300874569214L604.2484154783083,54.31993132594903L604.963932986818,49.99306026911644L605.6794504953276,14.665439653816458L606.3949680038372,143.8850639841631L607.1104855123468,136.67665971970774L607.8260030208564,37.5332084913335L608.541520529366,40.65243606594202L609.2570380378756,22.662451108924625L609.9725555463853,88.15475868834368L610.6880730548949,27.953963279561293L611.4035905634045,28.287790917289797L612.1191080719141,179.3233635051048L612.8346255804237,13.053086446928928L613.5501430889332,46.325510309859894L614.2656605974428,77.48062764735003L614.9811781059524,159.4894656774835L615.696695614462,136.65025722966922L616.4122131229716,137.02335160552752L617.1277306314812,13.894704093840156L617.8432481399909,172.20426142775685L618.5587656485005,77.35806790102234L619.2742831570101,52.9960698758845L619.9898006655197,48.41498400717423L620.7053181740293,27.503879297118022L621.420835682539,48.74368833217625L622.1363531910486,181.95657355058165L622.8518706995582,59.55197213362584L623.5673882080678,55.09012960968437L624.2829057165774,32.26918055888122L624.998423225087,69.45520131485435L625.7139407335966,135.6829425269518L626.4294582421061,137.7191299342233L627.1449757506157,29.871681275696858L627.8604932591253,26.367540047446738L628.5760107676349,49.996539772391316L629.2915282761445,22.476777394646202L630.0070457846541,210.76714209727965L630.7225632931638,25.7646073705906L631.4380808016734,30.95887254160998L632.153598310183,36.53634359536216L632.8691158186926,118.14602455484061L633.5846333272023,62.428510750954864L634.3001508357119,19.28943086805638L635.0156683442215,156.994856911815L635.7311858527311,188.76186792632333L636.4467033612407,177.3679466260605L637.1622208697503,12.634983193115392L637.8777383782599,17.5572778517219L638.5932558867694,7.135308459827907L639.308773395279,46.279074291889515L640.0242909037886,22.03763721754004L640.7398084122982,14.695245692899361L641.4553259208078,13.99878217709272L642.1708434293174,26.898880665192394L642.886360937827,19.10244594390414L643.6018784463367,8.476311580437935L644.3173959548463,51.77988114297053L645.032913463356,26.067349740090993L645.7484309718656,14.370794804805127L646.4639484803752,23.607321736289787L647.1794659888848,22.390698065466424L647.8949834973944,39.23165381969226L648.610501005904,17.27232955963108L649.3260185144136,43.857826119624704L650.0415360229232,23.042580445563242L650.7570535314328,62.79358356055458L651.4725710399423,84.83615045916602L652.1880885484519,32.37833078569446L652.9036060569615,11.145448776457464L653.6191235654711,13.070970070378687L654.3346410739807,41.745281524676855L655.0501585824903,17.344068730093284L655.765676091,29.24071429212387L656.4811935995097,27.124594251715266L657.1967111080193,186.4625238954493L657.9122286165289,188.11194276681866L658.6277461250385,16.241322037774644L659.3432636335481,16.196254794989667L660.0587811420577,16.6695312018352L660.7742986505673,26.394231163561116L661.4898161590769,180.15934614763145L662.2053336675865,25.093267915195458L662.9208511760961,130.37151145930744L663.6363686846056,40.34145546074658L664.3518861931152,139.83558737131898L665.0674037016248,32.13355028876258L665.7829212101344,35.74483335406798L666.498438718644,36.398410712782166L667.2139562271536,34.397210222631585L667.9294737356632,21.729215070634975L668.644991244173,46.65133636928521L669.3605087526826,31.171640329183514L670.0760262611922,18.260534074289513L670.7915437697018,21.556519136034503L671.5070612782114,24.1898059352601L672.222578786721,22.953181516751727L672.9380962952306,69.10688001091087L673.6536138037402,17.054528005371246L674.3691313122498,52.85307764203529L675.0846488207594,31.80095071101348L675.800166329269,19.33142796089295L676.5156838377785,19.496640404994082L677.2312013462881,29.73133704617816L677.9467188547977,35.561814040265816L678.6622363633073,44.73641348883189L679.3777538718169,26.238523392008698L680.0932713803265,22.016747405599094L680.8087888888361,12.002033404367408L681.5243063973459,8.034158818694854L682.2398239058555,27.010435842798604L682.9553414143651,8.714324955191808L683.6708589228747,34.756277051394655L684.3863764313843,25.52851283955454L685.1018939398939,26.50572877585575L685.8174114484035,21.389093625512157L686.5329289569131,11.912308272123838L687.2484464654227,10.715934798668858L687.9639639739323,9.050749428085032L688.6794814824418,27.982797104493848L689.3949989909514,53.12331479895645L690.110516499461,106.84872103335927L690.8260340079706,2.9563226883248426L691.5415515164802,12.712043956821566L692.2570690249898,24.097663059932145L692.9725865334995,28.14941670065468L693.6881040420091,189.29812718013224L694.4036215505188,7.215899895974804L695.1191390590284,5.971440198952115L695.834656567538,17.534840172515306L696.5501740760475,9.670535948929047L697.2656915845572,17.503665358247048L697.9812090930667,188.8367156236083L698.6967266015764,9.112702495586499L699.4122441100859,26.289865253750882L700.1277616185956,15.22001107283876L700.8432791271051,17.24275378179431L701.5587966356148,13.568551830982784L702.2743141441243,33.19221474473801L702.989831652634,18.893330355540087L703.7053491611435,12.069487157193215L704.4208666696533,14.747182396194036L705.1363841781628,21.557440181019007L705.8519016866725,16.89740028946767L706.567419195182,20.167314661233696L707.2829367036917,15.116240004581018L707.9984542122013,18.822486645479543L708.7139717207108,7.234295211082596L709.4294892292205,25.096798587636183L710.14500673773,48.27516426160507L710.8605242462397,19.09943975541291L711.5760417547492,15.08390109179066L712.2915592632589,22.704070829163335L713.0070767717684,29.147228226193477L713.7225942802781,25.458487836146894L714.4381117887876,13.751174583749984L715.1536292972974,135.32319690722352L715.8691468058068,24.47733827022418L716.5846643143166,8.749439795227218L717.3001818228261,25.95880075097597L718.0156993313358,28.65645196464177L718.7312168398453,26.95346537281759L719.446734348355,5.426168775815357L720.1622518568646,15.587009122301978L720.8777693653741,15.219064443271293L721.5932868738838,34.98332743237423L722.3088043823933,12.71411630803679L723.024321890903,164.717873474388L723.7398393994125,22.90915044957432L724.4553569079222,20.914013505571916L725.1708744164317,84.22614684320986L725.8863919249414,3.43325769052559L726.6019094334509,15.959085711471651L727.3174269419607,81.85746219652087L728.0329444504702,32.02120198908635L728.7484619589799,32.03220975588073L729.4639794674894,45.43746943726975L730.1794969759991,17.18580250025053L730.8950144845086,169.65837795987628L731.6105319930183,25.634791196936817L732.3260495015279,25.344380596396036L733.0415670100375,17.56112833144895L733.7570845185471,13.07941298273691L734.4726020270567,1.584221507195241L735.1881195355663,9.637058522199428L735.9036370440759,22.721890491155825L736.6191545525855,67.99100203141687L737.3346720610951,13.30711577058055L738.0501895696048,7.452390988045871L738.7657070781145,21.785142968862647L739.481224586624,71.60774740517223L740.1967420951337,6.624780900274473L740.9122596036432,205.9941590644996L741.6277771121529,168.19421065716745L742.3432946206624,7.196135805681616L743.0588121291721,17.04000875457334L743.7743296376816,13.691536921001255L744.4898471461913,110.5833345805523L745.2053646547008,11.719835454938716L745.9208821632104,26.268694011397997L746.63639967172,22.770270937426897L747.3519171802296,21.876032199628316L748.0674346887392,18.78544016943486L748.7829521972488,8.990357020140632L749.4984697057585,126.3445475804424L750.2139872142681,2.7849827366182236L750.9295047227777,18.982722888205913L751.6450222312873,15.751722667036498L752.360539739797,24.17723111276289L753.0760572483065,48.188067945254915L753.7915747568162,11.08152569607238L754.5070922653257,15.988776619931485L755.2226097738354,16.380873145223322L755.9381272823449,23.0982908748362L756.6536447908546,19.050470863735082L757.3691622993641,21.41614932193289L758.0846798078737,13.855188705545283L758.8001973163833,18.05665053312932L759.5157148248929,15.876038155365983L760.2312323334025,29.223169664397624L760.9467498419122,132.09632499836113L761.6622673504218,17.574713744970847L762.3777848589314,13.05370047691861L763.093302367441,5.043333869534682L763.8088198759506,24.394367467867237L764.5243373844603,142.70324414078925L765.2398548929698,27.444465499469743L765.9553724014795,6.669067813280898L766.670889909989,17.9638552509373L767.3864074184987,-1.6967198198023095L768.1019249270082,52.999178402707294L768.8174424355179,15.488316593750689L769.5329599440274,143.3522842336291L770.2484774525371,6.818635284936368L770.9639949610466,15.44066530809237L771.6795124695562,12.614656241998366L772.3950299780658,10.677519547438818L773.1105474865755,8.807209783423936L773.8260649950851,15.99130949363894L774.5415825035947,29.202797940260485L775.2571000121043,26.881310452883227L775.9726175206139,28.533658758995095L776.6881350291236,40.94952424262066L777.4036525376331,13.781940044691773L778.1191700461428,31.922291991580348L778.8346875546523,20.24175300519223L779.550205063162,35.16851503957749L780.2657225716715,0.3384953733188454L780.9812400801812,24.209557233261787L781.6967575886907,17.787974035765266L782.4122750972004,36.44858847600221L783.1277926057099,35.42445681080116L783.8433101142195,14.793157891672138L784.5588276227292,41.039844216416725L785.2743451312388,145.61083844417237L785.9898626397484,28.032731814176294L786.705380148258,20.397742207156586L787.4208976567676,141.46783179189597L788.1364151652772,225.74078787983606L788.8519326737868,22.11120568567983L789.5674501822964,23.550511169951957L790.2829676908061,15.501300769574327L790.9984851993156,5.379208273895488L791.7140027078253,23.161414437005575L792.4295202163348,41.30776596858511L793.1450377248445,42.30029427775424L793.860555233354,50.34245612554184L794.5760727418638,48.504210240051144L795.2915902503732,28.502695017535782L796.0071077588827,41.75149857832249L796.7226252673925,13.216277708980684L797.4381427759021,52.17447216509548L798.1536602844117,32.320324140105875L798.8691777929213,-4.585833259628502L799.5846953014309,63.857793474874384L800.3002128099405,31.338790805439615L801.0157303184501,1.0223073128795508L801.7312478269597,14.70201281507741L802.4467653354694,2.5920621892322924L803.1622828439789,6.568059879976787L803.8778003524886,12.007239866988307L804.5933178609981,4.919197473285571L805.3088353695078,-0.4572491164458867" style="fill: none;" fill="none"></path></g></g></g></g></g></g><g transform="translate(51, 374)" clip-path="url(#clip_1)"><clipPath id="clip_1"><rect width="1392" height="26"></rect></clipPath><g><g><line x1="91.22236187692083" y1="0" x2="91.22236187692083" y2="5" style="visibility: inherit;" fill="rgb(0, 0, 0)" stroke="rgb(204, 204, 204)" stroke-width="1px"></line><line x1="234.32586357884207" y1="0" x2="234.32586357884207" y2="5" style="visibility: inherit;" fill="rgb(0, 0, 0)" stroke="rgb(204, 204, 204)" stroke-width="1px"></line><line x1="377.4293652807632" y1="0" x2="377.4293652807632" y2="5" style="visibility: inherit;" fill="rgb(0, 0, 0)" stroke="rgb(204, 204, 204)" stroke-width="1px"></line><line x1="520.5328669826845" y1="0" x2="520.5328669826845" y2="5" style="visibility: inherit;" fill="rgb(0, 0, 0)" stroke="rgb(204, 204, 204)" stroke-width="1px"></line><line x1="663.6363686846056" y1="0" x2="663.6363686846056" y2="5" style="visibility: inherit;" fill="rgb(0, 0, 0)" stroke="rgb(204, 204, 204)" stroke-width="1px"></line><line x1="806.7398703865271" y1="0" x2="806.7398703865271" y2="5" style="visibility: inherit;" fill="rgb(0, 0, 0)" stroke="rgb(204, 204, 204)" stroke-width="1px"></line><line x1="949.8433720884482" y1="0" x2="949.8433720884482" y2="5" style="visibility: inherit;" fill="rgb(0, 0, 0)" stroke="rgb(204, 204, 204)" stroke-width="1px"></line><line x1="1092.9468737903694" y1="0" x2="1092.9468737903694" y2="5" style="visibility: inherit;" fill="rgb(0, 0, 0)" stroke="rgb(204, 204, 204)" stroke-width="1px"></line><line x1="1236.0503754922906" y1="0" x2="1236.0503754922906" y2="5" style="visibility: inherit;" fill="rgb(0, 0, 0)" stroke="rgb(204, 204, 204)" stroke-width="1px"></line><line x1="1379.1538771942119" y1="0" x2="1379.1538771942119" y2="5" style="visibility: inherit;" fill="rgb(0, 0, 0)" stroke="rgb(204, 204, 204)" stroke-width="1px"></line></g><g transform="translate(0, 8)"><text x="91.22236187692083" y="0" dx="0em" dy="0.95em" style="text-anchor: middle; visibility: inherit; font-family: Roboto, sans-serif; font-size: 12px; font-weight: 200;" fill="rgb(33, 33, 33)" stroke="none" stroke-width="1px">0</text><text x="234.32586357884207" y="0" dx="0em" dy="0.95em" style="text-anchor: middle; visibility: inherit; font-family: Roboto, sans-serif; font-size: 12px; font-weight: 200;" fill="rgb(33, 33, 33)" stroke="none" stroke-width="1px">200</text><text x="377.4293652807632" y="0" dx="0em" dy="0.95em" style="text-anchor: middle; visibility: inherit; font-family: Roboto, sans-serif; font-size: 12px; font-weight: 200;" fill="rgb(33, 33, 33)" stroke="none" stroke-width="1px">400</text><text x="520.5328669826845" y="0" dx="0em" dy="0.95em" style="text-anchor: middle; visibility: inherit; font-family: Roboto, sans-serif; font-size: 12px; font-weight: 200;" fill="rgb(33, 33, 33)" stroke="none" stroke-width="1px">600</text><text x="663.6363686846056" y="0" dx="0em" dy="0.95em" style="text-anchor: middle; visibility: inherit; font-family: Roboto, sans-serif; font-size: 12px; font-weight: 200;" fill="rgb(33, 33, 33)" stroke="none" stroke-width="1px">800</text><text x="806.7398703865271" y="0" dx="0em" dy="0.95em" style="text-anchor: middle; visibility: inherit; font-family: Roboto, sans-serif; font-size: 12px; font-weight: 200;" fill="rgb(33, 33, 33)" stroke="none" stroke-width="1px">1k</text><text x="949.8433720884482" y="0" dx="0em" dy="0.95em" style="text-anchor: middle; visibility: inherit; font-family: Roboto, sans-serif; font-size: 12px; font-weight: 200;" fill="rgb(33, 33, 33)" stroke="none" stroke-width="1px">1.2k</text><text x="1092.9468737903694" y="0" dx="0em" dy="0.95em" style="text-anchor: middle; visibility: inherit; font-family: Roboto, sans-serif; font-size: 12px; font-weight: 200;" fill="rgb(33, 33, 33)" stroke="none" stroke-width="1px">1.4k</text><text x="1236.0503754922906" y="0" dx="0em" dy="0.95em" style="text-anchor: middle; visibility: inherit; font-family: Roboto, sans-serif; font-size: 12px; font-weight: 200;" fill="rgb(33, 33, 33)" stroke="none" stroke-width="1px">1.6k</text><text x="1379.1538771942119" y="0" dx="0em" dy="0.95em" style="text-anchor: middle; visibility: inherit; font-family: Roboto, sans-serif; font-size: 12px; font-weight: 200;" fill="rgb(33, 33, 33)" stroke="none" stroke-width="1px">1.8k</text></g><line x1="0" y1="0" x2="1392.875" y2="0" fill="rgb(0, 0, 0)" stroke="rgb(204, 204, 204)" stroke-width="1px"></line></g></g></g></g></svg>