<svg viewBox="0 0 1443 400" xmlns="http://www.w3.org/2000/svg"><g><g><g><g><g><line x1="51.125" y1="374" x2="46.125" y2="374" style="visibility: inherit;" fill="rgb(0, 0, 0)" stroke="rgb(204, 204, 204)" stroke-width="1px"></line><line x1="51.125" y1="340" x2="46.125" y2="340" style="visibility: inherit;" fill="rgb(0, 0, 0)" stroke="rgb(204, 204, 204)" stroke-width="1px"></line><line x1="51.125" y1="306" x2="46.125" y2="306" style="visibility: inherit;" fill="rgb(0, 0, 0)" stroke="rgb(204, 204, 204)" stroke-width="1px"></line><line x1="51.125" y1="272" x2="46.125" y2="272" style="visibility: inherit;" fill="rgb(0, 0, 0)" stroke="rgb(204, 204, 204)" stroke-width="1px"></line><line x1="51.125" y1="238" x2="46.125" y2="238" style="visibility: inherit;" fill="rgb(0, 0, 0)" stroke="rgb(204, 204, 204)" stroke-width="1px"></line><line x1="51.125" y1="203.99999999999997" x2="46.125" y2="203.99999999999997" style="visibility: inherit;" fill="rgb(0, 0, 0)" stroke="rgb(204, 204, 204)" stroke-width="1px"></line><line x1="51.125" y1="170.00000000000003" x2="46.125" y2="170.00000000000003" style="visibility: inherit;" fill="rgb(0, 0, 0)" stroke="rgb(204, 204, 204)" stroke-width="1px"></line><line x1="51.125" y1="136" x2="46.125" y2="136" style="visibility: inherit;" fill="rgb(0, 0, 0)" stroke="rgb(204, 204, 204)" stroke-width="1px"></line><line x1="51.125" y1="101.99999999999999" x2="46.125" y2="101.99999999999999" style="visibility: inherit;" fill="rgb(0, 0, 0)" stroke="rgb(204, 204, 204)" stroke-width="1px"></line><line x1="51.125" y1="67.99999999999999" x2="46.125" y2="67.99999999999999" style="visibility: inherit;" fill="rgb(0, 0, 0)" stroke="rgb(204, 204, 204)" stroke-width="1px"></line><line x1="51.125" y1="34.000000000000014" x2="46.125" y2="34.000000000000014" style="visibility: inherit;" fill="rgb(0, 0, 0)" stroke="rgb(204, 204, 204)" stroke-width="1px"></line><line x1="51.125" y1="0" x2="46.125" y2="0" style="visibility: inherit;" fill="rgb(0, 0, 0)" stroke="rgb(204, 204, 204)" stroke-width="1px"></line></g><g transform="translate(41.125, 0)"><text x="0" y="374" dx="0em" dy="0.3em" style="text-anchor: end; visibility: hidden; font-family: Roboto, sans-serif; font-size: 12px; font-weight: 200;" fill="rgb(33, 33, 33)" stroke="none" stroke-width="1px">-0.5</text><text x="0" y="340" dx="0em" dy="0.3em" style="text-anchor: end; visibility: inherit; font-family: Roboto, sans-serif; font-size: 12px; font-weight: 200;" fill="rgb(33, 33, 33)" stroke="none" stroke-width="1px">0</text><text x="0" y="306" dx="0em" dy="0.3em" style="text-anchor: end; visibility: inherit; font-family: Roboto, sans-serif; font-size: 12px; font-weight: 200;" fill="rgb(33, 33, 33)" stroke="none" stroke-width="1px">0.5</text><text x="0" y="272" dx="0em" dy="0.3em" style="text-anchor: end; visibility: inherit; font-family: Roboto, sans-serif; font-size: 12px; font-weight: 200;" fill="rgb(33, 33, 33)" stroke="none" stroke-width="1px">1</text><text x="0" y="238" dx="0em" dy="0.3em" style="text-anchor: end; visibility: inherit; font-family: Roboto, sans-serif; font-size: 12px; font-weight: 200;" fill="rgb(33, 33, 33)" stroke="none" stroke-width="1px">1.5</text><text x="0" y="203.99999999999997" dx="0em" dy="0.3em" style="text-anchor: end; visibility: inherit; font-family: Roboto, sans-serif; font-size: 12px; font-weight: 200;" fill="rgb(33, 33, 33)" stroke="none" stroke-width="1px">2</text><text x="0" y="170.00000000000003" dx="0em" dy="0.3em" style="text-anchor: end; visibility: inherit; font-family: Roboto, sans-serif; font-size: 12px; font-weight: 200;" fill="rgb(33, 33, 33)" stroke="none" stroke-width="1px">2.5</text><text x="0" y="136" dx="0em" dy="0.3em" style="text-anchor: end; visibility: inherit; font-family: Roboto, sans-serif; font-size: 12px; font-weight: 200;" fill="rgb(33, 33, 33)" stroke="none" stroke-width="1px">3</text><text x="0" y="101.99999999999999" dx="0em" dy="0.3em" style="text-anchor: end; visibility: inherit; font-family: Roboto, sans-serif; font-size: 12px; font-weight: 200;" fill="rgb(33, 33, 33)" stroke="none" stroke-width="1px">3.5</text><text x="0" y="67.99999999999999" dx="0em" dy="0.3em" style="text-anchor: end; visibility: inherit; font-family: Roboto, sans-serif; font-size: 12px; font-weight: 200;" fill="rgb(33, 33, 33)" stroke="none" stroke-width="1px">4</text><text x="0" y="34.000000000000014" dx="0em" dy="0.3em" style="text-anchor: end; visibility: inherit; font-family: Roboto, sans-serif; font-size: 12px; font-weight: 200;" fill="rgb(33, 33, 33)" stroke="none" stroke-width="1px">4.5</text><text x="0" y="0" dx="0em" dy="0.3em" style="text-anchor: end; visibility: hidden; font-family: Roboto, sans-serif; font-size: 12px; font-weight: 200;" fill="rgb(33, 33, 33)" stroke="none" stroke-width="1px">5</text></g><line x1="51.125" y1="0" x2="51.125" y2="374" fill="rgb(0, 0, 0)" stroke="rgb(204, 204, 204)" stroke-width="1px"></line></g></g><g transform="translate(51, 0)" clip-path="url(#clip_0)"><clipPath id="clip_0"><rect width="1391" height="374"></rect></clipPath><g><g><g><line x1="0" y1="0" x2="0" y2="374" fill="rgb(0, 0, 0)" stroke="rgb(66, 66, 66)" stroke-width="1px" opacity="0.25"></line><line x1="99.41964285714285" y1="0" x2="99.41964285714285" y2="374" fill="rgb(0, 0, 0)" stroke="rgb(66, 66, 66)" stroke-width="1px" opacity="0.25"></line><line x1="198.8392857142857" y1="0" x2="198.8392857142857" y2="374" fill="rgb(0, 0, 0)" stroke="rgb(66, 66, 66)" stroke-width="1px" opacity="0.25"></line><line x1="298.25892857142856" y1="0" x2="298.25892857142856" y2="374" fill="rgb(0, 0, 0)" stroke="rgb(66, 66, 66)" stroke-width="1px" opacity="0.25"></line><line x1="397.6785714285714" y1="0" x2="397.6785714285714" y2="374" fill="rgb(0, 0, 0)" stroke="rgb(66, 66, 66)" stroke-width="1px" opacity="0.25"></line><line x1="497.0982142857143" y1="0" x2="497.0982142857143" y2="374" fill="rgb(0, 0, 0)" stroke="rgb(66, 66, 66)" stroke-width="1px" opacity="0.25"></line><line x1="596.5178571428571" y1="0" x2="596.5178571428571" y2="374" fill="rgb(0, 0, 0)" stroke="rgb(66, 66, 66)" stroke-width="1px" opacity="0.25"></line><line x1="695.9375" y1="0" x2="695.9375" y2="374" fill="rgb(0, 0, 0)" stroke="rgb(66, 66, 66)" stroke-width="1px" opacity="0.25"></line><line x1="795.3571428571428" y1="0" x2="795.3571428571428" y2="374" fill="rgb(0, 0, 0)" stroke="rgb(66, 66, 66)" stroke-width="1px" opacity="0.25"></line><line x1="894.7767857142858" y1="0" x2="894.7767857142858" y2="374" fill="rgb(0, 0, 0)" stroke="rgb(66, 66, 66)" stroke-width="1px" opacity="0.25"></line><line x1="994.1964285714286" y1="0" x2="994.1964285714286" y2="374" fill="rgb(0, 0, 0)" stroke="rgb(66, 66, 66)" stroke-width="1px" opacity="0.25"></line><line x1="1093.6160714285713" y1="0" x2="1093.6160714285713" y2="374" fill="rgb(0, 0, 0)" stroke="rgb(66, 66, 66)" stroke-width="1px" opacity="0.25"></line><line x1="1193.0357142857142" y1="0" x2="1193.0357142857142" y2="374" fill="rgb(0, 0, 0)" stroke="rgb(66, 66, 66)" stroke-width="1px" opacity="0.25"></line><line x1="1292.455357142857" y1="0" x2="1292.455357142857" y2="374" fill="rgb(0, 0, 0)" stroke="rgb(66, 66, 66)" stroke-width="1px" opacity="0.25"></line><line x1="1391.875" y1="0" x2="1391.875" y2="374" fill="rgb(0, 0, 0)" stroke="rgb(66, 66, 66)" stroke-width="1px" opacity="0.25"></line></g><g><line x1="0" y1="374" x2="1391.875" y2="374" fill="rgb(0, 0, 0)" stroke="rgb(66, 66, 66)" stroke-width="1px" opacity="0.25"></line><line x1="0" y1="340" x2="1391.875" y2="340" fill="rgb(0, 0, 0)" stroke="rgb(66, 66, 66)" stroke-width="1px" opacity="0.25"></line><line x1="0" y1="306" x2="1391.875" y2="306" fill="rgb(0, 0, 0)" stroke="rgb(66, 66, 66)" stroke-width="1px" opacity="0.25"></line><line x1="0" y1="272" x2="1391.875" y2="272" fill="rgb(0, 0, 0)" stroke="rgb(66, 66, 66)" stroke-width="1px" opacity="0.25"></line><line x1="0" y1="238" x2="1391.875" y2="238" fill="rgb(0, 0, 0)" stroke="rgb(66, 66, 66)" stroke-width="1px" opacity="0.25"></line><line x1="0" y1="203.99999999999997" x2="1391.875" y2="203.99999999999997" fill="rgb(0, 0, 0)" stroke="rgb(66, 66, 66)" stroke-width="1px" opacity="0.25"></line><line x1="0" y1="170.00000000000003" x2="1391.875" y2="170.00000000000003" fill="rgb(0, 0, 0)" stroke="rgb(66, 66, 66)" stroke-width="1px" opacity="0.25"></line><line x1="0" y1="136" x2="1391.875" y2="136" fill="rgb(0, 0, 0)" stroke="rgb(66, 66, 66)" stroke-width="1px" opacity="0.25"></line><line x1="0" y1="101.99999999999999" x2="1391.875" y2="101.99999999999999" fill="rgb(0, 0, 0)" stroke="rgb(66, 66, 66)" stroke-width="1px" opacity="0.25"></line><line x1="0" y1="67.99999999999999" x2="1391.875" y2="67.99999999999999" fill="rgb(0, 0, 0)" stroke="rgb(66, 66, 66)" stroke-width="1px" opacity="0.25"></line><line x1="0" y1="34.000000000000014" x2="1391.875" y2="34.000000000000014" fill="rgb(0, 0, 0)" stroke="rgb(66, 66, 66)" stroke-width="1px" opacity="0.25"></line><line x1="0" y1="0" x2="1391.875" y2="0" fill="rgb(0, 0, 0)" stroke="rgb(66, 66, 66)" stroke-width="1px" opacity="0.25"></line></g></g></g><g><g><line x1="0" y1="340" x2="1391.875" y2="340" fill="rgb(0, 0, 0)" stroke="rgb(153, 153, 153)" stroke-width="1.5px"></line></g></g><g><g><line x1="99.41964285714285" y1="0" x2="99.41964285714285" y2="374" fill="rgb(0, 0, 0)" stroke="rgb(153, 153, 153)" stroke-width="1.5px"></line></g></g><g><g><g><g><g><path stroke="rgb(255, 112, 67)" stroke-width="2px" d="M101.67050357142857,310.0283432006836L103.277125,219.87604035271542L104.77438482142857,251.28824886728503L107.61380982142856,265.34069149797847L109.94818303571428,267.49375696581694L110.2643375,225.55358051705707L111.01595,188.5336043854342L111.34403482142856,208.74028180813315L111.45538482142858,205.46555540105098L111.90476160714286,226.11042029607648L112.01412321428572,242.51674120162795L112.80152678571427,234.31724702357488L113.32049732142858,255.09823327170776L114.26100714285714,209.44070051816695L115.90540803571429,228.18102317925016L116.42835535714286,233.12656574417653L116.70673035714285,250.32919516016872L117.81625357142856,253.2827469164781L118.73091428571428,249.0147768636965L119.20216339285714,250.29660210418376L119.26181517857142,255.09754519547437L119.68335446428571,263.65894783517126L120.18840625,273.9517361229483L120.58608482142857,269.46578883211475L121.33769732142858,271.3337838966047L122.92045803571428,273.14044185078905L123.33404374999999,283.4949200958549L123.98424821428571,290.78426218963017L124.22683214285713,297.96998764415775L125.07985267857143,304.67678250421426L125.87322142857143,306.3804137370404L126.30669107142857,295.6471911042016L128.53965625,303.2562175277661L131.71313125,301.8959119585206L132.95587678571428,301.4500464649652L132.98967946428573,299.05745394763284L136.16713125,296.4033935170194L137.61468125,303.8422829795517L137.8334044642857,300.77292396191825L138.1952919642857,307.68783638945547L138.4259455357143,303.81957684381035L140.85973839285714,307.41142877651134L143.48640535714287,310.6415281703021L144.5601375,313.39767455559246L148.64827321428572,317.6854667390079L149.00618392857143,316.97202025363674L150.01231071428572,315.84803424685873L153.718675,316.1614329483707L154.8838732142857,303.69117297011167L157.6994375,296.77628395458305L158.05734821428572,301.7984472585951L158.20647767857145,302.7076978588042L158.34765357142857,307.54260544954906L158.42917767857142,309.64631544322765L159.1807901785714,310.0546362086844L159.66794642857144,304.71416260913935L161.8750625,307.2651232471013L166.63328660714285,302.2145170382446L166.75457857142857,297.46585197048404L168.91596160714286,295.8131429203423L169.96185624999998,300.3535868479178L170.10899732142857,287.3179301640687L170.41322142857143,295.0529854806034L172.38173035714286,299.79924356140435L172.77344375,294.1395345813082L172.982225,300.07013626219265L173.11942410714283,275.00320063922055L174.33035535714285,285.5178747182156L174.47948482142857,293.05509309868444L175.74807946428572,296.6783524189065L176.64683303571428,302.61171109372765L177.01667410714285,307.8832404394888L178.3827,311.15005741859454L179.61550357142858,312.9566483630056L180.0290892857143,311.28844458273966L180.1821955357143,312.5975820423571L180.82842321428572,316.8771318125466L181.88425982142857,320.1845154425817L182.95600357142857,318.6599163880054L183.19262232142856,315.12984192254504L183.99593303571427,317.1753555100794L185.37985446428573,311.83231539737375L187.41596875,305.62387504692265L187.47164375,309.5114431981683L187.60287767857145,313.8498520271376L187.8295544642857,317.16617725369696L188.36045535714288,315.15506591907905L192.65538392857144,318.0681940364706L192.99937589285716,320.86996436567864L193.03914375000002,321.67560638701184L193.22804107142855,324.4337934731802L193.47857857142859,325.9575415653101L194.1168526785714,321.9316911977853L195.23830625000002,323.35586829155693L195.3536330357143,324.2615991094975L197.17897767857144,317.9354395723089L197.47524821428573,319.7355451834008L198.3461642857143,319.4691785296391L200.22519553571428,322.9077290351476L202.75840803571427,324.94929397587134L202.84192053571428,323.01890502329326L203.33901875,325.3909677107697L203.60944017857145,327.51551630138187L204.9675125,329.0289667352415L206.87438125000003,330.46329710428574L208.3159660714286,331.3420610471611L209.07553214285716,329.2866723333152L209.51099017857143,330.9736664698583L209.7734580357143,331.89656043302057L209.94644821428574,322.08100342928583L210.03194910714288,325.32750834523733L210.20891607142858,327.30390440227643L210.73385178571428,329.07761492673205L211.72605982142858,329.40096477940887L212.622825,330.48583189667215L214.63507857142855,331.79115082241606L216.46638839285714,332.74315856630056L219.2799642857143,333.0997622270156L219.58021160714287,333.8422097709812L220.62809464285715,334.57199212587346L222.18699464285714,332.2579736803049L225.9251732142857,333.3871786490357L226.8577294642857,333.30433553817073L228.52201428571428,333.83484375168695L229.49433839285714,332.6795900677816L230.1007982142857,333.6860117427654L230.3712196428571,334.7588166758143L230.52034910714283,333.5183749449028L231.23418214285715,332.52791193340374L231.97386428571428,333.5522019522523L232.00567857142858,328.42546882288633L234.30028392857142,330.1823403968971L234.42754107142858,331.66833030756817L235.00417499999998,332.51978647074316L235.79754375000002,326.3259051749003L235.86117232142857,328.23159049224006L236.27276964285716,329.88421102580355L236.74998392857145,329.32361264798584L237.53341071428574,330.75530745902495L239.32296428571428,331.012006867479L239.77631785714286,329.09705432935607L241.1045642857143,326.2013343309088L245.4730633928571,287.206412771123L248.0639392857143,293.258825762095L248.76783035714286,300.89503521762055L249.53733839285712,304.91004660957464L249.67254910714283,311.7294078607036L252.5497535714286,316.12658525019276L254.41486607142855,320.07849454986564L254.69125267857143,323.9566188366315L254.96962767857144,326.58872079738785L256.6219821428571,328.241893666099L256.9600089285714,329.67605477143167L259.43158125,321.5334363426275L261.91309553571426,277.7310146685844L263.4262625,289.70094463498634L266.2537571428572,296.40590944505726L267.00338125,300.5358834236224L269.63601339285714,299.2144147848574L270.86285178571427,303.6305581883977L271.22076250000003,302.11941036831456L271.2585419642857,308.39827121695777L271.72979107142856,314.34539231132186L272.1990517857143,312.9046903091329L274.2172705357143,317.3974827398981L275.5057491071429,321.44269041877L276.05255714285715,320.7886879814546L277.8838669642857,320.0935094891294L278.4624892857143,323.2277000467622L278.71700357142856,322.3986769374723L280.00945892857146,305.04010644408186L281.19851785714286,310.5298291790654L282.85484910714285,309.29341199780856L282.8806982142857,309.3375192148316L283.84506875,312.7555745850268L286.35442053571427,316.37850909314653L299.84168928571427,316.3968949705927L300.87366517857146,319.7649408591245L302.5558455357143,296.12148676017557L302.5657875,295.0870326813033L302.7268473214286,297.56702149359154L303.83835892857144,301.7734782254518L306.04746339285714,307.0990498189784L306.8885535714286,313.1596715430146L307.03370625,315.0044134839158L307.13113749999997,314.1857701765522L308.35399910714284,316.2663990678012L311.9808276785714,317.01192058099264L312.11206160714283,302.19038239298624L312.40833214285715,308.149528409468L313.4204241071428,309.7573700868503L313.90360357142856,310.9572917956841L317.97185535714283,306.2528056254969L318.19455535714286,312.28664374458674L320.6581741071429,317.4437529781094L320.7536169642857,313.583062198848L327.6255026785714,315.65812383658925L328.8046196428571,315.38723410421403L328.9338651785714,315.20468197865324L330.38936875,307.76107167087423L330.5782660714286,308.53317586487475L331.2543196428571,311.57982689862206L333.5807392857143,312.3113414345165L335.19332589285716,315.57281086428804L336.08810267857143,312.3928878115323L336.4420366071428,316.56453512562973L337.0484964285714,318.79273383580573L340.0032482142857,316.10582164734944L342.92419732142855,319.02509141612325L344.55269107142857,321.8244297079108L344.89469464285713,324.74785067016774L348.135775,326.1200507332873L348.89136428571425,320.26821098724935L353.16044375,318.0341633399322L356.48901339285715,321.4419300548231L356.52878125,324.0946676307516L356.5784910714286,323.1654944557823L359.9030839285714,312.92004491002376L360.31468125,316.8818733124814L361.89545357142856,314.4630485557621L363.1859205357143,306.14748705093905L364.2318151785714,311.2567968063739L367.7532589285715,312.39113285487394L367.8626205357143,304.8420746036013L368.0554946428572,311.5268974593393L368.18871696428573,310.72383177209787L368.6142330357143,313.99051217976324L373.76417053571424,318.5991183449277L374.23343125,322.13408043717936L377.4566160714286,323.2524586656538L378.2678803571428,325.8922105164406L378.4746732142857,324.8041863704584L380.40739107142855,327.51100735236105L382.68012410714283,310.4830986370158L387.2534276785714,312.4928373662243L389.2756232142857,317.36890107135844L389.48639285714285,321.59833557846844L391.38331964285715,324.77367601647137L391.46882053571426,326.49204481922914L397.52745357142857,295.9707770449585L399.4939741071429,304.18476777594617L402.0371285714285,310.04070645031396L402.27175892857144,315.6266193644767L404.1627205357143,319.9694296712927L406.6760491071429,323.2145927693647L407.5231044642857,325.1545356985888L410.8655928571428,322.1112892053096L413.10253482142855,320.0635011213278L416.1865321428572,323.4933320506219L417.22248482142857,326.09349149456057L417.7116294642857,326.9548524855807L418.55073124999996,328.7225621920216L418.99811964285715,326.5658752665033L420.4138553571429,327.70489339590944L420.9626517857143,329.23339896250474L421.32652767857144,322.8780446914729L421.3802142857143,325.7802911792514L423.4759803571429,327.6799742892835L423.51773660714287,328.86945668581757L426.4347089285714,329.7173725126078L427.48060357142856,328.0130843685381L428.63585982142854,329.6834811313003L431.3798419642857,311.0506561551928L432.2408160714285,310.85475982462884L434.5692241071428,314.8499372938118L434.71437678571425,317.54089931558303L437.9793178571428,320.50741695293374L438.1920758928572,321.2850240264621L438.43267142857144,300.5357551411221L444.9903910714285,298.69350379589633L446.0203785714286,303.1160645952498L446.24307857142855,306.88488184377945L447.2531821428571,310.4348830975326L447.4400910714286,312.3407549935366L449.28333125,310.8360665860005L449.6074392857143,305.2958045341356L453.2998848214286,303.10210807623724L453.84868125,308.4367046952427L454.50683928571425,307.8204487323905L454.52672321428577,309.6189297485467L455.5427919642857,313.11995976353614L455.8470160714286,312.85104057141086L456.3461026785714,314.4282129045164L456.6702107142857,314.44405579057025L457.3959741071429,315.1969198424552L459.90930267857146,305.72821973474305L460.2692017857143,311.02968058754186L460.7285205357143,307.0785908044909L460.81402142857144,311.28092860710893L461.4443419642857,314.87540919409014L468.26651785714284,312.71350770652947L468.87098928571424,300.9927787261061L468.95649017857147,303.26955817356526L469.3919482142857,303.59222663414334L470.58896071428575,302.27792106447106L470.88920803571426,296.3038109650412L471.35051517857147,283.3676061717827L474.9892741071428,270.78793869719186L475.1423803571428,261.7828283175252L476.3493348214286,265.13797172422585L477.3832991071428,265.68895184608596L479.09132857142856,263.5072581260387L480.0895017857143,274.8263653587487L480.94252232142856,281.0740732011149L482.1812910714286,279.7296023890932L483.4578392857143,278.5937169969527L484.05435714285716,272.7993674421666L485.61126874999997,247.6821121330546L487.0110973214286,238.3420186325301L487.5419982142857,248.35509774560845L490.0294776785714,250.725664118728L491.64206428571424,234.96774328533877L493.79350535714286,224.67671824124713L494.3184410714286,234.74390025637356L495.61089642857144,244.55981012743158L496.2372401785715,254.59660327086004L496.42216071428567,262.0493126364482L496.44403303571426,271.94521793142417L496.5931625,264.8865351392067L497.34875178571434,258.8204270134955L497.6251383928571,244.10131460273976L498.14808571428574,254.56469879026986L499.54990267857147,229.85759456535794L500.9358125,243.25622679059202L502.4430142857143,253.62070056012865L506.54109196428567,264.2786827501583L509.4421571428572,271.70327962374114L510.41448125,265.7246305540039L511.26551339285714,275.94460412620174L511.75068125,253.02510335253612L514.0393214285714,264.4124789890205L515.5425464285714,274.9961556479577L518.0101419642857,283.5710225331977L518.2427839285715,293.85193023110986L518.6961375,289.78551085015584L519.2787366071428,296.6828900434212L521.4600035714286,298.14988731206546L521.9789741071429,299.46221922922996L522.1300919642857,276.90687102547383L523.8679473214286,279.319441465307L523.9693553571428,289.45676801027355L524.0309955357143,288.0381121907353L524.3650455357143,297.2734721043682L525.4566732142857,298.96738174271394L525.5700116071429,304.49443185100404L526.1923785714285,310.08619878108857L527.0414223214285,313.8890561256056L527.1110160714286,309.23138349797284L527.20049375,300.2577160322345L529.1868982142857,302.5306101102572L531.1335348214285,307.5597311940941L531.3781071428572,307.8141985724094L531.4655964285714,309.45351702290554L531.9845669642857,314.15063631787126L532.2748723214286,315.24880237781383L534.68878125,318.35225263757206L535.6312794642857,319.93576343474945L535.6571285714285,322.640755380139L536.0607723214285,312.6803862769964L536.8342571428572,316.55248131311436L536.8441991071429,320.0414228535215L537.9775830357144,321.09388554863295L540.4929,321.215184146342L541.4214794642858,322.839159233711L541.9782294642857,324.6340398298437L542.6383758928572,322.21499157800156L544.3623125,325.2638152696997L545.3664508928572,327.0110821790147L546.2850883928571,328.0943298392811L548.4524366071428,327.5766515058929L548.6830901785714,327.947053044848L550.8504383928572,328.902473938316L551.6040392857143,328.0572399233579L551.7094241071428,317.2861143378257L552.5922705357143,319.97742328865047L553.4572214285714,319.8170386618194L555.2984732142857,322.0316793613289L556.8255589285714,324.8896578216675L557.6447767857143,297.8579922409155L559.4422839285714,305.2431222809393L559.7206589285714,309.60626762016926L561.2835357142857,312.58422726714065L562.41493125,316.15151995677513L563.0293446428572,319.92543319073326L564.7831071428571,319.6374132649661L565.5367080357142,322.06875297558787L566.5488,325.12130865559965L566.6760571428572,327.67605185890983L568.2687598214286,329.48184441931875L568.3343767857143,329.567519540849L568.4934482142856,330.04025529842585L570.3545839285714,323.32060240921186L572.15805625,326.0096079317078L572.3071857142857,327.139750443486L572.8798428571429,328.93477016992375L573.2596258928571,327.8497552419266L573.2974053571429,329.2153393443076L573.3371732142857,330.7425822349905L573.5300473214286,331.8727147247409L574.0172035714286,332.6859325322322L576.7591973214286,333.0481189730018L577.1946553571428,332.2757177068591L578.2564571428571,324.7334527741909L578.9126267857143,326.89226539103504L579.4296089285715,328.2105022106037L580.4078982142858,328.8777634528053L580.4953875,330.4630026778994L581.35835,323.00255627325515L582.5991071428572,324.9686214875487L582.7601669642858,286.7376665076659L583.0763214285714,296.6261591713465L583.9114464285715,304.81684065964515L585.7586633928572,310.55106181189774L586.3512044642857,301.79748826253694L587.0053857142857,308.33990688743813L587.0153276785715,313.31289965607823L587.59395,318.2059054012943L588.3296553571429,321.47307400789646L589.1150705357143,324.57751370081735L590.3876419642858,327.1411172796045L591.8431455357144,329.0893045732382L594.1834839285715,330.6532472307685L595.0822375,331.24231404147173L595.3884499999999,331.8293302542497L595.8418035714286,332.9704531221811L596.9294544642856,333.08390775435953L596.9632571428572,330.4890023240549L598.1960607142857,331.69413544488776L599.9557883928571,314.26718522511186L600.0393008928571,318.7848917029481L602.0058214285715,321.974609071587L604.4038232142857,324.4651997642314L605.9189785714285,324.31170960319804L606.0700964285714,326.8952863796772L606.8614767857143,329.14728997820384L609.0884767857143,330.63624826807796L610.2139071428571,331.9888588129601L611.1822544642857,332.67903881185225L612.1724741071429,333.59792965680737L613.1428098214286,333.561377358678L616.0657473214286,333.98683756370787L616.7099866071428,315.9135158044453L617.9447785714286,301.97486181118927L618.3384803571429,309.12585758812304L621.0188339285714,314.88481852578775L621.2176732142857,319.1061101032707L621.2753366071429,322.162648397558L621.5596767857143,325.16107351412217L622.2317535714285,327.6759202784684L623.5083017857144,329.5503770505498L624.6496392857143,330.906317319084L626.66388125,332.202575000611L628.6403437499999,324.9100801249242L629.1374419642857,327.4616914639788L629.8691705357143,328.92529424030914L630.2390116071429,329.1682646314251L630.7878080357143,330.6358737351455L630.8554133928571,331.6507498146659L632.7463750000001,332.7807670242839L632.9332839285714,333.6848433112902L637.7968928571429,333.81602370904307L637.88239375,300.2498707784527L638.8229035714286,307.63409284757086L642.3423589285713,312.7509795149685L642.5093839285714,317.5009237395144L642.67044375,316.0712704552346L643.3842767857143,319.3163191173977L646.4404366071428,322.98683566308074L647.1025714285714,325.5659785426144L647.4008303571429,284.3263031130222L649.5204571428571,293.8730234948943L649.6397607142857,302.13568897828657L649.9201241071429,309.1706299059407L650.35359375,313.5868467706693L652.5030464285715,318.07962697293385L655.1177830357143,321.9317772411984L655.2629357142857,324.9800528664336L656.7244044642857,327.20732536347276L657.0723732142857,325.353598256362L657.4163651785714,133.4497426187615L659.7189241071428,174.25885815903507L660.5103044642857,206.6336287586686L661.6675491071428,232.4717835151193L661.82264375,253.33117258851033L662.3316723214285,269.99763996842944L663.1389598214286,282.6129255886351L664.8251169642857,293.2628579106311L665.9783848214286,301.9129097494586L667.4378651785714,308.6038836028659L670.9990767857142,313.91118247004215L673.9637705357143,318.27686155988266L676.3717142857142,322.0039845349669L677.3997133928572,325.13288007515905L679.4258857142858,324.19468937983703L679.5630848214286,326.0914039029327L684.1304232142858,327.9572790395138L686.3017482142858,328.4329545005892L693.8397455357143,330.13102553127084L695.9653375,331.4311091281007L696.0329428571429,332.38363138850764L696.31330625,333.00288396689285L697.0032785714285,333.46648224284644L697.8006241071429,270.90153395406725L698.8703794642857,271.40341643708797L699.9421232142857,283.94955775513534L700.5426178571429,294.36437061428455L701.0973794642858,232.77954046725773L702.3023455357143,253.59972135662665L706.472005357143,268.9537875051469L706.89155625,275.8936897273994L707.933474107143,288.0459999069481L708.0507892857142,296.03902907966847L709.8224473214286,300.3686182880344L709.9695883928572,307.5682142771436L710.4706633928572,312.44541532573334L711.5404187500001,317.31821066460793L711.8128285714286,321.06578446286346L712.3775321428571,324.34927729453585L714.6264044642858,312.5837168986475L714.6721375000001,317.30624324340624L715.2030383928571,320.99982991126376L716.0003839285714,323.8710912172572L717.0741160714285,320.60759131944786L717.8853803571429,323.59152019291406L720.44841875,325.9833929738942L722.5183357142856,327.3149767439797L724.0096303571429,251.31084522575017L725.196700892857,268.26620717024707L727.2904785714285,281.8225967977516L728.4914678571429,291.7351291016L728.5391892857143,300.64577957274577L731.5933607142857,307.6136371734306L731.6728964285714,303.79414321919796L733.5360205357143,308.772402039691L734.0271535714286,314.1816975138776L734.3850642857143,234.889351007318L735.3931794642858,253.04912216422989L735.8385794642858,269.2561102287614L738.0854633928572,282.79531754566375L739.6264678571429,293.13651390682173L740.2190089285714,301.4150708819271L740.8135383928571,308.3881164117528L742.1497383928572,313.77373760333643L743.0465035714285,318.31704214625347L743.4501473214285,321.77322369545925L745.8521258928572,244.43136467719262L746.6057267857143,261.83542891092446L747.0590803571429,270.78671397167324L747.3374553571429,283.61359428086183L748.3117678571429,293.48099482232965L749.8249348214285,300.4966261281541L750.3359517857143,230.88226451031144L752.1911223214287,250.43577470820563L753.1515160714285,267.4991642520143L753.1892955357143,281.2086836594592L753.294680357143,291.3402720489701L753.5452178571429,299.6259595114867L754.6010544642857,306.1443289724096L756.2593741071429,311.9518429920756L757.3152107142856,316.5258816111631L758.1543125,318.8795151296097L763.4752517857142,321.83026536964076L763.5866017857144,237.98230464190405L763.7039169642857,253.84445305609833L766.0144294642856,270.11785332317453L768.1658705357144,195.85854085250938L770.4863250000001,224.02112076651446L770.9516089285713,246.44442876753325L771.5660223214286,262.6892670120964L771.7191285714287,276.86821922271804L774.3875517857143,288.4757951228567L774.4312964285715,297.64233573903624L775.3877133928572,304.59876393381745L777.55705,309.241105740102L779.7124678571429,211.89144187357581L780.1379839285714,236.17011262724043L780.2612642857143,256.2923064549704L782.3073205357143,271.75124465981634L782.400775,284.0829250896733L782.8799776785714,190.8717786856303L785.6776464285714,218.422857907439L785.7611589285715,241.3053320443827L786.9681133928572,260.18450968433996L787.9742401785714,272.44153143540683L791.3624616071429,284.8079261726194L791.7323026785714,294.5243580298466L797.5244910714287,302.6825467850242L799.9801562499999,308.4002682253102L800.2644964285715,313.2572125243647L803.2470857142857,317.99605402727946L803.9827910714286,320.52182522122087L806.4702705357143,322.44548434975957L807.6116080357142,323.0877199607151L809.6735714285714,325.11859791772025L811.3935312499999,326.67216212190357L812.0139098214285,328.0262811413381L812.2445633928571,325.23603310036447L812.2883080357143,321.4916795639021L813.3799357142857,323.32302118522506L814.6206928571429,324.6846877430485L819.1840544642856,318.2954049662436L820.1325178571428,319.7848753059455L821.1585285714286,320.3361251373727L821.7789071428572,275.1209341064802L825.3341535714286,285.39935451155594L827.5730839285715,295.24965365056744L829.5555116071428,301.03453289130965L832.1304803571428,306.6224200142196L832.6931955357143,308.33544566732814L833.0252571428572,313.3592812796606L833.7927767857142,316.48101535480606L835.1886285714286,318.01118305954446L837.05970625,316.4166440775642L837.336092857143,319.9193221537788L839.2429616071429,322.2024712370649L839.7778392857143,324.90939373626827L839.8374910714286,324.6157061287127L841.1319348214286,326.2188996059387L841.8557098214285,319.0136860833716L842.0287000000001,320.6063353599033L844.5022607142857,323.0316283429401L845.35528125,325.0138894875636L848.1410196428571,320.84735903420363L848.3418473214285,323.3832065127557L849.2306589285714,322.06950115857643L852.4439017857144,322.2823697304576L852.81573125,324.21243173288104L853.34464375,326.42276281441684L855.0626151785715,102.03565745612337L858.3335214285714,148.59155532566987L861.3996232142857,181.28373851655547L865.3247107142857,211.01275801085333L866.4859321428572,234.61661350268437L866.8100401785714,253.6406496607329L868.3589982142857,269.79795826618397L877.5314544642857,152.73851233438276L879.8777580357144,182.4966195560743L879.8976419642856,211.5033948212663L882.1365723214286,233.92515866278012L884.0851973214286,113.68555387114206L884.0951392857143,151.36811696890766L884.2383035714284,151.286756606132L884.3774910714286,187.0365165958645L885.0217303571428,207.05688675958643L888.8573401785715,232.5439564205705L889.9608982142857,125.99640552341928L890.4858339285714,164.8486425967216L891.3229473214285,197.2477214528083L892.1620491071428,223.7223645602035L892.3986678571429,235.08534613882443L895.7292258928571,251.24725125340575L895.8465410714285,261.97574294493955L896.9898669642857,274.9633934925902L897.3815803571429,281.5566776141253L897.5645125,289.99204198477486L897.9661678571429,298.3626717285936L901.1456080357143,297.0090869869093L902.1298625000001,302.4125064059337L911.0000830357143,307.2063844358317L911.88690625,304.6522253636831L912.0658616071428,130.62519215618084L912.0857455357143,167.84086643913994L912.6723214285714,197.6724281490613L912.8075321428572,222.8565944457665L913.50148125,226.1179714222443L914.1874767857142,246.15896248973937L916.4602098214285,179.23050098544385L918.7389080357143,203.24432396035215L920.5026125,218.1318150452043L921.2422946428571,221.28741652896133L924.6146089285714,242.92484516803523L926.5612455357143,258.59394310239236L928.2672866071429,265.45501206972824L928.5874178571429,258.6670790565699L930.3312383928571,272.82812043052434L930.8979303571429,274.90652500805476L933.1806053571428,281.85088419292146L937.01025,289.263456125051L938.9290491071429,296.903981450391L939.0324455357144,288.74984674707423L939.6090794642857,295.6012625499994L940.3189357142858,301.0694602810883L940.7285446428572,287.14873505302614L942.0309419642857,116.24534988934484L942.2357464285715,157.47939250894134L945.4967107142857,191.65881942135292L945.9898321428572,216.98910616574443L946.6221410714286,238.94411593864564L947.8032464285715,230.86228413733008L949.5013339285714,247.31772462012106L953.0923714285715,257.01806452657166L953.4303982142857,242.42404234238774L956.1385892857144,123.33261995179105L958.1289705357143,162.66627940068759L961.3680625,181.2828574858516L962.3205026785714,209.507993776195L962.3801544642857,228.66075684117695L969.3852625,247.9108627318336L969.84458125,258.98824690810784L970.1885732142858,124.55228652184766L970.2800392857142,143.22261363367684L970.8805339285714,175.5792555817004L972.9325553571429,198.09104895655597L974.4934437500001,215.60656690648625L974.7121669642858,234.91700272600988L974.9905419642857,247.96965593370706L975.7819223214286,255.43697710254122L976.4102544642858,232.6999532335467L976.8516776785714,247.71866131253768L978.2236687500001,258.1970149551052L978.7466160714285,267.9829793909564L979.4723794642857,278.2005609543621L980.2140499999999,134.85571701300145L982.0195107142857,4.393506868457817L983.4829678571429,59.79536126754757L985.2208232142857,113.73687248390573L986.7200714285715,-0.6871186815765826L986.7479089285715,47.62271201427242L990.1560142857143,104.1844388827917L990.3449116071429,141.27801523091293L994.2898830357143,176.64931013967112L995.6459669642857,113.82445261307969L996.3419044642858,148.9772986207677L996.8568982142857,182.72115996156322L996.9324571428571,207.33821584919443L996.9881321428571,232.06100641997136L1000.9887785714286,251.44651181150655L1001.1518267857142,266.9393839768503L1002.6152839285714,277.6643011754302L1003.3271285714286,285.1464732317565L1003.4345017857142,293.82805941330895L1003.5657357142858,298.3499841755828L1003.94551875,303.8067256145636L1004.4028491071429,308.7263671583303L1005.1325892857144,310.25387054493973L1006.8565258928572,314.5427647873636L1009.8212196428572,238.1317849194905L1009.9763142857142,255.56156052636308L1010.2586660714286,235.34210711707433L1010.5330642857143,229.16294989577744L1010.5469830357143,228.73782041543177L1011.0301625000001,247.5020483722166L1011.1832687499999,242.84805717387798L1014.8657723214286,242.93142415935998L1015.0685883928571,254.12343517824175L1016.6911169642857,260.76437175976565L1018.4607866071428,272.8761653002686L1021.0456973214286,282.3425745961337L1021.4493410714285,291.9159896848415L1025.215357142857,296.35267461759366L1025.517592857143,303.01734366355356L1026.0445169642858,303.00245754192684L1031.2242803571428,307.6787642341488L1032.1687669642856,3.6258559307761393L1032.2423374999998,66.56201594522058L1033.0058803571428,118.15841843645141L1033.1888125,151.2608520186771L1033.9702508928572,169.19760096842683L1034.6522696428572,38.19297457356965L1035.3024741071429,96.28841614023618L1035.7697464285716,142.7988727155985L1036.0739705357144,173.04108677416335L1037.4956714285713,192.0737678377572L1038.020607142857,216.98026716460728L1039.7624392857142,240.13233889738672L1039.8379982142858,255.07475949605268L1040.7089142857142,139.25886384073868L1040.9057651785715,167.0743058476764L1043.5562928571428,200.08815268905306L1045.4015214285714,225.8447779038059L1046.9882589285714,239.38534962483305L1047.0180848214286,245.17753695923534L1047.1334116071428,262.7879289585626L1048.4218901785714,275.4468524852018L1048.7261142857142,285.6608074266609L1049.0661294642857,294.0248293724772L1049.7044035714287,158.44585989690762L1051.3030714285715,189.34244619828013L1052.4762232142857,211.48749403175947L1052.7784589285714,233.5828506073732L1056.3436473214285,226.9428025501076L1058.1948410714285,210.68509130613828L1060.3124794642858,234.02264850486776L1060.3224214285715,253.43922348538604L1060.4297946428571,266.34979833538983L1060.9885330357145,256.82692891260507L1062.7979705357143,267.5701045743666L1062.8874482142858,272.07626107152635L1064.3727776785715,279.03691246363593L1065.13234375,285.659572809959L1065.5359875,279.00652968885464L1065.5459294642858,124.32491674424782L1069.683775,156.47633883477508L1070.8728339285715,191.51205369330452L1072.53711875,213.9482159813007L1072.7896446428572,235.9724840799777L1073.5730714285714,254.3196999533819L1073.7043053571429,267.47741113534346L1075.2015651785714,279.65524120275796L1078.593763392857,287.2608227582345L1079.58000625,296.5291841746624L1079.8862187500001,299.4046995020911L1082.3736982142857,187.59097227867483L1084.0717857142856,215.638232651679L1085.3920785714286,238.30255358483655L1086.7541276785714,256.56851419660455L1091.0947892857143,266.4428425061942L1092.0372875,124.47706682111748L1092.7650392857142,164.9904667069588L1094.558569642857,192.4836090509156L1095.505044642857,220.1135401371367L1098.64869375,103.44031941439688L1099.8814973214285,-316.31262789133393L1104.1366580357142,-11.77096536942449L1105.3555428571428,57.423248140508896L1106.7354874999999,106.99292466520863L1112.0782991071428,149.39877064609203L1117.3932732142857,185.01493669814806L1121.2567205357143,214.00282307678015L1121.4416410714284,237.39003781647327L1121.9029482142857,256.22711463309L1122.4935008928571,223.8656026485497L1123.3027767857143,222.22757943176697L1123.5950705357143,241.44595064086494L1123.8436196428572,92.54238139281894L1123.9768419642858,139.75584385546225L1124.37054375,172.47322648169342L1125.537730357143,191.20969175816964L1127.8323357142856,219.30579250670587L1128.7251241071428,239.2024176090329L1129.9519625,257.020370838592L1130.5564339285713,266.00807943149374L1132.3956973214285,251.21810180508268L1133.3024044642857,266.64772524089153L1135.9847464285715,278.6863163721604L1136.0324678571428,288.52939785814624L1136.0821776785715,296.47376267748155L1138.9772776785715,299.68232318271856L1139.1621982142858,302.06510459987055L1140.6813303571428,307.87385874674897L1140.73899375,312.5163383816574L1141.6099098214286,312.9593479661063L1141.6317821428572,317.19656117184286L1141.7033642857143,313.96682063280207L1141.8783428571428,317.44414700697786L1144.2226580357144,320.59848813518624L1145.3818910714285,323.10896603905945L1146.374099107143,324.6947285544379L1147.1495723214284,325.7346954116427L1148.4977026785714,325.34751698328677L1148.6826232142857,313.5670772310386L1151.7964464285715,316.7331629726322L1153.5104410714287,313.3425075318839L1153.6078723214287,137.754860059931L1154.1705875,172.88393598915263L1155.978036607143,204.29700578547417L1156.687892857143,58.06035395699261L1157.0120008928573,106.17463023056601L1158.2169669642858,140.79622459880522L1158.5728892857142,159.33099480050413L1159.9409035714286,170.63708454432177L1165.0292008928573,201.4500134473013L1165.6177651785715,217.27207769433394L1165.7509874999998,169.0483380435287L1170.133405357143,201.33169138657084L1171.7937133928572,225.97799587430185L1171.8593303571429,246.572228778852L1172.50158125,263.32239933367805L1173.2233678571429,257.9440753583609L1173.2472285714286,271.2696965554952L1174.0067946428571,102.82969157056809L1175.7406732142856,146.60584174121854L1176.0369437499999,171.19124869128416L1177.7250892857144,199.6057082225509L1179.2462098214287,224.26484452165184L1179.5206080357143,238.53823345881318L1179.9023794642858,248.6648250578373L1181.3757785714286,262.66504974830383L1181.509000892857,255.2571229590435L1185.76615,263.51564046966706L1188.31328125,112.238491227052L1188.3848633928571,153.32656635429174L1190.2380455357143,188.78616314002446L1193.1410991071427,199.83837865883962L1193.2027392857142,207.75336722608293L1194.9465598214285,224.22810862919394L1195.3502035714287,240.95893624989753L1195.5550080357143,247.3791091248875L1196.8713241071428,215.04960478190466L1197.3226892857144,235.16969571784244L1198.6489473214285,55.35461796343418L1199.0187883928572,88.32415724611356L1202.1962401785715,128.18947745018065L1202.5959071428572,151.66215878051798L1202.8225839285715,164.8888775294803L1203.67958125,187.44897376583282L1204.7214991071428,214.46073207129047L1206.0338383928572,71.81280562773557L1208.4775732142857,110.06090572273897L1210.2870107142858,151.40859880285396L1210.6807125,186.26119400848495L1214.5183107142857,213.96524394980702L1215.8465571428571,214.48003951256786L1216.2820151785716,207.09931328730033L1217.3000723214284,227.77568249572312L1217.3617124999998,238.3808223141749L1218.1948491071428,247.13168512451804L1218.4433982142857,138.27325886621605L1218.6680866071429,172.98485064613442L1219.5250839285713,195.91611261453326L1220.077857142857,178.35697322913882L1220.700224107143,41.08347134454157L1222.356555357143,88.88788560758513L1223.1340169642858,133.32353191956264L1225.0985491071428,-7.938569789056883L1225.6632526785713,41.08612298574058L1225.9833839285714,-86.6020671875794L1227.4150267857142,-53.81236808021647L1227.5959705357143,20.211081707320385L1229.9740883928573,79.2327255438501L1229.9959607142857,118.89679578389597L1230.7933062500001,150.47652948257027L1230.8967026785715,5.850104811642154L1231.82329375,-98.85706519853782L1232.2945428571427,-14.533134410951238L1232.6524535714286,53.22597868826092L1233.4020776785715,107.22214682170627L1239.4209428571428,150.99752175624275L1242.1450410714285,161.23130445333405L1242.9165375,116.75513938786254L1244.8214178571427,136.61991770841013L1246.2451071428573,169.12727233391863L1246.6825535714286,201.5193067639817L1247.7244714285714,222.38555692432314L1247.8755892857143,233.89956344602896L1249.5199901785716,246.83512574385318L1250.27955625,264.25240943392686L1251.9657133928572,263.91176670043126L1254.9502910714286,276.30446599124633L1256.5509473214286,135.1702527856729L1257.2985830357143,166.67583750533277L1258.7998196428573,188.1391934303221L1259.0086008928572,74.25539771300774L1259.9172964285715,115.08300569520172L1260.77429375,147.47941114795825L1261.329055357143,182.39064883623615L1262.1343544642857,210.18215202835472L1262.9078392857143,231.94285652277688L1264.1088285714286,244.5138686914271L1266.4133758928572,260.7983965054373L1267.7177616071428,273.62917229534946L1269.6783169642858,285.16052031518427L1272.1101214285713,292.41286132336785L1272.450136607143,299.3886850881666L1272.4580901785714,150.33041523361925L1273.0764803571428,182.61682716580015L1276.27978125,209.60298428989873L1276.295688392857,229.7998604620093L1276.3732357142858,92.87992743210746L1276.8544267857144,141.00993688549005L1278.7911214285714,176.8433225047223L1279.510919642857,195.93953622910436L1282.8036982142858,219.23513120439097L1284.340725892857,227.41408801099814L1284.517692857143,242.25478248613007L1285.0784196428572,259.30413002027615L1287.0548821428572,260.2966058274391L1291.2305071428573,110.49939861458807L1291.5824526785714,151.30422131667348L1291.7633964285715,185.1014503355806L1294.747974107143,212.49204228846116L1297.2632910714285,231.96363545678366L1298.5617116071428,249.77092135923945L1298.6253401785714,261.6027000981795L1300.8026303571428,269.915309940833L1301.2182044642857,280.08032269879834L1303.9562214285716,290.2533136376115L1305.2705491071429,144.0107800299623L1305.580738392857,175.00803255515876L1307.2311044642859,204.0057165819612L1308.3286973214285,222.71345364238474L1308.7025151785715,243.85521904775024L1309.7643169642856,246.17755740601638L1309.8856089285714,263.5169654287403L1312.1981098214285,128.71185496628328L1314.4628892857143,159.02547443056142L1314.6657053571428,192.39493789787318L1314.7710901785713,71.12183105560322L1314.9619758928573,-48.96285238574201L1315.3218749999999,22.236878111280976L1316.2305705357144,78.45803037827649L1317.1213705357143,129.02192554907353L1318.4436517857143,165.78981643546703L1320.4380098214285,197.3227244109239L1320.9947598214285,218.98744941475601" style="fill: none;" fill="none"></path></g></g></g></g><g opacity="0.2"><g><g><g><path stroke="rgb(255, 112, 67)" stroke-width="2px" d="M101.67050357142857,310.0283432006836L103.277125,147.75419807434082L104.77438482142857,296.5218291282654L107.61380982142856,292.77105951309204L109.94818303571428,272.5784363746643L110.2643375,112.76470279693602L111.01595,79.27195835113525L111.34403482142856,272.61640191078186L111.45538482142858,194.56428146362302L111.90476160714286,297.6062524318695L112.01412321428572,301.0955636501312L112.80152678571427,204.33659505844116L113.32049732142858,332.5099442601204L114.26100714285714,36.850767135620124L115.90540803571429,299.84548139572144L116.42835535714286,252.21271276474L116.70673035714285,317.20286893844604L117.81625357142856,264.83092164993286L118.73091428571428,232.25043630599978L119.20216339285714,255.3500108718872L119.26181517857142,274.07991313934326L119.68335446428571,297.588698387146L120.18840625,314.8190997838974L120.58608482142857,251.62792110443118L121.33769732142858,278.77047872543335L122.92045803571428,280.33977222442627L123.33404374999999,324.78765511512756L123.98424821428571,319.8711323738098L124.22683214285713,326.6572926044464L125.07985267857143,331.46244889497757L125.87322142857143,313.1865026950836L126.30669107142857,252.75681924819946L128.53965625,333.66820925474167L131.71313125,296.45813846588135L132.95587678571428,299.66748881340027L132.98967946428573,289.49096608161926L136.16713125,285.7905969619751L137.61468125,333.5901158452034L137.8334044642857,288.498037815094L138.1952919642857,335.3428903520107L138.4259455357143,288.3485953807831L140.85973839285714,321.7773087024689L143.48640535714287,323.56082659959793L144.5601375,324.42150980234146L148.64827321428572,334.83570167422295L149.00618392857143,314.11835861206055L150.01231071428572,311.3522468805313L153.718675,317.41499280929565L154.8838732142857,253.81124544143674L157.6994375,269.1172213554382L158.05734821428572,321.8868137598038L158.20647767857145,306.34465873241425L158.34765357142857,326.8820591568947L158.42917767857142,318.06109392642975L159.1807901785714,311.6879097223282L159.66794642857144,283.3523681163788L161.8750625,317.46892762184143L166.63328660714285,282.01215267181396L166.75457857142857,278.4712371826172L168.91596160714286,289.2023193836212L169.96185624999998,318.51533472537994L170.10899732142857,235.17536735534668L170.41322142857143,325.99317640066147L172.38173035714286,318.7842609882355L172.77344375,271.5007128715515L172.982225,323.7925310730934L173.11942410714283,174.73549842834473L174.33035535714285,327.5765575170517L174.47948482142857,323.2039588689804L175.74807946428572,311.17138671875L176.64683303571428,326.3451418876648L177.01667410714285,328.9693550467491L178.3827,324.21732395887375L179.61550357142858,320.18301153182983L180.0290892857143,304.61562991142273L180.1821955357143,317.8341315984726L180.82842321428572,333.9953301548958L181.88425982142857,333.41404950618744L182.95600357142857,312.5615203380585L183.19262232142856,301.0095443725586L183.99593303571427,325.35740971565247L185.37985446428573,290.46015524864197L187.41596875,280.79011392593384L187.47164375,325.0617156624794L187.60287767857145,331.2034872174263L187.8295544642857,330.4314780831337L188.36045535714288,307.1106206178665L192.65538392857144,329.7207064628601L192.99937589285716,332.0770456492901L193.03914375000002,324.8981744647026L193.22804107142855,335.4665417969227L193.47857857142859,332.0525339245796L194.1168526785714,305.82828974723816L195.23830625000002,329.0525766611099L195.3536330357143,327.8845223784447L197.17897767857144,292.6308014392853L197.47524821428573,326.93596762418747L198.3461642857143,318.4037119150162L200.22519553571428,336.661931052804L202.75840803571427,333.1155537366867L202.84192053571428,315.29734921455383L203.33901875,334.87921845912933L203.60944017857145,336.0137106627226L204.9675125,335.0827684700489L206.87438125000003,336.2006185799837L208.3159660714286,334.85711681842804L209.07553214285716,321.06511747837067L209.51099017857143,337.7216430157423L209.7734580357143,335.58813628554344L209.94644821428574,282.81877541542053L210.03194910714288,338.313528008759L210.20891607142858,335.2094886302948L210.73385178571428,336.17245702445507L211.72605982142858,330.6943641901016L212.622825,334.8253003656864L214.63507857142855,337.0124265253544L216.46638839285714,336.5511895418167L219.2799642857143,334.52617686986923L219.58021160714287,336.81199994683266L220.62809464285715,337.491121545434L222.18699464285714,323.0018998980522L225.9251732142857,337.9039985239506L226.8577294642857,332.9729630947113L228.52201428571428,335.95687660574913L229.49433839285714,328.05857533216476L230.1007982142857,337.7116984426975L230.3712196428571,339.05003640800714L230.52034910714283,328.5566080212593L231.23418214285715,328.5660598874092L231.97386428571428,337.6493620276451L232.00567857142858,307.91853630542755L234.30028392857142,337.2098266929388L234.42754107142858,337.6122899502516L235.00417499999998,335.92561112344265L235.79754375000002,301.5503799915314L235.86117232142857,335.8543317615986L236.27276964285716,336.49469316005707L236.74998392857145,327.08121913671494L237.53341071428574,336.48208670318127L239.32296428571428,332.0388045012951L239.77631785714286,321.4372441768646L241.1045642857143,314.61845433712006L245.4730633928571,131.22672653198242L248.0639392857143,317.46847772598267L248.76783035714286,331.43987303972244L249.53733839285712,320.97009217739105L249.67254910714283,339.0068528652191L252.5497535714286,333.71529480814934L254.41486607142855,335.8861317485571L254.69125267857143,339.4691159836948L254.96962767857144,337.1171286404133L256.6219821428571,334.8545851409435L256.9600089285714,335.4126991927624L259.43158125,288.9629626274109L261.91309553571426,102.5213279724121L263.4262625,337.58066450059414L266.2537571428572,323.2257686853409L267.00338125,317.055779337883L269.63601339285714,293.92854022979736L270.86285178571427,321.2951318025589L271.22076250000003,296.0748190879822L271.2585419642857,333.5137146115303L271.72979107142856,338.1338766887784L272.1990517857143,307.1418823003769L274.2172705357143,335.3686524629593L275.5057491071429,337.6235211342573L276.05255714285715,318.172678232193L277.8838669642857,317.3127955198288L278.4624892857143,335.7644622772932L278.71700357142856,319.0825845003128L280.00945892857146,235.60582447052002L281.19851785714286,332.4887201189995L282.85484910714285,304.3477432727814L282.8806982142857,309.5139480829239L283.84506875,326.42779606580734L286.35442053571427,330.8702471256256L299.84168928571427,316.4704384803772L300.87366517857146,333.2371244132519L302.5558455357143,201.54767036437988L302.5657875,290.9492163658142L302.7268473214286,307.48697674274445L303.83835892857144,318.59930515289307L306.04746339285714,328.4013361930847L306.8885535714286,337.4021584391594L307.03370625,322.38338124752045L307.13113749999997,310.9111969470978L308.35399910714284,324.58891463279724L311.9808276785714,319.99400663375854L312.11206160714283,242.9042296409607L312.40833214285715,331.9861124753952L313.4204241071428,316.1887367963791L313.90360357142856,315.7569786310196L317.97185535714283,287.4348609447479L318.19455535714286,336.4219962209463L320.6581741071429,338.0721899122L320.7536169642857,298.14029908180237L327.6255026785714,323.95837038755417L328.8046196428571,314.30367517471313L328.9338651785714,314.4744734764099L330.38936875,277.9866304397583L330.5782660714286,311.62159264087677L331.2543196428571,323.7664310336113L333.5807392857143,315.2373995780945L335.19332589285716,328.618688583374L336.08810267857143,299.67319560050964L336.4420366071428,333.25112438201904L337.0484964285714,327.70552867650986L340.0032482142857,305.35817289352417L342.92419732142855,330.70217049121857L344.55269107142857,333.02178287506104L344.89469464285713,336.44153451919556L348.135775,331.60885098576546L348.89136428571425,296.86085200309753L353.16044375,309.09797275066376L356.48901339285715,335.07299691438675L356.52878125,334.7056179344654L356.5784910714286,319.44880175590515L359.9030839285714,271.9382467269897L360.31468125,332.7291869223118L361.89545357142856,304.7877495288849L363.1859205357143,272.8852410316468L364.2318151785714,331.69403582811356L367.7532589285715,316.9284770488739L367.8626205357143,274.64584159851074L368.0554946428572,338.2661888822913L368.18871696428573,307.5115690231323L368.6142330357143,327.0572338104248L373.76417053571424,337.03354300558567L374.23343125,336.2739288061857L377.4566160714286,327.7259715795517L378.2678803571428,336.4512179195881L378.4746732142857,320.45208978652954L380.40739107142855,338.3382912799716L382.68012410714283,242.37146377563474L387.2534276785714,320.53179228305817L389.2756232142857,336.8731558918953L389.48639285714285,338.5160736069083L391.38331964285715,337.47503776848316L391.46882053571426,333.3655200302601L397.52745357142857,173.88570594787598L399.4939741071429,337.0407306998968L402.0371285714285,333.4644611477852L402.27175892857144,337.9702710211277L404.1627205357143,337.3406708985567L406.6760491071429,336.19524516165257L407.5231044642857,332.9143074154854L410.8655928571428,309.938303232193L413.10253482142855,311.8723487854004L416.1865321428572,337.2126557677984L417.22248482142857,336.49412927031517L417.7116294642857,330.40029644966125L418.55073124999996,335.7934010177851L418.99811964285715,317.93912756443024L420.4138553571429,332.26096591353416L420.9626517857143,335.34742122888565L421.32652767857144,297.4566276073456L421.3802142857143,337.3892771303654L423.4759803571429,335.2787067294121L423.51773660714287,333.6273862719536L426.4347089285714,333.1090358197689L427.48060357142856,321.1959317922592L428.63585982142854,336.3650681823492L431.3798419642857,236.51935625076294L432.2408160714285,310.07117450237274L434.5692241071428,330.83064717054367L434.71437678571425,328.304747402668L437.9793178571428,332.3734875023365L438.1920758928572,324.3954523205757L438.43267142857144,217.538679599762L444.9903910714285,291.3244984149933L446.0203785714286,320.8063077926636L446.24307857142855,321.96015083789825L447.2531821428571,324.634888112545L447.4400910714286,319.9642425775528L449.28333125,304.8173129558563L449.6074392857143,283.1347563266754L453.2998848214286,294.32732224464417L453.84868125,329.77509117126465L454.50683928571425,305.35542488098145L454.52672321428577,316.8128538131714L455.5427919642857,327.12407982349396L455.8470160714286,311.77536380290985L456.3461026785714,320.7369022369385L456.6702107142857,314.50742733478546L457.3959741071429,318.2083760499954L459.90930267857146,267.85341930389404L460.2692017857143,332.23552399873734L460.7285205357143,291.274231672287L460.81402142857144,328.0902798175812L461.4443419642857,329.2533315420151L468.26651785714284,304.0659017562866L468.87098928571424,254.10986280441284L468.95649017857147,312.3766759634018L469.3919482142857,304.8829004764557L470.58896071428575,297.02069878578186L470.88920803571426,272.4073705673218L471.35051517857147,231.62278699874878L474.9892741071428,220.4692687988281L475.1423803571428,225.7623867988586L476.3493348214286,278.5585453510285L477.3832991071428,267.89287233352667L479.09132857142856,254.7804832458496L480.0895017857143,320.1027942895889L480.94252232142856,306.06490457057953L482.1812910714286,274.35171914100647L483.4578392857143,274.0501754283905L484.05435714285716,249.6219692230225L485.61126874999997,147.21309089660645L487.0110973214286,200.9816446304321L487.5419982142857,288.40741419792175L490.0294776785714,260.20792961120605L491.64206428571424,171.9360599517822L493.79350535714286,183.51261806488037L494.3184410714286,275.0126283168793L495.61089642857144,283.8234496116638L496.2372401785715,294.743775844574L496.42216071428567,291.86015009880066L496.44403303571426,311.5288391113281L496.5931625,236.6518039703369L497.34875178571434,234.55599451065063L497.6251383928571,185.2248649597168L498.14808571428574,296.41823554039L499.54990267857147,131.02917766571045L500.9358125,296.8507556915283L502.4430142857143,295.07859563827515L506.54109196428567,306.9106115102768L509.4421571428572,301.4016671180725L510.41448125,241.81003427505493L511.26551339285714,316.8244984149933L511.75068125,161.34710025787354L514.0393214285714,309.9619815349579L515.5425464285714,317.33086228370667L518.0101419642857,317.8704900741577L518.2427839285715,334.9755610227585L518.6961375,273.5198333263397L519.2787366071428,324.27240681648254L521.4600035714286,304.01787638664246L521.9789741071429,304.7115468978882L522.1300919642857,186.6854782104492L523.8679473214286,288.9697232246399L523.9693553571428,330.00607419013977L524.0309955357143,282.3634889125824L524.3650455357143,334.2149117588997L525.4566732142857,305.7430202960968L525.5700116071429,326.60263228416443L526.1923785714285,332.4532665014267L527.0414223214285,329.10048550367355L527.1110160714286,290.600692987442L527.20049375,264.36304616928106L529.1868982142857,311.622186422348L531.1335348214285,327.67621552944183L531.3781071428572,308.83206808567047L531.4655964285714,316.01079082489014L531.9845669642857,332.93911349773407L532.2748723214286,319.64146661758423L534.68878125,330.7660536766052L535.6312794642857,326.26980662345886L535.6571285714285,333.4607231616974L536.0607723214285,272.83890986442566L536.8342571428572,332.0408614575863L536.8441991071429,333.99718901515007L537.9775830357144,325.3037363290787L540.4929,321.70037853717804L541.4214794642858,329.3350595831871L541.9782294642857,331.81356221437454L542.6383758928572,312.53879857063293L544.3623125,337.45911003649235L545.3664508928572,334.00014981627464L546.2850883928571,332.4273204803467L548.4524366071428,325.5059381723404L548.6830901785714,329.42865920066833L550.8504383928572,332.72415751218796L551.6040392857143,324.6763038635254L551.7094241071428,274.20161199569696L552.5922705357143,330.74265909194946L553.4572214285714,319.17550015449524L555.2984732142857,330.8902421593666L556.8255589285714,336.32157166302204L557.6447767857143,189.73132991790771L559.4422839285714,334.7836424410343L559.7206589285714,327.0588489770889L561.2835357142857,324.49606585502625L562.41493125,330.42069071531296L563.0293446428572,335.02108612656593L564.7831071428571,318.4853335618973L565.5367080357142,331.7941118180752L566.5488,337.3315313756466L566.6760571428572,337.8950246721506L568.2687598214286,336.7050146609545L568.3343767857143,329.9102200269699L568.4934482142856,331.93119832873344L570.3545839285714,296.44199085235596L572.15805625,336.7656300216913L572.3071857142857,331.6603204905987L572.8798428571429,336.114849075675L573.2596258928571,323.50969552993774L573.2974053571429,334.67767575383186L573.3371732142857,336.85155379772186L573.5300473214286,336.3932446837425L574.0172035714286,335.9388037621975L576.7591973214286,334.49686473608017L577.1946553571428,329.1861126422882L578.2564571428571,294.56439304351807L578.9126267857143,335.5275158584118L579.4296089285715,333.48344948887825L580.4078982142858,331.5468084216118L580.4953875,336.8039595782757L581.35835,293.16077065467834L582.5991071428572,332.83288234472275L582.7601669642858,133.81384658813477L583.0763214285714,336.1801298260689L583.9114464285715,337.5795666128397L585.7586633928572,333.487946420908L586.3512044642857,266.783194065094L587.0053857142857,334.509581387043L587.0153276785715,333.2048707306385L587.59395,337.7779283821583L588.3296553571429,334.5417484343052L589.1150705357143,336.9952724725008L590.3876419642858,337.39553159475327L591.8431455357144,336.88205374777317L594.1834839285715,336.90901786088943L595.0822375,333.5985812842846L595.3884499999999,334.17739510536194L595.8418035714286,337.5349445939064L596.9294544642856,333.5377262830734L596.9632571428572,320.1093806028366L598.1960607142857,336.51466792821884L599.9557883928571,244.55938434600827L600.0393008928571,336.8557176142931L602.0058214285715,334.7334785461426L604.4038232142857,334.4275625348091L605.9189785714285,323.6977489590645L606.0700964285714,337.2295934855938L606.8614767857143,338.15530437231064L609.0884767857143,336.59208142757416L610.2139071428571,337.39930099248886L611.1822544642857,335.43975880742073L612.1724741071429,337.27349303662777L613.1428098214286,333.4151681661606L616.0657473214286,335.6886783838272L616.7099866071428,243.62022876739505L617.9447785714286,246.22024583816525L618.3384803571429,337.729840695858L621.0188339285714,337.9206622764468L621.2176732142857,335.9912764132023L621.2753366071429,334.38880157470703L621.5596767857143,337.1547739803791L622.2317535714285,337.7353073358536L623.5083017857144,337.048204138875L624.6496392857143,336.3300783932209L626.66388125,337.3876057267189L628.6403437499999,295.7401006221771L629.1374419642857,337.6681368201971L629.8691705357143,334.77970534563065L630.2390116071429,330.1401461958885L630.7878080357143,336.5063101500273L630.8554133928571,335.71025413274765L632.7463750000001,337.3008358627558L632.9332839285714,337.3011484593153L637.7968928571429,334.34074530005455L637.88239375,165.9852590560913L638.8229035714286,337.17098112404346L642.3423589285713,333.21852618455887L642.5093839285714,336.5007006376982L642.67044375,310.35265731811523L643.3842767857143,332.29651376605034L646.4404366071428,337.6689018458128L647.1025714285714,335.88255006074905L647.4008303571429,119.36760139465333L649.5204571428571,332.05990502238274L649.6397607142857,335.1863509118557L649.9201241071429,337.3103936165571L650.35359375,331.25171422958374L652.5030464285715,336.05074778199196L655.1177830357143,337.34037831425667L655.2629357142857,337.1731553673744L656.7244044642857,336.11641535162926L657.0723732142857,317.938689827919L657.4163651785714,-634.1656799316406L659.7189241071428,337.4953203201294L660.5103044642857,336.1327111572027L661.6675491071428,335.82440254092216L661.82264375,336.76872888207436L662.3316723214285,336.6635094881058L663.1389598214286,333.074068069458L664.8251169642857,335.8625871986151L665.9783848214286,336.51311710476875L667.4378651785714,335.36777901649475L670.9990767857142,335.1403779387474L673.9637705357143,335.73957791924477L676.3717142857142,336.9124764353037L677.3997133928572,337.6484622359276L679.4258857142858,320.4419265985489L679.5630848214286,333.67826199531555L684.1304232142858,335.4207795858383L686.3017482142858,330.3356563448906L693.8397455357143,336.9233096539974L695.9653375,336.63144351541996L696.0329428571429,336.1937204301357L696.31330625,335.47989428043365L697.0032785714285,335.3208753466606L697.8006241071429,20.641740798950213L698.8703794642857,273.41094636917114L699.9421232142857,334.1341230273247L700.5426178571429,336.0236220508814L701.0973794642858,-13.559780120849602L702.3023455357143,336.88044491410255L706.472005357143,330.3700520992279L706.89155625,303.6532986164093L707.933474107143,336.65524062514305L708.0507892857142,328.0111457705498L709.8224473214286,317.6869751214981L709.9695883928572,336.3665982335806L710.4706633928572,331.954219520092L711.5404187500001,336.8093920201063L711.8128285714286,336.0560796558857L712.3775321428571,337.48324862122536L714.6264044642858,265.521475315094L714.6721375000001,336.1963486224413L715.2030383928571,335.77417658269405L716.0003839285714,335.3561364412308L717.0741160714285,307.55359172821045L717.8853803571429,335.527235686779L720.44841875,335.55088409781456L722.5183357142856,332.64131182432175L724.0096303571429,-52.70568084716795L725.196700892857,336.08765494823456L727.2904785714285,336.0481553077698L728.4914678571429,331.3852583169937L728.5391892857143,336.2883814573288L731.5933607142857,335.48506757616997L731.6728964285714,288.51616740226746L733.5360205357143,328.6854373216629L734.0271535714286,335.8188794106245L734.3850642857143,-82.28003501892087L735.3931794642858,325.68820679187775L735.8385794642858,334.084062486887L738.0854633928572,336.95214681327343L739.6264678571429,334.5012993514538L740.2190089285714,334.52929878234863L740.8135383928571,336.28029853105545L742.1497383928572,335.31622236967087L743.0465035714285,336.49026031792164L743.4501473214285,335.5979498922825L745.8521258928572,-64.93607139587405L746.6057267857143,331.4516858458519L747.0590803571429,306.5918542146683L747.3374553571429,334.9211155176163L748.3117678571429,332.95059698820114L749.8249348214285,328.5591513514519L750.3359517857143,-47.575181961059556L752.1911223214287,328.64981549978256L753.1515160714285,335.75272242724895L753.1892955357143,336.04676128923893L753.294680357143,331.8666256070137L753.5452178571429,332.7687093615532L754.6010544642857,332.2178068161011L756.2593741071429,335.18189907073975L757.3152107142856,334.82203608751297L758.1543125,328.29404920339584L763.4752517857142,333.6332663297653L763.5866017857144,-97.40953826904294L763.7039169642857,317.29304671287537L766.0144294642856,335.2114543914795L768.1658705357144,-101.17870903015141L770.4863250000001,336.67144042253494L770.9516089285713,336.13766077160835L771.5660223214286,327.6686199903488L771.7191285714287,333.5840280652046L774.3875517857143,334.90609872341156L774.4312964285715,334.3084982037544L775.3877133928572,332.4244767129421L777.55705,327.8104729652405L779.7124678571429,-177.5072135925293L780.1379839285714,333.2847956418991L780.2612642857143,336.7810817658901L782.3073205357143,333.58699747920036L782.400775,333.4096468091011L782.8799776785714,-181.97280693054196L785.6776464285714,328.6271747946739L785.7611589285715,332.83522859215736L786.9681133928572,335.70122024416924L787.9742401785714,321.4696184396744L791.3624616071429,334.2735051214695L791.7323026785714,333.3900854587555L797.5244910714287,335.31530180573463L799.9801562499999,331.271153986454L800.2644964285715,332.68498972058296L803.2470857142857,336.9514200389385L803.9827910714286,330.6249099969864L806.4702705357143,330.1401208639145L807.6116080357142,325.6566624045372L809.6735714285714,333.2421097457409L811.3935312499999,332.8864189386368L812.0139098214285,333.44275721907616L812.2445633928571,314.07504093647003L812.2883080357143,306.5142654180527L813.3799357142857,330.64838767051697L814.6206928571429,330.13135397434235L819.1840544642856,292.73827385902405L820.1325178571428,325.74275666475296L821.1585285714286,322.54112446308136L821.7789071428572,94.26016998291014L825.3341535714286,326.5130361318588L827.5730839285715,334.65085020661354L829.5555116071428,324.17404985427856L832.1304803571428,328.9739685058594L832.6931955357143,315.18754827976227L833.0252571428572,333.45462372899055L833.7927767857142,328.9679516553879L835.1886285714286,324.1318538784981L837.05970625,310.03848814964294L837.336092857143,333.93003445863724L839.2429616071429,331.3350675702095L839.7778392857143,335.7370837330818L839.8374910714286,323.44095569849014L841.1319348214286,332.631673514843L841.8557098214285,290.192831993103L842.0287000000001,326.9769324660301L844.5022607142857,332.73280027508736L845.35528125,332.9429340660572L848.1410196428571,304.18123722076416L848.3418473214285,333.5265964269638L849.2306589285714,316.81467974185944L852.4439017857144,323.1338440179825L852.81573125,331.9326797425747L853.34464375,335.26408714056015L855.0626151785715,-795.5127639770508L858.3335214285714,334.8151468038559L861.3996232142857,312.05247128009796L865.3247107142857,329.92883598804474L866.4859321428572,329.03203547000885L866.8100401785714,329.7367942929268L868.3589982142857,334.4271926879883L877.5314544642857,-315.49927139282227L879.8777580357144,301.5290484428406L879.8976419642856,327.5304958820343L882.1365723214286,323.6122140288353L884.0851973214286,-367.27286529541016L884.0951392857143,302.0983693599701L884.2383035714284,150.9613151550293L884.3774910714286,330.0355565547943L885.0217303571428,287.1383674144745L888.8573401785715,334.49223506450653L889.9608982142857,-300.1937980651855L890.4858339285714,320.2575908899307L891.3229473214285,326.8440368771553L892.1620491071428,329.62093698978424L892.3986678571429,280.5372724533081L895.7292258928571,315.89487171173096L895.8465410714285,304.88970971107483L896.9898669642857,326.9139956831932L897.3815803571429,307.9298141002655L897.5645125,323.7334994673729L897.9661678571429,331.84519070386887L901.1456080357143,291.5947480201721L902.1298625000001,324.02618408203125L911.0000830357143,326.38189655542374L911.88690625,294.4355890750885L912.0658616071428,-565.482940673828L912.0857455357143,316.70356357097626L912.6723214285714,316.99867498874664L912.8075321428572,323.59325963258743L913.50148125,239.16347932815555L914.1874767857142,326.32292675971985L916.4602098214285,-88.48334503173831L918.7389080357143,299.29961585998535L920.5026125,277.68177938461304L921.2422946428571,233.90982246398923L924.6146089285714,329.4745597243309L926.5612455357143,321.27033483982086L928.2672866071429,292.89928793907166L928.5874178571429,231.51534700393677L930.3312383928571,329.472285926342L930.8979303571429,283.22014331817627L933.1806053571428,309.6283209323883L937.01025,318.91374385356903L938.9290491071429,327.46608275175095L939.0324455357144,256.1333079338074L939.6090794642857,323.0069257616997L940.3189357142858,322.94225120544434L940.7285446428572,231.46583414077762L942.0309419642857,-567.3681907653809L942.2357464285715,322.4155629873276L945.4967107142857,328.37652707099915L945.9898321428572,318.31025314331055L946.6221410714286,326.76415503025055L947.8032464285715,198.53495693206784L949.5013339285714,313.1394865512848L953.0923714285715,295.81942415237427L953.4303982142857,184.04795360565186L956.1385892857144,-353.0330696105957L958.1289705357143,320.0009171962738L961.3680625,255.74916982650757L962.3205026785714,322.40853893756866L962.3801544642857,305.27180910110474L969.3852625,324.9112862944603L969.84458125,303.29778361320496L970.1885732142858,-413.19155502319336L970.2800392857142,217.90392208099368L970.8805339285714,305.00582337379456L972.9325553571429,288.1382224559784L974.4934437500001,285.6686387062073L974.7121669642858,312.1587460041046L974.9905419642857,300.18026876449585L975.7819223214286,285.3062617778778L976.4102544642858,141.75185775756836L976.8516776785714,307.7934936285019L978.2236687500001,300.11042952537537L978.7466160714285,307.12683713436127L979.4723794642857,319.0708872079849L980.2140499999999,-438.52365875244135L982.0195107142857,-517.4553337097167L983.4829678571429,281.40277886390686L985.2208232142857,329.50291734933853L986.7200714285715,-458.3830833435058L986.7479089285715,240.86203479766846L990.1560142857143,330.43134635686874L990.3449116071429,289.6523206233978L994.2898830357143,318.134489774704L995.6459669642857,-137.47497749328613L996.3419044642858,289.5886826515198L996.8568982142857,317.6966053247452L996.9324571428571,305.80643939971924L996.9881321428571,330.9521687030792L1000.9887785714286,328.9885333776474L1001.1518267857142,328.91087263822556L1002.6152839285714,320.56396996974945L1003.3271285714286,315.07516145706177L1003.4345017857142,328.55440413951874L1003.5657357142858,316.43768322467804L1003.94551875,325.6336913704872L1004.4028491071429,328.4049333333969L1005.1325892857144,316.36388409137726L1006.8565258928572,331.6983417570591L1009.8212196428572,-67.51213455200191L1009.9763142857142,325.2806629538536L1010.2586660714286,154.46429347991946L1010.5330642857143,204.4463210105896L1010.5469830357143,227.03730249404907L1011.0301625000001,322.5589601993561L1011.1832687499999,224.23209238052365L1014.8657723214286,243.26489210128787L1015.0685883928571,298.8914792537689L1016.6911169642857,287.3281180858612L1018.4607866071428,321.3233394622803L1021.0456973214286,320.2082117795944L1021.4493410714285,330.20965003967285L1025.215357142857,314.0994143486023L1025.517592857143,329.67601984739304L1026.0445169642858,302.9429130554199L1031.2242803571428,326.3839910030365L1032.1687669642856,-1212.5857772827146L1032.2423374999998,318.30665600299835L1033.0058803571428,324.5440284013748L1033.1888125,283.67058634757996L1033.9702508928572,240.9445967674255L1034.6522696428572,-485.82553100585943L1035.3024741071429,328.6701824069023L1035.7697464285716,328.8406990170479L1036.0739705357144,294.00994300842285L1037.4956714285713,268.2044920921325L1038.020607142857,316.60626447200775L1039.7624392857142,332.74062582850456L1039.8379982142858,314.84444189071655L1040.7089142857142,-324.0047187805176L1040.9057651785715,278.33607387542725L1043.5562928571428,332.1435400545597L1045.4015214285714,328.8712787628174L1046.9882589285714,293.54763650894165L1047.0180848214286,268.3462862968445L1047.1334116071428,333.2294969558716L1048.4218901785714,326.0825465917587L1048.7261142857142,326.51662719249725L1049.0661294642857,327.48091715574265L1049.7044035714287,-383.87001800537115L1051.3030714285715,312.92879140377045L1052.4762232142857,300.0676853656769L1052.7784589285714,321.9642769098282L1056.3436473214285,200.3826103210449L1058.1948410714285,145.65424633026123L1060.3124794642858,327.3728772997856L1060.3224214285715,331.10552340745926L1060.4297946428571,317.99209773540497L1060.9885330357145,218.73545122146606L1062.7979705357143,310.54280722141266L1062.8874482142858,290.1008870601654L1064.3727776785715,306.879518032074L1065.13234375,312.15021419525146L1065.5359875,252.39435720443723L1065.5459294642858,-494.40153503417974L1069.683775,285.08202719688416L1070.8728339285715,331.65491312742233L1072.53711875,303.6928651332855L1072.7896446428572,324.06955647468567L1073.5730714285714,327.7085634469986L1073.7043053571429,320.1082558631897L1075.2015651785714,328.3665614724159L1078.593763392857,317.6831489801407L1079.58000625,333.602629840374L1079.8862187500001,310.9067608118057L1082.3736982142857,-259.6639366149902L1084.0717857142856,327.82727414369583L1085.3920785714286,328.95983731746674L1086.7541276785714,329.63235664367676L1091.0947892857143,305.9401557445526L1092.0372875,-443.3860359191894L1092.7650392857142,327.04406625032425L1094.558569642857,302.45617842674255L1095.505044642857,330.63326448202133L1098.64869375,-363.25256347656256L1102.5598625,-365.8394889831543L1103.2776723214286,312.4661343097687L1103.93781875,307.11423194408417L1104.1366580357142,330.5935419201851L1105.3555428571428,334.20010218024254L1106.7354874999999,305.27163076400757L1112.0782991071428,319.02215456962585L1117.3932732142857,327.47960090637207L1121.2567205357143,329.9543685913086L1121.4416410714284,330.93889677524567L1121.9029482142857,331.5754218995571L1122.4935008928571,94.41955471038818L1123.3027767857143,215.67548656463623L1123.5950705357143,318.3194354772568L1123.8436196428572,-503.0718955993652L1123.9768419642858,328.6096937060356L1124.37054375,303.34275698661804L1125.537730357143,266.1555528640747L1127.8323357142856,331.6901955008507L1128.7251241071428,318.78891801834106L1129.9519625,328.2921837568283L1130.5564339285713,301.9589138031006L1132.3956973214285,192.05819129943845L1133.3024044642857,328.36621898412704L1135.9847464285715,326.84068089723587L1136.0324678571428,327.9017238020897L1136.0821776785715,328.25122195482254L1138.9772776785715,312.5165652036667L1139.1621982142858,311.5962302684784L1140.6813303571428,331.10887533426285L1140.73899375,331.08625692129135L1141.6099098214286,314.7313863039017L1141.6317821428572,334.1454139947891L1141.7033642857143,301.0478584766388L1141.8783428571428,331.3534525036812L1144.2226580357144,333.2158526480198L1145.3818910714285,333.15087765455246L1146.374099107143,331.03777861595154L1147.1495723214284,329.89456284046173L1148.4977026785714,323.79880326986313L1148.6826232142857,266.4453182220459L1151.7964464285715,329.3975059390068L1153.5104410714287,299.7798857688904L1153.6078723214287,-564.595729827881L1154.1705875,313.40023970603943L1155.978036607143,329.94928497076035L1156.687892857143,-526.8862533569336L1157.0120008928573,298.6317353248596L1158.2169669642858,279.2826020717621L1158.5728892857142,233.47007560729983L1159.9409035714286,215.86144351959229L1165.0292008928573,324.70172905921936L1165.6177651785715,280.5603346824646L1165.7509874999998,-23.846620559692376L1170.133405357143,330.46510475873947L1171.7937133928572,324.56321382522583L1171.8593303571429,328.94916039705276L1172.50158125,330.32308155298233L1173.2233678571429,236.43077945709226L1173.2472285714286,324.5721813440323L1174.0067946428571,-570.9303283691406L1175.7406732142856,321.7104424238205L1176.0369437499999,269.53287649154663L1177.7250892857144,313.2635463476181L1179.2462098214287,322.9013897180557L1179.5206080357143,295.6317892074585L1179.9023794642858,289.1711914539337L1181.3757785714286,318.66594851017L1181.509000892857,225.62541580200195L1185.76615,296.54971051216125L1188.31328125,-492.87010574340815L1188.3848633928571,317.67886686325073L1190.2380455357143,330.62455028295517L1193.1410991071427,244.04724073410037L1193.2027392857142,239.41332149505615L1194.9465598214285,290.1270742416382L1195.3502035714287,307.8822467327118L1195.5550080357143,273.0598006248474L1196.8713241071428,85.73158740997314L1197.3226892857144,315.6500594615936L1198.6489473214285,-663.9056930541992L1199.0187883928572,220.20231437683105L1202.1962401785715,287.650758266449L1202.5959071428572,245.55288410186768L1202.8225839285715,217.79575252532962L1203.67958125,277.6893587112427L1204.7214991071428,322.50776529312134L1206.0338383928572,-498.7789001464844L1208.4775732142857,263.0533061027527L1210.2870107142858,316.7993711233139L1210.6807125,325.6715748310089L1214.5183107142857,324.7814437150955L1215.8465571428571,216.53922176361084L1216.2820151785716,177.57640838623047L1217.3000723214284,310.48115932941437L1217.3617124999998,280.8013815879822L1218.1948491071428,282.1351363658905L1218.4433982142857,-297.1604461669922L1218.6680866071429,311.8312177658081L1219.5250839285713,287.64116048812866L1220.077857142857,108.12041568756105L1220.700224107143,-508.01053619384766L1222.356555357143,280.1055426597595L1223.1340169642858,311.06611716747284L1225.0985491071428,-572.9869766235352L1225.6632526785713,237.1848940849304L1225.9833839285714,-597.3548278808595L1227.1982919642858,106.20298385620119L1227.2678857142857,-480.17237472534185L1227.4150267857142,268.8074417114258L1227.5959705357143,316.30488085746765L1229.9740883928573,315.3193008899689L1229.9959607142857,277.5530767440796L1230.7933062500001,276.79546427726746L1230.8967026785715,-572.6555938720703L1231.82329375,-517.6857452392577L1232.2945428571427,322.76258873939514L1232.6524535714286,324.2624310851097L1233.4020776785715,323.2068193554878L1239.4209428571428,326.0990214943886L1242.1450410714285,202.1664352416992L1242.9165375,-61.14952087402347L1244.8214178571427,216.0790309906006L1246.2451071428573,299.15669083595276L1246.6825535714286,331.08744448423386L1247.7244714285714,305.8505575656891L1247.8755892857143,279.9555895328522L1249.5199901785716,298.57737493515015L1250.27955625,333.9215441942215L1251.9657133928572,262.549195766449L1254.9502910714286,325.8752631545067L1256.5509473214286,-429.36660003662104L1257.2985830357143,292.69817638397217L1258.7998196428573,273.99261713027954L1259.0086008928572,-381.27978515624994L1259.9172964285715,278.39343762397766L1260.77429375,277.0650329589844L1261.329055357143,322.03559958934784L1262.1343544642857,321.3481647968292L1262.9078392857143,318.9856745004654L1264.1088285714286,294.79791736602783L1266.4133758928572,325.9365077614784L1267.7177616071428,324.952275454998L1269.6783169642858,331.2859123945236L1272.1101214285713,321.422225356102L1272.450136607143,327.29198014736176L1272.4580901785714,-445.9026641845703L1273.0764803571428,311.7624748945236L1276.27978125,317.54761278629303L1276.295688392857,310.58736515045166L1276.3732357142858,-454.79980468749994L1276.8544267857144,333.5299746990204L1278.7911214285714,320.1768649816513L1279.510919642857,272.32439112663263L1282.8036982142858,312.4175111055374L1284.340725892857,260.12991523742676L1284.517692857143,301.6175603866577L1285.0784196428572,327.50152015686035L1287.0548821428572,264.2665090560913L1291.2305071428573,-488.68943023681646L1291.5824526785714,314.52351212501526L1291.7633964285715,320.2903664112091L1294.747974107143,322.0544100999832L1297.2632910714285,309.85000813007355L1298.5617116071428,321.0000649690628L1298.6253401785714,308.9298150539398L1300.8026303571428,303.16574931144714L1301.2182044642857,320.7403737306595L1303.9562214285716,330.9452773928642L1305.2705491071429,-440.95935440063477L1305.580738392857,298.9970426559448L1307.2311044642859,319.99645268917084L1308.3286973214285,297.544401884079L1308.7025151785715,328.42228066921234L1309.7643169642856,255.4669108390808L1309.8856089285714,332.87459751963615L1312.1981098214285,-410.508586883545L1314.4628892857143,280.27995228767395L1314.6657053571428,325.87279176712036L1314.7710901785713,-413.9705963134765L1314.9619758928573,-529.3015861511232L1315.3218749999999,307.03580009937286L1316.2305705357144,303.34263944625854L1317.1213705357143,331.27750623226166L1318.4436517857143,312.86137998104095L1320.4380098214285,323.45435631275177L1320.9947598214285,305.64634943008423" style="fill: none;" fill="none"></path></g></g></g></g></g><g><g opacity="0.341997"><span fill="rgb(0, 0, 0)" stroke="none" stroke-width="1px">Alt + Scroll to Zoom</span></g></g></g><g transform="translate(51, 374)" clip-path="url(#clip_1)"><clipPath id="clip_1"><rect width="1391" height="26"></rect></clipPath><g><g><line x1="0" y1="0" x2="0" y2="5" style="visibility: inherit;" fill="rgb(0, 0, 0)" stroke="rgb(204, 204, 204)" stroke-width="1px"></line><line x1="99.41964285714285" y1="0" x2="99.41964285714285" y2="5" style="visibility: inherit;" fill="rgb(0, 0, 0)" stroke="rgb(204, 204, 204)" stroke-width="1px"></line><line x1="198.8392857142857" y1="0" x2="198.8392857142857" y2="5" style="visibility: inherit;" fill="rgb(0, 0, 0)" stroke="rgb(204, 204, 204)" stroke-width="1px"></line><line x1="298.25892857142856" y1="0" x2="298.25892857142856" y2="5" style="visibility: inherit;" fill="rgb(0, 0, 0)" stroke="rgb(204, 204, 204)" stroke-width="1px"></line><line x1="397.6785714285714" y1="0" x2="397.6785714285714" y2="5" style="visibility: inherit;" fill="rgb(0, 0, 0)" stroke="rgb(204, 204, 204)" stroke-width="1px"></line><line x1="497.0982142857143" y1="0" x2="497.0982142857143" y2="5" style="visibility: inherit;" fill="rgb(0, 0, 0)" stroke="rgb(204, 204, 204)" stroke-width="1px"></line><line x1="596.5178571428571" y1="0" x2="596.5178571428571" y2="5" style="visibility: inherit;" fill="rgb(0, 0, 0)" stroke="rgb(204, 204, 204)" stroke-width="1px"></line><line x1="695.9375" y1="0" x2="695.9375" y2="5" style="visibility: inherit;" fill="rgb(0, 0, 0)" stroke="rgb(204, 204, 204)" stroke-width="1px"></line><line x1="795.3571428571428" y1="0" x2="795.3571428571428" y2="5" style="visibility: inherit;" fill="rgb(0, 0, 0)" stroke="rgb(204, 204, 204)" stroke-width="1px"></line><line x1="894.7767857142858" y1="0" x2="894.7767857142858" y2="5" style="visibility: inherit;" fill="rgb(0, 0, 0)" stroke="rgb(204, 204, 204)" stroke-width="1px"></line><line x1="994.1964285714286" y1="0" x2="994.1964285714286" y2="5" style="visibility: inherit;" fill="rgb(0, 0, 0)" stroke="rgb(204, 204, 204)" stroke-width="1px"></line><line x1="1093.6160714285713" y1="0" x2="1093.6160714285713" y2="5" style="visibility: inherit;" fill="rgb(0, 0, 0)" stroke="rgb(204, 204, 204)" stroke-width="1px"></line><line x1="1193.0357142857142" y1="0" x2="1193.0357142857142" y2="5" style="visibility: inherit;" fill="rgb(0, 0, 0)" stroke="rgb(204, 204, 204)" stroke-width="1px"></line><line x1="1292.455357142857" y1="0" x2="1292.455357142857" y2="5" style="visibility: inherit;" fill="rgb(0, 0, 0)" stroke="rgb(204, 204, 204)" stroke-width="1px"></line><line x1="1391.875" y1="0" x2="1391.875" y2="5" style="visibility: inherit;" fill="rgb(0, 0, 0)" stroke="rgb(204, 204, 204)" stroke-width="1px"></line></g><g transform="translate(0, 8)"><text x="0" y="0" dx="0em" dy="0.95em" style="text-anchor: middle; visibility: hidden; font-family: Roboto, sans-serif; font-size: 12px; font-weight: 200;" fill="rgb(33, 33, 33)" stroke="none" stroke-width="1px">-50k</text><text x="99.41964285714285" y="0" dx="0em" dy="0.95em" style="text-anchor: middle; visibility: inherit; font-family: Roboto, sans-serif; font-size: 12px; font-weight: 200;" fill="rgb(33, 33, 33)" stroke="none" stroke-width="1px">0</text><text x="198.8392857142857" y="0" dx="0em" dy="0.95em" style="text-anchor: middle; visibility: inherit; font-family: Roboto, sans-serif; font-size: 12px; font-weight: 200;" fill="rgb(33, 33, 33)" stroke="none" stroke-width="1px">50k</text><text x="298.25892857142856" y="0" dx="0em" dy="0.95em" style="text-anchor: middle; visibility: inherit; font-family: Roboto, sans-serif; font-size: 12px; font-weight: 200;" fill="rgb(33, 33, 33)" stroke="none" stroke-width="1px">100k</text><text x="397.6785714285714" y="0" dx="0em" dy="0.95em" style="text-anchor: middle; visibility: inherit; font-family: Roboto, sans-serif; font-size: 12px; font-weight: 200;" fill="rgb(33, 33, 33)" stroke="none" stroke-width="1px">150k</text><text x="497.0982142857143" y="0" dx="0em" dy="0.95em" style="text-anchor: middle; visibility: inherit; font-family: Roboto, sans-serif; font-size: 12px; font-weight: 200;" fill="rgb(33, 33, 33)" stroke="none" stroke-width="1px">200k</text><text x="596.5178571428571" y="0" dx="0em" dy="0.95em" style="text-anchor: middle; visibility: inherit; font-family: Roboto, sans-serif; font-size: 12px; font-weight: 200;" fill="rgb(33, 33, 33)" stroke="none" stroke-width="1px">250k</text><text x="695.9375" y="0" dx="0em" dy="0.95em" style="text-anchor: middle; visibility: inherit; font-family: Roboto, sans-serif; font-size: 12px; font-weight: 200;" fill="rgb(33, 33, 33)" stroke="none" stroke-width="1px">300k</text><text x="795.3571428571428" y="0" dx="0em" dy="0.95em" style="text-anchor: middle; visibility: inherit; font-family: Roboto, sans-serif; font-size: 12px; font-weight: 200;" fill="rgb(33, 33, 33)" stroke="none" stroke-width="1px">350k</text><text x="894.7767857142858" y="0" dx="0em" dy="0.95em" style="text-anchor: middle; visibility: inherit; font-family: Roboto, sans-serif; font-size: 12px; font-weight: 200;" fill="rgb(33, 33, 33)" stroke="none" stroke-width="1px">400k</text><text x="994.1964285714286" y="0" dx="0em" dy="0.95em" style="text-anchor: middle; visibility: inherit; font-family: Roboto, sans-serif; font-size: 12px; font-weight: 200;" fill="rgb(33, 33, 33)" stroke="none" stroke-width="1px">450k</text><text x="1093.6160714285713" y="0" dx="0em" dy="0.95em" style="text-anchor: middle; visibility: inherit; font-family: Roboto, sans-serif; font-size: 12px; font-weight: 200;" fill="rgb(33, 33, 33)" stroke="none" stroke-width="1px">500k</text><text x="1193.0357142857142" y="0" dx="0em" dy="0.95em" style="text-anchor: middle; visibility: inherit; font-family: Roboto, sans-serif; font-size: 12px; font-weight: 200;" fill="rgb(33, 33, 33)" stroke="none" stroke-width="1px">550k</text><text x="1292.455357142857" y="0" dx="0em" dy="0.95em" style="text-anchor: middle; visibility: inherit; font-family: Roboto, sans-serif; font-size: 12px; font-weight: 200;" fill="rgb(33, 33, 33)" stroke="none" stroke-width="1px">600k</text><text x="1391.875" y="0" dx="0em" dy="0.95em" style="text-anchor: middle; visibility: hidden; font-family: Roboto, sans-serif; font-size: 12px; font-weight: 200;" fill="rgb(33, 33, 33)" stroke="none" stroke-width="1px">650k</text></g><line x1="0" y1="0" x2="1391.875" y2="0" fill="rgb(0, 0, 0)" stroke="rgb(204, 204, 204)" stroke-width="1px"></line></g></g></g></g></svg>