<svg viewBox="0 0 1443 400" xmlns="http://www.w3.org/2000/svg"><g><g><g><g><g><line x1="51.125" y1="374" x2="46.125" y2="374" style="visibility: inherit;" fill="rgb(0, 0, 0)" stroke="rgb(204, 204, 204)" stroke-width="1px"></line><line x1="51.125" y1="340" x2="46.125" y2="340" style="visibility: inherit;" fill="rgb(0, 0, 0)" stroke="rgb(204, 204, 204)" stroke-width="1px"></line><line x1="51.125" y1="306" x2="46.125" y2="306" style="visibility: inherit;" fill="rgb(0, 0, 0)" stroke="rgb(204, 204, 204)" stroke-width="1px"></line><line x1="51.125" y1="272" x2="46.125" y2="272" style="visibility: inherit;" fill="rgb(0, 0, 0)" stroke="rgb(204, 204, 204)" stroke-width="1px"></line><line x1="51.125" y1="238" x2="46.125" y2="238" style="visibility: inherit;" fill="rgb(0, 0, 0)" stroke="rgb(204, 204, 204)" stroke-width="1px"></line><line x1="51.125" y1="203.99999999999997" x2="46.125" y2="203.99999999999997" style="visibility: inherit;" fill="rgb(0, 0, 0)" stroke="rgb(204, 204, 204)" stroke-width="1px"></line><line x1="51.125" y1="170.00000000000003" x2="46.125" y2="170.00000000000003" style="visibility: inherit;" fill="rgb(0, 0, 0)" stroke="rgb(204, 204, 204)" stroke-width="1px"></line><line x1="51.125" y1="136" x2="46.125" y2="136" style="visibility: inherit;" fill="rgb(0, 0, 0)" stroke="rgb(204, 204, 204)" stroke-width="1px"></line><line x1="51.125" y1="101.99999999999999" x2="46.125" y2="101.99999999999999" style="visibility: inherit;" fill="rgb(0, 0, 0)" stroke="rgb(204, 204, 204)" stroke-width="1px"></line><line x1="51.125" y1="67.99999999999999" x2="46.125" y2="67.99999999999999" style="visibility: inherit;" fill="rgb(0, 0, 0)" stroke="rgb(204, 204, 204)" stroke-width="1px"></line><line x1="51.125" y1="34.000000000000014" x2="46.125" y2="34.000000000000014" style="visibility: inherit;" fill="rgb(0, 0, 0)" stroke="rgb(204, 204, 204)" stroke-width="1px"></line><line x1="51.125" y1="0" x2="46.125" y2="0" style="visibility: inherit;" fill="rgb(0, 0, 0)" stroke="rgb(204, 204, 204)" stroke-width="1px"></line></g><g transform="translate(41.125, 0)"><text x="0" y="374" dx="0em" dy="0.3em" style="text-anchor: end; visibility: hidden; font-family: Roboto, sans-serif; font-size: 12px; font-weight: 200;" fill="rgb(33, 33, 33)" stroke="none" stroke-width="1px">-0.5</text><text x="0" y="340" dx="0em" dy="0.3em" style="text-anchor: end; visibility: inherit; font-family: Roboto, sans-serif; font-size: 12px; font-weight: 200;" fill="rgb(33, 33, 33)" stroke="none" stroke-width="1px">0</text><text x="0" y="306" dx="0em" dy="0.3em" style="text-anchor: end; visibility: inherit; font-family: Roboto, sans-serif; font-size: 12px; font-weight: 200;" fill="rgb(33, 33, 33)" stroke="none" stroke-width="1px">0.5</text><text x="0" y="272" dx="0em" dy="0.3em" style="text-anchor: end; visibility: inherit; font-family: Roboto, sans-serif; font-size: 12px; font-weight: 200;" fill="rgb(33, 33, 33)" stroke="none" stroke-width="1px">1</text><text x="0" y="238" dx="0em" dy="0.3em" style="text-anchor: end; visibility: inherit; font-family: Roboto, sans-serif; font-size: 12px; font-weight: 200;" fill="rgb(33, 33, 33)" stroke="none" stroke-width="1px">1.5</text><text x="0" y="203.99999999999997" dx="0em" dy="0.3em" style="text-anchor: end; visibility: inherit; font-family: Roboto, sans-serif; font-size: 12px; font-weight: 200;" fill="rgb(33, 33, 33)" stroke="none" stroke-width="1px">2</text><text x="0" y="170.00000000000003" dx="0em" dy="0.3em" style="text-anchor: end; visibility: inherit; font-family: Roboto, sans-serif; font-size: 12px; font-weight: 200;" fill="rgb(33, 33, 33)" stroke="none" stroke-width="1px">2.5</text><text x="0" y="136" dx="0em" dy="0.3em" style="text-anchor: end; visibility: inherit; font-family: Roboto, sans-serif; font-size: 12px; font-weight: 200;" fill="rgb(33, 33, 33)" stroke="none" stroke-width="1px">3</text><text x="0" y="101.99999999999999" dx="0em" dy="0.3em" style="text-anchor: end; visibility: inherit; font-family: Roboto, sans-serif; font-size: 12px; font-weight: 200;" fill="rgb(33, 33, 33)" stroke="none" stroke-width="1px">3.5</text><text x="0" y="67.99999999999999" dx="0em" dy="0.3em" style="text-anchor: end; visibility: inherit; font-family: Roboto, sans-serif; font-size: 12px; font-weight: 200;" fill="rgb(33, 33, 33)" stroke="none" stroke-width="1px">4</text><text x="0" y="34.000000000000014" dx="0em" dy="0.3em" style="text-anchor: end; visibility: inherit; font-family: Roboto, sans-serif; font-size: 12px; font-weight: 200;" fill="rgb(33, 33, 33)" stroke="none" stroke-width="1px">4.5</text><text x="0" y="0" dx="0em" dy="0.3em" style="text-anchor: end; visibility: hidden; font-family: Roboto, sans-serif; font-size: 12px; font-weight: 200;" fill="rgb(33, 33, 33)" stroke="none" stroke-width="1px">5</text></g><line x1="51.125" y1="0" x2="51.125" y2="374" fill="rgb(0, 0, 0)" stroke="rgb(204, 204, 204)" stroke-width="1px"></line></g></g><g transform="translate(51, 0)" clip-path="url(#clip_0)"><clipPath id="clip_0"><rect width="1391" height="374"></rect></clipPath><g><g><g><line x1="0" y1="0" x2="0" y2="374" fill="rgb(0, 0, 0)" stroke="rgb(66, 66, 66)" stroke-width="1px" opacity="0.25"></line><line x1="99.41964285714285" y1="0" x2="99.41964285714285" y2="374" fill="rgb(0, 0, 0)" stroke="rgb(66, 66, 66)" stroke-width="1px" opacity="0.25"></line><line x1="198.8392857142857" y1="0" x2="198.8392857142857" y2="374" fill="rgb(0, 0, 0)" stroke="rgb(66, 66, 66)" stroke-width="1px" opacity="0.25"></line><line x1="298.25892857142856" y1="0" x2="298.25892857142856" y2="374" fill="rgb(0, 0, 0)" stroke="rgb(66, 66, 66)" stroke-width="1px" opacity="0.25"></line><line x1="397.6785714285714" y1="0" x2="397.6785714285714" y2="374" fill="rgb(0, 0, 0)" stroke="rgb(66, 66, 66)" stroke-width="1px" opacity="0.25"></line><line x1="497.0982142857143" y1="0" x2="497.0982142857143" y2="374" fill="rgb(0, 0, 0)" stroke="rgb(66, 66, 66)" stroke-width="1px" opacity="0.25"></line><line x1="596.5178571428571" y1="0" x2="596.5178571428571" y2="374" fill="rgb(0, 0, 0)" stroke="rgb(66, 66, 66)" stroke-width="1px" opacity="0.25"></line><line x1="695.9375" y1="0" x2="695.9375" y2="374" fill="rgb(0, 0, 0)" stroke="rgb(66, 66, 66)" stroke-width="1px" opacity="0.25"></line><line x1="795.3571428571428" y1="0" x2="795.3571428571428" y2="374" fill="rgb(0, 0, 0)" stroke="rgb(66, 66, 66)" stroke-width="1px" opacity="0.25"></line><line x1="894.7767857142858" y1="0" x2="894.7767857142858" y2="374" fill="rgb(0, 0, 0)" stroke="rgb(66, 66, 66)" stroke-width="1px" opacity="0.25"></line><line x1="994.1964285714286" y1="0" x2="994.1964285714286" y2="374" fill="rgb(0, 0, 0)" stroke="rgb(66, 66, 66)" stroke-width="1px" opacity="0.25"></line><line x1="1093.6160714285713" y1="0" x2="1093.6160714285713" y2="374" fill="rgb(0, 0, 0)" stroke="rgb(66, 66, 66)" stroke-width="1px" opacity="0.25"></line><line x1="1193.0357142857142" y1="0" x2="1193.0357142857142" y2="374" fill="rgb(0, 0, 0)" stroke="rgb(66, 66, 66)" stroke-width="1px" opacity="0.25"></line><line x1="1292.455357142857" y1="0" x2="1292.455357142857" y2="374" fill="rgb(0, 0, 0)" stroke="rgb(66, 66, 66)" stroke-width="1px" opacity="0.25"></line><line x1="1391.875" y1="0" x2="1391.875" y2="374" fill="rgb(0, 0, 0)" stroke="rgb(66, 66, 66)" stroke-width="1px" opacity="0.25"></line></g><g><line x1="0" y1="374" x2="1391.875" y2="374" fill="rgb(0, 0, 0)" stroke="rgb(66, 66, 66)" stroke-width="1px" opacity="0.25"></line><line x1="0" y1="340" x2="1391.875" y2="340" fill="rgb(0, 0, 0)" stroke="rgb(66, 66, 66)" stroke-width="1px" opacity="0.25"></line><line x1="0" y1="306" x2="1391.875" y2="306" fill="rgb(0, 0, 0)" stroke="rgb(66, 66, 66)" stroke-width="1px" opacity="0.25"></line><line x1="0" y1="272" x2="1391.875" y2="272" fill="rgb(0, 0, 0)" stroke="rgb(66, 66, 66)" stroke-width="1px" opacity="0.25"></line><line x1="0" y1="238" x2="1391.875" y2="238" fill="rgb(0, 0, 0)" stroke="rgb(66, 66, 66)" stroke-width="1px" opacity="0.25"></line><line x1="0" y1="203.99999999999997" x2="1391.875" y2="203.99999999999997" fill="rgb(0, 0, 0)" stroke="rgb(66, 66, 66)" stroke-width="1px" opacity="0.25"></line><line x1="0" y1="170.00000000000003" x2="1391.875" y2="170.00000000000003" fill="rgb(0, 0, 0)" stroke="rgb(66, 66, 66)" stroke-width="1px" opacity="0.25"></line><line x1="0" y1="136" x2="1391.875" y2="136" fill="rgb(0, 0, 0)" stroke="rgb(66, 66, 66)" stroke-width="1px" opacity="0.25"></line><line x1="0" y1="101.99999999999999" x2="1391.875" y2="101.99999999999999" fill="rgb(0, 0, 0)" stroke="rgb(66, 66, 66)" stroke-width="1px" opacity="0.25"></line><line x1="0" y1="67.99999999999999" x2="1391.875" y2="67.99999999999999" fill="rgb(0, 0, 0)" stroke="rgb(66, 66, 66)" stroke-width="1px" opacity="0.25"></line><line x1="0" y1="34.000000000000014" x2="1391.875" y2="34.000000000000014" fill="rgb(0, 0, 0)" stroke="rgb(66, 66, 66)" stroke-width="1px" opacity="0.25"></line><line x1="0" y1="0" x2="1391.875" y2="0" fill="rgb(0, 0, 0)" stroke="rgb(66, 66, 66)" stroke-width="1px" opacity="0.25"></line></g></g></g><g><g><line x1="0" y1="340" x2="1391.875" y2="340" fill="rgb(0, 0, 0)" stroke="rgb(153, 153, 153)" stroke-width="1.5px"></line></g></g><g><g><line x1="99.41964285714285" y1="0" x2="99.41964285714285" y2="374" fill="rgb(0, 0, 0)" stroke="rgb(153, 153, 153)" stroke-width="1.5px"></line></g></g><g><g><g><g><g><path stroke="rgb(255, 112, 67)" stroke-width="2px" d="M101.67050357142857,307.0809842348099L103.277125,217.97952710257636L104.77438482142857,257.2747600391263L107.61380982142856,278.26903737140543L109.94818303571428,273.2490690429684L110.2643375,246.4379803892207L111.01595,223.23738389651513L111.34403482142856,236.12988898953154L111.45538482142858,228.8994156055311L111.90476160714286,249.96661266312216L112.01412321428572,262.30706483135776L112.80152678571427,219.8659254636981L113.32049732142858,243.90624274948695L114.26100714285714,217.6761200092317L115.90540803571429,232.27400129512665L116.42835535714286,238.4404851187883L116.70673035714285,251.07042222742825L117.81625357142856,258.9529865030045L118.73091428571428,255.91856899198777L119.20216339285714,256.7652201692177L119.26181517857142,257.02114376494205L119.68335446428571,261.6977811380943L120.18840625,274.54332583116206L120.58608482142857,273.80147214878315L121.33769732142858,271.6981185204998L122.92045803571428,277.9065547278529L123.33404374999999,285.9904708017129L123.98424821428571,291.85956453362354L124.22683214285713,298.3916840550653L125.07985267857143,305.22280121738896L125.87322142857143,306.9611211128677L126.30669107142857,295.85044864662007L128.53965625,302.9456906000932L131.71313125,301.9360676915479L132.95587678571428,304.7633056560698L132.98967946428573,301.4411789247016L136.16713125,302.3939924108705L137.61468125,308.07448892981455L137.8334044642857,300.6921365318961L138.1952919642857,307.7625689338943L138.4259455357143,302.3036868097735L140.85973839285714,305.7437026690147L143.48640535714287,308.3417886462236L144.5601375,309.92313757063505L148.64827321428572,314.6851743637617L149.00618392857143,314.23331449515933L150.01231071428572,313.3278403206074L153.718675,312.2973127562841L154.8838732142857,303.19898291790014L157.6994375,298.50927489716787L158.05734821428572,301.802140733618L158.20647767857145,300.89820953328564L158.34765357142857,305.29910916276447L158.42917767857142,307.51527177009694L159.1807901785714,310.0790229672244L159.66794642857144,303.9376394993769L161.8750625,305.70863216296146L166.63328660714285,304.7129165106241L166.75457857142857,299.8738185351105L168.91596160714286,299.09222870774386L169.96185624999998,304.3394901806643L170.10899732142857,294.24022552304547L170.41322142857143,299.554125448671L172.38173035714286,300.8500313712503L172.77344375,297.72370805731845L172.982225,302.39922946881114L173.11942410714283,285.0762616288775L174.33035535714285,293.4940457324406L174.47948482142857,297.8098749915961L175.74807946428572,302.4409699510731L176.64683303571428,307.92969349724643L177.01667410714285,310.68228939515916L178.3827,313.80127634133663L179.61550357142858,314.8065907800333L180.0290892857143,313.407322390459L180.1821955357143,317.6558726999624L180.82842321428572,320.6385685200382L181.88425982142857,321.44665751263295L182.95600357142857,323.45442969786654L183.19262232142856,319.92302631804534L183.99593303571427,321.698171541106L185.37985446428573,315.1722861386597L187.41596875,302.6515294736261L187.47164375,309.19210102925587L187.60287767857145,313.42025846123784L187.8295544642857,316.44286750667624L188.36045535714288,313.97042744764155L192.65538392857144,317.29881367007835L192.99937589285716,319.9316521939084L193.03914375000002,320.41080127301876L193.22804107142855,323.81190675133536L193.47857857142859,324.80553787776523L194.1168526785714,320.76396521993263L195.23830625000002,320.8353680855017L195.3536330357143,319.3946930308908L197.17897767857144,313.47544880729737L197.47524821428573,317.12555797659996L198.3461642857143,315.988735546415L200.22519553571428,319.5110389756151L202.75840803571427,322.6602255602725L202.84192053571428,321.7060742058826L203.33901875,324.4445220993332L203.60944017857145,326.63659068499004L204.9675125,328.3033030773917L206.87438125000003,329.78515686368655L208.3159660714286,330.51954177841066L209.07553214285716,329.977149028155L209.51099017857143,331.67576268009014L209.7734580357143,332.1389261459769L209.94644821428574,327.81632854734033L210.03194910714288,329.69120978671947L210.20891607142858,331.33499372839157L210.73385178571428,332.71088933421106L211.72605982142858,332.58088195501L212.622825,332.91304623626496L214.63507857142855,333.97771286005644L216.46638839285714,334.6203102452377L219.2799642857143,335.1322196857407L219.58021160714287,335.72668594907094L220.62809464285715,336.33491974654237L222.18699464285714,333.59123220111366L225.9251732142857,334.3541590675956L226.8577294642857,331.89249237419835L228.52201428571428,332.8939773692035L229.49433839285714,330.8261552058318L230.1007982142857,332.2774256643788L230.3712196428571,333.52434827752063L230.52034910714283,332.7443957834809L231.23418214285715,331.9475748824569L231.97386428571428,332.8113035072879L232.00567857142858,329.04959393421706L234.30028392857142,329.5059765289617L234.42754107142858,331.2626685821331L235.00417499999998,332.60125129557196L235.79754375000002,329.98480300217085L235.86117232142857,330.83012011932703L236.27276964285716,332.20509855975615L236.74998392857145,331.9094273490104L237.53341071428574,332.8195067200973L239.32296428571428,332.2536873582136L239.77631785714286,330.7706892898187L241.1045642857143,328.8984430400931L245.4730633928571,300.6297190164247L248.0639392857143,303.5209479550298L248.76783035714286,310.0687615599057L249.53733839285712,314.742846532728L249.67254910714283,319.58791252896447L252.5497535714286,321.3069336527606L254.41486607142855,323.9602491588609L254.69125267857143,326.78392290721075L254.96962767857144,329.01832596381297L256.6219821428571,329.05603308216564L256.9600089285714,330.4047630338735L259.43158125,323.3594749378257L261.91309553571426,290.5662082995647L263.4262625,299.71671713317824L266.2537571428572,306.1793130352131L267.00338125,309.21970212571074L269.63601339285714,309.76635191529795L270.86285178571427,313.77389349293554L271.22076250000003,315.05153631172055L271.2585419642857,319.4489361355819L271.72979107142856,323.1865228914315L272.1990517857143,322.7984912556882L274.2172705357143,324.7383972058674L275.5057491071429,327.1563245286529L276.05255714285715,328.2229916099695L277.8838669642857,328.5712270930598L278.4624892857143,330.0170558965357L278.71700357142856,329.64101919938344L280.00945892857146,310.31462209549915L281.19851785714286,315.90908733806907L282.85484910714285,316.7727047268701L282.8806982142857,318.21041765722845L283.84506875,320.4557214610832L286.35442053571427,319.47510168020386L299.84168928571427,319.18947024396624L300.87366517857146,322.62570975821467L302.5558455357143,286.93657721361524L302.5657875,289.8340982062102L302.7268473214286,294.57051640848164L303.83835892857144,298.918064142067L306.04746339285714,305.46190225664674L306.8885535714286,311.01266538170097L307.03370625,314.7513997361431L307.13113749999997,315.75228281858523L308.35399910714284,317.64068000748125L311.9808276785714,319.8507404028127L312.11206160714283,313.4795796631772L312.40833214285715,317.32565592400226L313.4204241071428,317.2924195899327L313.90360357142856,316.30819841017404L317.97185535714283,309.22786828510027L318.19455535714286,314.21893142169364L320.6581741071429,318.8235766649695L320.7536169642857,311.1964556026818L327.6255026785714,314.10092239764225L328.8046196428571,317.0187900240174L328.9338651785714,317.58667828042917L330.38936875,313.20252348104805L330.5782660714286,313.89062322075915L331.2543196428571,316.07466616150344L333.5807392857143,316.55213855836075L335.19332589285716,318.97399395015464L336.08810267857143,315.7203084890574L336.4420366071428,319.16307495749237L337.0484964285714,321.3661826270122L340.0032482142857,318.0464396490494L342.92419732142855,318.13386864772156L344.55269107142857,321.1965845569826L344.89469464285713,322.93763953803835L348.135775,324.5406292705445L348.89136428571425,317.3718639396595L353.16044375,317.05241268340484L356.48901339285715,319.6163139658271L356.52878125,322.2672723247289L356.5784910714286,315.26485917676916L359.9030839285714,307.7316951569671L360.31468125,313.6547011736436L361.89545357142856,310.4103451254689L363.1859205357143,306.1331836130399L364.2318151785714,310.77832506864695L367.7532589285715,312.67540105795405L367.8626205357143,305.50740401439305L368.0554946428572,312.03779582375233L368.18871696428573,310.33268669600443L368.6142330357143,312.8079312114331L373.76417053571424,317.22188599454665L374.23343125,321.0065538767759L377.4566160714286,321.47822634250196L378.2678803571428,324.5600924978278L378.4746732142857,324.6469176204699L380.40739107142855,327.48583770378013L382.68012410714283,326.60737731920545L387.2534276785714,326.2364882697015L389.2756232142857,328.5218099192261L389.48639285714285,330.39036848429674L391.38331964285715,331.912305780024L391.46882053571426,332.1565119805103L397.52745357142857,323.3284113551907L399.4939741071429,325.857201745767L402.0371285714285,328.05513811561156L402.27175892857144,330.0311553901647L404.1627205357143,331.4721497337989L406.6760491071429,332.2737543734687L407.5231044642857,332.8649265768351L410.8655928571428,328.0344139339305L413.10253482142855,326.91481034769834L416.1865321428572,328.9236844266591L417.22248482142857,327.35728264531593L417.7116294642857,327.40583923404296L418.55073124999996,326.7724596376807L418.99811964285715,326.29260157073264L420.4138553571429,326.32558112164116L420.9626517857143,326.3182639147423L421.32652767857144,326.07481325591266L421.3802142857143,328.0055958463721L423.4759803571429,329.4400336074013L423.51773660714287,330.54952951687L426.4347089285714,330.81334340705416L427.48060357142856,328.33445046054476L428.63585982142854,329.4799660142831L431.3798419642857,311.16091058227L432.2408160714285,308.358392314693L434.5692241071428,312.40693366653176L434.71437678571425,305.88007249932645L437.9793178571428,311.34216689667034L438.1920758928572,313.3470268456215L438.43267142857144,295.56758014425236L444.9903910714285,300.25706184756433L446.0203785714286,300.99579759320955L446.24307857142855,301.4040020138529L447.2531821428571,308.07071179393984L447.4400910714286,308.2456967134798L449.28333125,304.5672721782943L449.6074392857143,291.57107781725085L453.2998848214286,277.03184928383L453.84868125,286.5340488106852L454.50683928571425,292.90923870808643L454.52672321428577,298.04901875024444L455.5427919642857,300.88621526531705L455.8470160714286,298.7862839664803L456.3461026785714,304.36744955506214L456.6702107142857,306.21747117301857L457.3959741071429,309.40815180985953L459.90930267857146,294.0407468354608L460.2692017857143,299.11933135794845L460.7285205357143,299.4272137149751L460.81402142857144,303.49273256179333L461.4443419642857,307.553746074173L468.26651785714284,304.2922312495972L468.87098928571424,289.1179079435559L468.95649017857147,280.83460965333717L469.3919482142857,287.1625706877576L470.58896071428575,285.08144929617777L470.88920803571426,282.32709734130015L471.35051517857147,269.49182275524225L474.9892741071428,266.85800345413276L475.1423803571428,269.5011681689611L476.3493348214286,269.33502543559L477.3832991071428,269.1979608582682L479.09132857142856,275.7147207297664L480.0895017857143,285.10890424551815L480.94252232142856,285.7841312909305L482.1812910714286,284.9156249542379L483.4578392857143,283.79743626748274L484.05435714285716,278.8350380185028L485.61126874999997,272.9766706087415L487.0110973214286,265.28650111025365L487.5419982142857,268.791458750294L490.0294776785714,262.7181900219332L491.64206428571424,249.87809987673845L493.79350535714286,254.19900709636755L494.3184410714286,258.363876249375L495.61089642857144,259.32938987889446L496.2372401785715,260.7369726727689L496.42216071428567,272.74136999688824L496.44403303571426,273.7748929774147L496.5931625,266.60946382803775L497.34875178571434,263.6622774261082L497.6251383928571,253.26093995236116L498.14808571428574,258.6585054847618L499.54990267857147,239.76174434447455L500.9358125,248.2947519495023L502.4430142857143,263.02803924671275L506.54109196428567,265.0953122853555L509.4421571428572,268.6766896628791L510.41448125,271.78070409961174L511.26551339285714,282.30765052133904L511.75068125,264.84125820393643L514.0393214285714,275.54271960731575L515.5425464285714,284.6451118268667L518.0101419642857,292.40964023892866L518.2427839285715,300.8325107405566L518.6961375,297.82969129164877L519.2787366071428,303.33767170969537L521.4600035714286,306.41975434830897L521.9789741071429,302.61438977091404L522.1300919642857,270.5139153430374L523.8679473214286,275.24593895510924L523.9693553571428,284.61282806266223L524.0309955357143,286.8008009804795L524.3650455357143,296.3063418637522L525.4566732142857,301.91167204942764L525.5700116071429,303.3804289529042L526.1923785714285,306.9397641761555L527.0414223214285,311.4122067486011L527.1110160714286,305.32358773507775L527.20049375,295.35480095512156L529.1868982142857,297.90804392152216L531.1335348214285,303.83209657711336L531.3781071428572,303.66874084506475L531.4655964285714,307.19877212551467L531.9845669642857,311.62284650252053L532.2748723214286,315.2632172612014L534.68878125,318.12467583876156L535.6312794642857,319.69255101570525L535.6571285714285,322.3099065175775L536.0607723214285,313.86741249967605L536.8342571428572,317.18334144917316L536.8441991071429,320.8428489968553L537.9775830357144,321.02367180231215L540.4929,323.9944137068033L541.4214794642858,324.9351161624146L541.9782294642857,326.3180436297379L542.6383758928572,327.60390084021265L544.3623125,329.33716886765137L545.3664508928572,330.7531521670133L546.2850883928571,331.52795388516665L548.4524366071428,330.01731575105094L548.6830901785714,330.83613123157426L550.8504383928572,328.1086572063669L551.6040392857143,328.37302947860593L551.7094241071428,326.6083356207342L552.5922705357143,326.48516779468304L553.4572214285714,326.9550812071629L555.2984732142857,328.7522843788916L556.8255589285714,330.26718708363006L557.6447767857143,291.7201133448826L559.4422839285714,300.3830234888352L559.7206589285714,304.83905884290994L561.2835357142857,309.4343889925103L562.41493125,314.0316174962696L563.0293446428572,318.0500807971618L564.7831071428571,318.709736912319L565.5367080357142,319.39952483087296L566.5488,322.8508120273313L566.6760571428572,325.2721337810962L568.2687598214286,326.62596402651536L568.3343767857143,327.40940599112884L568.4934482142856,328.2475628909999L570.3545839285714,328.3174382255502L572.15805625,329.6538612688404L572.3071857142857,330.89875197667453L572.8798428571429,331.72759262528876L573.2596258928571,331.56519399330506L573.2974053571429,331.77025406754404L573.3371732142857,332.4822721417458L573.5300473214286,333.0874468156267L574.0172035714286,333.7012393469468L576.7591973214286,333.88504972416996L577.1946553571428,332.26097820487695L578.2564571428571,323.59364741871417L578.9126267857143,326.0742612765603L579.4296089285715,327.3906718064446L580.4078982142858,328.1887215391078L580.4953875,329.8559398067219L581.35835,322.5416737566171L582.5991071428572,324.65110034901124L582.7601669642858,282.9414954754371L583.0763214285714,293.49563509008556L583.9114464285715,301.6736884874603L585.7586633928572,307.14864800075696L586.3512044642857,298.1172060783705L587.0053857142857,305.37733724443126L587.0153276785715,310.5574061014494L587.59395,315.9256008655421L588.3296553571429,319.7200330865854L589.1150705357143,323.14068368951274L590.3876419642858,325.94476338132057L591.8431455357144,327.98941741608644L594.1834839285715,329.84230947870464L595.0822375,330.78953036966686L595.3884499999999,331.60854834558774L595.8418035714286,332.09111792637674L596.9294544642856,332.51642497812725L596.9632571428572,330.60337845830134L598.1960607142857,331.72405538736194L599.9557883928571,316.8584458174579L600.0393008928571,320.7059517009872L602.0058214285715,323.52040969362406L604.4038232142857,326.18490712468264L605.9189785714285,323.0371241937036L606.0700964285714,325.75183108110866L606.8614767857143,328.129161000527L609.0884767857143,329.93195234559147L610.2139071428571,331.3679108436677L611.1822544642857,332.1276118072489L612.1724741071429,333.150656246155L613.1428098214286,333.4456929866548L616.0657473214286,334.3231295320651L616.7099866071428,316.04898786332296L617.9447785714286,301.0307441694426L618.3384803571429,308.2064141069163L621.0188339285714,314.18037811790384L621.2176732142857,318.57196394304015L621.2753366071429,321.84271624048216L621.5596767857143,324.7961177685632L622.2317535714285,327.17804787228687L623.5083017857144,328.8444323831414L624.6496392857143,330.26966908821385L626.66388125,331.845904788863L628.6403437499999,324.1635107211203L629.1374419642857,326.8231319546247L629.8691705357143,329.05866697754817L630.2390116071429,330.2104929890343L630.7878080357143,331.314514647413L630.8554133928571,330.7026942932516L632.7463750000001,332.0126425505805L632.9332839285714,332.9433561677637L637.7968928571429,333.6336958142044L637.88239375,300.8887079025842L638.8229035714286,307.94668161595166L642.3423589285713,312.0137842633271L642.5093839285714,317.0310406685228L642.67044375,318.2219341516777L643.3842767857143,320.5595664000737L646.4404366071428,323.9380018704118L647.1025714285714,325.49665099326626L647.4008303571429,282.81933274224485L649.5204571428571,293.6221011319167L649.6397607142857,301.76220040030535L649.9201241071429,308.8551377744059L650.35359375,313.61045150880653L652.5030464285715,317.2019816015136L655.1177830357143,321.17988766821L655.2629357142857,323.9038478799007L656.7244044642857,326.23110291896995L657.0723732142857,327.8656231088538L657.4163651785714,181.66298951491507L659.7189241071428,212.7949111722691L660.5103044642857,237.19848631324635L661.6675491071428,256.9693379402341L661.82264375,272.77795131207955L662.3316723214285,285.523083711278L663.1389598214286,294.97514127064676L664.8251169642857,303.1713864524677L665.9783848214286,309.69109469211213L667.4378651785714,313.609302552987L670.9990767857142,317.9544137616546L673.9637705357143,320.92805822289716L676.3717142857142,324.1745939530669L677.3997133928572,326.8086621177386L679.4258857142858,328.79362943269336L679.5630848214286,329.6629014392497L684.1304232142858,330.36896769442575L686.3017482142858,328.4945710757448L693.8397455357143,330.2155558712541L695.9653375,331.18761871037947L696.0329428571429,331.86154579542534L696.31330625,332.5884239389297L697.0032785714285,333.4584122936961L697.8006241071429,267.9638905557821L698.8703794642857,276.2229843880995L699.9421232142857,287.7930210527789L700.5426178571429,296.8650682089338L701.0973794642858,232.36169835071635L702.3023455357143,252.98586363109646L706.472005357143,269.3219574253773L706.89155625,272.753027594965L707.933474107143,285.6240051562637L708.0507892857142,294.5044589062572L709.8224473214286,302.15498990575793L709.9695883928572,309.2073141933308L710.4706633928572,314.21311724192503L711.5404187500001,318.49198154216293L711.8128285714286,321.4550790894451L712.3775321428571,324.7535839897134L714.6264044642858,318.65055872772047L714.6721375000001,322.005501272471L715.2030383928571,324.7255053418408L716.0003839285714,326.94639341016847L717.0741160714285,324.42723556343907L717.8853803571429,323.75371071485034L720.44841875,326.37100320289414L722.5183357142856,328.00629340394244L724.0096303571429,252.0324108980807L725.196700892857,268.8314457154443L727.2904785714285,282.2554616176025L728.4914678571429,291.81617269459855L728.5391892857143,300.54441886380107L731.5933607142857,307.5447586177571L731.6728964285714,310.28032715310917L733.5360205357143,313.7022774671735L734.0271535714286,318.34095079344286L734.3850642857143,236.42615190062338L735.3931794642858,254.2257092349801L735.8385794642858,269.6104628724315L738.0854633928572,282.5683355079062L739.6264678571429,292.442841003018L740.2190089285714,301.02573810988855L740.8135383928571,307.81243618507534L742.1497383928572,312.99132292810555L743.0465035714285,317.28241330459497L743.4501473214285,320.8040980881435L745.8521258928572,242.66461369085175L746.6057267857143,259.79686621179474L747.0590803571429,272.1879150656882L747.3374553571429,284.5022011707642L748.3117678571429,292.98325983368704L749.8249348214285,300.54140722102596L750.3359517857143,231.23765000777783L752.1911223214287,251.28170269789177L753.1515160714285,267.660004020229L753.1892955357143,281.34178426305056L753.294680357143,290.3582027509976L753.5452178571429,299.3040529751911L754.6010544642857,306.42986117912403L756.2593741071429,312.2164322782602L757.3152107142856,316.6364750185844L758.1543125,318.8353990609834L763.4752517857142,321.9910478707464L763.5866017857144,237.00428086251515L763.7039169642857,253.75175640368857L766.0144294642856,270.02208265967687L768.1658705357144,193.29517238384497L770.4863250000001,221.88415704207432L770.9516089285713,244.2482924782181L771.5660223214286,259.92796871844484L771.7191285714287,274.7586701932236L774.3875517857143,286.6943101563203L774.4312964285715,295.36884885852714L775.3877133928572,301.370935963195L777.55705,307.2550662291856L779.7124678571429,210.17405191523326L780.1379839285714,234.48678285847106L780.2612642857143,254.73686502154663L782.3073205357143,270.7327282907645L782.400775,282.95359739916165L782.8799776785714,188.29415271486158L785.6776464285714,216.41110392256826L785.7611589285715,239.40488240992426L786.9681133928572,257.6688404033613L787.9742401785714,272.0453867157326L791.3624616071429,284.3912066749752L791.7323026785714,293.6411612575865L797.5244910714287,302.0956329898529L799.9801562499999,307.79380793940965L800.2644964285715,312.7803136652465L803.2470857142857,317.56537672446217L803.9827910714286,320.762980100044L806.4702705357143,322.72639937124916L807.6116080357142,325.1269771231991L809.6735714285714,326.43640657653657L811.3935312499999,328.0587513755977L812.0139098214285,329.3689488896704L812.2445633928571,325.65697849821856L812.2883080357143,325.1988600932106L813.3799357142857,323.3247977846897L814.6206928571429,321.6425509734182L819.1840544642856,318.6689139829658L820.1325178571428,319.6807438315219L821.1585285714286,321.22408776531745L821.7789071428572,303.35650028427546L825.3341535714286,306.9015091787982L827.5730839285715,309.7302871569958L829.5555116071428,312.2270385444138L832.1304803571428,315.81447071790484L832.6931955357143,319.40435348915884L833.0252571428572,320.17836056127413L833.7927767857142,321.84698357164274L835.1886285714286,323.1785707869483L837.05970625,321.7848759729348L837.336092857143,324.40399606733973L839.2429616071429,325.4931502120452L839.7778392857143,327.52246777429235L839.8374910714286,319.17588203918183L841.1319348214286,321.13232432422035L841.8557098214285,317.0153005490064L842.0287000000001,319.7562416847038L844.5022607142857,322.50406374180216L845.35528125,323.6810431968681L848.1410196428571,314.3040319833368L848.3418473214285,317.8977929833102L849.2306589285714,319.28941306134607L852.4439017857144,319.8861873361313L852.81573125,322.41445459626857L853.34464375,323.7289033429046L855.0626151785715,95.86644176612062L858.3335214285714,144.0079137879194L861.3996232142857,177.99178551813608L865.3247107142857,208.3151219302865L866.4859321428572,232.4915134163262L866.8100401785714,251.31294804823884L868.3589982142857,267.62024964700134L877.5314544642857,145.4374549055894L879.8777580357144,173.38606831747683L879.8976419642856,204.924725546983L882.1365723214286,229.05772507154714L884.0851973214286,110.98693246812637L884.0951392857143,149.40056582427832L884.2383035714284,159.5651918104236L884.3774910714286,184.30137658524075L885.0217303571428,208.63317742671617L888.8573401785715,233.77576538106638L889.9608982142857,128.81134487931604L890.4858339285714,168.3519090910329L891.3229473214285,200.07021761334528L892.1620491071428,226.10935352163781L892.3986678571429,240.22058766617198L895.7292258928571,255.47421292888177L895.8465410714285,267.1851585024758L896.9898669642857,279.4971825094354L897.3815803571429,284.0622700382337L897.5645125,289.02354308995126L897.9661678571429,296.8015115978918L901.1456080357143,295.3543098547142L902.1298625000001,298.82081641976686L911.0000830357143,305.34973730424764L911.88690625,304.3383789203939L912.0658616071428,149.9918312185906L912.0857455357143,185.01045439671697L912.6723214285714,201.3344499431548L912.8075321428572,222.81295978724935L913.50148125,237.58493098974213L914.1874767857142,254.03213858890518L916.4602098214285,148.41419964065545L918.7389080357143,179.8715324801635L920.5026125,194.14512494424434L921.2422946428571,202.44938690836784L924.6146089285714,220.51357146402643L926.5612455357143,240.49683737198868L928.2672866071429,247.95555614980344L928.5874178571429,251.58310269953634L930.3312383928571,267.56077030612494L930.8979303571429,270.6319000507471L933.1806053571428,280.8492763825319L937.01025,284.29333960120374L938.9290491071429,293.7769385862708L939.0324455357144,291.99635026362415L939.6090794642857,299.3249782483329L940.3189357142858,300.7058707603256L940.7285446428572,301.47050686903316L942.0309419642857,137.80736023765823L942.2357464285715,175.04937487111107L945.4967107142857,205.01224084508908L945.9898321428572,229.0620358968774L946.6221410714286,249.71996699055032L947.8032464285715,257.13271268431345L949.5013339285714,259.0709281621297L953.0923714285715,261.50878596766154L953.4303982142857,237.28885383974202L956.1385892857144,102.21852890309248L958.1289705357143,138.1210264019692L961.3680625,171.2119728130121L962.3205026785714,195.8982323966042L962.3801544642857,217.45041536979792L969.3852625,238.82537770027255L969.84458125,251.6084468345192L970.1885732142858,107.56434840999817L970.2800392857142,149.52131114834768L970.8805339285714,167.15967625327286L972.9325553571429,195.6716944690337L974.4934437500001,213.06308108296315L974.7121669642858,233.18758675834593L974.9905419642857,248.61977565591377L975.7819223214286,253.61262502912552L976.4102544642858,244.41833793833953L976.8516776785714,256.71867513430203L978.2236687500001,267.1968165617949L978.7466160714285,257.0161073670202L979.4723794642857,266.3685890090794L980.2140499999999,126.59575011351356L982.0195107142857,13.190616051504241L983.4829678571429,60.52847960801853L985.2208232142857,113.52659388949019L986.7200714285715,0.7290570940141208L986.7479089285715,48.25583535874397L990.1560142857143,105.14754912610464L990.3449116071429,147.20368538185443L994.2898830357143,180.29149523484298L995.6459669642857,127.3629283198324L996.3419044642858,164.36563123771404L996.8568982142857,193.3407287240732L996.9324571428571,220.26023226505185L996.9881321428571,241.72707500080793L1000.9887785714286,259.29675707038666L1001.1518267857142,273.4562401995375L1002.6152839285714,270.29446689489L1003.3271285714286,281.9267831540307L1003.4345017857142,291.0135249214332L1003.5657357142858,298.5303884162077L1003.94551875,298.9608306895549L1004.4028491071429,304.6402131446882L1005.1325892857144,309.0529789669262L1006.8565258928572,312.6670716677465L1009.8212196428572,306.2619934776908L1009.9763142857142,307.9196440775781L1010.2586660714286,257.4038083711933L1010.5330642857143,250.68920699434847L1010.5469830357143,262.14484289230796L1011.0301625000001,273.43844120456293L1011.1832687499999,266.22245401345504L1014.8657723214286,258.7311658398534L1015.0685883928571,267.29551936278546L1016.6911169642857,279.3445077863518L1018.4607866071428,285.47458844400916L1021.0456973214286,291.04146913701277L1021.4493410714285,295.67270119996056L1025.215357142857,300.90329019237504L1025.517592857143,306.3201161226348L1026.0445169642858,308.6315130393279L1031.2242803571428,308.0422866185961L1032.1687669642856,0.5713552348183655L1032.2423374999998,66.02940317093268L1033.0058803571428,119.15445206641304L1033.1888125,158.3012517776421L1033.9702508928572,190.16435240001135L1034.6522696428572,41.47831953597586L1035.3024741071429,98.70807499514041L1035.7697464285716,145.03261892259926L1036.0739705357144,175.3188909392421L1037.4956714285713,187.9666820606283L1038.020607142857,215.82197245285445L1039.7624392857142,239.11538724363274L1039.8379982142858,254.14532526541095L1040.7089142857142,129.56667219963347L1040.9057651785715,166.60807671043617L1043.5562928571428,198.98620909765035L1045.4015214285714,225.47222649109102L1046.9882589285714,223.83964232644826L1047.0180848214286,233.0976696335585L1047.1334116071428,251.84787084049466L1048.4218901785714,264.2791615119496L1048.7261142857142,276.93287839817356L1049.0661294642857,281.1623871988245L1049.7044035714287,132.64024148513388L1051.3030714285715,169.01633830968146L1052.4762232142857,186.25847203019148L1052.7784589285714,210.489264802002L1056.3436473214285,211.3757672912781L1058.1948410714285,221.17963757569825L1060.3124794642858,241.8351671890834L1060.3224214285715,258.62169615399193L1060.4297946428571,269.8979503947206L1060.9885330357145,261.7946755280263L1062.7979705357143,269.59813709180884L1062.8874482142858,267.87550340589945L1064.3727776785715,277.18769377467686L1065.13234375,285.5597398757748L1065.5359875,280.82566646574435L1065.5459294642858,123.50002749632598L1069.683775,160.1495916992092L1070.8728339285715,194.24561614987562L1072.53711875,213.08214641568904L1072.7896446428572,234.47374699876985L1073.5730714285714,252.41599969757618L1073.7043053571429,266.3811739102445L1075.2015651785714,278.0157085430973L1078.593763392857,287.66443107703157L1079.58000625,296.4641783211933L1079.8862187500001,300.00884401594055L1082.3736982142857,171.55058412388524L1084.0717857142856,199.66281124461145L1085.3920785714286,224.16913845148443L1086.7541276785714,243.0864148299436L1091.0947892857143,258.64562462652054L1092.0372875,116.88763999052313L1092.7650392857142,159.74834514147014L1094.558569642857,189.77198791890115L1095.505044642857,217.20825454305626L1098.64869375,108.50588738688644L1099.8814973214285,-312.05260210220956L1104.1366580357142,-14.665038511151439L1105.3555428571428,54.781501519684475L1106.7354874999999,101.07796572685592L1112.0782991071428,139.95938586426064L1117.3932732142857,178.09513859138715L1121.2567205357143,208.25493550050916L1121.4416410714284,233.61278769770192L1121.9029482142857,252.61586979944647L1122.4935008928571,250.82040236726715L1123.3027767857143,247.73976200688136L1123.5950705357143,260.00647921457494L1123.8436196428572,93.52397304451155L1123.9768419642858,141.24284852485405L1124.37054375,167.60747676643174L1125.537730357143,193.99132623316802L1127.8323357142856,220.78559184505104L1128.7251241071428,240.5705457721834L1129.9519625,256.46280875958485L1130.5564339285713,224.3582324278949L1132.3956973214285,224.39917072396264L1133.3024044642857,245.58043863567343L1135.9847464285715,260.6398806507796L1136.0324678571428,275.0864091881442L1136.0821776785715,284.3049966389599L1138.9772776785715,291.26247551398774L1139.1621982142858,298.83738244261184L1140.6813303571428,305.1372252876428L1140.73899375,310.41196040112715L1141.6099098214286,313.44323104062823L1141.6317821428572,317.80640215427997L1141.7033642857143,317.3938176691637L1141.8783428571428,320.1482411551559L1144.2226580357144,322.08596566343977L1145.3818910714285,322.9442504288727L1146.374099107143,323.09824693933916L1147.1495723214284,320.9968248425785L1148.4977026785714,323.14564179530646L1148.6826232142857,297.41274546902105L1151.7964464285715,303.82894459423005L1153.5104410714287,305.9141591791835L1153.6078723214287,133.09881544149138L1154.1705875,170.89775242834264L1155.978036607143,202.7200427844443L1156.687892857143,46.80378691310236L1157.0120008928573,93.99300239844759L1158.2169669642858,138.71255761276595L1158.5728892857142,149.72946114453404L1159.9409035714286,171.3864698975303L1165.0292008928573,200.86124584428617L1165.6177651785715,205.64307077210862L1165.7509874999998,194.94766927943004L1170.133405357143,218.65950275409517L1171.7937133928572,238.66078785219426L1171.8593303571429,257.289418507883L1172.50158125,272.35722526651153L1173.2233678571429,267.08991429600337L1173.2472285714286,280.19144089534456L1174.0067946428571,96.20165506612925L1175.7406732142856,143.16683720836375L1176.0369437499999,171.16756910712985L1177.7250892857144,202.06834410930847L1179.2462098214287,225.8807433311556L1179.5206080357143,233.82896724259166L1179.9023794642858,251.10431964330124L1181.3757785714286,244.48831401771105L1181.509000892857,248.55715817217668L1185.76615,261.5507193804156L1188.31328125,119.50347528460595L1188.3848633928571,153.07762711527326L1190.2380455357143,188.5996751012991L1193.1410991071427,208.16495951196273L1193.2027392857142,199.67443529908437L1194.9465598214285,217.45594786123095L1195.3502035714287,236.1863838316255L1195.5550080357143,249.3892905140919L1196.8713241071428,213.30787558754307L1197.3226892857144,230.83611160437283L1198.6489473214285,80.96237835820533L1199.0187883928572,124.45157063433338L1202.1962401785715,139.01418562276214L1202.5959071428572,174.389428317889L1202.8225839285715,187.01668190983486L1203.67958125,212.71943957827528L1204.7214991071428,229.5422098256909L1206.0338383928572,77.66022278608985L1208.4775732142857,117.29073711826092L1210.2870107142858,152.0533752647534L1210.6807125,187.69917685250402L1214.5183107142857,213.83313966162967L1215.8465571428571,226.49292927080765L1216.2820151785716,227.37785724873837L1217.3000723214284,239.30085061451194L1217.3617124999998,251.00523608891484L1218.1948491071428,254.21955409024807L1218.4433982142857,142.56133129099732L1218.6680866071429,179.54179581721405L1219.5250839285713,208.45960173384174L1220.077857142857,214.40018899739445L1220.700224107143,59.100336134439026L1222.356555357143,109.25874276161613L1223.1340169642858,148.8001259899173L1225.0985491071428,14.849576499941685L1225.6632526785713,46.9708280776999L1225.9833839285714,-96.73999098022287L1227.4150267857142,-49.63782796518715L1227.5959705357143,23.54474274908138L1229.9740883928573,83.59680686072218L1229.9959607142857,126.1077989870366L1230.7933062500001,144.9920480198905L1230.8967026785715,-7.925586132427394L1232.2945428571427,-32.12948297149042L1232.6524535714286,39.18654517979539L1233.4020776785715,87.27727297664573L1239.4209428571428,134.55541941500417L1242.1450410714285,135.75600125771132L1242.9165375,129.12348596558067L1244.8214178571427,147.40012620532585L1246.2451071428573,179.74617928381022L1246.6825535714286,207.41373291107223L1247.7244714285714,220.57426325871313L1247.8755892857143,230.69934495603053L1249.5199901785716,243.87684499673054L1250.27955625,261.33083424132667L1251.9657133928572,264.2711758388011L1254.9502910714286,277.2447853027128L1256.5509473214286,136.19251708494372L1257.2985830357143,174.4366696223159L1258.7998196428573,201.45218732710993L1259.0086008928572,79.00470258995946L1259.9172964285715,124.05870005452672L1260.77429375,151.11092708082234L1261.329055357143,185.24969132400537L1262.1343544642857,208.64262534504718L1262.9078392857143,232.32329472164776L1264.1088285714286,243.51910564311717L1266.4133758928572,246.55687663561798L1267.7177616071428,262.10398917680345L1269.6783169642858,276.26763475565406L1272.1101214285713,285.2868965198858L1272.450136607143,291.979178375424L1272.4580901785714,141.89682994399155L1273.0764803571428,177.78365257671425L1276.27978125,206.2261992239233L1276.295688392857,227.408368503513L1276.3732357142858,89.76199219660924L1276.8544267857144,137.16026688446175L1278.7911214285714,174.34899079266847L1279.510919642857,199.56455497315451L1282.8036982142858,222.66300090448797L1284.340725892857,227.79923102296783L1284.517692857143,243.1507462266079L1285.0784196428572,259.9710296514027L1287.0548821428572,257.481089410972L1291.2305071428573,107.40112290206864L1291.5824526785714,148.35441305973777L1291.7633964285715,183.89081446916776L1294.747974107143,211.94289105010762L1297.2632910714285,232.70919140873536L1298.5617116071428,250.96108071564186L1298.6253401785714,246.26329520987312L1300.8026303571428,255.94523461379083L1301.2182044642857,270.8891533153651L1303.9562214285716,282.5183922280786L1305.2705491071429,140.51287967601763L1305.580738392857,177.60787386210242L1307.2311044642859,205.33687212873681L1308.3286973214285,211.94167883244504L1308.7025151785715,232.72046163914482L1309.7643169642856,245.94932639787893L1309.8856089285714,263.28007890137275L1312.1981098214285,120.5267868149459L1314.4628892857143,156.20161729718683L1314.6657053571428,189.242143389904L1314.7710901785713,68.51411037232361L1314.9619758928573,-50.60463882616457L1315.3218749999999,20.651093760082773L1316.2305705357144,74.53712576146894L1317.1213705357143,124.5670710286774L1318.4436517857143,164.97642080237688L1320.4380098214285,197.54280606309743L1320.9927714285716,213.84341838677867" style="fill: none;" fill="none"></path></g></g></g></g><g opacity="0.2"><g><g><g><path stroke="rgb(255, 112, 67)" stroke-width="2px" d="M101.67050357142857,307.0809842348099L103.277125,146.69836139678955L104.77438482142857,313.8598954677582L107.61380982142856,319.2498667240143L109.94818303571428,261.39391183853155L110.2643375,174.3354558944702L111.01595,154.76258659362793L111.34403482142856,276.8848922252655L111.45538482142858,204.82981061935422L111.90476160714286,322.92503559589386L112.01412321428572,306.36868965625763L112.80152678571427,64.68403244018553L113.32049732142858,333.4593597948551L114.26100714285714,118.5236940383911L115.90540803571429,288.09744000434875L116.42835535714286,262.23856496810913L116.70673035714285,300.1681661605835L117.81625357142856,289.77324533462524L118.73091428571428,243.99955177307132L119.20216339285714,260.1030187606812L119.26181517857142,258.0330357551574L119.68335446428571,280.23179316520697L120.18840625,325.5463710427284L120.58608482142857,270.85157394409185L121.33769732142858,263.3244352340698L122.92045803571428,302.64648032188416L123.33404374999999,318.22840654850006L123.98424821428571,315.279177069664L124.22683214285713,324.4696223139763L125.07985267857143,332.5049872994423L125.87322142857143,313.90579295158386L126.30669107142857,251.4517726898193L128.53965625,331.3041726946831L131.71313125,297.90013575553894L132.95587678571428,316.06652319431305L132.98967946428573,288.15806245803833L136.16713125,306.20400953292847L137.61468125,330.7905760407448L137.8334044642857,271.1688599586487L138.1952919642857,336.0395994335413L138.4259455357143,280.47106075286865L140.85973839285714,319.50230288505554L143.48640535714287,318.73324847221375L144.5601375,316.2481027841568L148.64827321428572,333.73228445649147L149.00618392857143,312.425953745842L150.01231071428572,309.7060698270798L153.718675,308.17531740665436L154.8838732142857,266.8064751625061L157.6994375,279.75077748298645L158.05734821428572,314.9734160900116L158.20647767857145,297.28252601623535L158.34765357142857,322.9025468826294L158.42917767857142,316.3798574209213L159.1807901785714,320.33396780490875L159.66794642857144,279.37222051620483L161.8750625,312.7925763130188L166.63328660714285,300.7300658226013L166.75457857142857,280.5174729824066L168.91596160714286,295.9658753871918L169.96185624999998,325.32850390672684L170.10899732142857,253.84321641922L170.41322142857143,320.80970430374146L172.38173035714286,306.03365099430084L172.77344375,285.2184226512909L172.982225,321.1013057231903L173.11942410714283,215.7844181060791L174.33035535714285,327.16517132520676L174.47948482142857,315.0731875896454L175.74807946428572,320.9653459787369L176.64683303571428,329.884584069252L177.01667410714285,321.6926715373993L178.3827,326.27722281217575L179.61550357142858,318.82784819602966L180.0290892857143,307.810249209404L180.1821955357143,334.6500730216503L180.82842321428572,332.56935128569603L181.88425982142857,324.6790133714676L182.95600357142857,331.4855182170868L183.19262232142856,305.79741311073303L183.99593303571427,328.79875230789185L185.37985446428573,289.0687448978424L187.41596875,252.56850337982175L187.47164375,335.3543870151043L187.60287767857145,330.33288806676865L187.8295544642857,328.5333036184311L188.36045535714288,304.08066725730896L192.65538392857144,330.61235851049423L192.99937589285716,330.46300625801086L193.03914375000002,322.32739758491516L193.22804107142855,337.41632863879204L193.47857857142859,328.78006237745285L194.1168526785714,304.5976746082306L195.23830625000002,321.1209795475006L195.3536330357143,313.63199281692505L197.17897767857144,289.7984719276428L197.47524821428573,331.7259946465492L198.3461642857143,311.44144582748413L200.22519553571428,333.60025268793106L202.75840803571427,335.25697189569473L202.84192053571428,317.88946878910065L203.33901875,335.3983136713505L203.60944017857145,335.404865026474L204.9675125,334.9701526463032L206.87438125000003,335.71257200837135L208.3159660714286,333.4570814371109L209.07553214285716,327.8075780272484L209.51099017857143,338.47021728754044L209.7734580357143,333.99158000946045L209.94644821428574,310.5259381532669L210.03194910714288,337.19073474407196L210.20891607142858,337.9101294949651L210.73385178571428,338.21447175741196L211.72605982142858,332.06085243821144L212.622825,334.2417033612728L214.63507857142855,338.2363793551922L216.46638839285714,337.1906997859478L219.2799642857143,337.1798574477434L219.58021160714287,338.10455100238323L220.62809464285715,338.7678549364209L222.18699464285714,322.61648201942444L225.9251732142857,337.40586653351784L226.8577294642857,322.0458256006241L228.52201428571428,336.8999173492193L229.49433839285714,322.5548665523529L230.1007982142857,338.08250749856234L230.3712196428571,338.5120387300849L230.52034910714283,329.62458580732346L231.23418214285715,328.7602912783623L231.97386428571428,336.26621800661087L232.00567857142858,314.00275564193726L234.30028392857142,331.3315069079399L234.42754107142858,338.28943679481745L235.00417499999998,337.9555821493268L235.79754375000002,319.5190098285675L235.86117232142857,334.21138858795166L236.27276964285716,337.70501232147217L236.74998392857145,330.7267425060272L237.53341071428574,336.4598242044449L239.32296428571428,329.99040991067886L239.77631785714286,324.83869701623917L241.1045642857143,321.4094580411911L245.4730633928571,187.5548229217529L248.0639392857143,315.08586370944977L248.76783035714286,336.2600159794092L249.53733839285712,333.43918642401695L249.67254910714283,338.9681765139103L252.5497535714286,328.1830181479454L254.41486607142855,334.57351118326187L254.69125267857143,338.07861790060997L254.96962767857144,337.9559381902218L256.6219821428571,329.2068615555763L256.9600089285714,335.7996828407049L259.43158125,295.17832255363464L261.91309553571426,159.393141746521L263.4262625,336.3187524676323L266.2537571428572,332.0296966433525L267.00338125,321.3812584877014L269.63601339285714,311.95295107364655L270.86285178571427,329.80405980348587L271.22076250000003,320.16210758686066L271.2585419642857,337.0385354310274L271.72979107142856,338.13686991482973L272.1990517857143,321.24636471271515L274.2172705357143,332.49802100658417L275.5057491071429,336.82803381979465L276.05255714285715,332.489659935236L277.8838669642857,329.96416902542114L278.4624892857143,335.8003711104393L278.71700357142856,328.13687241077423L280.00945892857146,233.00903367996213L281.19851785714286,338.28694830834866L282.85484910714285,320.227174282074L282.8806982142857,323.9612693786621L283.84506875,329.4369366765022L286.35442053571427,315.5526225566864L299.84168928571427,318.0469444990158L300.87366517857146,336.37066781520844L302.5558455357143,144.18004703521729L302.5657875,301.42418217658997L302.7268473214286,313.51618921756744L303.83835892857144,316.3082550764084L306.04746339285714,331.6372547149658L306.8885535714286,333.21571788191795L307.03370625,329.7063371539116L307.13113749999997,319.7558151483536L308.35399910714284,325.19426876306534L311.9808276785714,328.6909819841385L312.11206160714283,287.9949367046356L312.40833214285715,332.7099609673023L313.4204241071428,317.1594742536545L313.90360357142856,312.3713136911392L317.97185535714283,280.9065477848053L318.19455535714286,334.18318396806717L320.6581741071429,337.24215763807297L320.7536169642857,280.6879713535309L327.6255026785714,325.71878957748413L328.8046196428571,328.6902605295181L328.9338651785714,319.85823130607605L330.38936875,295.66590428352356L330.5782660714286,316.6430221796036L331.2543196428571,324.81083792448044L333.5807392857143,318.4620281457901L335.19332589285716,328.66141551733017L336.08810267857143,302.7055666446686L336.4420366071428,332.93414083123207L337.0484964285714,330.17861330509186L340.0032482142857,304.7674677371979L342.92419732142855,318.4835846424103L344.55269107142857,333.44744819402695L344.89469464285713,329.9018594622612L348.135775,330.95258820056915L348.89136428571425,288.6968026161194L353.16044375,315.77460765838623L356.48901339285715,329.8719190955162L356.52878125,332.8711057603359L356.5784910714286,287.2552065849304L359.9030839285714,277.5990390777588L360.31468125,337.34672524034977L361.89545357142856,297.4329209327698L363.1859205357143,289.024537563324L364.2318151785714,329.35889089107513L367.7532589285715,320.2637050151825L367.8626205357143,276.8354158401489L368.0554946428572,338.15936306118965L368.18871696428573,303.5122501850128L368.6142330357143,322.7089092731476L373.76417053571424,334.8777051270008L374.23343125,336.14522540569305L377.4566160714286,323.3649162054062L378.2678803571428,336.8875571191311L378.4746732142857,324.9942181110382L380.40739107142855,338.84151803702116L382.68012410714283,323.0935357809067L387.2534276785714,324.7529320716858L389.2756232142857,337.66309651732445L389.48639285714285,337.8646027445793L391.38331964285715,338.00005496293306L391.46882053571426,333.13333678245544L397.52745357142857,288.01600885391235L399.4939741071429,335.9723633080721L402.0371285714285,336.8468835949898L402.27175892857144,337.93522448837757L404.1627205357143,337.2361271083355L406.6760491071429,335.480172932148L407.5231044642857,335.22961539030075L410.8655928571428,308.7123633623123L413.10253482142855,322.43639600276947L416.1865321428572,336.9591807425022L417.22248482142857,321.09167551994324L417.7116294642857,327.6000655889511L418.55073124999996,324.2389412522316L418.99811964285715,324.37316930294037L420.4138553571429,326.4574993252754L420.9626517857143,326.28899508714676L421.32652767857144,325.101010620594L421.3802142857143,335.72872620821L423.4759803571429,335.17778465151787L423.51773660714287,334.9875131547451L426.4347089285714,331.8685989677906L427.48060357142856,318.41887867450714L428.63585982142854,334.0620282292366L431.3798419642857,237.8846888542175L432.2408160714285,297.14831924438477L434.5692241071428,328.60109907388687L434.71437678571425,279.77262783050537L437.9793178571428,333.19054448604584L438.1920758928572,321.3664666414261L438.43267142857144,224.44979333877566L444.9903910714285,319.0149886608124L446.0203785714286,303.9507405757904L446.24307857142855,303.0368196964264L447.2531821428571,334.73755091428757L447.4400910714286,308.9456363916397L449.28333125,289.8535740375519L449.6074392857143,239.5863003730774L453.2998848214286,218.87493515014646L453.84868125,324.5428469181061L454.50683928571425,318.40999829769135L454.52672321428577,318.60813891887665L455.5427919642857,312.2350013256073L455.8470160714286,290.3865587711334L456.3461026785714,326.6921119093895L456.6702107142857,313.61755764484406L457.3959741071429,322.1708743572235L459.90930267857146,232.57112693786618L460.2692017857143,319.43366944789886L460.7285205357143,300.65874314308167L460.81402142857144,319.75480794906616L461.4443419642857,323.79780012369156L468.26651785714284,291.24617195129395L468.87098928571424,228.42061471939087L468.95649017857147,247.70141649246213L469.3919482142857,312.47441482543945L470.58896071428575,276.7569637298584L470.88920803571426,271.30968952178955L471.35051517857147,218.15072441101074L474.9892741071428,256.3227262496948L475.1423803571428,280.07382702827454L476.3493348214286,268.6704545021057L477.3832991071428,268.6497025489807L479.09132857142856,301.7817602157593L480.0895017857143,322.6856383085251L480.94252232142856,288.48503947257996L482.1812910714286,281.44159960746765L483.4578392857143,279.3246815204621L484.05435714285716,258.98544502258295L485.61126874999997,249.54320096969602L487.0110973214286,234.52582311630252L487.5419982142857,282.8112893104553L490.0294776785714,238.42511510849L491.64206428571424,198.51773929595944L493.79350535714286,271.48263597488403L494.3184410714286,275.0233528614044L495.61089642857144,263.19144439697266L496.2372401785715,266.3673038482666L496.42216071428567,320.7589592933655L496.44403303571426,277.9089848995209L496.5931625,237.94774723052979L497.34875178571434,251.87353181838986L497.6251383928571,211.65559005737305L498.14808571428574,280.2487676143646L499.54990267857147,164.17469978332517L500.9358125,282.42678236961365L502.4430142857143,321.9611884355545L506.54109196428567,273.36440443992615L509.4421571428572,283.00219917297363L510.41448125,284.19676184654236L511.26551339285714,324.41543620824814L511.75068125,194.97568893432617L514.0393214285714,318.3485652208328L515.5425464285714,321.0546807050705L518.0101419642857,323.4677538871765L518.2427839285715,334.5239927470684L518.6961375,285.81841349601746L519.2787366071428,325.3695933818817L521.4600035714286,318.74808490276337L521.9789741071429,287.39293146133423L522.1300919642857,142.11201763153076L523.8679473214286,294.1740334033966L523.9693553571428,322.08038449287415L524.0309955357143,295.55269265174866L524.3650455357143,334.32850539684296L525.4566732142857,324.3329927921295L525.5700116071429,309.2554565668106L526.1923785714285,321.17710506916046L527.0414223214285,329.3019770383835L527.1110160714286,280.9691116809845L527.20049375,255.47965383529663L529.1868982142857,308.12101578712463L531.1335348214285,327.52830719947815L531.3781071428572,303.0153179168701L531.4655964285714,321.31889724731445L531.9845669642857,329.3191440105438L532.2748723214286,329.82470029592514L534.68878125,329.5705101490021L535.6312794642857,325.9640517234802L535.6571285714285,332.7793285250664L536.0607723214285,280.09743642807L536.8342571428572,330.44705724716187L536.8441991071429,335.4808791875839L537.9775830357144,321.7469630241394L540.4929,335.87738132476807L541.4214794642858,328.69792598485947L541.9782294642857,331.84975349903107L542.6383758928572,332.74732968211174L544.3623125,336.2702409774065L545.3664508928572,336.41708536446095L546.2850883928571,334.6271607577801L548.4524366071428,323.97476321458817L548.6830901785714,334.11139315366745L550.8504383928572,317.1987611055374L551.6040392857143,329.4305185675621L551.7094241071428,319.54956018924713L552.5922705357143,325.9924964904785L553.4572214285714,328.83473485708237L555.2984732142857,335.9410970658064L556.8255589285714,336.3267979025841L557.6447767857143,137.53181838989258L559.4422839285714,335.03466406464577L559.7206589285714,322.6632002592087L561.2835357142857,327.81570959091187L562.41493125,332.42053151130676L563.0293446428572,334.1239340007305L564.7831071428571,321.3483613729477L565.5367080357142,322.1586765050888L566.5488,336.6559608131647L566.6760571428572,334.95742079615593L568.2687598214286,332.04128500819206L568.3343767857143,330.5431738495827L568.4934482142856,331.60019049048424L570.3545839285714,328.5969395637512L572.15805625,334.99955344200134L572.3071857142857,335.87831480801105L572.8798428571429,335.04295521974564L573.2596258928571,330.9155994653702L573.2974053571429,332.59049436450005L573.3371732142857,335.33034443855286L573.5300473214286,335.50814551115036L574.0172035714286,336.1564094722271L576.7591973214286,334.62029123306274L577.1946553571428,325.7646921277046L578.2564571428571,288.9243242740631L578.9126267857143,335.99671670794487L579.4296089285715,332.6563139259815L580.4078982142858,331.3809204697609L580.4953875,336.5248128771782L581.35835,293.2846095561981L582.5991071428572,333.0888067185879L582.7601669642858,116.10307598114012L583.0763214285714,335.71219354867935L583.9114464285715,334.3859020769596L585.7586633928572,329.04848605394363L586.3512044642857,261.99143838882446L587.0053857142857,334.41786190867424L587.0153276785715,331.27768152952194L587.59395,337.39837992191315L588.3296553571429,334.89776197075844L589.1150705357143,336.82328610122204L590.3876419642858,337.16108214855194L591.8431455357144,336.16803355515003L594.1834839285715,337.2538777291775L595.0822375,334.57841393351555L595.3884499999999,334.8846202492714L595.8418035714286,334.0213962495327L596.9294544642856,334.21765318512917L596.9632571428572,322.9511923789978L598.1960607142857,336.2067631036043L599.9557883928571,257.3960075378418L600.0393008928571,336.09597523510456L602.0058214285715,334.7782416641712L604.4038232142857,336.842896848917L605.9189785714285,310.4459924697876L606.0700964285714,336.6106586307287L606.8614767857143,337.6384806782007L609.0884767857143,337.14311772584915L610.2139071428571,337.1117448359728L611.1822544642857,335.1664156615734L612.1724741071429,337.24283400177956L613.1428098214286,334.6258399486542L616.0657473214286,337.832875713706L616.7099866071428,242.9524211883545L617.9447785714286,240.9577693939209L618.3384803571429,336.9090938568115L621.0188339285714,338.0762341618538L621.2176732142857,336.1383072435856L621.2753366071429,334.92572543025017L621.5596767857143,336.60972388088703L622.2317535714285,336.70576828718185L623.5083017857144,335.50997042655945L624.6496392857143,335.97061590850353L626.66388125,338.15084759145975L628.6403437499999,293.43393445014954L629.1374419642857,337.4616168886423L629.8691705357143,338.000807069242L630.2390116071429,334.81779703497887L630.7878080357143,335.73060128092766L630.8554133928571,328.255412876606L632.7463750000001,337.252435579896L632.9332839285714,336.66621063649654L637.7968928571429,336.3950543999672L637.88239375,169.90875625610352L638.8229035714286,336.1785764694214L642.3423589285713,328.282194852829L642.5093839285714,337.1000662893057L642.67044375,322.9855080842972L643.3842767857143,329.9100953936577L646.4404366071428,337.4517437517643L647.1025714285714,331.731247484684L647.4008303571429,112.11005973815918L649.5204571428571,336.8331746906042L649.6397607142857,334.3225974738598L649.9201241071429,337.2268872708082L650.35359375,332.6317064464092L652.5030464285715,331.56810197234154L655.1177830357143,337.09151193499565L655.2629357142857,334.7996887266636L656.7244044642857,335.5401230752468L657.0723732142857,334.40370386838913L657.4163651785714,-403.1475448608399L659.7189241071428,337.32259780168533L660.5103044642857,334.8127868771553L661.6675491071428,336.05274444818497L661.82264375,336.01240479946136L662.3316723214285,336.5036133080721L663.1389598214286,332.7833715081215L664.8251169642857,335.9563671797514L665.9783848214286,335.7699276506901L667.4378651785714,329.28213399648666L670.9990767857142,335.3348585963249L673.9637705357143,332.8226360678673L676.3717142857142,337.1607368737459L677.3997133928572,337.34493477642536L679.4258857142858,336.7334986925125L679.5630848214286,333.1399894654751L684.1304232142858,333.19323271512985L686.3017482142858,320.9969846010208L693.8397455357143,337.0994950532913L695.9653375,335.0758700668812L696.0329428571429,334.5572541356087L696.31330625,335.4959365129471L697.0032785714285,336.9383657127619L697.8006241071429,5.9858036041259695L698.8703794642857,309.2593597173691L699.9421232142857,334.07316771149635L700.5426178571429,333.1532568335533L701.0973794642858,-25.65178108215328L702.3023455357143,335.4825247526169L706.472005357143,334.6663326025009L706.89155625,286.47730827331543L707.933474107143,337.10791540145874L708.0507892857142,330.0262739062309L709.8224473214286,332.7571139037609L709.9695883928572,337.4166113436222L710.4706633928572,334.2363294363022L711.5404187500001,335.60743874311447L711.8128285714286,333.307469278574L712.3775321428571,337.94760359078646L714.6264044642858,294.23845767974854L714.6721375000001,335.42527145147324L715.2030383928571,335.6055216193199L716.0003839285714,335.8299456834793L717.0741160714285,314.3506041765213L717.8853803571429,321.0596113204956L720.44841875,336.84017315506935L722.5183357142856,334.5474542081356L724.0096303571429,-51.8631191253662L725.196700892857,336.02758498489857L727.2904785714285,335.9515252262354L728.4914678571429,330.05901700258255L728.5391892857143,335.45740354061127L731.5933607142857,335.54611763358116L731.6728964285714,321.2226012945175L733.5360205357143,327.39007872343063L734.0271535714286,336.8956440985203L734.3850642857143,-91.23304367065433L735.3931794642858,325.42393857240677L735.8385794642858,331.1494774222374L738.0854633928572,334.3998260498047L739.6264678571429,331.9408629834652L740.2190089285714,335.3573265373707L740.8135383928571,334.9592284858227L742.1497383928572,333.7068699002266L743.0465035714285,334.4467748105526L743.4501473214285,334.8908372223377L745.8521258928572,-69.89332389831544L746.6057267857143,328.32587629556656L747.0590803571429,321.7521104812622L747.3374553571429,333.75934559106827L748.3117678571429,326.90749448537827L749.8249348214285,330.7739967703819L750.3359517857143,-45.97737884521482L752.1911223214287,331.4579134583473L753.1515160714285,333.17320930957794L753.1892955357143,336.06890523433685L753.294680357143,326.4238767027855L753.5452178571429,335.0874538719654L754.6010544642857,334.9330939948559L756.2593741071429,335.3627166748047L757.3152107142856,334.3166459798813L758.1543125,327.6310952305794L763.4752517857142,334.61364310979843L763.5866017857144,-102.94278717041014L763.7039169642857,320.74165856838226L766.0144294642856,335.10338768363L768.1658705357144,-113.61246871948245L770.4863250000001,336.2400956749916L770.9516089285713,333.7048342227936L771.5660223214286,322.6466736793518L771.7191285714287,334.08147609233856L774.3875517857143,334.43687000870705L774.4312964285715,330.0670036673546L775.3877133928572,325.37928438186646L777.55705,330.79158729314804L779.7124678571429,-178.1500053405762L780.1379839285714,331.73770663142204L780.2612642857143,335.7371936738491L782.3073205357143,334.7161813676357L782.400775,331.8370738327503L782.8799776785714,-190.3436260223389L785.6776464285714,328.8789087533951L785.7611589285715,331.3799963593483L786.9681133928572,330.7246723771095L787.9742401785714,329.5515719652176L791.3624616071429,333.7744865119457L791.7323026785714,330.64097958803177L797.5244910714287,335.9135199189186L799.9801562499999,330.58650773763657L800.2644964285715,332.726336568594L803.2470857142857,336.7056289613247L803.9827910714286,333.5533936023712L806.4702705357143,330.58007645606995L807.6116080357142,334.7292881309986L809.6735714285714,331.67412438988686L811.3935312499999,334.5481305718422L812.0139098214285,334.609738945961L812.2445633928571,310.8090969324112L812.2883080357143,323.36638647317886L813.3799357142857,315.8285485506058L814.6206928571429,314.9135637283325L819.1840544642856,306.7743660211563L820.1325178571428,323.72806322574615L821.1585285714286,327.3974635004997L821.7789071428572,231.88615036010742L825.3341535714286,321.08154475688934L827.5730839285715,321.0453990697861L829.5555116071428,322.2140440940857L832.1304803571428,330.16419941186905L832.6931955357143,333.7638845741749L833.0252571428572,323.27438884973526L833.7927767857142,328.5214756131172L835.1886285714286,328.50491964817047L837.05970625,316.2100967168808L837.336092857143,334.88047644495964L839.2429616071429,329.84976679086685L839.7778392857143,335.6397380232811L839.8374910714286,285.7895390987396L841.1319348214286,328.95809346437454L841.8557098214285,300.54720544815063L842.0287000000001,330.7200062274933L844.5022607142857,333.49535197019577L845.35528125,328.3889610171318L848.1410196428571,276.7959871292114L848.3418473214285,332.2728369832039L849.2306589285714,324.8558933734894L852.4439017857144,322.2732844352722L852.81573125,332.52752363681793L853.34464375,328.9866983294487L855.0626151785715,-815.5834045410155L858.3335214285714,336.57380187511444L861.3996232142857,313.927272439003L865.3247107142857,329.60846757888794L866.4859321428572,329.1970793604851L866.8100401785714,326.5986865758896L868.3589982142857,332.8494560420513L877.5314544642857,-343.2937240600586L879.8777580357144,285.18052196502686L879.8976419642856,331.0793544650078L882.1365723214286,325.5897231698036L884.0851973214286,-361.29623794555664L884.0951392857143,303.0550992488861L884.2383035714284,200.22369575500488L884.3774910714286,283.2461156845093L885.0217303571428,305.9603807926178L888.8573401785715,334.34611719846725L889.9608982142857,-291.04633712768555L890.4858339285714,326.51416593790054L891.3229473214285,326.94345170259476L892.1620491071428,330.26589715480804L892.3986678571429,296.6655242443085L895.7292258928571,316.48871397972107L895.8465410714285,314.0289407968521L896.9898669642857,328.7452785372734L897.3815803571429,302.3226201534271L897.5645125,308.8686352968216L897.9661678571429,327.91338562965393L901.1456080357143,289.5655028820038L902.1298625000001,312.6868426799774L911.0000830357143,331.4654208421707L911.88690625,300.29294538497925L912.0658616071428,-467.3943595886231L912.0857455357143,325.0849471092224L912.6723214285714,266.63043212890625L912.8075321428572,308.7269991636276L913.50148125,296.67281579971313L914.1874767857142,319.82096898555756L916.4602098214285,-274.05755615234375L918.7389080357143,305.7008638381958L920.5026125,251.23949480056766L921.2422946428571,235.66643476486203L924.6146089285714,292.77030968666077L926.5612455357143,320.4299010038376L928.2672866071429,277.7904312610626L928.5874178571429,266.093288898468L930.3312383928571,331.4714407324791L930.8979303571429,282.91641902923584L933.1806053571428,321.718781709671L937.01025,298.0695924758911L938.9290491071429,331.71133452653885L939.0324455357144,284.8739969730377L939.6090794642857,328.6394901871681L940.3189357142858,306.2294408082962L940.7285446428572,304.5290513038635L942.0309419642857,-516.8452262878417L942.2357464285715,324.0174334049225L945.4967107142857,324.86370474100113L945.9898321428572,325.2612161040306L946.6221410714286,332.351691365242L947.8032464285715,286.78369545936584L949.5013339285714,266.8237900733948L953.0923714285715,271.2602171897888L953.4303982142857,140.40912532806396L956.1385892857144,-438.06277084350586L958.1289705357143,281.7310163974762L961.3680625,303.57575845718384L962.3205026785714,294.6432707309723L962.3801544642857,303.65914726257324L969.3852625,324.325227022171L969.84458125,302.74072337150574L970.1885732142858,-468.612045288086L970.2800392857142,317.3491621017456L970.8805339285714,237.71313667297363L972.9325553571429,309.719767332077L974.4934437500001,282.62862753868103L974.7121669642858,313.685609459877L974.9905419642857,310.3485312461853L975.7819223214286,273.58402252197266L976.4102544642858,207.6411895751953L976.8516776785714,305.92002391815186L978.2236687500001,309.10938227176666L978.7466160714285,216.29327058792117L979.4723794642857,303.7785155773163L980.2140499999999,-432.49560546875006L982.0195107142857,-440.42992019653315L983.4829678571429,249.87993383407596L985.2208232142857,325.51905101537704L986.7200714285715,-450.4610900878907L986.7479089285715,238.36294841766357L990.1560142857143,332.7144041955471L990.3449116071429,315.4282304048538L994.2898830357143,312.6427346467972L995.6459669642857,-84.35133934020993L996.3419044642858,312.3764429092407L996.8568982142857,309.2411186695099L996.9324571428571,327.9382464289665L996.9881321428571,327.5944459438324L1000.9887785714286,329.5754853487015L1001.1518267857142,330.09417271614075L1002.6152839285714,257.64737367630005L1003.3271285714286,328.4560481905937L1003.4345017857142,327.3604919910431L1003.5657357142858,328.59784239530563L1003.94551875,300.6825997829437L1004.4028491071429,327.3577429652214L1005.1325892857144,326.70404225587845L1006.8565258928572,327.1234424710274L1009.8212196428572,280.64168071746826L1009.9763142857142,314.5502464771271L1010.2586660714286,55.34046554565428L1010.5330642857143,223.830801486969L1010.5469830357143,307.9673864841461L1011.0301625000001,318.61283445358276L1011.1832687499999,237.3585052490234L1014.8657723214286,228.76601314544678L1015.0685883928571,301.55293345451355L1016.6911169642857,327.5404614806175L1018.4607866071428,309.99491107463837L1021.0456973214286,313.3089919090271L1021.4493410714285,314.1976294517517L1025.215357142857,321.8256461620331L1025.517592857143,327.9874198436737L1026.0445169642858,317.87710070610046L1031.2242803571428,305.68538093566895L1032.1687669642856,-1229.3123703002927L1032.2423374999998,327.86159491539L1033.0058803571428,331.6546476483345L1033.1888125,314.8884506225586L1033.9702508928572,317.6167548894882L1034.6522696428572,-553.2658119201661L1035.3024741071429,327.62709683179855L1035.7697464285716,330.33079463243484L1036.0739705357144,296.4639790058136L1037.4956714285713,238.55784654617312L1038.020607142857,327.24313402175903L1039.7624392857142,332.2890464067459L1039.8379982142858,314.2650773525238L1040.7089142857142,-368.7479400634766L1040.9057651785715,314.77369475364685L1043.5562928571428,328.49873864650726L1045.4015214285714,331.41629606485367L1046.9882589285714,217.30930566787717L1047.0180848214286,270.1297788619995L1047.1334116071428,326.8486756682396L1048.4218901785714,314.00432419776917L1048.7261142857142,327.54774594306946L1049.0661294642857,298.0804224014282L1049.7044035714287,-461.44834136962885L1051.3030714285715,314.520725607872L1052.4762232142857,255.22700691223145L1052.7784589285714,307.4124358892441L1056.3436473214285,214.9217772483826L1058.1948410714285,260.3951187133789L1060.3124794642858,324.4572856426239L1060.3224214285715,325.7678120136261L1060.4297946428571,315.0029673576355L1060.9885330357145,229.38157606124875L1062.7979705357143,300.8119833469391L1062.8874482142858,260.98496866226196L1064.3727776785715,314.4364552497864L1065.13234375,319.0479242801666L1065.5359875,261.88937282562256L1065.5459294642858,-505.80252838134766L1069.683775,306.7478485107422L1070.8728339285715,330.62971395254135L1072.53711875,288.42826747894287L1072.7896446428572,320.04014933109283L1073.5730714285714,324.18501049280167L1073.7043053571429,322.24187076091766L1075.2015651785714,324.55384707450867L1078.593763392857,326.25932121276855L1079.58000625,331.6631672978401L1079.8862187500001,314.1875067949295L1082.3736982142857,-342.28245544433594L1084.0717857142856,312.1117197275162L1085.3920785714286,322.19444727897644L1086.7541276785714,318.7555203437805L1091.0947892857143,320.88246381282806L1092.0372875,-450.14429855346674L1092.7650392857142,331.19116574525833L1094.558569642857,309.8665590286255L1095.505044642857,326.95332103967667L1098.64869375,-326.30358123779297L1102.5598625,-409.32896804809565L1103.2776723214286,292.8245646953583L1103.93781875,319.8263008594513L1104.1366580357142,332.06620609760284L1105.3555428571428,332.56766164302826L1106.7354874999999,286.263822555542L1112.0782991071428,295.4850664138794L1117.3932732142857,330.6381494998932L1121.2567205357143,328.8941231369972L1121.4416410714284,335.0441964864731L1121.9029482142857,328.6281982064247L1122.4935008928571,243.6385326385498L1123.3027767857143,235.4172005653381L1123.5950705357143,309.0733480453491L1123.8436196428572,-572.4060516357422L1123.9768419642858,332.1183504462242L1124.37054375,273.0659897327423L1125.537730357143,299.5267241001129L1127.8323357142856,327.96265429258347L1128.7251241071428,319.7103614807129L1129.9519625,320.03186070919037L1130.5564339285713,95.93992710113524L1132.3956973214285,224.56292390823364L1133.3024044642857,330.3055102825165L1135.9847464285715,320.87764871120453L1136.0324678571428,332.8725233376026L1136.0821776785715,321.1793464422226L1138.9772776785715,319.0923910140991L1139.1621982142858,329.1370101571083L1140.6813303571428,330.33659666776657L1140.73899375,331.5109008550644L1141.6099098214286,325.5683135986328L1141.6317821428572,335.2590866088867L1141.7033642857143,315.74347972869873L1141.8783428571428,331.1659350991249L1144.2226580357144,329.83686369657516L1145.3818910714285,326.3773894906044L1146.374099107143,323.714232981205L1147.1495723214284,312.5911364555359L1148.4977026785714,331.74090960621834L1148.6826232142857,194.4811601638794L1151.7964464285715,329.49374109506607L1153.5104410714287,314.2550175189972L1153.6078723214287,-558.1625595092772L1154.1705875,322.0935003757477L1155.978036607143,330.00920420885086L1156.687892857143,-576.8612365722657L1157.0120008928573,282.7498643398285L1158.2169669642858,317.59077847003937L1158.5728892857142,193.79707527160642L1159.9409035714286,258.0145049095154L1165.0292008928573,318.7603496313095L1165.6177651785715,224.77037048339844L1165.7509874999998,152.16606330871585L1170.133405357143,313.50683665275574L1171.7937133928572,318.66592824459076L1171.8593303571429,331.8039411306381L1172.50158125,332.6284523010254L1173.2233678571429,246.02067041397095L1173.2472285714286,332.59754729270935L1174.0067946428571,-639.7574882507323L1175.7406732142856,331.0275657773018L1176.0369437499999,283.1704967021942L1177.7250892857144,325.6714441180229L1179.2462098214287,321.130340218544L1179.5206080357143,265.6218628883362L1179.9023794642858,320.2057292461395L1181.3757785714286,218.02429151535037L1181.509000892857,264.83253479003906L1185.76615,313.5249642133713L1188.31328125,-448.68550109863276L1188.3848633928571,287.3742344379425L1190.2380455357143,330.6878670454025L1193.1410991071427,286.4260971546173L1193.2027392857142,165.7123384475708L1194.9465598214285,288.5819981098175L1195.3502035714287,311.10812771320343L1195.5550080357143,302.2009172439575L1196.8713241071428,68.98221588134766L1197.3226892857144,300.9490556716919L1198.6489473214285,-518.5325546264648L1199.0187883928572,298.4083397388458L1202.1962401785715,197.26464557647705L1202.5959071428572,315.8903990983963L1202.8225839285715,237.52569627761838L1203.67958125,315.53047025203705L1204.7214991071428,296.8332908153534L1206.0338383928572,-529.8677253723145L1208.4775732142857,275.8127944469452L1210.2870107142858,291.10392785072327L1210.6807125,330.28238320350647L1214.5183107142857,318.3689908981323L1215.8465571428571,277.13208770751953L1216.2820151785716,230.91756916046143L1217.3000723214284,286.9928240776062L1217.3617124999998,297.8227779865265L1218.1948491071428,267.07682609558105L1218.4433982142857,-304.0715599060058L1218.6680866071429,327.463653922081L1219.5250839285713,324.1308254003525L1220.077857142857,238.1625380516052L1220.700224107143,-562.0990753173828L1222.356555357143,309.8923692703247L1223.1340169642858,306.96565890312195L1225.0985491071428,-520.9526214599609L1225.6632526785713,175.4558343887329L1225.9833839285714,-671.5832672119141L1227.1982919642858,169.7217617034912L1227.2678857142857,-503.70515441894526L1227.4150267857142,293.80743312835693L1227.5959705357143,316.2750256061554L1229.9740883928573,323.8050633072853L1229.9959607142857,296.1517674922943L1230.7933062500001,220.52904415130618L1230.8967026785715,-619.5961227416991L1231.82329375,-580.0884895324707L1232.2945428571427,328.785252392292L1232.6524535714286,324.4506577849388L1233.4020776785715,279.64018416404724L1239.4209428571428,323.66800516843796L1242.1450410714285,140.55832862854007L1242.9165375,102.59342479705809L1244.8214178571427,220.50668716430664L1246.2451071428573,309.1303915977478L1246.6825535714286,318.08394742012024L1247.7244714285714,273.21638464927673L1247.8755892857143,271.1996717453003L1249.5199901785716,296.58684515953064L1250.27955625,331.1467912197113L1251.9657133928572,276.03254222869873L1254.9502910714286,329.1392231583595L1256.5509473214286,-428.01655578613276L1257.2985830357143,327.4132797718048L1258.7998196428573,309.514258146286L1259.0086008928572,-410.7852363586426L1259.9172964285715,304.274689912796L1260.77429375,259.31983518600464L1261.329055357143,321.80474829673767L1262.1343544642857,302.2143614292145L1262.9078392857143,327.04597222805023L1264.1088285714286,288.30234932899475L1266.4133758928572,258.70796060562134L1267.7177616071428,324.2924393415451L1269.6783169642858,332.92221707105637L1272.1101214285713,321.36394357681274L1272.450136607143,318.7483057975769L1272.4580901785714,-458.43256378173834L1273.0764803571428,321.330943107605L1276.27978125,319.9963858127594L1276.295688392857,312.13704562187195L1276.3732357142858,-460.8235130310059L1276.8544267857144,326.7533656358719L1278.7911214285714,323.10388642549515L1279.510919642857,300.4268116950989L1282.8036982142858,315.0567846298218L1284.340725892857,248.34415149688718L1284.517692857143,304.5568070411682L1285.0784196428572,327.2521633505821L1287.0548821428572,247.52132844924927L1291.2305071428573,-492.9187431335449L1291.5824526785714,312.16757369041443L1291.7633964285715,326.0364201068878L1294.747974107143,324.15119737386703L1297.2632910714285,315.77439284324646L1298.5617116071428,323.9686379432678L1298.6253401785714,227.47215318679812L1300.8026303571428,294.67299222946167L1301.2182044642857,330.66482812166214L1303.9562214285716,329.03534787893295L1305.2705491071429,-427.50917053222656L1305.580738392857,325.9878506064415L1307.2311044642859,316.25286519527435L1308.3286973214285,238.36090564727783L1308.7025151785715,315.8355928659439L1309.7643169642856,298.86478543281555L1309.8856089285714,332.60308891534805L1312.1981098214285,-450.4863815307618L1314.4628892857143,298.9009392261505L1314.6657053571428,321.4042477607727L1314.7710901785713,-414.398021697998L1314.9619758928573,-527.0796356201171L1315.3218749999999,305.674024105072L1316.2305705357144,290.08125376701355L1317.1213705357143,324.6868520975113L1318.4436517857143,326.61381989717484L1320.4380098214285,327.8083471059799L1320.9927714285716,279.0458676815033" style="fill: none;" fill="none"></path></g></g></g></g></g></g><g transform="translate(51, 374)" clip-path="url(#clip_1)"><clipPath id="clip_1"><rect width="1391" height="26"></rect></clipPath><g><g><line x1="0" y1="0" x2="0" y2="5" style="visibility: inherit;" fill="rgb(0, 0, 0)" stroke="rgb(204, 204, 204)" stroke-width="1px"></line><line x1="99.41964285714285" y1="0" x2="99.41964285714285" y2="5" style="visibility: inherit;" fill="rgb(0, 0, 0)" stroke="rgb(204, 204, 204)" stroke-width="1px"></line><line x1="198.8392857142857" y1="0" x2="198.8392857142857" y2="5" style="visibility: inherit;" fill="rgb(0, 0, 0)" stroke="rgb(204, 204, 204)" stroke-width="1px"></line><line x1="298.25892857142856" y1="0" x2="298.25892857142856" y2="5" style="visibility: inherit;" fill="rgb(0, 0, 0)" stroke="rgb(204, 204, 204)" stroke-width="1px"></line><line x1="397.6785714285714" y1="0" x2="397.6785714285714" y2="5" style="visibility: inherit;" fill="rgb(0, 0, 0)" stroke="rgb(204, 204, 204)" stroke-width="1px"></line><line x1="497.0982142857143" y1="0" x2="497.0982142857143" y2="5" style="visibility: inherit;" fill="rgb(0, 0, 0)" stroke="rgb(204, 204, 204)" stroke-width="1px"></line><line x1="596.5178571428571" y1="0" x2="596.5178571428571" y2="5" style="visibility: inherit;" fill="rgb(0, 0, 0)" stroke="rgb(204, 204, 204)" stroke-width="1px"></line><line x1="695.9375" y1="0" x2="695.9375" y2="5" style="visibility: inherit;" fill="rgb(0, 0, 0)" stroke="rgb(204, 204, 204)" stroke-width="1px"></line><line x1="795.3571428571428" y1="0" x2="795.3571428571428" y2="5" style="visibility: inherit;" fill="rgb(0, 0, 0)" stroke="rgb(204, 204, 204)" stroke-width="1px"></line><line x1="894.7767857142858" y1="0" x2="894.7767857142858" y2="5" style="visibility: inherit;" fill="rgb(0, 0, 0)" stroke="rgb(204, 204, 204)" stroke-width="1px"></line><line x1="994.1964285714286" y1="0" x2="994.1964285714286" y2="5" style="visibility: inherit;" fill="rgb(0, 0, 0)" stroke="rgb(204, 204, 204)" stroke-width="1px"></line><line x1="1093.6160714285713" y1="0" x2="1093.6160714285713" y2="5" style="visibility: inherit;" fill="rgb(0, 0, 0)" stroke="rgb(204, 204, 204)" stroke-width="1px"></line><line x1="1193.0357142857142" y1="0" x2="1193.0357142857142" y2="5" style="visibility: inherit;" fill="rgb(0, 0, 0)" stroke="rgb(204, 204, 204)" stroke-width="1px"></line><line x1="1292.455357142857" y1="0" x2="1292.455357142857" y2="5" style="visibility: inherit;" fill="rgb(0, 0, 0)" stroke="rgb(204, 204, 204)" stroke-width="1px"></line><line x1="1391.875" y1="0" x2="1391.875" y2="5" style="visibility: inherit;" fill="rgb(0, 0, 0)" stroke="rgb(204, 204, 204)" stroke-width="1px"></line></g><g transform="translate(0, 8)"><text x="0" y="0" dx="0em" dy="0.95em" style="text-anchor: middle; visibility: hidden; font-family: Roboto, sans-serif; font-size: 12px; font-weight: 200;" fill="rgb(33, 33, 33)" stroke="none" stroke-width="1px">-50k</text><text x="99.41964285714285" y="0" dx="0em" dy="0.95em" style="text-anchor: middle; visibility: inherit; font-family: Roboto, sans-serif; font-size: 12px; font-weight: 200;" fill="rgb(33, 33, 33)" stroke="none" stroke-width="1px">0</text><text x="198.8392857142857" y="0" dx="0em" dy="0.95em" style="text-anchor: middle; visibility: inherit; font-family: Roboto, sans-serif; font-size: 12px; font-weight: 200;" fill="rgb(33, 33, 33)" stroke="none" stroke-width="1px">50k</text><text x="298.25892857142856" y="0" dx="0em" dy="0.95em" style="text-anchor: middle; visibility: inherit; font-family: Roboto, sans-serif; font-size: 12px; font-weight: 200;" fill="rgb(33, 33, 33)" stroke="none" stroke-width="1px">100k</text><text x="397.6785714285714" y="0" dx="0em" dy="0.95em" style="text-anchor: middle; visibility: inherit; font-family: Roboto, sans-serif; font-size: 12px; font-weight: 200;" fill="rgb(33, 33, 33)" stroke="none" stroke-width="1px">150k</text><text x="497.0982142857143" y="0" dx="0em" dy="0.95em" style="text-anchor: middle; visibility: inherit; font-family: Roboto, sans-serif; font-size: 12px; font-weight: 200;" fill="rgb(33, 33, 33)" stroke="none" stroke-width="1px">200k</text><text x="596.5178571428571" y="0" dx="0em" dy="0.95em" style="text-anchor: middle; visibility: inherit; font-family: Roboto, sans-serif; font-size: 12px; font-weight: 200;" fill="rgb(33, 33, 33)" stroke="none" stroke-width="1px">250k</text><text x="695.9375" y="0" dx="0em" dy="0.95em" style="text-anchor: middle; visibility: inherit; font-family: Roboto, sans-serif; font-size: 12px; font-weight: 200;" fill="rgb(33, 33, 33)" stroke="none" stroke-width="1px">300k</text><text x="795.3571428571428" y="0" dx="0em" dy="0.95em" style="text-anchor: middle; visibility: inherit; font-family: Roboto, sans-serif; font-size: 12px; font-weight: 200;" fill="rgb(33, 33, 33)" stroke="none" stroke-width="1px">350k</text><text x="894.7767857142858" y="0" dx="0em" dy="0.95em" style="text-anchor: middle; visibility: inherit; font-family: Roboto, sans-serif; font-size: 12px; font-weight: 200;" fill="rgb(33, 33, 33)" stroke="none" stroke-width="1px">400k</text><text x="994.1964285714286" y="0" dx="0em" dy="0.95em" style="text-anchor: middle; visibility: inherit; font-family: Roboto, sans-serif; font-size: 12px; font-weight: 200;" fill="rgb(33, 33, 33)" stroke="none" stroke-width="1px">450k</text><text x="1093.6160714285713" y="0" dx="0em" dy="0.95em" style="text-anchor: middle; visibility: inherit; font-family: Roboto, sans-serif; font-size: 12px; font-weight: 200;" fill="rgb(33, 33, 33)" stroke="none" stroke-width="1px">500k</text><text x="1193.0357142857142" y="0" dx="0em" dy="0.95em" style="text-anchor: middle; visibility: inherit; font-family: Roboto, sans-serif; font-size: 12px; font-weight: 200;" fill="rgb(33, 33, 33)" stroke="none" stroke-width="1px">550k</text><text x="1292.455357142857" y="0" dx="0em" dy="0.95em" style="text-anchor: middle; visibility: inherit; font-family: Roboto, sans-serif; font-size: 12px; font-weight: 200;" fill="rgb(33, 33, 33)" stroke="none" stroke-width="1px">600k</text><text x="1391.875" y="0" dx="0em" dy="0.95em" style="text-anchor: middle; visibility: hidden; font-family: Roboto, sans-serif; font-size: 12px; font-weight: 200;" fill="rgb(33, 33, 33)" stroke="none" stroke-width="1px">650k</text></g><line x1="0" y1="0" x2="1391.875" y2="0" fill="rgb(0, 0, 0)" stroke="rgb(204, 204, 204)" stroke-width="1px"></line></g></g></g></g></svg>