<svg viewBox="0 0 1443 400" xmlns="http://www.w3.org/2000/svg"><g><g><g><g><g><line x1="40.84375" y1="374" x2="35.84375" y2="374" style="visibility: inherit;" fill="rgb(0, 0, 0)" stroke="rgb(204, 204, 204)" stroke-width="1px"></line><line x1="40.84375" y1="332.4444444444444" x2="35.84375" y2="332.4444444444444" style="visibility: inherit;" fill="rgb(0, 0, 0)" stroke="rgb(204, 204, 204)" stroke-width="1px"></line><line x1="40.84375" y1="290.8888888888889" x2="35.84375" y2="290.8888888888889" style="visibility: inherit;" fill="rgb(0, 0, 0)" stroke="rgb(204, 204, 204)" stroke-width="1px"></line><line x1="40.84375" y1="249.33333333333337" x2="35.84375" y2="249.33333333333337" style="visibility: inherit;" fill="rgb(0, 0, 0)" stroke="rgb(204, 204, 204)" stroke-width="1px"></line><line x1="40.84375" y1="207.7777777777778" x2="35.84375" y2="207.7777777777778" style="visibility: inherit;" fill="rgb(0, 0, 0)" stroke="rgb(204, 204, 204)" stroke-width="1px"></line><line x1="40.84375" y1="166.2222222222222" x2="35.84375" y2="166.2222222222222" style="visibility: inherit;" fill="rgb(0, 0, 0)" stroke="rgb(204, 204, 204)" stroke-width="1px"></line><line x1="40.84375" y1="124.66666666666669" x2="35.84375" y2="124.66666666666669" style="visibility: inherit;" fill="rgb(0, 0, 0)" stroke="rgb(204, 204, 204)" stroke-width="1px"></line><line x1="40.84375" y1="83.1111111111111" x2="35.84375" y2="83.1111111111111" style="visibility: inherit;" fill="rgb(0, 0, 0)" stroke="rgb(204, 204, 204)" stroke-width="1px"></line><line x1="40.84375" y1="41.55555555555557" x2="35.84375" y2="41.55555555555557" style="visibility: inherit;" fill="rgb(0, 0, 0)" stroke="rgb(204, 204, 204)" stroke-width="1px"></line><line x1="40.84375" y1="0" x2="35.84375" y2="0" style="visibility: inherit;" fill="rgb(0, 0, 0)" stroke="rgb(204, 204, 204)" stroke-width="1px"></line></g><g transform="translate(30.84375, 0)"><text x="0" y="374" dx="0em" dy="0.3em" style="text-anchor: end; visibility: hidden; font-family: Roboto, sans-serif; font-size: 12px; font-weight: 200;" fill="rgb(33, 33, 33)" stroke="none" stroke-width="1px">-35</text><text x="0" y="332.4444444444444" dx="0em" dy="0.3em" style="text-anchor: end; visibility: inherit; font-family: Roboto, sans-serif; font-size: 12px; font-weight: 200;" fill="rgb(33, 33, 33)" stroke="none" stroke-width="1px">-30</text><text x="0" y="290.8888888888889" dx="0em" dy="0.3em" style="text-anchor: end; visibility: inherit; font-family: Roboto, sans-serif; font-size: 12px; font-weight: 200;" fill="rgb(33, 33, 33)" stroke="none" stroke-width="1px">-25</text><text x="0" y="249.33333333333337" dx="0em" dy="0.3em" style="text-anchor: end; visibility: inherit; font-family: Roboto, sans-serif; font-size: 12px; font-weight: 200;" fill="rgb(33, 33, 33)" stroke="none" stroke-width="1px">-20</text><text x="0" y="207.7777777777778" dx="0em" dy="0.3em" style="text-anchor: end; visibility: inherit; font-family: Roboto, sans-serif; font-size: 12px; font-weight: 200;" fill="rgb(33, 33, 33)" stroke="none" stroke-width="1px">-15</text><text x="0" y="166.2222222222222" dx="0em" dy="0.3em" style="text-anchor: end; visibility: inherit; font-family: Roboto, sans-serif; font-size: 12px; font-weight: 200;" fill="rgb(33, 33, 33)" stroke="none" stroke-width="1px">-10</text><text x="0" y="124.66666666666669" dx="0em" dy="0.3em" style="text-anchor: end; visibility: inherit; font-family: Roboto, sans-serif; font-size: 12px; font-weight: 200;" fill="rgb(33, 33, 33)" stroke="none" stroke-width="1px">-5</text><text x="0" y="83.1111111111111" dx="0em" dy="0.3em" style="text-anchor: end; visibility: inherit; font-family: Roboto, sans-serif; font-size: 12px; font-weight: 200;" fill="rgb(33, 33, 33)" stroke="none" stroke-width="1px">0</text><text x="0" y="41.55555555555557" dx="0em" dy="0.3em" style="text-anchor: end; visibility: inherit; font-family: Roboto, sans-serif; font-size: 12px; font-weight: 200;" fill="rgb(33, 33, 33)" stroke="none" stroke-width="1px">5</text><text x="0" y="0" dx="0em" dy="0.3em" style="text-anchor: end; visibility: hidden; font-family: Roboto, sans-serif; font-size: 12px; font-weight: 200;" fill="rgb(33, 33, 33)" stroke="none" stroke-width="1px">10</text></g><line x1="40.84375" y1="0" x2="40.84375" y2="374" fill="rgb(0, 0, 0)" stroke="rgb(204, 204, 204)" stroke-width="1px"></line></g></g><g transform="translate(40, 0)" clip-path="url(#clip_0)"><clipPath id="clip_0"><rect width="1402" height="374"></rect></clipPath><g><g><g><line x1="0" y1="0" x2="0" y2="374" fill="rgb(0, 0, 0)" stroke="rgb(66, 66, 66)" stroke-width="1px" opacity="0.25"></line><line x1="100.15401785714285" y1="0" x2="100.15401785714285" y2="374" fill="rgb(0, 0, 0)" stroke="rgb(66, 66, 66)" stroke-width="1px" opacity="0.25"></line><line x1="200.3080357142857" y1="0" x2="200.3080357142857" y2="374" fill="rgb(0, 0, 0)" stroke="rgb(66, 66, 66)" stroke-width="1px" opacity="0.25"></line><line x1="300.46205357142856" y1="0" x2="300.46205357142856" y2="374" fill="rgb(0, 0, 0)" stroke="rgb(66, 66, 66)" stroke-width="1px" opacity="0.25"></line><line x1="400.6160714285714" y1="0" x2="400.6160714285714" y2="374" fill="rgb(0, 0, 0)" stroke="rgb(66, 66, 66)" stroke-width="1px" opacity="0.25"></line><line x1="500.7700892857143" y1="0" x2="500.7700892857143" y2="374" fill="rgb(0, 0, 0)" stroke="rgb(66, 66, 66)" stroke-width="1px" opacity="0.25"></line><line x1="600.9241071428571" y1="0" x2="600.9241071428571" y2="374" fill="rgb(0, 0, 0)" stroke="rgb(66, 66, 66)" stroke-width="1px" opacity="0.25"></line><line x1="701.078125" y1="0" x2="701.078125" y2="374" fill="rgb(0, 0, 0)" stroke="rgb(66, 66, 66)" stroke-width="1px" opacity="0.25"></line><line x1="801.2321428571428" y1="0" x2="801.2321428571428" y2="374" fill="rgb(0, 0, 0)" stroke="rgb(66, 66, 66)" stroke-width="1px" opacity="0.25"></line><line x1="901.3861607142858" y1="0" x2="901.3861607142858" y2="374" fill="rgb(0, 0, 0)" stroke="rgb(66, 66, 66)" stroke-width="1px" opacity="0.25"></line><line x1="1001.5401785714286" y1="0" x2="1001.5401785714286" y2="374" fill="rgb(0, 0, 0)" stroke="rgb(66, 66, 66)" stroke-width="1px" opacity="0.25"></line><line x1="1101.6941964285713" y1="0" x2="1101.6941964285713" y2="374" fill="rgb(0, 0, 0)" stroke="rgb(66, 66, 66)" stroke-width="1px" opacity="0.25"></line><line x1="1201.8482142857142" y1="0" x2="1201.8482142857142" y2="374" fill="rgb(0, 0, 0)" stroke="rgb(66, 66, 66)" stroke-width="1px" opacity="0.25"></line><line x1="1302.002232142857" y1="0" x2="1302.002232142857" y2="374" fill="rgb(0, 0, 0)" stroke="rgb(66, 66, 66)" stroke-width="1px" opacity="0.25"></line><line x1="1402.15625" y1="0" x2="1402.15625" y2="374" fill="rgb(0, 0, 0)" stroke="rgb(66, 66, 66)" stroke-width="1px" opacity="0.25"></line></g><g><line x1="0" y1="374" x2="1402.15625" y2="374" fill="rgb(0, 0, 0)" stroke="rgb(66, 66, 66)" stroke-width="1px" opacity="0.25"></line><line x1="0" y1="332.4444444444444" x2="1402.15625" y2="332.4444444444444" fill="rgb(0, 0, 0)" stroke="rgb(66, 66, 66)" stroke-width="1px" opacity="0.25"></line><line x1="0" y1="290.8888888888889" x2="1402.15625" y2="290.8888888888889" fill="rgb(0, 0, 0)" stroke="rgb(66, 66, 66)" stroke-width="1px" opacity="0.25"></line><line x1="0" y1="249.33333333333337" x2="1402.15625" y2="249.33333333333337" fill="rgb(0, 0, 0)" stroke="rgb(66, 66, 66)" stroke-width="1px" opacity="0.25"></line><line x1="0" y1="207.7777777777778" x2="1402.15625" y2="207.7777777777778" fill="rgb(0, 0, 0)" stroke="rgb(66, 66, 66)" stroke-width="1px" opacity="0.25"></line><line x1="0" y1="166.2222222222222" x2="1402.15625" y2="166.2222222222222" fill="rgb(0, 0, 0)" stroke="rgb(66, 66, 66)" stroke-width="1px" opacity="0.25"></line><line x1="0" y1="124.66666666666669" x2="1402.15625" y2="124.66666666666669" fill="rgb(0, 0, 0)" stroke="rgb(66, 66, 66)" stroke-width="1px" opacity="0.25"></line><line x1="0" y1="83.1111111111111" x2="1402.15625" y2="83.1111111111111" fill="rgb(0, 0, 0)" stroke="rgb(66, 66, 66)" stroke-width="1px" opacity="0.25"></line><line x1="0" y1="41.55555555555557" x2="1402.15625" y2="41.55555555555557" fill="rgb(0, 0, 0)" stroke="rgb(66, 66, 66)" stroke-width="1px" opacity="0.25"></line><line x1="0" y1="0" x2="1402.15625" y2="0" fill="rgb(0, 0, 0)" stroke="rgb(66, 66, 66)" stroke-width="1px" opacity="0.25"></line></g></g></g><g><g><line x1="0" y1="83.1111111111111" x2="1402.15625" y2="83.1111111111111" fill="rgb(0, 0, 0)" stroke="rgb(153, 153, 153)" stroke-width="1.5px"></line></g></g><g><g><line x1="100.15401785714285" y1="0" x2="100.15401785714285" y2="374" fill="rgb(0, 0, 0)" stroke="rgb(153, 153, 153)" stroke-width="1.5px"></line></g></g><g><g><g><g><g><path stroke="rgb(255, 112, 67)" stroke-width="2px" d="M101.8766669642857,60.821024841732445L102.59777589285714,63.332669475932136L104.8111796875,68.11365867051926L105.26187276785714,66.92838220286175L105.72258124999999,67.62214661310274L106.74415223214287,64.56332556710883L108.20640089285715,59.67985314486146L110.42982008928571,58.05021321408383L111.49145267857143,60.56420166129733L112.01225357142857,58.4807933810361L112.88359352678572,56.93107568709508L114.3458421875,55.29560473827988L114.75647366071429,56.74037422383957L115.117028125,54.130547171694914L115.27727455357143,56.57067287249658L115.65785982142857,52.20350795992536L115.82812165178571,46.36772272793334L119.58389732142857,42.44683392162755L119.78420535714285,46.30750262711469L125.22256852678572,48.332061353968676L125.96370825892856,45.759963981075096L127.12549486607142,41.681349826531466L127.27572589285714,43.81873568685228L127.36586450892857,43.673149853195426L131.0315015625,40.09783001261036L132.61393504464286,38.51313281491801L132.8543046875,37.459761083509534L135.868940625,36.57440124565816L136.2094642857143,34.45046162865094L136.75029598214286,31.788919468601282L136.89051160714286,27.39431711887178L139.3643158482143,23.919998427997136L140.44597924107143,26.34471787751091L141.30730379464285,19.062168628321157L141.42748861607143,18.80402327660384L142.02841272321427,12.266693441459607L142.48912120535715,12.529815682422084L143.5006767857143,17.623476886270787L145.86431160714287,16.095113615508527L148.5484392857143,14.063453962975535L151.1324129464286,17.57154560798105L151.59312142857144,14.681799825889742L152.10390691964284,6.830450323662627L152.23410714285714,4.774264458408319L152.85506205357143,8.566899189348067L153.1855703125,9.708162195201096L153.85660223214285,7.615013277802239L154.77801919642857,13.208662167691163L156.9112997767857,11.57518049400634L158.56384107142858,11.75409534692939L158.90436473214285,8.527807200736385L159.03456495535715,7.671357132322731L160.0561359375,6.828799214386679L160.21638236607143,6.302693320698207L160.77724486607144,8.175972638576892L161.62855401785714,8.637131620862233L162.49989397321428,12.09120012469431L163.04072566964285,10.778979855968277L163.59157276785714,3.86417624370435L163.94211183035713,3.0268181425698786L165.9451921875,5.725124805880656L167.55767187499998,-2.1222471430182113L167.75797991071428,-3.0393023910832992L168.7595200892857,2.5711977681624156L169.4505828125,4.305791466094346L170.17169174107144,9.948414999377356L170.80266205357142,8.7826093832764L172.79572700892857,11.357747248372686L174.6285455357143,7.413293561942485L174.9089767857143,10.61095140644427L176.71174910714288,14.217452467870377L177.57307366071427,16.60811084921061L180.13701651785715,13.919182502238097L181.49911116071428,16.851679495474446L183.19171406249998,16.10629759332516L185.76567232142858,19.1804843700216L185.8257647321429,18.194247564319106L186.4667504464286,17.40278360564157L186.8773819196429,15.39110787069674L187.22792098214288,18.772794990068604L187.52838303571428,16.112778699410583L187.80881428571428,15.209312220009915L188.04918392857144,12.372066602148095L188.06921473214285,15.501598561765755L191.814975,12.361876636681894L192.81651517857145,13.941556361895923L193.20711584821427,14.288544417381214L193.5676703125,13.606882598466928L193.88816316964284,16.63557362729017L195.77105870535712,16.92907925693545L197.42360000000002,16.167573842760635L197.83423147321426,18.663277030390834L198.6755252232143,22.509481410797395L198.97598727678573,23.616940738120707L199.246403125,22.27439752815209L199.4767573660714,26.971864245933975L199.7972502232143,24.319742100987142L200.03761986607142,24.286740357245396L200.09771227678573,21.049092602354726L200.9390060267857,24.07950976297526L201.20942187499998,28.472165092590163L201.51989933035716,31.840830486071397L202.22097745535717,30.228652416473512L203.73330312500002,30.53547004925258L204.76488950892858,26.10939419876102L204.89508973214288,24.100146406468255L205.49601383928572,26.248502868301617L206.7479390625,26.23683549607044L206.76796986607144,29.789609155044054L207.3889247767857,30.977998800026924L210.55379174107145,31.07298175198478L211.50525491071429,34.17716610570572L212.50679508928573,35.13994808945003L213.63853549107142,36.768185155297196L214.26950580357143,35.44483952047527L218.5260515625,38.39047602805215L219.00679084821428,40.82915623130369L220.60925513392854,42.86475186196624L221.10000982142859,44.45633081739406L223.50370625,45.774845236770176L223.88429151785715,45.52433384542831L224.32496919642858,44.92010692822976L224.345,45.93991372692475L225.1061705357143,46.8427757801586L227.42974375000003,47.32648209110724L229.40277790178573,45.70153678185964L229.79337857142855,44.28331371249469L233.39892321428573,43.41900076840984L234.2402169642857,41.51798975182581L235.58228080357145,42.86811018185922L235.8627120535714,43.016311969204324L236.5938363839286,43.63017734144289L236.78412901785714,38.94964441713299L236.83420602678572,39.8392758432225L238.3865933035714,40.087085771284826L238.8573171875,38.87384869447464L240.07919620535716,41.04767098896606L240.16933482142858,42.81358322095534L240.83035133928573,38.48878375205711L242.25253839285716,40.050840742693936L242.432815625,40.93891381526514L243.02372433035714,42.09624461574973L243.98520290178573,43.349714503634985L246.8295770089286,41.887433418127394L247.83111718749998,43.58660303366915L248.89274977678573,43.58443961365546L249.02295,44.52029516185807L250.57533727678575,44.14982792127515L251.0360457589286,43.51769689444746L251.08612276785715,39.2674734072477L251.62695446428575,39.46658426999439L252.23789397321428,37.32676220003277L254.10075870535712,35.80154105342899L256.4944397321429,35.872128414981674L256.77487098214283,38.36855257024217L262.81415825892856,38.04815772324015L264.3264839285714,36.71853786004292L268.7532915178571,37.27265429146581L269.073784375,33.534422829263704L269.2440462053571,32.28210678300327L269.48441584821427,33.440264940800134L269.8850319196428,34.19442113283622L271.61769642857143,30.614711558368587L271.68780424107143,32.77989468750432L274.36191651785714,34.5739423935446L276.0545194196429,32.56702649631759L277.7371069196429,29.193026239914293L280.4813270089286,27.239198217849665L281.64311361607145,26.742571826029472L281.72323683035717,29.01821645147162L281.7632984375,29.346964527076278L281.80336004464283,31.413944972016385L284.4874877232143,32.034833095702574L285.2486582589286,31.602121979050917L288.0329399553571,30.822085877036873L288.09303236607144,28.71988024269937L288.3934944196429,32.18317982638199L289.48517321428574,33.17177931269791L291.5383305803571,34.85937587155861L291.5783921875,34.4873865148806L292.53987075892854,31.83036749267974L293.6415649553571,33.56778188629468L294.22245825892855,36.37140821523286L295.46436808035713,37.513493030655255L295.9150611607143,36.34027760933868L296.6261546875,35.58527517618893L298.8696046875,36.3068441542161L299.68085223214285,34.884872312983354L300.45203816964283,32.30439475030939L305.3996466517857,32.636864871326324L306.25095580357146,31.830963679321524L306.651571875,30.305234480037623L306.932003125,28.728467551444094L308.07375892857146,25.09319305598003L308.8850064732143,27.223659868605406L310.1569625,25.68742553994454L310.83800982142856,29.25128719387109L310.99825625,28.602300943620904L311.7694421875,27.585730572028577L313.15156763392855,26.2037596497141L313.5922453125,29.264298401398296L317.2478669642857,28.668977245322463L321.1238274553571,30.718031476840657L322.11535223214287,31.46261154299733L323.56758549107144,30.565350761565284L327.52366919642856,31.273405088757958L331.2193524553572,33.45583866366452L331.5698915178572,34.16138512872622L334.5745120535714,32.482676892145214L334.58452745535715,34.30788944191172L335.51595982142857,33.99383839204391L336.40733058035715,34.091927428519526L344.3094825892857,34.33590895823036L345.2208841517857,34.814539993800565L345.2609457589286,35.86845519145159L347.5745035714286,36.07407027244433L347.7147191964286,37.78863192579374L348.1153352678571,36.393836143662305L348.8164133928571,37.309740961167385L348.9666444196428,36.24184824989095L349.91810758928574,37.530431055221456L350.44892388392856,37.97089529821093L351.0698787946429,36.59875330386277L351.6607875,38.712581710744274L353.0328975446428,38.388251352889085L354.9859008928571,38.95404713571025L357.0390582589286,39.24321126000045L357.57988995535715,39.74262680998879L357.7000747767857,38.99419067376004L359.8433707589286,39.58997613859032L363.18851495535716,40.9106977696301L363.5891310267857,42.21671081291951L364.3302707589286,40.436678273206184L364.7709484375,41.60619754901875L367.0244138392857,42.333201366885646L367.49513772321427,43.07289827629525L368.7270321428571,43.36616151145773L370.7100816964286,44.0562933949233L370.8603127232143,42.83436883086105L371.6114678571429,40.31646747001652L373.65460982142855,40.1431265762804L375.1168584821429,40.064998909475435L375.78789040178566,41.622464995364595L376.83950758928574,42.97447313900546L378.5020642857143,43.938130668288515L378.9126957589286,44.871483741987596L379.5236352678571,44.49250085840396L380.64536026785714,43.25188837440626L381.03596093749996,44.224811904630286L381.60683883928573,42.10040456215636L388.53749687500004,43.332657341639944L390.3202383928571,44.00598126661578L390.4404232142857,44.05546967515783L393.1946587053571,43.98565970788614L393.7054441964286,43.79842722784324L395.50821651785714,44.43011836664546L396.25937165178567,45.70874251622632L396.81021875,46.982148785845446L396.97046517857143,47.090577452545226L397.3810966517857,47.394236156541666L398.45274464285717,48.02006753063081L398.9234685267857,48.92226137830856L399.0937303571429,48.59611758110818L399.3541308035715,49.64097250184406L401.1669185267857,49.06197271040532L401.28710334821426,49.951317882205025L401.4173035714286,50.16387458986573L403.62069196428575,50.9051824236965L403.9512002232143,49.793841237893815L407.65689888392853,49.792310806172L409.54980982142854,50.80241989034297L409.82022566964287,51.87384645253725L410.2208417410714,52.81660892786164L410.3009649553572,53.561006801034964L410.691565625,53.858942704231964L413.07523124999994,54.484984386892926L414.3972642857143,55.52988894536642L414.7377879464285,54.668072357346304L416.7108220982143,55.631390235611924L417.24163839285717,56.31184757904672L419.665365625,56.290511536781985L419.8256120535714,57.95993343367975L420.1761511160714,55.521870260568186L420.40650535714286,54.79929996262531L420.78709062499996,54.1799119223267L425.72468370535717,53.730427124429525L428.7693658482143,53.34102370129331L428.8995660714285,49.96699408361358L428.90958147321425,51.70526461020344L429.6807674107143,54.07988489533979L430.7824616071428,53.83633223055884L433.45657388392857,52.47040071232385L434.7485607142857,51.04463038770306L437.68307343749996,52.400124764399656L438.7046444196429,49.43892815692438L439.3155839285714,48.84631536099551L439.53592276785713,48.751909559778966L445.324825,47.44905633434664L450.20232566964285,45.8046561943558L450.36257209821434,47.190410470994344L452.0952366071429,47.56732610916989L452.8664225446429,44.624593741543286L454.4688868303571,47.49065053636273L455.3402267857143,48.14713381799946L455.4704270089286,49.28427864397542L456.2115667410714,41.537274421731446L456.4919979910714,38.73634835360827L457.7439232142857,43.60409526198478L459.83714218750004,41.36125554325347L460.18768124999997,46.88515058052933L465.7261984375,52.18340449618548L466.8379080357143,54.98627431250085L467.6591709821429,49.51646205576103L469.60215892857144,46.78708374016957L469.63220513392855,47.05789822721591L469.75238995535716,48.45916864806369L470.6838223214286,46.68792424679299L471.3748850446429,43.944994786160514L471.51510066964283,48.64346364347988L471.88567053571427,46.496780526973275L472.5466870535714,49.21082912577851L475.7115540178571,49.02832625092665L477.47426473214284,52.258651412711664L478.22541986607143,53.010425741290646L480.1083154017857,55.91744901986827L484.60523080357143,59.61276986534256L484.61524620535715,55.58479812358377L484.82556964285715,61.1123761287495L485.61678638392857,59.77926432115481L488.8016841517857,63.430950781684345L489.1422078125,60.87728597401082L489.5528392857143,62.15598362031377L489.7331165178571,58.93844065567754L491.00507254464287,58.829293661389634L493.13835312500004,62.506995175473364L496.64374375,60.566680989418366L497.8856535714286,59.05763556725764L501.0705513392857,56.79153103749209L501.87178348214286,54.40014961179303L502.5127691964286,51.57748009694576L503.1337241071429,53.125753653311456L503.2639243303571,54.42696604537729L504.03511026785714,50.60124180958877L504.09520267857147,56.062521018819346L504.93649642857144,56.14121730664281L506.17840624999997,57.75144284411728L506.9495921875,63.196733433758865L508.71230290178573,64.93147903873312L508.7924261160714,68.57808849551645L510.20459776785714,68.78303778122556L511.51661540178566,67.66418676549085L511.55667700892855,65.24631044737939L514.5312513392857,64.7946988667841L515.5227761160714,70.1918344163202L516.1537464285715,72.6007927064077L516.2038234375,71.2042186072648L516.4542084821429,73.898958051431L518.51738125,68.50487745409097L519.9195375,67.7425547986949L520.4803999999999,68.17761514052211L520.9210776785715,70.14897357144197L522.0828642857143,75.71633275284955L522.1129104910714,78.72718298595157L525.4179930803572,80.86067961926729L526.1591328124999,81.69246863372167L529.3640613839286,85.0370777721965L529.8147544642857,90.49781887126736L530.3255399553572,93.80898135179497L532.1984200892857,97.88031573778436L533.1298524553572,97.3704454280486L533.7808535714286,99.12139721903932L536.3648272321428,101.37180136516675L536.9357051339285,104.508614988923L538.5982618303572,104.58115722322455L539.6298482142857,106.60994235555854L543.3856238839286,108.10479998599578L543.6660551339286,108.9320969963955L544.3270716517857,108.90580228897365L544.4672872767857,108.66582999493623L545.4688274553572,105.23630979749318L545.6791508928571,108.14722996096681L546.0597361607142,107.88069646258516L547.9526470982144,110.88103321631245L548.0828473214285,113.59212119398772L548.1429397321428,112.65268812670915L548.4534171875,113.70754388990355L550.6067285714286,111.89444829110852L554.7030279017857,114.16350188375485L555.1236747767857,118.07965721650366L556.1552611607143,120.00724225862908L556.5658926339286,121.01849428196023L563.6067200892857,122.33786972400301L565.7900776785714,124.99527948620651L566.9718950892857,127.99571852304722L569.7762075892857,130.97408089228355L569.9765156249999,133.22939926243797L571.0481636160714,133.83092876002766L571.3386102678571,135.6003152931445L571.5088720982143,137.83888272005026L571.5489337053572,135.84071060464942L571.7091801339286,136.3568474465966L571.9996267857143,138.21180733265027L572.4703506696428,137.9528725239029L572.6606433035714,139.69224238812052L573.9225839285715,138.36252659600936L574.3632616071429,139.29219097488692L576.3463111607143,140.3041002564449L576.9973122767857,141.82543206740635L577.1375279017857,142.55059069736177L578.6598689732143,143.62392746986316L580.8832881696429,144.78525317177272L582.7862145089285,143.9574206685895L583.3671078125,146.21231998145905L584.7492332589286,148.23978220892215L586.0011584821428,150.30794189669498L587.2530837053571,151.88887587148196L587.8640232142858,151.49071442941755L588.0743466517857,153.61860564862303L589.3362872767857,154.74238039902536L591.8401377232143,156.3964398382904L592.5612466517857,154.82111668895098L592.9218011160714,156.36948356451256L593.5928330357143,158.411011045946L594.0535415178572,158.9236720925755L595.7461444196429,160.49785868270024L597.8293479910714,159.64884496855333L597.9395174107143,161.60683860403373L598.4402875000001,162.8503165490527L599.5620124999999,164.2545735619147L600.5335064732143,164.8400193740272L601.0242611607143,166.26233048301353L603.5381270089287,168.16544683982062L605.9818850446428,169.1508298042811L606.9633944196429,170.7931521111115L607.3239488839286,172.20856064796854L607.9048421875,173.24869591692078L611.8809566964286,174.41368260939115L618.9217841517857,176.4274093121359L620.2538325892857,178.95074265560064L620.313925,180.81312738016354L620.6644640625,182.6601801640863L621.0851109375,183.71353228095438L623.2484377232142,183.3490588824214L623.5889613839286,185.0623489803946L624.4803321428572,184.98342542861906L624.6005169642857,186.31012544590902L624.9510560267857,187.82358506063886L626.3532122767857,188.80300277344602L626.4333354910715,187.97582957166213L627.3747832589286,189.44574878441844L627.6251683035714,191.34459616735953L630.6398042410715,192.77792325651944L631.7915754464286,193.98074446865957L633.5142245535715,195.58943299253016L637.2099078125,196.43853374109716L640.8054370535714,197.7607314643811L641.3963457589285,199.75832773030209L642.4579783482143,199.69522876512002L645.5727683035715,201.5189028658151L646.9148321428572,204.24860255116988L648.6575120535714,206.16974546799213L651.7923328125,208.42243674508052L652.2029642857143,209.70691284109208L652.4833955357143,211.6050149496586L652.5735341517857,210.8998676471862L653.6151359375,211.7649115975395L654.6767685267857,209.41067806580563L655.9988015625,211.24839384899323L656.8701415178572,209.28252580917507L657.3008037946429,210.8537796568073L658.1921745535715,212.32616005085816L659.714515625,213.03587955164573L660.836240625,213.7948388613144L661.1266872767857,216.01366005660793L662.3385508928571,218.0767829443749L663.1197522321429,219.07700554522432L663.9309997767857,218.88924683458984L665.7938645089286,220.61398257780638L665.8339261160714,219.429152141957L668.9587314732142,221.17173513858734L670.3508723214286,221.72609536930625L670.6212881696429,224.0428903199676L671.6929361607143,225.2313334012649L675.1582651785715,226.4629600756397L675.5488658482143,228.46296937887112L678.9641178571429,230.43431745866332L680.0257504464286,231.62453599478982L680.4864589285714,231.61147753376042L680.8269825892858,232.62268515675558L682.7499397321428,232.17033399780024L685.0234359374999,234.19187051380553L685.1035591517857,234.93981655061148L685.5242060267857,237.14315335713417L687.2067935267858,237.98117110964398L687.6074095982143,240.00993697248623L688.3585647321429,241.9724369165849L688.7191191964286,241.49973681218503L689.7106439732142,239.6181046420766L691.6336011160714,241.66872648777698L695.9201930803572,243.357956755814L696.6012404017857,245.14544730026753L701.0881404017857,246.9040333671509L703.8824375,246.44786767136827L705.3947631696428,246.46459869574258L710.6728799107143,249.2351479575164L712.8762683035715,251.98023559081238L713.2868997767856,251.91443964927208L714.9594718750001,253.59130813828156L715.0796566964285,255.213583196145L718.3546930803572,255.53495294539798L718.5249549107142,256.6834774252203L720.1474499999999,257.6503418156645L720.7984511160715,259.7083898906555L721.0087745535715,257.386889762188L721.6297294642857,258.4466885268728L721.9201761160714,258.2708726008765L724.5542267857144,260.376439800265L724.9748736607143,256.14468638611044L729.3215580357142,259.3810938388417L730.8038375,262.0839814316148L733.60815,264.26176323977427L736.8130785714286,264.0100975085946L737.3539102678571,263.14187295248655L738.0049113839285,264.8479357365281L740.1882689732143,268.09802308534336L742.0511337053572,267.3612362579882L746.1374176339285,268.3278003467226L747.1289424107143,270.04012880005604L747.4394198660715,272.49456962329674L750.0935013392858,275.42420841944903L750.434025,274.99469357882094L754.4101395089285,277.30576810429477L754.8808633928572,279.353591686805L755.3315564732144,280.5048301704618L755.6119877232144,282.4581914272223L756.743728125,282.8264530610758L758.0056687499999,283.3096146142524L758.3862540178571,284.68069145065215L758.6967314732143,282.5299028071959L759.5780868303572,281.3402725807719L759.7483486607143,281.99574866018503L760.4995037946428,282.88162278272165L760.7298580357142,284.1059524891439L761.0403354910715,285.2177503064736L763.2737700892858,285.6408552812574L763.474078125,286.10824924101075L763.61429375,285.2182664155137L764.0950330357143,286.2017951392468L766.2683752232142,287.18937971830394L767.5102850446428,286.69293465911045L767.7005776785714,288.08438080495216L767.8207625,288.58513605604395L767.9810089285714,288.64417319623493L768.6019638392858,289.42001061170254L773.5595877232142,290.30352564702264L774.0002654017857,287.4007821468499L776.3038078124999,289.72292604774793L776.4239926339286,290.25933606728364L779.5387825892857,290.45570960021905L779.7991830357143,291.91010697664336L780.1797683035714,290.8053165010467L781.1412468750001,290.9955616928621L781.8924020089285,289.3690252243797L783.0842348214285,292.23854751104676L785.5880852678571,293.61827039544767L785.7683625,294.12360013186924L787.0803801339285,293.5161361683209L787.4008729910714,295.5146686629824L789.4740611607143,296.29570572506367L791.8777575892857,295.92221223087563L791.9278345982142,292.2738345938639L793.5603450892856,294.2708606167144L794.5819160714285,296.90430134059375L795.4933176339285,296.5754637605989L795.8238258928573,297.28490314009804L796.5148886160714,297.4051154543799L797.6265982142857,296.3406230913143L797.9771372767857,298.00566524822506L799.4494013392856,298.38274107105724L803.1851462053572,300.0091213914595L804.6273640625,301.1917749404517L804.8376874999999,302.12827867292884L807.1211991071428,303.7868898891623L807.1712761160715,303.52276149086543L807.6119537946429,303.76878166854954L807.7421540178572,303.25467797698377L808.6535555803572,303.28847369126584L809.9956194196428,305.0964558498497L810.7567899553571,305.92368053884786L810.8268977678571,305.0157007007452L811.3777448660715,304.60076790719444L812.0587921875001,302.2394437901382L812.8399935267857,303.28892331485247L813.3107174107143,302.3881397742507L813.8114875,303.4069955501406L814.8130276785714,303.21868749778395L818.1982334821428,304.04654579629573L819.3800508928571,305.28811254239133L819.5903743303571,305.1421231990607L820.4917604910714,304.097243277673L822.2845174107143,300.95223377686926L824.1573975446429,299.81738596287454L826.7714174107143,303.74396168438926L827.1219564732143,305.0404018745025L827.4724955357143,307.7683894452943L827.7328959821428,308.92492745114646L832.5202580357143,311.3349972825046L833.3214901785714,313.01092412266166L833.7020754464286,314.35444923872177L835.8153252232142,313.47622923825395L836.9370502232142,314.83293785498574L838.1489138392858,314.69725838538835L839.6712549107143,313.5056680703441L840.1419787946429,315.62720003109087L840.4424408482143,314.4584327272381L840.5125486607143,316.2633044432379L840.7228720982143,317.4897161592996L841.6342736607144,316.7405413397118L841.6543044642857,315.4700738086672L842.7960602678571,313.7444095548819L843.2167071428571,314.2975563846825L844.3584629464286,315.48861726147317L846.1211736607144,314.48308685320524L847.2428986607143,315.0792792868448L848.8653937500001,317.57155973793397L849.8769493303572,314.69008538257805L851.359228794643,316.23719961641945L852.2806457589286,316.4175026130574L852.4108459821427,314.67449783154836L852.7714004464286,315.8123000712012L853.1519857142856,318.4057935956437L853.3623091517858,319.45486635234505L855.0048350446428,320.2390065055414L855.7359593749999,323.2360144187072L856.2868064732143,324.422355185275L856.9678537946429,324.25771976019917L857.4385776785714,323.0950074087724L858.1697020089285,324.4755441621525L861.3746305803571,324.66315602267446L863.5079111607142,325.4466957097954L863.5179265625001,326.9949516470464L864.3892665178571,325.70188930632526L866.2020542410716,326.6783241552924L866.6427319196429,323.80082545514756L867.2035944196429,324.12013769973004L869.2667671875,325.90331976807397L870.7089850446428,323.50212674137975L871.4601401785714,320.21283061131123L871.6604482142858,322.3992694634142L872.7921886160714,323.4185446668685L876.9285495535714,325.5528857619779L877.4393350446428,327.16219555890956L879.4123691964285,326.0335989832063L880.8545870535714,327.68468649857675L882.2467279017857,327.69830595816586L882.797575,327.3922433993452L883.218221875,328.9080861860831L883.6488841517858,329.320925668159L884.1095926339286,328.01794648748944L884.8507323660715,329.70816620759683L884.8807785714286,328.14796561378256L885.5918720982144,330.2596506858774L885.7120569196428,330.5253709494994L886.5333198660715,331.97544809287865L887.2644441964286,331.766362807799L887.7451834821428,330.9219050282759L888.8168314732143,330.3036888446693L890.7498040178572,330.6366856304501L891.9716830357142,329.99772981810787L892.8530383928571,331.7087436825028L892.8630537946428,333.0866032020243L893.1535004464286,333.27212717289336L893.6743013392856,333.7248195565113L896.9192915178571,330.76207247599245L897.1496457589286,331.1032391168617L900.0340814732143,329.6442164392956L903.8799957589287,331.63571447359357L906.1234457589285,330.7288582406587L906.3237537946429,329.95349276453766L912.8237495535715,330.0313116507306L914.5564140625,330.3498712505161L915.0872303571429,326.633292860873L915.7782930803571,326.6160349065098L917.5610345982143,326.30783441867027L918.6226671875,326.45482040833576L926.2443879464287,326.8194021165992L926.995543080357,329.2935331000719L928.9084848214285,331.4578202205632L932.9346763392857,331.51386720957225L933.1249689732142,332.06111131526524L933.1950767857143,330.96424692167835L934.67735625,330.4597827166504L937.9323618303571,325.67030450583985L939.3946104910714,329.0214712488505L940.4862892857144,329.2093851832167L940.9169515625,328.6127296024653L941.3375984375,325.97857884730973L941.8383685267856,327.40666041400226L944.2620957589285,323.5773981011671L945.3938361607143,321.68566456451117L946.0548526785715,321.5791561090742L947.9577790178571,326.55793663584876L949.680428125,326.9613312863537L949.7805821428573,329.2730366884254L950.0409825892857,328.40154124513595L951.7636316964287,332.1269875940905L952.7351256696428,327.21953766641826L955.6696383928572,327.8419155843879L955.9500696428572,323.7090423484239L956.9315790178572,326.31499105715164L957.3021488839287,327.87008408988913L957.5224877232143,328.61963370867886L958.3137044642857,331.7323902656899L959.3152446428571,332.08851076737506L959.4153986607143,329.67421417216826L963.701990625,333.45076243067075L965.4446705357143,334.74601815105245L965.5047629464285,334.7226562465093L965.6950555803571,332.89975646693404L968.0687058035714,331.4362117626314L968.6495991071429,331.0389563553634L970.1619247767857,334.0313675514673L970.432340625,331.4315470847937L970.8830337053571,334.83277756109123L973.1965915178571,332.9707458390206L974.7089171875001,334.3991814253126L977.2528292410714,336.98774757894364L978.3845696428572,337.6890318339069L979.4161560267858,336.5445256719324L979.4361868303572,334.4819484760496L979.4462022321428,331.8512831494649L980.5979734375001,334.21455964131667L982.4808689732142,335.72214445445417L983.752825,338.1547783992567L987.0879537946429,337.06310570890736L989.8421892857142,335.1978391847745L995.1503522321428,334.3883352482374L995.9916459821428,334.4898874063536L999.0663743303571,333.61226842185476L1001.98085625,336.28886703104934L1002.9523502232144,336.6965349598818L1003.2628276785715,337.831711000132L1003.4330895089286,336.9708239189207L1006.1272325892858,337.25946812561506L1006.1572787946428,336.02095873036404L1007.3190654017858,336.8692331097795L1007.3891732142857,339.97536766865045L1009.6125924107142,341.36233386202537L1009.7728388392857,337.713032898404L1010.5540401785714,337.7703093516279L1011.0548102678572,337.1870967346389L1011.4854725446429,338.74217499716747L1012.3568124999999,340.8639763394224L1015.7620491071428,341.587370307649L1016.6233736607143,340.71818164990066L1018.9369314732143,340.96585510046526L1020.0686718750001,343.1887555864486L1021.5008743303571,342.5851359558397L1023.4438622767857,341.0438119574886L1024.104878794643,337.9408129971161L1024.1148941964286,338.1565383880086L1024.1649712053572,336.9654692391884L1024.235079017857,336.9111253574423L1029.0925488839284,336.29554484433055L1029.3429339285715,336.3937170474751L1029.8136578125,339.3013659855278L1032.9184323660713,333.1670178948947L1035.1418515625,335.2409564552658L1038.747396205357,336.4355177649885L1039.1880738839284,338.6882878183547L1039.2681970982142,339.08491585513406L1041.6518627232142,339.33969726133705L1041.7319859375,339.41717729013516L1043.2543270089286,340.0647601019649L1043.7350662946428,337.30793267128007L1045.347545982143,337.3462494302098L1046.319039955357,336.4904422321561L1046.6094866071428,337.98125225374247L1047.9715812499999,338.78603214424834L1048.7828287946427,339.9097651481786L1050.3452314732142,341.70717738682634L1051.5170334821428,340.84535440403573L1052.45848125,340.1875845384467L1053.9908377232143,341.6216626997949L1056.0540104910715,341.5313767398327L1058.5077839285716,341.7650602948609L1059.4091700892857,343.938685571772L1063.11486875,345.3470106386784L1067.9723386160713,345.99718567294354L1070.4761890625,344.805891950627L1071.7882066964287,347.6206617077455L1071.8482991071428,348.7679669136682L1076.2951375,350.78659958480824L1079.7304203125,350.7082132141248L1080.6718680803572,350.0015787940917L1082.3143939732142,348.2636660063292L1083.8467504464286,349.31690909629594L1084.9183984375002,349.7753987505611L1087.061694419643,350.7487078079576L1088.1233270089285,351.79402687462124L1092.1895801339285,352.97275276326036L1092.3598419642858,352.87220940597507L1092.700365625,353.8646570375838L1092.9207044642858,351.69323540247376L1093.2111511160715,348.9229064812943L1093.8020598214287,350.68700370608576L1095.0940466517857,350.04824186393006L1095.8852633928573,349.6855708098018L1096.1757100446428,352.0247441844625L1101.5840270089286,351.3207461905334L1104.0978928571428,350.86404278372555L1105.2897256696428,351.3585248424861L1106.0108345982144,350.72487241169506L1108.2843308035715,353.2040775490392L1109.0755475446429,353.6943051978685L1109.66645625,353.8828374484966L1109.8567488839285,353.77997119848914L1111.0485816964285,351.0608794076574L1112.7111383928573,351.92212081670755L1113.4622935267857,351.34535807440017L1114.8644497767857,352.21338515336777L1116.7273145089284,350.4512822600639L1118.1394861607143,352.10266982389317L1118.8706104910714,354.08637590360235L1122.2458008928572,350.0845383110438L1123.3374796875,350.7708930457534L1123.3875566964286,353.1658371240485L1124.1988042410715,355.22526101461426L1125.1702982142858,355.01018090506165L1126.8228395089284,353.95514369323337L1129.7072752232143,354.69219831504677L1129.7974138392856,356.59544295108253L1131.229616294643,355.6836500965431L1131.2696779017856,356.45054173386427L1132.0809254464286,358.4539874303315L1132.631772544643,357.37985501723614L1133.4630508928572,358.75452796859577L1134.104036607143,358.3149683017972L1135.7966395089286,359.3543309036448L1136.828225892857,358.5918646184779L1138.9514910714286,359.89682302751885L1140.5539553571427,359.187791572243L1140.8744482142856,358.0301675771846L1140.9245252232142,359.2634849189526L1143.3282216517857,358.57396030522506L1144.0092689732144,357.54917187238095L1144.6602700892859,355.80495892056643L1145.0909323660715,355.59992606657465L1145.1610401785715,354.46800966700755L1145.2311479910713,353.12279713451204L1145.8921645089285,355.44849046097335L1146.3829191964285,354.94658743985076L1149.2573395089285,353.7030729710864L1150.5292955357143,351.7601389561605L1151.4406970982143,352.0428413895378L1152.5423912946428,352.8703021304562L1153.2134232142857,354.1660918630564L1154.2349941964285,353.2217076172355L1154.7557950892858,354.1062801088166L1156.1779821428572,355.10526958401516L1157.0192758928572,356.7301127822837L1157.7403848214285,355.4606205806447L1157.9106466517858,355.02521050124534L1159.0023254464286,356.4877411006491L1159.3528645089286,352.56590697489315L1159.7634959821428,354.6776153775491L1161.2758216517857,355.13949023769464L1162.5277468749998,355.13028139235837L1163.8898415178571,347.2726421162467L1164.9114124999999,343.5252393270848L1165.2018591517856,341.92050552145514L1165.4221979910715,346.07928768403696L1166.4938459821428,346.55071957594055L1166.6040154017858,350.0848787409933L1166.7943080357143,351.9170501960282L1169.0277426339285,351.6156109820178L1170.8104841517857,348.83342387811643L1171.4715006696429,350.3640209696264L1172.232671205357,350.23209680092896L1172.4630254464287,346.5778616516264L1172.5731948660714,347.5187102875555L1172.7534720982144,343.6920508004383L1172.9637955357143,345.8688150652638L1174.72650625,345.35401648906003L1176.0785854910714,344.9633688308965L1176.1486933035715,345.0450692170067L1178.0616350446428,343.81279807990416L1179.2835140625,345.99988188297715L1179.634053125,348.0310076656699L1180.2149464285715,349.72993800238186L1180.4953776785715,350.87918664186856L1181.3366714285714,350.63768555617065L1182.398304017857,352.17444013194824L1182.4984580357143,351.3957046697133L1184.5215691964286,353.46717900405406L1187.0053888392858,354.9058836383561L1193.23496875,355.61083022882724L1193.8759544642858,356.19089332260177L1196.8304979910713,355.71589831964826L1197.2711756696428,348.0071575391821L1200.9868897321428,347.3885474662144L1202.1086147321428,342.43560291980316L1202.3289535714287,344.2656235169406L1203.230339732143,346.1988900760308L1204.9630042410713,341.8738724978363L1205.894436607143,339.1813737449325L1206.8559151785714,339.56096945899935L1211.573169419643,340.1893400237153L1211.9938162946428,338.49757075351005L1214.0269428571428,340.1436775168434L1214.517697544643,341.5787092728605L1214.9984368303572,340.71306948263305L1215.2988988839286,342.3784213691197L1215.3890375,338.84484889474777L1217.952980357143,343.4208256422197L1220.126322544643,340.4925696663365L1221.5084479910715,338.5600609481843L1221.869002455357,339.5078787247746L1222.1193875000001,338.85371581822574L1224.683330357143,338.48905319725094L1224.9136845982143,341.5160195421215L1225.1640696428572,342.85081744440686L1226.1155328124999,341.44567664025857L1226.365917857143,340.9314071196342L1227.2072116071429,342.7497758964452L1227.3574426339287,342.4282809866603L1227.557750669643,342.7026215510741L1228.4190752232143,339.1333326771928L1228.429090625,341.0434556077645L1231.3836341517856,338.1807202458958L1233.9175308035715,341.2920154667362L1235.9406419642858,338.8829606535539L1236.4514274553571,337.41264339466926L1241.4190667410714,338.2669119976365L1243.4421779017857,339.22308594034007L1243.952963392857,337.1354082969498L1245.5454122767858,337.04467341219095L1245.645566294643,339.0541084976835L1247.6987236607142,340.5469881904266L1249.4814651785714,341.95819741133647L1249.6116654017858,343.061852016797L1250.1524970982143,344.0160059156023L1250.3127435267857,346.5087740385799L1254.8096589285713,346.545142060725L1255.5107370535713,344.31918052954796L1255.5507986607142,346.5600095440811L1256.2017997767857,347.40687424632176L1256.2518767857143,346.11113657018024L1257.0130473214285,348.86524806229653L1258.2749879464284,345.1623613458876L1258.5554191964286,346.4690330925521L1259.9475600446428,347.70267544186936L1263.523058482143,343.9239560307144L1263.5330738839286,344.71758777785936L1264.4845370535713,346.2148901617948L1266.006878125,348.2916597151564L1266.9783720982143,350.4339609440544L1267.8897736607144,350.09036884543985L1267.9298352678572,351.90259720037534L1269.1717450892857,351.67996787667397L1273.5284448660714,351.57702280394335L1274.5099542410715,352.904059276412L1275.4514020089287,353.64838475023123L1279.60779375,352.5945963364263L1285.9675738839285,352.21453822094225L1287.1193450892856,353.4663774843059L1287.7302845982142,354.2757077138987L1287.9506234374999,354.2393022347583L1288.5014705357144,354.6765681983969L1291.9167225446429,353.07368645365574L1292.0969997767857,350.07671980297994L1292.2372154017858,351.7583737604069L1292.8481549107144,353.9410347762834L1294.019956919643,353.24089222667993L1294.5808194196427,351.5397156157895L1297.0746544642857,352.29761243810685L1297.6054707589285,351.1072557694417L1298.3365950892855,351.10136498610456L1300.7402915178573,351.3797850905546L1301.8720319196427,350.65863126797325L1302.8134796875001,352.10664113905307L1304.185589732143,353.82480241997723L1304.7865138392858,354.05725750401564L1305.4575457589285,353.4585700480801L1306.5993015625,355.0731802979042L1307.1301178571427,357.0408310899943L1309.5438296875,357.6527874170258L1311.296525,353.9254584729815L1311.6771102678572,353.457292369748L1311.7071564732144,353.9548199662194L1311.9575415178572,353.0847305389477L1313.3096207589285,354.48336690999935L1317.7364283482143,356.098550895621L1318.6578453125,357.75688359030323L1321.8227122767858,354.3800221513767L1326.6701667410714,354.4155524840137L1327.952138169643,355.67891913971744L1328.082338392857,356.4207276783104L1328.5029852678572,358.0531965564396L1330.7464352678571,360.4546718759568" style="fill: none;" fill="none"></path></g></g></g></g><g opacity="0.2"><g><g><g><path stroke="rgb(255, 112, 67)" stroke-width="2px" d="M101.8766669642857,60.821024841732445L102.59777589285714,65.34198518329197L104.8111796875,74.99828311072457L105.26187276785714,64.61472253799437L105.72258124999999,69.26054064432782L106.74415223214287,56.3372993045383L108.20640089285715,45.266655434502496L110.42982008928571,52.89869454701742L111.49145267857143,68.93304636213514L112.01225357142857,51.26568156348333L112.88359352678572,51.39780359268187L114.3458421875,49.315664482116716L114.75647366071429,62.12231695387099L115.117028125,44.265146001180035L115.27727455357143,65.90190422270034L115.65785982142857,35.3494721306695L115.82812165178571,23.68163280487059L119.58389732142857,27.116440963745134L119.78420535714285,61.47198695076838L125.22256852678572,56.31358839670815L125.96370825892856,35.59019154442683L127.12549486607142,25.517367511325425L127.27572589285714,52.3051946322123L127.36586450892857,43.09424406687419L131.0315015625,25.864086532592765L132.61393504464286,32.198291291130914L132.8543046875,33.25900864071318L135.868940625,33.041524569193534L136.2094642857143,25.97113634745278L136.75029598214286,21.15922497643365L136.89051160714286,9.837668736775703L139.3643158482143,10.036486858791795L140.44597924107143,36.035911432902004L141.30730379464285,-10.049564912584058L141.42748861607143,17.771965450710717L142.02841272321427,-13.872018475002683L142.48912120535715,13.581963094075524L143.5006767857143,37.99283214145236L145.86431160714287,9.982930246988937L148.5484392857143,5.938165622287323L151.1324129464286,31.602046966552734L151.59312142857144,3.124045859442818L152.10390691964284,-24.57227600945366L152.23410714285714,-3.4499192555745055L152.85506205357143,23.736612150404174L153.1855703125,14.273015382554785L153.85660223214285,-0.7572906494140459L154.77801919642857,35.5826340145535L156.9112997767857,5.0413995107015L158.56384107142858,12.469741990831178L158.90436473214285,-4.377161195543092L159.03456495535715,4.245595974392365L160.0561359375,3.4585983276367354L160.21638236607143,4.198285124037003L160.77724486607144,15.669046105278879L161.62855401785714,10.481758923000747L162.49989397321428,25.90742244720458L163.04072566964285,5.530114491780585L163.59157276785714,-23.794971974690718L163.94211183035713,-0.3226078457302388L165.9451921875,16.51833491855198L167.55767187499998,-33.51169645521373L167.75797991071428,-6.707519785563173L168.7595200892857,25.013180796305345L169.4505828125,11.244161902533621L170.17169174107144,32.518897798326265L170.80266205357142,4.11938879224991L172.79572700892857,21.65829539828828L174.6285455357143,-8.364517127143005L174.9089767857143,23.40158015357122L176.71174910714288,28.643454339769132L177.57307366071427,26.17074311574301L180.13701651785715,3.1634702470567473L181.49911116071428,28.581666480170355L183.19171406249998,13.124770185682511L185.76567232142858,31.477230813768156L185.8257647321429,14.249300511678063L186.4667504464286,14.236927880181197L186.8773819196429,7.344405153062606L187.22792098214288,32.29954316880966L187.52838303571428,5.472713724772116L187.80881428571428,11.595446353488478L188.04918392857144,1.0230842590332114L188.06921473214285,28.019726286994086L191.814975,-0.1970109727647551L192.81651517857145,20.26027522616915L193.20711584821427,15.67649663289389L193.5676703125,10.88023533291288L193.88816316964284,28.75033770667183L195.77105870535712,18.10310177273221L197.42360000000002,13.121552191840296L197.83423147321426,28.646089765760653L198.6755252232143,37.894298913743754L198.97598727678573,28.04677804311115L199.246403125,16.904224692450615L199.4767573660714,45.76173110538058L199.7972502232143,13.711253526475684L200.03761986607142,24.154733382331017L200.09771227678573,8.098501586914054L200.9390060267857,36.201178402370864L201.20942187499998,46.042786407470686L201.51989933035716,45.315492057800284L202.22097745535717,23.779940138922797L203.73330312500002,31.762740580240884L204.76488950892858,8.405090798272026L204.89508973214288,16.063155237833666L205.49601383928572,34.841928715176074L206.7479390625,26.190166007147894L206.76796986607144,44.00070379045275L207.3889247767857,35.73155737982856L210.55379174107145,31.452913559807655L211.50525491071429,46.59390352037218L212.50679508928573,38.99107602437338L213.63853549107142,43.28113341861299L214.26950580357143,30.151456981235093L218.5260515625,50.173022058274995L219.00679084821428,50.583877044253875L220.60925513392854,51.007134384579125L221.10000982142859,50.822646639082166L223.50370625,51.04890291425916L223.88429151785715,44.5222882800632L224.32496919642858,42.503199259440116L224.345,50.01914092169869L225.1061705357143,50.45422399308946L227.42974375000003,49.26130733489991L229.40277790178573,39.2017555448744L229.79337857142855,38.610421435038226L233.39892321428573,39.9617489920722L234.2402169642857,33.91394568549262L235.58228080357145,48.2685919019911L235.8627120535714,43.609119118584545L236.5938363839286,46.085638830396846L236.78412901785714,20.227512719896094L236.83420602678572,43.39780154758031L238.3865933035714,41.07832548353409L238.8573171875,34.02090038723417L240.07919620535716,49.74296016693117L240.16933482142858,49.87723214891223L240.83035133928573,21.18958587646486L242.25253839285716,46.29906870524086L242.432815625,44.49120610555013L243.02372433035714,46.72556781768799L243.98520290178573,48.36359405517578L246.8295770089286,36.03830907609728L247.83111718749998,50.38328149583603L248.89274977678573,43.575785933600514L249.02295,48.26371735466853L250.57533727678575,42.66795895894371L251.0360457589286,40.98917278713649L251.08612276785715,22.266579458448607L251.62695446428575,40.26302772098118L252.23789397321428,28.76747392018638L254.10075870535712,29.700656467013893L256.4944397321429,36.154477861192476L256.77487098214283,48.3542491912842L262.81415825892856,36.76657833523222L264.3264839285714,31.400058407253702L268.7532915178571,39.48912001715766L269.073784375,18.581496980455167L269.2440462053571,27.272842597961443L269.48441584821427,38.07289757198759L269.8850319196428,37.21104590098064L271.61769642857143,16.295873260498055L271.68780424107143,41.44062720404732L274.36191651785714,41.75013321770564L276.0545194196429,24.539362907409668L277.7371069196429,15.697025214301208L280.4813270089286,19.423886129591185L281.64311361607145,24.756066258748366L281.72323683035717,38.120794953240306L281.7632984375,30.661956829494905L281.80336004464283,39.68186675177681L284.4874877232143,34.51838559044734L285.2486582589286,29.871277512444404L288.0329399553571,27.701941468980575L288.09303236607144,20.311057705349405L288.3934944196429,46.036378161112445L289.48517321428574,37.12617725796169L291.5383305803571,41.6097621070014L291.5783921875,32.99942908816866L292.53987075892854,21.2022914038764L293.6415649553571,40.5174394607544L294.22245825892855,47.5859135309855L295.46436808035713,42.08183229234483L295.9150611607143,31.64741592407225L296.6261546875,32.56526544358994L298.8696046875,39.19312006632487L299.68085223214285,29.196984948052314L300.45203816964283,21.98248449961346L305.3996466517857,33.96674535539415L306.25095580357146,28.607358911302352L306.651571875,24.202317682902017L306.932003125,22.42139983707002L308.07375892857146,10.552095074123818L308.8850064732143,35.745527119106704L310.1569625,19.542488225301117L310.83800982142856,43.506733809577085L310.99825625,26.006355942620186L311.7694421875,23.51944908565944L313.15156763392855,20.675875960455986L313.5922453125,41.5064534081353L317.2478669642857,26.287692621019158L321.1238274553571,38.91424840291341L322.11535223214287,34.44093180762397L323.56758549107144,26.97630763583711L327.52366919642856,34.10562239752876L331.2193524553572,42.18557296329073L331.5698915178572,36.98357098897298L334.5745120535714,25.767843945821145L334.58452745535715,41.60873964097763L335.51595982142857,32.7376341925727L336.40733058035715,34.484283574422214L344.3094825892857,35.31183507707382L345.2208841517857,36.729064136081284L345.2609457589286,40.084115982055664L347.5745035714286,36.8965305964152L347.7147191964286,44.646878539191334L348.1153352678571,30.814653015136727L348.8164133928571,40.97336023118763L348.9666444196428,31.970277404785165L349.91810758928574,42.684762276543495L350.44892388392856,39.732752270168724L351.0698787946429,31.110185326470283L351.6607875,47.1678953382704L353.0328975446428,37.090929921468096L354.9859008928571,41.217230266994896L357.0390582589286,40.39986775716148L357.57988995535715,41.74028900994193L357.7000747767857,36.0004461288452L359.8433707589286,41.97311799791126L363.18851495535716,46.19358429378932L363.5891310267857,47.4407629860772L364.3302707589286,33.316548114352734L364.7709484375,46.28427465226916L367.0244138392857,45.24121663835314L367.49513772321427,46.03168591393366L368.7270321428571,44.539214452107736L370.7100816964286,46.81682092878552L370.8603127232143,37.94667057461209L371.6114678571429,30.24486202663845L373.65460982142855,39.44976300133601L375.1168584821429,39.752488242255325L375.78789040178566,47.85232933892145L376.83950758928574,48.382505713568776L378.5020642857143,47.79276078542073L378.9126957589286,48.60489603678385L379.5236352678571,42.976569324069565L380.64536026785714,38.289438438415544L381.03596093749996,48.11650602552625L381.60683883928573,33.60277519226075L388.53749687500004,48.26166845957436L390.3202383928571,46.69927696651883L390.4404232142857,44.25342330932618L393.1946587053571,43.70641983879936L393.7054441964286,43.04949730767146L395.50821651785714,46.95688292185465L396.25937165178567,50.82323911454941L396.81021875,52.07577386432225L396.97046517857143,47.52429211934409L397.3810966517857,48.6088709725274L398.45274464285717,50.5233930269877L398.9234685267857,52.531036769019224L399.0937303571429,47.291542392306845L399.3541308035715,53.82039218478733L401.1669185267857,46.7459735446506L401.28710334821426,53.50869856940376L401.4173035714286,51.01410142050848L403.62069196428575,53.87041375901964L403.9512002232143,45.34847649468317L407.65689888392853,49.78618907928467L409.54980982142854,54.84285622702703L409.82022566964287,56.159552701314304L410.2208417410714,56.5876588291592L410.3009649553572,56.53859829372832L410.691565625,55.05068631701999L413.07523124999994,56.989151117536764L414.3972642857143,59.70950717926027L414.7377879464285,51.22080600526597L416.7108220982143,59.4846617486742L417.24163839285717,59.0336769527859L419.665365625,56.20516736772326L419.8256120535714,64.63762102127076L420.1761511160714,45.769617568122015L420.40650535714286,51.909018770853656L420.78709062499996,51.70235976113214L425.72468370535717,51.93248793284098L428.7693658482143,51.78341000874837L428.8995660714285,36.47087561289468L428.90958147321425,58.65834671656291L429.6807674107143,63.5783660358853L430.7824616071428,52.86212157143487L433.45657388392857,47.00667463938394L434.7485607142857,45.34154908921985L437.68307343749996,57.822102271186L438.7046444196429,37.59414172702363L439.3155839285714,46.47586417727998L439.53592276785713,48.37428635491267L445.324825,42.237643432617205L450.20232566964285,39.22705563439264L450.36257209821434,52.73342757754856L452.0952366071429,49.074988661872L452.8664225446429,32.85366427103677L454.4688868303571,58.954877715640585L455.3402267857143,50.773066944546166L455.4704270089286,53.832857947879354L456.2115667410714,10.549257532755515L456.4919979910714,27.532644081115706L457.7439232142857,63.075082895490866L459.83714218750004,32.38989666832816L460.18768124999997,68.98073072963291L465.7261984375,73.37642015881009L466.8379080357143,66.1977535777622L467.6591709821429,27.637213028801796L469.60215892857144,35.86957047780357L469.63220513392855,48.14115617540148L469.75238995535716,54.064250331454794L470.6838223214286,39.60294664171006L471.3748850446429,32.97327694363063L471.51510066964283,67.43733907275728L471.88567053571427,37.910048060947L472.5466870535714,60.06702352099946L475.7115540178571,48.298314751519115L477.47426473214284,65.17995205985174L478.22541986607143,56.0175230556064L480.1083154017857,67.545542134179L484.60523080357143,74.39405324723984L484.61524620535715,39.47291115654838L484.82556964285715,83.22268814941246L485.61678638392857,54.44681709077625L488.8016841517857,78.03769662380218L489.1422078125,50.66262674331665L489.5528392857143,67.2707742055257L489.7331165178571,46.0682687971327L491.00507254464287,58.39270568423799L493.13835312500004,77.21780123180814L496.64374375,52.80542424519857L497.8856535714286,53.021453878614636L501.0705513392857,47.72711291842992L501.87178348214286,44.83462390899659L502.5127691964286,40.28680203755699L503.1337241071429,59.31884787877403L503.2639243303571,59.6318156136407L504.03511026785714,35.29834486643471L504.09520267857147,77.90763785574171L504.93649642857144,56.45600245793663L506.17840624999997,64.19234499401514L506.9495921875,84.97789579232533L508.71230290178573,71.87046145863005L508.7924261160714,83.16452632264959L510.20459776785714,69.60283492406211L511.51661540178566,63.18878270255195L511.55667700892855,55.57480517493353L514.5312513392857,62.98825254440307L515.5227761160714,91.78037661446467L516.1537464285715,82.2366258667575L516.2038234375,65.61792221069335L516.4542084821429,84.67791582809555L518.51738125,46.92855506473118L519.9195375,64.69326417711048L520.4803999999999,69.91785650783116L520.9210776785715,78.03440729512107L522.0828642857143,97.98576947848002L522.1129104910714,90.77058391835956L525.4179930803572,89.39466615253025L526.1591328124999,85.01962469153933L529.3640613839286,98.41551432609559L529.8147544642857,112.34078326755102L530.3255399553572,107.05363127390544L532.1984200892857,114.16565328174168L533.1298524553572,95.33096418910556L533.7808535714286,106.12520438300237L536.3648272321428,110.37341794967652L536.9357051339285,117.05586948394775L538.5982618303572,104.87132616043093L539.6298482142857,114.72508288489448L543.3856238839286,114.08423050774469L543.6660551339286,112.2412850379944L544.3270716517857,108.80062345928616L544.4672872767857,107.70594081878663L545.4688274553572,91.51822900772095L545.6791508928571,119.79091061486137L546.0597361607142,106.81456246905859L547.9526470982144,122.88238023122153L548.0828473214285,124.43647310468887L548.1429397321428,108.89495585759482L548.4534171875,117.92696694268119L550.6067285714286,104.64206589592827L554.7030279017857,123.2397162543403L555.1236747767857,133.74427854749894L556.1552611607143,127.71758242713082L556.5658926339286,125.06350237528484L563.6067200892857,127.61537149217392L565.7900776785714,135.6249185350206L566.9718950892857,139.99747467041016L569.7762075892857,142.88753036922878L569.9765156249999,142.25067274305556L571.0481636160714,136.23704675038655L571.3386102678571,142.67786142561172L571.5088720982143,146.79315242767333L571.5489337053572,127.84802214304608L571.7091801339286,138.4213948143853L571.9996267857143,145.63164687686495L572.4703506696428,136.9171332889133L572.6606433035714,146.64972184499106L573.9225839285715,133.04366342756484L574.3632616071429,143.01084849039714L576.3463111607143,144.35173738267684L576.9973122767857,147.91075931125215L577.1375279017857,145.45122521718343L578.6598689732143,147.9172745598687L580.8832881696429,149.43055597941083L582.7862145089285,140.64609065585668L583.3671078125,155.23191723293726L584.7492332589286,156.3496311187744L586.0011584821428,158.58058064778646L587.2530837053571,158.21261177062988L587.8640232142858,149.89806866115995L588.0743466517857,162.1301705254449L589.3362872767857,159.23747940063478L591.8401377232143,163.01267759535048L592.5612466517857,148.51982409159342L592.9218011160714,162.5629510667589L593.5928330357143,166.5771209716797L594.0535415178572,160.97431627909344L595.7461444196429,166.7946050431993L597.8293479910714,156.25279011196562L597.9395174107143,169.4388131459554L598.4402875000001,167.8242283291287L599.5620124999999,169.87160161336263L600.5335064732143,167.1818026224772L601.0242611607143,171.9515749189589L603.5381270089287,175.77791226704917L605.9818850446428,173.09236166212295L606.9633944196429,177.36244133843314L607.3239488839286,177.87019479539657L607.9048421875,177.40923699273003L611.8809566964286,179.07362937927246L618.9217841517857,184.4823161231147L620.2538325892857,189.04407602945963L620.313925,188.26266627841525L620.6644640625,190.04839129977756L621.0851109375,187.92694074842663L623.2484377232142,181.8911652882894L623.5889613839286,191.91550937228735L624.4803321428572,184.66773122151693L624.6005169642857,191.6169255150689L624.9510560267857,193.8774235195584L626.3532122767857,192.72067362467448L626.4333354910715,184.66713676452636L627.3747832589286,195.3254256354438L627.6251683035714,198.9399856991238L630.6398042410715,198.5112316131592L631.7915754464286,198.79202931722006L633.5142245535715,202.0241870880127L637.2099078125,199.83493673536515L640.8054370535714,203.04952235751682L641.3963457589285,207.74871279398602L642.4579783482143,199.44283290439182L645.5727683035715,208.81359926859534L646.9148321428572,215.16740129258898L648.6575120535714,213.85431713528104L651.7923328125,217.43320185343424L652.2029642857143,214.84481722513834L652.4833955357143,219.1974233839247L652.5735341517857,208.07927843729655L653.6151359375,215.22508739895292L654.6767685267857,199.9937439388699L655.9988015625,218.5992569817437L656.8701415178572,201.41905364990234L657.3008037946429,217.13879504733617L658.1921745535715,218.21568162706163L659.714515625,215.874757554796L660.836240625,216.83067609998915L661.1266872767857,224.88894483778213L662.3385508928571,226.32927449544275L663.1197522321429,223.07789594862194L663.9309997767857,218.13821199205185L665.7938645089286,227.51292555067275L665.8339261160714,214.68983039855956L668.9587314732142,228.14206712510853L670.3508723214286,223.94353629218207L670.6212881696429,233.31007012261284L671.6929361607143,229.985105726454L675.1582651785715,231.3894667731391L675.5488658482143,236.46300659179687L678.9641178571429,238.31970977783203L680.0257504464286,236.38541013929577L680.4864589285714,231.559243689643L680.8269825892858,236.66751564873587L682.7499397321428,230.36092936197915L685.0234359374999,242.2780165778266L685.1035591517857,237.9316006978353L685.5242060267857,245.95650058322482L687.2067935267858,241.33324211968312L687.6074095982143,248.12500042385525L688.3585647321429,249.82243669297958L688.7191191964286,239.6089363945855L689.7106439732142,232.09157596164283L691.6336011160714,249.87121387057834L695.9201930803572,250.11487782796226L696.6012404017857,252.2954094780816L701.0881404017857,253.93837763468426L703.8824375,244.6232048882378L705.3947631696428,246.53152279324001L710.6728799107143,260.3173450046116L712.8762683035715,262.96058612399634L713.2868997767856,251.6512558831109L714.9594718750001,260.2987820943196L715.0796566964285,261.70268342759874L718.3546930803572,256.82043194241L718.5249549107142,261.27757534450956L720.1474499999999,261.5177993774414L720.7984511160715,267.9405821906196L721.0087745535715,248.10088924831814L721.6297294642857,262.685883585612L721.9201761160714,257.5676088968913L724.5542267857144,268.798708597819L724.9748736607143,239.2176727294922L729.3215580357142,272.32672364976673L730.8038375,272.89553180270724L733.60815,272.97289047241213L736.8130785714286,263.00343458387584L737.3539102678571,259.6689747280545L738.0049113839285,271.6721868726942L740.1882689732143,281.0983724806044L742.0511337053572,264.41408894856767L746.1374176339285,272.19405670166014L747.1289424107143,276.88944261338975L747.4394198660715,282.3123329162598L750.0935013392858,287.14276360405813L750.434025,273.2766342163086L754.4101395089285,286.55006620619037L754.8808633928572,287.5448860168457L755.3315564732144,285.109784105089L755.6119877232144,290.2716364542643L756.743728125,284.2994995964898L758.0056687499999,285.24226082695856L758.3862540178571,290.16499879625104L758.6967314732143,273.9267482333713L759.5780868303572,276.58175167507596L759.7483486607143,284.61765297783745L760.4995037946428,286.42511927286785L760.7298580357142,289.00327131483294L761.0403354910715,289.66494157579206L763.2737700892858,287.3332751803928L763.474078125,287.9778250800239L763.61429375,281.65833511352537L764.0950330357143,290.1359100341797L766.2683752232142,291.13971803453234L767.5102850446428,284.70715442233615L767.7005776785714,293.65016538831924L767.8207625,290.5881570604112L767.9810089285714,288.88032175699874L768.6019638392858,292.52336027357313L773.5595877232142,293.83758578830293L774.0002654017857,275.78980814615886L776.3038078124999,299.01150165134004L776.4239926339286,292.4049761454265L779.5387825892857,291.2412037319607L779.7991830357143,297.7276964823405L780.1797683035714,286.3861545986599L781.1412468750001,291.75654246012374L781.8924020089285,282.8628793504503L783.0842348214285,303.71663665771484L785.5880852678571,299.1371619330512L785.7683625,296.14491907755536L787.0803801339285,291.0862803141276L787.4008729910714,303.5087986416287L789.4740611607143,299.4198539733887L791.8777575892857,294.42823825412324L791.9278345982142,277.68032404581703L793.5603450892856,302.2589647081163L794.5819160714285,307.43806423611113L795.4933176339285,295.26011344061953L795.8238258928573,300.1226606580946L796.5148886160714,297.88596471150714L797.6265982142857,292.08265363905167L797.9771372767857,304.66583387586803L799.4494013392856,299.891044362386L803.1851462053572,306.5146426730686L804.6273640625,305.92238913642035L804.8376874999999,305.8742936028375L807.1211991071428,310.42133475409616L807.1712761160715,302.46624789767793L807.6119537946429,304.752862379286L807.7421540178572,301.1982632107205L808.6535555803572,303.4236565483941L809.9956194196428,312.3283844841851L810.7567899553571,309.2325792948405L810.8268977678571,301.3837813483344L811.3777448660715,302.94103673299156L812.0587921875001,292.794147321913L812.8399935267857,307.4868414137099L813.3107174107143,298.78500561184353L813.8114875,307.4824186537001L814.8130276785714,302.46545528835725L818.1982334821428,307.3579789903429L819.3800508928571,310.25437952677413L819.5903743303571,304.5581658257379L820.4917604910714,299.9177235921224L822.2845174107143,288.37219577365454L824.1573975446429,295.27799470689564L826.7714174107143,319.45026457044816L827.1219564732143,310.2261626349555L827.4724955357143,318.6803397284614L827.7328959821428,313.5510794745551L832.5202580357143,320.9752766079373L833.3214901785714,319.7146314832899L833.7020754464286,319.7285497029622L835.8153252232142,309.9633492363824L836.9370502232142,320.259772321913L838.1489138392858,314.15454050699867L839.6712549107143,308.7393068101671L840.1419787946429,324.1133278740777L840.4424408482143,309.78336351182725L840.5125486607143,323.4827913072374L840.7228720982143,322.395363023546L841.6342736607144,313.7438420613607L841.6543044642857,310.38820368448893L842.7960602678571,306.8417525397407L843.2167071428571,316.5101437038845L844.3584629464286,320.252860768636L846.1211736607144,310.46096522013346L847.2428986607143,317.464049021403L848.8653937500001,327.5406815422906L849.8769493303572,303.16418796115454L851.359228794643,322.425656551785L852.2806457589286,317.1387145996094L852.4108459821427,307.7024787055122L852.7714004464286,320.3635090298123L853.1519857142856,328.77976769341365L853.3623091517858,323.6511573791504L855.0048350446428,323.37556711832684L855.7359593749999,335.2240460713704L856.2868064732143,329.1677182515462L856.9678537946429,323.5991780598958L857.4385776785714,318.4441580030653L858.1697020089285,329.99769117567274L861.3746305803571,325.4136034647624L863.5079111607142,328.5808544582791L863.5179265625001,333.1879753960503L864.3892665178571,320.5296399434407L866.2020542410716,330.584063551161L866.6427319196429,312.29083065456814L867.2035944196429,325.3973866780599L869.2667671875,333.03604804144965L870.7089850446428,313.8973546346029L871.4601401785714,307.0556460910373L871.6604482142858,331.1450248718262L872.7921886160714,327.49564548068577L876.9285495535714,334.09025014241536L877.4393350446428,333.5994347466363L879.4123691964285,321.5192126803928L880.8545870535714,334.2890365600586L882.2467279017857,327.75278379652235L882.797575,326.1679931640625L883.218221875,334.97145733303495L883.6488841517858,330.9722835964627L884.1095926339286,322.80602976481117L884.8507323660715,336.46904508802623L884.8807785714286,321.9071632385254L885.5918720982144,338.70639097425675L885.7120569196428,331.58825200398763L886.5333198660715,337.7757566663954L887.2644441964286,330.93002166748045L887.7451834821428,327.5440739101834L888.8168314732143,327.8308241102431L890.7498040178572,331.96867277357313L891.9716830357142,327.44190656873917L892.8530383928571,338.55279914008247L892.8630537946428,338.59804128011064L893.1535004464286,334.01422305636936L893.6743013392856,335.5355890909831L896.9192915178571,318.9110841539171L897.1496457589286,332.46790568033856L900.0340814732143,323.8081257290311L903.8799957589287,339.6017066107856L906.1234457589285,327.1014333089193L906.3237537946429,326.85203086005316L912.8237495535715,330.3425871955024L914.5564140625,331.6241096496582L915.0872303571429,311.76697930230034L915.7782930803571,326.5470030890571L917.5610345982143,325.0750324673123L918.6226671875,327.0427643669976L926.2443879464287,328.2777289496528L926.995543080357,339.1900570339627L928.9084848214285,340.1149687025282L932.9346763392857,331.7380551656087L933.1249689732142,334.2500877380371L933.1950767857143,326.5767893473307L934.67735625,328.44192589653863L937.9323618303571,306.5123916625977L939.3946104910714,342.426138220893L940.4862892857144,329.9610409206814L940.9169515625,326.22610727945965L941.3375984375,315.4419758266873L941.8383685267856,333.1189866807726L944.2620957589285,308.2603488498264L945.3938361607143,314.1187304178874L946.0548526785715,321.15312228732637L947.9577790178571,346.47305874294705L949.680428125,328.5749098883735L949.7805821428573,338.51985829671224L950.0409825892857,324.91555947197804L951.7636316964287,347.0287729899089L952.7351256696428,307.58973795572916L955.6696383928572,330.3314272562663L955.9500696428572,307.17754940456814L956.9315790178572,336.7387858920627L957.3021488839287,334.0904562208388L957.5224877232143,331.6178321838379L958.3137044642857,344.1834164937337L959.3152446428571,333.5129927741157L959.4153986607143,320.01702779134115L963.701990625,348.556955464681L965.4446705357143,339.9270410325792L965.5047629464285,334.6292086283366L965.6950555803571,325.6081573486328L968.0687058035714,325.58203294542096L968.6495991071429,329.4499347262912L970.1619247767857,346.0010123358833L970.432340625,321.032265218099L970.8830337053571,348.43769946628146L973.1965915178571,325.5226189507378L974.7089171875001,340.1129237704807L977.2528292410714,347.34201219346784L978.3845696428572,340.4941688537598L979.4161560267858,331.96650102403424L979.4361868303572,326.23163969251846L979.4462022321428,321.3286218431261L980.5979734375001,343.66766560872395L982.4808689732142,341.7524837070041L983.752825,347.8853141784668L987.0879537946429,332.69641494750977L989.8421892857142,327.7367730882433L995.1503522321428,331.15031950208873L995.9916459821428,334.89609603881837L999.0663743303571,330.1017924838596L1001.98085625,346.9952614678277L1002.9523502232144,338.3272066752116L1003.2628276785715,342.37241516113284L1003.4330895089286,333.52727559407555L1006.1272325892858,338.4140449523926L1006.1572787946428,331.0669211493598L1007.3190654017858,340.26233062744143L1007.3891732142857,352.39990590413413L1009.6125924107142,346.91019863552515L1009.7728388392857,323.1158290439182L1010.5540401785714,337.9994151645236L1011.0548102678572,334.85424626668294L1011.4854725446429,344.9624880472819L1012.3568124999999,349.35118170844186L1015.7620491071428,344.4809461805556L1016.6233736607143,337.24142701890736L1018.9369314732143,341.95654890272357L1020.0686718750001,352.08035753038195L1021.5008743303571,340.17065743340385L1023.4438622767857,334.87851596408416L1024.104878794643,325.5288171556261L1024.1148941964286,339.0194399515788L1024.1649712053572,332.2011926439073L1024.235079017857,336.6937498304579L1029.0925488839284,333.83322279188366L1029.3429339285715,336.78640586005315L1029.8136578125,350.93196173773873L1032.9184323660713,308.62962553236224L1035.1418515625,343.5367106967502L1038.747396205357,341.2137630038791L1039.1880738839284,347.6993680318197L1039.2681970982142,340.6714280022515L1041.6518627232142,340.3588228861491L1041.7319859375,339.7270974053277L1043.2543270089286,342.65509134928385L1043.7350662946428,326.28062294854055L1045.347545982143,337.4995164659288L1046.319039955357,333.0672134399414L1046.6094866071428,343.9444923400879L1047.9715812499999,342.0051517062717L1048.7828287946427,344.4046971638997L1050.3452314732142,348.8968263414171L1051.5170334821428,337.3980624728732L1052.45848125,337.5565050760905L1053.9908377232143,347.3579753451877L1056.0540104910715,341.1702328999837L1058.5077839285716,342.6997945149739L1059.4091700892857,352.6331866794162L1063.11486875,350.9803109063042L1067.9723386160713,348.59788581000436L1070.4761890625,340.0407170613607L1071.7882066964287,358.8797407362196L1071.8482991071428,353.3571877373589L1076.2951375,358.8611302693685L1079.7304203125,350.39466773139105L1080.6718680803572,347.1750411139594L1082.3143939732142,341.31201485527885L1083.8467504464286,353.5298814561632L1084.9183984375002,351.60935736762156L1087.061694419643,354.6419440375434L1088.1233270089285,355.975303141276L1092.1895801339285,357.68765631781685L1092.3598419642858,352.47003597683374L1092.700365625,357.8344475640191L1092.9207044642858,343.00754886203345L1093.2111511160715,337.8415907965766L1093.8020598214287,357.74339260525176L1095.0940466517857,347.4931944953071L1095.8852633928573,348.2348865932888L1096.1757100446428,361.38143768310545L1101.5840270089286,348.5047542148166L1104.0978928571428,349.03722915649416L1105.2897256696428,353.33645307752823L1106.0108345982144,348.1902626885308L1108.2843308035715,363.1208980984158L1109.0755475446429,355.6552157931858L1109.66645625,354.63696645100913L1109.8567488839285,353.36850619845916L1111.0485816964285,340.1845122443305L1112.7111383928573,355.367086452908L1113.4622935267857,349.03830710517036L1114.8644497767857,355.6854934692383L1116.7273145089284,343.402870686849L1118.1394861607143,358.7082200792101L1118.8706104910714,362.02120022243923L1122.2458008928572,334.07718794080944L1123.3374796875,353.516311984592L1123.3875566964286,362.7456134372287L1124.1988042410715,363.46295657687716L1125.1702982142858,354.1498604668511L1126.8228395089284,349.73499484592014L1129.7072752232143,357.64041680230036L1129.7974138392856,364.20842149522565L1131.229616294643,352.03647867838544L1131.2696779017856,359.5181082831489L1132.0809254464286,366.4677702162001L1132.631772544643,353.0833253648546L1133.4630508928572,364.2532197740343L1134.104036607143,356.55672963460285L1135.7966395089286,363.5117813110352L1136.828225892857,355.54199947781035L1138.9514910714286,365.1166566636827L1140.5539553571427,356.3516657511393L1140.8744482142856,353.39967159695095L1140.9245252232142,364.1967542860243L1143.3282216517857,355.81586185031466L1144.0092689732144,353.4500181410048L1144.6602700892859,348.8281071133084L1145.0909323660715,354.77979465060764L1145.1610401785715,349.9403440687392L1145.2311479910713,347.7419470045302L1145.8921645089285,364.75126376681857L1146.3829191964285,352.93897535536024L1149.2573395089285,348.7290150960286L1150.5292955357143,343.9884028964573L1151.4406970982143,353.17365112304685L1152.5423912946428,356.1801450941298L1153.2134232142857,359.34925079345703L1154.2349941964285,349.44417063395184L1154.7557950892858,357.6445700751411L1156.1779821428572,359.10122748480904L1157.0192758928572,363.22948557535807L1157.7403848214285,350.3826517740885L1157.9106466517858,353.283570183648L1159.0023254464286,362.3378634982639L1159.3528645089286,336.8785704718696L1159.7634959821428,363.1244489881728L1161.2758216517857,356.9869896782769L1162.5277468749998,355.0934460110135L1163.8898415178571,315.8420850118001L1164.9114124999999,328.5356281704373L1165.2018591517856,335.50157029893666L1165.4221979910715,362.71441633436416L1166.4938459821428,348.4364471435547L1166.6040154017858,364.22151540120444L1166.7943080357143,359.24573601616754L1169.0277426339285,350.40985412597655L1170.8104841517857,337.7046754625108L1171.4715006696429,356.4864093356662L1172.232671205357,349.7044001261393L1172.4630254464287,331.9609210544162L1172.5731948660714,351.2821048312717L1172.7534720982144,328.3854128519694L1172.9637955357143,354.575872124566L1174.72650625,343.29482218424477L1176.0785854910714,343.40077819824216L1176.1486933035715,345.37187076144744L1178.0616350446428,338.88371353149415L1179.2835140625,354.74821709526907L1179.634053125,356.155510796441L1180.2149464285715,356.52565934922956L1180.4953776785715,355.4761811998155L1181.3366714285714,349.6716812133789L1182.398304017857,358.3214584350586L1182.4984580357143,348.28076282077365L1184.5215691964286,361.75307634141706L1187.0053888392858,360.6607021755642L1193.23496875,358.43061659071185L1193.8759544642858,358.51114569769965L1196.8304979910713,353.8159183078342L1197.2711756696428,317.1721944173177L1200.9868897321428,344.91410717434354L1202.1086147321428,322.623824734158L1202.3289535714287,351.58570590549044L1203.230339732143,353.9319563123915L1204.9630042410713,324.5738021850586L1205.894436607143,328.41137873331706L1206.8559151785714,341.07935231526693L1211.573169419643,342.70282228257923L1211.9938162946428,331.7304936726888L1214.0269428571428,346.72810457017687L1214.517697544643,347.31883629692925L1214.9984368303572,337.2505103217231L1215.2988988839286,349.0398289150662L1215.3890375,324.7105589972602L1217.952980357143,361.72473263210725L1220.126322544643,328.7795457628038L1221.5084479910715,330.83002607557506L1221.869002455357,343.29914983113605L1222.1193875000001,336.2370641920302L1224.683330357143,337.0304027133518L1224.9136845982143,353.6238849216037L1225.1640696428572,348.1900090535482L1226.1155328124999,335.82511342366536L1226.365917857143,338.8743290371365L1227.2072116071429,350.0232510036892L1227.3574426339287,341.1423013475206L1227.557750669643,343.7999838087294L1228.4190752232143,324.85617718166776L1228.429090625,348.68394733005096L1231.3836341517856,326.72977879842125L1233.9175308035715,353.73719635009763L1235.9406419642858,329.24674140082465L1236.4514274553571,331.53137435913084L1241.4190667410714,341.68398640950517L1243.4421779017857,343.04778171115447L1243.952963392857,328.78469772338866L1245.5454122767858,336.68173387315534L1245.645566294643,347.09184883965384L1247.6987236607142,346.51850696139866L1249.4814651785714,347.6030342949761L1249.6116654017858,347.4764704386393L1250.1524970982143,347.83262151082357L1250.3127435267857,356.4798465304905L1254.8096589285713,346.69061414930553L1255.5107370535713,335.4153344048394L1255.5507986607142,355.52332560221356L1256.2017997767857,350.7943330552843L1256.2518767857143,340.9281858656141L1257.0130473214285,359.8816940307617L1258.2749879464284,330.35081448025176L1258.5554191964286,351.69572007921005L1259.9475600446428,352.6372448391385L1263.523058482143,328.8090783860948L1263.5330738839286,347.8921147664388L1264.4845370535713,352.2040996975369L1266.006878125,356.5987379286025L1266.9783720982143,359.0031658596463L1267.8897736607144,348.716000450982L1267.9298352678572,359.15151062011716L1269.1717450892857,350.7894505818685L1273.5284448660714,351.1652425130208L1274.5099542410715,358.21220516628694L1275.4514020089287,356.6256866455078L1279.60779375,348.37944268120657L1285.9675738839285,350.69430575900606L1287.1193450892856,358.47373453776044L1287.7302845982142,357.51302863227L1287.9506234374999,354.0936803181966L1288.5014705357144,356.4256320529514L1291.9167225446429,346.6621594746908L1292.0969997767857,338.0888532002767L1292.2372154017858,358.484989590115L1292.8481549107144,362.6716788397895L1294.019956919643,350.44032202826605L1294.5808194196427,344.73500917222765L1297.0746544642857,355.3291997273763L1297.6054707589285,346.3458290947808L1298.3365950892855,351.07780185275607L1300.7402915178573,352.49346550835503L1301.8720319196427,347.7740159776476L1302.8134796875001,357.8986806233724L1304.185589732143,360.697447543674L1304.7865138392858,354.98707784016926L1305.4575457589285,351.0638202243381L1306.5993015625,361.5316212972005L1307.1301178571427,364.91143425835503L1309.5438296875,360.1006127251519L1311.296525,339.0161426968045L1311.6771102678572,351.58462795681424L1311.7071564732144,355.944930352105L1311.9575415178572,349.6043728298611L1313.3096207589285,360.0779123942057L1317.7364283482143,362.5592868381076L1318.6578453125,364.3902143690321L1321.8227122767858,340.8725763956706L1326.6701667410714,354.5576738145616L1327.952138169643,360.73238576253254L1328.082338392857,359.38796183268227L1328.5029852678572,364.58307206895614L1330.7464352678571,370.06057315402563" style="fill: none;" fill="none"></path></g></g></g></g></g></g><g transform="translate(40, 374)" clip-path="url(#clip_1)"><clipPath id="clip_1"><rect width="1402" height="26"></rect></clipPath><g><g><line x1="0" y1="0" x2="0" y2="5" style="visibility: inherit;" fill="rgb(0, 0, 0)" stroke="rgb(204, 204, 204)" stroke-width="1px"></line><line x1="100.15401785714285" y1="0" x2="100.15401785714285" y2="5" style="visibility: inherit;" fill="rgb(0, 0, 0)" stroke="rgb(204, 204, 204)" stroke-width="1px"></line><line x1="200.3080357142857" y1="0" x2="200.3080357142857" y2="5" style="visibility: inherit;" fill="rgb(0, 0, 0)" stroke="rgb(204, 204, 204)" stroke-width="1px"></line><line x1="300.46205357142856" y1="0" x2="300.46205357142856" y2="5" style="visibility: inherit;" fill="rgb(0, 0, 0)" stroke="rgb(204, 204, 204)" stroke-width="1px"></line><line x1="400.6160714285714" y1="0" x2="400.6160714285714" y2="5" style="visibility: inherit;" fill="rgb(0, 0, 0)" stroke="rgb(204, 204, 204)" stroke-width="1px"></line><line x1="500.7700892857143" y1="0" x2="500.7700892857143" y2="5" style="visibility: inherit;" fill="rgb(0, 0, 0)" stroke="rgb(204, 204, 204)" stroke-width="1px"></line><line x1="600.9241071428571" y1="0" x2="600.9241071428571" y2="5" style="visibility: inherit;" fill="rgb(0, 0, 0)" stroke="rgb(204, 204, 204)" stroke-width="1px"></line><line x1="701.078125" y1="0" x2="701.078125" y2="5" style="visibility: inherit;" fill="rgb(0, 0, 0)" stroke="rgb(204, 204, 204)" stroke-width="1px"></line><line x1="801.2321428571428" y1="0" x2="801.2321428571428" y2="5" style="visibility: inherit;" fill="rgb(0, 0, 0)" stroke="rgb(204, 204, 204)" stroke-width="1px"></line><line x1="901.3861607142858" y1="0" x2="901.3861607142858" y2="5" style="visibility: inherit;" fill="rgb(0, 0, 0)" stroke="rgb(204, 204, 204)" stroke-width="1px"></line><line x1="1001.5401785714286" y1="0" x2="1001.5401785714286" y2="5" style="visibility: inherit;" fill="rgb(0, 0, 0)" stroke="rgb(204, 204, 204)" stroke-width="1px"></line><line x1="1101.6941964285713" y1="0" x2="1101.6941964285713" y2="5" style="visibility: inherit;" fill="rgb(0, 0, 0)" stroke="rgb(204, 204, 204)" stroke-width="1px"></line><line x1="1201.8482142857142" y1="0" x2="1201.8482142857142" y2="5" style="visibility: inherit;" fill="rgb(0, 0, 0)" stroke="rgb(204, 204, 204)" stroke-width="1px"></line><line x1="1302.002232142857" y1="0" x2="1302.002232142857" y2="5" style="visibility: inherit;" fill="rgb(0, 0, 0)" stroke="rgb(204, 204, 204)" stroke-width="1px"></line><line x1="1402.15625" y1="0" x2="1402.15625" y2="5" style="visibility: inherit;" fill="rgb(0, 0, 0)" stroke="rgb(204, 204, 204)" stroke-width="1px"></line></g><g transform="translate(0, 8)"><text x="0" y="0" dx="0em" dy="0.95em" style="text-anchor: middle; visibility: hidden; font-family: Roboto, sans-serif; font-size: 12px; font-weight: 200;" fill="rgb(33, 33, 33)" stroke="none" stroke-width="1px">-10k</text><text x="100.15401785714285" y="0" dx="0em" dy="0.95em" style="text-anchor: middle; visibility: inherit; font-family: Roboto, sans-serif; font-size: 12px; font-weight: 200;" fill="rgb(33, 33, 33)" stroke="none" stroke-width="1px">0</text><text x="200.3080357142857" y="0" dx="0em" dy="0.95em" style="text-anchor: middle; visibility: inherit; font-family: Roboto, sans-serif; font-size: 12px; font-weight: 200;" fill="rgb(33, 33, 33)" stroke="none" stroke-width="1px">10k</text><text x="300.46205357142856" y="0" dx="0em" dy="0.95em" style="text-anchor: middle; visibility: inherit; font-family: Roboto, sans-serif; font-size: 12px; font-weight: 200;" fill="rgb(33, 33, 33)" stroke="none" stroke-width="1px">20k</text><text x="400.6160714285714" y="0" dx="0em" dy="0.95em" style="text-anchor: middle; visibility: inherit; font-family: Roboto, sans-serif; font-size: 12px; font-weight: 200;" fill="rgb(33, 33, 33)" stroke="none" stroke-width="1px">30k</text><text x="500.7700892857143" y="0" dx="0em" dy="0.95em" style="text-anchor: middle; visibility: inherit; font-family: Roboto, sans-serif; font-size: 12px; font-weight: 200;" fill="rgb(33, 33, 33)" stroke="none" stroke-width="1px">40k</text><text x="600.9241071428571" y="0" dx="0em" dy="0.95em" style="text-anchor: middle; visibility: inherit; font-family: Roboto, sans-serif; font-size: 12px; font-weight: 200;" fill="rgb(33, 33, 33)" stroke="none" stroke-width="1px">50k</text><text x="701.078125" y="0" dx="0em" dy="0.95em" style="text-anchor: middle; visibility: inherit; font-family: Roboto, sans-serif; font-size: 12px; font-weight: 200;" fill="rgb(33, 33, 33)" stroke="none" stroke-width="1px">60k</text><text x="801.2321428571428" y="0" dx="0em" dy="0.95em" style="text-anchor: middle; visibility: inherit; font-family: Roboto, sans-serif; font-size: 12px; font-weight: 200;" fill="rgb(33, 33, 33)" stroke="none" stroke-width="1px">70k</text><text x="901.3861607142858" y="0" dx="0em" dy="0.95em" style="text-anchor: middle; visibility: inherit; font-family: Roboto, sans-serif; font-size: 12px; font-weight: 200;" fill="rgb(33, 33, 33)" stroke="none" stroke-width="1px">80k</text><text x="1001.5401785714286" y="0" dx="0em" dy="0.95em" style="text-anchor: middle; visibility: inherit; font-family: Roboto, sans-serif; font-size: 12px; font-weight: 200;" fill="rgb(33, 33, 33)" stroke="none" stroke-width="1px">90k</text><text x="1101.6941964285713" y="0" dx="0em" dy="0.95em" style="text-anchor: middle; visibility: inherit; font-family: Roboto, sans-serif; font-size: 12px; font-weight: 200;" fill="rgb(33, 33, 33)" stroke="none" stroke-width="1px">100k</text><text x="1201.8482142857142" y="0" dx="0em" dy="0.95em" style="text-anchor: middle; visibility: inherit; font-family: Roboto, sans-serif; font-size: 12px; font-weight: 200;" fill="rgb(33, 33, 33)" stroke="none" stroke-width="1px">110k</text><text x="1302.002232142857" y="0" dx="0em" dy="0.95em" style="text-anchor: middle; visibility: inherit; font-family: Roboto, sans-serif; font-size: 12px; font-weight: 200;" fill="rgb(33, 33, 33)" stroke="none" stroke-width="1px">120k</text><text x="1402.15625" y="0" dx="0em" dy="0.95em" style="text-anchor: middle; visibility: hidden; font-family: Roboto, sans-serif; font-size: 12px; font-weight: 200;" fill="rgb(33, 33, 33)" stroke="none" stroke-width="1px">130k</text></g><line x1="0" y1="0" x2="1402.15625" y2="0" fill="rgb(0, 0, 0)" stroke="rgb(204, 204, 204)" stroke-width="1px"></line></g></g></g></g></svg>