<svg viewBox="0 0 1443 400" xmlns="http://www.w3.org/2000/svg"><g><g><g><g><g><line x1="51.125" y1="374" x2="46.125" y2="374" style="visibility: inherit;" fill="rgb(0, 0, 0)" stroke="rgb(204, 204, 204)" stroke-width="1px"></line><line x1="51.125" y1="336.6" x2="46.125" y2="336.6" style="visibility: inherit;" fill="rgb(0, 0, 0)" stroke="rgb(204, 204, 204)" stroke-width="1px"></line><line x1="51.125" y1="299.2" x2="46.125" y2="299.2" style="visibility: inherit;" fill="rgb(0, 0, 0)" stroke="rgb(204, 204, 204)" stroke-width="1px"></line><line x1="51.125" y1="261.8" x2="46.125" y2="261.8" style="visibility: inherit;" fill="rgb(0, 0, 0)" stroke="rgb(204, 204, 204)" stroke-width="1px"></line><line x1="51.125" y1="224.4" x2="46.125" y2="224.4" style="visibility: inherit;" fill="rgb(0, 0, 0)" stroke="rgb(204, 204, 204)" stroke-width="1px"></line><line x1="51.125" y1="187" x2="46.125" y2="187" style="visibility: inherit;" fill="rgb(0, 0, 0)" stroke="rgb(204, 204, 204)" stroke-width="1px"></line><line x1="51.125" y1="149.6" x2="46.125" y2="149.6" style="visibility: inherit;" fill="rgb(0, 0, 0)" stroke="rgb(204, 204, 204)" stroke-width="1px"></line><line x1="51.125" y1="112.20000000000002" x2="46.125" y2="112.20000000000002" style="visibility: inherit;" fill="rgb(0, 0, 0)" stroke="rgb(204, 204, 204)" stroke-width="1px"></line><line x1="51.125" y1="74.79999999999998" x2="46.125" y2="74.79999999999998" style="visibility: inherit;" fill="rgb(0, 0, 0)" stroke="rgb(204, 204, 204)" stroke-width="1px"></line><line x1="51.125" y1="37.39999999999999" x2="46.125" y2="37.39999999999999" style="visibility: inherit;" fill="rgb(0, 0, 0)" stroke="rgb(204, 204, 204)" stroke-width="1px"></line><line x1="51.125" y1="0" x2="46.125" y2="0" style="visibility: inherit;" fill="rgb(0, 0, 0)" stroke="rgb(204, 204, 204)" stroke-width="1px"></line></g><g transform="translate(41.125, 0)"><text x="0" y="374" dx="0em" dy="0.3em" style="text-anchor: end; visibility: hidden; font-family: Roboto, sans-serif; font-size: 12px; font-weight: 200;" fill="rgb(33, 33, 33)" stroke="none" stroke-width="1px">-150</text><text x="0" y="336.6" dx="0em" dy="0.3em" style="text-anchor: end; visibility: inherit; font-family: Roboto, sans-serif; font-size: 12px; font-weight: 200;" fill="rgb(33, 33, 33)" stroke="none" stroke-width="1px">-100</text><text x="0" y="299.2" dx="0em" dy="0.3em" style="text-anchor: end; visibility: inherit; font-family: Roboto, sans-serif; font-size: 12px; font-weight: 200;" fill="rgb(33, 33, 33)" stroke="none" stroke-width="1px">-50</text><text x="0" y="261.8" dx="0em" dy="0.3em" style="text-anchor: end; visibility: inherit; font-family: Roboto, sans-serif; font-size: 12px; font-weight: 200;" fill="rgb(33, 33, 33)" stroke="none" stroke-width="1px">0</text><text x="0" y="224.4" dx="0em" dy="0.3em" style="text-anchor: end; visibility: inherit; font-family: Roboto, sans-serif; font-size: 12px; font-weight: 200;" fill="rgb(33, 33, 33)" stroke="none" stroke-width="1px">50</text><text x="0" y="187" dx="0em" dy="0.3em" style="text-anchor: end; visibility: inherit; font-family: Roboto, sans-serif; font-size: 12px; font-weight: 200;" fill="rgb(33, 33, 33)" stroke="none" stroke-width="1px">100</text><text x="0" y="149.6" dx="0em" dy="0.3em" style="text-anchor: end; visibility: inherit; font-family: Roboto, sans-serif; font-size: 12px; font-weight: 200;" fill="rgb(33, 33, 33)" stroke="none" stroke-width="1px">150</text><text x="0" y="112.20000000000002" dx="0em" dy="0.3em" style="text-anchor: end; visibility: inherit; font-family: Roboto, sans-serif; font-size: 12px; font-weight: 200;" fill="rgb(33, 33, 33)" stroke="none" stroke-width="1px">200</text><text x="0" y="74.79999999999998" dx="0em" dy="0.3em" style="text-anchor: end; visibility: inherit; font-family: Roboto, sans-serif; font-size: 12px; font-weight: 200;" fill="rgb(33, 33, 33)" stroke="none" stroke-width="1px">250</text><text x="0" y="37.39999999999999" dx="0em" dy="0.3em" style="text-anchor: end; visibility: inherit; font-family: Roboto, sans-serif; font-size: 12px; font-weight: 200;" fill="rgb(33, 33, 33)" stroke="none" stroke-width="1px">300</text><text x="0" y="0" dx="0em" dy="0.3em" style="text-anchor: end; visibility: hidden; font-family: Roboto, sans-serif; font-size: 12px; font-weight: 200;" fill="rgb(33, 33, 33)" stroke="none" stroke-width="1px">350</text></g><line x1="51.125" y1="0" x2="51.125" y2="374" fill="rgb(0, 0, 0)" stroke="rgb(204, 204, 204)" stroke-width="1px"></line></g></g><g transform="translate(51, 0)" clip-path="url(#clip_0)"><clipPath id="clip_0"><rect width="1391" height="374"></rect></clipPath><g><g><g><line x1="0" y1="0" x2="0" y2="374" fill="rgb(0, 0, 0)" stroke="rgb(66, 66, 66)" stroke-width="1px" opacity="0.25"></line><line x1="115.98958333333333" y1="0" x2="115.98958333333333" y2="374" fill="rgb(0, 0, 0)" stroke="rgb(66, 66, 66)" stroke-width="1px" opacity="0.25"></line><line x1="231.97916666666666" y1="0" x2="231.97916666666666" y2="374" fill="rgb(0, 0, 0)" stroke="rgb(66, 66, 66)" stroke-width="1px" opacity="0.25"></line><line x1="347.96875" y1="0" x2="347.96875" y2="374" fill="rgb(0, 0, 0)" stroke="rgb(66, 66, 66)" stroke-width="1px" opacity="0.25"></line><line x1="463.9583333333333" y1="0" x2="463.9583333333333" y2="374" fill="rgb(0, 0, 0)" stroke="rgb(66, 66, 66)" stroke-width="1px" opacity="0.25"></line><line x1="579.9479166666667" y1="0" x2="579.9479166666667" y2="374" fill="rgb(0, 0, 0)" stroke="rgb(66, 66, 66)" stroke-width="1px" opacity="0.25"></line><line x1="695.9375" y1="0" x2="695.9375" y2="374" fill="rgb(0, 0, 0)" stroke="rgb(66, 66, 66)" stroke-width="1px" opacity="0.25"></line><line x1="811.9270833333334" y1="0" x2="811.9270833333334" y2="374" fill="rgb(0, 0, 0)" stroke="rgb(66, 66, 66)" stroke-width="1px" opacity="0.25"></line><line x1="927.9166666666666" y1="0" x2="927.9166666666666" y2="374" fill="rgb(0, 0, 0)" stroke="rgb(66, 66, 66)" stroke-width="1px" opacity="0.25"></line><line x1="1043.90625" y1="0" x2="1043.90625" y2="374" fill="rgb(0, 0, 0)" stroke="rgb(66, 66, 66)" stroke-width="1px" opacity="0.25"></line><line x1="1159.8958333333335" y1="0" x2="1159.8958333333335" y2="374" fill="rgb(0, 0, 0)" stroke="rgb(66, 66, 66)" stroke-width="1px" opacity="0.25"></line><line x1="1275.8854166666665" y1="0" x2="1275.8854166666665" y2="374" fill="rgb(0, 0, 0)" stroke="rgb(66, 66, 66)" stroke-width="1px" opacity="0.25"></line><line x1="1391.875" y1="0" x2="1391.875" y2="374" fill="rgb(0, 0, 0)" stroke="rgb(66, 66, 66)" stroke-width="1px" opacity="0.25"></line></g><g><line x1="0" y1="374" x2="1391.875" y2="374" fill="rgb(0, 0, 0)" stroke="rgb(66, 66, 66)" stroke-width="1px" opacity="0.25"></line><line x1="0" y1="336.6" x2="1391.875" y2="336.6" fill="rgb(0, 0, 0)" stroke="rgb(66, 66, 66)" stroke-width="1px" opacity="0.25"></line><line x1="0" y1="299.2" x2="1391.875" y2="299.2" fill="rgb(0, 0, 0)" stroke="rgb(66, 66, 66)" stroke-width="1px" opacity="0.25"></line><line x1="0" y1="261.8" x2="1391.875" y2="261.8" fill="rgb(0, 0, 0)" stroke="rgb(66, 66, 66)" stroke-width="1px" opacity="0.25"></line><line x1="0" y1="224.4" x2="1391.875" y2="224.4" fill="rgb(0, 0, 0)" stroke="rgb(66, 66, 66)" stroke-width="1px" opacity="0.25"></line><line x1="0" y1="187" x2="1391.875" y2="187" fill="rgb(0, 0, 0)" stroke="rgb(66, 66, 66)" stroke-width="1px" opacity="0.25"></line><line x1="0" y1="149.6" x2="1391.875" y2="149.6" fill="rgb(0, 0, 0)" stroke="rgb(66, 66, 66)" stroke-width="1px" opacity="0.25"></line><line x1="0" y1="112.20000000000002" x2="1391.875" y2="112.20000000000002" fill="rgb(0, 0, 0)" stroke="rgb(66, 66, 66)" stroke-width="1px" opacity="0.25"></line><line x1="0" y1="74.79999999999998" x2="1391.875" y2="74.79999999999998" fill="rgb(0, 0, 0)" stroke="rgb(66, 66, 66)" stroke-width="1px" opacity="0.25"></line><line x1="0" y1="37.39999999999999" x2="1391.875" y2="37.39999999999999" fill="rgb(0, 0, 0)" stroke="rgb(66, 66, 66)" stroke-width="1px" opacity="0.25"></line><line x1="0" y1="0" x2="1391.875" y2="0" fill="rgb(0, 0, 0)" stroke="rgb(66, 66, 66)" stroke-width="1px" opacity="0.25"></line></g></g></g><g><g><line x1="0" y1="261.8" x2="1391.875" y2="261.8" fill="rgb(0, 0, 0)" stroke="rgb(153, 153, 153)" stroke-width="1.5px"></line></g></g><g><g><line x1="115.98958333333333" y1="0" x2="115.98958333333333" y2="374" fill="rgb(0, 0, 0)" stroke="rgb(153, 153, 153)" stroke-width="1.5px"></line></g></g><g><g><g><g><g><path stroke="rgb(255, 112, 67)" stroke-width="2px" d="M115.98958333333333,341.8816086425781L117.14947916666667,344.11454128011064L118.309375,342.90480844066184L119.46927083333333,342.21029661373973L120.62916666666668,342.864370240536L121.78906249999999,343.3630562928797L122.94895833333334,344.00558948941716L124.10885416666667,343.53313098128376L125.26875,344.544683108512L126.42864583333333,344.38466574847934L127.58854166666666,343.8067947356626L128.7484375,343.14249408696224L129.90833333333333,343.5716625088896L131.06822916666667,343.6921137897646L132.228125,343.2143547060792L133.38802083333334,342.82690250322577L134.54791666666665,343.2261469977133L135.70781250000002,342.7138346006865L136.86770833333333,343.8288506406783L138.02760416666666,343.9449872066999L139.1875,343.81672348942357L140.34739583333334,344.65411636397045L141.50729166666667,343.86257800986044L142.66718749999998,344.37504770587583L143.82708333333332,343.6088060136062L144.98697916666669,343.90345488200734L146.146875,344.3994725594498L147.30677083333333,344.16420012513163L148.46666666666667,344.6000394604508L149.6265625,343.8375356446108L150.78645833333334,343.9072194876734L151.94635416666665,343.30916780481857L153.10625,343.5476331064814L154.26614583333335,343.27303692611434L155.42604166666666,342.7029522726782L156.5859375,342.37829394218016L157.74583333333334,342.0831580071724L158.90572916666667,342.78238295720337L160.065625,343.09957479095215L161.22552083333332,343.2599030129343L162.38541666666666,342.9028182520591L163.5453125,343.7160412451667L164.70520833333333,343.81019534264993L165.86510416666667,343.4870102175547L167.025,343.76577901364703L168.18489583333334,343.92422882974415L169.34479166666668,344.3632913357865L170.5046875,344.2746468327575L171.66458333333333,344.37513949220926L172.82447916666666,343.9529176464733L173.984375,343.31055507859315L175.1442708333333,343.06554311268263L176.30416666666667,342.63633049307566L177.4640625,342.3282331011337L178.62395833333332,342.7438158598093L179.78385416666669,343.0252088554097L180.94375,342.8170942568186L182.10364583333333,343.38276822115654L183.26354166666664,343.8472637882552L184.4234375,343.9682950600782L185.58333333333334,344.6771451446493L186.74322916666665,344.76630840287754L187.90312500000002,343.7978101896767L189.06302083333333,343.23116137637237L190.22291666666666,343.4933997283911L191.38281250000003,343.5789775258327L192.54270833333334,343.0934098431263L193.70260416666665,342.6019162613167L194.8625,346.63457544008577L196.02239583333335,346.7382824821708L197.18229166666666,346.2792082678332L198.3421875,345.8131883913608L199.50208333333333,345.24062923540725L200.66197916666667,345.3553447962041L201.82187499999998,344.99780931377876L202.98177083333334,343.89747031615656L204.14166666666668,344.9931023344353L205.3015625,344.6578458475506L206.46145833333335,344.5045125816365L207.62135416666666,344.37326182080267L208.78125,343.8341641731432L209.94114583333337,343.27341047035725L211.10104166666667,342.9236581948992L212.26093749999998,343.25041366155557L213.42083333333332,342.7687041808501L214.58072916666669,342.4037200995814L215.740625,342.27121699103935L216.90052083333333,342.64909640889306L218.06041666666667,342.2813124228731L219.2203125,342.697719476442L220.38020833333331,343.03812127258817L221.54010416666668,344.01236268697807L222.70000000000002,344.0310399542881L223.85989583333333,343.51435003553877L225.01979166666663,343.89205352720097L226.1796875,344.8792487731794L227.33958333333334,344.1306423471031L228.49947916666665,344.5450086715156L229.659375,344.44009230705876L230.81927083333332,343.86787509675116L231.97916666666666,344.23091650812415L233.13906250000002,344.0971196383666L234.29895833333333,343.54990509784324L235.45885416666667,343.82588817741873L236.61875,343.429905634682L237.77864583333334,343.7529326132316L238.93854166666665,344.2955373564776L240.0984375,344.5425812035499L241.25833333333335,344.4588762421345L242.41822916666666,343.70351624027313L243.57812499999997,343.20000210964133L244.73802083333334,343.78997887277995L245.89791666666667,344.2726764881219L247.05781249999998,344.5506989541719L248.21770833333335,344.4032463581607L249.37760416666666,343.5672814371097L250.5375,343.07404913039835L251.69739583333336,343.30747352062815L252.85729166666667,343.57303974179626L254.0171875,343.1185313783969L255.17708333333331,343.38291209612623L256.33697916666665,343.3550591812955L257.496875,343.5947754456226L258.6567708333333,343.1000139783238L259.81666666666666,344.6233060007754L260.9765625,346.82821053548497L262.13645833333334,345.6507659198425L263.2963541666667,345.3288526467625L264.45625,344.50370786203865L265.61614583333335,343.6773944146307L266.7760416666667,343.78110905587454L267.9359375,343.1323896250706L269.0958333333333,343.45605772056433L270.25572916666664,343.7828527438343L271.41562500000003,343.1674066823721L272.5755208333333,343.2097723612785L273.73541666666665,344.37655801963814L274.8953125,344.2230319259644L276.0552083333333,344.04613581909183L277.21510416666666,344.41406153613286L278.375,344.0315429178711L279.53489583333334,344.0096438435742L280.6947916666667,344.22272672036723L281.8546875,344.6085203716551L283.01458333333335,344.6394265085057L284.1744791666667,344.826764033953L285.33437499999997,345.3594544644671L286.49427083333336,344.4988187656655L287.65416666666664,344.5619990738117L288.8140625,344.6188367651528L289.97395833333337,344.5359989409309L291.13385416666665,344.3945577403912L292.29375,345.0378747933872L293.4536458333333,344.2283974604422L294.61354166666666,344.33526768759197L295.7734375,344.4917688558842L296.93333333333334,343.82759786668976L298.0932291666667,344.1271224828049L299.253125,343.6002441959607L300.4130208333333,344.11265385286237L301.5729166666667,344.0361875476219L302.7328125,344.1062500625116L303.8927083333333,344.0296652111421L305.0526041666667,343.47999907565196L306.2125,343.4983305654532L307.3723958333333,343.63085004196216L308.5322916666667,343.8721541424565L309.6921875,343.1263636032718L310.8520833333333,342.8950659863772L312.01197916666666,343.37342477396504L313.171875,344.14575524885953L314.33177083333334,343.49665696398023L315.4916666666667,343.64088136342053L316.6515625,343.78900072061924L317.81145833333335,343.21208424959104L318.97135416666663,343.58934605567873L320.13125,344.0322592359004L321.29114583333336,344.29634493144493L322.45104166666664,345.2850342581442L323.61093750000003,346.7881687822478L324.7708333333333,346.7058834510912L325.93072916666665,347.3804765728847L327.090625,348.45195743018274L328.2505208333333,347.92484676690015L329.41041666666666,346.72798251605917L330.5703125,347.5762977499079L331.73020833333334,347.565955832983L332.8901041666667,347.16029474451136L334.05,348.4976085312048L335.20989583333335,347.76845655762986L336.3697916666667,348.7049722285258L337.52968749999997,348.80459830894364L338.68958333333336,348.4514416537467L339.8494791666667,348.9032942287591L341.009375,348.870571979687L342.1692708333333,347.81829902051714L343.32916666666665,348.42766981944106L344.4890625,348.59235633895133L345.6489583333333,347.9760245181825L346.80885416666666,347.046884055464L347.96875,346.82834385936144L349.12864583333334,346.40329305623914L350.2885416666666,345.6204799222862L351.4484375,345.31600888900084L352.60833333333335,344.9740767278999L353.76822916666663,344.2281083244586L354.928125,343.6423990619106L356.08802083333336,343.18234047145233L357.24791666666664,343.1720577897595L358.40781250000003,343.85184189831153L359.56770833333337,343.4422602312957L360.72760416666665,343.0369928652123L361.8875,343.4415539479316L363.04739583333327,343.0817967960406L364.20729166666666,342.81047684112934L365.3671875,355.71769355786444L366.5270833333333,354.9203065430689L367.6869791666667,352.3823895032539L368.846875,353.78767068463435L370.0067708333333,351.5693345457544L371.1666666666667,349.7662081700508L372.3265625,349.54609059609925L373.4864583333333,348.1019096350825L374.64635416666664,347.0461346050387L375.80625000000003,347.167925878611L376.9661458333333,347.478296244881L378.12604166666665,350.00847647344386L379.28593750000005,348.6727874104445L380.4458333333333,347.7288529874377L381.60572916666666,350.88043265850484L382.76562500000006,349.3547865259738L383.92552083333334,354.9439515474392L385.0854166666667,348.39700022720916L386.2453125,342.8012366991013L387.4052083333333,338.8301707435584L388.5651041666667,336.3560768536358L389.725,337.36207914648287L390.8848958333333,342.6242560784167L392.0447916666667,343.08073162664937L393.2046875,342.420481175343L394.3645833333333,343.4100727515537L395.5244791666667,344.24793332331325L396.684375,341.15833933443184L397.8442708333333,340.05648708033846L399.00416666666666,336.9171126745247L400.16406249999994,332.9676169340533L401.32395833333334,328.82648719958644L402.4838541666667,328.48509148086055L403.64374999999995,326.81900638170987L404.80364583333335,326.2278368680632L405.9635416666667,325.4378515684252L407.12343749999997,324.0319088609413L408.28333333333336,337.8095652235187L409.4432291666667,333.00510784287746L410.603125,328.3556328868508L411.7630208333333,324.75257980801575L412.9229166666667,336.83598794309233L414.0828125,331.0391013316467L415.2427083333333,329.2452127242529L416.4026041666667,326.63521133540814L417.5625,325.7089591379066L418.72239583333334,325.227775983421L419.88229166666673,325.5062172100766L421.0421875,329.0314262582957L422.20208333333335,339.85794416825763L423.36197916666663,344.5746820313835L424.52187499999997,339.21052002696223L425.68177083333336,332.35373167098385L426.84166666666664,335.29887594958007L428.0015625,338.45059282509374L429.16145833333337,331.76035020611994L430.32135416666665,328.86842736338224L431.48125,334.41770265120385L432.6411458333334,337.72479930358026L433.80104166666666,341.39224261669233L434.9609375,342.365911329682L436.12083333333334,344.2479705310308L437.2807291666666,345.56152857936564L438.440625,345.6834641598792L439.60052083333335,339.05516682350884L440.76041666666663,331.5432587487241L441.9203125,329.14169720894023L443.08020833333336,322.1964402805799L444.24010416666664,329.4773909695811L445.40000000000003,323.33387930703697L446.55989583333337,329.56815686970185L447.71979166666665,337.9545515943943L448.8796875,341.7610310948513L450.03958333333327,342.15112628579317L451.19947916666666,343.50584043293145L452.359375,344.32823861831776L453.5192708333333,342.7434092357187L454.6791666666667,342.39928623867263L455.8390625,340.9367957878131L456.9989583333333,332.30074796142725L458.1588541666667,328.8277624865735L459.31875,323.46985497216895L460.4786458333333,322.67875687202223L461.63854166666664,316.9838617811871L462.79843750000003,310.2764450233994L463.9583333333333,306.57279055851444L465.11822916666665,303.2943210362891L466.27812500000005,316.6068929740508L467.4380208333333,310.2120574609057L468.59791666666666,317.56942403879293L469.75781250000006,319.5343790503703L470.91770833333334,323.0358796868294L472.0776041666667,324.94539699287174L473.2375,328.91541642242237L474.3973958333333,330.15798390698086L475.5572916666667,320.2314721582385L476.7171875,329.96568531936424L477.8770833333333,333.86942628893866L479.0369791666667,336.69272143276226L480.196875,337.672490525116L481.3567708333333,326.71049755772714L482.5166666666667,324.3809197014552L483.6765625,321.55669557561725L484.8364583333333,321.1686733489215L485.99635416666666,319.39371936761376L487.15624999999994,318.11240942353436L488.31614583333334,312.87894895301207L489.4760416666667,314.42077389019283L490.63593749999995,308.9919924642051L491.79583333333335,304.6060705460711L492.9557291666667,300.47309952767716L494.11562499999997,306.7940143572492L495.27552083333336,313.568885191854L496.4354166666667,325.7600080314129L497.5953125,333.7802595379233L498.7552083333333,330.83093257540696L499.9151041666667,330.6372880219955L501.075,327.7923036475769L502.2348958333333,325.331434507417L503.3947916666667,330.716324729957L504.5546875,334.20121320193437L505.71458333333334,337.19365637087367L506.87447916666673,330.9419768117868L508.034375,323.01887401229567L509.19427083333335,314.08920539727546L510.35416666666663,322.4004609547833L511.51406249999997,313.29813462228606L512.6739583333333,311.01133671394217L513.8338541666666,303.71236952526755L514.99375,292.0667764368644L516.1536458333334,301.0681424019329L517.3135416666667,307.7370875482553L518.4734375,305.3384656959529L519.6333333333333,290.31975539367636L520.7932291666666,295.60515766577123L521.953125,294.8877900211667L523.1130208333334,266.05299531039043L524.2729166666667,281.48840361525566L525.4328125,288.2822401773608L526.5927083333333,290.6626648835879L527.7526041666666,297.49826792371596L528.9125,277.88699037657045L530.0723958333334,286.17605475242823L531.2322916666667,295.08662327581953L532.3921875,302.56421704716934L533.5520833333334,310.45023032718854L534.7119791666667,314.80239023709265L535.871875,317.0359833322522L537.0317708333333,313.2503822163389L538.1916666666666,319.50321785803203L539.3515625,321.5775907109862L540.5114583333333,324.2479299113183L541.6713541666667,323.4769755940937L542.8312500000001,323.85010914959133L543.9911458333333,319.14465452853534L545.1510416666666,314.4732369681652L546.3109375,319.51566560602635L547.4708333333333,323.9010815448797L548.6307291666667,325.3444521865873L549.790625,328.36889303589095L550.9505208333333,320.0820782409686L552.1104166666667,321.54636739013813L553.2703125,324.62483005102655L554.4302083333333,324.11444627348726L555.5901041666667,323.3050719601961L556.75,323.9241060239674L557.9098958333333,326.1832931809903L559.0697916666667,325.83796862072L560.2296875000001,318.3182655704041L561.3895833333333,320.0128872671143L562.5494791666666,323.1962927665723L563.709375,321.66571523132427L564.8692708333333,313.34285806762773L566.0291666666667,315.10409211206115L567.1890625,320.3535735858892L568.3489583333334,324.252842517393L569.5088541666667,322.4520963710921L570.6687499999999,323.82579010346547L571.8286458333333,327.7226766628506L572.9885416666667,329.09324592622767L574.1484375,326.0706462649079L575.3083333333333,320.2400619276978L576.4682291666667,319.64595465690434L577.628125,314.8475761553331L578.7880208333333,319.8090112904774L579.9479166666667,322.88285695108306L581.1078125,318.2119449999534L582.2677083333333,319.9351446291131L583.4276041666667,322.3265323536811L584.5875,325.5347499307964L585.7473958333334,324.23007017168794L586.9072916666667,315.99819656703784L588.0671874999999,307.8575174449755L589.2270833333333,311.238796432787L590.3869791666667,312.29248430199135L591.546875,315.9535533595618L592.7067708333334,319.48740108608695L593.8666666666667,322.501714386936L595.0265625,322.1914133552519L596.1864583333333,321.05897092468007L597.3463541666666,324.0496408937968L598.50625,282.04669793232256L599.6661458333333,285.25373332754754L600.8260416666666,291.71153768742863L601.9859375,252.60280333109526L603.1458333333334,253.93643842445871L604.3057291666667,244.94470421246737L605.465625,259.17236315635085L606.6255208333333,245.05497673723886L607.7854166666666,242.64498802126084L608.9453125,251.66994109755063L610.1052083333334,247.5863424990122L611.2651041666667,243.8995194185213L612.425,253.81201431716565L613.5848958333333,216.60530810900596L614.7447916666666,233.8204670957253L615.9046875,226.16419363507637L617.0645833333334,245.11604264609818L618.2244791666667,262.01269900945664L619.384375,256.3385304844208L620.5442708333334,270.7317826211792L621.7041666666667,275.25723992750983L622.8640625,284.9942018297031L624.0239583333333,268.9639044691336L625.1838541666666,286.17694333849045L626.34375,247.75854152381973L627.5036458333333,224.69960624151673L628.6635416666667,203.04172371391653L629.8234375000001,202.20901742938514L630.9833333333333,188.7173083404808L632.1432291666666,217.27531871217954L633.303125,190.12878245997803L634.4630208333333,165.10948773556055L635.6229166666667,143.55355271286254L636.7828125,126.8717313060322L637.9427083333333,115.16337791591951L639.1026041666667,104.81557066769655L640.2625,96.47677814060258L641.4223958333333,89.0328716579899L642.5822916666667,83.00032134982938L643.7421875,77.3998107419729L644.9020833333333,73.41553206525802L646.0619791666667,69.8783195975189L647.2218750000001,66.06046737235104L648.3817708333333,63.09190153459964L649.5416666666666,60.09961102260158L650.7015625,57.65311181612817L651.8614583333333,55.68036716286345L653.0213541666667,53.84280937970484L654.18125,52.614242425638864L655.3411458333334,51.38622985359703L656.5010416666667,50.24678727643231L657.6609374999999,49.29372432798179L658.8208333333333,48.55051725535418L659.9807291666667,47.99799463924428L661.140625,48.6342716879579L662.3005208333333,47.617421720483534L663.4604166666667,46.758387889082115L664.6203125,67.45630003294536L665.7802083333333,63.1297201044813L666.9401041666667,60.22724192831157L668.1,57.099990637375825L669.2598958333333,54.23773979993971L670.4197916666667,51.56387235752989L671.5796875,49.78543821805515L672.7395833333334,48.472918640850374L673.8994791666667,47.465037329672484L675.0593749999999,46.694370024870786L676.2192708333333,46.21111933532629L677.3791666666667,45.7781477143548L678.5390625,81.20923325632266L679.6989583333334,73.7932981040816L680.8588541666667,66.65765056822622L682.01875,61.073485713369976L683.1786458333333,56.342212642961634L684.3385416666666,52.46233368858807L685.4984375,49.2769786940345L686.6583333333333,46.0173916222198L687.8182291666666,44.05241119816644L688.978125,42.68163904154096L690.1380208333334,41.154756960771856L691.2979166666667,40.31171628639089L692.4578125,39.039933795714305L693.6177083333333,38.425516543407376L694.7776041666666,37.79237680894465L695.9375,36.71422757020256L697.0973958333334,35.56838674366205L698.2572916666667,34.565861177156215L699.4171875,33.812896265943756L700.5770833333332,33.10475702740344L701.7369791666666,32.799365387547745L702.896875,32.794864966288166L704.0567708333334,93.54310762854816L705.2166666666667,81.13494342705725L706.3765625,71.58173181684108L707.5364583333333,64.1764233440979L708.6963541666667,58.94184863621584L709.85625,116.73750516629688L711.0161458333333,100.03747976780309L712.1760416666667,108.32735705642999L713.3359374999999,93.62804196838617L714.4958333333333,81.91628037646677L715.6557291666667,107.47428346255036L716.8156250000001,144.38602622987915L717.9755208333333,121.9216198364424L719.1354166666667,103.880481049818L720.2953124999999,89.96269201758876L721.4552083333333,78.64620883868041L722.6151041666667,69.49229522035839L723.775,62.44493910597422L724.9348958333334,79.92878243712313L726.0947916666665,70.45038398192506L727.2546874999999,63.190505012688476L728.4145833333333,58.818360992572664L729.5744791666667,116.8601714905913L730.734375,162.44533566049063L731.8942708333334,136.47129648249407L733.0541666666666,116.19455002779212L734.2140625,99.48168435817122L735.3739583333333,86.14035947384168L736.5338541666666,75.71622048922957L737.69375,67.24719631325866L738.8536458333334,60.673513300606956L740.0135416666666,55.03556774497776L741.1734375,50.613821725279045L742.3333333333334,47.53464795639516L743.4932291666667,44.343008770389545L744.653125,42.68402400849913L745.8130208333334,40.75111781519772L746.9729166666666,38.63639229903316L748.1328125,37.09061889293753L749.2927083333333,35.66675820028755L750.4526041666667,34.29673651628471L751.6125000000001,33.85734209388717L752.7723958333335,32.633464251281616L753.9322916666666,31.893275478173745L755.0921875,31.440707906953065L756.2520833333333,30.74341434802339L757.4119791666667,30.76185086318436L758.5718750000001,30.19386406457091L759.7317708333333,30.02082379560206L760.8916666666667,29.703422171247254L762.0515624999999,29.692048454771275L763.2114583333333,30.00413659096541L764.3713541666667,29.796958247381745L765.5312500000001,29.611063765874132L766.6911458333333,29.107751256839936L767.8510416666667,83.07198139182445L769.0109375,72.26834075310799L770.1708333333333,63.442961713814555L771.3307291666667,56.48578697359071L772.490625,51.15386109742726L773.6505208333333,46.626251036144915L774.8104166666666,42.99657524297846L775.9703125,40.53210655668747L777.1302083333334,38.59269049437342L778.2901041666668,36.589988186514375L779.45,35.13124018300055L780.6098958333333,34.381165950111374L781.7697916666666,62.42114612068478L782.9296875,112.50673111773925L784.0895833333334,96.74963394204295L785.2494791666667,83.57481147492344L786.409375,72.9278256936106L787.5692708333332,64.69993184395096L788.7291666666666,57.95330694977016L789.8890625,52.87580168774581L791.0489583333334,48.45106039316539L792.2088541666667,45.23118984285265L793.36875,42.198312152602426L794.5286458333333,39.759966396886604L795.6885416666667,38.480782321610825L796.8484375,37.35102402623396L798.0083333333333,36.10097063700279L799.1682291666667,34.78611415608662L800.3281249999999,34.38451051432245L801.4880208333333,35.369346814778275L802.6479166666667,34.49849024479134L803.8078125000001,33.793413729036196L804.9677083333333,33.174129078932076L806.1276041666667,32.811989078575344L807.2874999999999,92.28429725651262L808.4473958333333,79.72193255618662L809.6072916666667,69.7781961670196L810.7671875,61.77386389162352L811.9270833333334,55.33568710939256L813.0869791666665,50.1260598925922L814.2468749999999,46.03807965235505L815.4067708333333,74.43465142330007L816.5666666666667,65.37850075289786L817.7265625,58.04464108083392L818.8864583333334,52.06081530607338L820.0463541666666,47.8350377429056L821.20625,44.046704559558854L822.3661458333333,41.04211574725643L823.5260416666666,38.540497968898904L824.6859375,37.04827198351753L825.8458333333334,35.66922149306404L827.0057291666666,34.27544628624808L828.165625,33.10471418231881L829.3255208333334,32.45637146792537L830.4854166666667,31.510450689965307L831.6453125,31.15556775412069L832.8052083333334,30.591987748218454L833.9651041666666,30.27388643880911L835.125,30.0666667194067L836.2848958333333,29.760595289587858L837.4447916666667,50.83017939329135L838.6046875000001,46.76222447166434L839.7645833333335,42.91459664276118L840.9244791666666,40.25088930151365L842.084375,37.85640682695309L843.2442708333333,99.44642717054687L844.4041666666667,85.25983822081245L845.5640625000001,73.77297414110308L846.7239583333333,64.46657135389806L847.8838541666667,88.22167322081381L849.0437499999999,76.14256540770575L850.2036458333333,66.1868816474536L851.3635416666667,58.356973726166L852.5234375000001,52.35190725241719L853.6833333333333,47.21021772087906L854.8432291666667,43.12495261908606L856.003125,67.41067920952668L857.1630208333333,59.265033040472886L858.3229166666667,53.089466959722046L859.4828125,101.1298183706341L860.6427083333333,136.67105541672214L861.8026041666666,114.68681572009646L862.9625,96.94743167763966L864.1223958333334,82.74805820832273L865.2822916666668,71.43418633716597L866.4421875,62.654937350982784L867.6020833333333,55.493059548755L868.7619791666666,50.116743513027416L869.921875,45.998974424679744L871.0817708333334,42.17761638056409L872.2416666666667,39.092863441365346L873.4015625,36.97948909293604L874.5614583333332,34.86767437981756L875.7213541666666,33.517867750924374L876.88125,32.27579903472384L878.0411458333334,31.535849554927513L879.2010416666667,30.96458506386392L880.3609375,30.38232090753644L881.5208333333333,29.72380279536508L882.6807291666667,29.32571972652644L883.840625,29.114244116182064L885.0005208333333,28.58029492673471L886.1604166666667,28.056489994122153L887.3203124999999,28.21762085271961L888.4802083333333,52.52465995121862L889.6401041666667,106.81255946732253L890.8000000000001,90.85419691467833L891.9598958333333,77.87206881103954L893.1197916666667,68.63979931152694L894.2796874999999,60.56701437597933L895.4395833333333,53.62450847343974L896.5994791666667,47.82698373187681L897.759375,44.079761448392084L898.9192708333334,98.17142522927026L900.0791666666665,83.84349345490061L901.2390624999999,72.27093856274858L902.3989583333333,116.33777139158072L903.5588541666667,98.22544553123333L904.71875,103.36532090252572L905.8786458333334,88.03078714194247L907.0385416666666,75.7115936051555L908.1984375,65.94544727181973L909.3583333333333,58.31672246589329L910.5182291666666,103.87615637847634L911.678125,88.45021167504667L912.8380208333334,107.93270707807446L913.9979166666666,122.83264372642442L915.1578125,104.41813648992861L916.3177083333334,89.00086707768504L917.4776041666667,76.54980218265585L918.6375,67.06994111135907L919.7973958333334,59.28310977385291L920.9572916666666,53.04496125658234L922.1171875,48.15014754530492L923.2770833333333,44.08329042393925L924.4369791666667,40.435118764932675L925.5968750000001,96.4547937973465L926.7567708333335,117.54097342288698L927.9166666666666,124.72837447805567L929.0765625,105.50590397697576L930.2364583333333,142.3378527714244L931.3963541666667,119.16060626499105L932.5562500000001,100.65774304421942L933.7161458333333,116.75999879328572L934.8760416666667,98.55157647603475L936.0359374999999,84.14957302164814L937.1958333333333,72.243930878256L938.3557291666667,62.98692395065167L939.5156250000001,105.54849139288216L940.6755208333333,89.76861269438389L941.8354166666667,76.99715961351492L942.9953125,66.84259375526504L944.1552083333333,58.781501151672984L945.3151041666667,70.37875253266651L946.475,61.40179260230505L947.6348958333333,54.29882309551594L948.7947916666666,87.11930920883461L949.9546875,74.90331518933334L951.1145833333334,65.34868816220883L952.2744791666668,57.46707743406392L953.434375,50.97692547264175L954.5942708333333,46.010190036316494L955.7541666666666,42.27334573022507L956.9140625,39.01855033906288L958.0739583333334,36.47989923121123L959.2338541666667,34.52331723653148L960.39375,33.38975410660797L961.5536458333332,32.674167713997356L962.7135416666666,31.496633072565075L963.8734375,30.7938567021927L965.0333333333334,31.34634004925415L966.1932291666667,30.981743133153305L967.353125,52.93404202849529L968.5130208333333,47.52664968724941L969.6729166666667,43.46835217167449L970.8328125,40.314867186558345L971.9927083333333,37.691429735574786L973.1526041666667,36.06315186951453L974.3124999999999,34.22592689111942L975.4723958333333,32.595302255083034L976.6322916666667,31.577118903675824L977.7921875000001,30.684877740128147L978.9520833333333,54.34915308321581L980.1119791666667,48.98036848708045L981.2718749999999,44.965676454703406L982.4317708333333,60.7505798844658L983.5916666666667,117.6104901038617L984.7515625,154.98125778133155L985.9114583333334,129.16794680123712L987.0713541666665,109.06627267536473L988.2312499999999,92.1963467047449L989.3911458333333,135.65312490102738L990.5510416666667,113.70770495011878L991.7109375,96.73252536146221L992.8708333333334,82.73402397569319L994.0307291666666,71.5964863680546L995.190625,62.88774607686556L996.3505208333333,55.548210215984625L997.5104166666666,49.97766248431113L998.6703125,45.9746490792458L999.8302083333334,42.84349101632632L1000.9901041666666,40.2447860747798L1002.15,60.65937004634726L1003.3098958333334,54.71389066598406L1004.4697916666667,50.69656805036535L1005.6296875,46.6384022186126L1006.7895833333334,43.29326083739005L1007.9494791666666,40.48511094041986L1009.109375,75.62585004994334L1010.2692708333333,66.2057414169078L1011.4291666666667,58.601657000713736L1012.5890625000001,52.550037026352264L1013.7489583333335,48.22819563670677L1014.9088541666666,44.5403555083889L1016.06875,41.29350852780487L1017.2286458333333,38.85559727634546L1018.3885416666667,36.60614132205297L1019.5484375000001,35.090199312525186L1020.7083333333333,33.88071911798889L1021.8682291666667,33.08881726216455L1023.0281249999999,74.72407486991231L1024.1880208333334,106.44919310210656L1025.3479166666666,90.68062992113838L1026.5078125,78.38479790663729L1027.6677083333332,68.59085558605202L1028.8276041666666,60.50489528427132L1029.9875,53.87338773620612L1031.1473958333333,49.03227588720712L1032.3072916666667,45.181136115039166L1033.4671875000001,85.51273369366709L1034.6270833333333,74.64693827329302L1035.7869791666667,66.15407600925943L1036.946875,59.087946818149746L1038.1067708333333,53.25380047209794L1039.2666666666667,48.647605367912746L1040.4265625,44.522560124408315L1041.5864583333332,41.60591501847197L1042.7463541666666,39.50507974426973L1043.90625,37.690270069829836L1045.0661458333334,35.97513400019982L1046.2260416666668,34.78309938765985L1047.3859375,33.36536837731535L1048.5458333333333,32.623102880563216L1049.7057291666667,63.163040782233786L1050.865625,56.6924204675839L1052.0255208333333,54.01753315141086L1053.1854166666667,49.6116042310896L1054.3453124999999,45.416035118270145L1055.5052083333333,42.66786854871768L1056.6651041666667,40.24276214854448L1057.825,37.82700947469494L1058.9848958333334,36.06298126139661L1060.1447916666668,34.524689086265695L1061.3046875,32.98502597604382L1062.4645833333334,31.928425370678845L1063.6244791666666,31.637178040683693L1064.784375,31.371509961843806L1065.9442708333333,31.284369590568794L1067.1041666666667,31.276623870697236L1068.2640625,93.76112604357924L1069.4239583333333,81.10644307119152L1070.5838541666667,70.494953578047L1071.74375,62.30862802357037L1072.9036458333335,55.41595051455944L1074.0635416666667,49.95408267727255L1075.2234375,45.78434421798991L1076.3833333333332,42.44255904138414L1077.5432291666666,39.77683277998235L1078.703125,37.26758099449371L1079.8630208333334,36.06363584051681L1081.0229166666666,34.617945757374386L1082.1828125,33.5633853900792L1083.3427083333333,32.7070543325712L1084.5026041666667,31.782614877189793L1085.6625000000001,31.796834016009672L1086.8223958333333,31.996414600503055L1087.9822916666667,31.98344647532432L1089.1421874999999,31.866359621665683L1090.3020833333333,31.376639113348183L1091.4619791666667,30.46160967935047L1092.621875,58.21775781183974L1093.7817708333334,93.96953601326574L1094.9416666666666,80.98785908405007L1096.1015625,70.47452115395883L1097.2614583333334,61.8547130413311L1098.4213541666668,83.70143310396331L1099.58125,72.36469318727225L1100.7411458333333,80.40548852198577L1101.9010416666665,70.29016105684642L1103.0609375,61.96743619410995L1104.2208333333333,55.240478105678584L1105.3807291666667,49.6354612443085L1106.540625,45.5699698255249L1107.7005208333333,42.339216827216795L1108.8604166666667,39.95088225083596L1110.0203125,37.78534947742659L1111.1802083333334,36.28927098819124L1112.3401041666666,35.41172804543582L1113.5,35.04849879377051L1114.6598958333332,34.35865030454765L1115.8197916666666,33.53715093211473L1116.9796875,33.09331222518395L1118.1395833333333,32.557559814326865L1119.2994791666667,32.1911892577115L1120.4593750000001,31.7402019921067L1121.6192708333333,31.333830929622863L1122.7791666666667,31.655819821823297L1123.9390625,31.310440940466435L1125.0989583333333,94.4017414913868L1126.2588541666667,81.12495137182036L1127.41875,70.84134281132347L1128.5786458333332,92.18815100076782L1129.7385416666666,79.81324707014551L1130.8984375,69.77345742174141L1132.0583333333334,111.10401964070121L1133.2182291666668,147.38214870511464L1134.378125,123.55968405198237L1135.5380208333333,104.97304729041403L1136.6979166666667,90.5431650540109L1137.8578125,78.7426866818806L1139.0177083333333,130.5884746018521L1140.1776041666667,111.03486774300514L1141.3374999999999,96.11210574225566L1142.4973958333333,83.19213701079674L1143.6572916666667,94.29444968432098L1144.8171875,82.6170765199177L1145.9770833333334,72.78755813976231L1147.1369791666668,65.14798733212233L1148.296875,58.13045356198691L1149.4567708333334,52.7293992753708L1150.6166666666666,48.73733069959352L1151.7765625,45.0124104825264L1152.9364583333333,42.375278727818L1154.0963541666667,39.64411790412939L1155.25625,37.58435506549099L1156.4161458333333,56.6752008980959L1157.5760416666667,83.94961038278339L1158.7359375,107.8807644781017L1159.8958333333335,112.33049865523529L1161.0557291666667,128.36501102745973L1162.215625,108.25495750360841L1163.3755208333332,135.78038830360694L1164.5354166666666,114.33916486651836L1165.6953125,97.36804087758966L1166.8552083333334,84.13113836613427L1168.0151041666666,73.6516066890012L1169.175,65.12451271936499L1170.3348958333333,59.06291767060921L1171.4947916666667,54.014999785901416L1172.6546875000001,50.069891552353944L1173.8145833333333,47.123070566101916L1174.9744791666667,44.91636883081118L1176.1343749999999,43.52836759882862L1177.2942708333333,43.39132535347697L1178.4541666666667,43.71719702594561L1179.6140625,70.83544407705533L1180.7739583333334,64.29519774211298L1181.9338541666666,58.4543604153701L1183.09375,85.58306189796984L1184.2536458333334,76.1799529851728L1185.4135416666668,125.39141343183938L1186.5734375,107.5944386800418L1187.7333333333333,94.18719640301784L1188.8932291666665,82.1745860042502L1190.053125,72.64487664031422L1191.2130208333333,64.4950118591264L1192.3729166666667,58.10542652831674L1193.5328125,52.98837105663778L1194.6927083333333,48.70961676718523L1195.8526041666667,45.26674915105289L1197.0125,42.41979966263917L1198.1723958333334,40.40899812854885L1199.3322916666666,38.67100914737037L1200.4921875,36.79612086770095L1201.6520833333332,35.958640395332665L1202.8119791666666,35.043323522320776L1203.971875,34.24096785105973L1205.1317708333333,33.89019793807434L1206.2916666666667,33.37554438561573L1207.4515625000001,32.57221268134417L1208.6114583333333,32.622721072809725L1209.7713541666667,32.50892126742746L1210.93125,32.32593823464511L1212.0911458333333,32.32311631037233L1213.2510416666667,32.18858914204785L1214.4109375,31.88590942398985L1215.5708333333332,31.619582568488756L1216.7307291666666,31.277575087994098L1217.890625,31.04687501180156L1219.0505208333334,30.81706697721467L1220.2104166666668,30.57421693626396L1221.3703125,30.417382557800206L1222.5302083333333,30.340728629248005L1223.6901041666667,30.280482927812457L1224.85,30.258341273890593L1226.0098958333333,30.225635079659376L1227.1697916666667,30.27975320532906L1228.3296874999999,30.205008521294502L1229.4895833333333,30.34162669008249L1230.6494791666667,30.172658285659725L1231.809375,29.89614242442624L1232.9692708333334,29.88754179598632L1234.1291666666668,30.236098256124986L1235.2890625,31.47565592423593L1236.4489583333334,61.25960668518952L1237.6088541666666,89.2651067531809L1238.76875,137.5071395285213L1239.9286458333333,150.92765300465294L1241.0885416666667,126.12567252579274L1242.2484375,146.96291582825137L1243.4083333333333,123.88077458154642L1244.5682291666667,160.7912492306668L1245.728125,134.4349574411741L1246.8880208333335,113.00823812090803L1248.0479166666667,96.39900914907017L1249.2078125,82.65391425284987L1250.3677083333332,71.38535066497526L1251.5276041666666,62.51449344701925L1252.6875,55.62463076835757L1253.8473958333334,49.89860371136576L1255.0072916666666,45.14547818393636L1256.1671875,41.375593191680316L1257.3270833333333,38.2984536549068L1258.4869791666667,35.92748907138638L1259.6468750000001,34.269343283476275L1260.8067708333333,71.67036115632204L1261.9666666666667,62.70213887622951L1263.1265624999999,56.83054381582737L1264.2864583333333,96.26005932558058L1265.4463541666667,132.0002479441681L1266.60625,131.42833840660398L1267.7661458333334,110.96385837176759L1268.9260416666666,94.97580696108591L1270.0859375,84.90605604250156L1271.2458333333334,74.1019396826341L1272.4057291666668,66.0400905888807L1273.565625,59.009313413487384" style="fill: none;" fill="none"></path></g></g></g></g><g opacity="0.2"><g><g><g><path stroke="rgb(255, 112, 67)" stroke-width="2px" d="M115.98958333333333,341.8816086425781L117.14947916666667,345.90088739013675L118.309375,341.16279315185545L119.46927083333333,340.85460952758785L120.62916666666668,344.4090305175781L121.78906249999999,344.7041627197265L122.94895833333334,345.90197738647464L124.10885416666667,342.0396238708496L125.26875,347.9120504760742L126.42864583333333,343.8305049743652L127.58854166666666,341.7435043945312L128.7484375,340.7135434570313L129.90833333333333,345.1703672790527L131.06822916666667,344.14743139648436L132.228125,341.3873666381836L133.38802083333334,341.3316227416992L134.54791666666665,344.77817404174806L135.70781250000002,340.7107300109863L136.86770833333333,348.20856942749026L138.02760416666666,344.40283865356446L139.1875,343.3095837402344L140.34739583333334,347.9727935180664L141.50729166666667,340.71978668212887L142.66718749999998,346.4128261413574L143.82708333333332,340.55831314086913L144.98697916666669,345.07759774780277L146.146875,346.37754678344726L147.30677083333333,343.22538580322265L148.46666666666667,346.3400246582031L149.6265625,340.7922400512695L150.78645833333334,344.1856098022461L151.94635416666665,340.9193302001953L153.10625,344.50073858642577L154.26614583333335,342.17534838867186L155.42604166666666,340.4237699279785L156.5859375,341.0801874084473L157.74583333333334,340.90299737548827L158.90572916666667,345.578556640625L160.065625,344.3680786132812L161.22552083333332,343.90110934448245L162.38541666666666,341.4746690673828L163.5453125,346.968587310791L164.70520833333333,344.1867796936035L165.86510416666667,342.1943576965332L167.025,344.88079348754883L168.18489583333334,344.5580004882812L169.34479166666668,346.1194801635742L170.5046875,343.920078704834L171.66458333333333,344.7771011657715L172.82447916666666,342.2640603942871L173.984375,340.74114147949217L175.1442708333333,342.085506439209L176.30416666666667,340.9194956970215L177.4640625,341.0958525390625L178.62395833333332,344.40613717651365L179.78385416666669,344.15077557373047L180.94375,341.9846389770508L182.10364583333333,345.64545730590817L183.26354166666664,345.70524160766604L184.4234375,344.4524192199707L185.58333333333334,347.51254113769534L186.74322916666665,345.1229609985351L187.90312500000002,339.9238211364746L189.06302083333333,340.96456790161136L190.22291666666666,344.54235247802734L191.38281250000003,343.92128854370117L192.54270833333334,341.1511398925781L193.70260416666665,340.63594256591796L194.8625,362.76520800781253L196.02239583333335,347.15311056518556L197.18229166666666,344.4429117126465L198.3421875,343.94910913085937L199.50208333333333,342.95039285278324L200.66197916666667,345.8142070007324L201.82187499999998,343.56766748046874L202.98177083333334,339.4961145629883L204.14166666666668,349.3756302185059L205.3015625,343.31681994628906L206.46145833333335,343.8911795349121L207.62135416666666,343.8482587890625L208.78125,341.6777736206055L209.94114583333337,341.03039569091794L211.10104166666667,341.5246491088867L212.26093749999998,344.55743551635743L213.42083333333332,340.84186627197266L214.58072916666669,340.943783782959L215.740625,341.74120455932615L216.90052083333333,344.16061407470704L218.06041666666667,340.8101764831543L219.2203125,344.36334768676755L220.38020833333331,344.3997284545898L221.54010416666668,347.9093283386231L222.70000000000002,344.1057490234375L223.85989583333333,341.44759036254885L225.01979166666663,345.4028674926758L226.1796875,348.82802975463864L227.33958333333334,341.1362166442871L228.49947916666665,346.20247396850584L229.659375,344.0204268493652L230.81927083333332,341.5790062561035L231.97916666666666,345.6830821533203L233.13906250000002,343.5619321594238L234.29895833333333,341.36104693603517L235.45885416666667,344.92982049560544L236.61875,341.8459754638672L237.77864583333334,345.04504052734376L238.93854166666665,346.4659563293457L240.0984375,345.5307565917969L241.25833333333335,344.1240563964844L242.41822916666666,340.68207623291016L243.57812499999997,341.18594558715824L244.73802083333334,346.14988592529295L245.89791666666667,346.2034669494629L247.05781249999998,345.6627888183594L248.21770833333335,343.8134359741211L249.37760416666666,340.2234217529297L250.5375,341.10111990356444L251.69739583333336,344.241171081543L252.85729166666667,344.63530462646486L254.0171875,341.3004979248047L255.17708333333331,344.440434967041L256.33697916666665,343.24364752197266L257.496875,344.5536405029297L258.6567708333333,341.12096810913084L259.81666666666666,350.7164740905762L260.9765625,355.64782867431643L262.13645833333334,340.94098745727536L263.2963541666667,344.0411995544433L264.45625,341.2031287231445L265.61614583333335,340.372140625L266.7760416666667,344.1959676208496L267.9359375,340.5375119018555L269.0958333333333,344.7507301025391L270.25572916666664,345.0900328369141L271.41562500000003,340.70562243652347L272.5755208333333,343.3792350769043L273.73541666666665,349.04370065307614L274.8953125,343.6089275512695L276.0552083333333,343.3385513916015L277.21510416666666,345.8857644042969L278.375,342.50146844482424L279.53489583333334,343.92204754638675L280.6947916666667,345.07505822753905L281.8546875,346.1516949768066L283.01458333333335,344.7630510559082L284.1744791666667,345.57611413574216L285.33437499999997,347.49021618652347L286.49427083333336,341.056275970459L287.65416666666664,344.81472030639645L288.8140625,344.84618753051757L289.97395833333337,344.20464764404295L291.13385416666665,343.8287929382324L292.29375,347.6111430053711L293.4536458333333,340.99048812866215L294.61354166666666,344.76274859619144L295.7734375,345.1177735290527L296.93333333333334,341.1709139099121L298.0932291666667,345.3252209472656L299.253125,341.49273104858395L300.4130208333333,346.16229248046875L301.5729166666667,343.73032232666014L302.7328125,344.38650012207034L303.8927083333333,343.7233258056641L305.0526041666667,341.2813345336914L306.2125,343.5716565246582L307.3723958333333,344.16092794799806L308.5322916666667,344.8373705444336L309.6921875,340.1432014465332L310.8520833333333,341.9698755187988L312.01197916666666,345.2868599243164L313.171875,347.2350771484375L314.33177083333334,340.90026382446285L315.4916666666667,344.21777896118164L316.6515625,344.3814781494141L317.81145833333335,340.90441836547853L318.97135416666663,345.0983932800293L320.13125,345.8039119567871L321.29114583333336,345.3526877136231L322.45104166666664,349.2397915649414L323.61093750000003,352.8007068786621L324.7708333333333,346.3767421264649L325.93072916666665,350.0788490600586L327.090625,352.73788085937497L328.2505208333333,345.8164041137695L329.41041666666666,341.94052551269533L330.5703125,350.96955868530273L331.73020833333334,347.5245881652832L332.8901041666667,345.537650390625L334.05,353.84686367797855L335.20989583333335,344.8518486633301L336.3697916666667,352.4510349121094L337.52968749999997,349.20310263061526L338.68958333333336,347.038815032959L339.8494791666667,350.71070452880855L341.009375,348.73968298339844L342.1692708333333,343.6092071838379L343.32916666666665,350.86515301513674L344.4890625,349.2511024169922L345.6489583333333,345.5106972351074L346.80885416666666,343.33032220458983L347.96875,345.9541830749512L349.12864583333334,344.70308984375004L350.2885416666666,342.4892273864746L351.4484375,344.0981247558594L352.60833333333335,343.60634808349613L353.76822916666663,341.2442347106934L354.928125,341.29956201171876L356.08802083333336,341.3421061096191L357.24791666666664,343.1309270629883L358.40781250000003,346.57097833251953L359.56770833333337,341.8039335632324L360.72760416666665,341.4159234008789L361.8875,345.05979827880856L363.04739583333327,341.64276818847657L364.20729166666666,341.72519702148435L365.3671875,407.34656042480475L366.5270833333333,351.73075848388675L367.6869791666667,342.2307213439941L368.846875,359.40879541015624L370.0067708333333,342.69598999023435L371.1666666666667,342.55370266723634L372.3265625,348.66562030029297L373.4864583333333,342.3251857910156L374.64635416666664,342.8230344848633L375.80625000000003,347.6550909729004L376.9661458333333,348.71977770996097L378.12604166666665,360.1291973876953L379.28593750000005,343.3300311584473L380.4458333333333,343.95311529541016L381.60572916666666,363.48675134277346L382.76562500000006,343.25220199584965L383.92552083333334,377.3006116333008L385.0854166666667,322.2091949462891L386.2453125,320.41818258666996L387.4052083333333,322.9459069213867L388.5651041666667,326.45970129394533L389.725,341.3860883178711L390.8848958333333,363.6729638061523L392.0447916666667,344.90663381958007L393.2046875,339.7794793701172L394.3645833333333,347.3684390563965L395.5244791666667,347.59937561035156L396.684375,328.7999633789062L397.8442708333333,335.64907806396485L399.00416666666666,324.3596150512695L400.16406249999994,317.16963397216796L401.32395833333334,312.2619682617188L402.4838541666667,327.11950860595704L403.64374999999995,320.1546659851074L404.80364583333335,323.86315881347656L405.9635416666667,322.27791036987304L407.12343749999997,318.4081380310059L408.28333333333336,392.92019067382813L409.4432291666667,313.7872783203125L410.603125,309.75773306274414L411.7630208333333,310.3403674926758L412.9229166666667,385.1696204833984L414.0828125,307.85155488586423L415.2427083333333,322.0696582946777L416.4026041666667,316.1952057800293L417.5625,322.0039503479004L418.72239583333334,323.3030433654785L419.88229166666673,326.6199821166992L421.0421875,343.13226245117187L422.20208333333335,383.16401580810543L423.36197916666663,363.44163348388673L424.52187499999997,317.75387200927736L425.68177083333336,304.92657824707027L426.84166666666664,347.0794530639648L428.0015625,351.0574603271484L429.16145833333337,304.99937973022463L430.32135416666665,317.30073599243167L431.48125,356.61480380249026L432.6411458333334,350.953185913086L433.80104166666666,356.0620158691406L434.9609375,346.26058618164063L436.12083333333334,351.7762073364258L437.2807291666666,350.8157607727051L438.440625,346.1712064819336L439.60052083333335,312.5419774780273L440.76041666666663,301.49562644958496L441.9203125,319.5354510498047L443.08020833333336,294.4154125671387L444.24010416666664,358.6011937255859L445.40000000000003,298.7598326568604L446.55989583333337,354.50526712036134L447.71979166666665,371.500130493164L448.8796875,356.9869490966797L450.03958333333327,343.71150704956057L451.19947916666666,348.92469702148435L452.359375,347.6178313598633L453.5192708333333,336.40409170532223L454.6791666666667,341.0227942504883L455.8390625,335.086833984375L456.9989583333333,297.7565566558838L458.1588541666667,314.9358205871582L459.31875,302.03822491455077L460.4786458333333,319.51436447143556L461.63854166666664,294.2042814178467L462.79843750000003,283.44677799224854L463.9583333333333,291.7581726989746L465.11822916666665,290.1804429473877L466.27812500000005,369.85718072509763L467.4380208333333,284.63271540832517L468.59791666666666,346.9988903503418L469.75781250000006,327.39419909667964L470.91770833333334,337.041882232666L472.0776041666667,332.583466217041L473.2375,344.795494140625L474.3973958333333,335.12825384521483L475.5572916666667,280.52542516326906L476.7171875,368.9025379638672L477.8770833333333,349.4843901672363L479.0369791666667,347.98590200805666L480.196875,341.59156689453124L481.3567708333333,282.8625256881714L482.5166666666667,315.0626082763672L483.6765625,310.25979907226565L484.8364583333333,319.6165844421387L485.99635416666666,312.2939034423828L487.15624999999994,312.9871696472168L488.31614583333334,291.94510707092286L489.4760416666667,320.588073638916L490.63593749999995,287.27686676025394L491.79583333333335,287.06238287353517L492.9557291666667,283.94121545410155L494.11562499999997,332.07767367553714L495.27552083333336,340.6683685302734L496.4354166666667,374.52449938964844L497.5953125,365.8612655639648L498.7552083333333,319.03362472534184L499.9151041666667,329.8627098083496L501.075,316.4123661499023L502.2348958333333,315.4879579467773L503.3947916666667,352.25588562011717L504.5546875,348.14076708984373L505.71458333333334,349.1634290466309L506.87447916666673,305.93525857543943L508.034375,291.3264628143311L509.19427083333335,278.3705309371948L510.35416666666663,355.64548318481445L511.51406249999997,276.8888292922974L512.6739583333333,301.8641450805664L513.8338541666666,274.5165007705689L514.99375,245.48440408325195L516.1536458333334,337.073606262207L517.3135416666667,334.4128681335449L518.4734375,295.74397828674313L519.6333333333333,230.24491418457035L520.7932291666666,316.74676675415037L521.953125,292.01831944274903L523.1130208333334,150.71381646728517L524.2729166666667,343.23003683471677L525.4328125,315.45758642578124L526.5927083333333,300.1843637084961L527.7526041666666,324.84068008422855L528.9125,199.4418801879883L530.0723958333334,319.3323122558594L531.2322916666667,330.7288973693848L532.3921875,332.4745921325683L533.5520833333334,341.9942834472656L534.7119791666667,332.21102987670895L535.871875,325.9703557128906L537.0317708333333,298.10797775268554L538.1916666666666,344.51456042480464L539.3515625,329.8750821228027L540.5114583333333,334.9292867126465L541.6713541666667,320.3931583251953L542.8312500000001,325.342643371582L543.9911458333333,300.3228360443115L545.1510416666666,295.7875667266846L546.3109375,339.6853801574707L547.4708333333333,341.442745300293L548.6307291666667,331.11793475341796L549.790625,340.46665643310547L550.9505208333333,286.9348190612793L552.1104166666667,327.4035239868164L553.2703125,336.9386806945801L554.4302083333333,322.0729111633301L555.5901041666667,320.06757470703127L556.75,326.40024227905275L557.9098958333333,335.22004180908203L559.0697916666667,324.4566703796387L560.2296875000001,288.2394533691406L561.3895833333333,326.7913740539551L562.5494791666666,335.9299147644043L563.709375,315.54340509033204L564.8692708333333,280.0514294128418L566.0291666666667,322.1490282897949L567.1890625,341.35149948120113L568.3489583333334,339.84991824340824L569.5088541666667,315.24911178588866L570.6687499999999,329.320565032959L571.8286458333333,343.31022290039067L572.9885416666667,334.5755229797363L574.1484375,313.98024761962887L575.3083333333333,296.9177245788574L576.4682291666667,317.2695255737305L577.628125,295.6540621490479L578.7880208333333,339.6547518310547L579.9479166666667,335.17823959350585L581.1078125,299.52829719543456L582.2677083333333,326.82794314575193L583.4276041666667,331.8920832519531L584.5875,338.3676202392578L585.7473958333334,319.0113511352539L586.9072916666667,283.0707021484375L588.0671874999999,275.2948009567261L589.2270833333333,324.7639123840332L590.3869791666667,316.5072357788086L591.546875,330.59782958984374L592.7067708333334,333.6227919921875L593.8666666666667,334.55896759033203L595.0265625,320.95020922851563L596.1864583333333,316.5292012023926L597.3463541666666,336.01232077026367L598.50625,114.0349260864258L599.6661458333333,298.0818749084473L600.8260416666666,317.5427551269531L601.9859375,96.1678659057617L603.1458333333334,259.27097879791256L604.3057291666667,208.97776736450194L605.465625,316.0829989318848L606.6255208333333,188.58543106079102L607.7854166666666,233.0050331573486L608.9453125,287.76975340270997L610.1052083333334,231.2519481048584L611.2651041666667,229.15222709655765L612.425,293.46199391174315L613.5848958333333,67.77848327636718L614.7447916666666,302.68110304260256L615.9046875,195.53909979248044L617.0645833333334,320.92343869018555L618.2244791666667,329.5993244628906L619.384375,233.64185638427736L620.5442708333334,328.3047911682129L621.7041666666667,293.35906915283203L622.8640625,323.94204943847654L624.0239583333333,204.84271502685547L625.1838541666666,355.02909881591796L626.34375,94.08493426513671L627.5036458333333,132.4638651123047L628.6635416666667,116.41019360351564L629.8234375000001,198.87819229125978L630.9833333333333,134.75047198486328L632.1432291666666,331.5073601989746L633.303125,81.54263745117187L634.4630208333333,65.03230883789062L635.6229166666667,57.32981262207032L636.7828125,60.14444567871094L637.9427083333333,68.32996435546875L639.1026041666667,63.42434167480467L640.2625,63.121608032226575L641.4223958333333,59.257245727539065L642.5822916666667,58.87012011718748L643.7421875,54.99776831054688L644.9020833333333,57.47841735839845L646.0619791666667,55.729469726562506L647.2218750000001,50.7890584716797L648.3817708333333,51.217638183593756L649.5416666666666,48.13044897460938L650.7015625,47.86711499023438L651.8614583333333,47.78938854980468L653.0213541666667,46.49257824707031L654.18125,47.699974609375L655.3411458333334,46.47417956542967L656.5010416666667,45.689016967773455L657.6609374999999,45.48147253417969L658.8208333333333,45.57768896484376L659.9807291666667,45.787904174804666L661.140625,51.17937988281252L662.3005208333333,43.550021850585914L663.4604166666667,43.32225256347656L664.6203125,150.24794860839845L665.7802083333333,45.82340039062499L666.9401041666667,48.61732922363281L668.1,44.59098547363281L669.2598958333333,42.78873645019532L670.4197916666667,40.868402587890635L671.5796875,42.67170166015625L672.7395833333334,43.22284033203126L673.8994791666667,43.43351208496093L675.0593749999999,43.61170080566407L676.2192708333333,44.27811657714843L677.3791666666667,44.04626123046876L678.5390625,222.93357542419434L679.6989583333334,44.12955749511718L680.8588541666667,38.115060424804696L682.01875,38.736826293945306L683.1786458333333,37.41712036132812L684.3385416666666,36.94281787109374L685.4984375,36.53555871582033L686.6583333333333,32.97904333496092L687.8182291666666,36.19248950195313L688.978125,37.19855041503908L690.1380208333334,35.04722863769531L691.2979166666667,36.93955358886717L692.4578125,33.95280383300783L693.6177083333333,35.96784753417969L694.7776041666666,35.25981787109376L695.9375,32.40163061523436L697.0973958333334,30.985023437500004L698.2572916666667,30.55575891113281L699.4171875,30.801036621093765L700.5770833333332,30.272200073242175L701.7369791666666,31.57779882812498L702.896875,32.77686328124999L704.0567708333334,336.5360782775879L705.2166666666667,31.502286621093752L706.3765625,33.368885375976575L707.5364583333333,34.555189453124996L708.6963541666667,38.0035498046875L709.85625,347.9201312866211L711.0161458333333,33.237378173828134L712.1760416666667,141.48686621093748L713.3359374999999,34.83078161621094L714.4958333333333,35.06923400878907L715.6557291666667,209.70629580688478L716.8156250000001,292.03299729919434L717.9755208333333,32.06399426269531L719.1354166666667,31.715925903320322L720.2953124999999,34.29153588867189L721.4552083333333,33.38027612304688L722.6151041666667,32.87664074707032L723.775,34.25551464843748L724.9348958333334,149.86415576171876L726.0947916666665,32.5367901611328L727.2546874999999,34.15098913574218L728.4145833333333,41.329784912109375L729.5744791666667,349.027413482666L730.734375,344.7859923400879L731.8942708333334,32.57513977050781L733.0541666666666,35.087564208984375L734.2140625,32.63022167968751L735.3739583333333,32.77505993652343L736.5338541666666,34.019664550781265L737.69375,33.37109960937501L738.8536458333334,34.37878125000002L740.0135416666666,32.48378552246093L741.1734375,32.92683764648435L742.3333333333334,35.217952880859364L743.4932291666667,31.576452026367186L744.653125,36.04808496093749L745.8130208333334,33.01949304199219L746.9729166666666,30.177490234375L748.1328125,30.907525268554682L749.2927083333333,29.971315429687518L750.4526041666667,28.816649780273444L751.6125000000001,32.099764404296856L752.7723958333335,27.737952880859357L753.9322916666666,28.932520385742173L755.0921875,29.63043762207031L756.2520833333333,27.954240112304678L757.4119791666667,30.835596923828124L758.5718750000001,27.921916870117194L759.7317708333333,29.328662719726573L760.8916666666667,28.433815673828114L762.0515624999999,29.64655358886719L763.2114583333333,31.252489135742206L764.3713541666667,28.96824487304687L765.5312500000001,28.86748583984373L766.6911458333333,27.094501220703105L767.8510416666667,298.9289019317627L769.0109375,29.05377819824217L770.1708333333333,28.141445556640637L771.3307291666667,28.657088012695322L772.490625,29.826157592773445L773.6505208333333,28.515810791015628L774.8104166666666,28.477872070312497L775.9703125,30.67423181152345L777.1302083333334,30.835026245117195L778.2901041666668,28.579178955078124L779.45,29.296248168945322L780.6098958333333,31.3808690185547L781.7697916666666,174.5810668029785L782.9296875,312.849071105957L784.0895833333334,33.72124523925782L785.2494791666667,30.875521606445307L786.409375,30.339882568359364L787.5692708333332,31.788356445312484L788.7291666666666,30.966807373046866L789.8890625,32.56578063964844L791.0489583333334,30.75209521484376L792.2088541666667,32.35170764160155L793.36875,30.066801391601558L794.5286458333333,30.006583374023457L795.6885416666667,33.3640460205078L796.8484375,32.83199084472657L798.0083333333333,31.10075708007812L799.1682291666667,29.52668823242187L800.3281249999999,32.77809594726561L801.4880208333333,39.30869201660155L802.6479166666667,31.01506396484373L803.8078125000001,30.97310766601561L804.9677083333333,30.69699047851562L806.1276041666667,31.363429077148428L807.2874999999999,330.17352996826173L808.4473958333333,29.472473754882806L809.6072916666667,30.003250610351568L810.7671875,29.756534790039048L811.9270833333334,29.582979980468753L813.0869791666665,29.287551025390606L814.2468749999999,29.686158691406263L815.4067708333333,188.0209385070801L816.5666666666667,29.153898071289056L817.7265625,28.70920239257812L818.8864583333334,28.125512207031253L820.0463541666666,30.931927490234358L821.20625,28.893371826171858L822.3661458333333,29.023760498046887L823.5260416666666,28.534026855468767L824.6859375,31.079368041992186L825.8458333333334,30.153019531249996L827.0057291666666,28.700345458984394L828.165625,28.421785766601552L829.3255208333334,29.863000610351563L830.4854166666667,27.726767578124985L831.6453125,29.73603601074219L832.8052083333334,28.337667724609375L833.9651041666666,29.001481201171874L835.125,29.23778784179689L836.2848958333333,28.536309570312486L837.4447916666667,135.10851580810547L838.6046875000001,30.49040478515626L839.7645833333335,27.52408532714845L840.9244791666666,29.59605993652345L842.084375,28.278476928710923L843.2442708333333,345.8065085449219L844.4041666666667,28.513482421874986L845.5640625000001,27.82551782226563L846.7239583333333,27.240960205078128L847.8838541666667,183.24208068847656L849.0437499999999,27.826134155273447L850.2036458333333,26.364146606445317L851.3635416666667,27.037342041015627L852.5234375000001,28.331641357421894L853.6833333333333,26.643459594726583L854.8432291666667,26.783892211914043L856.003125,164.55358557128906L857.1630208333333,26.682448364257805L858.3229166666667,28.387202636718754L859.4828125,293.29122401428225L860.6427083333333,278.83600360107425L861.8026041666666,26.74985693359373L862.9625,25.98989550781249L864.1223958333334,25.950564331054682L865.2822916666668,26.17869885253907L866.4421875,27.53794140625001L867.6020833333333,26.845548339843752L868.7619791666666,28.611479370117205L869.921875,29.527898071289055L871.0817708333334,26.892184204101557L872.2416666666667,26.753851684570318L873.4015625,28.52599169921875L874.5614583333332,26.420415527343756L875.7213541666666,28.11864123535158L876.88125,27.307524169921862L878.0411458333334,28.57605163574217L879.2010416666667,28.679527099609388L880.3609375,28.053264282226547L881.5208333333333,27.08973034667969L882.6807291666667,27.733387451171883L883.840625,28.26834167480468L885.0005208333333,26.444498168945326L886.1604166666667,25.961270263671892L887.3203124999999,28.862144287109388L888.4802083333333,149.75281634521485L889.6401041666667,323.9641575317383L890.8000000000001,27.020746704101548L891.9598958333333,25.943556396484393L893.1197916666667,31.71072131347655L894.2796874999999,28.275874633789055L895.4395833333333,25.854484863281268L896.5994791666667,24.636884765625016L897.759375,29.090872314453108L898.9192708333334,314.5380803527832L900.0791666666665,26.531766357421894L901.2390624999999,25.980718994140616L902.3989583333333,292.6051027069092L903.5588541666667,25.776142089843752L904.71875,123.92482238769529L905.8786458333334,26.69265209960937L907.0385416666666,26.434819458007805L908.1984375,26.880861938476574L909.3583333333333,27.801823242187496L910.5182291666666,286.1138920288086L911.678125,26.746432861328113L912.8380208333334,185.86268869018556L913.9979166666666,182.43239031982424L915.1578125,30.760107543945296L916.3177083333334,27.331789428710927L917.4776041666667,26.74554260253908L918.6375,29.15049682617188L919.7973958333334,28.135784423828145L920.9572916666666,28.09236718750002L922.1171875,28.570892700195326L923.2770833333333,27.815861938476555L924.4369791666667,25.842432128906264L925.5968750000001,320.5334939270019L926.7567708333335,201.88569192504883L927.9166666666666,153.47797869873048L929.0765625,28.616021972656238L930.2364583333333,289.66564794921874L931.3963541666667,26.451620239257824L932.5562500000001,26.64629016113283L933.7161458333333,181.16902178955075L934.8760416666667,25.71788720703126L936.0359374999999,26.541559204101542L937.1958333333333,24.62136230468751L938.3557291666667,25.958896240234363L939.5156250000001,275.7947611618042L940.6755208333333,26.649097900390633L941.8354166666667,25.91134729003908L942.9953125,26.22433032226563L944.1552083333333,26.53713073730468L945.3151041666667,116.76775805664062L946.475,25.493952880859354L947.6348958333333,25.886945068359363L948.7947916666666,218.40125366210938L949.9546875,26.039339111328143L951.1145833333334,27.13018005371092L952.2744791666668,25.94063452148438L953.434375,25.016317626953125L954.5942708333333,26.143248291015635L955.7541666666666,27.325968505859382L956.9140625,25.999368774414076L958.0739583333334,26.325294799804706L959.2338541666667,26.696989257812504L960.39375,28.855501586914052L961.5536458333332,29.811822143554682L962.7135416666666,26.78649450683595L963.8734375,27.98275122070311L965.0333333333334,33.55627343749999L966.1932291666667,29.52335546874998L967.353125,140.7432376098633L968.5130208333333,25.897080322265644L969.6729166666667,27.235162109374986L970.8328125,27.700927246093745L971.9927083333333,27.197679931640614L973.1526041666667,29.550040405273457L974.3124999999999,26.87702697753908L975.4723958333333,26.072803710937485L976.6322916666667,27.504385498046858L977.7921875000001,27.115913085937482L978.9520833333333,149.00625445556642L980.1119791666667,27.505230102539052L981.2718749999999,28.90690832519531L982.4317708333333,123.89019360351561L983.5916666666667,345.0501309814453L984.7515625,304.4643284912109L985.9114583333334,25.91470288085937L987.0713541666665,28.659576171875017L988.2312499999999,24.716642822265612L989.3911458333333,309.4802376861572L990.5510416666667,25.926025146484392L991.7109375,28.83180700683596L992.8708333333334,26.740018432617198L994.0307291666666,27.046335937500007L995.190625,28.052784912109384L996.3505208333333,26.190066772460934L997.5104166666666,27.695471557617193L998.6703125,29.96259545898436L999.8302083333334,30.31885876464842L1000.9901041666666,29.84996630859375L1002.15,142.3177059326172L1003.3098958333334,30.93197314453124L1004.4697916666667,34.62727758789061L1005.6296875,30.40573889160156L1006.7895833333334,29.91269531249999L1007.9494791666666,29.25251135253905L1009.109375,216.1888064880371L1010.2692708333333,28.525306884765612L1011.4291666666667,28.185319335937482L1012.5890625000001,28.343557128906248L1013.7489583333335,30.94083007812501L1014.9088541666666,29.788994995117182L1016.06875,28.30612060546876L1017.2286458333333,29.1039522705078L1018.3885416666667,27.60831750488279L1019.5484375000001,29.02643127441408L1020.7083333333333,29.04279833984374L1021.8682291666667,29.92120983886717L1023.0281249999999,241.26510530090331L1024.1880208333334,233.34966603088378L1025.3479166666666,27.606377197265626L1026.5078125,29.201469848632822L1027.6677083333332,29.41508630371095L1028.8276041666666,28.161054077148457L1029.9875,27.347357543945318L1031.1473958333333,29.667828491210955L1032.3072916666667,29.776577026367185L1033.4671875000001,246.83912400817871L1034.6270833333333,31.183756591796882L1035.7869791666667,32.182626953125L1036.946875,30.823430053710947L1038.1067708333333,29.917215087890625L1039.2666666666667,30.222824951171894L1040.4265625,28.022379150390627L1041.5864583333332,29.939334594726542L1042.7463541666666,31.101738647460927L1043.90625,30.43103137207031L1045.0661458333334,29.114589721679685L1046.2260416666668,30.014960937499982L1047.3859375,27.694444335937504L1048.5458333333333,29.654040893554676L1049.7057291666667,185.32279238891604L1050.865625,30.809939208984378L1052.0255208333333,43.31798388671875L1053.1854166666667,31.987888549804673L1054.3453124999999,28.63375866699218L1055.5052083333333,31.67520227050783L1056.6651041666667,30.542336547851566L1057.825,28.163998779296872L1058.9848958333334,29.006868408203143L1060.1447916666668,28.371520385742194L1061.3046875,26.826373535156247L1062.4645833333334,27.70202294921876L1063.6244791666666,30.472188720703123L1064.784375,30.308837646484392L1065.9442708333333,30.935808105468734L1067.1041666666667,31.24564099121093L1068.2640625,343.6991347351074L1069.4239583333333,30.487711181640627L1070.5838541666667,28.048995605468736L1071.74375,29.563325805664046L1072.9036458333335,27.845240478515624L1074.0635416666667,28.106611328125016L1075.2234375,29.10539038085937L1076.3833333333332,29.075418334960926L1077.5432291666666,29.113927734374986L1078.703125,27.230573852539067L1079.8630208333334,31.24785522460936L1081.0229166666666,28.835185424804692L1082.1828125,29.345143920898444L1083.3427083333333,29.28173010253906L1084.5026041666667,28.084857055664045L1085.6625000000001,31.853710571289074L1086.8223958333333,32.794736938476575L1087.9822916666667,31.93157397460939L1089.1421874999999,31.398012207031268L1090.3020833333333,29.417757080078143L1091.4619791666667,26.80149194335937L1092.621875,169.24235034179688L1093.7817708333334,236.97664881896972L1094.9416666666666,29.061151367187488L1096.1015625,28.42116943359374L1097.2614583333334,27.375480590820317L1098.4213541666668,171.0883133544922L1099.58125,27.017733520507807L1100.7411458333333,112.56866986083986L1101.9010416666665,29.82885119628908L1103.0609375,28.67653674316405L1104.2208333333333,28.33264575195314L1105.3807291666667,27.21539379882811L1106.540625,29.308004150390623L1107.7005208333333,29.416204833984366L1108.8604166666667,30.397543945312485L1110.0203125,29.123218383789073L1111.1802083333334,30.304957031250016L1112.3401041666666,31.901556274414062L1113.5,33.59558178710936L1114.6598958333332,31.599256347656244L1115.8197916666666,30.25115344238283L1116.9796875,31.317957397460923L1118.1395833333333,30.414550170898444L1119.2994791666667,30.725707031249993L1120.4593750000001,29.936252929687516L1121.6192708333333,29.70834667968751L1122.7791666666667,32.943775390624985L1123.9390625,29.92892541503908L1125.0989583333333,346.7669436950684L1126.2588541666667,28.01779089355467L1127.41875,29.706908569335944L1128.5786458333332,177.57538375854492L1129.7385416666666,30.313631347656248L1130.8984375,29.61429882812499L1132.0583333333334,276.4262685165405L1133.2182291666668,292.4946649627686L1134.378125,28.269825439453133L1135.5380208333333,30.626500244140626L1136.6979166666667,32.823636108398446L1137.8578125,31.54077319335937L1139.0177083333333,337.9716262817383L1140.1776041666667,32.820440307617204L1141.3374999999999,36.4210577392578L1142.4973958333333,31.512262084960938L1143.6572916666667,138.70370037841798L1144.8171875,35.907583862304705L1145.9770833333334,33.46948461914062L1147.1369791666668,34.58970410156251L1148.296875,30.060318481445318L1149.4567708333334,31.125182128906243L1150.6166666666666,32.76905639648439L1151.7765625,30.112729614257823L1152.9364583333333,31.826751708984375L1154.0963541666667,28.719474609375013L1155.25625,29.345303710937497L1156.4161458333333,133.03858422851562L1157.5760416666667,193.0472483215332L1158.7359375,203.60538085937497L1159.8958333333335,130.12943536376955L1161.0557291666667,192.5030605163574L1162.215625,27.81474340820314L1163.3755208333332,245.88211150360107L1164.5354166666666,28.57427111816406L1165.6953125,29.48354492187501L1166.8552083333334,31.183528320312504L1168.0151041666666,31.733479980468765L1169.175,31.0161368408203L1170.3348958333333,34.816537475585946L1171.4947916666667,33.823328247070314L1172.6546875000001,34.28945861816407L1173.8145833333333,35.335786621093746L1174.9744791666667,36.089561889648444L1176.1343749999999,37.976362670898425L1177.2942708333333,42.843156372070325L1178.4541666666667,45.02068371582032L1179.6140625,179.30843228149416L1180.7739583333334,38.134212402343756L1181.9338541666666,35.09101110839843L1183.09375,194.09786782836912L1184.2536458333334,38.567517333984384L1185.4135416666668,322.2372552185058L1186.5734375,36.40653967285158L1187.7333333333333,40.55822729492189L1188.8932291666665,34.124144409179685L1190.053125,34.52603918457031L1191.2130208333333,31.89555273437498L1192.3729166666667,32.54708520507813L1193.5328125,32.52014916992188L1194.6927083333333,31.594599609375L1195.8526041666667,31.495278686523424L1197.0125,31.03200170898436L1198.1723958333334,32.36579199218749L1199.3322916666666,31.719053222656232L1200.4921875,29.29656774902343L1201.6520833333332,32.608718505859365L1202.8119791666666,31.382056030273443L1203.971875,31.03154516601564L1205.1317708333333,32.48711828613281L1206.2916666666667,31.316930175781234L1207.4515625000001,29.358885864257793L1208.6114583333333,32.82475463867186L1209.7713541666667,32.053722045898425L1210.93125,31.59400610351563L1212.0911458333333,32.31182861328125L1213.2510416666667,31.650480468750004L1214.4109375,30.675190551757808L1215.5708333333332,30.55427514648436L1216.7307291666666,29.90954516601564L1217.890625,30.124074707031248L1219.0505208333334,29.897834838867183L1220.2104166666668,29.602816772460955L1221.3703125,29.790045043945312L1222.5302083333333,30.034112915039042L1223.6901041666667,30.03950012207031L1224.85,30.16977465820313L1226.0098958333333,30.094810302734388L1227.1697916666667,30.496225708007806L1228.3296874999999,29.906029785156253L1229.4895833333333,30.888099365234357L1230.6494791666667,29.496784667968758L1231.809375,28.790078979492176L1232.9692708333334,29.853139282226547L1234.1291666666668,31.630324096679697L1235.2890625,36.43388659667967L1236.4489583333334,180.39540972900392L1237.6088541666666,201.28710702514647L1238.76875,330.4752706298828L1239.9286458333333,204.6097069091797L1241.0885416666667,26.917750610351575L1242.2484375,230.31188903808595L1243.4083333333333,31.552209594726563L1244.5682291666667,308.43314782714845L1245.728125,29.009790283203113L1246.8880208333335,27.301360839843767L1248.0479166666667,29.962093261718756L1249.2078125,27.67353466796877L1250.3677083333332,26.311096313476554L1251.5276041666666,27.031064575195323L1252.6875,28.06518005371094L1253.8473958333334,26.99449548339843L1255.0072916666666,26.132976074218742L1256.1671875,26.296053222656248L1257.3270833333333,25.98989550781249L1258.4869791666667,26.44363073730469L1259.6468750000001,27.636760131835942L1260.8067708333333,221.27443264770508L1261.9666666666667,26.82924975585938L1263.1265624999999,33.344163574218754L1264.2864583333333,253.9781213645935L1265.4463541666667,274.9610024185181L1266.60625,129.14070025634766L1267.7661458333334,29.105938232421895L1268.9260416666666,31.02360131835939L1270.0859375,44.62705236816406L1271.2458333333334,30.885474243164047L1272.4057291666668,33.79269421386718L1273.565625,30.886204711914072" style="fill: none;" fill="none"></path></g></g></g></g></g></g><g transform="translate(51, 374)" clip-path="url(#clip_1)"><clipPath id="clip_1"><rect width="1391" height="26"></rect></clipPath><g><g><line x1="0" y1="0" x2="0" y2="5" style="visibility: inherit;" fill="rgb(0, 0, 0)" stroke="rgb(204, 204, 204)" stroke-width="1px"></line><line x1="115.98958333333333" y1="0" x2="115.98958333333333" y2="5" style="visibility: inherit;" fill="rgb(0, 0, 0)" stroke="rgb(204, 204, 204)" stroke-width="1px"></line><line x1="231.97916666666666" y1="0" x2="231.97916666666666" y2="5" style="visibility: inherit;" fill="rgb(0, 0, 0)" stroke="rgb(204, 204, 204)" stroke-width="1px"></line><line x1="347.96875" y1="0" x2="347.96875" y2="5" style="visibility: inherit;" fill="rgb(0, 0, 0)" stroke="rgb(204, 204, 204)" stroke-width="1px"></line><line x1="463.9583333333333" y1="0" x2="463.9583333333333" y2="5" style="visibility: inherit;" fill="rgb(0, 0, 0)" stroke="rgb(204, 204, 204)" stroke-width="1px"></line><line x1="579.9479166666667" y1="0" x2="579.9479166666667" y2="5" style="visibility: inherit;" fill="rgb(0, 0, 0)" stroke="rgb(204, 204, 204)" stroke-width="1px"></line><line x1="695.9375" y1="0" x2="695.9375" y2="5" style="visibility: inherit;" fill="rgb(0, 0, 0)" stroke="rgb(204, 204, 204)" stroke-width="1px"></line><line x1="811.9270833333334" y1="0" x2="811.9270833333334" y2="5" style="visibility: inherit;" fill="rgb(0, 0, 0)" stroke="rgb(204, 204, 204)" stroke-width="1px"></line><line x1="927.9166666666666" y1="0" x2="927.9166666666666" y2="5" style="visibility: inherit;" fill="rgb(0, 0, 0)" stroke="rgb(204, 204, 204)" stroke-width="1px"></line><line x1="1043.90625" y1="0" x2="1043.90625" y2="5" style="visibility: inherit;" fill="rgb(0, 0, 0)" stroke="rgb(204, 204, 204)" stroke-width="1px"></line><line x1="1159.8958333333335" y1="0" x2="1159.8958333333335" y2="5" style="visibility: inherit;" fill="rgb(0, 0, 0)" stroke="rgb(204, 204, 204)" stroke-width="1px"></line><line x1="1275.8854166666665" y1="0" x2="1275.8854166666665" y2="5" style="visibility: inherit;" fill="rgb(0, 0, 0)" stroke="rgb(204, 204, 204)" stroke-width="1px"></line><line x1="1391.875" y1="0" x2="1391.875" y2="5" style="visibility: inherit;" fill="rgb(0, 0, 0)" stroke="rgb(204, 204, 204)" stroke-width="1px"></line></g><g transform="translate(0, 8)"><text x="0" y="0" dx="0em" dy="0.95em" style="text-anchor: middle; visibility: hidden; font-family: Roboto, sans-serif; font-size: 12px; font-weight: 200;" fill="rgb(33, 33, 33)" stroke="none" stroke-width="1px">-100</text><text x="115.98958333333333" y="0" dx="0em" dy="0.95em" style="text-anchor: middle; visibility: inherit; font-family: Roboto, sans-serif; font-size: 12px; font-weight: 200;" fill="rgb(33, 33, 33)" stroke="none" stroke-width="1px">0</text><text x="231.97916666666666" y="0" dx="0em" dy="0.95em" style="text-anchor: middle; visibility: inherit; font-family: Roboto, sans-serif; font-size: 12px; font-weight: 200;" fill="rgb(33, 33, 33)" stroke="none" stroke-width="1px">100</text><text x="347.96875" y="0" dx="0em" dy="0.95em" style="text-anchor: middle; visibility: inherit; font-family: Roboto, sans-serif; font-size: 12px; font-weight: 200;" fill="rgb(33, 33, 33)" stroke="none" stroke-width="1px">200</text><text x="463.9583333333333" y="0" dx="0em" dy="0.95em" style="text-anchor: middle; visibility: inherit; font-family: Roboto, sans-serif; font-size: 12px; font-weight: 200;" fill="rgb(33, 33, 33)" stroke="none" stroke-width="1px">300</text><text x="579.9479166666667" y="0" dx="0em" dy="0.95em" style="text-anchor: middle; visibility: inherit; font-family: Roboto, sans-serif; font-size: 12px; font-weight: 200;" fill="rgb(33, 33, 33)" stroke="none" stroke-width="1px">400</text><text x="695.9375" y="0" dx="0em" dy="0.95em" style="text-anchor: middle; visibility: inherit; font-family: Roboto, sans-serif; font-size: 12px; font-weight: 200;" fill="rgb(33, 33, 33)" stroke="none" stroke-width="1px">500</text><text x="811.9270833333334" y="0" dx="0em" dy="0.95em" style="text-anchor: middle; visibility: inherit; font-family: Roboto, sans-serif; font-size: 12px; font-weight: 200;" fill="rgb(33, 33, 33)" stroke="none" stroke-width="1px">600</text><text x="927.9166666666666" y="0" dx="0em" dy="0.95em" style="text-anchor: middle; visibility: inherit; font-family: Roboto, sans-serif; font-size: 12px; font-weight: 200;" fill="rgb(33, 33, 33)" stroke="none" stroke-width="1px">700</text><text x="1043.90625" y="0" dx="0em" dy="0.95em" style="text-anchor: middle; visibility: inherit; font-family: Roboto, sans-serif; font-size: 12px; font-weight: 200;" fill="rgb(33, 33, 33)" stroke="none" stroke-width="1px">800</text><text x="1159.8958333333335" y="0" dx="0em" dy="0.95em" style="text-anchor: middle; visibility: inherit; font-family: Roboto, sans-serif; font-size: 12px; font-weight: 200;" fill="rgb(33, 33, 33)" stroke="none" stroke-width="1px">900</text><text x="1275.8854166666665" y="0" dx="0em" dy="0.95em" style="text-anchor: middle; visibility: inherit; font-family: Roboto, sans-serif; font-size: 12px; font-weight: 200;" fill="rgb(33, 33, 33)" stroke="none" stroke-width="1px">1k</text><text x="1391.875" y="0" dx="0em" dy="0.95em" style="text-anchor: middle; visibility: hidden; font-family: Roboto, sans-serif; font-size: 12px; font-weight: 200;" fill="rgb(33, 33, 33)" stroke="none" stroke-width="1px">1.1k</text></g><line x1="0" y1="0" x2="1391.875" y2="0" fill="rgb(0, 0, 0)" stroke="rgb(204, 204, 204)" stroke-width="1px"></line></g></g></g></g></svg>