<svg viewBox="0 0 1444 400" xmlns="http://www.w3.org/2000/svg"><g><g><g><g><g><line x1="30.5625" y1="360.3024884949838" x2="25.5625" y2="360.3024884949838" style="visibility: inherit;" fill="rgb(0, 0, 0)" stroke="rgb(204, 204, 204)" stroke-width="1px"></line><line x1="30.5625" y1="323.10517836739774" x2="25.5625" y2="323.10517836739774" style="visibility: inherit;" fill="rgb(0, 0, 0)" stroke="rgb(204, 204, 204)" stroke-width="1px"></line><line x1="30.5625" y1="285.9078682398117" x2="25.5625" y2="285.9078682398117" style="visibility: inherit;" fill="rgb(0, 0, 0)" stroke="rgb(204, 204, 204)" stroke-width="1px"></line><line x1="30.5625" y1="248.71055811222564" x2="25.5625" y2="248.71055811222564" style="visibility: inherit;" fill="rgb(0, 0, 0)" stroke="rgb(204, 204, 204)" stroke-width="1px"></line><line x1="30.5625" y1="211.51324798463958" x2="25.5625" y2="211.51324798463958" style="visibility: inherit;" fill="rgb(0, 0, 0)" stroke="rgb(204, 204, 204)" stroke-width="1px"></line><line x1="30.5625" y1="174.3159378570535" x2="25.5625" y2="174.3159378570535" style="visibility: inherit;" fill="rgb(0, 0, 0)" stroke="rgb(204, 204, 204)" stroke-width="1px"></line><line x1="30.5625" y1="137.11862772946748" x2="25.5625" y2="137.11862772946748" style="visibility: inherit;" fill="rgb(0, 0, 0)" stroke="rgb(204, 204, 204)" stroke-width="1px"></line><line x1="30.5625" y1="99.92131760188141" x2="25.5625" y2="99.92131760188141" style="visibility: inherit;" fill="rgb(0, 0, 0)" stroke="rgb(204, 204, 204)" stroke-width="1px"></line><line x1="30.5625" y1="62.72400747429538" x2="25.5625" y2="62.72400747429538" style="visibility: inherit;" fill="rgb(0, 0, 0)" stroke="rgb(204, 204, 204)" stroke-width="1px"></line><line x1="30.5625" y1="25.52669734670931" x2="25.5625" y2="25.52669734670931" style="visibility: inherit;" fill="rgb(0, 0, 0)" stroke="rgb(204, 204, 204)" stroke-width="1px"></line></g><g transform="translate(20.5625, 0)"><text x="0" y="360.3024884949838" dx="0em" dy="0.3em" style="text-anchor: end; visibility: inherit; font-family: Roboto, sans-serif; font-size: 12px; font-weight: 200;" fill="rgb(33, 33, 33)" stroke="none" stroke-width="1px">-9</text><text x="0" y="323.10517836739774" dx="0em" dy="0.3em" style="text-anchor: end; visibility: inherit; font-family: Roboto, sans-serif; font-size: 12px; font-weight: 200;" fill="rgb(33, 33, 33)" stroke="none" stroke-width="1px">-8</text><text x="0" y="285.9078682398117" dx="0em" dy="0.3em" style="text-anchor: end; visibility: inherit; font-family: Roboto, sans-serif; font-size: 12px; font-weight: 200;" fill="rgb(33, 33, 33)" stroke="none" stroke-width="1px">-7</text><text x="0" y="248.71055811222564" dx="0em" dy="0.3em" style="text-anchor: end; visibility: inherit; font-family: Roboto, sans-serif; font-size: 12px; font-weight: 200;" fill="rgb(33, 33, 33)" stroke="none" stroke-width="1px">-6</text><text x="0" y="211.51324798463958" dx="0em" dy="0.3em" style="text-anchor: end; visibility: inherit; font-family: Roboto, sans-serif; font-size: 12px; font-weight: 200;" fill="rgb(33, 33, 33)" stroke="none" stroke-width="1px">-5</text><text x="0" y="174.3159378570535" dx="0em" dy="0.3em" style="text-anchor: end; visibility: inherit; font-family: Roboto, sans-serif; font-size: 12px; font-weight: 200;" fill="rgb(33, 33, 33)" stroke="none" stroke-width="1px">-4</text><text x="0" y="137.11862772946748" dx="0em" dy="0.3em" style="text-anchor: end; visibility: inherit; font-family: Roboto, sans-serif; font-size: 12px; font-weight: 200;" fill="rgb(33, 33, 33)" stroke="none" stroke-width="1px">-3</text><text x="0" y="99.92131760188141" dx="0em" dy="0.3em" style="text-anchor: end; visibility: inherit; font-family: Roboto, sans-serif; font-size: 12px; font-weight: 200;" fill="rgb(33, 33, 33)" stroke="none" stroke-width="1px">-2</text><text x="0" y="62.72400747429538" dx="0em" dy="0.3em" style="text-anchor: end; visibility: inherit; font-family: Roboto, sans-serif; font-size: 12px; font-weight: 200;" fill="rgb(33, 33, 33)" stroke="none" stroke-width="1px">-1</text><text x="0" y="25.52669734670931" dx="0em" dy="0.3em" style="text-anchor: end; visibility: inherit; font-family: Roboto, sans-serif; font-size: 12px; font-weight: 200;" fill="rgb(33, 33, 33)" stroke="none" stroke-width="1px">0</text></g><line x1="30.5625" y1="0" x2="30.5625" y2="374" fill="rgb(0, 0, 0)" stroke="rgb(204, 204, 204)" stroke-width="1px"></line></g></g><g transform="translate(30, 0)" clip-path="url(#clip_0)"><clipPath id="clip_0"><rect width="1413" height="374"></rect></clipPath><g><g><g><line x1="43.64419611569845" y1="0" x2="43.64419611569845" y2="374" fill="rgb(0, 0, 0)" stroke="rgb(66, 66, 66)" stroke-width="1px" opacity="0.25"></line><line x1="137.36268637142038" y1="0" x2="137.36268637142038" y2="374" fill="rgb(0, 0, 0)" stroke="rgb(66, 66, 66)" stroke-width="1px" opacity="0.25"></line><line x1="231.08117662714227" y1="0" x2="231.08117662714227" y2="374" fill="rgb(0, 0, 0)" stroke="rgb(66, 66, 66)" stroke-width="1px" opacity="0.25"></line><line x1="324.79966688286413" y1="0" x2="324.79966688286413" y2="374" fill="rgb(0, 0, 0)" stroke="rgb(66, 66, 66)" stroke-width="1px" opacity="0.25"></line><line x1="418.51815713858605" y1="0" x2="418.51815713858605" y2="374" fill="rgb(0, 0, 0)" stroke="rgb(66, 66, 66)" stroke-width="1px" opacity="0.25"></line><line x1="512.236647394308" y1="0" x2="512.236647394308" y2="374" fill="rgb(0, 0, 0)" stroke="rgb(66, 66, 66)" stroke-width="1px" opacity="0.25"></line><line x1="605.9551376500299" y1="0" x2="605.9551376500299" y2="374" fill="rgb(0, 0, 0)" stroke="rgb(66, 66, 66)" stroke-width="1px" opacity="0.25"></line><line x1="699.6736279057518" y1="0" x2="699.6736279057518" y2="374" fill="rgb(0, 0, 0)" stroke="rgb(66, 66, 66)" stroke-width="1px" opacity="0.25"></line><line x1="793.3921181614737" y1="0" x2="793.3921181614737" y2="374" fill="rgb(0, 0, 0)" stroke="rgb(66, 66, 66)" stroke-width="1px" opacity="0.25"></line><line x1="887.1106084171956" y1="0" x2="887.1106084171956" y2="374" fill="rgb(0, 0, 0)" stroke="rgb(66, 66, 66)" stroke-width="1px" opacity="0.25"></line><line x1="980.8290986729176" y1="0" x2="980.8290986729176" y2="374" fill="rgb(0, 0, 0)" stroke="rgb(66, 66, 66)" stroke-width="1px" opacity="0.25"></line><line x1="1074.5475889286395" y1="0" x2="1074.5475889286395" y2="374" fill="rgb(0, 0, 0)" stroke="rgb(66, 66, 66)" stroke-width="1px" opacity="0.25"></line><line x1="1168.2660791843614" y1="0" x2="1168.2660791843614" y2="374" fill="rgb(0, 0, 0)" stroke="rgb(66, 66, 66)" stroke-width="1px" opacity="0.25"></line><line x1="1261.9845694400833" y1="0" x2="1261.9845694400833" y2="374" fill="rgb(0, 0, 0)" stroke="rgb(66, 66, 66)" stroke-width="1px" opacity="0.25"></line><line x1="1355.7030596958052" y1="0" x2="1355.7030596958052" y2="374" fill="rgb(0, 0, 0)" stroke="rgb(66, 66, 66)" stroke-width="1px" opacity="0.25"></line></g><g><line x1="0" y1="360.3024884949838" x2="1413.4375" y2="360.3024884949838" fill="rgb(0, 0, 0)" stroke="rgb(66, 66, 66)" stroke-width="1px" opacity="0.25"></line><line x1="0" y1="323.10517836739774" x2="1413.4375" y2="323.10517836739774" fill="rgb(0, 0, 0)" stroke="rgb(66, 66, 66)" stroke-width="1px" opacity="0.25"></line><line x1="0" y1="285.9078682398117" x2="1413.4375" y2="285.9078682398117" fill="rgb(0, 0, 0)" stroke="rgb(66, 66, 66)" stroke-width="1px" opacity="0.25"></line><line x1="0" y1="248.71055811222564" x2="1413.4375" y2="248.71055811222564" fill="rgb(0, 0, 0)" stroke="rgb(66, 66, 66)" stroke-width="1px" opacity="0.25"></line><line x1="0" y1="211.51324798463958" x2="1413.4375" y2="211.51324798463958" fill="rgb(0, 0, 0)" stroke="rgb(66, 66, 66)" stroke-width="1px" opacity="0.25"></line><line x1="0" y1="174.3159378570535" x2="1413.4375" y2="174.3159378570535" fill="rgb(0, 0, 0)" stroke="rgb(66, 66, 66)" stroke-width="1px" opacity="0.25"></line><line x1="0" y1="137.11862772946748" x2="1413.4375" y2="137.11862772946748" fill="rgb(0, 0, 0)" stroke="rgb(66, 66, 66)" stroke-width="1px" opacity="0.25"></line><line x1="0" y1="99.92131760188141" x2="1413.4375" y2="99.92131760188141" fill="rgb(0, 0, 0)" stroke="rgb(66, 66, 66)" stroke-width="1px" opacity="0.25"></line><line x1="0" y1="62.72400747429538" x2="1413.4375" y2="62.72400747429538" fill="rgb(0, 0, 0)" stroke="rgb(66, 66, 66)" stroke-width="1px" opacity="0.25"></line><line x1="0" y1="25.52669734670931" x2="1413.4375" y2="25.52669734670931" fill="rgb(0, 0, 0)" stroke="rgb(66, 66, 66)" stroke-width="1px" opacity="0.25"></line></g></g></g><g><g><line x1="0" y1="25.52669734670931" x2="1413.4375" y2="25.52669734670931" fill="rgb(0, 0, 0)" stroke="rgb(153, 153, 153)" stroke-width="1.5px"></line></g></g><g><g><line x1="137.36268637142038" y1="0" x2="137.36268637142038" y2="374" fill="rgb(0, 0, 0)" stroke="rgb(153, 153, 153)" stroke-width="1.5px"></line></g></g><g><g><g><g><g><path stroke="rgb(51, 187, 238)" stroke-width="2px" d="M138.50605195254016,20.01971501951557L139.5416412698659,22.291515602610495L139.96806040052942,23.065733029315243L140.44602470083362,28.47423053752917L141.13016967970037,32.227521512538175L142.1704449215389,39.11912109994206L142.66715291989422,47.78778866866531L144.1947643110625,54.016019406803586L144.43843238572737,60.23785890114842L146.45337992622538,67.02753107893116L146.5470984164811,72.84080340243077L149.09155542692395,79.91831244983211L149.98188108435332,87.42945512802066L150.09434327266018,93.88902029414628L151.8093916443399,96.45169217963607L152.5497677173601,102.60769065747255L152.66222990566695,106.37804739367333L154.07269318401558,113.86234805021986L156.67338128861186,122.31030480699886L156.954536759379,128.96025032479312L158.7492458477761,136.50846481700304L161.21404214150158,143.17865947571843L161.66857681924185,150.93531617691272L162.0200211577008,153.67704620828894L162.17465666662272,160.4430744386119L162.48861360897942,165.88053706559037L162.9197186641557,168.53930828032856L163.91782058537916,173.97634209437373L164.69099812998888,178.3598026051211L164.8503195634236,180.55475850063493L165.389200882394,183.7440764015665L165.46417567459858,187.7007187762123L165.7265874473146,190.19791380601225L166.78560638720427,191.58704408062695L167.0433322354075,191.44759116786793L168.1445244959122,194.82988860833134L168.8989583424708,198.30017965175736L169.4612692840051,202.7677272498289L170.12198464030797,208.37659368648303L172.2072210484978,211.74647325487507L172.33842693485576,218.3612980489626L173.18189334715728,224.46447434849333L173.5848828552569,230.42236589606586L174.78447953053012,234.11582071523333L176.2136865069299,236.16909099070472L177.4179691067159,238.05522060412855L177.4460846537926,240.0916297131743L177.74598382261095,242.44627827821748L177.9381067276352,245.57658653789082L178.10211408558268,247.65290323598182L178.37389770732426,249.41557845293553L178.48635989563115,252.13535237002606L180.2482675124387,250.79581348279612L180.7168599637173,251.304280422247L180.89961101971596,252.66047632499965L181.06830430217624,254.35862735127444L181.21825388658544,256.24694212023815L182.87238523959894,255.14503802597756L183.06450814462318,257.45168659689733L183.45812580369716,258.26589094274925L183.725223500926,261.32336018516696L183.83299976472006,263.0222897767154L183.98294934912926,261.68682895573653L184.12352708451283,263.23477142181815L184.51714474358687,264.645128560886L184.78892836532845,263.9542173258322L185.11694308122344,263.9118174281099L186.30716790747113,266.39864529607337L186.64924039690453,266.7548654328372L187.24435281002837,269.505390217335L187.5348801298211,269.72448020803415L189.0156322758615,268.90574385090224L189.4607951045762,267.8988748038507L192.74562818803923,265.2364652081991L192.97055256465293,263.3045442522493L193.72030048669873,262.8070773080247L193.94991078782525,262.49340580095475L195.2525978023798,263.82374617028125L195.45877848094239,265.850263378081L195.8242805929397,264.31909504558837L197.83454220892494,266.8036215065868L199.7042260895266,269.51575629233247L200.09784374860058,269.5178829416509L200.72575763331395,271.3111579349012L200.85696351967195,274.63709031366767L201.28806857484827,276.78012362703595L201.31149819741222,274.6973138184229L202.03781649689407,272.31792461567375L202.258054948995,273.9918424351067L202.82973773955493,274.7626629273923L203.18118207801388,275.8870559892837L203.8465833588295,276.4182740413095L204.207399546314,275.40102662341485L205.98805086117272,276.16129386065796L206.45664331245135,274.87999691635673L206.95335131080668,274.0844671279574L207.0142683294729,273.19166990259583L207.95613915654292,273.2417653596222L207.9795687791068,272.50243541443996L209.39003205745544,271.71213383473724L210.50996801601133,272.1507918694481L213.46678638357932,272.55132412427L216.24553961966149,272.09338358461935L216.39548920407063,273.15193713230786L216.47514992078803,269.8888968312516L216.58761210909486,270.0452267080004L216.7750490896063,272.22196650622146L222.2763244676172,272.97537563154486L222.31381186371948,271.25482899447184L222.3512992598218,268.67559905218314L223.60712702924846,266.62467925883095L223.9632572922202,268.4093960206438L225.26594430677474,267.2594961696872L225.29405985385145,265.9944486647407L225.43463758923502,267.54025227156575L226.90601788624986,268.09207756964844L227.37461033752845,265.49464527105164L227.89006203393495,263.29576234771923L228.16184565567653,265.72526167375594L228.74290029526202,264.923907525447L228.9537668983374,268.18310768110194L229.2864675387452,266.8250229690616L230.33611462960928,268.34506607212444L231.07649070262948,260.5643271742511L233.97707797604406,263.44388758312385L234.10828386240212,264.3424962945603L235.02203914239539,260.08927234160757L235.6171515555192,261.0884740096568L235.93579442238868,263.2194389807802L236.01076921459324,259.8192177936299L236.37158540207776,257.4504182919923L237.01824298484226,259.4331904432915L237.22442366340488,255.0945208330234L238.93478611057176,260.40728484776434L240.74823889701997,264.1447712509389L241.2121454237858,265.6046121040707L243.7425446606903,269.3068069544516L245.47165080590838,270.75172101016653L245.6356581638559,272.67868014902143L247.04143551769172,272.37659403516244L247.48191242189364,275.6357413173208L251.5961541441198,274.4862410983068L252.02257327478335,272.96313411581156L253.18936847846706,269.70020044971665L253.3768054589785,271.3730869862247L253.70482017487356,271.62146965097924L254.22027187128003,273.965783272428L254.46862587045766,274.2217787700923L255.0356227365048,275.1998697932071L256.5913496747498,271.55377483124363L257.55196419987095,272.2566699501404L258.86402306345104,275.74018733534757L260.9633172451792,276.4335373055294L262.22383093911867,280.52126691152006L262.4440693912196,284.64747630596617L263.0204381062923,288.8655074175081L263.948251159824,291.021807418478L264.0185400275157,292.5534703822524L265.3259129665831,297.53514309649574L267.59390043077155,300.24851845950775L267.7860233357958,302.3701656825595L268.0718647310757,306.72495503863956L268.59668827650773,307.1467910784941L269.04653702973525,304.3703217528309L272.2891967925832,305.35178642483083L273.1232913558591,308.13583452887906L273.17952245001254,307.4203321089177L274.70713384118085,309.910363469351L275.55060025348234,311.1769347058614L275.90204459194126,309.8519834636069L276.15977044014454,312.0174358264402L276.2347452323491,311.6985414842074L276.42686813737333,314.179173850562L277.14850051234237,313.06965776650287L277.34999526639217,314.2458390117906L278.1981476032065,311.1770629196209L278.3152957160261,312.7595423430577L279.3461991088391,311.0329123321774L281.23462668749187,311.04953886675725L282.2467863822537,309.6695231864158L282.4342233627651,312.3282845191099L282.4717107588674,309.6334032521554L284.3882538845969,311.03801142112457L284.54757531803165,311.73760291772817L285.7190564462282,313.0068813668338L286.92802497052696,312.73511607041064L287.0920323284745,311.34775277426115L287.1998085922686,309.8704520310129L287.3778737237545,309.6452416696305L291.11255556044495,308.2202999173807L291.17347257911115,308.4673576454204L293.3055682324288,309.3318043809306L293.9100524945783,309.0958948331093L295.2830283768246,308.0675816454429L295.76099267712874,307.72278918259565L296.0468340724087,306.0385551515885L298.85838878008036,303.33650195993505L301.1404340178072,302.0959094442464L301.21540881001175,302.3914493067208L302.0260737507238,301.55294922589565L302.3868899382083,301.41909997491473L303.6052303115327,300.64447079710965L303.9519887254788,298.2011947012396L304.66893517593513,297.20336166383373L305.64829339910744,293.9958235497413L305.8123007570549,293.05738396685615L308.4036170126256,290.3581963795401L309.30800044359336,288.71377428995L310.2311275726122,288.9450018866597L310.2873586667656,289.46557781668156L310.7231496464547,286.1168024555914L311.0464784378369,285.75722418086684L311.11208138101597,283.9702809808442L311.28546058798906,279.89616968455806L311.5947316058329,279.8618411207453L313.90020646612373,276.28748710404943L314.25165080458265,274.25792953594106L315.1326046129864,272.7603868425591L317.23658471922744,272.72315233197594L317.2412706437402,269.6601434185093L317.3396750585087,266.50686150399986L317.7098630950188,264.9665550169853L319.1999870900848,262.589844147604L319.35930852351953,262.9195217462782L320.23089048289773,259.870572237047L322.8690659835963,259.85367141929254L323.45012062318176,259.59294052802244L325.31511857927063,257.1518783991386L325.9055450678817,255.4268156968137L325.9664620865479,253.85931629907907L326.35539382110915,253.59212553145144L326.7490114801832,253.3371105316351L327.3300661197686,250.20565679050242L327.69088230725316,248.75485099113743L329.2138077739087,247.90473165893886L329.82766388508367,247.62090502599455L331.23812716343224,246.41866900511548L331.70203369019805,246.08436341758036L331.9972469345036,245.98419961460752L334.0215663240272,246.46803572085264L334.2277470025898,244.29991874187346L334.7853720196113,241.9641531188508L336.3317271088307,242.15443210517938L336.6784855227769,241.62521544171238L338.17798136686844,239.34113310655215L338.62783012009595,238.14886798431584L339.50409800398694,238.65684203675218L339.93988898367604,238.761983889305L340.2444740770071,238.24435379412319L342.49840376765724,236.94173219340274L344.738275684769,236.9776375675304L344.86948157112704,237.3260287284421L345.1787525889709,236.65987011282866L345.7129479834285,236.99585981325254L345.98941752968284,237.9257213448332L346.87505726259946,238.10828723887548L346.93597428126566,238.50726879144514L346.96408982834237,238.5603049824496L347.10935348823875,236.50625282397965L348.1168272584878,236.74615769176185L355.2206888198715,234.09115744882462L357.08568677596037,233.12493955745953L357.8963517166723,231.45317203164117L357.9150954147235,229.07040460371215L357.99007020692807,226.15281585412262L358.1259620177989,225.91035696110495L358.43523303564274,225.06316354506646L359.02565952425385,224.77528946637833L360.5298412928581,224.3753925346123L362.2823770606401,224.42118033240615L363.1727027180695,224.6684218668266L363.4444863398111,223.65354876231845L364.09114392257555,222.10970174792652L364.6768844866738,219.99839947620117L365.2626250507721,216.38349314474624L365.64687086082057,215.20334091250635L367.7461650425487,213.4475045315391L368.44436779495385,212.1946290462851L369.2362890376147,211.88060780764903L370.49680273155417,211.61804292200472L372.88193830856227,211.16472489058333L374.6532177743954,208.12521866335186L374.9250013961371,206.2059921606903L380.07951836020175,204.26200149628528L380.70274632040224,201.05910477067238L380.73086186747895,201.2408418687437L380.8948692254265,197.69226080567833L381.09167805496355,198.1801536181407L382.1038377497253,197.3547266688214L382.2631591831601,197.0593851190607L382.680206464798,193.11269623787638L382.7364375589515,192.98748950287086L382.90044491689895,188.14564161963315L384.15158676181284,187.03054724209247L385.56205004016147,187.12601821415404L386.1009313591319,186.2875009960851L386.90691037533105,186.45494036976558L388.6360165205491,186.38104740203897L390.59473296689373,187.0183441875371L392.5487634887255,186.68566284039744L393.17667737343885,184.63528730615084L393.99202823866364,185.26890933916917L395.45872261116574,185.9428121833454L395.78205140254795,186.5163914846219L396.8082688708481,186.75107147506915L397.4268109065358,184.1206744209722L397.83448633914827,180.12238273103074L398.0359810931981,176.17811391207775L398.45302837483604,172.85077290164227L399.6901124462115,173.97580256571683L401.1380631206624,172.9293288103117L402.0283887780918,172.80544502367994L404.1417407333583,171.6429316461793L404.26826069520354,169.0002831058013L404.7696546180717,167.85016814150137L406.39098449949563,169.17420825948668L406.5737355554943,168.62556747250173L408.6683438127097,169.74980637848813L408.88389634029784,169.8510216068037L409.9429152801875,171.76674666255795L411.00662014458993,172.62295288944853L411.04410754069227,173.1689102825272L412.0281516883773,173.38024507126724L412.2155886688888,173.23465532643257L413.19963281657385,171.13480707705224L414.0993303230288,167.72771628623016L416.10490601450124,167.7204398374814L416.42354888137066,166.79040100909742L418.5228430630989,166.39107523563158L419.83021600216614,166.90708699814886L420.5377906035969,167.24695485547107L423.00727282183516,165.3467588482548L425.06907960746105,165.6447898071509L426.6810376398595,163.45983609930946L427.44015741093085,163.2597825255623L427.84314691903046,162.51844295803082L428.1336742388232,163.1482119171459L429.5019641965567,163.68314096855676L429.69877302609376,164.10635905688923L431.7324642646429,164.24093560838563L432.4259810925352,165.0549822972969L435.23753580020684,164.50357312474736L435.49057572389734,164.50334528444796L435.7951608172284,164.65188645472844L436.81669236101584,164.49151932275402L437.688274320394,163.27334307394392L439.6001315216107,159.7342243868975L441.4510717041612,157.87424828000238L441.61039313759596,154.70838520249208L443.470705169172,153.4917499492297L443.9018102243483,154.18532318473257L444.0330161107064,151.36425249780243L445.1529520692622,149.0826227955482L445.33101720074814,148.86744464386513L445.8886422177697,145.67445829652297L445.96830293448704,143.36151639096445L446.319747272946,144.0344456896358L446.42752353674007,145.08559147727522L446.57278719663645,145.0370092372437L447.71146685324345,142.84740071725724L447.77706979642244,143.40975176908637L448.0019941730362,136.32984118574194L449.6889269976392,133.07176332832L449.74515809179263,132.97696157809347L449.82013288399725,132.6290651458818L450.11066020378996,132.40789078116907L452.6363735161816,133.19816969446777L453.7141361541224,133.72683652030827L453.7703672482759,133.65559405806036L455.22768977175235,133.98924617921762L455.52758894057064,134.8940568849553L455.97743769379815,135.460838305719L456.88650704927863,132.1961599463375L458.0579881774751,132.45045613034176L458.1423348187053,130.80812807566568L458.7561909298803,131.09379538018922L458.9061405142894,131.99644748295108L459.87612688843615,131.412881871906L461.00074877150485,131.74026630334816L461.78798408965287,132.14588212109203L462.8470030295425,132.5687687203555L463.1703318209248,132.35489622513037L463.6904694418441,131.4436561483936L463.8544767997916,130.07165064833902L466.29115754644033,129.27249983215304L467.06433509105,129.45677934046316L468.1327258799653,128.08214156084966L468.1561555025292,128.15383584917404L469.47758621513486,125.99641291176506L469.83371647810657,125.8137768913907L469.8665179496961,126.85940375103212L470.4428866647688,124.73853131255382L470.80838877676615,125.73996310465628L471.0286272288671,124.61512641878215L471.2629234545064,124.15505017669722L473.31535839110666,125.12292447955917L476.10348347621436,125.07117999425299L477.32650977405154,125.23576494457737L480.01623044439077,123.74333169156607L480.39110440541367,124.19645420043545L480.5691695368996,122.82235257592536L481.5578996090974,122.71275356530562L482.08272315452945,121.48487249323537L483.3619805465201,117.44521410811831L483.7227967340046,114.89276293784764L483.75559820559414,112.21916009193929L484.28979360005167,112.94967981455996L485.0207978240463,112.48127224162805L487.6636592492577,113.08196054072536L488.8304544529414,110.35164441326164L489.322476526784,112.42389901097232L489.49116980924424,113.31548054520078L489.76763935549866,113.5191265916155L490.87820346502895,112.82045902522064L491.13592931323217,111.79257612917101L491.45457218010165,111.15548534950479L494.5191668114638,111.7266230083284L495.98117525945304,111.16947504524063L497.208887481803,111.40809052421932L498.2351049501031,108.78649389189701L500.7936197340843,109.30061371348319L501.03260188423644,110.50733057018209L501.9557290132553,110.53901232339905L502.63050214309646,110.64682358557657L503.2818456503738,109.65324055010373L503.93787508216377,109.03546731726222L504.5142437972365,109.7695391785608L504.84694443764437,109.13251763046807L504.9031755317978,108.8152198597763L505.6294938312796,107.37711061338435L507.83187835228904,107.98094829939538L508.3848174447979,106.52755259443838L508.6284855194627,105.18739931187771L510.1467250616054,105.66581250143098L511.60404758508184,105.37046750877033L514.4530896888558,105.86517464795774L514.5468081791115,106.16155560101633L519.8044154824576,106.3243084728623L520.3011234808129,105.39279573987055L523.8671120350431,105.93846247463745L525.1135679554442,105.79253622992331L527.1191436469167,104.31278238493056L527.8126604748089,104.40605274340972L530.0197309203312,105.09665583212565L530.5304966922249,105.35280241379883L530.9288002758117,106.94951035799991L531.163096501451,107.87572861961897L532.2970902335453,109.44251468898403L534.8321753949625,110.43206496995515L535.0008686774229,110.77889783165213L536.2613823713623,111.87229228292176L537.6343582536086,113.56475758388741L538.5012542884741,114.56905226579046L539.3400347762628,115.87137410461429L541.3924697128631,116.06679941717539L542.2359361251646,117.19354814900235L542.3249686909074,116.0174067481923L543.4355328004378,117.52752314843742L544.4148910236102,118.66905764058252L544.5414109854554,119.09023673203399L544.7522775885308,119.80936852904134L546.542300752415,121.22579954687437L548.2620350486076,123.9027535983584L548.7587430469628,123.28950273503936L549.2976243659332,124.23736015461667L550.178578174337,126.22524436568769L550.7736905874609,127.08503856082763L552.3341034502187,127.87263720377977L553.6227326912348,127.36702893213723L557.9384691675108,127.18694869879434L559.3020732007315,130.05836796511826L559.7566078784719,130.57342318293882L559.9018715383681,133.72349477220683L561.7996709660465,137.0611762991126L562.8727476794745,140.2455674321833L562.9477224716791,142.9008548008227L563.3132245836764,144.1939091226179L563.7490155633656,146.57450790634016L565.7499053303252,148.78782308008118L567.2353434008784,151.96326662161948L567.7648528708232,152.09353438761775L568.4349400761516,155.1920406579083L569.3440094316321,158.1374299079106L569.653280449476,157.7492084273657L569.6579663739888,160.47698355906638L569.7141974681423,161.90765941095916L571.9868708568434,164.94216164787204L572.3242574217641,167.9955462286317L574.8171692625664,169.53823779756829L576.5041020871693,170.2071649066867L576.7102827657319,170.8535007408568L576.7477701618342,169.1116285351575L577.8630201958772,172.15406587582177L577.9005075919796,172.75400902594873L578.612768117923,174.6474332171098L580.0466610188356,174.13931308861606L581.9304026729756,176.67866845657656L582.9191327451734,177.51799170952688L583.6360791956297,179.026627063286L585.7494311508963,180.909733828043L586.171164357047,180.16405011802487L587.9049564267779,182.45014826772552L591.3491109436757,185.2967160177745L591.9629670548507,187.16797250834065L596.1193820976919,187.4217769388093L599.6057099352048,187.5066888450573L601.5081952873959,187.75026206723913L601.5878560041133,187.41076009719532L601.8502677768292,188.81498475989653L602.8671133961038,187.57061769928112L603.2373014326139,188.70295839519648L607.0797595330986,186.2808336781384L607.6373845501201,185.8726618788943L607.9747711150408,186.98057711179757L609.0384759794432,184.80175063016836L609.6851335622076,186.4699476907365L610.3317911449722,187.98925942941557L611.1096546140947,188.93283909352274L611.4610989525536,189.04460369280045L612.1171283843437,188.62847331906855L612.9887103437218,186.52938604594897L613.6494257000247,187.0161259149193L616.0814205221607,187.02922778493163L616.1048501447245,187.8070801229897L616.4844100302603,186.66754288687451L617.7121222526102,185.72184476884155L619.1038418329077,186.40492987517624L619.7926727362873,186.84296708690715L621.1187893734058,187.05965008909442L621.9107106160666,188.0964340696102L622.3933608408835,188.3066905993842L623.3867768375942,189.21919893172097L624.309903966613,188.55332319519925L626.2920500355216,189.23618987712845L626.3248515071111,189.35740508917257L626.6341225249549,189.51546548791765L626.8637328260814,190.1559372752724L629.2301247050384,190.16627585837085L629.7455764014449,187.91799643859494L630.7811657187706,188.3475434722405L631.8401846586603,187.12680034225937L632.1775712235809,186.56777408360958L632.2572319402983,186.4723248704079L632.7679977121919,186.3068961668072L633.1241279751637,185.53947274623792L635.0547288744315,185.80852342153528L635.6685849856066,185.45403056438317L635.7716753248878,185.3102043112995L636.3246144173966,183.67502683698171L638.2927027127668,184.09709498324764L638.6019737306107,182.42764689262307L639.0658802573764,182.83805930449375L639.1174254270171,180.95260339209798L639.3001764830158,179.91529453095959L640.1248991972661,179.3540515184173L641.6853120600239,179.48527785296514L642.4210022085313,178.1261021422184L642.6927858302729,179.17474748433483L642.8239917166309,178.44725625195866L643.2176093757049,178.0441601638346L648.7844876968949,177.60370025621765L649.0843868657131,177.14479225154238L650.466734596985,176.8317603298717L652.4113932697912,175.49498254401323L652.9362168152234,172.95401349088937L653.0393071545045,172.4354595651255L654.7074962810565,170.65490330865322L655.1573450342839,167.87250933530868L657.3644154798062,165.61338075120673L657.5612243093432,163.96177236092302L658.7420772865653,164.0514361659371L658.9670016631791,164.11338965765697L659.1075793985626,163.68071164339315L660.3493493944509,162.5514181585204L662.0128525964899,162.4387119068917L663.7232150436569,162.18457724170844L664.1683778723716,162.09202265943154L664.2855259851913,160.70027470410145L664.6791436442653,160.19850326273072L664.749432511957,157.7937190882804L665.2461405103123,154.99581217869175L665.2508264348252,155.5270179467952L666.6331741660971,153.59874323226683L669.0042519695668,154.1785636490353L672.2750272794915,154.3412693753361L672.5140094296436,153.6773618673068L673.2590714271767,152.99535327130647L673.3059306723044,151.8896582468327L674.2665451974256,149.67260263022104L675.1615567793677,148.80511923627927L675.4145967030582,148.78197217021489L675.4895714952628,149.1722613417728L677.9215663173987,146.1211224678138L677.9403100154499,143.81624803594775L678.244895108781,141.9064070257757L679.2148814829277,140.61228336520637L679.3460873692857,141.33842504801086L681.6703059276276,138.46429815235706L681.6749918521405,139.27596841439762L682.1201546808551,138.42217332723888L682.8324152067986,137.0384682621712L683.7133690152024,137.91173272478167L683.7321127132535,138.47925471822552L686.351544515901,136.94497026514733L686.810765118154,134.95480202795414L689.1959006951621,135.51165179355226L692.1714627607813,136.0070105384272L692.9961854750317,135.28871062590525L693.3570016625162,135.22767042861759L695.1048515057854,134.83156422042126L695.9389460690613,133.88985641148406L697.3681530454611,132.81283006234995L700.9763149203063,132.24915440205558L701.2902718626631,131.99689498815547L702.0728212562983,128.1104471112278L704.2142887586416,127.9898633874775L704.3314368714612,126.40527775256818L704.9640366806873,125.72256755643811L707.0352153153387,124.1560612332L707.4663203705152,120.43350457596968L708.9470725165555,118.68289513103889L711.215059980744,119.1050163745643L711.8148583183806,114.38791090206543L712.0725841665839,114.53697541215467L713.2862386153954,113.98324385110764L715.0528321567157,113.30855343968224L715.8588111729149,112.09688082715672L718.2954919195638,111.89421614827621L719.1061568602759,110.5066086270587L719.2607923691977,103.88153305018213L721.2288806645679,103.37792715128899L723.4968681287563,103.4204254648716L723.6187021660888,103.44090098582869L725.277519443615,101.89798294425897L726.8191886083217,98.81781267949233L727.9156949443137,99.1860049029889L728.4405184897457,97.0941702864528L731.1442969336232,95.43177887689156L731.8143841389516,94.47936643097631L732.4563557972033,92.12744382772959L734.522848507342,92.09208218462291L735.3381993725667,90.61344372225965L739.2696900387942,91.0506993448056L739.4055818496652,89.8263240793859L740.2724778845305,89.08898626775634L740.4974022611442,88.05314036221077L740.87696214668,88.07878860522749L741.4814464088294,88.42555143575524L743.1824370069706,89.10825245842321L743.2761554972265,89.01723359300439L743.2948991952776,87.75582160070928L743.3933036100461,85.43457794575791L744.2883151919883,84.85150584094235L744.9115431521889,84.5843441585004L746.0080494881807,85.02331685328039L747.9480222364742,83.58939814565773L749.3866010618996,83.04438855822129L749.5552943443598,83.05013144930851L749.6724424571794,82.7841962152001L751.2281693954244,83.17077875797759L752.0528921096748,83.7383135083985L752.1981557695711,84.50156241982049L753.824171575508,84.8544783709215L755.5485917962133,84.48321802845888L755.923465757236,84.6542448589434L756.4061159820532,85.05419851391295L756.6591559057435,84.95005026559893L758.9646307660344,83.38976738530877L760.4547547611003,83.67256034755795L761.4294270597597,81.26969470728707L763.5287212414879,81.88260326471777L764.6392853510182,81.52845318462938L769.0065669969349,81.60052568880587L769.728199371904,80.57175600168755L769.9859252201072,78.17258030411064L770.1405607290291,77.32311440228108L770.4404598978475,77.46973363422742L770.6934998215379,77.7856484314644L770.7544168402042,76.89884181318276L771.7572046859403,77.29352900700022L777.1881911962595,77.41947724690145L778.2284664380979,74.61879899640519L779.2406261328597,74.24918682824534L779.6389297164465,75.43653412247147L781.4289528803309,73.21899985637835L781.9162890296606,73.25699038150597L783.593850005238,73.50407412548456L783.8937491740563,73.50900943221032L784.3717134743606,73.45645626954455L784.624753398051,71.62379824366533L784.7184718883068,70.44369183357028L784.9996273590738,70.9254028001761L786.049274449938,72.0085788383303L788.0689079149487,72.28854962486417L789.0529520626337,73.31855258977974L789.0951253832488,73.46936771192227L792.5955109943002,71.48548781255106L793.9497431784952,72.05765219497782L794.1090646119301,71.54070634672617L794.5073681955168,71.645932725004L794.9947043448466,72.10691501429397L795.0415635899745,72.22643870218104L795.182141325358,72.14849624450905L795.6179323050471,72.50588271448052L796.409853547708,72.36661786688087L797.4173273179571,72.17480776138214L799.5072496506596,72.89418307927845L799.5494229712747,71.58961045158581L800.0742465167067,72.14013842027683L800.3272864403971,72.19432312000073L801.095778060494,72.48409176863886L801.2035543242882,71.93256959130784L801.5362549646959,69.86660767745717L804.9054346893892,68.32747169770728L805.1209872169773,67.25520530160995L805.6973559320501,66.29445086571967L807.8809967550084,65.48980184354436L807.9419137736746,65.6349953461423L808.9962467890514,66.52326532927306L809.6569621453543,66.16989146021463L811.615678591699,66.65939001478843L813.255752171174,66.341912547711L814.7693057888039,66.51460424796399L815.6783751442844,66.59613747603152L815.6830610687972,65.03157454870413L815.8330106532063,66.28259940815444L820.4486462983006,67.12835245859227L820.945354296656,67.46317569601338L821.5076652381904,68.10087869967616L822.3230161034151,67.28244480677641L822.7822367056682,67.45335048185623L823.7662808533532,67.47004283192757L825.415726281854,66.42709066842933L825.6172210359038,66.39831041747102L834.4689324405566,66.07586142167284L834.637625723017,65.43842299345498L836.0949482464933,64.21692739020695L836.2636415289537,63.79638811182581L839.8952330263629,63.55063249210351L839.8999189508758,62.2698519747974L840.7761868347667,61.836546375751084L844.5296123695084,61.07181064099897L844.8716848589418,59.8986965217342L845.284046216067,60.027405339693466L845.2981039896054,57.79015137139129L846.2118592695987,57.379927451222336L847.233390813386,56.71040595962194L847.2474485869243,56.99476738619076L847.5660914537939,57.03601720143786L848.7797459026053,54.29215211356652L849.1733635616795,52.574110460739796L849.7919055973672,53.397889233469684L850.1292921622877,53.82870517370585L850.4479350291573,54.33710819821508L850.5229098213618,53.721952127922165L850.9352711784869,52.37387882690991L851.0758489138707,52.27767457014612L853.2032586426755,52.2754461662375L853.4891000379555,51.36957203368985L854.0186095079004,49.94488925735642L854.6184078455369,48.45287710240122L855.1151158438922,49.309063525644966L855.5321631255301,49.10944810644913L856.0429288974238,50.0842753695313L858.5217829646876,50.25788269870369L859.9744195636514,50.035986118261L861.4551717096919,50.34834293217468L862.3408114426084,51.32876174744896L862.7812883468102,51.875130404100325L862.9968408743983,51.52370072498389L863.1983356284481,49.942949795467044L863.4513755521385,48.980728176856935L868.3013074228722,50.13895474572677L869.9460669268601,48.21323515475071L869.9554387758858,47.98473607632692L871.328414658132,49.39000966095171L871.8719819016153,50.786697974159665L873.1699829916571,51.84160173026041L875.5785481912291,52.91144114907076L876.6000797350164,54.33794457693222L879.9786313087352,55.070396840271954L880.6768340611403,53.802625929249444L881.7499107745683,54.89603826472434L883.8679486543476,52.620282972032804L885.2502963856197,54.25550037169018L886.3093153255093,55.740425558839576L886.5108100795591,56.51529386459605L886.9559729082737,56.04245611306729L887.4620527556547,57.16699150915532L889.4395129000503,58.23979891890692L890.4938459154273,59.16757753200948L892.251067607722,58.8792702099819L893.8302241685309,60.12682930905247L893.9145708097611,60.97352571868822L895.1235393340598,62.221235977843875L895.9810635198997,62.544814105853646L896.107583481745,60.64369216813462L900.4280058825337,60.55439726310446L900.7700783719672,60.570903137680915L900.9809449750425,61.605762926213266L901.0465479182214,61.07058930349589L901.14495233299,60.38751299037958L901.5245122185256,59.30453670731572L902.1571120277519,58.93289213047071L903.797185607227,57.96356473503144L904.804659377476,59.26338823402797L905.7137287329565,59.0712724460579L907.128877935818,59.4674148405036L908.0192035932472,60.535089928208166L908.2394420453481,59.82358231825289L909.3968654000063,59.388104200844644L910.4839998869727,60.2536361965138L911.3696396198893,61.479197519952784L911.7304558073738,62.204069512748035L913.2065220289014,63.347600718277114L913.4642478771046,63.57384099825631L914.4998371944304,62.74732782955357L916.4679254898006,62.11549549133798L918.9608373306028,62.67873105511762L919.6730978565462,62.10311171716513L919.7387007997253,62.78186159926111L920.6196546081289,62.70118723045174L920.8024056641276,61.73298656974684L920.8539508337684,60.316583020505234L921.1116766819715,60.418938489990936L921.7021031705826,59.40175645079745L923.6467618433888,59.693811880898835L924.4058816144601,60.1508458388082L926.247449947985,60.04998182353769L927.1893207750552,60.328481144554104L927.3345844349515,56.52263931579659L927.5313932644884,57.66812633741218L928.1171338285867,58.54489729351718L929.3917052960645,59.3002983535102L930.2164280103149,59.2960348017093L930.25860133093,60.2231423680838L932.4984732480417,59.22932935071526L933.4262863015734,54.664069967245894L933.6043514330593,56.06328143572246L933.8105321116219,55.21979002521833L934.0682579598252,56.040695293813116L935.1179050506892,55.069379556458415L935.2256813144833,55.906542845790035L935.7270752373514,55.88724922844297L936.2940721033985,56.37969384453749L937.2500007040068,54.53989328555605L937.4702391561077,55.23122466585016L938.543315869536,54.574008088337955L938.8619587364053,53.963349562305936L939.0540816414295,54.090811088484706L939.2883778670689,53.85303625261025L940.2583642412155,53.055969446463166L941.76254600982,53.66587826527824L942.6247561201725,54.762871238085914L943.8290387199585,55.6597172255455L945.351964186614,55.18097029893217L945.6378055818939,54.867004612247996L945.9470765997379,53.8680100026666L948.6742846661793,54.26848016167045L949.1194474948941,52.25499821844847L951.2796586952885,52.90282493437329L951.748251146567,51.957059621967424L951.7623089201054,53.22149838340544L952.1324969566155,54.59718845461735L952.7088656716883,54.777172597708386L953.8944045734231,53.68325104150404L954.1755600441902,54.02569611666281L954.7003835896223,54.088506353488874L956.504464527045,53.1836551166773L957.0808332421176,50.82220653300087L957.5213101463195,52.37245786176745L960.9654646632173,51.343115255441624L961.7526999813654,50.68625007359888L961.8651621696723,51.985713885075945L962.6289678652564,49.798932945171565L963.9316548798108,49.21815789209139L964.9063271784704,49.203551583460694L967.1743146426588,50.73618523056775L971.0355164411947,49.81395897510886L971.2932422893979,49.77167044015395L971.3307296855002,51.18629650531175L971.6259429298055,53.05324207990855L972.2023116448784,54.13735319867522L972.6240448510291,53.36096460725393L973.5003127349202,50.685810910455196L973.70180748897,53.36879265422237L974.1750858647613,53.97701893517077L974.2219451098891,56.055020883102294L974.7467686553213,57.24498949765681L976.2415785749,56.429968076197895L976.6164525359228,55.04212632802542L977.3333989863792,57.410050645066804L978.5095660390884,58.4572878992476L979.2733717346725,59.98898781709047L979.9715744870778,61.53491847988921L980.9837341818394,63.23754899074708L983.0924002125932,63.660527069748206L983.3782416078732,65.09625100402594L984.6153256792488,66.98339253642614L984.7324737920684,69.1667470457883L986.9067427660011,69.63477745088841L987.7548951028155,71.24006586488836L988.837343665269,70.5560563645848L989.0013510232166,71.74435967228952L989.0388384193188,72.2784319716989L989.6995537756217,76.2386144181263L990.5242764898719,77.40664499228797L994.1652398363068,80.58644187418109L996.6815812996729,81.3172563832912L997.4407010707442,83.18185040735437L997.7265424660242,84.70187350009286L998.279481558533,84.43515204372396L999.5634248750364,85.21408392965715L1000.9692022288722,85.47975142342274L1002.5671024877322,86.70881342955494L1004.8397758764335,87.0100798233228L1006.6016834932411,90.4689646340389L1006.9765574542639,92.16275090374262L1008.026204545128,94.84268869273386L1008.227699299178,97.85961548349051L1009.2539167674781,101.67468848877665L1009.5959892569115,102.25437725734157L1011.400070194334,101.11517391698342L1012.0748433241753,104.52019975594348L1012.3700565684808,107.40067077182165L1012.7824179256058,110.23296309930555L1013.6446280359586,111.51629780300394L1013.6821154320609,113.63749014819439L1013.8695524125724,116.11108507294507L1014.2631700716463,117.14044201637515L1015.6455178029183,117.87748889154793L1016.00164806589,119.43912718085656L1016.8498004027043,123.20432525498981L1017.665151267929,123.22644228136474L1020.6172837109843,122.80394182718358L1020.8750095591876,125.07186527996181L1022.4447942709709,126.03151691259421L1022.8056104584554,124.66142697799792L1025.6499666377165,124.0786126027206L1025.903006561407,126.45125447624184L1028.0866473843653,127.46785602638266L1028.9535434192308,129.09601887864952L1029.7220350393277,130.90731207766012L1031.2496464304959,133.29868505021037L1031.35742269429,134.8711273107836L1032.0649972957208,134.49458649032513L1032.1118565408485,136.97256295175438L1032.716340802998,135.27650274326516L1034.3189269863708,134.75264658371918L1034.4641906462673,135.4696015573318L1036.3573041494328,137.95866500985957L1036.4744522622525,137.93228550455672L1038.0676665965998,137.56636303061754L1039.1266855364893,135.05817214112218L1039.393783233718,135.85623091503928L1040.4340584755566,136.29148623981766L1041.0526005112445,138.4367414953706L1041.694572169496,138.62919647855512L1041.7039440185217,137.03837241094357L1042.402146770927,137.69266170133264L1043.8079241247626,137.42266637348533L1043.9391300111208,138.06376580148523L1044.0797077465043,139.1254648981476L1044.8716289891652,138.9692610571862L1044.9044304607546,138.21826233561572L1046.8631469070992,139.02029320227476L1047.4770030182742,141.23779259821146L1048.4797908640105,143.94138437259744L1048.770318183803,144.68077535519672L1050.7758938752756,143.49616209773515L1050.9117856861465,142.19982927877456L1051.2304285530158,142.88385834138074L1052.0270357201896,144.9297042891053L1052.0692090408047,147.0963227490647L1052.6455777558772,142.8448925381133L1052.9735924717722,145.97913311728408L1053.5077878662298,147.34517574570282L1053.770199638946,144.95799553979262L1054.8057889562717,146.67578654170944L1055.3071828791399,145.1967695808815L1057.889127285685,146.30260597536974L1058.0671924171709,146.06209037553467L1059.969677769362,148.4993551319963L1060.6303931256648,147.71554868819595L1061.6894120655543,145.17779543061755L1062.4719614591897,145.10070230552404L1064.2057535289207,144.69790926831314L1064.4400497545598,146.21077465295272L1065.4803249963984,148.10819808387907L1066.3331632577253,148.98082291118735L1066.759582388389,148.76902091313192L1067.9966664597646,146.39380510562626L1071.0425173930755,145.0899672107036L1072.5185836146031,146.3464652271522L1072.5748147087565,147.1946017968051L1072.9543745942922,147.19320974240378L1073.0059197639328,146.77883551402908L1073.3573641023918,147.20868507122066L1073.6291477241334,147.6021722865917L1074.5429030041266,147.88467919236012" style="fill: none;" fill="none"></path></g></g></g></g><g opacity="0.2"><g><g><g><path style="fill: none;" stroke="rgb(51, 187, 238)" stroke-width="2px" d="M138.50605195254016,20.01971501951557L139.5416412698659,24.449726156550746L139.96806040052942,24.499970812285714L140.44602470083362,43.13058272260032L141.13016967970037,45.45554985065433L142.1704449215389,68.74033385791185L142.66715291989422,91.4193950608515L144.1947643110625,89.71369298216123L144.43843238572737,100.02659591945798L146.45337992622538,114.72675169365127L146.5470984164811,117.16118086822769L149.09155542692395,137.90291616471993L149.98188108435332,153.02545340898465L150.09434327266018,153.6173923008189L151.8093916443399,121.3971897974543L152.5497677173601,165.38327969085512L152.66222990566695,146.48556893276518L154.07269318401558,196.60663283607326L156.67338128861186,219.06414486113925L156.954536759379,207.63097810462332L158.7492458477761,228.51189610822075L161.21404214150158,226.75172351933298L161.66857681924185,250.63055934565602L162.0200211577008,189.75881526720005L162.17465666662272,251.46109716395634L162.48861360897942,240.53471367587557L162.9197186641557,205.74380816861256L163.91782058537916,251.41852822078664L164.69099812998888,241.8379618710157L164.8503195634236,212.83646810895016L165.389200882394,231.33464272980308L165.46417567459858,247.5479825372017L165.7265874473146,228.4536476043169L166.78560638720427,213.12343599709288L167.0433322354075,189.261202058606L168.1445244959122,248.4204152904049L168.8989583424708,253.832453354403L169.4612692840051,274.92793656863535L170.12198464030797,299.7701607900675L172.2072210484978,267.1127752403502L172.33842693485576,327.8913465444435L173.18189334715728,326.2676251554742L173.5848828552569,330.4931248768558L174.78447953053012,296.5592918291356L176.2136865069299,271.0976717475247L177.4179691067159,270.3280962032553L177.4460846537926,275.12825892036807L177.74598382261095,283.1695677592423L177.9381067276352,299.98167522644195L178.10211408558268,283.90767775968544L178.37389770732426,280.32945655625866L178.48635989563115,300.0336802853476L180.2482675124387,227.1119809379661L180.7168599637173,260.32781781089085L180.89961101971596,276.8132795875017L181.06830430217624,284.70249313984255L181.21825388658544,290.09560576118986L182.87238523959894,235.33383530705876L183.06450814462318,299.0408128970934L183.45812580369716,272.98556890298124L183.725223500926,316.73899291637025L183.83299976472006,293.88919034293593L183.98294934912926,237.36806320466113L184.12352708451283,291.4839741056097L184.51714474358687,290.4363878883229L184.78892836532845,251.29486544087868L185.11694308122344,263.133501381086L186.30716790747113,312.12824425930296L186.64924039690453,273.3161876949325L187.24435281002837,320.24796863890765L187.5348801298211,273.7723671321748L189.0156322758615,253.75739011794712L189.4607951045762,249.2446032413491L192.74562818803923,215.8470147181494L192.97055256465293,227.4227342231049L193.72030048669873,253.55694360679684L193.94991078782525,256.65449049359916L195.2525978023798,288.6133196859018L195.45877848094239,303.64948631818123L195.8242805929397,235.7326530933798L197.83454220892494,313.2299994567732L199.7042260895266,320.23782304078554L200.09784374860058,269.55768701718216L200.72575763331395,304.9009245620719L200.85696351967195,336.97974496293415L201.28806857484827,316.97741447223984L201.31149819741222,235.60436094090215L202.03781649689407,227.63093182932397L202.258054948995,305.44781132238484L202.82973773955493,289.25580919775007L203.18118207801388,297.0392744004335L203.8465833588295,286.41660258480886L204.207399546314,256.2458109021104L205.98805086117272,290.48390547113604L206.45664331245135,250.73143000390849L206.95335131080668,259.085052989171L207.0142683294729,256.35182530766264L207.95613915654292,274.1870063757072L207.9795687791068,258.5473185516395L209.39003205745544,256.78998389229633L210.50996801601133,280.4359498624215L213.46678638357932,280.11863386521077L216.24553961966149,263.4390044965671L216.39548920407063,293.16236111243273L216.47514992078803,208.19010343609756L216.58761210909486,273.001886997863L216.7750490896063,313.4000269106168L222.2763244676172,287.2309642047047L222.31381186371948,238.69284419022128L222.3512992598218,219.85308927455088L223.60712702924846,227.79533663525726L223.9632572922202,302.20482054641946L225.26594430677474,245.48129582043242L225.29405985385145,242.03159735125885L225.43463758923502,296.82572020219885L226.90601788624986,278.54799949578603L227.37461033752845,216.27203014157948L227.89006203393495,221.6204098984793L228.16184565567653,311.77719237463026L228.74290029526202,249.73219501123862L228.9537668983374,329.9764798032529L229.2864675387452,241.07344138874768L230.33611462960928,297.17056411599265L231.07649070262948,112.99930397982517L233.97707797604406,318.0609537094454L234.10828386240212,281.38802201347136L235.02203914239539,179.40409721176894L235.6171515555192,280.0451669641237L235.93579442238868,303.6507633864763L236.01076921459324,195.3014335643712L236.37158540207776,212.50042177674476L237.01824298484226,297.06038150142183L237.22442366340488,172.75434051952251L238.93478611057176,361.23982114946114L240.74823889701997,335.0835113894402L241.2121454237858,293.31431450248886L243.7425446606903,339.5828003636415L245.47165080590838,298.18072513740947L245.6356581638559,309.2600375538273L247.04143551769172,266.64155477652133L247.48191242189364,337.51242433846426L251.5961541441198,252.661523624282L252.02257327478335,244.04397319136743L253.18936847846706,207.7449032387812L253.3768054589785,303.13823331071325L253.70482017487356,276.3379618628928L254.22027187128003,318.4828296733167L254.46862587045766,279.0831088484887L255.0356227365048,293.7742187222584L256.5913496747498,202.3111904878858L257.55196419987095,285.6055932691876L258.86402306345104,341.89837350147627L260.9633172451792,289.6017705463021L262.22383093911867,358.1577941898561L262.4440693912196,363.0163650444096L263.0204381062923,368.9798482930518L263.948251159824,331.9777877181374L264.0185400275157,321.64580857318276L265.3259129665831,392.1583185818755L267.59390043077155,351.7878484821819L267.7860233357958,342.67046770821656L268.0718647310757,389.4445129806883L268.59668827650773,315.1597028618343L269.04653702973525,251.62974112714696L272.2891967925832,323.9954723396726L273.1232913558591,361.02158436747783L273.17952245001254,293.82851186185945L274.70713384118085,357.21194774674484L275.55060025348234,335.23743359311794L275.90204459194126,284.6822374177176L276.15977044014454,353.1543115579291L276.2347452323491,305.6404890014067L276.42686813737333,361.3042421501246L277.14850051234237,291.99180386056446L277.34999526639217,336.5903100811701L278.1981476032065,252.87768517028582L278.3152957160261,342.82304189536063L279.3461991088391,278.2306834985753L281.23462668749187,311.36540879770206L282.2467863822537,283.4519240118749L282.4342233627651,362.8398103526133L282.4717107588674,258.4354154422822L284.3882538845969,337.7232115553928L284.54757531803165,325.0287270127589L285.7190564462282,337.12125122485406L286.92802497052696,307.57196611243324L287.0920323284745,284.98974482093973L287.1998085922686,281.8036545323444L287.3778737237545,305.3665223779904L291.11255556044495,281.1480750704715L291.17347257911115,313.16117966531556L293.3055682324288,325.7553788726655L293.9100524945783,304.6138502515713L295.2830283768246,288.53061177673504L295.76099267712874,301.17204477394375L296.0468340724087,274.03955819880326L298.85838878008036,251.99970071741092L301.1404340178072,278.52561532650265L301.21540881001175,308.00648859983784L302.0260737507238,285.62203552348683L302.3868899382083,298.8760533499671L303.6052303115327,285.9270065271784L303.9519887254788,251.780417448908L304.66893517593513,278.245103728074L305.64829339910744,233.05433934856038L305.8123007570549,275.22751550619205L308.4036170126256,239.07495366634822L309.30800044359336,257.47051939710246L310.2311275726122,293.33822405890254L310.2873586667656,299.35630197715983L310.7231496464547,222.49140594985047L311.0464784378369,278.9253731769853L311.11208138101597,250.0190032658444L311.28546058798906,202.48944793740893L311.5947316058329,279.2096095579413L313.90020646612373,208.3758636618543L314.25165080458265,235.69693065523657L315.1326046129864,244.3074926866475L317.23658471922744,272.01570648109845L317.2412706437402,211.46374385114518L317.3396750585087,206.595257980245L317.7098630950188,235.70108112719564L319.1999870900848,217.4328497476977L319.35930852351953,269.18332863612403L320.23089048289773,201.94112447526396L322.8690659835963,259.5325590042424L323.45012062318176,254.63909935334937L325.31511857927063,210.77210494699557L325.9055450678817,222.6508975902596L325.9664620865479,224.07706360880223L326.35539382110915,248.51553914132947L326.7490114801832,248.49186016669137L327.3300661197686,190.70843970401762L327.69088230725316,221.18971861595992L329.2138077739087,231.7525633293715L329.82766388508367,242.22823039458353L331.23812716343224,223.5763109406494L331.70203369019805,239.732590627141L331.9972469345036,244.08109685722332L334.0215663240272,255.66087814883957L334.2277470025898,203.10588170862536L334.7853720196113,197.5847962018742L336.3317271088307,245.7697181474668L336.6784855227769,231.5701376708297L338.17798136686844,195.94372796856325L338.62783012009595,215.4959096222977L339.50409800398694,248.30831707339138L339.93988898367604,240.75967280346777L340.2444740770071,228.40941137753973L342.49840376765724,212.19199204642067L344.738275684769,237.65983783597005L344.86948157112704,243.94544382498924L345.1787525889709,224.00288722532903L345.7129479834285,243.37964935908508L345.98941752968284,255.5930516327225L346.87505726259946,241.57703198644518L346.93597428126566,246.08790326060054L346.96408982834237,239.56799071355152L347.10935348823875,197.47933164517127L348.1168272584878,241.30434243132396L355.2206888198715,183.646234295106L357.08568677596037,214.76682778521845L357.8963517166723,199.68963533395927L357.9150954147235,183.797886155148L357.99007020692807,170.71870252567766L358.1259620177989,221.3036437501178L358.43523303564274,208.96650774833375L359.02565952425385,219.30568813950796L360.5298412928581,216.77735897112302L362.2823770606401,225.2911476050615L363.1727027180695,229.36600647880135L363.4444863398111,204.37097748844965L364.09114392257555,192.77663407085745L364.6768844866738,179.88368956775446L365.2626250507721,147.7003269372913L365.64687086082057,192.78046527574273L367.7461650425487,180.08663700431597L368.44436779495385,188.39001089957856L369.2362890376147,205.91420810070895L370.49680273155417,206.6293131347808L372.88193830856227,202.5516872797349L374.6532177743954,150.37463210662895L374.9250013961371,169.74070766194347L380.07951836020175,167.32619720535848L380.70274632040224,140.20409567864536L380.73086186747895,204.6938451853321L380.8948692254265,130.26924929934466L381.09167805496355,207.45011330733107L382.1038377497253,181.67162065500085L382.2631591831601,191.44789772099446L382.680206464798,118.12563348691604L382.7364375589515,190.60856232110572L382.90044491689895,96.15056061591008L384.15158676181284,165.84376036506345L385.56205004016147,188.9399661712117L386.1009313591319,170.35567812573845L386.90691037533105,189.63628765910994L388.6360165205491,184.9770813550678L390.59473296689373,199.1269803276139L392.5487634887255,180.36471862557198L393.17667737343885,145.6781602402537L393.99202823866364,197.30772559301846L395.45872261116574,198.7469638245261L395.78205140254795,197.41439626977782L396.8082688708481,191.20999053985486L397.4268109065358,134.14313841867445L397.83448633914827,104.1548522112863L398.0359810931981,101.23701721289866L398.45302837483604,109.63130240741806L399.6901124462115,195.3513633872973L401.1380631206624,153.04632992819745L402.0283887780918,170.45165335552645L404.1417407333583,149.55517995061237L404.26826069520354,118.78996618772823L404.7696546180717,145.9979860314055L406.39098449949563,194.33096808246015L406.5737355554943,158.2013934719279L408.6683438127097,191.11034373871848L408.88389634029784,171.77411078627188L409.9429152801875,208.16551987141708L411.00662014458993,188.89086999008933L411.04410754069227,183.54210001787715L412.0281516883773,177.39560578772455L412.2155886688888,170.46845035101884L413.19963281657385,131.23769275645515L414.0993303230288,102.9929949871783L416.10490601450124,167.58218731881541L416.42354888137066,149.1196641878671L418.5228430630989,158.80388591425628L419.83021600216614,176.71131002627178L420.5377906035969,173.70444385695072L423.00727282183516,129.24303623894096L425.06907960746105,171.30737779853555L426.6810376398595,121.94571723578528L427.44015741093085,159.45876476227286L427.84314691903046,148.4329916604207L428.1336742388232,175.1138217485308L429.5019641965567,173.84679262920423L429.69877302609376,172.14750249757887L431.7324642646429,166.79789001503315L432.4259810925352,180.52186897410678L435.23753580020684,154.02679911175343L435.49057572389734,164.49901631886272L435.7951608172284,167.47416862552234L436.81669236101584,161.4445438814302L437.688274320394,140.12799482419973L439.6001315216107,92.49097065132044L441.4510717041612,122.5347029071871L441.61039313759596,94.55698779408772L443.470705169172,130.37568052579877L443.9018102243483,167.3632144488565L444.0330161107064,97.76391025924669L445.1529520692622,105.73165907747064L445.33101720074814,144.77905981786068L445.8886422177697,85.00771848607636L445.96830293448704,99.41562072835006L446.319747272946,156.82010221430997L446.42752353674007,165.05736121971216L446.57278719663645,144.1139466864237L447.71146685324345,101.24483925620612L447.77706979642244,154.09442165168443L448.0019941730362,1.8115413240061924L449.6889269976392,71.16828457144963L449.74515809179263,131.1757283385538L449.82013288399725,126.0190329853352L450.11066020378996,128.2055778827166L452.6363735161816,148.2134689416125L453.7141361541224,143.771506144213L453.7703672482759,132.3019872839361L455.22768977175235,140.32863644300625L455.52758894057064,152.08546019555925L455.97743769379815,146.22968524166623L456.88650704927863,70.16727143854942L458.0579881774751,137.28208360270926L458.1423348187053,99.60389518231275L458.7561909298803,136.52147414209497L458.9061405142894,149.1468373632571L459.87612688843615,120.32513530637473L461.00074877150485,137.96057047712537L461.78798408965287,139.85258263042164L462.8470030295425,140.60361407882277L463.1703318209248,128.29131882908422L463.6904694418441,114.13009474394907L463.8544767997916,104.00354622390749L466.29115754644033,114.08863436700776L467.06433509105,132.95808998906884L468.1327258799653,101.96402381399841L468.1561555025292,129.51602732407628L469.47758621513486,85.00537719420203L469.83371647810657,122.34369251177274L469.8665179496961,146.72631404344943L470.4428866647688,84.44195506002657L470.80838877676615,144.76716711936263L471.0286272288671,103.2432294247775L471.2629234545064,115.41360159169426L473.31535839110666,143.51253620473423L476.10348347621436,124.08803477491935L477.32650977405154,128.36287899625844L480.01623044439077,95.3870999229564L480.39110440541367,132.8057818578196L480.5691695368996,96.71442174231196L481.5578996090974,120.6303723659611L482.08272315452945,98.15513214977089L483.3619805465201,40.69170487174941L483.7227967340046,66.39619075123942L483.75559820559414,61.4207060679763L484.28979360005167,126.82955453181596L485.0207978240463,103.58152836355896L487.6636592492577,124.49503821427074L488.8304544529414,58.47563803162238L489.322476526784,151.7967363385108L489.49116980924424,130.2555296837023L489.76763935549866,117.38840147092574L490.87820346502895,99.54577527209139L491.13592931323217,92.2628011159309L491.45457218010165,99.05076054273667L494.5191668114638,122.57823852010794L495.98117525945304,100.58366375201234L497.208887481803,115.94178462260206L498.2351049501031,58.97615790086721L500.7936197340843,119.06889031931779L501.03260188423644,133.43495083786763L501.9557290132553,111.14096563428207L502.63050214309646,112.69523756617596L503.2818456503738,90.77516288289227L503.93787508216377,97.29777589727364L504.5142437972365,123.71690453871823L504.84694443764437,97.02910822042901L504.9031755317978,102.7865622183948L505.6294938312796,80.05303493952249L507.83187835228904,119.45386433057888L508.3848174447979,78.91303420717323L508.6284855194627,79.72448694928583L510.1467250616054,114.75566310088736L511.60404758508184,99.75891264942412L514.4530896888558,115.26461029060032L514.5468081791115,111.79279370803815L519.8044154824576,109.41661303736556L520.3011234808129,87.69405381612434L523.8671120350431,116.30613043348546L525.1135679554442,103.01993758079283L527.1191436469167,76.19745933428554L527.8126604748089,106.17818955426107L530.0197309203312,118.2181145159522L530.5304966922249,110.21958746496355L530.9288002758117,137.28696129411415L531.163096501451,125.47387558833849L532.2970902335453,139.21145000363694L534.8321753949625,129.23352030643656L535.0008686774229,117.36872220323963L536.2613823713623,132.6467868550808L537.6343582536086,145.72159829934645L538.5012542884741,133.65065122032038L539.3400347762628,140.61548904026117L541.3924697128631,119.77988035554993L542.2359361251646,138.6017740521487L542.3249686909074,93.67072013435441L543.4355328004378,146.2197347512003L544.4148910236102,140.35821298997936L544.5414109854554,127.0926394691345L544.7522775885308,133.47287267140797L546.542300752415,148.13798888425472L548.2620350486076,174.7648805739569L548.7587430469628,111.63773633254257L549.2976243659332,142.2466511257553L550.178578174337,163.99504437438267L550.7736905874609,143.42112826780712L552.3341034502187,142.83701141928034L553.6227326912348,117.76047177128851L557.9384691675108,123.76542426540188L559.3020732007315,184.61533402342369L559.7566078784719,140.35947232121475L559.9018715383681,193.57485496646814L561.7996709660465,200.47712530847926L562.8727476794745,200.74899895885636L562.9477224716791,193.3513148036483L563.3132245836764,168.7619412361143L563.7490155633656,191.80588479599191L565.7499053303252,190.8408113802157L567.2353434008784,212.29669390955846L567.7648528708232,154.56862194153513L568.4349400761516,214.06365979229375L569.3440094316321,214.09982565692837L569.653280449476,150.3730002971408L569.6579663739888,212.3047110605221L569.7141974681423,189.09050059649553L571.9868708568434,222.5977041483571L572.3242574217641,226.00985326224315L574.8171692625664,198.8493776069685L576.5041020871693,182.916779979774L576.7102827657319,183.13388158993945L576.7477701618342,136.01605662725316L577.8630201958772,229.96037534780814L577.9005075919796,184.1529288782429L578.612768117923,210.62249284881375L580.0466610188356,164.4850306473255L581.9304026729756,224.9264204473955L582.9191327451734,193.46513351544826L583.6360791956297,207.69069878447846L585.7494311508963,216.6887623581511L586.171164357047,165.99605962778284L587.9049564267779,225.88601311173866L591.3491109436757,239.38150326834895L591.9629670548507,222.72184582887576L596.1193820976919,192.24406111768528L599.6057099352048,189.1200150637598L601.5081952873959,192.37815328866984L601.5878560041133,180.96022266639667L601.8502677768292,215.49525335109053L602.8671133961038,163.9276435476973L603.2373014326139,210.2174316174945L607.0797595330986,140.26046405422593L607.6373845501201,178.11739769328602L607.9747711150408,208.03096653688155L609.0384759794432,143.4040474793603L609.6851335622076,218.1656918414236L610.3317911449722,216.85618246422558L611.1096546140947,206.8608527115046L611.4610989525536,191.16813107907132L612.1171283843437,180.7219962181833L612.9887103437218,146.64672785678178L613.6494257000247,196.26418342533276L616.0814205221607,187.27816331516522L616.1048501447245,202.58627454606028L616.4844100302603,165.0163354007324L617.7121222526102,167.75358052625236L619.1038418329077,199.3835468955095L619.7926727362873,195.1656741097792L621.1187893734058,191.17662713064558L621.9107106160666,207.7953296993776L622.3933608408835,192.30156466508365L623.3867768375942,206.55685724609404L624.309903966613,175.9016842013035L626.2920500355216,202.2106568337667L626.3248515071111,191.6604941180078L626.6341225249549,192.51861306407014L626.8637328260814,202.32490123499838L629.2301247050384,190.36270893724108L629.7455764014449,145.2006874628968L630.7811657187706,196.50893711149882L631.8401846586603,163.93268087263908L632.1775712235809,175.94627516927378L632.2572319402983,184.65878981957607L632.7679977121919,183.16375079839685L633.1241279751637,170.95842775543179L635.0547288744315,190.92048625218163L635.6685849856066,178.71866627849826L635.7716753248878,182.57750550271155L636.3246144173966,152.60665482496333L638.2927027127668,192.1163897622955L638.6019737306107,150.708133170774L639.0658802573764,190.63589513003257L639.1174254270171,145.12894105659623L639.3001764830158,160.20642616933972L640.1248991972661,168.69043428011904L641.6853120600239,181.97857820937364L642.4210022085313,152.30176363804023L642.6927858302729,199.09900898453944L642.8239917166309,164.62492283681686L643.2176093757049,170.38533448948002L648.7844876968949,169.23496201149803L649.0843868657131,168.42554016271583L650.466734596985,170.88415381813053L652.4113932697912,150.09620461270967L652.9362168152234,124.67560148154885L653.0393071545045,162.58293497561587L654.7074962810565,136.82433443568766L655.1573450342839,115.00702384177457L657.3644154798062,122.68993765327926L657.5612243093432,132.58121294553982L658.7420772865653,165.75504846120376L658.9670016631791,165.2905060003347L659.1075793985626,155.45982937238213L660.3493493944509,141.09484194594137L662.0128525964899,160.29729312594733L663.7232150436569,157.35601860322691L664.1683778723716,160.3334855961714L664.2855259851913,134.25706355283234L664.6791436442653,150.66484587668836L664.749432511957,112.1028197737311L665.2461405103123,101.8355808965137L665.2508264348252,165.6199275407593L666.6331741660971,116.96152365623202L669.0042519695668,165.19515156763458L672.2750272794915,157.43267817505168L672.5140094296436,141.06311921475015L673.2590714271767,140.0371899473009L673.3059306723044,130.88145278183367L674.2665451974256,107.54854591460227L675.1615567793677,132.32293475138752L675.4145967030582,148.34217791499202L675.4895714952628,156.58775560137192L677.9215663173987,88.14948386259618L677.9403100154499,100.02363383049573L678.244895108781,105.6194278325097L679.2148814829277,116.02393381438972L679.3460873692857,155.13511702129566L681.6703059276276,83.85588713493784L681.6749918521405,154.6977033931674L682.1201546808551,122.20006667122419L682.8324152067986,110.74807202588543L683.7133690152024,154.5037575143803L683.7321127132535,149.26217259365748L686.351544515901,107.79356565666313L686.810765118154,97.14160552128473L689.1959006951621,146.0917973399157L692.1714627607813,145.418826691052L692.9961854750317,121.64101228798853L693.3570016625162,134.06790668015185L695.1048515057854,127.30554626469174L695.9389460690613,115.9974080416771L697.3681530454611,112.3493294288029L700.9763149203063,121.53931685646212L701.2902718626631,127.20396612405305L702.0728212562983,54.26793744960363L704.2142887586416,125.6987726362219L704.3314368714612,96.29815068929133L704.9640366806873,112.75107382996691L707.0352153153387,94.39244109167721L707.4663203705152,49.704928088595175L708.9470725165555,85.42131567735414L711.215059980744,127.12532000154704L711.8148583183806,24.762906924588055L712.0725841665839,117.36920110385026L713.2862386153954,103.46234419121365L715.0528321567157,100.48943562260025L715.8588111729149,89.075101189172L718.2954919195638,108.04358724954648L719.1061568602759,84.14206572392591L719.2607923691977,-21.994902910471335L721.2288806645679,93.80941507231915L723.4968681287563,104.2278934229416L723.6187021660888,103.8299358840138L725.277519443615,72.5825401544346L726.8191886083217,40.294577648926634L727.9156949443137,106.18165714942342L728.4405184897457,57.349312572266356L731.1442969336232,63.846342095229225L731.8143841389516,76.38352995858622L732.4563557972033,47.440914366042264L734.522848507342,91.42021096559563L735.3381993725667,62.519312937357924L739.2696900387942,99.35855617317812L739.4055818496652,66.56319403641201L740.2724778845305,75.07956784679503L740.4974022611442,68.37206815684488L740.87696214668,88.56610522254496L741.4814464088294,95.01404521578284L743.1824370069706,102.07957188911467L743.2761554972265,87.28787515004687L743.2948991952776,63.788993747102815L743.3933036100461,41.33094850168097L744.2883151919883,73.773135849447L744.9115431521889,79.5082721921031L746.0080494881807,93.36379805410094L747.9480222364742,56.34494270082661L749.3866010618996,72.68920639692908L749.5552943443598,83.15924637996582L749.6724424571794,77.7314267671405L751.2281693954244,90.51584707075024L752.0528921096748,94.52147376639543L752.1981557695711,99.00329173683753L753.824171575508,91.55988144184131L755.5485917962133,77.42927152166904L755.923465757236,87.90375463814912L756.4061159820532,92.65331795833384L756.6591559057435,82.97123354763299L758.9646307660344,53.74439265979535L760.4547547611003,89.0456266302919L761.4294270597597,35.615247542140786L763.5287212414879,93.52786585590076L764.6392853510182,74.79960166295076L769.0065669969349,82.96990326815896L769.728199371904,61.025131946439444L769.9859252201072,32.58824205014879L770.1405607290291,61.183262267520135L770.4404598978475,80.25549904120844L770.6934998215379,83.78802957896637L770.7544168402042,60.04951606583134L771.7572046859403,84.7925856895325L777.1881911962595,79.81249380502427L778.2284664380979,21.405912236977137L779.2406261328597,67.22655563320811L779.6389297164465,97.99613271276718L781.4289528803309,31.085848800610524L781.9162890296606,73.9788103589303L783.593850005238,78.19866526107698L783.8937491740563,73.60278025999978L784.3717134743606,72.45794617889479L784.624753398051,36.8032957519604L784.7184718883068,48.02167004176462L784.9996273590738,80.0779111656873L786.049274449938,92.58892356325987L788.0689079149487,77.60799456900806L789.0529520626337,92.8886089231745L789.0951253832488,76.33485503263066L792.5955109943002,33.79176972449835L793.9497431784952,82.92877546108616L794.1090646119301,61.71873522994571L794.5073681955168,73.64523391228171L794.9947043448466,80.86557851080384L795.0415635899745,74.49738877203546L795.182141325358,70.66758954874072L795.6179323050471,79.29622564393908L796.409853547708,69.72058576248702L797.4173273179571,68.53041575690631L799.5072496506596,86.56231411930892L799.5494229712747,46.80273052542505L800.0742465167067,82.60016982540559L800.3272864403971,73.22383241475615L801.095778060494,77.98969609276294L801.2035543242882,61.453648222018735L801.5362549646959,30.613331314294484L804.9054346893892,39.08388808245866L805.1209872169773,46.88214377576111L805.6973559320501,48.040116583804846L807.8809967550084,50.2014704222126L807.9419137736746,68.39367189550352L808.9962467890514,83.40039500875722L809.6569621453543,59.45578794810453L811.615678591699,75.9598625516899L813.255752171174,60.30984067324123L814.7693057888039,69.795746552771L815.6783751442844,68.14526880931362L815.6830610687972,35.30487892948328L815.8330106532063,90.05207173771116L820.4486462983006,83.19766041691155L820.945354296656,73.82481720701396L821.5076652381904,80.21723576926975L822.3230161034151,51.732200841680694L822.7822367056682,70.70055830837268L823.7662808533532,67.7871974832828L825.415726281854,46.61099956196226L825.6172210359038,65.85148564926388L834.4689324405566,59.949330501507994L834.637625723017,53.32709285731479L836.0949482464933,41.00851092849514L836.2636415289537,55.80614182258343L839.8952330263629,58.88127571738039L839.8999189508758,37.935022145981044L840.7761868347667,53.60373999387129L844.5296123695084,46.541831680708874L844.8716848589418,37.60952825570357L845.284046216067,62.47287288091876L845.2981039896054,15.2823259736509L846.2118592695987,49.58567296801125L847.233390813386,43.98949761921468L847.2474485869243,62.39763449099876L847.5660914537939,57.81976369113269L848.7797459026053,2.1587154440120573L849.1733635616795,19.931319057030986L849.7919055973672,69.04968591533795L850.1292921622877,62.01420803819253L850.4479350291573,63.996765663890194L850.5229098213618,42.03398679235697L850.9352711784869,26.76048610767801L851.0758489138707,50.44979369163405L853.2032586426755,52.233106491973004L853.4891000379555,34.15796351528451L854.0186095079004,22.87591650702096L854.6184078455369,20.104646158253352L855.1151158438922,65.57660556727544L855.5321631255301,45.31675514172902L856.0429288974238,68.60599336809216L858.5217829646876,53.55642195297921L859.9744195636514,45.81995108984917L861.4551717096919,56.28312239653489L862.3408114426084,69.95671923766125L862.7812883468102,62.25613488047624L862.9968408743983,44.84653682177065L863.1983356284481,19.908682134647513L863.4513755521385,30.69851742326477L868.3013074228722,72.14525955425374L869.9460669268601,11.624562926205604L869.9554387758858,43.643253586274454L871.328414658132,76.09020776882251L871.8719819016153,77.32377592511172L873.1699829916571,71.88477309617453L875.5785481912291,73.23839010646722L876.6000797350164,81.4415097063003L879.9786313087352,68.98698984372582L880.6768340611403,29.71497861982248L881.7499107745683,75.6708726387466L883.8679486543476,9.38093241089388L885.2502963856197,85.32463096517996L886.3093153255093,83.95400411467904L886.5108100795591,71.23779167396891L886.9559729082737,47.058538834020496L887.4620527556547,78.53316403482759L889.4395129000503,78.62313970418761L890.4938459154273,76.79537118095824L892.251067607722,53.40143109145735L893.8302241685309,83.83045219139393L893.9145708097611,77.0607575017669L895.1235393340598,85.92773090180148L895.9810635198997,68.69279853803903L896.107583481745,24.52237535147355L900.4280058825337,58.85779406753092L900.7700783719672,60.88451475463469L900.9809449750425,81.26809890832769L901.0465479182214,50.90229047186558L901.14495233299,47.409063041168544L901.5245122185256,38.72798732910301L902.1571120277519,51.87164517041584L903.797185607227,39.54634422168595L904.804659377476,83.96003471496144L905.7137287329565,55.42107247462669L907.128877935818,66.99412033497175L908.0192035932472,80.82091659459498L908.2394420453481,46.30493772910201L909.3968654000063,51.114019970088314L910.4839998869727,76.69874411422799L911.3696396198893,84.76486266529324L911.7304558073738,75.9766373758577L913.2065220289014,85.07469362332998L913.4642478771046,67.8724063178608L914.4998371944304,47.04357762420234L916.4679254898006,50.11068106524095L918.9608373306028,73.38020676693107L919.6730978565462,51.16634429606772L919.7387007997253,75.6781093590855L920.6196546081289,61.168374223073L920.8024056641276,43.33717401635453L920.8539508337684,33.404915584913965L921.1116766819715,62.36369241021831L921.7021031705826,40.07529770612248L923.6467618433888,65.24286505282502L924.4058816144601,68.83449103908532L926.247449947985,58.133565533399484L927.1893207750552,65.61996824386463L927.3345844349515,-15.788355430595095L927.5313932644884,79.43237974810837L928.1171338285867,75.20354545951183L929.3917052960645,73.65291849337686L930.2164280103149,59.21502731749308L930.25860133093,77.83818612919816L932.4984732480417,40.346882020713956L933.4262863015734,-32.075858318672196L933.6043514330593,82.64829933677684L933.8105321116219,39.19345322564035L934.0682579598252,71.6378953971149L935.1179050506892,36.614380546717676L935.2256813144833,71.81264534309139L935.7270752373514,55.52067049884903L936.2940721033985,65.73614155033367L937.2500007040068,19.58368266490787L937.4702391561077,68.36652089143809L938.543315869536,42.08689311560628L938.8619587364053,42.36083756769798L939.0540816414295,56.51258008588185L939.2883778670689,49.33531437099447L940.2583642412155,37.911700129668475L941.76254600982,65.25414582276498L942.6247561201725,75.6057377214321L943.8290387199585,72.69979098727761L945.351964186614,46.084778693278736L945.6378055818939,48.901656565248L945.9470765997379,34.887112420620575L948.6742846661793,61.8774131827432L949.1194474948941,13.998841297230282L951.2796586952885,65.21153253694615L951.748251146567,33.98751868625589L951.7623089201054,77.24583485072698L952.1324969566155,80.7352998076449L952.7088656716883,58.1968713164372L953.8944045734231,32.898741473621286L954.1755600441902,60.53215254468001L954.7003835896223,55.28190085318373L956.504464527045,35.99148161725733L957.0808332421176,5.954683443149165L957.5213101463195,81.82723310833177L960.9654646632173,31.785605735250506L961.7526999813654,38.20581161858681L961.8651621696723,76.67552630314086L962.6289678652564,8.250095086988388L963.9316548798108,38.18343188356833L964.9063271784704,48.926031719477564L967.1743146426588,79.85622452560129L971.0355164411947,32.29166012139053L971.2932422893979,48.968188276010295L971.3307296855002,78.0641917433099L971.6259429298055,88.52520799724768L972.2023116448784,74.73546445524178L972.6240448510291,38.60958137025003L973.5003127349202,-0.142109328720315L973.70180748897,104.34544578579874L974.1750858647613,65.53331827318974L974.2219451098891,95.53705789380146L974.7467686553213,79.85439317419201L976.2415785749,40.9445610684787L976.6164525359228,28.673133112749316L977.3333989863792,102.40061266885276L978.5095660390884,78.3547957286817L979.2733717346725,89.0912862561063L979.9715744870778,90.90760107306407L980.9837341818394,95.587528697047L983.0924002125932,71.69711057076991L983.3782416078732,92.37500575530231L984.6153256792488,102.83908165203042L984.7324737920684,110.65048272366893L986.9067427660011,78.52735514779091L987.7548951028155,101.74054573088738L988.837343665269,57.559875858816824L989.0013510232166,94.3221225186788L989.0388384193188,82.4258056604766L989.6995537756217,151.48208090024818L990.5242764898719,99.59922590135882L994.1652398363068,141.0025826301509L996.6815812996729,95.20273205638249L997.4407010707442,118.6091368645553L997.7265424660242,113.58231226212357L998.279481558533,79.36744437271494L999.5634248750364,100.01378976238776L1000.9692022288722,90.52743380496923L1002.5671024877322,110.06099154606696L1004.8397758764335,92.73414130491238L1006.6016834932411,156.18777603764352L1006.9765574542639,124.34469002811329L1008.026204545128,145.76150668356806L1008.227699299178,155.18122450786632L1009.2539167674781,174.1610755892141L1009.5959892569115,113.26846386007517L1011.400070194334,79.47031045017856L1012.0748433241753,169.2156906961839L1012.3700565684808,162.1296200735078L1012.7824179256058,164.0465173214987L1013.6446280359586,135.8996571732735L1013.6821154320609,153.94014470681358L1013.8695524125724,163.1093886432074L1014.2631700716463,136.69822394154744L1015.6455178029183,131.88137951983006L1016.00164806589,149.11025467772063L1016.8498004027043,194.74308866352172L1017.665151267929,123.64666578248826L1020.6172837109843,114.77643319774224L1020.8750095591876,168.16241088274813L1022.4447942709709,144.2648979326094L1022.8056104584554,98.62971822066909L1025.6499666377165,113.00513947245132L1025.903006561407,171.53145007314498L1028.0866473843653,146.7832854790582L1028.9535434192308,160.0311130717192L1029.7220350393277,165.32188285886266L1031.2496464304959,178.73477152866414L1031.35742269429,164.74753026167542L1032.0649972957208,127.34031090161366L1032.1118565408485,184.05411571891025L1032.716340802998,103.05135878196992L1034.3189269863708,124.79937955234458L1034.4641906462673,149.0917460559717L1036.3573041494328,185.25087060788758L1036.4744522622525,137.43107490380316L1038.0676665965998,130.61383602577348L1039.1266855364893,87.40254524071023L1039.393783233718,151.01934761946382L1040.4340584755566,144.56133741060734L1041.0526005112445,179.19659135087636L1041.694572169496,142.28584115906094L1041.7039440185217,106.81271512632462L1042.402146770927,150.12415821872446L1043.8079241247626,132.29275514438618L1043.9391300111208,150.24465493348416L1044.0797077465043,159.2977477347335L1044.8716289891652,136.00138807891926L1044.9044304607546,123.94928662577563L1046.8631469070992,154.25887966879668L1047.4770030182742,183.37028112100847L1048.4797908640105,195.3096280859314L1048.770318183803,158.72920402458294L1050.7758938752756,120.9885102059656L1050.9117856861465,117.56950571852332L1051.2304285530158,155.88041053089867L1052.0270357201896,183.80077729587163L1052.0692090408047,188.262073488294L1052.6455777558772,62.06771853003628L1052.9735924717722,205.52970412152868L1053.5077878662298,173.29998568565972L1053.770199638946,99.60157162749809L1054.8057889562717,179.3138155781299L1055.3071828791399,117.09544732514983L1057.889127285685,167.3134974706462L1058.0671924171709,141.49229397866907L1059.969677769362,194.8073855047676L1060.6303931256648,132.8232262559893L1061.6894120655543,96.96048353662754L1062.4719614591897,143.63593292874737L1064.2057535289207,137.04484156130667L1064.4400497545598,174.95521696110438L1065.4803249963984,184.15924327147974L1066.3331632577253,165.56069463004465L1066.759582388389,144.7447829500792L1067.9966664597646,101.26470476301866L1071.0425173930755,120.3170472071725L1072.5185836146031,170.21992753967626L1072.5748147087565,163.30919662021014L1072.9543745942922,147.16676070877853L1073.0059197639328,138.90572517491012L1073.3573641023918,155.3758266578606L1073.6291477241334,155.07842937864137L1074.5429030041266,153.25231040195982" fill="none"></path></g></g></g></g></g></g><g transform="translate(30, 374)" clip-path="url(#clip_1)"><clipPath id="clip_1"><rect width="1413" height="26"></rect></clipPath><g><g><line x1="43.64419611569845" y1="0" x2="43.64419611569845" y2="5" style="visibility: inherit;" fill="rgb(0, 0, 0)" stroke="rgb(204, 204, 204)" stroke-width="1px"></line><line x1="137.36268637142038" y1="0" x2="137.36268637142038" y2="5" style="visibility: inherit;" fill="rgb(0, 0, 0)" stroke="rgb(204, 204, 204)" stroke-width="1px"></line><line x1="231.08117662714227" y1="0" x2="231.08117662714227" y2="5" style="visibility: inherit;" fill="rgb(0, 0, 0)" stroke="rgb(204, 204, 204)" stroke-width="1px"></line><line x1="324.79966688286413" y1="0" x2="324.79966688286413" y2="5" style="visibility: inherit;" fill="rgb(0, 0, 0)" stroke="rgb(204, 204, 204)" stroke-width="1px"></line><line x1="418.51815713858605" y1="0" x2="418.51815713858605" y2="5" style="visibility: inherit;" fill="rgb(0, 0, 0)" stroke="rgb(204, 204, 204)" stroke-width="1px"></line><line x1="512.236647394308" y1="0" x2="512.236647394308" y2="5" style="visibility: inherit;" fill="rgb(0, 0, 0)" stroke="rgb(204, 204, 204)" stroke-width="1px"></line><line x1="605.9551376500299" y1="0" x2="605.9551376500299" y2="5" style="visibility: inherit;" fill="rgb(0, 0, 0)" stroke="rgb(204, 204, 204)" stroke-width="1px"></line><line x1="699.6736279057518" y1="0" x2="699.6736279057518" y2="5" style="visibility: inherit;" fill="rgb(0, 0, 0)" stroke="rgb(204, 204, 204)" stroke-width="1px"></line><line x1="793.3921181614737" y1="0" x2="793.3921181614737" y2="5" style="visibility: inherit;" fill="rgb(0, 0, 0)" stroke="rgb(204, 204, 204)" stroke-width="1px"></line><line x1="887.1106084171956" y1="0" x2="887.1106084171956" y2="5" style="visibility: inherit;" fill="rgb(0, 0, 0)" stroke="rgb(204, 204, 204)" stroke-width="1px"></line><line x1="980.8290986729176" y1="0" x2="980.8290986729176" y2="5" style="visibility: inherit;" fill="rgb(0, 0, 0)" stroke="rgb(204, 204, 204)" stroke-width="1px"></line><line x1="1074.5475889286395" y1="0" x2="1074.5475889286395" y2="5" style="visibility: inherit;" fill="rgb(0, 0, 0)" stroke="rgb(204, 204, 204)" stroke-width="1px"></line><line x1="1168.2660791843614" y1="0" x2="1168.2660791843614" y2="5" style="visibility: inherit;" fill="rgb(0, 0, 0)" stroke="rgb(204, 204, 204)" stroke-width="1px"></line><line x1="1261.9845694400833" y1="0" x2="1261.9845694400833" y2="5" style="visibility: inherit;" fill="rgb(0, 0, 0)" stroke="rgb(204, 204, 204)" stroke-width="1px"></line><line x1="1355.7030596958052" y1="0" x2="1355.7030596958052" y2="5" style="visibility: inherit;" fill="rgb(0, 0, 0)" stroke="rgb(204, 204, 204)" stroke-width="1px"></line></g><g transform="translate(0, 8)"><text x="43.64419611569845" y="0" dx="0em" dy="0.95em" style="text-anchor: middle; visibility: inherit; font-family: Roboto, sans-serif; font-size: 12px; font-weight: 200;" fill="rgb(33, 33, 33)" stroke="none" stroke-width="1px">-20k</text><text x="137.36268637142038" y="0" dx="0em" dy="0.95em" style="text-anchor: middle; visibility: inherit; font-family: Roboto, sans-serif; font-size: 12px; font-weight: 200;" fill="rgb(33, 33, 33)" stroke="none" stroke-width="1px">0</text><text x="231.08117662714227" y="0" dx="0em" dy="0.95em" style="text-anchor: middle; visibility: inherit; font-family: Roboto, sans-serif; font-size: 12px; font-weight: 200;" fill="rgb(33, 33, 33)" stroke="none" stroke-width="1px">20k</text><text x="324.79966688286413" y="0" dx="0em" dy="0.95em" style="text-anchor: middle; visibility: inherit; font-family: Roboto, sans-serif; font-size: 12px; font-weight: 200;" fill="rgb(33, 33, 33)" stroke="none" stroke-width="1px">40k</text><text x="418.51815713858605" y="0" dx="0em" dy="0.95em" style="text-anchor: middle; visibility: inherit; font-family: Roboto, sans-serif; font-size: 12px; font-weight: 200;" fill="rgb(33, 33, 33)" stroke="none" stroke-width="1px">60k</text><text x="512.236647394308" y="0" dx="0em" dy="0.95em" style="text-anchor: middle; visibility: inherit; font-family: Roboto, sans-serif; font-size: 12px; font-weight: 200;" fill="rgb(33, 33, 33)" stroke="none" stroke-width="1px">80k</text><text x="605.9551376500299" y="0" dx="0em" dy="0.95em" style="text-anchor: middle; visibility: inherit; font-family: Roboto, sans-serif; font-size: 12px; font-weight: 200;" fill="rgb(33, 33, 33)" stroke="none" stroke-width="1px">100k</text><text x="699.6736279057518" y="0" dx="0em" dy="0.95em" style="text-anchor: middle; visibility: inherit; font-family: Roboto, sans-serif; font-size: 12px; font-weight: 200;" fill="rgb(33, 33, 33)" stroke="none" stroke-width="1px">120k</text><text x="793.3921181614737" y="0" dx="0em" dy="0.95em" style="text-anchor: middle; visibility: inherit; font-family: Roboto, sans-serif; font-size: 12px; font-weight: 200;" fill="rgb(33, 33, 33)" stroke="none" stroke-width="1px">140k</text><text x="887.1106084171956" y="0" dx="0em" dy="0.95em" style="text-anchor: middle; visibility: inherit; font-family: Roboto, sans-serif; font-size: 12px; font-weight: 200;" fill="rgb(33, 33, 33)" stroke="none" stroke-width="1px">160k</text><text x="980.8290986729176" y="0" dx="0em" dy="0.95em" style="text-anchor: middle; visibility: inherit; font-family: Roboto, sans-serif; font-size: 12px; font-weight: 200;" fill="rgb(33, 33, 33)" stroke="none" stroke-width="1px">180k</text><text x="1074.5475889286395" y="0" dx="0em" dy="0.95em" style="text-anchor: middle; visibility: inherit; font-family: Roboto, sans-serif; font-size: 12px; font-weight: 200;" fill="rgb(33, 33, 33)" stroke="none" stroke-width="1px">200k</text><text x="1168.2660791843614" y="0" dx="0em" dy="0.95em" style="text-anchor: middle; visibility: inherit; font-family: Roboto, sans-serif; font-size: 12px; font-weight: 200;" fill="rgb(33, 33, 33)" stroke="none" stroke-width="1px">220k</text><text x="1261.9845694400833" y="0" dx="0em" dy="0.95em" style="text-anchor: middle; visibility: inherit; font-family: Roboto, sans-serif; font-size: 12px; font-weight: 200;" fill="rgb(33, 33, 33)" stroke="none" stroke-width="1px">240k</text><text x="1355.7030596958052" y="0" dx="0em" dy="0.95em" style="text-anchor: middle; visibility: inherit; font-family: Roboto, sans-serif; font-size: 12px; font-weight: 200;" fill="rgb(33, 33, 33)" stroke="none" stroke-width="1px">260k</text></g><line x1="0" y1="0" x2="1413.4375" y2="0" fill="rgb(0, 0, 0)" stroke="rgb(204, 204, 204)" stroke-width="1px"></line></g></g></g></g></svg>