<svg viewBox="0 0 1444 400" xmlns="http://www.w3.org/2000/svg"><g><g><g><g><g><line x1="40.84375" y1="365.39109515945313" x2="35.84375" y2="365.39109515945313" style="visibility: inherit;" fill="rgb(0, 0, 0)" stroke="rgb(204, 204, 204)" stroke-width="1px"></line><line x1="40.84375" y1="337.47879615471265" x2="35.84375" y2="337.47879615471265" style="visibility: inherit;" fill="rgb(0, 0, 0)" stroke="rgb(204, 204, 204)" stroke-width="1px"></line><line x1="40.84375" y1="309.56649714997224" x2="35.84375" y2="309.56649714997224" style="visibility: inherit;" fill="rgb(0, 0, 0)" stroke="rgb(204, 204, 204)" stroke-width="1px"></line><line x1="40.84375" y1="281.65419814523176" x2="35.84375" y2="281.65419814523176" style="visibility: inherit;" fill="rgb(0, 0, 0)" stroke="rgb(204, 204, 204)" stroke-width="1px"></line><line x1="40.84375" y1="253.74189914049128" x2="35.84375" y2="253.74189914049128" style="visibility: inherit;" fill="rgb(0, 0, 0)" stroke="rgb(204, 204, 204)" stroke-width="1px"></line><line x1="40.84375" y1="225.82960013575084" x2="35.84375" y2="225.82960013575084" style="visibility: inherit;" fill="rgb(0, 0, 0)" stroke="rgb(204, 204, 204)" stroke-width="1px"></line><line x1="40.84375" y1="197.91730113101036" x2="35.84375" y2="197.91730113101036" style="visibility: inherit;" fill="rgb(0, 0, 0)" stroke="rgb(204, 204, 204)" stroke-width="1px"></line><line x1="40.84375" y1="170.00500212626991" x2="35.84375" y2="170.00500212626991" style="visibility: inherit;" fill="rgb(0, 0, 0)" stroke="rgb(204, 204, 204)" stroke-width="1px"></line><line x1="40.84375" y1="142.0927031215294" x2="35.84375" y2="142.0927031215294" style="visibility: inherit;" fill="rgb(0, 0, 0)" stroke="rgb(204, 204, 204)" stroke-width="1px"></line><line x1="40.84375" y1="114.18040411678895" x2="35.84375" y2="114.18040411678895" style="visibility: inherit;" fill="rgb(0, 0, 0)" stroke="rgb(204, 204, 204)" stroke-width="1px"></line><line x1="40.84375" y1="86.26810511204853" x2="35.84375" y2="86.26810511204853" style="visibility: inherit;" fill="rgb(0, 0, 0)" stroke="rgb(204, 204, 204)" stroke-width="1px"></line><line x1="40.84375" y1="58.35580610730802" x2="35.84375" y2="58.35580610730802" style="visibility: inherit;" fill="rgb(0, 0, 0)" stroke="rgb(204, 204, 204)" stroke-width="1px"></line><line x1="40.84375" y1="30.4435071025676" x2="35.84375" y2="30.4435071025676" style="visibility: inherit;" fill="rgb(0, 0, 0)" stroke="rgb(204, 204, 204)" stroke-width="1px"></line><line x1="40.84375" y1="2.5312080978271414" x2="35.84375" y2="2.5312080978271414" style="visibility: inherit;" fill="rgb(0, 0, 0)" stroke="rgb(204, 204, 204)" stroke-width="1px"></line></g><g transform="translate(30.84375, 0)"><text x="0" y="365.39109515945313" dx="0em" dy="0.3em" style="text-anchor: end; visibility: inherit; font-family: Roboto, sans-serif; font-size: 12px; font-weight: 200;" fill="rgb(33, 33, 33)" stroke="none" stroke-width="1px">0</text><text x="0" y="337.47879615471265" dx="0em" dy="0.3em" style="text-anchor: end; visibility: inherit; font-family: Roboto, sans-serif; font-size: 12px; font-weight: 200;" fill="rgb(33, 33, 33)" stroke="none" stroke-width="1px">0.1</text><text x="0" y="309.56649714997224" dx="0em" dy="0.3em" style="text-anchor: end; visibility: inherit; font-family: Roboto, sans-serif; font-size: 12px; font-weight: 200;" fill="rgb(33, 33, 33)" stroke="none" stroke-width="1px">0.2</text><text x="0" y="281.65419814523176" dx="0em" dy="0.3em" style="text-anchor: end; visibility: inherit; font-family: Roboto, sans-serif; font-size: 12px; font-weight: 200;" fill="rgb(33, 33, 33)" stroke="none" stroke-width="1px">0.3</text><text x="0" y="253.74189914049128" dx="0em" dy="0.3em" style="text-anchor: end; visibility: inherit; font-family: Roboto, sans-serif; font-size: 12px; font-weight: 200;" fill="rgb(33, 33, 33)" stroke="none" stroke-width="1px">0.4</text><text x="0" y="225.82960013575084" dx="0em" dy="0.3em" style="text-anchor: end; visibility: inherit; font-family: Roboto, sans-serif; font-size: 12px; font-weight: 200;" fill="rgb(33, 33, 33)" stroke="none" stroke-width="1px">0.5</text><text x="0" y="197.91730113101036" dx="0em" dy="0.3em" style="text-anchor: end; visibility: inherit; font-family: Roboto, sans-serif; font-size: 12px; font-weight: 200;" fill="rgb(33, 33, 33)" stroke="none" stroke-width="1px">0.6</text><text x="0" y="170.00500212626991" dx="0em" dy="0.3em" style="text-anchor: end; visibility: inherit; font-family: Roboto, sans-serif; font-size: 12px; font-weight: 200;" fill="rgb(33, 33, 33)" stroke="none" stroke-width="1px">0.7</text><text x="0" y="142.0927031215294" dx="0em" dy="0.3em" style="text-anchor: end; visibility: inherit; font-family: Roboto, sans-serif; font-size: 12px; font-weight: 200;" fill="rgb(33, 33, 33)" stroke="none" stroke-width="1px">0.8</text><text x="0" y="114.18040411678895" dx="0em" dy="0.3em" style="text-anchor: end; visibility: inherit; font-family: Roboto, sans-serif; font-size: 12px; font-weight: 200;" fill="rgb(33, 33, 33)" stroke="none" stroke-width="1px">0.9</text><text x="0" y="86.26810511204853" dx="0em" dy="0.3em" style="text-anchor: end; visibility: inherit; font-family: Roboto, sans-serif; font-size: 12px; font-weight: 200;" fill="rgb(33, 33, 33)" stroke="none" stroke-width="1px">1</text><text x="0" y="58.35580610730802" dx="0em" dy="0.3em" style="text-anchor: end; visibility: inherit; font-family: Roboto, sans-serif; font-size: 12px; font-weight: 200;" fill="rgb(33, 33, 33)" stroke="none" stroke-width="1px">1.1</text><text x="0" y="30.4435071025676" dx="0em" dy="0.3em" style="text-anchor: end; visibility: inherit; font-family: Roboto, sans-serif; font-size: 12px; font-weight: 200;" fill="rgb(33, 33, 33)" stroke="none" stroke-width="1px">1.2</text><text x="0" y="2.5312080978271414" dx="0em" dy="0.3em" style="text-anchor: end; visibility: hidden; font-family: Roboto, sans-serif; font-size: 12px; font-weight: 200;" fill="rgb(33, 33, 33)" stroke="none" stroke-width="1px">1.3</text></g><line x1="40.84375" y1="0" x2="40.84375" y2="374" fill="rgb(0, 0, 0)" stroke="rgb(204, 204, 204)" stroke-width="1px"></line></g></g><g transform="translate(40, 0)" clip-path="url(#clip_0)"><clipPath id="clip_0"><rect width="1403" height="374"></rect></clipPath><g><g><g><line x1="18.78922635475019" y1="0" x2="18.78922635475019" y2="374" fill="rgb(0, 0, 0)" stroke="rgb(66, 66, 66)" stroke-width="1px" opacity="0.25"></line><line x1="114.78264988506979" y1="0" x2="114.78264988506979" y2="374" fill="rgb(0, 0, 0)" stroke="rgb(66, 66, 66)" stroke-width="1px" opacity="0.25"></line><line x1="210.77607341538936" y1="0" x2="210.77607341538936" y2="374" fill="rgb(0, 0, 0)" stroke="rgb(66, 66, 66)" stroke-width="1px" opacity="0.25"></line><line x1="306.76949694570897" y1="0" x2="306.76949694570897" y2="374" fill="rgb(0, 0, 0)" stroke="rgb(66, 66, 66)" stroke-width="1px" opacity="0.25"></line><line x1="402.7629204760285" y1="0" x2="402.7629204760285" y2="374" fill="rgb(0, 0, 0)" stroke="rgb(66, 66, 66)" stroke-width="1px" opacity="0.25"></line><line x1="498.7563440063481" y1="0" x2="498.7563440063481" y2="374" fill="rgb(0, 0, 0)" stroke="rgb(66, 66, 66)" stroke-width="1px" opacity="0.25"></line><line x1="594.7497675366677" y1="0" x2="594.7497675366677" y2="374" fill="rgb(0, 0, 0)" stroke="rgb(66, 66, 66)" stroke-width="1px" opacity="0.25"></line><line x1="690.7431910669872" y1="0" x2="690.7431910669872" y2="374" fill="rgb(0, 0, 0)" stroke="rgb(66, 66, 66)" stroke-width="1px" opacity="0.25"></line><line x1="786.7366145973068" y1="0" x2="786.7366145973068" y2="374" fill="rgb(0, 0, 0)" stroke="rgb(66, 66, 66)" stroke-width="1px" opacity="0.25"></line><line x1="882.7300381276265" y1="0" x2="882.7300381276265" y2="374" fill="rgb(0, 0, 0)" stroke="rgb(66, 66, 66)" stroke-width="1px" opacity="0.25"></line><line x1="978.7234616579459" y1="0" x2="978.7234616579459" y2="374" fill="rgb(0, 0, 0)" stroke="rgb(66, 66, 66)" stroke-width="1px" opacity="0.25"></line><line x1="1074.7168851882657" y1="0" x2="1074.7168851882657" y2="374" fill="rgb(0, 0, 0)" stroke="rgb(66, 66, 66)" stroke-width="1px" opacity="0.25"></line><line x1="1170.710308718585" y1="0" x2="1170.710308718585" y2="374" fill="rgb(0, 0, 0)" stroke="rgb(66, 66, 66)" stroke-width="1px" opacity="0.25"></line><line x1="1266.703732248905" y1="0" x2="1266.703732248905" y2="374" fill="rgb(0, 0, 0)" stroke="rgb(66, 66, 66)" stroke-width="1px" opacity="0.25"></line><line x1="1362.6971557792244" y1="0" x2="1362.6971557792244" y2="374" fill="rgb(0, 0, 0)" stroke="rgb(66, 66, 66)" stroke-width="1px" opacity="0.25"></line></g><g><line x1="0" y1="365.39109515945313" x2="1403.15625" y2="365.39109515945313" fill="rgb(0, 0, 0)" stroke="rgb(66, 66, 66)" stroke-width="1px" opacity="0.25"></line><line x1="0" y1="337.47879615471265" x2="1403.15625" y2="337.47879615471265" fill="rgb(0, 0, 0)" stroke="rgb(66, 66, 66)" stroke-width="1px" opacity="0.25"></line><line x1="0" y1="309.56649714997224" x2="1403.15625" y2="309.56649714997224" fill="rgb(0, 0, 0)" stroke="rgb(66, 66, 66)" stroke-width="1px" opacity="0.25"></line><line x1="0" y1="281.65419814523176" x2="1403.15625" y2="281.65419814523176" fill="rgb(0, 0, 0)" stroke="rgb(66, 66, 66)" stroke-width="1px" opacity="0.25"></line><line x1="0" y1="253.74189914049128" x2="1403.15625" y2="253.74189914049128" fill="rgb(0, 0, 0)" stroke="rgb(66, 66, 66)" stroke-width="1px" opacity="0.25"></line><line x1="0" y1="225.82960013575084" x2="1403.15625" y2="225.82960013575084" fill="rgb(0, 0, 0)" stroke="rgb(66, 66, 66)" stroke-width="1px" opacity="0.25"></line><line x1="0" y1="197.91730113101036" x2="1403.15625" y2="197.91730113101036" fill="rgb(0, 0, 0)" stroke="rgb(66, 66, 66)" stroke-width="1px" opacity="0.25"></line><line x1="0" y1="170.00500212626991" x2="1403.15625" y2="170.00500212626991" fill="rgb(0, 0, 0)" stroke="rgb(66, 66, 66)" stroke-width="1px" opacity="0.25"></line><line x1="0" y1="142.0927031215294" x2="1403.15625" y2="142.0927031215294" fill="rgb(0, 0, 0)" stroke="rgb(66, 66, 66)" stroke-width="1px" opacity="0.25"></line><line x1="0" y1="114.18040411678895" x2="1403.15625" y2="114.18040411678895" fill="rgb(0, 0, 0)" stroke="rgb(66, 66, 66)" stroke-width="1px" opacity="0.25"></line><line x1="0" y1="86.26810511204853" x2="1403.15625" y2="86.26810511204853" fill="rgb(0, 0, 0)" stroke="rgb(66, 66, 66)" stroke-width="1px" opacity="0.25"></line><line x1="0" y1="58.35580610730802" x2="1403.15625" y2="58.35580610730802" fill="rgb(0, 0, 0)" stroke="rgb(66, 66, 66)" stroke-width="1px" opacity="0.25"></line><line x1="0" y1="30.4435071025676" x2="1403.15625" y2="30.4435071025676" fill="rgb(0, 0, 0)" stroke="rgb(66, 66, 66)" stroke-width="1px" opacity="0.25"></line><line x1="0" y1="2.5312080978271414" x2="1403.15625" y2="2.5312080978271414" fill="rgb(0, 0, 0)" stroke="rgb(66, 66, 66)" stroke-width="1px" opacity="0.25"></line></g></g></g><g><g><line x1="0" y1="365.39109515945313" x2="1403.15625" y2="365.39109515945313" fill="rgb(0, 0, 0)" stroke="rgb(153, 153, 153)" stroke-width="1.5px"></line></g></g><g><g><line x1="18.78922635475019" y1="0" x2="18.78922635475019" y2="374" fill="rgb(0, 0, 0)" stroke="rgb(153, 153, 153)" stroke-width="1.5px"></line></g></g><g><g><g><g><g><path stroke="rgb(51, 187, 238)" stroke-width="2px" d="M19.96034612182009,356.9248783014629L21.021073451830123,361.0457469463502L21.457843528893076,354.2940296648768L21.947409988897707,349.96056048658915L22.648161980669038,350.55935017695185L23.713688981855586,350.410530789719L24.22245412656628,351.223658823537L25.787146930110488,351.5841815176634L26.036729831289318,83.22681556461428L28.10058843719119,93.55925547118696L28.19658186072151,120.02884551129546L30.802803309569686,145.63858381973643L31.714740833107722,163.08186428368268L31.829932941344104,178.65463046878074L33.586612591948956,-1403.1202978023832L58.583300079244175,-0.3020081973614692L59.81681557160878,12.679088892392897L59.845613598667875,30.98222684398109L60.15279255396491,47.35558479173122L60.349579072202054,46.723257171663654L60.51756756338011,60.071287013318326L60.79594849161805,37.53922004648497L60.91114059985443,51.85455770863058L62.71581696222443,60.80102734247521L63.195784079876034,52.68831438811408L63.382971255760154,66.64448390158572L63.55575941811473,80.20500477844284L63.709348895763235,93.99704731611733L65.40363282107339,97.7200694462253L65.60041933931053,106.41879325683026L66.00359171813788,118.9024326066317L66.27717297519929,130.4887741635905L66.38756541225916,141.3879143076239L66.54115488990766,150.60122226199582L66.68514502520314,160.9599308175787L67.08831740403049,169.17772330351696L67.36669833226841,177.55717243305887L67.70267531462454,186.3558303499124L68.92179179345959,194.19145084322733L69.27216778934526,199.00050326165064L69.8817260287628,205.98173435880918L70.17930564170678,210.32150701430118L71.69600173348583,211.08634279044733L72.15197049525486,213.687492581628L75.51653998999255,206.3473834503266L75.74692420646532,202.97843095010327L76.51487159470787,205.6142950070051L76.75005548235715,205.4229681644477L78.0843640694286,208.86653868901158L78.2955496011953,214.54878492225487L78.66992395296356,218.5317621672625L80.72898288768891,224.0812948758582L82.64405168711879,229.39828509911277L83.04722406594614,215.93029064834025L83.69038000359927,222.96627427560526L83.82477079654171,228.07764076263152L84.26634054478119,233.00074234541643L84.29033890066377,236.60178160068227L85.03428793302375,241.6092948794105L85.25987247831999,247.04474410031014L85.84543236185495,250.29676577599253L86.20540770009364,252.32068285933053L86.88696100715892,257.48203265742006L87.25653568775064,257.56117934855365L89.08041073482671,251.15660208519793L89.56037785247831,253.85075819344135L90.069142997189,257.3397930679494L90.13153872248373,260.87111560623885L91.09627262896343,257.2319767938668L91.120270984846,259.1375774335297L92.56497200897732,261.2843203091932L93.71209342016463,265.47194369202003L96.74068593254623,261.13592197796896L99.5868909402202,262.444295684067L99.74048041786871,265.80679332192994L99.82207482786949,263.3224587442036L99.93726693610587,265.6463475268725L100.12925378316649,269.5078003337477L105.76406774439627,272.7421459113013L105.8024651138084,275.51785871455814L105.84086248322052,272.41375916115686L107.1271743585268,260.05050891364414L107.49194936794203,263.77434878858344L108.82625795501345,265.24579113195176L108.85505598207256,266.81161091419864L108.99904611736804,269.18095079936575L110.50614286679406,272.00298440948114L110.98610998444565,260.5709554158003L111.5140738138624,243.45690365229876L111.79245474210032,243.79544032165938L112.38761396798832,245.16707232921283L112.60359917093155,249.31498452831556L112.94437582446416,247.70403202910603L114.01950216800375,250.94160672871052L114.77785021389327,215.36486638110173L117.74884667215666,220.99669235575175L117.88323746509911,223.2108267202672L118.81917334451973,218.39653984549457L119.42873158393726,223.41081740387332L119.75510922394034,222.46808990809967L119.8319039627646,226.55938119190662L120.20147864335632,231.01331659072707L120.86383326571554,232.76798766746407L121.07501879748223,227.6783275857807L122.82689877691058,232.33808405141104L124.68437152222226,220.92522560056435L125.15953896869732,221.17719892369044L127.75136140401595,226.47428233640798L129.52244006815036,231.09148652517365L129.6904285593284,232.74629012531398L131.1303299122832,215.1785189182717L131.58149900287572,220.41200961900478L135.79561029585676,224.47283158326277L136.2323803729197,229.45002919088685L137.4274984958722,219.56824207671107L137.61948534293282,222.25460950503896L137.95546232528892,228.1101982172504L138.48342615470568,233.69562435343101L138.73780872706104,220.42196662665714L139.31856893941946,210.7423000158143L140.91205977002278,209.69551534178004L141.89599236120856,211.17856967665608L143.23990029063305,204.16776730032305L145.3901529777122,210.74509445855165L146.681264524195,216.83155003238312L146.90684906949124,222.88865009250077L147.4972086242027,227.74471847512086L148.44754351715287,233.05414870459742L148.5195385848006,238.73707253754833L149.85864684304858,244.27786458388258L152.1816876924823,246.47192491434643L152.37847421071947,250.08933881728683L152.6712541524869,255.47009351683494L153.20881732425673,258.5143487810559L153.66958575720224,253.97992155885174L156.9909582113513,244.80237957128034L157.84529968077115,245.37832846029187L157.90289573488934,244.72664276148637L159.46758853843355,247.98242107159118L160.33152935020644,253.3613080565289L160.69150468844512,241.61699209693253L160.9554866031535,247.26756678794837L161.03228134197775,250.9800601765286L161.2290678602149,255.7646562464949L161.9682172213984,257.8985379000341L162.17460308198855,246.0903416526343L163.04334356493797,245.5636531065966L163.16333534435086,250.5651456817776L164.21926300318435,254.98167278173787L166.15353048732032,258.7228504171857L167.19025946144777,262.69169166084674L167.3822463085084,267.5994857663833L167.42064367792054,269.7527820964318L169.38370918911556,274.33148323065535L169.54689800911711,278.36246551514836L170.7468158032461,282.285271597259L171.98513096678724,285.3194433936052L172.1531194579653,280.0101559795348L172.26351189502515,282.99886421103014L172.44589939973275,285.7333699430127L176.27123732741597,289.06216512641276L176.33363305271072,291.96999771158823L178.51748343802547,294.7261230594261L179.13664101979603,293.28555999492875L180.54294467451524,289.652813249843L181.03251113451986,292.7823037873222L181.3252910762873,295.68529669347123L184.2050937821969,296.13637428895305L186.5425336451602,298.61490197386814L186.61932838398445,301.6914548465832L187.4496714975217,304.367210127129L187.81924617811342,297.23611027367315L189.06716068400758,299.7678740267316L189.4223363510698,297.58752615685364L190.1566860410767,294.17062540382835L191.15981731696854,293.1408014838748L191.32780580814662,295.27239673651246L193.98202396875996,297.3663989822582L194.90836050582755,297.3986445428049L195.85389572760118,300.64500797696195L195.91149178171938,303.5763077276361L196.35786120113536,305.56232729636065L196.689038512315,307.62117830709343L196.7562339087862,292.865765326378L196.9338217423173,295.0908755528433L197.25060003996734,298.13268203367625L199.61203825881321,299.25549345032186L199.9720135970519,300.32200392921874L200.8743517782369,296.93824718735647L203.02940413649256,299.6479777285505L203.0342038076691,302.0496676012173L203.13499690237592,304.1224602785765L203.51417092532068,304.9198346753754L205.04046635945278,297.3632711919319L205.2036551794543,295.3315730608927L206.09639401828628,293.94589097937586L208.79860889066478,294.91032238742423L209.3937681165528,298.1496855777706L211.30403724480612,297.3931231968759L211.90879581304713,299.1830508312828L211.97119153834186,300.1055560767787L212.36956424599265,303.0036600763026L212.77273662482,305.7966674777161L213.367895850708,301.48365349551466L213.73747053129972,299.1107641652336L215.29736366366743,302.2328196775726L215.92612058779102,305.2233329043267L217.3708216119223,307.90151316685547L217.8459890583974,310.2436446308685L218.14836834251793,311.26345092753905L220.2218262907728,313.3809736631868L220.43301182253953,314.57913096279765L221.00417269254493,316.19043290213165L222.58806418079521,317.52426466346867L222.94323984785737,319.46915889098443L224.4791346243425,305.375131612578L224.93990305728803,308.02116997130895L225.83744156729654,310.57153388092564L226.2838109867125,312.4661392895981L226.59578961318604,314.5912058656639L228.90443144909025,313.7530481406044L231.19867427146485,315.92794963744643L231.33306506440732,318.1042311508293L231.64984336205737,319.4802213778136L232.19700587618019,320.84783302163174L232.48018647559462,322.7499199276997L233.38732432795612,324.4323250984936L233.44972005325087,326.2800573367591L233.47851808030993,328.0497350839772L233.62730788678195,324.9039821628038L234.6592371897329,326.2169623526259L241.9355386933311,326.2314544325759L243.84580782158446,301.3492960123455L244.6761509351217,297.4233737303833L244.6953496198278,240.57102567634794L244.77214435865204,245.25787426686563L244.911334822771,249.5422325560939L245.22811312042109,254.33816042253122L245.83287168866207,258.9056953344494L247.37356613632372,264.0647268963642L249.16864315634072,241.4195233392368L250.08058067987872,247.17482627481965L250.35896160811666,250.73126293557405L251.02131623047586,249.29789404911375L251.62127512754037,254.2656851608354L252.22123402460488,255.25380528906405L252.61480706107915,259.2311230228909L254.76505974815834,262.4964272043358L255.4802107534592,267.2514898877852L256.2913551822904,271.3852287986667L257.5824667287732,275.46263461453356L260.0254993576198,278.72848002807837L261.8397750623429,281.07306120664646L262.1181559905808,283.93681816201274L267.3977942847484,285.23101627991963L268.036150551225,288.8903548600215L268.0649485782841,292.4583416610219L268.23293706946214,290.862580047756L268.4345232588758,294.43398139780663L269.4712522330033,297.54129994356003L269.6344410530048,299.78959997863393L270.06161178771475,302.3914977727521L270.119207841833,299.57727364584844L270.287196333011,290.87886403146746L271.56870853714076,292.5905531785872L273.01340956127206,296.02991573053004L273.5653717465714,299.0432084286184L274.3909151889322,301.7494327311728L276.1619938530665,304.7389056399766L278.16825640485024,300.28710146775717L280.1697192854574,301.8009085640737L280.81287522311055,303.1252613681238L281.6480180078243,302.7210625474554L283.1503150860738,299.8092695964395L283.4814923972534,302.28868077068563L284.53262038491044,304.66898507376385L285.16617698021054,55.9122519878166L285.5837483725674,67.99060412490064L285.7901342331576,74.39095968495269L286.2173049678675,88.05893704089826L287.48441815846775,100.13282114265435L288.9675165520112,108.75287992513266L289.87945407554923,117.0433666411531L292.04410577615795,115.75837465041708L292.1736968979239,125.69066975737594L292.68726171381104,137.34173648745087L294.3479479408856,147.96034751215475L294.5351351167697,158.2999181117019L296.68058813267237,168.39621057326738L296.9013730067921,177.0734053974521L297.9860986926847,186.10008028983427L299.0756240497538,194.72935731663048L299.11402141916597,203.0183112942666L300.1219523662343,210.86048280547737L300.313939213295,218.05609654747676L301.32187016036335,223.97214186915883L302.24340702625443,230.57969754340203L304.2976662898032,235.88345466754154L304.6240439298063,220.35995343357104L306.77429661688547,226.11144430183552L308.1134048751334,232.81084099533768L308.83815522278735,238.69391456099896L311.3675819328113,233.8228416923879L313.4794372504783,239.75677460028515L315.13052413519983,242.3111088056914L315.90807086579537,248.1006480763923L316.32084258697574,251.19301431692423L316.61842219991973,256.52495954083514L318.0199261834624,261.59233998619595L318.2215123728761,266.41221173550673L320.304569663484,269.86200257182225L321.0149209976084,274.21132647720134L323.89472370351797,278.20438387728296L324.15390594704985,281.75053644061273L324.4658845735234,283.3217931774721L325.51221289000387,287.2125214246989L326.40495172883584,289.30551869139344L328.36321756885434,291.41057629075914L330.2590876835782,292.14338281079665L330.42227650357967,292.3899013239656L332.32774596065656,294.7877648435392L332.76931570889604,297.9009204077689L332.9037065018384,295.78768756693074L334.0508279130258,296.3202921597514L334.2332154177334,298.37319589482917L334.8043762877388,289.0013937602099L334.8859706977396,222.22183505025546L335.24594603597825,228.64894228555156L335.35633847303814,235.0035602619764L335.50512827951013,240.42900794984448L336.6714483754035,246.14378970311267L336.7386437718747,251.44579764157754L336.9690279883475,246.74176975501754L338.69690961189326,249.81088501364044L338.7545056660114,255.35064786784693L338.8313004048357,258.2442215495421L339.1288800177797,263.3025751763814L341.7159027819218,267.12702739492437L342.8198271525205,271.50068730481627L342.87742320663864,275.82412879993694L344.37012094253515,280.0853160998074L344.67729989783214,283.88347926905044L345.1380683307777,278.67185463601896L346.0692045390218,279.95177912418666L347.2691223331508,283.7970551208627L347.35551641432806,282.2125649266425L347.98427333845166,285.70796076560765L348.1378628161002,289.5047274813735L349.131394749639,291.9622825137584L350.2833158320028,295.40089904421745L351.0896605896575,298.3951342497106L352.1743862755501,301.40753064862264L352.5055635867297,302.6816104470884L353.038327087323,304.016548922071L353.20631557850106,303.1510665440614L355.7021445902894,298.4232160258627L356.4940903344145,300.80196976031584L357.58841536266016,302.2104681108848L357.61241371854277,304.55544429463725L358.96592099032017,307.172723203806L359.33069599973544,309.43537413507795L359.3642936979711,312.0873681330745L359.9546532526825,313.82167135681016L360.32902760445074,315.4953800708715L360.554612149747,315.36256291198106L360.79459570857284,316.799856393963L362.89685168388684,301.07992952571146L365.7526560339138,303.85159966999663L367.00537021098455,306.7816792902096L369.76038146630464,307.79558332920567L370.14435516042596,310.2375858254787L370.32674266513357,307.7921326840116L371.3394732833784,305.22318213906055L371.8770364551482,305.9608224628136L373.1873466863371,305.55608507674054L373.5569213669288,240.67578752913155L373.5905190651644,242.88522109702677L374.13768157928723,248.78238293039058L374.8864302828237,254.18160618148644L377.59344482637874,258.8561771605527L378.7885629493312,242.80229409551143L379.2925284228654,248.71563136821354L379.46531658521997,254.24594592284876L379.74849718463446,259.24266790539014L380.8860192534687,260.8304976415562L381.15000116817714,265.6514938242831L381.4763788081802,270.3529769269185L384.6153637576216,274.2176766878904L386.11286116469466,277.7798169587801L387.3703750129418,269.1490597529737L388.42150300059876,270.9345161988912L391.0421234629765,274.9598870406471L391.2869066929788,279.11833303317945L392.2324419147524,281.8200265753873L392.9235945641708,285.68495068505865L393.59074885770656,288.8317721980101L394.26270282241876,291.76516979018305L394.85306237713024,294.9543834154597L395.19383903066284,295.2823054273436L395.25143508478106,296.3053314612228L395.99538411714104,298.0415354264911L398.25122957010353,301.2167968634165L398.8175907689324,292.6754960628656L399.06717367011123,289.02304965523734L400.62226713130246,291.5891107704136L402.1149648671989,294.32220537599704L405.03316494252056,297.3173583542729L405.12915836605094,300.1966422670982L410.51438942610184,302.64297506323055L411.02315457081255,297.934923284693L414.6757043361412,300.21009198236493L415.9524168690944,302.49803806295876L418.00667613264324,299.86610105572004L418.71702746676766,302.8865758427968L420.9776725909067,305.54939707283955L421.5008367491469,299.50082602082136L421.9088087991508,302.1452467770712L422.14879235797656,305.01169319339584L423.3103127826935,307.87490237921605L425.90693488918856,310.1463577791969L426.0797230515432,311.9588681092346L427.3708345980259,312.4969954089565L428.77713825274515,309.41417603766064L429.6650774204006,309.40345222533267L430.524218560997,310.90324592748993L432.626474536311,305.0967442576405L433.4904153480838,307.41430456516485L433.5816091004376,294.18905026545605L434.7191311692719,297.01000206553084L435.7222624451638,290.79962637259695L435.85185356692966,291.7664826141985L436.06783876987294,294.05171426717897L437.901313159302,294.0856983984006L439.6627924810834,297.16324345360823L440.1715576257941,297.2202348414551L440.7235198110934,296.8217424335949L441.62585799227844,299.7227422377968L442.235416231696,298.10437483110604L443.8337067334758,293.79030711329557L445.1536163070176,293.295218300745L449.57411346058893,281.49404558874306L450.97081777295506,285.213484892103L451.4363858770771,286.8202536811766L451.5851756835491,290.24286341020746L453.5290425100381,293.3567529344783L454.62816720946023,295.22460175856565L454.7049619482845,298.4706873494314L455.07933630005266,299.8902459046136L455.5257057194687,297.1313108093181L457.575165311841,295.87885891126575L459.0966610747966,299.1546370275414L459.6390239177429,300.4486450172135L460.3253768959847,303.31549526572576L461.25651310422876,304.9491744493383L461.57329140187886,306.9016573235799L461.57809107305536,309.31735433044105L461.6356871271735,309.5859380394945L463.9635276477838,311.92205835789906L464.30910397249295,314.19104460912916L466.86252903839943,314.91315646407594L468.5904106619452,316.9371635179922L468.80159619371193,317.20865345457037L468.83999356312404,273.3524836415482L469.98231530313484,277.6574449291286L470.020712672547,271.90488119840415L470.75026269137743,266.9716409029245L472.2189620713913,259.122964448811L474.1484298843507,248.51978413455254L475.1611605025955,251.68408838898824L475.89551019260256,255.04017056076793L478.0601618932112,259.9509912032825L478.49213229909765,260.4226190170488L480.2680106344086,265.2351228567737L483.7957689491479,268.90603998818904L484.4245258732714,273.46387465438295L488.6818342068411,276.464084020057L492.25278956216897,278.36669059687165L494.20145605983447,279.85750953307974L494.2830504698352,282.89897308121203L494.5518320557201,286.08999191362096L495.59336070102404,289.5034626777707L495.97253472396886,292.9736307125457L499.90826508871197,276.6360213310596L500.47942595871734,261.8408830628339L500.8250022834265,261.8809580258645L501.9145276404957,266.7692565637436L502.57688226285484,271.3572560122107L503.2392368852141,275.6353906907288L504.0359823005157,279.2687773022501L504.39595763875445,280.2212365046084L505.06791160346665,272.085757642299L505.9606504422986,273.44918675870025L506.6374040781874,277.4342565545017L509.12843341879915,280.9777622096911L509.15243177468176,284.81489106214394L509.5412051399796,288.5143422092792L510.7987189882267,277.1252317247904L512.224221327652,270.0750353839142L512.9297729905998,274.6413808552691L514.2880799335538,279.023625382819L515.099224362385,283.1294805734186L515.5935904935661,286.32663943408886L516.6111207829875,289.9729501769479L517.5566560047612,292.2058759864373L519.5869169124275,295.6131106346313L519.6205146106631,298.86705085218796L519.9372929083131,302.0857226221387L520.1724767959624,304.9792909786295L522.596310740103,307.1887582376248L523.1242745695198,301.0708175165465L524.1850018995298,303.52063720708594L525.2697275854224,306.40628444674684L525.6153039101315,308.7863299795525L525.6968983201324,310.27857446559284L526.2200624783726,310.87809861765334L526.5848374877878,312.9377393083033L528.5623020125124,315.3240175418386L529.191058936636,317.3453984757719L529.2966517025193,319.60312909834005L529.8630129013482,318.7736353783113L531.8788747954849,320.9495206604016L532.195653093135,319.7127328417021L532.6708205396101,321.7595836996835L532.7236169225517,319.5195466766893L532.9108040984358,317.7898568255229L533.7555462255026,319.6704749936114L535.3538367272824,315.82538193371823L536.1073851019954,42.531401338158645L536.3857660302334,58.45347828933177L536.5201568231759,70.9544154170903L536.9233292020032,85.39320080998048L542.6253385597042,99.03935958629903L542.9325175150012,111.96306751404603L544.3484205120734,124.33170391775211L546.3402840503276,134.06964244864386L546.8778472220973,137.0788023071524L546.9834399879807,148.32973148096295L548.6921229268204,158.58650585709177L549.1528913597659,168.20684280767878L551.413536483905,175.15485338832798L551.6151226733186,184.04058692014695L552.8246398098006,192.48225208435912L553.0550240262735,200.95030302004918L553.1990141615689,207.10072273396852L554.4709270233457,210.6195321938619L556.1748102910088,218.13016854535482L557.9266902704371,225.1577262177907L558.3826590322062,231.4273536406702L558.502650811619,236.8167444055537L558.9058231904464,242.3112209405649L558.9778182580942,245.15196098027428L559.4865834028049,243.81269855351908L559.4913830739813,249.71002735633016L560.9072860710535,254.68961926191756L563.3359196863706,259.9758823196542L566.6860901675788,263.7707153438952L566.9308733975811,268.6082870889825L567.6940211146472,271.993942391884L567.7420178264123,275.7080273876614L568.725950417598,262.1053204166357L569.6426876123127,262.9412071634187L569.9018698558444,267.7280228529163L569.9786645946688,272.26403549644687L572.4696939352806,241.02710813673406L572.4888926199866,245.62282762958654L572.8008712464601,250.79818161010908L573.794403179999,249.65756046921538L573.9287939729414,255.32842452149293L576.3094308764934,257.1376124025149L576.3142305476698,262.3355516052756L576.7701993094388,267.2866453483653L577.4997493282692,270.8995971904366L578.4020875094543,275.51275635184146L578.4212861941604,279.7593456680231L581.1043023818328,278.2271740836962L581.5746701571313,282.4388318824503L584.0177027859779,286.4427564019912L587.0654939830656,277.97246300332887L587.9102361101325,281.05474802696784L588.2798107907241,284.55090387449195L590.0700881395646,287.0708618481567L590.9244296089845,290.41697778012286L592.3883293178219,293.96316526968945L596.0840761237391,291.8490912338604L596.4056540925658,295.38396164510687L597.2071991790439,285.53041920170693L599.4006489067117,289.23558434679086L599.5206406861246,292.54949396195997L600.1685962949542,295.95748305001274L602.2900509549743,299.05627938046985L602.7316207032137,300.4936656591582L604.2483167949928,300.3324573805927L606.5713576444266,303.4073814806617L607.1857155550206,302.1374493788728L607.449697469729,305.14372856588983L608.6928123044466,307.35392762933895L610.5022883379931,310.04191234883274L611.3278317803539,311.1177166418685L613.8236607921422,307.8385214300802L614.6540039056795,310.2836027083862L614.8123930545045,308.25150487255667L616.8282549486412,310.5497562574553L619.151295798075,311.02906321360365L619.2760872486643,313.56070088928186L620.9751708451511,314.2046796546465L622.5542626622248,310.9458774788927L623.6773857175295,313.4115823100044L624.2149488892993,315.63551377547435L626.984359158149,317.9683466522859L627.6707121363909,319.240464243838L628.3282670875735,318.67482869916313L630.444922076417,320.62286027760274L631.2800648611308,322.05564994854365L635.3069889782277,323.80701405783947L635.4461794423466,325.64635697832796L636.3341186100021,326.1572259083352L636.5645028264748,312.22064656014925L636.9532761917726,314.71276842582495L637.5724337735433,317.04489112058303L639.3147144106185,319.2579693813702L639.4107078341489,321.2969854063016L639.4299065188549,323.17250566715484L639.5306996135618,317.30652155666996L640.4474368082763,318.014198176532L641.0857930747529,319.6367851391011L642.2089161300577,321.81685014165805L644.1959799971353,322.49533639734636L645.6694790483257,324.2387796968047L645.8422672106802,313.75295496359695L645.9622589900931,314.7571124250121L647.5557498206965,306.36768828674207L648.4004919477633,309.071689655825L648.5492817542353,311.65526772958435L650.2147676524862,313.72951164609265L651.9810466454442,313.77041051413954L652.3650203395655,313.284989511944L652.8593864707466,315.67888359922216L653.1185687142785,316.4252190643183L655.4800069331243,318.4548228303565L657.0063023672564,320.5274215158473L658.0046339719718,322.4115213366357L660.1548866590509,324.40737430303955L661.2924087278852,325.75073708890307L665.7657022643981,327.5748266909985L666.5048516255815,329.17038256814317L666.76883354029,329.62031559470756L666.927222689115,331.1790574877298L667.234401644412,332.19881619715426L667.4935838879438,333.64759628099273L667.5559796132385,327.63427286378817L668.583109245013,327.0726283207844L674.145928138595,328.82527177570836L675.2114551397815,330.21444354726316L676.2481841139089,330.8642651356623L676.6561561639128,332.40591192004956L678.489630553342,329.6750803453508L678.9887963556996,331.14542509759497L680.7070786368923,332.07334558016925L681.0142575921893,333.5611789595359L681.503824052194,334.8502207213952L681.7630062957259,336.0412212521328L681.8589997192562,334.546163351628L682.1469799898472,335.93092584919935L683.2221063333867,324.7387714982918L685.2907646104651,325.44639428899706L686.2986955575334,325.94913801643025L686.3418925981221,327.578909345359L689.9272469669795,318.22405652613173L691.3143519369927,320.47163852333534L691.4775407569942,322.23466576602084L691.885512806998,324.0608768243113L692.3846786093557,325.9830788346107L692.4326753211209,327.28641005993325L692.5766654564163,324.2439518826566L693.0230348758323,326.07883542444955L693.8341793046635,327.4955744446411L694.8661086076145,329.2520793718632L697.0067619523406,330.9286780694565L697.0499589929293,329.6965470315L697.5875221646991,331.404141945832L697.8467044082308,332.89910347391344L698.6338504811795,334.36482900678055L698.7442429182394,335.49197313091526L699.085019571772,336.7745896261683L702.535983147687,334.4398106666072L702.7567680218067,335.21276428780226L703.3471275765182,335.334462567712L705.5837743447746,333.1056794065615L705.6461700700693,327.7409446013787L706.7260960847855,329.3945957119535L707.4028497206742,330.0955184535045L709.409112272458,331.18516035165914L711.0889971842385,332.50079869245326L712.6392909742532,304.53295994074585L713.5704271824972,307.40022810339104L713.5752268536738,305.9002386901582L713.7288163313224,308.6851892850922L718.4564924401906,311.27019688962685L718.9652575849012,313.8861011253443L719.5412181260831,316.20556382069117L720.376360910797,318.4344507643113L720.8467286860954,320.53934093209034L721.8546596331637,288.7831830578807L723.5441438872974,291.84985532976515L723.7505297478876,295.2620091949957L732.8171086003263,298.6017532332772L732.9898967626808,299.2530114318449L734.4825944985773,301.06753564480164L734.655382660932,304.05805127836777L738.3751278227318,306.98017476224715L738.3799274939083,309.45883797434504L739.2774660039169,311.7927888994338L743.1220026163062,313.754171046962L743.4723786121917,316.21851089504145L743.8947496757252,318.02584772167825L743.9091486892548,301.176807027967L744.8450845686752,303.8894034489953L745.8914128851559,305.77881227165216L745.9058118986853,308.53354293139785L746.2321895386884,311.1530152992509L747.4753043734062,308.5031499828366L747.8784767522334,309.9897537432711L748.5120333475336,312.63658675717585L748.8576096722427,315.17023372644127L749.1839873122458,317.4394755262363L749.26078205107,319.4445634953088L749.6831531146034,307.0215603486067L749.8271432498989,309.5477366761397L752.0061939640373,312.1321066294613L752.2989739058046,313.23386887559644L752.841336748751,315.61435932896524L753.455694659345,317.0243123920069L753.9644598040558,319.1363507157276L754.3916305387656,321.0060946606119L754.9147946970058,322.9682136933893L757.4538207493829,324.534732899921L758.9417188141027,325.39477258822626L760.4584149058818,327.03990537494536L761.3655527582433,328.63430034336034L761.8167218488359,329.97266488117754L762.0375067229555,325.7331780968742L762.2438925835457,326.27625367123665L762.5030748270776,327.5082912203878L767.4707344947716,327.1456927842671L769.1554190777288,327.3426718317405L769.1650184200818,328.03006088975593L770.571322074801,329.60541632721856L771.1280839312769,330.47807818933404L772.4575928471718,331.65801710052324L774.9246238319009,333.1294784721637L775.9709521483816,334.2427350899157L779.4315150666495,335.64306678148216L780.1466660719504,319.9870969506514L781.2457907713725,321.69487593561286L783.4152421431577,248.72984479268627L784.83114514023,254.1254108553439L785.9158708261225,259.4873870348395L786.1222566867127,264.1886974489871L786.5782254484818,268.1288586588439L787.0965899355455,272.7789496304514L789.1220511720353,276.96263245616944L790.2019771867514,281.06673810155576L792.0018538779449,265.5700325369335L793.6193430644307,270.32165800599813L793.705737145608,274.9048561865748L794.9440523091491,279.05810350900043L795.8223921344517,127.00081058818729L795.9519832562175,121.37402807290097L800.3772800809652,132.8762750004968L800.727656076851,143.5007722923247L800.9436412797942,154.1939483722165L801.0108366762653,164.0373706311409L801.1116297709722,173.68556660385045L801.5004031362699,181.76027358898529L802.1483587450996,190.12907309073768L803.8282436568803,197.08447681352195L804.8601729598311,205.05053049257103L805.7913091680753,212.66247634526843L807.2408098633831,219.7986418762142L808.1527473869212,216.1575987836174L808.3783319322174,215.20146966017856L809.5638507128168,220.7350451043023L810.6773744257684,227.47382155021413L811.58451227813,234.08470759919618L811.9540869587217,240.47444976694774L813.4659833793243,246.58393490920523L813.7299652940327,252.242482408218L814.7906926240428,256.43702740120017L816.8065545181795,242.90691605873087L819.359979584086,248.8468958477625L820.0895296029164,252.4547428845768L820.1567249993876,257.79642544532686L821.0590631805725,261.5152854943578L821.2462503564568,224.19181337700343L821.2990467393984,229.76836204257927L821.5630286541068,235.87936753066114L822.1677872223478,241.6179897805661L824.1596507606018,247.06322564764628L824.9371974911975,243.75485866234325L826.8234682635683,247.53254814642773L827.788202170048,252.86513180836167L827.93699197652,217.56682661106115L828.1385781659337,224.35827304340233L828.7385370629983,230.06646239168697L830.0440476230104,236.5463260110821L830.8887897500773,242.39621389597696L830.931986790666,248.20815262091216L833.2262296130406,253.65241982218637L834.1765645059908,256.232674359564L834.3589520106983,261.18483020470336L834.5701375424651,266.307673400879L834.8341194571735,268.27351236437136L835.909245800713,269.7019570869996L836.0196382377729,273.40655606024654L836.5332030536601,249.82191449671978L837.1139632660186,255.41911556784555L838.0930961860279,258.70443162005233L838.318680731324,261.137620674555L839.4178054307462,265.90031195858444L839.7441830707493,263.30884796859874L839.9409695889864,266.9174760935039L840.1809531478121,266.1993645344534L841.174485081351,269.9763865308062L842.7151795290127,273.94239563700097L843.5983190254917,278.3241411726839L844.8318345178562,275.3308316090214L846.3917276502239,279.3117582006078L846.6845075919914,283.16719060155276L847.0012858896414,286.93595183643123L849.7946945143738,281.4293247595615L850.2506632761427,272.63465659392784L852.4633116885167,274.3643507998289L852.9432788061681,275.8504707860961L852.9576778196978,278.5845204742506L853.3368518426424,282.22616318400446L853.9272113973541,285.9800217900309L855.1415282050126,287.77580745583333L855.4295084756035,290.7449117547225L855.9670716473734,174.8206106599024L857.8149450503319,182.75382235531623L858.4053046050434,188.7396450484299L858.8564736956359,196.0693120616529L862.3842320103753,201.40370346606804L863.1905767680298,206.22651320542974L863.3057688762663,213.7919507858906L864.0881152780382,216.28807395122064L865.4224238651097,221.2056818592699L866.420755469825,227.40851556028403L868.7437963192588,233.99973235157174L872.698725368708,233.24319577986216L872.9627072834164,238.88504042168483L873.0011046528285,244.9150276166599L873.303483936949,250.28440861060133L873.8938434916605,255.6648235127461L874.3258138975469,258.68181843780064L875.2233524075554,258.9147407158957L875.4297382681456,263.30644208767626L875.9145050569738,262.9679696244944L875.9625017687388,267.13784099260397L876.5000649405087,271.7679788611095L878.0311600458172,275.60240006640913L878.4151337399385,274.82900174998923L879.1494834299455,279.11787616712064L880.354200895251,280.52902688641734L881.1365472970231,283.8519844983241L881.851698302324,287.2932164183828L882.8884272764515,281.6452178175223L885.0482793058836,31.021701166688814L885.3410592476511,38.416000843672535L886.6081724382512,53.417552464373685L886.7281642176642,68.52085173187426L888.9552116435676,80.85763252428447L889.823952126517,94.01850986051602L890.9326761682922,104.6329821573244L891.1006646594703,113.98291942431172L891.1390620288824,121.2990673679886L891.8158156647711,132.877272849539L892.660557791838,135.7189915435581L896.3899022959909,147.0376789870561L898.96732571778,154.69203091221482L899.7448724483754,165.04479790746132L900.037652390143,171.59290984970204L900.604013588972,180.0295736282229L901.9191234913372,185.27347280004744L903.3590248442921,189.2663116609293L904.995712715484,197.71450008182916L907.3235532360942,203.50937099223725L909.1282295984644,210.43105820094067L909.5122032925855,217.52464322867382L910.5873296361252,220.5752385230403L910.7937154967153,227.22643129877153L911.8448434843724,233.0094590178343L912.195219480258,236.91796240500167L914.0430928832167,239.7313214504673L914.734245532635,245.6002398095741L915.0366248167555,251.2236502313644L915.458995880289,254.96346501364633L916.3421353767678,253.1073733252855L916.3805327461799,258.19168977002874L916.5725195932406,261.6219679174566L916.9756919720678,264.8310519162468L918.3915949691401,269.0119881320053L918.7563699785553,270.22260864434224L919.6251104615046,274.56319123777195L920.4602532462186,271.7120134727987L923.4840460874235,275.1878365914055L923.748028002132,279.478162918479L925.3559178462649,283.3118943908957L925.7254925268566,281.81271305733634L928.6388929310017,255.46863762295797L928.8980751745336,259.4709752175125L931.13472194279,264.35766364486574L932.0226611104456,266.26237237426153L932.809807183394,270.59359778568574L934.3744999869384,274.3520356304496L934.4848924239982,278.5006175004183L935.209642771652,280.5695346983493L935.2576394834173,282.2412703881156L935.8767970651878,276.5312670736874L937.5182846075563,277.46679517942L937.6670744140283,280.53963785635506L939.6061415693408,283.5274249578178L939.7261333487537,281.9337699580645L941.3580215487691,281.5807760130354L942.4427472346617,283.72738915577446L942.7163284917232,287.2530537067321L943.7818554929097,290.3499731415262L944.4154120882098,293.1806040533266L945.0729670393924,295.3607019070687L945.0825663817454,296.5476682291202L945.7977173870464,292.3592864258292L947.2376187400012,294.9611994343476L947.3720095329437,296.12839502331946L947.515999668239,271.4346467688985L948.3271440970703,273.10928166126394L948.3607417953059,272.30315590427875L950.3670043470896,276.5266892039599L950.9957612712133,280.23006014584035L952.0228909029876,283.3535152369199L952.3204705159316,286.96176283766783L954.3747297794805,288.27067077998913L954.5139202435994,288.2108861904025L954.8402978836025,289.7335502490889L955.6562419836102,293.1630714235583L955.6994390241988,296.0773146447557L956.2897985789102,294.9918922022374L956.6257755612664,298.1708565240559L957.1729380753892,301.09439705966645L957.4417196612741,302.4241177157616L958.5024469912842,305.2156292190665L959.0160118071714,296.7871396123326L961.6606306254317,299.55924789386796L961.8430181301393,298.3830266381018L963.7916846278048,301.45939598288436L964.4684382636935,303.1711149774034L965.5531639495862,302.9481353631843L966.3547090360643,256.7851381961576L968.1305873713752,251.77313554726962L968.370570930201,253.22056199577665L969.4360979313875,255.03013924110533L970.3096380855135,260.2271854596562L970.7464081625764,257.8167697644784L972.0135213531767,247.49263007505346L975.133307617912,248.8205302087127L976.6452040385145,253.50343009620772L976.7028000926327,258.5248338388965L977.0915734579306,263.2861982174007L977.1443698408722,261.49243827812336L977.5043451791109,264.1299319575951L977.7827261073488,269.0421033988012L978.7186619867695,271.602921662582" style="fill: none;" fill="none"></path></g></g></g></g><g opacity="0.2"><g><g><g><path style="fill: none;" stroke="rgb(51, 187, 238)" stroke-width="2px" d="M19.96034612182009,356.9248783014629L21.021073451830123,364.96057215899316L21.457843528893076,341.7864734009473L21.947409988897707,338.217400697077L22.648161980669038,352.66971333435947L23.713688981855586,349.77088092674796L24.22245412656628,355.31633881578915L25.787146930110488,353.6505502815283L26.036729831289318,-1632.9217078001157L28.10058843719119,166.14734480555146L28.19658186072151,321.83295112668185L30.802803309569686,355.4540029327877L31.714740833107722,315.4167944468442L31.829932941344104,322.64821950386914L33.586612591948956,-16800.39488786243L34.34496063783848,147.81552086524198L34.46015274607487,-329.04452048971103L35.904853770206174,278.3068000961978L38.56867127317254,277.4301036572867L38.8566515437635,304.0199362260628L40.694925604369125,262.65242276903905L43.219552643216524,251.81902320827476L43.68512074733857,322.80602170183806L44.04509608557728,-72.0056527408358L44.2034852344023,274.25543454655036L44.525063203228875,272.29546802707483L44.96663295146834,220.4432462920155L45.98896291206624,292.9578565744568L46.78090865619138,273.6318371943763L46.94409747619292,-476.6705147254195L47.49605966149226,308.2837191729814L47.572854400316515,326.8586433469991L47.84163598620142,296.690419259789L48.92636167209403,274.4685964507651L49.1903435868024,190.06144021566718L50.31826631328366,265.3352930528844L51.09101337270273,305.8660971645993L51.666973913884654,337.27031715757994L52.3437275497734,18.25900129627709L54.47958122332302,-73.81779095983134L54.61397201626546,329.9320054430826L55.477912828038335,328.37307445149753L55.89068454921871,303.07456630031277L57.1194003704068,47.63040746887744L58.583300079244175,320.9410526046506L59.81681557160878,234.79390461671343L59.845613598667875,345.8896071387081L60.15279255396491,330.5303249128592L60.349579072202054,35.73333624496648L60.51756756338011,293.1425774815785L60.79594849161805,-357.6291949451205L60.91114059985443,303.9640191794235L62.71581696222443,218.97985342608533L63.195784079876034,-91.28440632814558L63.382971255760154,315.1931013047471L63.55575941811473,322.5147988684857L63.709348895763235,341.223948494052L65.40363282107339,164.65651748264176L65.60041933931053,263.25773602890234L66.00359171813788,344.58920514343964L66.27717297519929,340.48743564186583L66.38756541225916,339.40828946428735L66.54115488990766,318.37572707348846L66.68514502520314,350.00136093591243L67.08831740403049,319.4568343405858L67.36669833226841,331.0912152318841L67.70267531462454,347.86887676837796L68.92179179345959,338.2785376108341L69.27216778934526,287.5798378810834L69.8817260287628,334.77376285578833L70.17930564170678,290.5027555042429L71.69600173348583,225.23742180844386L72.15197049525486,261.8790173102112L75.51653998999255,70.18352754924607L75.74692420646532,140.4064539559436L76.51487159470787,254.62678765133498L76.75005548235715,201.8614676630096L78.0843640694286,273.0340605075948L78.2955496011953,320.53579127198583L78.66992395296356,292.89272261504215L80.72898288768891,327.78101674263394L82.64405168711879,328.8360912222486L83.04722406594614,-36.14750314349186L83.69038000359927,354.75701965597045L83.82477079654171,323.8872121540687L84.26634054478119,325.3443120646608L84.29033890066377,304.1908899936147L85.03428793302375,335.6547370901821L85.25987247831999,349.18674868146445L85.84543236185495,311.4420340865007L86.20540770009364,290.39485606777185L86.88696100715892,354.6264553901035L87.25653568775064,259.05154630906L89.08041073482671,130.50130066122875L89.56037785247831,304.6274414141898L90.069142997189,323.12422979244985L90.13153872248373,327.478538960739L91.09627262896343,188.5658047920497L91.120270984846,295.1064703393483L92.56497200897732,301.8182378683227L93.71209342016463,344.56572198029437L96.74068593254623,179.21488076680654L99.5868909402202,287.17056702499104L99.74048041786871,329.3699484525624L99.82207482786949,216.34772607358477L99.93726693610587,309.59795693555463L100.12925378316649,342.5560980954643L105.76406774439627,333.94063463047036L105.8024651138084,328.0492555236411L105.84086248322052,213.65593834344406L107.1271743585268,25.981443239939495L107.49194936794203,334.289038924489L108.82625795501345,293.11375383287196L108.85505598207256,296.471767136773L108.99904611736804,314.0684299833133L110.50614286679406,325.47455086869354L110.98610998444565,43.92840284228216L111.5140738138624,-80.9051310473771L111.79245474210032,250.2125103204123L112.38761396798832,271.16985671363415L112.60359917093155,327.9580471841772L112.94437582446416,217.1576498059542L114.01950216800375,312.3376967358161L114.77785021389327,-459.3631489763945L117.74884667215666,327.8164036983619L117.88323746509911,265.21029075299623L118.81917334451973,127.06780100806738L119.42873158393726,318.5408828372457L119.75510922394034,204.58148842740997L119.8319039627646,304.1899333645811L120.20147864335632,315.5305501167032L120.86383326571554,266.0664903750494L121.07501879748223,131.08569286005394L122.82689877691058,320.77699488465356L124.68437152222226,4.305360657528756L125.15953896869732,225.9599845137669L127.75136140401595,327.02485140269334L129.52244006815036,318.74051467952074L129.6904285593284,264.16105171048616L131.1303299122832,-118.34180173521054L131.58149900287572,319.7726758141537L135.79561029585676,301.5726795139239L136.2323803729197,323.9518470026833L137.4274984958722,31.93676675877654L137.61948534293282,273.26395926064L137.95546232528892,339.30088289973145L138.48342615470568,339.75936608071487L138.73780872706104,-31.64352728327567L139.31856893941946,26.92146852087159L140.91205977002278,189.81614389443848L141.89599236120856,239.34376539648665L143.23990029063305,71.02017034644817L145.3901529777122,335.6629308258173L146.681264524195,332.42903805939096L146.90684906949124,337.93084870896234L147.4972086242027,319.97749424949325L148.44754351715287,333.89954117459445L148.5195385848006,346.67827498987765L149.85864684304858,349.5210967675749L152.1816876924823,288.1471022609514L152.37847421071947,318.8014561082145L152.6712541524869,357.67794187574367L153.20881732425673,316.34096048210273L153.66958575720224,167.84595195454807L156.9909582113513,70.46782106099019L157.84529968077115,256.3190477746568L157.90289573488934,232.3470971042947L159.46758853843355,309.8304261092204L160.33152935020644,355.54166758557085L160.69150468844512,18.51334816001449L160.9554866031535,354.6109528006892L161.03228134197775,321.50649107084155L161.2290678602149,346.6585829891849L161.9682172213984,298.4366124643197L162.17460308198855,21.76445608978805L163.04334356493797,235.55783528885246L163.16333534435086,345.5820966562453L164.21926300318435,338.8861176655812L166.15353048732032,329.7975241972489L167.19025946144777,338.091913843787L167.3822463085084,360.83845599622595L167.42064367792054,310.6616119616746L169.38370918911556,361.31912777171686L169.54689800911711,354.9447081927244L170.7468158032461,356.8126511584292L171.98513096678724,342.96434577441636L172.1531194579653,179.1409458202832L172.26351189502515,339.780443113878L172.44589939973275,337.68560853769867L176.27123732741597,352.30537596786144L176.33363305271072,347.21558232359723L178.51748343802547,347.0895922002505L179.13664101979603,265.9163079352955L180.54294467451524,220.63408962495188L181.03251113451986,352.23978864947L181.3252910762873,350.8396632765249L184.2050937821969,304.70647976864433L186.5425336451602,345.70500269077303L186.61932838398445,360.1436890833054L187.4496714975217,355.2046846103614L187.81924617811342,161.74996237521265L189.06716068400758,347.86978348633147L189.4223363510698,256.1622271612614L190.1566860410767,229.25146218875622L191.15981731696854,273.57470564479013L191.32780580814662,335.77160804328514L193.98202396875996,337.1514164872231L194.90836050582755,298.0112951960037L195.85389572760118,362.3244788577775L195.91149178171938,359.2697725875695L196.35786120113536,343.2959071585595L196.689038512315,346.73856757453126L196.7562339087862,12.518228873381823L196.9338217423173,337.36720912128015L197.25060003996734,355.926017215525L199.61203825881321,320.5885639205844L199.9720135970519,320.58539040774707L200.8743517782369,232.6478113613625L203.02940413649256,351.13214116557674L203.0342038076691,347.6811715945973L203.13499690237592,343.50502626529334L203.51417092532068,320.069767358664L205.04046635945278,153.7901932460967L205.2036551794543,256.72972445950273L206.09639401828628,267.6182008970595L208.79860889066478,313.2343409697051L209.3937681165528,359.6970176713509L211.30403724480612,283.01856410101425L211.90879581304713,333.191392373253L211.97119153834186,317.63301692886756L212.36956424599265,358.0672217845703L212.77273662482,358.86342880835696L213.367895850708,219.53694426414432L213.73747053129972,254.0261577144794L215.29736366366743,361.5515109007603L215.92612058779102,362.042753427072L217.3708216119223,358.7866567288792L217.8459890583974,354.74390863914L218.14836834251793,330.63967385027894L220.2218262907728,353.61371486466584L220.43301182253953,337.3440171061016L221.00417269254493,346.80503873496457L222.58806418079521,342.8669650980577L222.94323984785737,356.4220064935086L224.4791346243425,37.58959585869197L224.93990305728803,358.2957235472822L225.83744156729654,359.0282877051696L226.2838109867125,348.46352881358797L226.59578961318604,354.96735014620873L228.90443144909025,297.82809657682236L231.19867427146485,357.2509666237386L231.33306506440732,359.4534739569005L231.64984336205737,345.62397205237477L232.19700587618019,346.83239416606744L232.48018647559462,358.8894917504503L233.38732432795612,356.3979566316424L233.44972005325087,361.3869002595801L233.47851808030993,361.6735489504123L233.62730788678195,265.1347836074525L234.6592371897329,351.1635435534171L241.9355386933311,326.5068035069731L243.84580782158446,-171.4109886971578L244.6761509351217,222.83095908570093L244.6953496198278,-839.6220917684316L244.77214435865204,334.30788035719326L244.911334822771,330.9449383341411L245.22811312042109,345.4606817152329L245.83287168866207,345.68876079348604L247.37356613632372,362.08622155855164L249.16864315634072,-188.83890634143665L250.08058067987872,356.5254763216286L250.35896160811666,318.30349742219886L251.02131623047586,222.06390897106115L251.62127512754037,348.65363803772254L252.22123402460488,274.0280729400724L252.61480706107915,334.80010342826426L254.76505974815834,324.5371625564887L255.4802107534592,357.5976198707001L256.2913551822904,349.92621772532715L257.5824667287732,352.93329790715563L260.0254993576198,340.7795069635784L261.8397750623429,325.62007910023635L262.1181559905808,338.34817188596315L267.3977942847484,309.82076831523824L268.036150551225,358.4177550980956L268.0649485782841,360.25006051285817L268.23293706946214,260.54312229816986L268.4345232588758,362.29057961616877L269.4712522330033,356.5803296383752L269.6344410530048,342.50728505921325L270.06161178771475,351.82753872578945L270.119207841833,246.10703284151933L270.287196333011,125.6091330577116L271.56870853714076,325.1126373090185L273.01340956127206,361.37778576850013L273.5653717465714,356.2957543369918L274.3909151889322,353.1676813787027L276.1619938530665,361.53887715863254L278.16825640485024,215.70284164578592L280.1697192854574,330.56323711087003L280.81287522311055,328.28795942305163L281.6480180078243,295.04128646885357L283.1503150860738,244.48521388912002L283.4814923972534,349.39748469922785L284.53262038491044,349.89475918752174L285.16617698021054,-4670.464917669149L285.5837483725674,297.4792597201103L285.7901342331576,195.99769770193987L286.2173049678675,347.75047104956457L287.48441815846775,329.53658907095L288.9675165520112,272.53397644142194L289.87945407554923,274.562595651453L292.04410577615795,91.34352956434033L292.1736968979239,314.40425668516906L292.68726171381104,358.7119819545761L294.3479479408856,349.71393758352593L294.5351351167697,354.75174155925924L296.68058813267237,360.2257506974502L296.9013730067921,341.9400934663369L297.9860986926847,357.606889813998L299.0756240497538,358.6856086279539L299.11402141916597,360.5084257384435L300.1219523662343,359.86173151408724L300.313939213295,354.77274892487316L301.32187016036335,336.3769961697684L302.24340702625443,356.1232481268887L304.2976662898032,336.65483451516445L304.6240439298063,-74.58655468821811L306.77429661688547,335.38976540528733L308.1134048751334,360.0993722035121L308.83815522278735,350.4723073295003L311.3675819328113,141.272461105219L313.4794372504783,352.5014953178807L315.13052413519983,290.8434568549131L315.90807086579537,358.1018902287089L316.32084258697574,309.9479708619036L316.61842219991973,357.8319154779501L318.0199261834624,357.87256545308384L318.2215123728761,357.98977226616273L320.304569663484,335.4080266216864L321.0149209976084,356.8484784754569L323.89472370351797,354.07247255658933L324.15390594704985,349.1274335221278L324.4658845735234,313.17567049515185L325.51221289000387,361.1363565161581L326.40495172883584,329.0724659379253L328.36321756885434,331.40666989458197L330.2590876835782,306.0667064321912L330.42227650357967,297.0737529913022L332.32774596065656,340.3471709496358L332.76931570889604,357.05087518360176L332.9037065018384,255.63626420010272L334.0508279130258,306.4397792775054L334.2332154177334,337.378366327291L334.8043762877388,110.93715551841454L334.8859706977396,-1046.5897647613695L335.24594603597825,350.76397832275865L335.35633847303814,355.74130046766L335.50512827951013,343.512512927295L336.6714483754035,354.7246419224415L336.7386437718747,352.1839475092649L336.9690279883475,157.36524072217L338.69690961189326,308.12407442430873L338.7545056660114,360.60614123496396L338.8313004048357,313.22212107361565L339.1288800177797,359.41129337531305L341.7159027819218,339.79161903654386L342.8198271525205,354.60022503792925L342.87742320663864,357.9695166861915L344.37012094253515,361.0478743094863L344.67729989783214,356.0485790715635L345.1380683307777,179.65098714691828L346.0692045390218,304.2703442737359L347.2691223331508,356.8572986991277L347.35551641432806,252.10725137682647L347.98427333845166,352.12048141177394L348.1378628161002,361.64329477736567L349.131394749639,338.65582794240925L350.2833158320028,360.73461287482L351.0896605896575,355.2856029488297L352.1743862755501,358.6430620317797L352.5055635867297,326.889126539116L353.038327087323,329.38037986828476L353.20631557850106,286.7069014101998L355.7021445902894,208.59405643086197L356.4940903344145,345.9982905950609L357.58841536266016,328.97193670426924L357.61241371854277,349.10999167929214L358.96592099032017,356.9010223649388L359.33069599973544,352.42574173637945L359.3642936979711,362.4752539916065L359.9546532526825,346.7734325435475L360.32902760445074,347.29584557914035L360.554612149747,312.8390368975026L360.79459570857284,344.10843250597446L362.89685168388684,2.401319503205854L365.7526560339138,356.51333233197334L367.00537021098455,362.4531919944738L369.76038146630464,327.0597600439045L370.14435516042596,356.63563319465595L370.32674266513357,261.32852305322706L371.3394732833784,256.41312184196465L371.8770364551482,319.97598859857953L373.1873466863371,297.86607474945424L373.5569213669288,-992.0498646417569L373.5905190651644,284.86445884712407L374.13768157928723,360.8284576631041L374.8864302828237,356.76684786428433L377.59344482637874,347.6730256904138L378.7885629493312,-62.22148390406819L379.2925284228654,361.06903946690005L379.46531658521997,359.32192238748206L379.74849718463446,354.1803855106445L380.8860192534687,290.9992626096816L381.15000116817714,357.250421241208L381.4763788081802,359.6811558261419L384.6153637576216,347.64697210664787L386.11286116469466,345.4604820709129L387.3703750129418,105.16467292268541L388.42150300059876,304.8581886555952L391.0421234629765,351.4419330003216L391.2869066929788,358.1288068582333L392.2324419147524,333.1522038569308L392.9235945641708,359.11850874108205L393.59074885770656,348.6213809226369L394.26270282241876,347.499724022473L394.85306237713024,355.5494422760967L395.19383903066284,301.5128236512204L395.25143508478106,315.7428260992478L395.99538411714104,331.02941075743183L398.25122957010353,361.54676414908846L398.8175907689324,130.39078089305713L399.06717367011123,219.6265679268179L400.62226713130246,340.34427194773855L402.1149648671989,346.25100287092795L405.03316494252056,354.2252649299021L405.12915836605094,354.90303660017173L410.51438942610184,349.123298181186L411.02315457081255,208.48193950813004L414.6757043361412,343.43829723094666L415.9524168690944,345.9690135873776L418.00667613264324,249.85929792568592L418.71702746676766,360.275596789076L420.9776725909067,356.14300043680316L421.5008367491469,184.5779760472566L421.9088087991508,352.3892411396787L422.14879235797656,359.47417509724227L423.3103127826935,362.2758769038023L425.90693488918856,353.30401037431096L426.0797230515432,346.3965643765241L427.3708345980259,322.72141410270564L428.77713825274515,250.84060798830066L429.6650774204006,309.1996997911181L430.524218560997,339.39932626616866L432.626474536311,194.77321253899694L433.4904153480838,351.4479504049055L433.5816091004376,42.90921858845223L434.7191311692719,350.60808626341435L435.7222624451638,172.80248821425306L435.85185356692966,310.13675120353287L436.06783876987294,337.4711156713503L437.901313159302,294.731396891577L439.6627924810834,355.63659949956644L440.1715576257941,298.3030712104929L440.7235198110934,289.25038668460036L441.62585799227844,354.84173851521876L442.235416231696,267.3553941052602L443.8337067334758,211.8230204781372L445.1536163070176,283.8885308626372L449.57411346058893,57.27176406870616L450.97081777295506,355.8828316535453L451.4363858770771,317.3488606725935L451.5851756835491,355.2724482598042L453.5290425100381,352.52065389390583L454.62816720946023,330.7137294152456L454.7049619482845,360.14631357426265L455.07933630005266,326.8618584524032L455.5257057194687,244.71154399994447L457.575165311841,272.0822728488067L459.0966610747966,361.3944212354493L459.6390239177429,325.0347968204843L460.3253768959847,357.785649986408L461.25651310422876,335.98907893740756L461.57329140187886,343.99883193352645L461.57809107305536,355.21559746004306L461.6356871271735,314.68902851142997L463.9635276477838,356.3083444069246L464.30910397249295,357.3017833818892L466.86252903839943,328.6332817078796L468.5904106619452,355.3932975419098L468.80159619371193,322.36696224949236L468.83999356312404,-559.9147427962552L469.98231530313484,359.45170939225926L470.020712672547,162.60617031577917L470.75026269137743,173.24007528973846L472.2189620713913,109.99811182205599L474.1484298843507,47.05935816544196L475.1611605025955,311.80586922275614L475.89551019260256,318.80573182406886L478.0601618932112,353.2565834103444L478.49213229909765,269.3835474785445L480.2680106344086,356.6726958109139L483.7957689491479,338.653465484622L484.4245258732714,360.06273331152715L488.6818342068411,333.4680619675254L492.25278956216897,314.5162155561477L494.20145605983447,308.18306932088205L494.2830504698352,340.6867804954308L494.5518320557201,346.71934972909855L495.59336070102404,354.35940719631736L495.97253472396886,358.90682337298426L499.90826508871197,-33.7785569158907L500.47942595871734,-19.266744032349774L500.8250022834265,262.6423823234435L501.9145276404957,359.64692878311706L502.57688226285484,358.529245532792L503.2392368852141,356.9199495823118L504.0359823005157,348.3031229209451L504.39595763875445,298.31796134936286L505.06791160346665,117.51165925884459L505.9606504422986,299.3543399702567L506.6374040781874,353.1505826745422L509.12843341879915,348.30436965813124L509.15243177468176,357.7203392585849L509.5412051399796,358.80391400470023L510.7987189882267,60.73213251994025L512.224221327652,136.12130490752344L512.9297729905998,361.40194481085393L514.2880799335538,362.2862714061217L515.099224362385,361.1407291946835L515.5935904935661,347.0726577867283L516.6111207829875,359.25285429116695L517.5566560047612,334.6314663666762L519.5869169124275,360.3505689502308L519.6205146106631,360.69191498568455L519.9372929083131,363.2404862511289L520.1724767959624,359.9570897518912L522.596310740103,349.16863615849127L523.1242745695198,184.82994381618013L524.1850018995298,350.06721132728813L525.2697275854224,361.2335820002524L525.6153039101315,354.0071951028196L525.6968983201324,338.63121970033535L526.2200624783726,322.2690575067936L526.5848374877878,352.07091243062354L528.5623020125124,360.66330397897514L529.191058936636,355.75163622047904L529.2966517025193,362.50001092710625L529.8630129013482,303.0132546977756L531.8788747954849,362.2913410200925L532.195653093135,296.21376428642475L532.6708205396101,360.6497500013096L532.7236169225517,276.95884323982034L532.9108040984358,284.9257496533779L533.7555462255026,355.40222018727604L535.3538367272824,242.76861379577943L536.1073851019954,-5150.0542299753315L536.3857660302334,360.9729403615021L536.5201568231759,308.4722208444139L536.9233292020032,359.7301232747967L542.6253385597042,358.3163763362652L542.9325175150012,357.51351814115986L544.3484205120734,359.3357955880969L546.3402840503276,319.0904745355331L546.8778472220973,194.2528396187995L546.9834399879807,362.0973857833081L548.6921229268204,353.46521900349063L549.1528913597659,350.9932448687904L551.413536483905,307.16705442063284L551.6151226733186,352.86952402467125L552.8246398098006,352.8738902043581L553.0550240262735,361.84327079812994L553.1990141615689,323.95869729841485L554.4709270233457,277.4769119318239L556.1748102910088,360.8322592236983L557.9266902704371,358.6813219940509L558.3826590322062,350.5502746753629L558.502650811619,339.21516893832546L558.9058231904464,346.70627510576395L558.9778182580942,299.1260217347452L559.4865834028049,218.36671244517362L559.4913830739813,361.75927460972764L560.9072860710535,349.30186546806794L563.3359196863706,360.4148804166395L566.6860901675788,335.8725428044662L566.9308733975811,360.5221502456325L567.6940211146472,336.32139314700754L567.7420178264123,346.27564230742684L568.725950417598,3.65388796716843L569.6426876123127,278.82305535229426L569.9018698558444,358.67752095336374L569.9786645946688,358.44827572352244L572.4696939352806,-352.4745116977708L572.4888926199866,332.9414979937783L572.8008712464601,349.12990724003083L573.794403179999,227.9857587922373L573.9287939729414,363.07484151475967L576.3094308764934,291.5121821419306L576.3142305476698,361.0963964577241L576.7701993094388,361.35742646706575L577.4997493282692,339.54568218978835L578.4020875094543,363.16278041852934L578.4212861941604,360.4445426754716L581.1043023818328,249.11591398148488L581.5746701571313,362.46033005877604L584.0177027859779,362.51732227326386L587.0654939830656,117.03688842875079L587.9102361101325,339.61816347610636L588.2798107907241,350.9778649774478L590.0700881395646,334.95006334778645L590.9244296089845,353.9931804874781L592.3883293178219,361.34072757145236L596.0840761237391,251.68168455311044L596.4056540925658,362.54649945878714L597.2071991790439,98.31311277711285L599.4006489067117,359.63372210338326L599.5206406861246,355.513776650172L600.1685962949542,360.7092757230151L602.2900509549743,357.93340965915297L602.7316207032137,327.8040049542358L604.2483167949928,297.2695000878497L606.5713576444266,361.8309393819711L607.1857155550206,278.0087394448839L607.449697469729,362.26303311921276L608.6928123044466,349.34770983487243L610.5022883379931,361.11362201921304L611.3278317803539,331.55799820954775L613.8236607921422,245.53381240610332L614.6540039056795,356.74014699619954L614.8123930545045,269.64164599179605L616.8282549486412,354.2165325705285L619.151295798075,320.13589538042226L619.2760872486643,361.6618167271671L620.9751708451511,326.4402761965747L622.5542626622248,249.0286361395718L623.6773857175295,360.2599741011254L624.2149488892993,357.8902116194032L626.984359158149,362.29217131170475L627.6707121363909,343.4106984833287L628.3282670875735,307.92775335034116L630.444922076417,357.6354602679549L631.2800648611308,349.27865369642024L635.3069889782277,357.08293213446024L635.4461794423466,360.59387246760866L636.3341186100021,335.8637355784726L636.5645028264748,47.4256389446179L636.9532761917726,362.0630838736633L637.5724337735433,361.35522232098543L639.3147144106185,361.3064563363255L639.4107078341489,360.03828987999873L639.4299065188549,358.8073906233672L639.5306996135618,205.8528234574568L640.4474368082763,331.4600539539107L641.0857930747529,350.4659374279139L642.2089161300577,363.2380851902408L644.1959799971353,335.3865752554233L645.6694790483257,357.36420238651414L645.8422672106802,114.52228503265009L645.9622589900931,333.8361041919001L647.5557498206965,146.96862965961088L648.4004919477633,360.44771566840194L648.5492817542353,360.7432511310115L650.2147676524862,353.140146059749L651.9810466454442,314.54748900703134L652.3650203395655,304.0619904702289L652.8593864707466,361.162871257507L653.1185687142785,330.6055929011445L655.4800069331243,357.0172943850817L657.0063023672564,359.9067965401736L658.0046339719718,358.20941793161523L660.1548866590509,362.3285806647124L661.2924087278852,351.2746300203097L665.7657022643981,362.2325291308125L666.5048516255815,359.48594423389034L666.76883354029,338.16904309943106L666.927222689115,360.7951534551524L667.234401644412,351.574231676219L667.4935838879438,361.1744178739234L667.5559796132385,213.3811279369021L668.583109245013,316.401382003713L674.145928138595,362.1254974192638L675.2114551397815,356.60870720680407L676.2481841139089,343.210875315247L676.6561561639128,361.69720082340615L678.489630553342,277.78928042607436L678.9887963556996,359.081975390235L680.7070786368923,349.70383474908033L681.0142575921893,361.83001316750193L681.503824052194,359.342014196722L681.7630062957259,358.67023133614674L681.8589997192562,306.14006324203774L682.1469799898472,362.24141330305457L683.2221063333867,112.08783883104748L685.2907646104651,338.89122731239735L686.2986955575334,335.5012688376608L686.3418925981221,358.54456459500585L689.9272469669795,140.48185296081397L691.3143519369927,363.1756964702035L691.4775407569942,355.73218337704463L691.885512806998,358.7588869318309L692.3846786093557,362.5049170302992L692.4326753211209,352.0497033410613L692.5766654564163,266.4372465143997L693.0230348758323,360.9416227185163L693.8341793046635,354.41361582828046L694.8661086076145,362.62567298908334L697.0067619523406,362.78405332372904L697.0499589929293,306.2860573103274L697.5875221646991,363.84844531813985L697.8467044082308,361.30337250746L698.6338504811795,362.21361413125595L698.7442429182394,356.9077114894744L699.085019571772,361.14430303597516L702.535983147687,290.0790104349473L702.7567680218067,349.89888309050764L703.3471275765182,337.64672988599824L705.5837743447746,290.75879934470066L705.6461700700693,225.81098330290658L706.7260960847855,360.8139668128741L707.4028497206742,343.41305054297425L709.409112272458,351.88835641659733L711.0889971842385,357.4979271675414L712.6392909742532,-226.85597634169446L713.5704271824972,361.8783231936497L713.5752268536738,277.4004398387333L713.7288163313224,361.5992505888376L718.4564924401906,360.3853413757862L718.9652575849012,363.58828160397604L719.5412181260831,360.2753550322822L720.376360910797,360.78330269309225L720.8467286860954,360.5322541198923L721.8546596331637,-314.5838165521016L723.5441438872974,350.1166284955701L723.7505297478876,360.09293263437644L732.8171086003263,362.0568899606246L732.9898967626808,311.62691720463243L734.4825944985773,335.54349569097866L734.655382660932,360.8778483161248L738.3751278227318,362.5005209559551L738.3799274939083,356.55343900420496L739.2774660039169,356.1378564761195L743.1220026163062,351.0204318499982L743.4723786121917,363.0409680085516L743.8947496757252,352.3652474277775L743.9091486892548,-18.954966152546053L744.8450845686752,355.428735448532L745.8914128851559,341.6775799021327L745.9058118986853,360.8734254665659L746.2321895386884,360.9229902884596L747.4753043734062,258.1557089709645L747.8784767522334,338.235225191526L748.5120333475336,362.926414021366L748.8576096722427,363.3095261424848L749.1839873122458,360.55506972234235L749.26078205107,357.54123490768575L749.6831531146034,70.98450056126677L749.8271432498989,357.545086899267L752.0061939640373,361.23513574257123L752.2989739058046,334.16735155216486L752.841336748751,360.8436779429721L753.455694659345,343.81342058979794L753.9644598040558,359.2650788664201L754.3916305387656,356.5312296134141L754.9147946970058,360.24847531616075L757.4538207493829,354.29859782402286L758.9417188141027,341.7355266660258L760.4584149058818,358.2974283226088L761.3655527582433,358.927804743244L761.8167218488359,355.401591099705L762.0375067229555,245.1829291951108L762.2438925835457,336.59468958412253L762.5030748270776,350.917004654259L767.4707344947716,320.25632249797616L769.1554190777288,331.0852737337345L769.1650184200818,341.09045299204854L770.571322074801,359.53716963900854L771.1280839312769,347.0586535695285L772.4575928471718,354.076856413117L774.9246238319009,361.0872445333342L775.9709521483816,355.39461082720265L779.4315150666495,362.2493689212455L780.1466660719504,22.523670164865994L781.2457907713725,354.1426766498818L783.4152421431577,-1137.6057469229183L784.83114514023,356.6411660458381L785.9158708261225,361.36493444525786L786.1222566867127,353.51359531779156L786.5782254484818,342.9919216461226L787.0965899355455,361.13067809099266L789.1220511720353,356.4526061448122L790.2019771867514,359.0447453638962L792.0018538779449,-28.86737319088929L793.6193430644307,360.6025419182252L793.705737145608,361.9856216175323L794.9440523091491,357.96980263508743L795.8223921344517,-2762.08775490726L795.9519832562175,14.465160282461099L800.3772800809652,351.4189666248173L800.727656076851,345.3662208370549L800.9436412797942,357.3642938901608L801.0108366762653,351.0623935507035L801.1116297709722,357.0012900853318L801.5004031362699,335.1797063065466L802.1483587450996,349.13626362403306L803.8282436568803,329.2371475464224L804.8601729598311,356.4055503945032L805.7913091680753,357.2894475465202L807.2408098633831,355.38578696418233L808.1527473869212,146.97778002427964L808.3783319322174,197.03501631484062L809.5638507128168,325.8729785426534L810.6773744257684,355.510574022538L811.58451227813,359.69154252985504L811.9540869587217,361.8795509542273L813.4659833793243,362.6641526120972L813.7299652940327,359.7548848894602L814.7906926240428,336.13338226786175L816.8065545181795,-14.165199448185373L819.359979584086,361.70651183936366L820.0895296029164,321.00383658404814L820.1567249993876,359.28839409957743L821.0590631805725,332.1736264259467L821.2462503564568,-484.95415685272854L821.2990467393984,335.7227866885208L821.5630286541068,351.98847180421495L822.1677872223478,350.65181252876084L824.1596507606018,350.52270712217006L824.9371974911975,180.89588594158582L826.8234682635683,319.3086483440323L827.788202170048,354.18422138510624L827.93699197652,-453.1009721376483L828.1385781659337,353.395755257885L828.7385370629983,338.52206000909405L830.0440476230104,359.6637347795896L830.8887897500773,353.54408370897926L830.931986790666,358.6349883946808L833.2262296130406,357.093496646396L834.1765645059908,305.25751056973866L834.3589520106983,355.2757912623508L834.5701375424651,363.6416941282176L834.8341194571735,305.6244526707248L835.909245800713,296.8424068169366L836.0196382377729,343.79393655193854L836.5332030536601,-198.2862752102883L837.1139632660186,361.7659359192343L838.0930961860279,321.12543661198225L838.318680731324,307.3682127101049L839.4178054307462,356.3914463551434L839.7441830707493,214.07103215887108L839.9409695889864,335.48141046670133L840.1809531478121,252.55524491249423L841.174485081351,341.7398044615084L842.7151795290127,349.29656865470173L843.5983190254917,361.5773063506593L844.8318345178562,218.45794989943425L846.3917276502239,354.94936344074966L846.6845075919914,356.42040621950576L847.0012858896414,358.54241529912287L849.7946945143738,176.80341029903582L850.2506632761427,105.53596144688919L852.4633116885167,307.22854071195L852.9432788061681,304.08675052517117L852.9576778196978,330.5314645491862L853.3368518426424,351.4173746693277L853.9272113973541,357.3033353045333L855.1415282050126,321.89573510607937L855.4295084756035,347.1578934336175L855.9670716473734,-2027.7411101416776L857.8149450503319,333.4848445681792L858.4053046050434,302.47027621758974L858.8564736956359,335.3329853128895L862.3842320103753,302.75714014995447L863.1905767680298,297.85989825330284L863.3057688762663,357.53526481464644L864.0881152780382,263.714414092492L865.4224238651097,314.64023211220564L866.420755469825,345.26235587955154L868.7437963192588,359.23285138603825L872.698725368708,218.86900091738028L872.9627072834164,346.08008861631436L873.0011046528285,359.4847843211872L873.303483936949,352.30264749548746L873.8938434916605,357.8927066534967L874.3258138975469,316.00472201383684L875.2233524075554,263.34026399970094L875.4297382681456,346.74876815150856L875.9145050569738,256.53699282403926L875.9625017687388,346.3653969866854L876.5000649405087,359.740598362714L878.0311600458172,348.4564029671022L878.4151337399385,260.13443373801096L879.1494834299455,360.6064900926169L880.354200895251,307.3408905530554L881.1365472970231,346.9881791245526L881.851698302324,352.6766228994985L882.8884272764515,174.33324440117178L885.0482793058836,-4730.825115199142L885.3410592476511,178.90769470636388L886.6081724382512,338.44703325769547L886.7281642176642,355.48353781438436L888.9552116435676,315.25646758007804L889.823952126517,344.075179248917L890.9326761682922,306.30795579668234L891.1006646594703,291.631727497071L891.1390620288824,260.30587829784963L891.8158156647711,352.8631769989965L892.660557791838,189.7116467299216L896.3899022959909,362.09274041351745L898.96732571778,300.1247174902305L899.7448724483754,361.74737081714494L900.037652390143,296.0070367522748L900.604013588972,340.32618542011943L901.9191234913372,284.9075570647138L903.3590248442921,265.13025001768483L904.995712715484,358.23008007892577L907.3235532360942,313.6119182899903L909.1282295984644,341.9431151663059L909.5122032925855,352.30275875560335L910.5873296361252,278.53654911600296L910.7937154967153,353.599094037665L911.8448434843724,342.88698568002724L912.195219480258,311.1795267611815L914.0430928832167,293.1851433143148L914.734245532635,357.10968863260297L915.0366248167555,358.0684482453801L915.458995880289,326.01994587700324L916.3421353767678,217.84163124642848L916.3805327461799,354.79370222015035L916.5725195932406,326.7972527185853L916.9756919720678,325.8036478932611L918.3915949691401,348.44977623141654L918.7563699785553,293.2243983787437L919.6251104615046,357.03426051293593L920.4602532462186,217.53963593830701L923.4840460874235,341.2284758449347L923.748028002132,360.99436313287566L925.3559178462649,356.1527923668129L925.7254925268566,253.3282677197086L928.6388929310017,-245.06879563023037L928.8980751745336,335.51538951404734L931.13472194279,357.2047437645773L932.0226611104456,302.4518382327823L932.809807183394,352.8868806027452L934.3744999869384,345.7623546809627L934.4848924239982,357.32367302982374L935.209642771652,319.87896145903767L935.2576394834173,314.0042484936755L935.8767970651878,168.04120409955212L937.5182846075563,295.2418291883388L937.6670744140283,338.92364871812134L939.6061415693408,340.2953798856108L939.7261333487537,251.65432496275093L941.3580215487691,274.87389105748326L942.4427472346617,324.51303886781653L942.7163284917232,354.24068017492647L943.7818554929097,349.19144240261386L944.4154120882098,346.9625913775335L945.0729670393924,336.7825611281699L945.0825663817454,319.1000283480986L945.7977173870464,212.78003216329978L947.2376187400012,344.39754659619643L947.3720095329437,318.3051112137859L947.515999668239,-197.74657006509986L948.3271440970703,304.9273446162075L948.3607417953059,256.98676652156075L950.3670043470896,356.7738218979017L950.9957612712133,350.59410804156863L952.0228909029876,342.6991619674315L952.3204705159316,355.5184672518789L954.3747297794805,313.1399216840938L954.5139202435994,287.07497898825613L954.8402978836025,318.6641673641302L955.6562419836102,358.3239737384757L955.6994390241988,351.44793584750715L956.2897985789102,274.3688657943893L956.6257755612664,358.5711786386077L957.1729380753892,356.64166723626647L957.4417196612741,327.6888101815698L958.5024469912842,358.25434778185996L959.0160118071714,136.64583708438846L961.6606306254317,352.2293052430393L961.8430181301393,276.03482277854516L963.7916846278048,359.91041353375317L964.4684382636935,335.69377587326426L965.5531639495862,298.71152269302166L966.3547090360643,-620.3118079773491L968.1305873713752,156.54508521839827L968.370570930201,280.72166451740935L969.4360979313875,289.41210690235016L970.3096380855135,358.9710636121225L970.7464081625764,212.01887155610137L972.0135213531767,51.33397597597974L975.133307617912,274.0506327482375L976.6452040385145,342.4785279586134L976.7028000926327,353.9315049499825L977.0915734579306,353.7521214089796L977.1443698408722,227.41099943185426L977.5043451791109,314.24231186755924L977.7827261073488,362.37336078171705L978.7186619867695,320.25846867441663" fill="none"></path></g></g></g></g></g></g><g transform="translate(40, 374)" clip-path="url(#clip_1)"><clipPath id="clip_1"><rect width="1403" height="26"></rect></clipPath><g><g><line x1="18.78922635475019" y1="0" x2="18.78922635475019" y2="5" style="visibility: inherit;" fill="rgb(0, 0, 0)" stroke="rgb(204, 204, 204)" stroke-width="1px"></line><line x1="114.78264988506979" y1="0" x2="114.78264988506979" y2="5" style="visibility: inherit;" fill="rgb(0, 0, 0)" stroke="rgb(204, 204, 204)" stroke-width="1px"></line><line x1="210.77607341538936" y1="0" x2="210.77607341538936" y2="5" style="visibility: inherit;" fill="rgb(0, 0, 0)" stroke="rgb(204, 204, 204)" stroke-width="1px"></line><line x1="306.76949694570897" y1="0" x2="306.76949694570897" y2="5" style="visibility: inherit;" fill="rgb(0, 0, 0)" stroke="rgb(204, 204, 204)" stroke-width="1px"></line><line x1="402.7629204760285" y1="0" x2="402.7629204760285" y2="5" style="visibility: inherit;" fill="rgb(0, 0, 0)" stroke="rgb(204, 204, 204)" stroke-width="1px"></line><line x1="498.7563440063481" y1="0" x2="498.7563440063481" y2="5" style="visibility: inherit;" fill="rgb(0, 0, 0)" stroke="rgb(204, 204, 204)" stroke-width="1px"></line><line x1="594.7497675366677" y1="0" x2="594.7497675366677" y2="5" style="visibility: inherit;" fill="rgb(0, 0, 0)" stroke="rgb(204, 204, 204)" stroke-width="1px"></line><line x1="690.7431910669872" y1="0" x2="690.7431910669872" y2="5" style="visibility: inherit;" fill="rgb(0, 0, 0)" stroke="rgb(204, 204, 204)" stroke-width="1px"></line><line x1="786.7366145973068" y1="0" x2="786.7366145973068" y2="5" style="visibility: inherit;" fill="rgb(0, 0, 0)" stroke="rgb(204, 204, 204)" stroke-width="1px"></line><line x1="882.7300381276265" y1="0" x2="882.7300381276265" y2="5" style="visibility: inherit;" fill="rgb(0, 0, 0)" stroke="rgb(204, 204, 204)" stroke-width="1px"></line><line x1="978.7234616579459" y1="0" x2="978.7234616579459" y2="5" style="visibility: inherit;" fill="rgb(0, 0, 0)" stroke="rgb(204, 204, 204)" stroke-width="1px"></line><line x1="1074.7168851882657" y1="0" x2="1074.7168851882657" y2="5" style="visibility: inherit;" fill="rgb(0, 0, 0)" stroke="rgb(204, 204, 204)" stroke-width="1px"></line><line x1="1170.710308718585" y1="0" x2="1170.710308718585" y2="5" style="visibility: inherit;" fill="rgb(0, 0, 0)" stroke="rgb(204, 204, 204)" stroke-width="1px"></line><line x1="1266.703732248905" y1="0" x2="1266.703732248905" y2="5" style="visibility: inherit;" fill="rgb(0, 0, 0)" stroke="rgb(204, 204, 204)" stroke-width="1px"></line><line x1="1362.6971557792244" y1="0" x2="1362.6971557792244" y2="5" style="visibility: inherit;" fill="rgb(0, 0, 0)" stroke="rgb(204, 204, 204)" stroke-width="1px"></line></g><g transform="translate(0, 8)"><text x="18.78922635475019" y="0" dx="0em" dy="0.95em" style="text-anchor: middle; visibility: inherit; font-family: Roboto, sans-serif; font-size: 12px; font-weight: 200;" fill="rgb(33, 33, 33)" stroke="none" stroke-width="1px">0</text><text x="114.78264988506979" y="0" dx="0em" dy="0.95em" style="text-anchor: middle; visibility: inherit; font-family: Roboto, sans-serif; font-size: 12px; font-weight: 200;" fill="rgb(33, 33, 33)" stroke="none" stroke-width="1px">20k</text><text x="210.77607341538936" y="0" dx="0em" dy="0.95em" style="text-anchor: middle; visibility: inherit; font-family: Roboto, sans-serif; font-size: 12px; font-weight: 200;" fill="rgb(33, 33, 33)" stroke="none" stroke-width="1px">40k</text><text x="306.76949694570897" y="0" dx="0em" dy="0.95em" style="text-anchor: middle; visibility: inherit; font-family: Roboto, sans-serif; font-size: 12px; font-weight: 200;" fill="rgb(33, 33, 33)" stroke="none" stroke-width="1px">60k</text><text x="402.7629204760285" y="0" dx="0em" dy="0.95em" style="text-anchor: middle; visibility: inherit; font-family: Roboto, sans-serif; font-size: 12px; font-weight: 200;" fill="rgb(33, 33, 33)" stroke="none" stroke-width="1px">80k</text><text x="498.7563440063481" y="0" dx="0em" dy="0.95em" style="text-anchor: middle; visibility: inherit; font-family: Roboto, sans-serif; font-size: 12px; font-weight: 200;" fill="rgb(33, 33, 33)" stroke="none" stroke-width="1px">100k</text><text x="594.7497675366677" y="0" dx="0em" dy="0.95em" style="text-anchor: middle; visibility: inherit; font-family: Roboto, sans-serif; font-size: 12px; font-weight: 200;" fill="rgb(33, 33, 33)" stroke="none" stroke-width="1px">120k</text><text x="690.7431910669872" y="0" dx="0em" dy="0.95em" style="text-anchor: middle; visibility: inherit; font-family: Roboto, sans-serif; font-size: 12px; font-weight: 200;" fill="rgb(33, 33, 33)" stroke="none" stroke-width="1px">140k</text><text x="786.7366145973068" y="0" dx="0em" dy="0.95em" style="text-anchor: middle; visibility: inherit; font-family: Roboto, sans-serif; font-size: 12px; font-weight: 200;" fill="rgb(33, 33, 33)" stroke="none" stroke-width="1px">160k</text><text x="882.7300381276265" y="0" dx="0em" dy="0.95em" style="text-anchor: middle; visibility: inherit; font-family: Roboto, sans-serif; font-size: 12px; font-weight: 200;" fill="rgb(33, 33, 33)" stroke="none" stroke-width="1px">180k</text><text x="978.7234616579459" y="0" dx="0em" dy="0.95em" style="text-anchor: middle; visibility: inherit; font-family: Roboto, sans-serif; font-size: 12px; font-weight: 200;" fill="rgb(33, 33, 33)" stroke="none" stroke-width="1px">200k</text><text x="1074.7168851882657" y="0" dx="0em" dy="0.95em" style="text-anchor: middle; visibility: inherit; font-family: Roboto, sans-serif; font-size: 12px; font-weight: 200;" fill="rgb(33, 33, 33)" stroke="none" stroke-width="1px">220k</text><text x="1170.710308718585" y="0" dx="0em" dy="0.95em" style="text-anchor: middle; visibility: inherit; font-family: Roboto, sans-serif; font-size: 12px; font-weight: 200;" fill="rgb(33, 33, 33)" stroke="none" stroke-width="1px">240k</text><text x="1266.703732248905" y="0" dx="0em" dy="0.95em" style="text-anchor: middle; visibility: inherit; font-family: Roboto, sans-serif; font-size: 12px; font-weight: 200;" fill="rgb(33, 33, 33)" stroke="none" stroke-width="1px">260k</text><text x="1362.6971557792244" y="0" dx="0em" dy="0.95em" style="text-anchor: middle; visibility: inherit; font-family: Roboto, sans-serif; font-size: 12px; font-weight: 200;" fill="rgb(33, 33, 33)" stroke="none" stroke-width="1px">280k</text></g><line x1="0" y1="0" x2="1403.15625" y2="0" fill="rgb(0, 0, 0)" stroke="rgb(204, 204, 204)" stroke-width="1px"></line></g></g></g></g></svg>