<svg viewBox="0 0 1444 400" xmlns="http://www.w3.org/2000/svg"><g><g><g><g><g><line x1="51.125" y1="350.0112970981225" x2="46.125" y2="350.0112970981225" style="visibility: inherit;" fill="rgb(0, 0, 0)" stroke="rgb(204, 204, 204)" stroke-width="1px"></line><line x1="51.125" y1="309.2547930063298" x2="46.125" y2="309.2547930063298" style="visibility: inherit;" fill="rgb(0, 0, 0)" stroke="rgb(204, 204, 204)" stroke-width="1px"></line><line x1="51.125" y1="268.49828891453717" x2="46.125" y2="268.49828891453717" style="visibility: inherit;" fill="rgb(0, 0, 0)" stroke="rgb(204, 204, 204)" stroke-width="1px"></line><line x1="51.125" y1="227.7417848227445" x2="46.125" y2="227.7417848227445" style="visibility: inherit;" fill="rgb(0, 0, 0)" stroke="rgb(204, 204, 204)" stroke-width="1px"></line><line x1="51.125" y1="186.98528073095184" x2="46.125" y2="186.98528073095184" style="visibility: inherit;" fill="rgb(0, 0, 0)" stroke="rgb(204, 204, 204)" stroke-width="1px"></line><line x1="51.125" y1="146.2287766391592" x2="46.125" y2="146.2287766391592" style="visibility: inherit;" fill="rgb(0, 0, 0)" stroke="rgb(204, 204, 204)" stroke-width="1px"></line><line x1="51.125" y1="105.47227254736653" x2="46.125" y2="105.47227254736653" style="visibility: inherit;" fill="rgb(0, 0, 0)" stroke="rgb(204, 204, 204)" stroke-width="1px"></line><line x1="51.125" y1="64.71576845557385" x2="46.125" y2="64.71576845557385" style="visibility: inherit;" fill="rgb(0, 0, 0)" stroke="rgb(204, 204, 204)" stroke-width="1px"></line><line x1="51.125" y1="23.95926436378122" x2="46.125" y2="23.95926436378122" style="visibility: inherit;" fill="rgb(0, 0, 0)" stroke="rgb(204, 204, 204)" stroke-width="1px"></line></g><g transform="translate(41.125, 0)"><text x="0" y="350.0112970981225" dx="0em" dy="0.3em" style="text-anchor: end; visibility: inherit; font-family: Roboto, sans-serif; font-size: 12px; font-weight: 200;" fill="rgb(33, 33, 33)" stroke="none" stroke-width="1px">-170</text><text x="0" y="309.2547930063298" dx="0em" dy="0.3em" style="text-anchor: end; visibility: inherit; font-family: Roboto, sans-serif; font-size: 12px; font-weight: 200;" fill="rgb(33, 33, 33)" stroke="none" stroke-width="1px">-160</text><text x="0" y="268.49828891453717" dx="0em" dy="0.3em" style="text-anchor: end; visibility: inherit; font-family: Roboto, sans-serif; font-size: 12px; font-weight: 200;" fill="rgb(33, 33, 33)" stroke="none" stroke-width="1px">-150</text><text x="0" y="227.7417848227445" dx="0em" dy="0.3em" style="text-anchor: end; visibility: inherit; font-family: Roboto, sans-serif; font-size: 12px; font-weight: 200;" fill="rgb(33, 33, 33)" stroke="none" stroke-width="1px">-140</text><text x="0" y="186.98528073095184" dx="0em" dy="0.3em" style="text-anchor: end; visibility: inherit; font-family: Roboto, sans-serif; font-size: 12px; font-weight: 200;" fill="rgb(33, 33, 33)" stroke="none" stroke-width="1px">-130</text><text x="0" y="146.2287766391592" dx="0em" dy="0.3em" style="text-anchor: end; visibility: inherit; font-family: Roboto, sans-serif; font-size: 12px; font-weight: 200;" fill="rgb(33, 33, 33)" stroke="none" stroke-width="1px">-120</text><text x="0" y="105.47227254736653" dx="0em" dy="0.3em" style="text-anchor: end; visibility: inherit; font-family: Roboto, sans-serif; font-size: 12px; font-weight: 200;" fill="rgb(33, 33, 33)" stroke="none" stroke-width="1px">-110</text><text x="0" y="64.71576845557385" dx="0em" dy="0.3em" style="text-anchor: end; visibility: inherit; font-family: Roboto, sans-serif; font-size: 12px; font-weight: 200;" fill="rgb(33, 33, 33)" stroke="none" stroke-width="1px">-100</text><text x="0" y="23.95926436378122" dx="0em" dy="0.3em" style="text-anchor: end; visibility: inherit; font-family: Roboto, sans-serif; font-size: 12px; font-weight: 200;" fill="rgb(33, 33, 33)" stroke="none" stroke-width="1px">-90</text></g><line x1="51.125" y1="0" x2="51.125" y2="374" fill="rgb(0, 0, 0)" stroke="rgb(204, 204, 204)" stroke-width="1px"></line></g></g><g transform="translate(51, 0)" clip-path="url(#clip_0)"><clipPath id="clip_0"><rect width="1392" height="374"></rect></clipPath><g><g><g><line x1="11.569195745214227" y1="0" x2="11.569195745214227" y2="374" fill="rgb(0, 0, 0)" stroke="rgb(66, 66, 66)" stroke-width="1px" opacity="0.25"></line><line x1="176.0062062797784" y1="0" x2="176.0062062797784" y2="374" fill="rgb(0, 0, 0)" stroke="rgb(66, 66, 66)" stroke-width="1px" opacity="0.25"></line><line x1="340.44321681434263" y1="0" x2="340.44321681434263" y2="374" fill="rgb(0, 0, 0)" stroke="rgb(66, 66, 66)" stroke-width="1px" opacity="0.25"></line><line x1="504.88022734890677" y1="0" x2="504.88022734890677" y2="374" fill="rgb(0, 0, 0)" stroke="rgb(66, 66, 66)" stroke-width="1px" opacity="0.25"></line><line x1="669.317237883471" y1="0" x2="669.317237883471" y2="374" fill="rgb(0, 0, 0)" stroke="rgb(66, 66, 66)" stroke-width="1px" opacity="0.25"></line><line x1="833.7542484180352" y1="0" x2="833.7542484180352" y2="374" fill="rgb(0, 0, 0)" stroke="rgb(66, 66, 66)" stroke-width="1px" opacity="0.25"></line><line x1="998.1912589525995" y1="0" x2="998.1912589525995" y2="374" fill="rgb(0, 0, 0)" stroke="rgb(66, 66, 66)" stroke-width="1px" opacity="0.25"></line><line x1="1162.6282694871636" y1="0" x2="1162.6282694871636" y2="374" fill="rgb(0, 0, 0)" stroke="rgb(66, 66, 66)" stroke-width="1px" opacity="0.25"></line><line x1="1327.0652800217279" y1="0" x2="1327.0652800217279" y2="374" fill="rgb(0, 0, 0)" stroke="rgb(66, 66, 66)" stroke-width="1px" opacity="0.25"></line></g><g><line x1="0" y1="350.0112970981225" x2="1392.875" y2="350.0112970981225" fill="rgb(0, 0, 0)" stroke="rgb(66, 66, 66)" stroke-width="1px" opacity="0.25"></line><line x1="0" y1="309.2547930063298" x2="1392.875" y2="309.2547930063298" fill="rgb(0, 0, 0)" stroke="rgb(66, 66, 66)" stroke-width="1px" opacity="0.25"></line><line x1="0" y1="268.49828891453717" x2="1392.875" y2="268.49828891453717" fill="rgb(0, 0, 0)" stroke="rgb(66, 66, 66)" stroke-width="1px" opacity="0.25"></line><line x1="0" y1="227.7417848227445" x2="1392.875" y2="227.7417848227445" fill="rgb(0, 0, 0)" stroke="rgb(66, 66, 66)" stroke-width="1px" opacity="0.25"></line><line x1="0" y1="186.98528073095184" x2="1392.875" y2="186.98528073095184" fill="rgb(0, 0, 0)" stroke="rgb(66, 66, 66)" stroke-width="1px" opacity="0.25"></line><line x1="0" y1="146.2287766391592" x2="1392.875" y2="146.2287766391592" fill="rgb(0, 0, 0)" stroke="rgb(66, 66, 66)" stroke-width="1px" opacity="0.25"></line><line x1="0" y1="105.47227254736653" x2="1392.875" y2="105.47227254736653" fill="rgb(0, 0, 0)" stroke="rgb(66, 66, 66)" stroke-width="1px" opacity="0.25"></line><line x1="0" y1="64.71576845557385" x2="1392.875" y2="64.71576845557385" fill="rgb(0, 0, 0)" stroke="rgb(66, 66, 66)" stroke-width="1px" opacity="0.25"></line><line x1="0" y1="23.95926436378122" x2="1392.875" y2="23.95926436378122" fill="rgb(0, 0, 0)" stroke="rgb(66, 66, 66)" stroke-width="1px" opacity="0.25"></line></g></g></g><g><g><line x1="0" y1="-342.84927246235276" x2="1392.875" y2="-342.84927246235276" fill="rgb(0, 0, 0)" stroke="rgb(153, 153, 153)" stroke-width="1.5px"></line></g></g><g><g><line x1="11.569195745214227" y1="0" x2="11.569195745214227" y2="374" fill="rgb(0, 0, 0)" stroke="rgb(153, 153, 153)" stroke-width="1.5px"></line></g></g><g><g><g><g><g><path stroke="rgb(51, 187, 238)" stroke-width="2px" d="M11.569195745214227,176.9079092213291L12.391380797887049,145.7200713956976L13.213565850559869,118.40823350408185L14.03575090323269,194.66092055583186L14.85793595590551,171.92793934026926L15.680121008578332,196.61073404771946L16.50230606125115,186.827277545608L17.324491113923973,174.67754491363107L18.146676166596794,161.4009636589643L18.968861219269616,168.23557102451616L19.791046271942434,155.88780854970392L20.613231324615256,145.19832397487184L21.435416377288078,162.3169888819983L22.2576014299609,157.38323102751627L23.07978648263372,157.85439317781075L23.901971535306544,157.33818912747907L24.724156587979362,158.1476287327284L25.54634164065218,160.388010862034L26.368526693325006,156.33519382564964L27.19071174599783,155.3746342448041L28.01289679867065,152.81624601861083L28.835081851343467,156.18038728249297L29.657266904016293,159.0189605788248L30.47945195668911,157.01733232150724L31.301637009361933,155.56867951831316L32.123822062034755,153.8990948890948L32.94600711470757,152.20375567099333L33.7681921673804,150.22697689092698L34.59037722005321,145.67473136932261L35.412562272726035,146.33395145813978L36.23474732539886,143.05005420120986L37.05693237807168,138.6537661741901L37.8791174307445,134.95157084158015L38.70130248341732,152.48071315484142L39.52348753609014,147.6730336196672L40.345672588762966,143.9522139254096L41.16785764143578,147.61366639971365L41.9900426941086,152.93669383720703L42.812227746781424,148.27721077765506L43.63441279945425,152.72784750317047L44.45659785212707,165.95833185608544L45.27878290479989,169.16715344595912L46.10096795747271,163.09492414293095L46.923153010145526,162.2324572981813L47.74533806281835,157.4298157228632L48.56752311549118,159.91175398215518L49.38970816816399,162.95355691145866L50.211893220836814,165.58554679044266L51.034078273509635,165.70177690414292L51.85626332618245,166.8198959619624L52.67844837885527,160.96507116301768L53.5006334315281,157.29663471671049L54.32281848420092,155.84992414366354L55.14500353687374,154.00715005915677L55.96718858954656,152.933780694922L56.78937364221939,146.28996449459737L57.6115586948922,143.0101087459429L58.433743747565025,141.52437438562643L59.25592880023785,137.72539049950973L60.07811385291066,146.47781792515832L60.90029890558348,155.36996574130438L61.72248395825631,169.08888874667508L62.54466901092913,182.95900623350173L63.36685406360195,186.34967208296186L64.18903911627477,182.65580427712402L65.01122416894759,181.54034381340944L65.83340922162041,178.0263029228375L66.65559427429324,174.971905212924L67.47777932696606,182.19048477849185L68.29996437963887,185.01721247032543L69.1221494323117,182.39968993197775L69.94433448498452,177.55450204277687L70.76651953765733,185.90133892582497L71.58870459033015,179.86285739720148L72.41088964300299,175.57221125308234L73.2330746956758,174.3376866682994L74.05525974834862,171.0462375316722L74.87744480102144,168.55023842608873L75.69962985369426,165.27110561540198L76.52181490636708,163.2989628875252L77.3439999590399,160.8189306815111L78.16618501171273,161.81499029856047L78.98837006438555,157.86079564428593L79.81055511705837,156.73245799035618L80.63274016973119,155.87625540203203L81.454925222404,153.39097636635768L82.27711027507684,151.95846896725567L83.09929532774966,149.62871856780177L83.92148038042247,148.77735666033286L84.74366543309529,146.42294626916149L85.56585048576812,150.44432593758893L86.38803553844093,156.55100650211577L87.21022059111377,154.96844512966268L88.03240564378657,155.96247365991297L88.8545906964594,157.6747324433392L89.67677574913223,156.1170207881169L90.49896080180504,154.39285818174307L91.32114585447786,167.37952183353602L92.14333090715068,163.8746490114336L92.9655159598235,159.57827703733625L93.78770101249631,155.58553721555373L94.60988606516915,151.30312542804265L95.43207111784197,147.2663797978759L96.25425617051478,143.86997595569412L97.07644122318762,139.86785660254867L97.89862627586042,136.43596529753736L98.72081132853324,134.12691639017456L99.54299638120608,130.17084659354828L100.36518143387889,139.57843711040297L101.18736648655171,136.18476561407755L102.00955153922453,140.73000611339987L102.83173659189735,148.07477566579163L103.65392164457016,144.34677765954532L104.476106697243,140.6338356021917L105.29829174991579,136.77652912015236L106.12047680258863,145.2646115472623L106.94266185526145,154.50975349486004L107.76484690793426,153.32667323699346L108.58703196060709,160.80754202231685L109.4092170132799,165.27805377418684L110.23140206595274,155.9910616058683L111.05358711862556,160.22090218213037L111.87577217129837,168.2909241494983L112.6979572239712,171.40633830644197L113.52014227664401,182.7406338393763L114.34232732931683,187.68428447795606L115.16451238198967,186.5776492687737L115.98669743466247,196.48082215419188L116.8088824873353,208.85032404042502L117.63106754000813,208.16865253967373L118.45325259268094,213.62581285575013L119.27543764535375,216.8866283807501L120.09762269802658,218.46080690707026L120.9198077506994,217.59880194519872L121.74199280337221,216.55562344432434L122.56417785604505,216.746428689013L123.38636290871787,215.6138923713941L124.20854796139068,210.84545820113513L125.03073301406351,211.62871857861913L125.85291806673632,212.44855920248858L126.67510311940914,212.9830797334324L127.49728817208198,207.99213109307718L128.3194732247548,205.5035444155417L129.1416582774276,200.23335064212142L129.96384333010045,199.8506647237062L130.78602838277325,193.53090917420283L131.60821343544606,195.20529945231866L132.4303984881189,198.65868998122164L133.2525835407917,187.68609995879768L134.07476859346454,189.67782628497667L134.89695364613735,191.3293335734811L135.71913869881018,180.97730330581558L136.54132375148302,178.9545124664039L137.36350880415583,179.433601700671L138.18569385682864,179.59854952189195L139.00787890950147,175.04330069871395L139.83006396217428,175.16057357608184L140.6522490148471,171.31412908200573L141.47443406751992,177.29367489191512L142.29661912019276,174.38759894644664L143.11880417286557,179.67804072409822L143.9409892255384,179.99143348628525L144.7631742782112,199.22491003682896L145.58535933088402,206.8302260499269L146.40754438355685,219.23399883322418L147.22972943622966,228.44496867587424L148.0519144889025,225.71074522983912L148.87409954157533,227.7649027250202L149.69628459424814,225.55116174184417L150.51846964692095,235.98136460219726L151.34065469959378,238.3635060815296L152.1628397522666,238.91200157268477L152.9850248049394,231.89910543836052L153.80720985761224,217.10364535600348L154.62939491028507,215.9188638605399L155.45157996295788,198.7380103860273L156.27376501563072,202.7596365670714L157.09595006830352,200.55101625636925L157.91813512097633,198.3257669841536L158.74032017364917,204.3890616556573L159.56250522632197,205.75137796078056L160.3846902789948,205.27831134995066L161.20687533166762,193.6896689634175L162.02906038434045,189.1359121531161L162.8512454370133,175.4901040049991L163.6734304896861,162.15089003671375L164.4956155423589,152.99465569257816L165.31780059503174,145.67656890715685L166.13998564770455,153.03891628858594L166.96217070037736,152.8231596746558L167.7843557530502,154.36429803343796L168.60654080572303,161.12067782230204L169.42872585839584,156.816459035242L170.25091091106867,142.9991200164766L171.07309596374148,141.3172239576973L171.8952810164143,137.4621483500442L172.71746606908712,136.49999841497436L173.53965112175993,129.24665649142727L174.36183617443277,120.32466063881226L175.1840212271056,117.89696766761969L176.0062062797784,117.71596317358102L176.82839133245122,125.31274245046538L177.65057638512405,115.32490963724912L178.4727614377969,113.46237671257074L179.29494649046967,125.86431735716297L180.1171315431425,141.33577953237423L180.93931659581534,143.39319143934367L181.76150164848815,159.30159835346566L182.58368670116099,155.6890709976535L183.40587175383382,154.4316649489488L184.2280568065066,153.4610386151357L185.05024185917944,159.94400540745136L185.87242691185227,158.0464196281595L186.69461196452508,148.5162339694828L187.5167970171979,135.02954913776668L188.33898206987072,125.1649119365634L189.16116712254353,111.6404666427986L189.98335217521637,119.04217663117512L190.8055372278892,129.4561200499069L191.62772228056198,136.73640373973237L192.44990733323482,136.58829237858455L193.27209238590765,143.26587721427074L194.09427743858046,139.3099412089606L194.9164624912533,133.9941160706442L195.73864754392613,138.99227789281292L196.5608325965989,145.08018482798L197.38301764927175,151.08301653209097L198.2052027019446,156.83330174739905L199.02738775461737,156.3403557419546L199.8495728072902,153.66471348662753L200.67175785996304,152.63880336643612L201.49394291263584,156.34853265896496L202.31612796530868,155.9512495235815L203.13831301798152,148.85450286252043L203.9604980706543,136.42749069369287L204.78268312332713,126.45326304884874L205.60486817599997,128.1943292593754L206.42705322867278,121.36834998951903L207.2492382813456,115.46359119337673L208.07142333401842,105.1290676939153L208.89360838669123,98.09355364047366L209.71579343936406,88.83024289073175L210.5379784920369,88.61980517130594L211.36016354470974,88.64572360453911L212.18234859738257,90.40265904269441L213.00453365005535,92.641269462957L213.8267187027282,96.22497678887127L214.64890375540102,97.89436060863837L215.47108880807383,98.16519962635687L216.29327386074664,107.7573570148489L217.11545891341947,114.71691079295057L217.93764396609228,115.82402713389425L218.75982901876512,115.23121984571398L219.58201407143795,119.25550194962594L220.40419912411073,118.48265202478413L221.22638417678357,118.903329191405L222.0485692294564,118.89788642038502L222.8707542821292,119.53922178047412L223.69293933480205,114.45239594464589L224.51512438747488,119.25569174614921L225.33730944014766,118.87660322016193L226.1594944928205,118.22803079323499L226.98167954549334,125.957793476815L227.80386459816611,125.95701650649447L228.62604965083895,127.65083371528314L229.4482347035118,131.9834569608655L230.2704197561846,129.62131910419257L231.09260480885743,140.08885707224465L231.91478986153027,146.90130662419793L232.73697491420305,162.9807561813166L233.55915996687588,161.7067070844509L234.38134501954872,156.6765341639352L235.20353007222155,168.79435361148757L236.02571512489436,166.29994228147956L236.84790017756717,163.87067413361956L237.67008523024,170.28827420194222L238.4922702829128,168.20048606359228L239.31445533558565,171.10658221980495L240.13664038825848,168.99027627543782L240.95882544093126,168.58798512716166L241.7810104936041,165.8270514889471L242.60319554627694,165.40304315607182L243.42538059894974,164.28004796161693L244.24756565162258,161.26606272740642L245.06975070429542,159.11760653148693L245.8919357569682,158.31392850601142L246.71412080964103,159.07693358681152L247.53630586231387,161.213327098616L248.35849091498665,163.55556795773603L249.18067596765948,174.74344286063172L250.00286102033232,178.8786608926154L250.82504607300513,176.4393878835482L251.64723112567796,173.75245214687413L252.4694161783508,159.90012772089L253.29160123102358,156.80054429552615L254.1137862836964,150.6630547160793L254.93597133636925,163.87664946454956L255.75815638904206,162.07626546591047L256.5803414417149,158.6988302206564L257.4025264943877,168.91941362677045L258.2247115470605,164.74090287528344L259.0468965997333,164.87581395977418L259.8690816524062,168.6218008443613L260.691266705079,174.2760599293804L261.5134517577518,170.17843837415157L262.33563681042466,174.10833629221005L263.1578218630974,172.01399085409489L263.9800069157703,169.48455787094704L264.8021919684431,173.06658170770046L265.6243770211159,167.42328627664457L266.44656207378875,172.34691481057718L267.26874712646156,173.38350264326678L268.09093217913437,172.0265731071335L268.9131172318072,169.62187268992497L269.73530228448004,170.00789112347792L270.5574873371528,164.6165516456752L271.37967238982566,170.80813980730588L272.20185744249846,168.16107537597705L273.0240424951713,165.6859073777308L273.84622754784414,173.3676331154575L274.66841260051694,176.4030346736508L275.49059765318975,182.77481577492165L276.31278270586256,187.90160820318513L277.1349677585354,192.54894062229184L277.95715281120823,188.74503777546977L278.77933786388104,191.95593201302236L279.60152291655385,187.17729442991543L280.42370796922665,184.58431266710855L281.2458930218995,200.19331035744878L282.0680780745723,202.3554878025267L282.89026312724513,210.6918487253465L283.71244817991794,218.8066416979262L284.5346332325908,211.55576542339844L285.3568182852636,206.132819540323L286.1790033379364,207.33295151909536L287.0011883906093,204.68737086571662L287.8233734432821,212.9847469146164L288.6455584959549,208.67952234999993L289.4677435486277,197.30090862883463L290.2899286013006,189.90954876449553L291.1121136539733,186.4266359315935L291.9342987066462,174.29724400494783L292.756483759319,167.13158176949057L293.5786688119918,164.53121291236207L294.40085386466467,163.9309098314897L295.2230389173375,165.1203481840851L296.0452239700103,161.242202676656L296.8674090226831,160.64724296376843L297.68959407535596,167.09200422481587L298.51177912802876,171.6919452165272L299.33396418070157,171.01240566989782L300.1561492333744,161.44805233160463L300.9783342860472,157.7576401374718L301.80051933872005,154.93037427307115L302.62270439139286,154.93033630366205L303.44488944406567,170.45939073125797L304.2670744967385,168.94502517929064L305.08925954941134,164.03813687257713L305.91144460208415,165.5167774930005L306.73362965475695,169.43620208435297L307.5558147074298,168.72903049426657L308.37799976010257,156.07130017825085L309.20018481277543,143.32601290876948L310.02236986544824,132.48141615194214L310.84455491812105,119.86343989288928L311.66673997079386,130.0579318469654L312.4889250234667,124.72008775911914L313.3111100761395,133.49470237618917L314.13329512881234,124.28400503886368L314.9554801814852,133.9167293945743L315.77766523415795,141.50006401121007L316.5998502868308,154.64349300995363L317.4220353395036,160.17161414311167L318.24422039217643,169.15590821311784L319.0664054448493,164.9622806040578L319.8885904975221,166.51737657942138L320.7107755501949,172.19129875389237L321.5329606028677,172.06137422990335L322.3551456555406,170.73820028158485L323.17733070821333,168.60580265903533L323.9995157608862,172.56165105932646L324.821700813559,170.30580610770693L325.6438858662318,169.5712271943784L326.4660709189047,167.51479806497898L327.2882559715775,165.09826271182976L328.1104410242503,161.01588428225145L328.9326260769231,160.7278675675191L329.75481112959596,145.41672650042312L330.5769961822688,139.59775130190488L331.3991812349416,125.87388080722978L332.2213662876144,115.00430981121313L333.0435513402872,102.87692677444522L333.86573639296006,105.02210617930035L334.68792144563287,103.01365656417765L335.5101064983057,91.33537525922382L336.3322915509785,106.93694501709537L337.15447660365135,106.90834634519652L337.97666165632415,104.47596332331814L338.79884670899696,107.90292928562874L339.6210317616698,109.99970643869196L340.44321681434263,117.5102825475119L341.26540186701544,122.74240608479744L342.08758691968825,150.1196287626174L342.9097719723611,152.6382581289735L343.73195702503386,159.3071395596232L344.55414207770673,150.95199525442473L345.37632713037954,147.65228054585418L346.19851218305234,153.04307143473721L347.0206972357252,158.3719548287914L347.842882288398,169.39930208903402L348.6650673410709,178.69026747381352L349.48725239374363,180.18617930986L350.30943744641644,183.62473815455928L351.1316224990893,169.9000973236557L351.9538075517621,172.4411158107002L352.7759926044349,182.65837802937597L353.5981776571078,189.90140479880563L354.42036270978053,187.02752913169965L355.24254776245334,189.9927571282102L356.0647328151262,202.78830412462054L356.886917867799,208.81581882205614L357.7091029204719,212.70669929498646L358.5312879731447,207.19988365667243L359.35347302581744,213.6868148070983L360.1756580784903,215.40061204976345L360.9978431311631,209.02758290630553L361.820028183836,203.7007911573687L362.6422132365088,197.16000369941443L363.46439828918164,191.82684479894152L364.2865833418544,200.65945696205964L365.1087683945272,216.09360347348337L365.93095344720007,211.57332602627997L366.7531384998729,208.29361090661325L367.57532355254574,202.27645110332446L368.39750860521855,218.5527829728768L369.2196936578914,226.53570299960523L370.04187871056416,226.3482783672406L370.86406376323697,234.40527637232663L371.68624881590983,232.60497710074605L372.50843386858264,238.6849432004047L373.33061892125545,242.30804145273368L374.1528039739283,241.4368016259791L374.97498902660107,242.6488519938307L375.7971740792739,238.74331172093852L376.61935913194674,249.9679726197564L377.44154418461954,259.37027224584983L378.2637292372924,270.85758049122563L379.0859142899652,266.8433137726742L379.90809934263797,270.46008912451555L380.73028439531083,280.95408504714874L381.55246944798364,289.78786949656916L382.3746545006565,274.0725214692019L383.1968395533293,281.09905996418945L384.0190246060022,289.584113178653L384.8412096586749,298.53253188364175L385.66339471134773,309.58916942667247L386.4855797640206,311.9035956489205L387.3077648166934,318.18156728831303L388.12994986936627,328.4775456576853L388.9521349220391,330.26449006537456L389.77431997471183,331.2263855872767L390.5965050273847,329.6477590667686L391.4186900800575,339.4115693041127L392.24087513273037,317.2307927671105L393.0630601854032,309.4459382976328L393.885245238076,302.05786702731154L394.7074302907488,296.36328041396627L395.5296153434216,296.8025281143183L396.3518003960944,287.02218299359714L397.17398544876727,284.97298913805747L397.9961705014401,286.5746162472228L398.81835555411294,280.75207765158945L399.6405406067857,281.26240291364144L400.4627256594585,291.66063948924784L401.28491071213136,298.9295150066758L402.10709576480417,299.1461965865098L402.92928081747704,283.41769751461817L403.75146587014984,277.4042337584784L404.5736509228226,267.97202039791705L405.39583597549546,259.8994245409804L406.21802102816827,253.88911747116677L407.04020608084113,251.47848441232497L407.86239113351394,244.04127764959847L408.6845761861868,235.34190704244688L409.50676123885955,229.6456992421558L410.32894629153236,228.28349527739283L411.1511313442052,226.07187954339796L411.97331639687803,225.3083073129881L412.7955014495509,220.6053267819965L413.6176865022237,222.69038627957207L414.43987155489646,217.51106807363072L415.2620566075693,214.86713873424142L416.0842416602421,213.15862821109272L416.90642671291494,221.35493717240297L417.7286117655878,220.27185991585955L418.5507968182606,218.0676919801632L419.3729818709335,212.64131484462456L420.1951669236062,213.38940732488877L421.01735197627903,211.72367307989722L421.8395370289519,209.73403830738667L422.6617220816247,207.2832221463795L423.48390713429757,202.06739704849338L424.3060921869704,201.13840816810162L425.1282772396431,199.1747231068997L425.950462292316,196.33455440903825L426.7726473449888,189.88149380464606L427.59483239766166,190.56889046672342L428.41701745033447,178.5212236362545L429.23920250300733,188.87258053862672L430.0613875556801,184.24277802873095L430.8835726083529,180.7838145680075L431.70575766102576,170.9343531671929L432.52794271369856,163.6441672338327L433.35012776637143,157.37838171959015L434.17231281904424,147.32275042681354L434.994497871717,166.00382960390166L435.81668292438985,164.33012035931606L436.63886797706266,162.79695331808887L437.46105302973547,153.74155283761854L438.28323808240833,149.44499106934185L439.10542313508114,147.897420022332L439.9276081877539,149.3440078875755L440.74979324042675,146.1162674290292L441.57197829309956,135.85333378587143L442.3941633457724,135.536938393058L443.21634839844523,126.35325334822336L444.0385334511181,117.18855668937013L444.86071850379085,109.715369973184L445.68290355646366,111.45735812889481L446.5050886091365,103.73220456253867L447.32727366180933,96.46248204410193L448.1494587144822,85.9854821707819L448.971643767155,77.9928155366245L449.79382881982775,79.80785646102075L450.6160138725006,72.24255297374691L451.4381989251734,73.19108620247611L452.2603839778463,70.82270471798017L453.0825690305191,79.52068582941271L453.90475408319196,77.42903280548481L454.7269391358647,74.41727398158457L455.5491241885375,74.99142719913532L456.3713092412104,76.04981477786438L457.1934942938832,80.31539440910711L458.015679346556,86.06416837234198L458.83786439922886,85.78683630549935L459.6600494519016,90.65547920325794L460.4822345045744,94.44916361528342L461.3044195572473,89.82511338413795L462.1266046099201,84.62101620688273L462.94878966259296,74.40626222424106L463.77097471526577,68.79609066254824L464.5931597679385,62.88523891068349L465.4153448206114,56.17768329764323L466.2375298732842,61.518076538789266L467.05971492595705,62.662095819442186L467.88189997862986,65.18892887648684L468.7040850313027,70.93661410007815L469.5262700839755,74.30669210319563L470.3484551366483,74.71514653742463L471.17064018932115,84.34560299677997L471.99282524199396,84.81941996044375L472.8150102946668,90.68828735080415L473.6371953473396,91.45994952435308L474.45938040001244,93.98551003726477L475.28156545268524,93.96139870159534L476.10375050535805,93.70221173957309L476.9259355580309,84.82673297908894L477.7481206107037,85.72246982298343L478.57030566337653,88.2256624182928L479.3924907160494,89.91328943344183L480.21467576872215,90.89377576506227L481.03686082139495,93.33928599876056L481.8590458740678,93.78801599978581L482.6812309267406,102.56190056078454L483.5034159794135,111.15748139736117L484.3256010320863,115.39564065938339L485.14778608475905,115.09710423369172L485.9699711374319,113.61144330769838L486.7921561901047,118.135396138521L487.6143412427776,120.61605838914006L488.4365262954504,118.29557768556334L489.25871134812326,135.2004462735287L490.080896400796,137.91698055377367L490.9030814534688,142.77011695624267L491.7252665061417,140.96103202928526L492.5474515588145,131.98464689468713L493.36963661148735,144.21665724837754L494.19182166416016,145.24294755592322L495.0140067168329,144.74352870292142L495.8361917695058,147.01515100272812L496.6583768221786,143.79435946306316L497.48056187485145,140.1795383178769L498.30274692752425,137.27936432904625L499.12493198019706,132.238806804254L499.94711703286987,128.85466820158112L500.7693020855427,129.19624306928702L501.5914871382155,134.62033333481372L502.41367219088835,135.82146413437312L503.23585724356116,135.63619671261904L504.058042296234,130.16153307309563L504.88022734890677,132.71692865521666L505.7024124015796,156.43303053494964L506.52459745425244,154.9933243958981L507.34678250692525,152.63795361807001L508.1689675595981,150.663615037194L508.9911526122709,155.82538093667551L509.8133376649437,152.5759340160333L510.63552271761654,156.38385376929813L511.45770777028935,158.96968499243326L512.2798928229622,160.97660708043264L513.102077875635,164.25295322089218L513.9242629283078,154.09831832420977L514.7464479809806,161.78972057364297L515.5686330336534,161.54092303795974L516.3908180863262,165.21976224012192L517.2130031389992,175.01724089679084L518.035188191672,174.62654859186725L518.8573732443448,167.7164381196784L519.6795582970176,165.08458767989245L520.5017433496904,162.0063577452036L521.3239284023632,172.77232011496918L522.146113455036,178.13070589135947L522.9682985077088,193.5003301263866L523.7904835603817,193.13717067844834L524.6126686130546,202.80982014539222L525.4348536657272,196.13101932817548L526.2570387184002,195.81043422550752L527.079223771073,195.88351161740886L527.9014088237458,188.93992742317386L528.7235938764186,183.84454973286446L529.5457789290915,178.80228839664017L530.3679639817642,172.1687083848608L531.190149034437,168.30923428998497L532.0123340871099,164.49755098097643L532.8345191397827,165.2826253927073L533.6567041924555,161.97111047944392L534.4788892451284,163.99889221551928L535.3010742978012,163.18802068640065L536.123259350474,161.12666535423452L536.9454444031468,160.87420751098358L537.7676294558197,156.09477767300444L538.5898145084925,152.2505399946233L539.4119995611653,146.7045970299054L540.2341846138381,148.45144961903435L541.0563696665109,149.85110390469197L541.8785547191837,143.45926000336237L542.7007397718565,138.84614630566307L543.5229248245294,134.49952654113278L544.3451098772023,128.95921420985306L545.167294929875,127.28836178685013L545.9894799825478,124.49546363617395L546.8116650352207,116.24557452759689L547.6338500878935,115.07070783757547L548.4560351405663,111.51252448373093L549.2782201932391,107.70904770942889L550.1004052459119,102.84518720488185L550.9225902985847,98.81464823298995L551.7447753512575,113.9029591897166L552.5669604039305,126.49226527672847L553.3891454566033,123.1650028219727L554.2113305092761,115.79067226593264L555.0335155619489,115.60730746769606L555.8557006146217,107.84970585580619L556.6778856672945,119.69271826465479L557.5000707199673,129.6656482253903L558.3222557726402,147.28793957295807L559.144440825313,141.08759543840154L559.9666258779857,144.82152895162227L560.7888109306587,137.87842341723297L561.6109959833315,141.20571268271485L562.4331810360043,158.5851324986767L563.2553660886771,157.2518432814076L564.0775511413499,152.80033927420692L564.8997361940227,148.56953079003455L565.7219212466955,146.75455987066223L566.5441062993683,145.7639060631086L567.3662913520412,139.55789425008396L568.188476404714,145.77350378196581L569.0106614573868,148.44780961035661L569.8328465100597,144.8645824213909L570.6550315627325,133.63559554486102L571.4772166154053,132.10363810589337L572.2994016680781,130.40728804661632L573.121586720751,127.6203896788272L573.9437717734238,123.9714657274923L574.7659568260965,129.56513377096536L575.5881418787694,126.66102919124289L576.4103269314422,118.22367437270304L577.232511984115,109.33919489606386L578.0546970367878,109.09817120620782L578.8768820894608,110.18678721147838L579.6990671421336,115.31495162307134L580.5212521948063,112.19444884242371L581.3434372474792,111.523116910863L582.165622300152,104.19398168208151L582.9878073528248,106.25022670860919L583.8099924054976,119.33476349111532L584.6321774581704,117.38003185735232L585.4543625108432,116.40269314708189L586.276547563516,115.00805983929916L587.0987326161888,124.97179751051553L587.9209176688618,132.57887758241307L588.7431027215346,133.52078044493797L589.5652877742074,137.40105370633705L590.3874728268802,135.1759644161881L591.209657879553,135.10008850253945L592.0318429322258,137.81623951413692L592.8540279848986,135.88324760036824L593.6762130375715,135.0900235887837L594.4983980902443,136.49925265281976L595.320583142917,132.18057240553412L596.14276819559,128.00775882709524L596.9649532482628,119.82283033638491L597.7871383009356,116.35870362611178L598.6093233536084,110.70756306698112L599.4315084062813,126.76340961110151L600.253693458954,117.52219883926686L601.0758785116268,114.75012266680946L601.8980635642997,113.3594372951736L602.7202486169725,126.35259810767859L603.5424336696453,132.67996425535918L604.3646187223181,128.37929945657316L605.186803774991,126.75870224835185L606.0089888276638,126.97519818330396L606.8311738803366,125.78616584341584L607.6533589330094,124.24221343993617L608.4755439856823,123.20814203251346L609.2977290383551,124.68722176725797L610.1199140910278,125.02023491384736L610.9420991437007,125.57934163897984L611.7642841963735,125.16421930448526L612.5864692490463,123.39814106303356L613.4086543017191,130.80390821699078L614.2308393543921,137.22658421780994L615.0530244070648,139.9126703056168L615.8752094597376,131.86291801864235L616.6973945124105,131.93576955519845L617.5195795650833,138.35692439187588L618.3417646177561,138.47274609292634L619.1639496704289,139.4823678917117L619.9861347231017,141.56411906776324L620.8083197757745,139.40735854367887L621.6305048284473,139.32102906973577L622.4526898811202,129.15651703642595L623.2748749337931,127.32465413587504L624.0970599864659,126.0232353988941L624.9192450391387,124.97585347325578L625.7414300918115,112.05473884737212L626.5636151444843,122.56316649056704L627.3858001971571,127.34965939988322L628.2079852498299,125.88557602396506L629.0301703025028,128.88372939398195L629.8523553551756,129.65513531442826L630.6745404078483,120.53082640555165L631.4967254605212,117.46442481308135L632.318910513194,116.55326029336393L633.1410955658669,121.61865321217735L633.9632806185397,121.14600536402196L634.7854656712126,118.4514549169394L635.6076507238853,121.02199593827524L636.4298357765581,125.75885183693545L637.252020829231,131.41632017905135L638.0742058819038,130.8593795071662L638.8963909345766,136.28673146594448L639.7185759872494,140.4067819611072L640.5407610399222,140.1080594708198L641.362946092595,143.05726680942928L642.1851311452679,144.41174463668938L643.0073161979408,147.37142850000626L643.8295012506136,148.51421723852138L644.6516863032864,148.59425005075357L645.4738713559592,149.10397206799325L646.296056408632,151.59580909687597L647.1182414613048,150.65410699119673L647.9404265139776,148.3314296250712L648.7626115666504,157.6277091535042L649.5847966193234,158.07219904154724L650.406981671996,153.68351503760258L651.2291667246689,154.13314394666452L652.0513517773418,162.73514027897727L652.8735368300146,161.18631423586254L653.6957218826874,162.58568807754622L654.5179069353602,158.11549729725567L655.340091988033,156.1408499889551L656.1622770407058,161.5137077829807L656.9844620933786,161.75294772511813L657.8066471460515,160.4357512435633L658.6288321987244,164.5455948238629L659.4510172513972,167.48484307897672L660.27320230407,173.18736383741998L661.0953873567428,182.8483827793029L661.9175724094156,185.43552729280364L662.7397574620884,182.027194553408L663.5619425147613,179.9794360326276L664.3841275674341,190.3908216781889L665.2063126201068,188.40593616228574L666.0284976727797,200.9953993185748L666.8506827254525,195.16972226553492L667.6728677781254,189.0159746069472L668.4950528307982,187.88010742683534L669.317237883471,185.20459053192025L670.1394229361438,185.40472656555346L670.9616079888166,183.1731317623736L671.7837930414894,179.7391849307243L672.6059780941623,192.70532791383056L673.4281631468351,203.2587732923233L674.2503481995079,214.25071298833927L675.0725332521807,207.2900576814193L675.8947183048535,200.86167927731933L676.7169033575263,194.78581609310464L677.5390884101992,188.88042890389448L678.3612734628721,184.7892955835632L679.1834585155449,181.39395215512195L680.0056435682177,178.3506113150535L680.8278286208905,177.07225197400984L681.6500136735633,183.06603268004926L682.4721987262361,179.00440932075313L683.2943837789089,179.09877414241274L684.1165688315818,180.67594046L684.9387538842547,182.26801777455816L685.7609389369273,180.2885871252373L686.5831239896003,188.42072139060258L687.4053090422731,179.0697768412117L688.2274940949459,176.41495388620325L689.0496791476187,177.65349696289448L689.8718642002915,180.02555346456228L690.6940492529643,179.09903619584105L691.5162343056371,173.55019893846512L692.3384193583099,175.2433874141992L693.1606044109828,186.4297602266822L693.9827894636556,198.11826150244354L694.8049745163285,186.0743647953586L695.6271595690013,186.42915715902058L696.4493446216741,184.75430994350617L697.271529674347,184.10403878651027L698.0937147270197,180.90859990423357L698.9158997796925,180.0731271550668L699.7380848323654,178.63212562840383L700.5602698850381,180.50242103566458L701.382454937711,178.36892089067655L702.2046399903838,176.68888611486463L703.0268250430565,175.28787309917723L703.8490100957295,175.2858768120828L704.6711951484023,170.0352526919156L705.4933802010752,167.48358074408557L706.3155652537479,164.71222783685997L707.1377503064208,161.10878901685246L707.9599353590936,156.72687737019925L708.7821204117663,153.8195458371749L709.6043054644392,149.9168344036083L710.426490517112,147.18622899729834L711.248675569785,144.123797039285L712.0708606224576,140.85425872321852L712.8930456751305,138.09358842135953L713.7152307278034,135.41988784444794L714.5374157804761,133.17106059013867L715.359600833149,130.12782911176217L716.1817858858218,123.36165124616107L717.0039709384947,128.68211385879047L717.8261559911674,125.44280438637121L718.6483410438402,122.55317469858252L719.4705260965131,120.73974943265767L720.2927111491858,119.78316839068924L721.1148962018588,122.41529627699298L721.9370812545316,118.07782371487818L722.7592663072043,117.2035923350516L723.5814513598772,118.90647644528542L724.40363641255,116.55688293010017L725.2258214652228,127.92802814519632L726.0480065178956,124.37590589134864L726.8701915705685,123.44678621464989L727.6923766232413,120.71926664010142L728.514561675914,123.0493297432223L729.336746728587,120.48829471465184L730.1589317812598,123.17534726404143L730.9811168339326,121.21077055225362L731.8033018866054,118.99304583924943L732.6254869392783,117.18923342505202L733.447671991951,120.35402729725297L734.2698570446238,132.16854422738487L735.0920420972967,128.8854365379089L735.9142271499694,143.28303404062513L736.7364122026423,160.5824405675373L737.5585972553151,158.5420631033649L738.3807823079878,153.8698887412251L739.2029673606608,149.52463220781743L740.0251524133336,146.50106009723115L740.8473374660065,142.72962578637225L741.6695225186792,142.74600323927643L742.4917075713521,141.91059815362706L743.3138926240249,138.01418197180132L744.1360776766976,136.41566257118222L744.9582627293705,132.50546192067736L745.7804477820433,128.67577205273756L746.6026328347162,125.31230429713926L747.4248178873889,125.72344996573258L748.2470029400617,123.21541265783553L749.0691879927347,122.76253107913617L749.8913730454074,116.8715681798714L750.7135580980803,114.89128880345488L751.5357431507531,113.14832349294248L752.357928203426,112.53506504904249L753.1801132560987,125.66047123020041L754.0022983087715,142.00098991299961L754.8244833614444,155.7427631048439L755.6466684141171,154.4097272476753L756.46885346679,156.89260293803767L757.2910385194629,172.81067412590915L758.1132235721356,181.45894073303398L758.9354086248085,200.07556641420584L759.7575936774813,211.99592867769812L760.5797787301542,226.40278817845797L761.4019637828269,242.36402211364384L762.2241488354998,257.698716074651L763.0463338881726,261.9298399477565L763.8685189408453,275.9894716618468L764.6907039935182,280.735075839467L765.512889046191,289.6022704827506L766.3350740988639,293.6191062731028L767.1572591515367,298.5586435834911L767.9794442042095,301.7775401096962L768.8016292568823,305.53840406640165L769.6238143095551,308.6804226814581L770.445999362228,316.84815959180764L771.2681844149008,322.1881239463281L772.0903694675736,331.4929076298296L772.9125545202464,319.3778869710099L773.7347395729192,321.93778917471974L774.556924625592,331.66065835509414L775.3791096782649,340.9648907677213L776.2012947309378,342.35963372345066L777.0234797836105,345.1102713975439L777.8456648362833,343.78359215730745L778.6678498889562,338.0530476892189L779.4900349416289,331.5541350033917L780.3122199943018,322.51273806165943L781.1344050469746,319.08404098306835L781.9565900996475,316.1893528128666L782.7787751523202,315.6260001724194L783.600960204993,313.4206604425608L784.423145257666,310.80433094234183L785.2453303103387,314.1689334791327L786.0675153630116,328.3365611410601L786.8897004156844,320.2617776970957L787.7118854683573,336.76003034415294L788.53407052103,332.80802159121674L789.3562555737028,327.1699962399338L790.1784406263757,322.05257718471967L791.0006256790484,313.31002400274434L791.8228107317213,306.9076730525093L792.6449957843942,300.666797370561L793.4671808370668,298.2157510019197L794.2893658897398,294.1739676000919L795.1115509424126,291.04575533687245L795.9337359950855,287.04043277334495L796.7559210477582,286.6189323521279L797.5781061004311,282.37387805982166L798.4002911531039,300.1529828383727L799.2224762057766,300.0987507530265L800.0446612584495,309.2180686969742L800.8668463111223,310.15654081961736L801.6890313637953,309.09475166302366L802.511216416468,307.643645261633L803.3334014691408,298.91664568374836L804.1555865218137,295.371061936758L804.9777715744864,290.85165479512045L805.7999566271593,284.38962852032876L806.6221416798321,292.80266950096114L807.4443267325049,292.82066183713346L808.2665117851777,291.5560944689078L809.0886968378505,287.5556718282819L809.9108818905233,279.31853063011914L810.7330669431961,291.15194592819387L811.5552519958691,288.7294312909506L812.3774370485418,278.12222400590264L813.1996221012146,284.1873261673385L814.0218071538875,276.5059603731397L814.8439922065603,276.0080170379506L815.6661772592331,271.73672600840246L816.4883623119059,273.55135405391405L817.3105473645788,266.9508905210735L818.1327324172515,264.0402420201863L818.9549174699243,251.8944244214844L819.7771025225973,244.50850760563083L820.59928757527,237.64719710787443L821.4214726279429,231.83202452975308L822.2436576806157,224.95856196170786L823.0658427332884,218.83037203616558L823.8880277859613,214.87075948783195L824.7102128386341,206.7686618719026L825.532397891307,202.38706236051405L826.3545829439797,198.41115171752193L827.1767679966526,191.62163524187207L827.9989530493255,188.62096418654804L828.8211381019981,182.64440928855655L829.6433231546711,180.95998277687377L830.4655082073439,176.68981643307697L831.2876932600168,172.8915666201077L832.1098783126895,169.8985818623125" style="fill: none;" fill="none"></path></g></g></g></g><g opacity="0.2"><g><g><g><path style="fill: none;" stroke="rgb(51, 187, 238)" stroke-width="2px" d="M11.569195745214227,176.9079092213291L12.391380797887049,116.09162546134714L13.213565850559869,67.81305380986409L14.03575090323269,401.29617088019234L14.85793595590551,91.80824658753936L15.680121008578332,302.70138894110625L16.50230606125115,137.58465520819777L17.324491113923973,105.04024216112737L18.146676166596794,76.49706979858748L18.968861219269616,216.25047307107008L19.791046271942434,61.74849022989064L20.613231324615256,57.62153349155529L21.435416377288078,311.81699998963956L22.2576014299609,111.76323696527054L23.07978648263372,162.44076818911213L23.901971535306544,152.07421555151873L24.724156587979362,166.75811805073394L25.54634164065218,185.15703410727858L26.368526693325006,109.9185723162673L27.19071174599783,144.01094395609405L28.01289679867065,121.63264682071393L28.835081851343467,198.33082031833314L29.657266904016293,195.50275326576008L30.47945195668911,130.67546507133548L31.301637009361933,136.08109991122015L32.123822062034755,130.9763689181497L32.94600711470757,128.4806735942732L33.7681921673804,122.07080287170689L34.59037722005321,79.75234755193345L35.412562272726035,156.0292494450638L36.23474732539886,94.04818763425904L37.05693237807168,72.15652325723808L37.8791174307445,78.23585684105949L38.70130248341732,424.24390607971503L39.52348753609014,72.2966361779516L40.345672588762966,84.99799992908598L41.16785764143578,206.20494258026903L41.9900426941086,238.91468638620182L42.812227746781424,72.3533529927278L43.63441279945425,225.85072681428625L44.45659785212707,385.03225110618445L45.27878290479989,222.6914385385795L46.10096795747271,61.103709598750946L46.923153010145526,147.65114355709045L47.74533806281835,75.73114404114955L48.56752311549118,202.37929392043216L49.38970816816399,215.28809071508175L50.211893220836814,211.1054121938084L51.034078273509635,167.72186857549974L51.85626332618245,186.3434851953267L52.67844837885527,58.282887621749666L53.5006334315281,92.69127515443293L54.32281848420092,130.27123338707548L55.14500353687374,121.30425521937009L55.96718858954656,133.81789999528306L56.78937364221939,27.573157810555756L57.6115586948922,84.21761511524952L58.433743747565025,114.8122632754091L59.25592880023785,69.22929506304159L60.07811385291066,304.70948756953027L60.90029890558348,316.53724446148885L61.72248395825631,418.3403199943119L62.54466901092913,435.5340970210977L63.36685406360195,248.22768687563376L64.18903911627477,115.1058909519066L65.01122416894759,161.1021083245676L65.83340922162041,113.52061866521854L66.65559427429324,118.80541932625437L67.47777932696606,315.1516004373354L68.29996437963887,237.16560698315362L69.1221494323117,134.0385794001441L69.94433448498452,87.90828148728853L70.76651953765733,340.5432582104043L71.58870459033015,67.84505030241051L72.41088964300299,95.88150270135802L73.2330746956758,151.38235747653522L74.05525974834862,109.77674918458189L74.87744480102144,122.03977031625368L75.69962985369426,104.10771076028443L76.52181490636708,126.47966456769618L77.3439999590399,114.47653331425866L78.16618501171273,180.44319515288754L78.98837006438555,83.85091478813578L79.81055511705837,135.5976077221002L80.63274016973119,139.8272393082376L81.454925222404,106.77411623389843L82.27711027507684,125.07125919024433L83.09929532774966,105.87398555728618L83.92148038042247,132.77871361928536L84.74366543309529,102.1547742093894L85.56585048576812,226.09500713055905L86.38803553844093,271.48798645132433L87.21022059111377,125.16811932074202L88.03240564378657,174.68889493795615L88.8545906964594,189.94562482851276L89.67677574913223,126.7469549952269L90.49896080180504,121.871889788306L91.32114585447786,412.42224375776533L92.14333090715068,97.7189222747895L92.9655159598235,78.45594544576662L93.78770101249631,80.17262412458413L94.60988606516915,70.39494376672276L95.43207111784197,70.97803242389539L96.25425617051478,79.66587306624675L97.07644122318762,64.19427848813349L97.89862627586042,71.52875145158228L98.72081132853324,90.44592362209318L99.54299638120608,55.31629348045519L100.36518143387889,317.6205853753057L101.18736648655171,71.94560760228917L102.00955153922453,226.7834447835988L102.83173659189735,287.15544682783406L103.65392164457016,73.74142240698686L104.476106697243,70.30234361628229L105.29829174991579,63.69931233812955L106.12047680258863,306.09581567807254L106.94266185526145,329.7097246932558L107.76484690793426,130.90379378345253L108.58703196060709,302.6097838225039L109.4092170132799,250.02801041834817L110.23140206595274,-20.087281406203857L111.05358711862556,240.42582880094557L111.87577217129837,321.32763867792977L112.6979572239712,230.49149311806102L113.52014227664401,397.71996426428876L114.34232732931683,281.4593870701811L115.16451238198967,165.5843847133675L115.98669743466247,384.36222154215096L116.8088824873353,443.5399366226124L117.63106754000813,195.23421904843167L118.45325259268094,317.1800972184421L119.27543764535375,278.7673284319891L120.09762269802658,248.3358965880357L120.9198077506994,201.23855210745035L121.74199280337221,196.75574710798637L122.56417785604505,220.36816357541238L123.38636290871787,194.11580326231902L124.20854796139068,120.32561031177657L125.03073301406351,226.4981194040011L125.85291806673632,228.01305537762795L126.67510311940914,223.1312426110544L127.49728817208198,113.23265023230067L128.3194732247548,158.25286575068836L129.1416582774276,100.16499038573684L129.96384333010045,192.58413831591278L130.78602838277325,73.52624677198072L131.60821343544606,227.0009214297307L132.4303984881189,264.23824666784543L133.2525835407917,-20.68787640477943L134.07476859346454,227.50247966566258L134.89695364613735,222.69367736021536L135.71913869881018,-15.626149443965215L136.54132375148302,140.53728780901284L137.36350880415583,188.53274180778917L138.18569385682864,182.73139524375884L139.00787890950147,88.52408181614128L139.83006396217428,177.38801208325026L140.6522490148471,98.25493348811834L141.47443406751992,290.87070914312307L142.29661912019276,119.188009068034L143.11880417286557,280.1690173445332L143.9409892255384,185.94435304923732L144.7631742782112,564.5710073963975L145.58535933088402,351.29743793845813L146.40754438355685,454.8533242437226L147.22972943622966,403.416459348371L148.0519144889025,173.7709158777466L148.87409954157533,266.7864610159308L149.69628459424814,183.49769413813613L150.51846964692095,434.1211518108841L151.34065469959378,283.6168026638218L152.1628397522666,249.33179907907265L152.9850248049394,98.67371751301172L153.80720985761224,-63.97073523896238L154.62939491028507,193.41100977343913L155.45157996295788,-127.65695512558327L156.27376501563072,279.1613610399078L157.09595006830352,158.5920161337825L157.91813512097633,156.0506115348397L158.74032017364917,319.57980306467925L159.56250522632197,231.63285682594164L160.3846902789948,196.29088067108736L161.20687533166762,-26.47510595460556L162.02906038434045,102.62178618368951L162.8512454370133,-83.75960194183514L164.4956155423589,-20.961292497063916L165.31780059503174,6.642414336510783L166.13998564770455,292.9144423492519L166.96217070037736,148.72403663660646L167.7843557530502,183.64421257630786L168.60654080572303,289.48475417152014L169.42872585839584,75.04062304019858L170.25091091106867,-119.5171438154812L171.07309596374148,109.36272265566483L171.8952810164143,64.21902990510819L172.71746606908712,118.21993637372114L173.53965112175993,-8.561205729683042L174.36183617443277,-49.18667656628558L175.1840212271056,71.77250315719107L176.0062062797784,114.27699833595894L176.82839133245122,269.64674222426487L177.65057638512405,-74.43791047119163L178.4727614377969,78.07531467291838L179.29494649046967,361.4944620266219L180.1171315431425,435.28558781951256L180.93931659581534,182.48301042115352L181.76150164848815,461.5539308315067L182.58368670116099,87.0526473906898L183.40587175383382,130.54147781537577L184.2280568065066,135.0195253188634L185.05024185917944,283.11791857595506L185.87242691185227,121.99297272511433L186.69461196452508,-32.554035306742634L189.16116712254353,-145.32002959042242L189.98335217521637,259.6726052678531L190.8055372278892,327.31829004917347L191.62772228056198,275.05996418191563L192.44990733323482,133.77421187863806L193.27209238590765,270.1384745207947L194.09427743858046,64.14800950765817L194.9164624912533,32.9945265913816L195.73864754392613,233.95638054706833L196.5608325965989,260.7492919062522L197.38301764927175,265.1357653858825L198.2052027019446,266.0877620970598L199.02738775461737,146.97445971763915L199.8495728072902,102.82791324791718L200.67175785996304,133.1466577361968L201.49394291263584,226.8328854280583L202.31612796530868,148.4029212055793L203.13831301798152,14.017186089405808L203.9604980706543,-99.68429359588649L204.78268312332713,-63.055958937482L205.60486817599997,161.27440430629724L206.42705322867278,-8.324574720666183L207.2492382813456,3.2737340483573654L208.07142333401842,-91.22594771858752L209.71579343936406,-87.17190815714368L210.5379784920369,84.62150475731518L211.36016354470974,89.1381719340221L212.18234859738257,123.7843098865402L213.00453365005535,135.17471919087433L213.8267187027282,164.31519050902588L214.64890375540102,129.61255340494623L215.47108880807383,103.31112558433263L216.29327386074664,290.0078299709526L217.11545891341947,246.94807593173618L217.93764396609228,136.8591837139308L218.75982901876512,103.96790878702035L219.58201407143795,195.71668511096846L220.40419912411073,103.7985357113154L221.22638417678357,126.89617867620873L222.0485692294564,118.79447397603441L222.8707542821292,131.72457067097005L223.69293933480205,17.802878001990848L224.51512438747488,210.51815684081348L225.33730944014766,111.67393285779401L226.1594944928205,105.90517358646406L226.98167954549334,272.8230704202004L227.80386459816611,125.94225409084495L228.62604965083895,159.83331835191024L229.4482347035118,214.30319576375467L230.2704197561846,84.74075310417187L231.09260480885743,338.9718541799609L231.91478986153027,276.33770944111666L232.73697491420305,468.48998682799987L233.55915996687588,137.49979764924814L234.38134501954872,61.103336461811644L235.20353007222155,399.0327222062957L236.02571512489436,118.90616629986994L236.84790017756717,117.71461567365114L237.67008523024,292.22258427426834L238.4922702829128,128.53253962883826L239.31445533558565,226.32237190558286L240.13664038825848,128.78048912501438L240.95882544093126,160.9444579677062L241.7810104936041,113.36934273107046L242.60319554627694,157.34688926202676L243.42538059894974,142.94315041474874L244.24756565162258,104.00037170074094L245.06975070429542,118.29695805694516L245.8919357569682,143.04405286208905L246.71412080964103,173.57402395276702L247.53630586231387,201.80478741286382L248.35849091498665,208.0581271893867L249.18067596765948,387.3129884582694L250.00286102033232,257.4477762671758L250.82504607300513,130.09321597227637L251.64723112567796,122.70068912001881L252.4694161783508,-103.29395815734875L253.29160123102358,97.90847583996253L254.1137862836964,34.05078398235304L254.93597133636925,414.93488571763584L255.75815638904206,127.86897777175297L256.5803414417149,94.52757531704647L257.4025264943877,363.11045592131364L258.2247115470605,85.34921507321806L259.0468965997333,167.43912405973234L259.8690816524062,239.79553832094936L260.691266705079,281.70696342941784L261.5134517577518,92.32364198497092L262.33563681042466,248.77638474489936L263.1578218630974,132.2214336004155L263.9800069157703,121.42533815617846L264.8021919684431,241.12502523573565L265.6243770211159,60.20068711085902L266.44656207378875,265.8958453312711L267.26874712646156,193.07866913948752L268.09093217913437,146.24491481178464L268.9131172318072,123.93256963042882L269.73530228448004,177.34224061869406L270.5574873371528,62.18111141628372L271.37967238982566,288.4483041330774L272.20185744249846,117.86685554489247L273.0240424951713,118.65771928777473L273.84622754784414,319.3204107023641L274.66841260051694,234.07565998867L275.49059765318975,303.83864814265445L276.31278270586256,285.31065779985107L277.1349677585354,280.8482509530698L277.95715281120823,116.47088806541787L278.77933786388104,252.96291901454566L279.60152291655385,96.38318531626969L280.42370796922665,135.31766173337766L281.2458930218995,496.764251836272L282.0680780745723,243.4368573327637L282.89026312724513,369.0826992035511L283.71244817991794,372.98770165248277L284.5346332325908,73.78912174572952L285.3568182852636,103.09685169692986L286.1790033379364,230.13545828846273L287.0011883906093,154.4213401840572L287.8233734432821,370.6348866816197L288.6455584959549,126.88025816679787L289.4677435486277,-18.892745684470537L290.2899286013006,49.4737152846304L291.1121136539733,120.2512938713626L291.9342987066462,-56.16119676227325L292.756483759319,30.98400257285196L293.5786688119918,115.12420575667805L294.40085386466467,152.5251515426833L295.2230389173375,187.7196764170175L296.0452239700103,87.55743948009574L296.8674090226831,149.34300862944337L297.68959407535596,289.5424660181345L298.51177912802876,259.0908225899681L299.33396418070157,158.10115449011107L300.1561492333744,-20.274658339230786L300.9783342860472,87.63980945944996L301.80051933872005,101.21232358490964L302.62270439139286,154.92961488489675L303.44488944406567,465.5114212099022L304.2670744967385,140.17208002965634L305.08925954941134,70.807260084668L305.91144460208415,193.61094898342316L306.73362965475695,243.90526857058623L307.5558147074298,155.29277041108696L308.37799976010257,-84.42557364165359L310.84455491812105,-119.87810716215299L311.66673997079386,323.75327754144945L312.4889250234667,23.301050802826122L313.3111100761395,300.2123789873925L314.13329512881234,-50.719243260295116L314.9554801814852,316.93849105023435L315.77766523415795,285.58342090249175L316.5998502868308,404.368642628018L317.4220353395036,265.20591513047407L318.24422039217643,339.8574947054297L319.0664054448493,85.28335640342861L319.8885904975221,196.06419998045232L320.7107755501949,279.9958196152002L321.5329606028677,169.59280828397985L322.3551456555406,145.59789535900907L323.17733070821333,128.0902479767679L323.9995157608862,247.72277040724805L324.821700813559,127.44475216649451L325.6438858662318,155.61422788430855L326.4660709189047,128.44264472120784L327.2882559715775,119.18409113017117L328.1104410242503,83.45069432597342L328.9326260769231,155.2555500013901L329.75481112959596,-145.49495307809974L330.5769961822688,29.037222781455686L331.3991812349416,-134.87965802833415L333.0435513402872,-127.54335047493375L333.86573639296006,145.78051479605975L334.68792144563287,64.85311394398742L335.5101064983057,-130.55196916401874L336.3322915509785,403.36676994595194L337.15447660365135,106.36497157993738L337.97666165632415,58.26068597386029L338.79884670899696,173.0152824808848L339.6210317616698,149.83847229536642L340.44321681434263,260.2112284397572L341.26540186701544,222.1527531771856L342.08758691968825,670.286859064388L342.9097719723611,200.49221603932656L343.73195702503386,286.01588661516007L344.55414207770673,-7.795746393419229L345.37632713037954,84.95770113963972L346.19851218305234,255.46809823562978L347.0206972357252,259.6207392332881L347.842882288398,378.91889987139535L348.6650673410709,355.2186096547602L349.48725239374363,208.60850417487922L350.30943744641644,248.95735616046807L351.1316224990893,-90.86807829903766L351.9538075517621,220.7204670356175L352.7759926044349,376.78636007370903L353.5981776571078,327.5189133435462L354.42036270978053,132.4238914847399L355.24254776245334,246.33208903441383L356.0647328151262,445.9036969436954L356.886917867799,323.33859802288856L357.7091029204719,286.63342824972966L358.5312879731447,102.5703865702986L359.35347302581744,336.93850661864303L360.1756580784903,247.96275964871873L360.9978431311631,87.94002922187539L361.820028183836,102.49174796033755L362.6422132365088,72.88504203650952L363.46439828918164,90.49682571956502L364.2865833418544,368.47908801471607L365.1087683945272,509.3423871131969L365.93095344720007,125.68805455093529L366.7531384998729,145.9790236477764L367.57532355254574,87.9504148666864L368.39750860521855,527.8030884279435L369.2196936578914,378.2111834764908L370.04187871056416,222.78721035300416L370.86406376323697,387.4882384407686L371.68624881590983,198.3992909466978L372.50843386858264,354.2042990747169L373.33061892125545,311.1469082361162L374.1528039739283,224.88324492012725L374.97498902660107,265.67780897973023L375.7971740792739,164.53804654603294L376.61935913194674,463.2365296698666L378.2637292372924,489.1164371280318L379.0859142899652,190.57224612860568L379.90809934263797,339.178820802302L380.73028439531083,480.3400075573376L385.66339471134773,519.6652827288902L386.4855797640206,355.8776938685737L387.3077648166934,437.4630284288966L388.12994986936627,524.1011346634901L388.9521349220391,364.2164338094491L389.77431997471183,349.50240050238403L390.5965050273847,299.65385517872494L391.4186900800575,524.9239638041739L392.24087513273037,-104.20396141548048L393.0630601854032,161.5337033843776L393.885245238076,161.6845128973515L394.7074302907488,188.16613476491023L395.5296153434216,305.14823442067717L396.3518003960944,101.19562570687519L397.17398544876727,246.03830588419157L397.9961705014401,317.0055313203316L398.81835555411294,170.12384433811778L399.6405406067857,290.9585828923322L400.4627256594585,489.2271344200292L401.28491071213136,437.0381498339944L402.10709576480417,303.26314660324795L402.92928081747704,-15.423784843875657L403.75146587014984,163.1484223945267L404.5736509228226,88.75996655127945L405.39583597549546,106.52010326245839L406.21802102816827,139.6932831470228L407.04020608084113,205.6764562952165L407.86239113351394,102.73434916038349L408.6845761861868,70.05386550944216L409.50676123885955,121.41775103841233L410.32894629153236,202.40161994730124L411.1511313442052,184.0511805981229L411.97331639687803,210.80043493540674L412.7955014495509,131.24869669436114L413.6176865022237,262.3065167330016L414.43987155489646,119.10402216194274L415.2620566075693,164.63248128642505L416.0842416602421,180.69692827162305L416.90642671291494,377.08480743567276L417.7286117655878,199.69339204173886L418.5507968182606,176.18850120232605L419.3729818709335,109.54014927031002L420.1951669236062,227.6031644497883L421.01735197627903,180.07472242531207L421.8395370289519,171.9309776299747L422.6617220816247,160.71771508758127L423.48390713429757,102.96672018934308L424.3060921869704,183.48761944077452L425.1282772396431,161.86470694429664L425.950462292316,142.37134914999046L426.7726473449888,67.27334232188704L427.59483239766166,203.6294270461237L428.41701745033447,-50.384446141492994L429.23920250300733,385.54836168274966L430.0613875556801,96.27653034111489L430.8835726083529,115.06350881454915L431.70575766102576,-16.20541344750986L432.52794271369856,25.130634500531947L433.35012776637143,38.328456949427505L434.17231281904424,-43.73424413526157L434.994497871717,520.9443339673788L435.81668292438985,132.52964471229132L436.63886797706266,133.6667795348597L437.46105302973547,-18.3110562908203L438.28323808240833,67.8103174723091L439.10542313508114,118.49357012922022L439.9276081877539,176.82917732713324L440.74979324042675,84.78919871679318L441.57197829309956,-59.14240543369101L442.3941633457724,129.52542592961572L443.21634839844523,-48.13676250328251L444.86071850379085,-32.27517763409308L445.68290355646366,144.55513308734288L446.5050886091365,-43.04571319798699L448.971643767155,-73.86785051215011L449.79382881982775,114.29363402450349L450.6160138725006,-71.49821328427286L451.4381989251734,91.21321754830862L452.2603839778463,25.823456512608693L453.0825690305191,244.78232694645075L453.90475408319196,37.687625350895594L454.7269391358647,17.193856327535695L455.5491241885375,85.9003383325892L456.3713092412104,96.15917877369972L457.1934942938832,161.36140740264796L458.015679346556,195.29087367371795L458.83786439922886,80.51752703549275L459.6600494519016,183.15969426060485L460.4822345045744,166.52916744371805L461.3044195572473,1.9681589924323044L462.1266046099201,-14.256830160906826L465.4153448206114,-71.26587335005821L466.2375298732842,162.98554812051486L467.05971492595705,84.39846215183847L467.88189997862986,113.1987569603127L468.7040850313027,180.14263334826774L469.5262700839755,138.33817416240342L470.3484551366483,82.47578078777303L471.17064018932115,267.32427572446625L471.99282524199396,93.8219422700532L472.8150102946668,202.19676776761628L473.6371953473396,106.12153082177802L474.45938040001244,141.971159782573L475.28156545268524,93.5032833238765L476.10375050535805,88.77765946115207L476.9259355580309,-83.80736347006771L477.7481206107037,102.74146985697541L478.57030566337653,135.78632172915974L479.3924907160494,121.97820272126637L480.21467576872215,109.52301606584638L481.03686082139495,139.80398043902017L481.8590458740678,102.31388601926315L482.6812309267406,269.26570721973235L483.5034159794135,274.47351729228916L484.3256010320863,195.9206666377951L485.14778608475905,109.42491214555098L485.9699711374319,85.38388571382957L486.7921561901047,204.0904999241397L487.6143412427776,167.74864115089574L488.4365262954504,74.20644431761058L489.25871134812326,456.39294944483424L490.080896400796,189.5311318784215L490.9030814534688,234.97970860314504L491.7252665061417,106.58841841709837L492.5474515588145,-38.566670662661146L493.36963661148735,376.62485396847467L494.19182166416016,164.7424633992887L495.0140067168329,135.25457049588817L495.8361917695058,190.1759746990511L496.6583768221786,82.5993202094319L497.48056187485145,71.49793655934369L498.30274692752425,82.17605854126671L499.12493198019706,36.46821383320777L499.94711703286987,64.55603475080127L500.7693020855427,135.6861655556981L501.5914871382155,237.67804837981555L502.41367219088835,158.64294932599927L503.23585724356116,132.1161156992933L504.058042296234,26.142923922153884L504.88022734890677,181.26944471551502L505.7024124015796,607.0389662498573L506.52459745425244,127.63890775391911L507.34678250692525,107.8859088393382L508.1689675595981,113.15118200054981L508.9911526122709,253.89893302682225L509.8133376649437,90.83644252383334L510.63552271761654,228.73432908132762L511.45770777028935,208.10047823199912L512.2798928229622,199.10812675242022L513.102077875635,226.50352988962123L513.9242629283078,-38.83974471275128L514.7464479809806,307.9263633128716L515.5686330336534,156.8137698599777L516.3908180863262,235.11770708120244L517.2130031389992,361.169335373497L518.035188191672,167.2033947983188L518.8573732443448,36.42433914809308L519.6795582970176,115.07942932396001L520.5017433496904,103.5199889861153L521.3239284023632,377.325605140512L522.146113455036,279.94003564277233L522.9682985077088,485.52319059189944L523.7904835603817,186.23714116762136L524.6126686130546,386.5901600173226L525.4348536657272,69.23380380105834L526.2570387184002,189.719317274817L527.079223771073,197.2719820635314L527.9014088237458,57.011827732711396L528.7235938764186,87.0323736169869L529.5457789290915,82.99932300837968L530.3679639817642,46.13068816105503L531.190149034437,94.97922648734469L532.0123340871099,92.07556810981504L532.8345191397827,180.1990392155945L533.6567041924555,99.05232712743863L534.4788892451284,202.5267452009522L535.3010742978012,147.78146163314693L536.123259350474,121.96091404307803L536.9454444031468,156.07750848921546L537.7676294558197,65.28561075140074L538.5898145084925,79.21002410538121L539.4119995611653,41.33168070026489L540.2341846138381,181.64164881248368L541.0563696665109,176.44453533218734L541.8785547191837,22.01422587810172L542.7007397718565,51.19698604937582L543.5229248245294,51.91375101505876L544.3451098772023,23.693279915538103L545.167294929875,95.5421657497942L545.9894799825478,71.4303987733273L546.8116650352207,-40.5023185353678L547.6338500878935,92.74824072716866L548.4560351405663,43.90704076068556L549.2782201932391,35.44298899768954L550.1004052459119,10.431837618489025L550.9225902985847,22.234407767043663L551.7447753512575,400.58086736752176L552.5669604039305,365.6890809299533L553.3891454566033,59.947016181613364L554.2113305092761,-24.321608298827652L555.0335155619489,112.12337630120128L555.8557006146217,-39.54472477010078L556.6778856672945,344.709954032777L557.5000707199673,319.1513174793636L558.3222557726402,482.1114751767449L559.144440825313,23.281056881827716L559.9666258779857,215.76626570281644L560.7888109306587,5.959418263836044L561.6109959833315,204.42420872686878L562.4331810360043,488.7941090019519L563.2553660886771,131.9193481532935L564.0775511413499,68.22176313739594L564.8997361940227,68.18416959075972L565.7219212466955,112.27011240258764L566.5441062993683,126.94148371959079L567.3662913520412,21.64366980261505L568.188476404714,263.8700848877194L569.0106614573868,199.25962034978292L569.8328465100597,76.78326583104356L570.6550315627325,-79.71515510920622L571.4772166154053,102.99644676550868L572.2994016680781,98.17663692035163L573.121586720751,74.66932069083327L573.9437717734238,54.6419106521297L574.7659568260965,235.8448265969514L575.5881418787694,71.48304217651595L576.4103269314422,-42.08606717955363L577.232511984115,-59.46591516007876L578.0546970367878,104.51872109894205L578.8768820894608,130.87049131161848L579.6990671421336,212.75007544333778L580.5212521948063,52.9048960101194L581.3434372474792,98.76781021120948L582.165622300152,-35.05958766476608L582.9878073528248,145.3188822126348L583.8099924054976,367.9409623587311L584.6321774581704,80.24013081585552L585.4543625108432,97.83325765194525L586.276547563516,88.510026991427L587.0987326161888,314.28281326362577L587.9209176688618,277.1133989484667L588.7431027215346,151.41693483291195L589.5652877742074,211.12624567292028L590.3874728268802,92.89926790335721L591.209657879553,133.65844614321497L592.0318429322258,189.42310873448923L592.8540279848986,99.15640123876312L593.6762130375715,120.01876736867824L594.4983980902443,163.2746048695057L595.320583142917,50.125647707106985L596.14276819559,48.72430083675725L596.9649532482628,-35.69081098711061L597.7871383009356,50.54029613092296L598.6093233536084,3.3358924434985973L599.4315084062813,431.82449394938834L600.253693458954,-58.060805825590876L601.0758785116268,62.080675390117584L601.8980635642997,86.93641523409256L602.7202486169725,373.22265354527264L603.5424336696453,252.89992106129094L604.3646187223181,46.66666827963887L605.186803774991,95.96735529214587L606.0089888276638,131.0886209473942L606.8311738803366,103.19455138554102L607.6533589330094,94.9071177738217L608.4755439856823,103.56078529148064L609.2977290383551,152.78973672740392L610.1199140910278,131.3474846990453L610.9420991437007,136.20236941649813L611.7642841963735,117.27689494908742L612.5864692490463,89.84265447545253L613.4086543017191,271.5134841421777L614.2308393543921,259.25742823337316L615.0530244070648,190.94830597394727L615.8752094597376,-21.082375433872283L616.6973945124105,133.3199487497646L617.5195795650833,260.3588662887469L618.3417646177561,140.67335841288374L619.1639496704289,158.66518206863356L619.9861347231017,181.1173914127434L620.8083197757745,98.42890858607485L621.6305048284473,137.68076906481687L622.4526898811202,-63.969211596460184L623.2748749337931,92.51925902540783L624.0970599864659,101.29627939625595L624.9192450391387,105.07559688612766L625.7414300918115,-133.44643904441782L626.5636151444843,322.2232917112702L627.3858001971571,218.29302467689104L628.2079852498299,98.06799188152053L629.0301703025028,185.84864342430254L629.8523553551756,144.31184780290826L630.6745404078483,-52.83104286310431L631.4967254605212,59.202794556145705L632.318910513194,99.24113441873303L633.1410955658669,217.8611186696317L633.9632806185397,112.16569624906882L634.7854656712126,67.25499642237064L635.6076507238853,169.8622753436566L636.4298357765581,215.75911391147952L637.252020829231,238.90821867925365L638.0742058819038,120.27750674134963L638.8963909345766,239.40641868273167L639.7185759872494,218.68774136919853L640.5407610399222,134.43233215535832L641.362946092595,199.09220624300934L642.1851311452679,170.1468233546307L643.0073161979408,203.6054219030276L643.8295012506136,170.22720327030856L644.6516863032864,150.11487348316544L645.4738713559592,158.78869039554746L646.296056408632,198.94071264564664L647.1182414613048,132.76176698329138L647.9404265139776,104.20055966868448L648.7626115666504,334.2570201937317L649.5847966193234,166.5175069143644L650.406981671996,70.29851896265427L651.2291667246689,162.67609321884134L652.0513517773418,326.1730705929199L652.8735368300146,131.75861941668273L653.6957218826874,189.17379106953564L654.5179069353602,73.18187247173613L655.340091988033,118.62255113124411L656.1622770407058,263.59800586946744L656.9844620933786,166.29850662573028L657.8066471460515,135.40901809402044L658.6288321987244,242.63262284955593L659.4510172513972,223.33055992613956L660.27320230407,281.5352582478422L661.0953873567428,366.40774267507777L661.9175724094156,234.59127304931613L662.7397574620884,117.26887250489213L663.5619425147613,141.07202413779896L664.3841275674341,388.2071489438526L665.2063126201068,150.69311136012695L666.0284976727797,440.19519928806517L666.8506827254525,84.48185825777578L667.6728677781254,72.09476909378115L668.4950528307982,166.29863100471005L669.317237883471,134.36976952853286L670.1394229361438,189.2073112045843L670.9616079888166,140.77283050195663L671.7837930414894,114.49419512938633L672.6059780941623,439.06204459284953L674.2503481995079,423.0975672126435L675.0725332521807,75.03760684993911L675.8947183048535,78.72248959941867L676.7169033575263,79.3444155930252L677.5390884101992,76.67807230890111L678.3612734628721,107.05776249726918L679.1834585155449,116.88242701473952L680.0056435682177,120.52713535375264L680.8278286208905,152.7834244941805L681.6500136735633,296.9478660947984L682.4721987262361,101.8335654941274L683.2943837789089,180.89170575394652L684.1165688315818,210.64210049415655L684.9387538842547,212.51748675116355L685.7609389369273,142.67940478814154L686.5831239896003,342.9312724325429L687.4053090422731,1.4018304027839954L688.2274940949459,125.97331774104308L689.0496791476187,201.1858154200269L689.8718642002915,225.09462699625027L690.6940492529643,161.49520809013805L691.5162343056371,68.12229104832302L692.3384193583099,207.41396845314586L693.1606044109828,398.970843663859L694.8049745163285,-42.75967263925557L695.6271595690013,193.17021206859997L696.4493446216741,152.93221284873312L697.271529674347,171.74888680358802L698.0937147270197,120.19526114097518L698.9158997796925,164.1991449208983L699.7380848323654,151.25309662180683L700.5602698850381,216.03803377361896L701.382454937711,137.83241813590425L702.2046399903838,144.7682253744378L703.0268250430565,148.66862580111788L703.8490100957295,175.24794735728776L704.6711951484023,70.27339440874029L705.4933802010752,119.00181373531484L706.3155652537479,112.05652259957365L707.1377503064208,92.64345143671049L707.9599353590936,73.47055608378768L708.7821204117663,98.5802467097128L709.6043054644392,75.76531716584199L710.426490517112,95.30472627740888L711.248675569785,85.93758983703098L712.0708606224576,78.7330307179544L712.8930456751305,85.64085268603918L713.7152307278034,84.61957688312869L714.5374157804761,90.44334275826292L715.359600833149,72.30643102260869L716.1817858858218,-5.195728200258767L717.0039709384947,229.77090349875004L717.8261559911674,63.89592441040465L718.6483410438402,67.65021063059719L719.4705260965131,86.28466938008566L720.2927111491858,101.6081285932901L721.1148962018588,172.42572611676403L721.9370812545316,35.66584503469657L722.7592663072043,100.59319611834799L723.5814513598772,151.26127453972688L724.40363641255,71.91460614158092L725.2258214652228,343.97978723202357L726.0480065178956,56.88558306824249L726.8701915705685,105.79351235737349L727.6923766232413,68.89639472368096L728.514561675914,167.32052870251943L729.336746728587,71.8286291718133L730.1589317812598,174.2293457024424L730.9811168339326,83.88381302828557L731.8033018866054,76.8562762921699L732.6254869392783,82.91679755530075L733.447671991951,180.48511086907084L734.2698570446238,356.6443658998902L735.0920420972967,66.50639043786603L735.9142271499694,416.8373865922331L736.7364122026423,489.2711645788686L737.5585972553151,119.77489128408969L738.3807823079878,65.09857586056812L739.2029673606608,66.96475807307195L740.0251524133336,89.05318999609271L740.8473374660065,71.07237388005271L741.6695225186792,143.057174844455L742.4917075713521,126.03790152628986L743.3138926240249,63.98227451711156L744.1360776766976,106.04379395942033L744.9582627293705,58.21164956108507L745.7804477820433,55.911664561880315L746.6026328347162,61.40641694077183L747.4248178873889,133.53521766900553L748.2470029400617,75.56270380779286L749.0691879927347,114.15778108384715L749.8913730454074,4.94327309384118L750.7135580980803,77.26598065153992L751.5357431507531,80.03198259320656L752.357928203426,100.88315461494221L753.1801132560987,375.0431886722L754.8244833614444,416.83645374988487L755.6466684141171,129.08204596147237L756.46885346679,204.06724105492222L757.2910385194629,475.25402669546787L758.1132235721356,345.77600626840547L758.9354086248085,553.7914543564701L762.2241488354998,549.0579013337853L763.0463338881726,342.3211935367597L763.8685189408453,543.1224742295605L764.6907039935182,370.9015552142516L765.512889046191,458.0789687051378L766.3350740988639,369.9389862897936L767.1572591515367,392.4098524808693L767.9794442042095,362.936574107592L768.8016292568823,376.99481924380746L769.6238143095551,368.37877636752967L770.445999362228,472.03516088845015L772.0903694675736,508.2837976163548L772.9125545202464,89.19249445343767L773.7347395729192,370.57593104520765L774.556924625592,516.3951727822064L775.3791096782649,517.7453066076349L776.2012947309378,368.85974988230925L777.0234797836105,397.3723872053151L777.8456648362833,318.5766865928155L778.6678498889562,229.17270279553512L779.4900349416289,208.07479397267616L780.3122199943018,150.72619616874636L781.1344050469746,253.93879648983923L781.9565900996475,261.1902775790349L782.7787751523202,304.9223000039207L783.600960204993,271.5192055752472L784.423145257666,261.09407043818106L785.2453303103387,378.09638167816104L786.0675153630116,597.5214867176795L786.8897004156844,166.8408922617724L787.7118854683573,650.2268306382392L788.53407052103,257.71985528542774L789.3562555737028,220.04751456555934L790.1784406263757,224.82161513565003L791.0006256790484,147.20151354521354L791.8228107317213,185.26300499804458L792.6449957843942,182.0901594135427L793.4671808370668,251.6458699977366L794.2893658897398,217.38008296536225L795.1115509424126,231.60972233570402L795.9337359950855,210.9393040663225L796.7559210477582,278.6104243490063L797.5781061004311,201.71784650600296L798.4002911531039,637.9559736308416L799.2224762057766,299.0683411314468L800.0446612584495,482.4851096319809L800.8668463111223,327.98751114983844L801.6890313637953,288.9207576877426L802.511216416468,280.0726236352096L803.3334014691408,133.10365370394052L804.1555865218137,228.00497074394275L804.9777715744864,204.98291910400604L805.7999566271593,161.61112929928584L806.6221416798321,452.65044813297516L807.4443267325049,293.16251622440774L808.2665117851777,267.5293144726209L809.0886968378505,211.54764165638892L809.9108818905233,122.81284786502853L810.7330669431961,515.9868365916138L811.5552519958691,242.7016531833295L812.3774370485418,76.58528558999096L813.1996221012146,399.424267234619L814.0218071538875,130.56001028336186L814.8439922065603,266.54709366935896L815.6661772592331,190.5821964469875L816.4883623119059,308.0292869186332L817.3105473645788,141.54208339710345L818.1327324172515,208.7379205033323L818.9549174699243,21.123890046146514L819.7771025225973,104.17608810441428L820.59928757527,107.28229765050315L821.4214726279429,121.34374554544779L822.2436576806157,94.36277316884818L823.0658427332884,102.39476345086008L823.8880277859613,139.6381210694938L824.7102128386341,52.8288071692437L825.532397891307,119.136671644133L826.3545829439797,122.868849500671L827.1767679966526,62.62082220452378L827.9989530493255,131.60821413539304L828.8211381019981,69.08986622671681L829.6433231546711,148.95587905490208L830.4655082073439,95.55665590093767L831.2876932600168,100.72482017369201L832.1098783126895,113.0318714642032" fill="none"></path></g></g></g></g></g></g><g transform="translate(51, 374)" clip-path="url(#clip_1)"><clipPath id="clip_1"><rect width="1392" height="26"></rect></clipPath><g><g><line x1="11.569195745214227" y1="0" x2="11.569195745214227" y2="5" style="visibility: inherit;" fill="rgb(0, 0, 0)" stroke="rgb(204, 204, 204)" stroke-width="1px"></line><line x1="176.0062062797784" y1="0" x2="176.0062062797784" y2="5" style="visibility: inherit;" fill="rgb(0, 0, 0)" stroke="rgb(204, 204, 204)" stroke-width="1px"></line><line x1="340.44321681434263" y1="0" x2="340.44321681434263" y2="5" style="visibility: inherit;" fill="rgb(0, 0, 0)" stroke="rgb(204, 204, 204)" stroke-width="1px"></line><line x1="504.88022734890677" y1="0" x2="504.88022734890677" y2="5" style="visibility: inherit;" fill="rgb(0, 0, 0)" stroke="rgb(204, 204, 204)" stroke-width="1px"></line><line x1="669.317237883471" y1="0" x2="669.317237883471" y2="5" style="visibility: inherit;" fill="rgb(0, 0, 0)" stroke="rgb(204, 204, 204)" stroke-width="1px"></line><line x1="833.7542484180352" y1="0" x2="833.7542484180352" y2="5" style="visibility: inherit;" fill="rgb(0, 0, 0)" stroke="rgb(204, 204, 204)" stroke-width="1px"></line><line x1="998.1912589525995" y1="0" x2="998.1912589525995" y2="5" style="visibility: inherit;" fill="rgb(0, 0, 0)" stroke="rgb(204, 204, 204)" stroke-width="1px"></line><line x1="1162.6282694871636" y1="0" x2="1162.6282694871636" y2="5" style="visibility: inherit;" fill="rgb(0, 0, 0)" stroke="rgb(204, 204, 204)" stroke-width="1px"></line><line x1="1327.0652800217279" y1="0" x2="1327.0652800217279" y2="5" style="visibility: inherit;" fill="rgb(0, 0, 0)" stroke="rgb(204, 204, 204)" stroke-width="1px"></line></g><g transform="translate(0, 8)"><text x="11.569195745214227" y="0" dx="0em" dy="0.95em" style="text-anchor: middle; visibility: inherit; font-family: Roboto, sans-serif; font-size: 12px; font-weight: 200;" fill="rgb(33, 33, 33)" stroke="none" stroke-width="1px">0</text><text x="176.0062062797784" y="0" dx="0em" dy="0.95em" style="text-anchor: middle; visibility: inherit; font-family: Roboto, sans-serif; font-size: 12px; font-weight: 200;" fill="rgb(33, 33, 33)" stroke="none" stroke-width="1px">200</text><text x="340.44321681434263" y="0" dx="0em" dy="0.95em" style="text-anchor: middle; visibility: inherit; font-family: Roboto, sans-serif; font-size: 12px; font-weight: 200;" fill="rgb(33, 33, 33)" stroke="none" stroke-width="1px">400</text><text x="504.88022734890677" y="0" dx="0em" dy="0.95em" style="text-anchor: middle; visibility: inherit; font-family: Roboto, sans-serif; font-size: 12px; font-weight: 200;" fill="rgb(33, 33, 33)" stroke="none" stroke-width="1px">600</text><text x="669.317237883471" y="0" dx="0em" dy="0.95em" style="text-anchor: middle; visibility: inherit; font-family: Roboto, sans-serif; font-size: 12px; font-weight: 200;" fill="rgb(33, 33, 33)" stroke="none" stroke-width="1px">800</text><text x="833.7542484180352" y="0" dx="0em" dy="0.95em" style="text-anchor: middle; visibility: inherit; font-family: Roboto, sans-serif; font-size: 12px; font-weight: 200;" fill="rgb(33, 33, 33)" stroke="none" stroke-width="1px">1k</text><text x="998.1912589525995" y="0" dx="0em" dy="0.95em" style="text-anchor: middle; visibility: inherit; font-family: Roboto, sans-serif; font-size: 12px; font-weight: 200;" fill="rgb(33, 33, 33)" stroke="none" stroke-width="1px">1.2k</text><text x="1162.6282694871636" y="0" dx="0em" dy="0.95em" style="text-anchor: middle; visibility: inherit; font-family: Roboto, sans-serif; font-size: 12px; font-weight: 200;" fill="rgb(33, 33, 33)" stroke="none" stroke-width="1px">1.4k</text><text x="1327.0652800217279" y="0" dx="0em" dy="0.95em" style="text-anchor: middle; visibility: inherit; font-family: Roboto, sans-serif; font-size: 12px; font-weight: 200;" fill="rgb(33, 33, 33)" stroke="none" stroke-width="1px">1.6k</text></g><line x1="0" y1="0" x2="1392.875" y2="0" fill="rgb(0, 0, 0)" stroke="rgb(204, 204, 204)" stroke-width="1px"></line></g></g></g></g></svg>