<svg viewBox="0 0 1444 400" xmlns="http://www.w3.org/2000/svg"><g><g><g><g><g><line x1="71.6875" y1="361.0396360258524" x2="66.6875" y2="361.0396360258524" style="visibility: inherit;" fill="rgb(0, 0, 0)" stroke="rgb(204, 204, 204)" stroke-width="1px"></line><line x1="71.6875" y1="309.46349043065226" x2="66.6875" y2="309.46349043065226" style="visibility: inherit;" fill="rgb(0, 0, 0)" stroke="rgb(204, 204, 204)" stroke-width="1px"></line><line x1="71.6875" y1="257.8873448354521" x2="66.6875" y2="257.8873448354521" style="visibility: inherit;" fill="rgb(0, 0, 0)" stroke="rgb(204, 204, 204)" stroke-width="1px"></line><line x1="71.6875" y1="206.3111992402519" x2="66.6875" y2="206.3111992402519" style="visibility: inherit;" fill="rgb(0, 0, 0)" stroke="rgb(204, 204, 204)" stroke-width="1px"></line><line x1="71.6875" y1="154.73505364505178" x2="66.6875" y2="154.73505364505178" style="visibility: inherit;" fill="rgb(0, 0, 0)" stroke="rgb(204, 204, 204)" stroke-width="1px"></line><line x1="71.6875" y1="103.15890804985158" x2="66.6875" y2="103.15890804985158" style="visibility: inherit;" fill="rgb(0, 0, 0)" stroke="rgb(204, 204, 204)" stroke-width="1px"></line><line x1="71.6875" y1="51.58276245465144" x2="66.6875" y2="51.58276245465144" style="visibility: inherit;" fill="rgb(0, 0, 0)" stroke="rgb(204, 204, 204)" stroke-width="1px"></line><line x1="71.6875" y1="0.006616859451251456" x2="66.6875" y2="0.006616859451251456" style="visibility: inherit;" fill="rgb(0, 0, 0)" stroke="rgb(204, 204, 204)" stroke-width="1px"></line></g><g transform="translate(61.6875, 0)"><text x="0" y="361.0396360258524" dx="0em" dy="0.3em" style="text-anchor: end; visibility: inherit; font-family: Roboto, sans-serif; font-size: 12px; font-weight: 200;" fill="rgb(33, 33, 33)" stroke="none" stroke-width="1px">-0.012</text><text x="0" y="309.46349043065226" dx="0em" dy="0.3em" style="text-anchor: end; visibility: inherit; font-family: Roboto, sans-serif; font-size: 12px; font-weight: 200;" fill="rgb(33, 33, 33)" stroke="none" stroke-width="1px">-0.01</text><text x="0" y="257.8873448354521" dx="0em" dy="0.3em" style="text-anchor: end; visibility: inherit; font-family: Roboto, sans-serif; font-size: 12px; font-weight: 200;" fill="rgb(33, 33, 33)" stroke="none" stroke-width="1px">-8e-3</text><text x="0" y="206.3111992402519" dx="0em" dy="0.3em" style="text-anchor: end; visibility: inherit; font-family: Roboto, sans-serif; font-size: 12px; font-weight: 200;" fill="rgb(33, 33, 33)" stroke="none" stroke-width="1px">-6e-3</text><text x="0" y="154.73505364505178" dx="0em" dy="0.3em" style="text-anchor: end; visibility: inherit; font-family: Roboto, sans-serif; font-size: 12px; font-weight: 200;" fill="rgb(33, 33, 33)" stroke="none" stroke-width="1px">-4e-3</text><text x="0" y="103.15890804985158" dx="0em" dy="0.3em" style="text-anchor: end; visibility: inherit; font-family: Roboto, sans-serif; font-size: 12px; font-weight: 200;" fill="rgb(33, 33, 33)" stroke="none" stroke-width="1px">-2e-3</text><text x="0" y="51.58276245465144" dx="0em" dy="0.3em" style="text-anchor: end; visibility: inherit; font-family: Roboto, sans-serif; font-size: 12px; font-weight: 200;" fill="rgb(33, 33, 33)" stroke="none" stroke-width="1px">0</text><text x="0" y="0.006616859451251456" dx="0em" dy="0.3em" style="text-anchor: end; visibility: hidden; font-family: Roboto, sans-serif; font-size: 12px; font-weight: 200;" fill="rgb(33, 33, 33)" stroke="none" stroke-width="1px">2e-3</text></g><line x1="71.6875" y1="0" x2="71.6875" y2="374" fill="rgb(0, 0, 0)" stroke="rgb(204, 204, 204)" stroke-width="1px"></line></g></g><g transform="translate(71, 0)" clip-path="url(#clip_0)"><clipPath id="clip_0"><rect width="1372" height="374"></rect></clipPath><g><g><g><line x1="13.135238672490797" y1="0" x2="13.135238672490797" y2="374" fill="rgb(0, 0, 0)" stroke="rgb(66, 66, 66)" stroke-width="1px" opacity="0.25"></line><line x1="190.55483084022143" y1="0" x2="190.55483084022143" y2="374" fill="rgb(0, 0, 0)" stroke="rgb(66, 66, 66)" stroke-width="1px" opacity="0.25"></line><line x1="367.97442300795205" y1="0" x2="367.97442300795205" y2="374" fill="rgb(0, 0, 0)" stroke="rgb(66, 66, 66)" stroke-width="1px" opacity="0.25"></line><line x1="545.3940151756827" y1="0" x2="545.3940151756827" y2="374" fill="rgb(0, 0, 0)" stroke="rgb(66, 66, 66)" stroke-width="1px" opacity="0.25"></line><line x1="722.8136073434133" y1="0" x2="722.8136073434133" y2="374" fill="rgb(0, 0, 0)" stroke="rgb(66, 66, 66)" stroke-width="1px" opacity="0.25"></line><line x1="900.233199511144" y1="0" x2="900.233199511144" y2="374" fill="rgb(0, 0, 0)" stroke="rgb(66, 66, 66)" stroke-width="1px" opacity="0.25"></line><line x1="1077.6527916788746" y1="0" x2="1077.6527916788746" y2="374" fill="rgb(0, 0, 0)" stroke="rgb(66, 66, 66)" stroke-width="1px" opacity="0.25"></line><line x1="1255.0723838466051" y1="0" x2="1255.0723838466051" y2="374" fill="rgb(0, 0, 0)" stroke="rgb(66, 66, 66)" stroke-width="1px" opacity="0.25"></line></g><g><line x1="0" y1="361.0396360258524" x2="1372.3125" y2="361.0396360258524" fill="rgb(0, 0, 0)" stroke="rgb(66, 66, 66)" stroke-width="1px" opacity="0.25"></line><line x1="0" y1="309.46349043065226" x2="1372.3125" y2="309.46349043065226" fill="rgb(0, 0, 0)" stroke="rgb(66, 66, 66)" stroke-width="1px" opacity="0.25"></line><line x1="0" y1="257.8873448354521" x2="1372.3125" y2="257.8873448354521" fill="rgb(0, 0, 0)" stroke="rgb(66, 66, 66)" stroke-width="1px" opacity="0.25"></line><line x1="0" y1="206.3111992402519" x2="1372.3125" y2="206.3111992402519" fill="rgb(0, 0, 0)" stroke="rgb(66, 66, 66)" stroke-width="1px" opacity="0.25"></line><line x1="0" y1="154.73505364505178" x2="1372.3125" y2="154.73505364505178" fill="rgb(0, 0, 0)" stroke="rgb(66, 66, 66)" stroke-width="1px" opacity="0.25"></line><line x1="0" y1="103.15890804985158" x2="1372.3125" y2="103.15890804985158" fill="rgb(0, 0, 0)" stroke="rgb(66, 66, 66)" stroke-width="1px" opacity="0.25"></line><line x1="0" y1="51.58276245465144" x2="1372.3125" y2="51.58276245465144" fill="rgb(0, 0, 0)" stroke="rgb(66, 66, 66)" stroke-width="1px" opacity="0.25"></line><line x1="0" y1="0.006616859451251456" x2="1372.3125" y2="0.006616859451251456" fill="rgb(0, 0, 0)" stroke="rgb(66, 66, 66)" stroke-width="1px" opacity="0.25"></line></g></g></g><g><g><line x1="0" y1="51.58276245465144" x2="1372.3125" y2="51.58276245465144" fill="rgb(0, 0, 0)" stroke="rgb(153, 153, 153)" stroke-width="1.5px"></line></g></g><g><g><line x1="13.135238672490797" y1="0" x2="13.135238672490797" y2="374" fill="rgb(0, 0, 0)" stroke="rgb(153, 153, 153)" stroke-width="1.5px"></line></g></g><g><g><g><g><g><path style="fill: none;" stroke="rgb(0, 119, 187)" stroke-width="2px" d="M14.001046282269323,183.57864017754414L14.785240879650692,281.37891803046074L15.108144537395962,315.70351166907426L15.47008050541813,336.7500974771542L15.988145714547905,346.98755650216395L16.77588870377263,353.22745976724354L17.152018239168218,355.08903627094895L18.30879398010182,353.6347734041761L18.49331035595626,355.42017152175936L20.019118848598744,359.68585427275383L20.090086685465835,358.9119182512198L22.016863456407393,359.5341604514147L22.691057906644765,358.96120698103124L22.77621931088528,358.744054805041L24.07493072555307,360.32166865360006L24.635576636803094,355.5681462645385L24.720738041043603,353.47401072374225L25.788803985893345,345.93931027767366L27.758161458955154,336.03310706808554L27.971064969556434,332.38958170775896L29.330099045561248,333.40011001726714L31.196553155165777,319.7539889747272L31.54074716397117,302.5743506888411L31.806876552222768,293.14163330162785L31.92397348305347,283.92549024663236L32.16171573655823,273.7833055038977L32.48816778614685,267.75032892295576L33.24397524878138,266.04950140931413L33.8294599029349,263.44164731354516L33.95010522560895,258.8797189613567L34.35817028759473,257.0274624428979L34.414944557088404,261.3337837660332L34.613654500316265,255.07816715319208L35.41559105691441,249.29877703181495L35.61075260829892,249.14144636437155L36.44462469148724,244.06334655582612L37.01591577826734,240.24657368258724L37.44172279946989,239.5766655168945L37.942046049382895,236.6231715730842L39.52108041967569,230.17996973330935L39.620435391289625,227.00625568207187L40.259145923093456,220.89371919812083L40.56430762162195,217.91771171569653L41.47269593352073,203.48949055099652L42.55495544574389,202.71553627416336L43.46689214948603,201.32126561626868L43.48818250054615,200.31896733104278L43.71527957852085,200.3928575686958L43.86076364409839,199.00065997760927L43.984957358615794,201.0460820490727L44.19076408553037,200.17075392196986L44.27592548977088,200.93322367885528L45.61012082287221,199.76153731164777L45.96496000720767,198.36368545007164L46.10334728909851,195.06873877503094L46.23108939545927,193.6110579900931L46.34463793444662,190.01907094444556L47.597220255150795,190.76889904546786L47.742704320728336,187.27714918721585L48.040769235570124,190.24421440724078L48.24302757064133,190.04572561699786L48.324640583038494,187.3020535611117L48.43818912202584,185.4632887890996L48.54464087732648,181.45791204459272L48.84270579216826,180.16811900576397L49.048512519082834,179.22615566461334L49.296899948117655,183.0797824138639L50.198191476329725,178.68270588455113L50.457224080894605,175.58188512077078L50.90786984500065,173.30880871710914L51.12787013928863,169.58842983975364L52.249161961788694,163.70116845597022L52.58625918690738,163.1027964027475L55.07368186909896,161.58454408645613L55.24400467757998,156.77665505910227L55.81174737251673,157.51269392463306L55.9856185728411,157.7176600428713L56.97207150529368,155.60220792728643L57.12820074640128,154.0352957479932L57.40497531018294,154.6866147743956L58.927235410982064,150.9735033503789L60.34304375648056,149.62161259975872L60.64110867132234,153.15033207980193L61.11659317833186,152.81162306103408L61.21594814994579,150.81994992215277L61.54240019953441,150.1830418667705L61.56014215875119,150.93932624347443L62.11014289447115,147.48321069416505L62.27691731110882,150.18181470868828L62.70982111599808,149.23367520188523L62.975950504249674,130.11729786480112L63.47982214600603,134.03406171669067L63.75304831794434,136.67680936015483L65.1014372184191,138.24764527566043L65.45627640275455,139.37368920044457L65.83240593815013,140.33086866174494L65.87853503211375,141.19348565829947L66.59176179262802,140.97908310131527L66.6095037518448,140.43599241768658L67.67756969669453,140.57790616696337L68.52563534725628,139.8968933378114L70.76467060041306,139.90239299864487L72.86886696352234,138.53077084413925L72.98241550250968,138.1577334291375L73.0427381638467,138.80316235197813L73.12789956808723,137.443220751303L73.26983524182141,134.80973885542676L77.43564726591973,132.23309929157145L77.46403440066656,131.65225601777257L77.4924215354134,133.06272069546588L78.44339054943244,132.5127411151087L78.71306832952739,131.15249506165668L79.69952126197997,129.88114855532834L79.7208116130401,129.13010443001573L79.82726336834072,128.74529494550941L80.94145840715407,127.41508411250516L81.29629759148955,127.38232517245812L81.68662069425855,128.17430213866405L81.89242742117311,128.4098496378216L82.3324280097491,128.95160115916823L82.49210564270004,130.0548462524048L82.74404146357823,128.57029362366387L83.53888123648966,127.66036468790593L84.09952714773969,127.94057393159457L86.29598169877619,128.82328900407057L86.39533667039012,128.11146682887394L87.08727307984427,127.21857562983314L87.53791884395031,126.79978913393862L87.77920948929841,125.81054828042177L87.8359837587921,124.89811772341207L88.1092099307304,125.1422228288419L88.59888800511334,124.60563391095096L88.75501724622094,123.95167216065599L90.05018026904537,125.26730492298653L91.42340791242361,123.52190707939995L91.7746987049157,123.19632748322095L93.69083030032719,121.81786824502466L95.00018689052506,121.4664490918052L95.12438060504246,122.43840017449517L96.18889815804886,121.25083766774344L96.52244699132419,119.37021817025474L99.63793502978955,118.9487864688045L99.9608386875348,117.83258443898124L100.84438825653011,116.8368827744442L100.98632393026429,115.62607816818374L101.2347113592991,114.85926781382761L101.62503446206811,113.82462516547429L101.81309922976592,113.95058796741739L102.24245464281181,113.22372577526428L103.42052073480555,113.51094734507802L104.14794106269325,113.75606597207873L105.14149077883253,113.34011813705081L106.73117032465541,113.06508119848453L107.6856877305178,113.22951997732291L107.85246214715545,112.81563360123197L108.28891434388807,112.48661692469673L108.9914959288723,112.32304217344519L109.04472180652262,112.59067326143357L110.03472313081855,112.03369620905578L111.75214478300218,111.92014943600542L111.89762884857971,110.36270826076156L112.11408075102435,109.64132632400127L112.51150063748007,108.88118853589157L112.8521462544421,107.13557387155642L115.30763341004351,107.80561319509656L115.93924715816063,108.4329248877258L115.98182786028089,108.43585423292754L117.13860360121447,108.43918596996204L117.77731413301832,107.71147762905304L118.04344352126991,107.61569729630394L118.23860507265441,106.61347226532372L118.29537934214808,106.02853774451522L118.44086340772562,105.06946560258939L118.98731575160224,105.89118571969519L119.13989660086649,105.18934638575702L119.78215552451367,104.86525510320689L119.87086532059755,104.5347292358216L120.65151152613555,104.03837815223149L122.08151343900747,102.8454609531789L122.84796607717206,102.24348353865177L122.98990175090624,101.48007225838828L123.01828888565308,102.10735334607581L124.46958114958512,101.83230901902562L124.59022647225918,101.64174367660765L125.47732443309783,101.71432199297985L126.39280952868332,101.21687094920343L126.51700324320072,101.09128895490315L126.59861625559788,100.68145145573912L126.73345514564535,100.87611609706134L129.56152344479898,100.20445573666171L129.6076525387626,100.55598574788065L131.22217082748892,100.50494551947054L131.6799133752817,99.38915119910646L132.71959218538458,99.55333467042345L133.08152815340677,98.05011417852502L133.2979800558514,97.17809863473745L135.42701516186415,97.00754738258598L137.15508198957787,96.29596269347526L137.21185625907154,95.15400919391024L137.8257280479719,94.895069238218L138.09895421991018,95.3480366156067L139.02153609918238,94.86072918073457L139.28411709559063,94.47679074843805L139.82702104762387,94.23108996481288L140.56863494288498,94.80392753866384L140.6928286574024,94.7401311975982L142.6550893467775,94.45460770548964L143.33992897254495,93.7973606680169L144.0389621656858,93.50176484079256L144.08154286780604,92.8764881827981L144.41154330923803,92.16894381905226L144.65638234642952,92.63528730480544L144.70605983223646,92.10834436527162L144.8373503304406,91.6009176908447L145.071544192102,91.85421809573205L146.81735297903248,91.55019714252758L147.08348236728406,91.556987311064L147.75058003383472,91.77432893244494L149.34380797150095,91.06586562880919L149.3473563633443,90.63056394723189L149.42187259205474,90.61082380940408L149.70219554767976,90.58941768785284L150.83058415386654,89.9215698830401L150.9512294765406,89.38478655269745L151.61123035940454,88.4425929340723L153.6089749672132,88.38346157640501L154.04897555578916,88.36053376545014L155.4612355094443,87.43497107012656L155.90833288170697,87.50873320956123L155.95446197567057,87.05376635053146L156.248978498669,86.32610649986606L156.5470434135108,85.75933535475505L156.98704400208678,85.55819179599284L157.2602701740251,85.85578855670943L158.41349752311532,86.11155544581169L158.87833685459478,85.41090199126094L159.94640279944454,84.48592550308561L160.29769359193662,84.0241000926934L160.52124227806797,83.66347975776624L162.05414755439716,83.28680152548533L162.21027679550477,83.45868187315422L162.632535424864,83.38440029302959L163.803504733171,83.53419014649322L164.06608572957924,82.97811869080431L165.20157111945272,81.79607287056773L165.54221673641476,81.82256589644395L166.20576601112205,82.66685454597196L166.53576645255404,82.05388123215259L166.7664119223721,81.50291903873989L168.47318839902564,80.75105664343464L170.16931970014917,80.81962223507024L170.2686746717631,80.75490609828077L170.5028685334245,80.22507341686773L170.90738520356692,80.884826479124L171.11674032232486,80.9637640839162L171.78738638071886,80.53095515174584L171.83351547468249,79.59175499264347L171.85480582574263,80.08233532977458L171.9648059728866,80.15173288406314L172.72771021920786,79.86165844302346L178.10707225373343,78.70210202973765L179.51933220738857,78.04437757817405L180.13320399628893,77.55027775314726L180.14739756366234,76.63175955333551L180.20417183315604,76.81263917784445L180.3070751966133,77.31505983675125L180.5412690582747,76.78785609510417L180.98836643053738,76.66814994871339L182.1274002122542,76.36317376636606L183.45449876166884,75.84727057639343L184.1286932119062,76.84719697657249L184.33449993882078,76.56595178057171L184.8241780132037,76.85221836862979L185.26772699362303,76.60622070603945L185.71127597404237,76.73656798799027L186.00224410519743,76.21605844270478L187.59192365102032,75.8086778931414L188.12063403568013,75.39142651004825L188.72031225720707,75.40955956746292L189.6748296630695,75.28616722534103L191.48096111133697,75.02115415157708L192.82225322812502,75.02946306919642L193.02805995503957,74.89218246231366L196.93129098272965,74.55875742190368L197.4032270978958,74.58394632252033L197.42451744895595,74.61256833336618L197.54871116347337,74.57304083146687L197.69774362089424,74.1807461088843L198.46419625905887,74.09514769052399L198.58484158173292,73.56016282064249L198.90064845579147,73.89955896438593L198.9432291579117,73.99975083526358L199.06742287242912,73.93821790847363L200.0148434946048,73.79822901022467L201.08290943945454,73.97602857049228L201.49097450144035,74.0678299115184L202.1012978984973,74.32765697792846L203.41065448869517,74.20077129232727L204.8938822792174,73.93763246180158L206.37356167789628,73.67645091191767L206.84904618490577,73.71093410805737L207.4664663656495,73.70498278054848L208.5771130126195,73.46751631659627L208.82195204981096,73.30757619655189L209.59904986350563,73.36589806217998L210.06743758682842,73.3500375365135L210.3761476772003,73.84467241405085L210.52872852646453,73.78767941001286L210.8445354005231,73.49552621289665L211.7813108471687,73.25235994573234L212.8777639267653,72.89662843030216L213.55195837700268,72.70955395946476L215.1522830983556,72.22949822383823L215.24808967812618,72.26489719316763L215.6277676053651,72.20137750460594L216.85551118316582,71.97837832827717L216.99389846505665,71.9303260692488L218.58002961903614,71.97669739072475L218.74325564383048,72.27696573445908L219.5451922004286,71.758562510941L220.35067714887012,71.42630249466575L220.3790642836169,71.39403161375269L221.1242265707214,71.56845600987961L221.2661622444556,71.47134228078576L222.01132453156006,71.43590020303623L222.69261576548413,71.40961102501188L224.2113274744399,71.11722641268358L224.45261811978804,70.33524781917808L226.0422976656109,70.05628427900757L227.03229898990682,70.4655510170308L227.56810615825336,69.97463588608036L229.43810865970124,70.07193021854398L230.9994010707773,69.38344831210065L232.22004786489128,68.62882763217748L232.79488734351474,68.25510627437247L233.10004904204325,67.9727936049191L233.32004933633124,67.4592660043156L234.35617975459076,66.91900530337784L234.50521221201166,66.79583843633563L236.04521427202758,65.98478625306147L236.57037626484404,65.43410164013697L238.6994113708568,65.65343746539561L238.89102453039797,65.63154049274529L239.121670000216,65.63006870545281L239.89521942206733,65.63601427469439L240.55522030493128,65.57907502676841L242.00296417701995,65.59053280231227L243.404578955145,65.2647605216591L243.5252242778191,64.56666484601845L244.9339358396309,64.18552900131031L245.26038788921952,63.94680892451812L245.35974286083342,63.4927972365146L246.20780851139517,63.55549807192285L246.34264740144266,63.767960272384535L246.76490603080185,64.03977688779868L246.8252286921389,64.00273401000197L247.09135808039048,63.9267022330692L247.17297109278763,63.83921607224472L247.28297123993164,63.850981972283115L248.1452304578668,63.66107969899263L248.19490794367377,63.49528119760606L248.3652307521548,63.40206022277134L249.64265181576243,63.211178180081774L249.6852325178827,63.12039857792968L249.7420067873764,63.147857184910116L249.96200708166435,62.945465766685736L251.8745902852325,63.40612220097415L252.69072040920406,63.313919300138934L252.73330111132432,63.401958828591L253.8368509746076,63.344904918985506L254.06394805258228,63.166876492592486L254.40459366954434,63.37078416069398L255.09298168715512,63.25090805858335L255.9800796479938,63.39930038946006L256.04395070117414,63.046521976839294L256.5087900326536,63.169066242396866L256.62233857164097,62.81197100461933L257.3568556832154,62.49559838928946L258.2084697256205,62.24838178149347L258.80459955530404,62.05194562118386L259.6065361119022,61.60359191298206L259.85137514909366,61.52895682218259L260.245246643706,60.98609292649618L260.3694403582234,60.622752373172965L262.2146041167678,60.070998471635L262.8000887709213,59.54392099547327L263.6091221112062,59.12221259360752L263.626864070423,58.619473817052516L264.627510570249,58.09053474375931L264.8971883503439,57.04353688194198L264.92202709324744,56.68318253452336L265.35847928998004,56.08839641118336L265.6352538537617,56.060157317025094L265.8020282703993,56.043149504751405L265.9794478625671,55.98293996646731L267.5336434899564,55.71464675282716L269.6449366367524,55.547243591533764L270.57106690786793,55.822978916866646L272.6078438259535,55.9179129231642L272.89171517342186,55.987054995720854L273.02655406346935,55.922121749774774L273.77526474241716,55.88578222546654L274.1726846288729,55.93020272884346L275.14139560210873,56.04957488932157L275.414621774047,56.068746828667706L275.4394605169505,56.136446242023425L275.8439771870929,55.97205788508383L276.39752631465626,55.402062357396666L278.39881931430824,55.18428465553935L279.28236888330355,54.89924802792078L279.6549500268558,55.13133642799511L279.7826921332165,55.41962272863685L279.99204725197444,55.51533380199125L280.8330161188495,55.28346303308617L281.028177670234,55.018917433919086L281.2694683155821,54.90208656814068L283.59011658113604,55.06933151651107L284.6972148362627,55.218288002760296L285.6268934992216,55.02393402186786L286.4039913129162,54.557041998104005L288.3414132593879,53.76304192697645L288.52238124339897,53.414383107795246L289.2214144365398,53.20783104589489L289.73238286198284,52.62156242767445L290.22560932820915,52.18333011120917L290.7223841862788,51.87858870302083L291.1588363830114,51.90581084982649L291.4107722038896,52.237775148134L291.45335290600985,52.262076952782536L292.00335364172986,52.265727833506794L293.6710978081065,52.29539923002314L294.0898080456223,52.30624985549064L294.27432442147676,52.25964275932115L295.4240033787237,52.09555085284289L296.52755324200695,51.674294934480756L298.68497548276656,50.892147583787185L298.7559433196337,50.65298091717376L302.73723896787754,49.930694766005686L303.1133685032731,49.375492635600025L305.81369469606597,49.232153992549286L306.7575669263983,49.26026583649531L308.27627863535406,49.24105864662618L308.80144062817055,49.12669830207447L310.47273318639054,48.51247193223767L310.85950789731623,48.32884027383795L311.16112120400135,47.997837420891095L311.33854079616907,47.91086112947373L312.1972516222609,47.675496511520116L314.11693160951575,47.3530060914183L314.2446737158765,47.567629952413256L315.1991911217389,47.11468296395882L316.2388699318418,47.414643878449525L316.8953224228624,47.754005827880114L317.5304845628229,47.49026779068515L319.0846801902122,47.468648094540384L319.72339072201606,47.25609939381576L319.79081016703975,47.268557718626944L320.6317790339148,47.13810190011611L321.3733929291759,46.965054130987255L321.46919950894653,46.6984767868191L321.6288771418975,46.62496763780102L322.98436282605894,46.419308495355324L324.2866226325701,46.00559521967857L324.66275216796566,45.801409516533795L325.07081722995144,45.644698711022855L325.7379148965021,45.54886931952512L326.1885606606082,45.299101713385454L327.3701751444452,45.214454056686534L328.34598290136773,44.78727929005503L331.61405178909735,44.5573271040828L332.64663381551355,43.866867336735595L332.9908278243189,43.43882769706284L333.10082797146293,43.191155564616736L334.53792666802156,42.83669311074846L335.35050840014975,42.452111540198345L335.40728266964345,42.074382343884466L335.6840572334251,41.86281362810699L336.0140576748571,41.589896740378286L337.5292209919695,41.31305428630145L338.6540612063129,41.1732974287868L339.05502948461196,41.11343862051025L339.5624495182117,40.88171949071964L340.2508375358225,40.45704945120773L340.48503139748385,40.22422728078105L340.4885797893273,39.83370589090939L340.5311604914475,39.6371973728324L342.25213053547446,39.27226640820356L342.507614748196,39.10188128013416L344.39535920886067,38.8697822516651L345.6727802724683,39.30342534508354L345.8289095135759,39.62665468292144L345.8572966483228,39.713218147978466L346.7018139070412,39.964970181539606L346.730201041788,40.76091165150254L347.2695566019779,40.756931508112004L348.3553645060444,41.83394498220683L349.781818027073,41.90714921799578L350.53052870602073,41.84419186828843L351.07343265805406,41.80636950169915L352.673757379407,41.73320391923693L352.9931126453089,41.94552951700364L354.30601762735006,42.230958779346956L356.9140856322157,42.705019872110995L357.3789249636952,43.03675421159345L360.52634852875076,43.12516174748947L363.1663520602066,43.062365864531465L364.60699914860857,42.69754882405555L364.6673218099455,42.61628642275593L364.86603175317344,42.30443772593241L365.63603278318135,42.00125998798357L365.9163557388064,41.9907552392001L368.8260370503572,41.53248078938914L369.2482956797164,41.256017718560315L369.50377989243793,40.94886264548758L370.3092648408794,41.213204816502845L370.79894291526233,41.51709230006399L371.2886209896453,42.13845082778234L371.8776540356422,42.08175382129813L372.1437834238937,42.40918124696852L372.6405582819634,42.60311331973583L373.3005591648273,42.62757317509424L373.80088241474033,42.806648741940016L375.64249778144136,42.85871237748155L375.66023974065814,42.8302821603793L375.94765947996984,42.89023111983633L376.8773381429288,42.85305921519336L377.93121052040516,43.176668788702294L378.4528241213783,42.72128575352477L379.4570190130476,42.37193754136139L380.05669723457453,42.27812223057357L380.4221815944401,42.135122228968314L381.1744406652312,41.88914138734065L381.8734738583721,41.86819877465358L383.37444360811105,41.60600940832436L383.3992823510146,41.50763727412659L383.633476212676,41.275897164408825L383.80734741300034,40.973337879239956L385.59928529389447,40.88698312064536L385.9896083966634,41.15906351341026L386.77380299404484,41.43613863625168L387.57573955064294,41.582166489423265L387.8312237633645,41.92806492034016L387.8915464247015,42.16348611004661L388.2783211356272,42.17305163900499L388.54799891572213,42.182413662272694L390.00993635518427,41.99506417550054L390.4747756866637,41.910734184482145L390.5528403072175,41.877249988935525L390.9715505447333,41.763768526561826L392.46187511894226,41.62917462410678L392.6960689806036,41.44552617505252L393.04735977309576,41.289600433166065L393.0863920833727,41.16745316119605L393.2247793652635,41.11796656689425L393.8492963296939,41.18228349707289L395.03091081353097,40.87494697949541L395.58800833293765,40.83369239188954L395.7938150598522,40.944681811041534L395.8931700314662,40.706318719007655L396.19123494630793,40.26703545175187L400.4067244562132,39.85177885572373L400.633821534188,39.578341530823444L401.68059712797753,39.28580285412426L403.1531797429697,39.22644947664238L403.5505996294254,39.08249519333771L403.6286642499792,38.63317703937885L404.89189174621345,38.45161670776333L405.23253736317554,37.96927588679771L406.9038299213955,37.840532455255044L407.0528623788164,37.598117671517706L407.9470571233418,37.38866479556541L408.1173799318228,37.58805629548128L408.22383168712344,37.8696665896083L409.16415552561244,37.537527189424885L410.42383463000334,37.0378912296298L411.71899765282774,36.80037300433392L412.0560948779464,36.60566956389779L412.14480467403024,36.184356622145316L412.4428695888721,36.05222478464304L412.4960954665224,35.84373713553058L412.87222500191797,35.620851790153885L412.87577339376134,35.66963453710816L413.9225489875509,35.58062796227385L415.7180352602884,35.36261141925874L418.19481276694995,35.10100575431522L418.375780750961,34.90340898033895L418.93997505405434,35.0478329094085L418.9754589724879,34.27262973749433L419.70287930037557,34.009613592811135L420.38062214245633,33.755347017652085L420.57223530199747,33.899254603067995L420.62900957149117,33.900334201916145L422.4706249381922,33.663608313619235L422.48481850556567,33.710792806877315L422.71546397538367,33.46908045712588L423.4499810869581,33.12225041904477L423.549336058572,33.01748817955993L425.3093384128759,32.932290763212634L425.31288680471926,32.918912068062106L425.649984029838,32.92262520132661L426.1893395900278,32.9865193259698L426.8564372565785,33.00845354663609L426.8706308239519,33.112012766281175L428.8541818643871,32.75266898664482L429.20192426503587,32.6720508528998L431.0080557133034,32.48174783975324L433.2612845338336,32.15282194187276L433.885801498264,31.768361117399223L434.1590276702023,31.747488655288738L435.4825778277735,31.326901210642284L436.1141915758907,31.24120180594385L437.1964510881138,31.09342790272521L439.9287128074969,30.958833351910815L440.16645506100167,30.617707987079044L440.75903649884185,30.528372392209857L442.380651571255,30.303348929173996L442.4693613673388,30.200833785169173L442.9483942661917,30.068407045008666L444.5167834609544,30.100967768914238L444.843235510543,30.101364565685902L445.96452733304307,30.239416031711254L447.6819489852267,30.41046362188598L448.13614314117615,30.277208789367286L448.33130469256065,30.05995950408686L449.2503381799895,29.979428540513073L450.58808190493414,29.55675471855288L451.19840530199116,29.41720668329721L453.0435690605355,29.375272429663738L453.6574408494359,29.256464890548344L453.7745377802666,29.275946008091534L455.26486235447555,29.248287051124368L456.9822840066592,29.00269466062963L457.07454219458634,29.07033102050878L458.33067290713393,28.887510287096617L459.49809382359757,28.803630980863087L460.32841751494254,28.710711183424856L460.7258374013983,28.403171444685313L462.7732594950139,28.47879208006112L463.28067952861363,28.312384434090333L463.7668092111532,28.188773921540147L465.3316500140726,28.068754146745157L465.9490701948162,27.79589498893118L468.92617095139076,27.79946561759201L469.02907431484806,27.655974490409125L469.6855268058686,27.61291753418186L469.8558496143497,27.57471934016955L470.1432693536614,27.86166335062095L470.6010119014542,27.51973104581716L471.8890781405919,27.25043986494134L471.960045977459,26.985823502161203L471.9742395448324,26.994313919154518L472.04875577354284,26.705899278708085L472.7264986156236,26.602653088636114L473.1984347307897,26.541647517110732L474.0287584221347,26.609181337554368L475.4977926452836,26.52318708700849L476.58714894119345,26.662522824686416L476.71489104755415,26.5241786438502L476.80360084363804,26.620304913551415L477.9816669356318,26.42601903456781L478.6061839000622,26.334632039285953L478.7161840472061,26.285020885089803L479.9474760168502,26.204687187890222L481.25328421520476,26.187968620232155L481.53715556267304,25.94709644906754L481.9026399225386,25.965729387302694L482.0942530820797,25.747306916102623L483.8400618690102,25.808701290988008L484.968450475197,25.695059394241948L485.70651597861473,25.903006132826075L487.2961955244377,25.78587605383915L488.1371643913127,25.48839915324624L491.4442655893192,25.351764031422967L491.99071793319575,25.404495815640683L492.18587948458025,25.18973123501815L492.30297641541097,25.17148453363281L492.53007349338566,25.10443027583027L492.72168665292685,25.04445945211689L492.7678157468904,24.99324371855505L493.5271716013683,24.914312342003857L497.63975774781636,25.005669648278044L498.42750073704104,24.83910214085169L499.19395337520564,24.772359515583044L499.49556668189075,24.37908689964609L500.8510523660522,24.37530694980915L501.22008511776113,24.383882478619235L502.4904093976821,24.854741250162995L502.71750647565676,24.71297230368046L503.07944244367894,24.495962667307992L503.2710556032201,24.461728549325038L503.3420234400872,24.155549973464147L503.55492695068847,24.223751041092125L504.3497667235999,24.23987987180609L505.87912360808576,24.162788080546168L506.62428589519016,24.304214735680336L506.6562214217804,23.936882400685874L509.30687012876626,23.381130290123984L510.33235537149574,23.387280592303554L510.4530006941698,23.578143802118046L510.754614000855,23.450379335496585L511.12364675256384,23.178866063401298L511.15913067099734,23.563321270403257L511.265582426298,23.56551329131365L511.59558286773,23.677164581137028L512.1952610892569,23.869948891080753L512.9581653355782,23.77435418091413L514.5407480977143,23.8599496085918L514.5726836243045,23.75173327102255L514.9701035107603,23.709676357596177L515.1617166703014,23.451601676139394L515.7436529326116,23.49604734191834L515.8252659450087,23.83430563913474L516.0772017658869,23.91195964766506L518.6284955012588,23.41451261068253L518.7917215260532,23.238764260191715L519.2281737227858,23.28315553821458L520.881724321789,23.195327576329106L520.9278534157527,23.26166281344629L521.7262415805075,23.285971874416294L522.2265648304204,23.243141553872256L523.7097926209426,22.839127051336877L524.9517297661167,22.723282929912216L526.0978603315203,22.93413817929793L526.7862483491311,23.028194960089635L526.7897967409745,22.860228700706063L526.9033452799617,22.845773813893754L530.3985112456661,22.852436292306294L530.7746407810617,23.013143907973166L531.2004478022642,23.169925732163918L531.8178679830079,22.9013613325647L532.1656103836567,22.85778934998539L532.9107726707612,22.80468441835009L534.159806599622,22.862877627395893L534.3123874488863,23.07106640121114L541.0152996409831,22.892115409137293L541.1430417473439,22.807767158611924L542.2465916106272,22.694869736124883L542.374333716988,21.56671657075522L545.1243373955878,21.739468145329663L545.1278857874311,22.016941306951537L545.7914350621385,22.1243366350746L548.6336969286655,21.919873525417486L548.8927295332303,21.953044045894686L549.2049880154456,21.427784921991748L549.2156331909756,21.715957972314303L549.9075696004298,21.735953767230622L550.6811190222811,21.651775572845477L550.6917641978112,21.923308197102454L550.9330548431592,21.834138805869934L551.8520883305881,22.017560100676384L552.1501532454299,22.2574695183037L552.6185409687527,22.44779804211437L552.8740251814742,22.50374512001308L553.1153158268223,22.357995940418288L553.172090096316,22.533482385939266L553.4843485785312,22.611440344768177L553.5908003338319,22.544960500650266L555.2017702307148,22.49289706408163L555.4182221331595,22.362828415652377L555.8191904114585,22.205654279757148L556.2733845674079,22.179029115856835L556.6495141028036,22.447272769606247L556.9653209768621,22.337877525072365L557.3520956877877,22.253966568450675L559.2291949729223,22.193051539284752L560.3291964443622,21.91844916131876L561.4504882668623,21.865551443818212L562.1211343252563,21.851939344955838L562.4546831585317,21.82996055948799L562.617909183326,21.693269822325576L562.7704900325903,22.213553788281402L562.9621031921314,22.09419371887011L566.6346887500034,22.93985198092952L567.8801742870208,22.7014005674279L567.8872710707076,22.40004011870069L568.9269498808104,22.373540732269326L569.3385633346396,22.255815576908077L570.3214678752489,21.876930388327445L572.145341282733,21.576425138737378L572.9188907045844,21.431337028112946L575.4772812236431,21.28365502500796L576.0059916083029,21.34354795077148L576.8185733404312,21.36952239457017L578.4224464536275,21.357146208603908L579.469222047417,21.50405043019881L580.2711586040152,20.850299836733495L580.4237394532794,20.898076898876933L580.760836678398,20.893598540076663L581.1440629974804,20.923551364803775L582.6414843553761,21.211373591405067L583.4398725201308,20.88614165169495L584.7705194613889,20.736718986011525L585.9663275125994,20.680194135632288L586.0301985657798,20.945457112102876L586.9456836613653,20.671085255577623L587.5950393686991,20.801243802673262L587.6908459484697,20.929184034383564L590.9624632280427,20.850981306252592L591.2214958326075,20.71231708677363L591.3811734655585,20.861520658189352L591.4308509513654,20.972151939163965L591.5053671800758,20.851757934910736L591.7927869193876,20.681131347723845L592.2718198182405,20.6546419421061L593.5137569634146,20.686465150469175L594.2766612097358,20.772895067072636L594.9650492273466,20.63567769575332L596.0366635640397,20.70412861229537L596.7108580142772,20.64732357199975L596.8776324309148,20.667667579501416L597.7540852162233,20.746880409205257L598.5773121238816,20.94798913034555L599.2479581822756,20.601236637678994L599.5211843542139,20.51939681960234L600.6389277848707,20.583196446906907L600.8340893362551,20.761136235309205L601.6182839336366,21.041072213879016L603.1086085078455,21.02821094563464L604.9963529685101,20.93385790351782L605.5357085287,20.862649864325956L605.585386014507,20.99610036899419L606.2524836810577,21.223339555833135L606.3908709629485,21.07821823240083L606.4299032732254,20.8948274389972L606.6250648246099,21.095984059471338L607.0721621968726,21.191116424839546L608.5447448118648,20.87542399614617L609.1195842904882,20.885675413556296L610.5141022849266,20.927908030517674L611.2273290454409,20.84831913356478L611.3373291925848,20.633032441281358L611.4863616500057,20.58844339768975L611.9299106304251,20.685845581365598L612.8950732118175,20.346558199038316L613.5195901762479,20.480473111502782L613.551525702838,20.597796588944398L615.2476570039615,20.677071046592864L615.9502385889458,20.658724695787612L616.0850774789933,20.409752169672903L616.2412067201009,20.16671203334217L616.4363682714853,20.396750919404685L617.2312080443969,20.292195926419986L617.312821056794,19.837287436532346L617.6924989840329,19.964863718343548L618.1218543970788,20.195836982138857L618.8457263331231,20.27483370257653L619.0125007497609,20.438901893666404L619.8250824818891,20.33510913265278L620.0663731272372,20.36497619716548L620.2118571928147,20.285955658497056L620.3892767849825,20.417103623658186L621.1237938965569,19.897888516785102L622.2628276782737,20.211395617881358L622.9157317774509,20.277617790384372L623.8276684811931,20.33557729050666L624.9808958302833,20.461830422562063L625.197347732728,20.394730691399566L625.4315415943894,20.53826993652174L627.4967056472217,20.587264072894808L627.8338028723405,20.766000115581793L629.4696115121269,20.310941522471072L629.8244506964623,20.21440572721594L629.8350958719924,20.445680832922694L630.1154188276174,20.5519664765535L630.55187102435,20.361243757081592L631.4496141607187,20.47154715773797L631.66251767132,20.36402349255339L632.0599375577757,20.614327042952034L633.4260684174673,20.494117270573096L633.8625206141999,20.677831592674096L634.1960694474752,20.89137336061858L636.8041374523408,21.23414383032538L637.4002672820245,21.257517229929608L637.485428686265,21.139630602481812L638.0638165567317,20.903134164374034L639.0502694891843,20.94474022036499L639.7883349926021,20.95848318214625L641.5057566447857,21.026997361568924L644.4296315237099,21.149770963846194L644.6247930750944,21.284795264187412L644.6531802098413,21.28291693393775L644.8767288959726,20.95962942397936L645.3131810927052,20.968423628915378L645.6325363586071,20.958666356773413L646.2960856333145,21.021194706149352L646.4486664825787,21.04873352079587L646.8070540587576,21.18266903722989L646.8425379771911,21.289795623322817L647.2399578636467,21.35212016310768L648.3718948616769,21.232488405653363L648.6557662091452,21.140188396253976L649.1986701611786,21.342661804659926L650.0893165138605,21.553377682557414L650.6677043843273,21.528595999791783L651.1964147689871,21.41813129553946L651.9628674071517,21.30661675449417L653.5596437366613,21.291495996281498L653.776095639106,21.231120195879473L654.7128710857515,21.27280311887516L654.8015808818354,21.1934512458543L656.448034697152,21.24929101399107L657.0902936207992,21.675153096269206L657.9099721366141,21.81733854325343L658.0341658511315,21.928616934420603L658.0625529858784,22.022554254305174L658.5628762357914,21.983202684805946L659.1873932002218,21.856357510930675L661.9444936625083,22.202290181014146L663.8499800823897,22.194129457550694L664.4248195610132,22.2457081229496L664.6412714634578,21.948185392134217L665.0599817009736,21.858339120263576L666.0322410660528,21.913509162068863L667.0967586190592,21.97029643452617L668.3067602376431,21.85075519367837L670.0277302816701,21.746116355649328L671.3619256147715,21.831968477234177L671.6457969622397,21.61723305794755L672.4406367351512,21.647605542662816L672.5932175844155,21.443108565805066L673.3703153981102,21.462853834995304L673.6293480026751,21.733145571011274L674.9954788623666,21.716958407295905L675.5064472878096,21.68471734213588L675.729995973941,21.633160252567688L676.0422544561561,21.490872966872207L676.6951585553335,21.56772494468205L676.7235456900803,21.647809343303166L676.8654813638144,21.6061585803171L677.1635462786562,21.861292978931566L678.2103218724459,21.85993732187947L678.4799996525408,21.57197801014679L679.122258576188,21.61393729270216L679.7396787569318,21.62408706631105L681.975165618245,21.663234266900233L682.1703271696296,21.64128929689162L683.3590384371533,21.73537365523071L683.6322646090917,21.83939986294239L685.7861384580079,21.90506855241769L685.9777516175491,22.017072739721616L687.6313022165523,22.302258215553955L688.287754707573,21.918918562987656L688.8696909698831,21.838812343536404L690.0264667108167,21.840217760914975L690.1080797232139,21.69136976499201L690.6438868915604,21.80552863489618L690.679370809994,21.684741663080853L691.1371133577867,21.395468832372824L692.350663368214,21.56687376630554L692.460663515358,21.607225507134906L693.8942138200732,21.7028077861356L693.9829236161571,21.713306645629586L695.1893768428977,21.309160849356125L695.9913133994959,21.30014529022338L696.193571734567,21.317900164561763L696.9813147237918,21.45741121170903L697.4497024471145,21.612964806610748L697.935832129654,21.7384228889795L697.9429289133408,21.747855508239425L698.4716392980006,22.073536128164164L699.5361568510071,21.82794142958262L699.635511822621,21.698858550341146L699.7419635779216,21.762262057892837L700.3416417994486,22.013036367155756L700.3664805423521,21.987553941574877L701.8497083328743,21.944170141233723L702.3145476643538,21.814770654866887L703.0739035188316,22.067499208121813L703.2939038131196,21.949009402729516L704.8126155220754,21.93793889941638L704.9155188855326,21.819997189485893L705.1568095308808,22.047316749888665L705.7600361442511,22.023763598389234L705.7919716708412,22.053950760834223L706.2284238675738,22.108190510112273L706.4768112966086,21.989025965996916L706.8813279667511,22.06803528040318L707.0800379099791,22.195185242561575L707.8642325073604,22.230657449819414L708.2439104345992,22.048298810888355L710.1990743402877,22.064056606969544L710.3339132303352,22.06768500007508L711.7745603187371,21.893101668405002L712.2748835686502,22.028873563585808L713.0768201252482,22.59877990964315L713.6694015630885,22.48601681994054L714.9823065451297,22.372417477281903L715.1597261372975,22.396386115288436L715.9474691265222,22.311290693659426L716.5932764420127,22.31009161980751L716.9161800997579,22.337239055019207L717.8529555464036,22.368653425978668L720.1594102445841,22.359457114534226L721.2771536752408,22.564223029020205L721.3197343773611,22.5903556697959L721.6071541166727,22.605423160634956L721.6461864269496,22.581386511845892L721.9123158152013,22.616407120489292L722.1181225421158,22.769695408006527L722.81005895157,22.76603370052789" fill="none"></path></g></g></g></g><g opacity="0.2"><g><g><g><path style="fill: none;" stroke="rgb(0, 119, 187)" stroke-width="2px" d="M14.001046282269323,183.57864017754414L14.785240879650692,358.44553697855906L15.108144537395962,364.0649419286369L15.47008050541813,376.70173420020745L15.988145714547905,370.3680632432942L16.77588870377263,369.37414312134143L17.152018239168218,360.35183945873877L18.30879398010182,349.2491099619028L18.49331035595626,361.0698761368275L20.019118848598744,373.68387626177775L20.090086685465835,356.300769562876L22.016863456407393,361.67877950169964L22.691057906644765,356.95362406401273L22.77621931088528,357.9733624763942L24.07493072555307,365.9769124242038L24.635576636803094,338.39495656361225L24.720738041043603,345.8621825639222L25.788803985893345,318.42072623729126L27.758161458955154,299.7172601573612L27.971064969556434,318.993123740348L29.330099045561248,337.12421633423565L31.196553155165777,269.37221884658834L31.54074716397117,239.0558538509521L31.806876552222768,258.2265949621192L31.92397348305347,249.78181643513756L32.16171573655823,236.18260235593715L32.48816778614685,245.37162012366585L33.24397524878138,259.7377214881473L33.8294599029349,253.76058310929292L33.95010522560895,241.94004509600452L34.35817028759473,250.14807590400906L34.414944557088404,277.3303766372723L34.613654500316265,231.83751617037433L35.41559105691441,227.82516170164737L35.61075260829892,248.55682861810192L36.44462469148724,225.19265675849917L37.01591577826734,226.0623728907294L37.44172279946989,237.086999056892L37.942046049382895,225.6463741851344L39.52108041967569,206.2329171269236L39.620435391289625,215.21047709178805L40.259145923093456,198.1748365480272L40.56430762162195,206.85644685353628L41.47269593352073,149.86197030693324L42.55495544574389,199.83884337891448L43.46689214948603,196.13890223288132L43.48818250054615,196.59350828904752L43.71527957852085,200.66750242510955L43.86076364409839,193.82594366568958L43.984957358615794,208.648812617629L44.19076408553037,196.91719759997974L44.27592548977088,203.76729440800193L45.61012082287221,195.40641932065975L45.96496000720767,193.16791349795994L46.10334728909851,182.8215158085972L46.23108939545927,188.1928970514596L46.34463793444662,176.66774429768932L47.597220255150795,193.5559924243705L47.742704320728336,174.29839378079856L48.040769235570124,201.27273118678582L48.24302757064133,189.3079469852979L48.324640583038494,177.1038812698187L48.43818912202584,178.6286374514917L48.54464087732648,166.57000676642244L48.84270579216826,175.37398376005612L49.048512519082834,175.72489635675657L49.296899948117655,197.4036382086699L50.198191476329725,162.33885729694663L50.457224080894605,164.05619390820297L50.90786984500065,164.859827225443L51.12787013928863,155.75985253842524L52.249161961788694,141.8183299579161L52.58625918690738,160.87865884985243L55.07368186909896,155.94122903081333L55.24400467757998,138.90582265294245L55.81174737251673,160.24853645280004L55.9856185728411,158.4795152266577L56.97207150529368,147.73911241259302L57.12820074640128,148.21111279140382L57.40497531018294,157.10755529029362L58.927235410982064,137.17193831879737L60.34304375648056,144.59666020795748L60.64110867132234,166.26651576456044L61.11659317833186,151.5526480322586L61.21594814994579,143.41693845872223L61.54240019953441,147.81566664584074L61.56014215875119,153.75042099861705L62.11014289447115,134.63689441989052L62.27691731110882,160.2124749057502L62.70982111599808,145.7094585467002L62.975950504249674,59.0620840238145L63.47982214600603,148.5925990473747L63.75304831794434,146.4998524847786L65.1014372184191,144.08641273379067L65.45627640275455,143.5591732219697L65.83240593815013,143.88868665888234L65.87853503211375,144.39981675832655L66.59176179262802,140.18215284240955L66.6095037518448,138.41733459377878L67.67756969669453,141.10539689537728L68.52563534725628,137.36558150126584L70.76467060041306,139.92283513419488L72.86886696352234,133.4324771756476L72.98241550250968,136.77116039604806L73.0427381638467,141.20220948023112L73.12789956808723,132.38834348093792L73.26983524182141,125.02113633689783L77.43564726591973,122.65577864864312L77.46403440066656,129.49327252838395L77.4924215354134,138.30539128988303L78.44339054943244,130.46847739190275L78.71306832952739,126.09648614601186L79.69952126197997,125.15557757898803L79.7208116130401,126.33848758687854L79.82726336834072,127.31496535215803L80.94145840715407,122.47071554455198L81.29629759148955,127.26056081039664L81.68662069425855,131.11806557908758L81.89242742117311,129.28537524789743L82.3324280097491,130.96528134228586L82.49210564270004,134.15558744801822L82.74404146357823,123.05223951306257L83.53888123648966,124.2781760021651L84.09952714773969,128.98210640341824L86.29598169877619,132.104324273462L86.39533667039012,125.46563723427536L87.08727307984427,123.89971589000262L87.53791884395031,125.24316763033065L87.77920948929841,122.13355869282175L87.8359837587921,121.50663055867828L88.1092099307304,126.04955689996757L88.59888800511334,122.6111430274695L88.75501724622094,121.52090867371065L90.05018026904537,130.1574870773093L91.42340791242361,117.03429622682374L91.7746987049157,121.98615426723497L93.69083030032719,116.69416126531385L95.00018689052506,120.16023072983855L95.12438060504246,126.05112401015407L96.18889815804886,116.83669023698715L96.52244699132419,112.37999098147596L99.63793502978955,117.38233278605556L99.9608386875348,113.68368255454381L100.84438825653011,113.13587847418376L100.98632393026429,111.12554029208374L101.2347113592991,112.00904819480573L101.62503446206811,109.97887796310434L101.81309922976592,114.41878932558335L102.24245464281181,110.52199272141212L103.42052073480555,114.57854450080082L104.14794106269325,114.66716728376056L105.14149077883253,111.79404788232452L106.73117032465541,112.04277408720982L107.6856877305178,113.84073581564664L107.85246214715545,111.27722575047886L108.28891434388807,111.263668145877L108.9914959288723,111.71503790935927L109.04472180652262,113.5854529658432L110.03472313081855,109.96342301436869L111.75214478300218,111.49809822296913L111.89762884857971,104.5737287980627L112.11408075102435,106.95996327604311L112.51150063748007,106.05577071971024L112.8521462544421,100.64715710034832L115.30763341004351,110.29613671844373L115.93924715816063,110.76463061315916L115.98182786028089,108.44674255377161L117.13860360121447,108.45156997365645L117.77731413301832,105.00659945624017L118.04344352126991,107.25968360665178L118.23860507265441,102.88822073507664L118.29537934214808,103.85434716717029L118.44086340772562,101.50461254675169L118.98731575160224,108.94550389082444L119.13989660086649,102.58062282376042L119.78215552451367,103.66061392089802L119.87086532059755,103.30617082308775L120.65151152613555,102.19345053964165L122.08151343900747,98.4114102321722L122.84796607717206,100.00594484691884L122.98990175090624,98.6424869336354L123.01828888565308,104.43894531351798L124.46958114958512,100.80997444489569L124.59022647225918,100.93341589441256L125.47732443309783,101.98409422553327L126.39280952868332,99.36785480535512L126.51700324320072,100.62450305156058L126.59861625559788,99.15809320412951L126.73345514564535,101.59968089593823L129.56152344479898,97.7079068498934L129.6076525387626,101.86261616693969L131.22217082748892,100.31522995349329L131.6799133752817,95.24176476303637L132.71959218538458,100.16360153550727L133.08152815340677,92.46267197278931L133.2979800558514,93.93683331160254L135.42701516186415,96.37361159628723L137.15508198957787,93.65101583017703L137.21185625907154,90.90938958231945L137.8257280479719,93.93259430856936L138.09895421991018,97.03170781080631L139.02153609918238,93.04941663979474L139.28411709559063,93.04969883971336L139.82702104762387,93.31782478794172L140.56863494288498,96.93315399241193L140.6928286574024,94.50300140156169L142.6550893467775,93.39332227255794L143.33992897254495,91.35438583061799L144.0389621656858,92.4030407282795L144.08154286780604,90.55234664270557L144.41154330923803,89.53901476890263L144.65638234642952,94.36867724241644L144.70605983223646,90.149707401344L144.8373503304406,89.71482231608775L145.071544192102,92.79573092144571L146.81735297903248,90.42015699571091L147.08348236728406,91.58222623939727L147.75058003383472,92.58218363833284L149.34380797150095,88.43252089642735L149.3473563633443,89.01255581004808L149.42187259205474,90.53745008955362L149.70219554767976,90.50985153793609L150.83058415386654,87.43919219345297L150.9512294765406,87.38957304180126L151.61123035940454,84.94047703088069L153.6089749672132,88.16367143564165L154.04897555578916,88.2753115247312L155.4612355094443,83.99467199505582L155.90833288170697,87.78290569010134L155.95446197567057,85.36266311979823L156.248978498669,83.6214085643738L156.5470434135108,83.65265770217286L156.98704400208678,84.81054498323513L157.2602701740251,86.96195010125975L158.41349752311532,87.0622361468143L158.87833685459478,82.80658632057242L159.94640279944454,81.0478053489245L160.29769359193662,82.30750375595267L160.52124227806797,82.32306077699931L162.05414755439716,81.88669564323361L162.21027679550477,84.097557882414L162.632535424864,83.10829706124555L163.803504733171,84.0909562055939L164.06608572957924,80.91121158192294L165.20157111945272,77.4024308594996L165.54221673641476,81.92103997375729L166.20576601112205,85.80505952629314L166.53576645255404,79.77547099022023L166.7664119223721,79.45500296133802L168.47318839902564,77.95639830616781L170.16931970014917,81.0744792454894L170.2686746717631,80.51435743889347L170.5028685334245,78.25569533689854L170.90738520356692,83.33711616335964L171.11674032232486,81.25717367154007L171.78738638071886,78.92221251707488L171.83351547468249,76.1007657220177L171.85480582574263,81.90581318665797L171.9648059728866,80.40968228396603L172.72771021920786,78.78345721878168L178.10707225373343,74.39205271997717L179.51933220738857,75.5996282016074L180.13320399628893,75.71371802616088L180.14739756366234,73.21764473516737L180.20417183315604,77.48496532932104L180.3070751966133,79.18254794627272L180.5412690582747,74.82824973464241L180.98836643053738,76.22320446118539L182.1274002122542,75.22958305084859L183.45449876166884,73.92966815328761L184.1286932119062,80.56390453950212L184.33449993882078,75.52056869355005L184.8241780132037,77.91626587518525L185.26772699362303,75.6918520356566L185.71127597404237,77.22106637561872L186.00224410519743,74.28133428381337L187.59192365102032,74.2944520768399L188.12063403568013,73.84051099175856L188.72031225720707,75.47695979973999L189.6748296630695,74.82752021783146L191.48096111133697,74.03610555664311L192.82225322812502,75.06034715921558L193.02805995503957,74.38191303673032L196.93129098272965,73.31942283773853L197.4032270978958,74.67757299085011L197.42451744895595,74.7189558076424L197.54871116347337,74.42611785270903L197.69774362089424,72.722594026832L198.46419625905887,73.7769799845433L198.58484158173292,71.57163415334695L198.90064845579147,75.16108802697944L198.9432291579117,74.37216212890333L199.06742287242912,73.70950118059389L200.0148434946048,73.27789291673335L201.08290943945454,74.6369061812982L201.49097450144035,74.40905376401176L202.1012978984973,75.29342928137721L203.41065448869517,73.72913959301707L204.8938822792174,72.9595503936213L206.37356167789628,72.7056440189529L206.84904618490577,73.83910749748232L207.4664663656495,73.68286180848709L208.5771130126195,72.58485795058532L208.82195204981096,72.7130817880851L209.59904986350563,73.58267933630695L210.06743758682842,73.2910842618663L210.3761476772003,75.68322092112376L210.52872852646453,73.57583748934334L210.8445354005231,72.40959829154009L211.7813108471687,72.3485155187254L212.8777639267653,71.57438109936348L213.55195837700268,72.01420168106911L215.1522830983556,70.44514011216985L215.24808967812618,72.39647449426L215.6277676053651,71.96527602070681L216.85551118316582,71.14949459739475L216.99389846505665,71.75171672908678L218.58002961903614,72.1490587177203L218.74325564383048,73.3930575026791L219.5451922004286,69.8316675103172L220.35067714887012,70.19129828322751L220.3790642836169,71.27408135828354L221.1242265707214,72.21678819925698L221.2661622444556,71.11037238207835L222.01132453156006,71.30416266875973L222.69261576548413,71.31189464631775L224.2113274744399,70.03043832534986L224.45261811978804,67.42864814143135L226.0422976656109,69.01938206365674L227.03229898990682,71.98678776024941L227.56810615825336,68.14991360688704L229.43810865970124,70.43357141656907L230.9994010707773,66.82437405607563L232.22004786489128,65.82391680302882L232.79488734351474,66.86599103875784L233.10004904204325,66.92344273921518L233.32004933633124,65.55049360207245L234.35617975459076,64.91086647159023L234.50521221201166,66.33802951544293L236.04521427202758,62.970120590702585L236.57037626484404,63.38721732417251L238.6994113708568,66.46870458947004L238.89102453039797,65.55014985855452L239.121670000216,65.62459809985626L239.89521942206733,65.65811384338478L240.55522030493128,65.36743291655294L242.00296417701995,65.63312113782449L243.404578955145,64.053871101118L243.5252242778191,61.97185639127883L244.9339358396309,62.768854257772375L245.26038788921952,63.059490903234035L245.35974286083342,61.80524435846383L246.20780851139517,63.78855589410061L246.34264740144266,64.55767826277986L246.76490603080185,65.05011411867766L246.8252286921389,63.865046332153966L247.09135808039048,63.64409355277193L247.17297109278763,63.5140316631425L247.28297123993164,63.89471560072765L248.1452304578668,62.95521653223362L248.19490794367377,62.879011296225684L248.3652307521548,63.055559618197265L249.64265181576243,62.5016732289525L249.6852325178827,62.782972509553005L249.7420067873764,63.249920308969486L249.96200708166435,62.19318068385166L251.8745902852325,65.11837347559349L252.69072040920406,62.97120285741185L252.73330111132432,63.72920009472412L253.8368509746076,63.13283661347067L254.06394805258228,62.50514819071659L254.40459366954434,64.12870511571278L255.09298168715512,62.805330848851526L255.9800796479938,63.950871883473354L256.04395070117414,61.735251273324444L256.5087900326536,63.624560965318274L256.62233857164097,61.48465474344643L257.3568556832154,61.31964734740284L258.2084697256205,61.329482314780066L258.80459955530404,61.321796119655666L259.6065361119022,59.93706963909994L259.85137514909366,61.25153959789009L260.245246643706,58.9682780689449L260.3694403582234,59.27222239195278L262.2146041167678,58.02013963006935L262.8000887709213,57.58478396143814L263.6091221112062,57.55473042063483L263.626864070423,56.75080327023482L264.627510570249,56.124478188311066L264.8971883503439,53.151865584243524L264.92202709324744,55.343752224307L265.35847928998004,53.87758761310843L265.6352538537617,55.95519313685179L265.8020282703993,55.97993178743213L265.9794478625671,55.759142248694516L267.5336434899564,54.71740593986275L269.6449366367524,54.9250091995564L270.57106690786793,56.84788191857578L272.6078438259535,56.270780833364476L272.89171517342186,56.2440547748465L273.02655406346935,55.680766099748645L273.77526474241716,55.750708899264254L274.1726846288729,56.09531290177293L275.14139560210873,56.493278957513745L275.414621774047,56.140008565482404L275.4394605169505,56.38808368411925L275.8439771870929,55.36102946400663L276.39752631465626,53.283399735616015L278.39881931430824,54.37480904674885L279.28236888330355,53.83977226111209L279.6549500268558,55.99400463204501L279.7826921332165,56.491177468757904L279.99204725197444,55.87109005578049L280.8330161188495,54.421603759986155L281.028177670234,54.03560643324142L281.2694683155821,54.46782844439845L283.59011658113604,55.690977834038534L284.6972148362627,55.77195645164899L285.6268934992216,54.30152394194689L286.4039913129162,52.82161315505723L288.3414132593879,50.81175864372869L288.52238124339897,52.11842485536711L289.2214144365398,52.440080929019864L289.73238286198284,50.44241303542112L290.22560932820915,50.55442885944224L290.7223841862788,50.74587063862249L291.1588363830114,52.00699505587785L291.4107722038896,53.47168018146571L291.45335290600985,52.352406302136494L292.00335364172986,52.27929808827421L293.6710978081065,52.40568725103698L294.0898080456223,52.34658142562437L294.27432442147676,52.086405062238406L295.4240033787237,51.48562433253689L296.52755324200695,50.10849463415349L298.68497548276656,47.984920638756414L298.7559433196337,49.76400292995018L302.73723896787754,47.24597077015468L303.1133685032731,47.31181679239398L305.81369469606597,48.69936696083235L306.7575669263983,49.3647570300305L308.27627863535406,49.16966588428268L308.80144062817055,48.7016230591181L310.47273318639054,46.22940410473113L310.85950789731623,47.64628486431429L311.16112120400135,46.7675060618246L311.33854079616907,47.587571895337625L312.1972516222609,46.80065066742821L314.11693160951575,46.15431528462473L314.2446737158765,48.36538279422465L315.1991911217389,45.43108755404331L316.2388699318418,48.52959293797153L316.8953224228624,49.01540779085802L317.5304845628229,46.509958482620895L319.0846801902122,47.38828809188902L319.72339072201606,46.46605988357518L319.79081016703975,47.31486507688744L320.6317790339148,46.65320008414196L321.3733929291759,46.32183883818757L321.46919950894653,45.707613828307174L321.6288771418975,46.35173551786594L322.98436282605894,45.654877343245694L324.2866226325701,44.46783077989889L324.66275216796566,45.042455110505124L325.07081722995144,45.062207603746415L325.7379148965021,45.19267327942963L326.1885606606082,44.37072023396073L327.3701751444452,44.89982031386229L328.34598290136773,43.19947874238693L331.61405178909735,43.70259916754466L332.64663381551355,41.30044140904876L332.9908278243189,41.84781243261877L333.10082797146293,42.270562921373546L334.53792666802156,41.51916285769113L335.35050840014975,41.0226290987195L335.40728266964345,40.670370048151895L335.6840572334251,41.0764167034247L336.0140576748571,40.57546981806586L337.5292209919695,40.2840361079404L338.6540612063129,40.65382382632662L339.05502948461196,40.8909445595579L339.5624495182117,40.0204238573469L340.2508375358225,38.87855892698436L340.48503139748385,39.35883166617614L340.4885797893273,38.38214525308449L340.5311604914475,38.906778918848225L342.25213053547446,37.915824898167955L342.507614748196,38.468562973914L344.39535920886067,38.007074542072445L345.6727802724683,40.91526854137483L345.8289095135759,40.8280920329981L345.8572966483228,40.03497291432246L346.7018139070412,40.900727740247945L346.730201041788,43.719411077591246L347.2695566019779,40.74213739022655L348.3553645060444,45.837183744408215L349.781818027073,42.17924798121128L350.53052870602073,41.61018058730082L351.07343265805406,41.66578447871643L352.673757379407,41.46124882970751L352.9931126453089,42.73473975775914L354.30601762735006,43.291893962019216L356.9140856322157,44.46709600936606L357.3789249636952,44.26980449231113L360.52634852875076,43.45377089034836L363.1663520602066,42.828954752404485L364.60699914860857,41.34153076794692L364.6673218099455,42.314235610377985L364.86603175317344,41.145302003777104L365.63603278318135,40.87435405636241L365.9163557388064,41.951709286174825L368.8260370503572,39.82908330612944L369.2482956797164,40.228409700573835L369.50377989243793,39.80717303425493L370.3092648408794,42.19575967857845L370.79894291526233,42.646636342734766L371.2886209896453,44.44802875156549L371.8776540356422,41.87101211795131L372.1437834238937,43.626222810309464L372.6405582819634,43.32395517511604L373.3005591648273,42.71848999595476L373.80088241474033,43.47226924512148L375.64249778144136,43.052231928456806L375.66023974065814,42.724607579829296L375.94765947996984,43.1130602710257L376.8773381429288,42.71489194699212L377.93121052040516,44.37951946759403L378.4528241213783,41.028635603902636L379.4570190130476,41.07341682822577L380.05669723457453,41.92941249047556L380.4221815944401,41.60359392111472L381.1744406652312,40.97483524015856L381.8734738583721,41.790355478439544L383.37444360811105,40.63145648064771L383.3992823510146,41.141989907391604L383.633476212676,40.41452354904284L383.80734741300034,39.84873072493297L385.59928529389447,40.566004112284276L385.9896083966634,42.17038119972513L386.77380299404484,42.466021640020706L387.57573955064294,42.12494926441938L387.8312237633645,43.213762861672905L387.8915464247015,43.03854223027603L388.2783211356272,42.20860652966179L388.54799891572213,42.21721212611688L390.00993635518427,41.29868966806444L390.4747756866637,41.597281198998566L390.5528403072175,41.75278986586586L390.9715505447333,41.34196007207846L392.46187511894226,41.12889162818922L392.6960689806036,40.762908354982734L393.04735977309576,40.71002739256935L393.0863920833727,40.71343405594886L393.2247793652635,40.9340258295839L393.8492963296939,41.42134831301978L395.03091081353097,39.7325829424622L395.58800833293765,40.68034986814695L395.7938150598522,41.35722738788949L395.8931700314662,39.82032760333465L396.19123494630793,38.63422783572551L400.4067244562132,38.30827792331739L400.633821534188,38.56198015336382L401.68059712797753,38.198442112431046L403.1531797429697,39.00583409241723L403.5505996294254,38.54741983841278L403.6286642499792,36.96306993881488L404.89189174621345,37.776760380814935L405.23253736317554,36.176424156038856L406.9038299213955,37.36199554933225L407.0528623788164,36.69706649422996L407.9470571233418,36.61013240759187L408.1173799318228,38.329190738564606L408.22383168712344,38.91640673947668L409.16415552561244,36.30297130572417L410.42383463000334,35.18075379416516L411.71899765282774,35.91752224238521L412.0560948779464,35.88196054944651L412.14480467403024,34.61834436695213L412.4428695888721,35.56109323770068L412.4960954665224,35.06879247750864L412.87222500191797,34.79239116677257L412.87577339376134,35.850959087108L413.9225489875509,35.24979220298405L415.7180352602884,34.5522480423914L418.19481276694995,34.128622433676156L418.375780750961,34.16894549971014L418.93997505405434,35.58465392878023L418.9754589724879,31.39121417396421L419.70287930037557,33.03198754559248L420.38062214245633,32.810242955268514L420.57223530199747,34.4341563828215L420.62900957149117,33.90434705046482L422.4706249381922,32.78370265334587L422.48481850556567,33.88617667804394L422.71546397538367,32.57064021371024L423.4499810869581,31.83308971146038L423.549336058572,32.62808891204078L425.3093384128759,32.615613574148185L425.31288680471926,32.86918371061566L425.649984029838,32.93642684761171L426.1893395900278,33.22401258171894L426.8564372565785,33.089982630999515L426.8706308239519,33.496940431754325L428.8541818643871,31.416994937807953L429.20192426503587,32.372394770866556L431.0080557133034,31.77439513051031L433.2612845338336,30.930210585599934L433.885801498264,30.33932748680892L434.1590276702023,31.669906107444135L435.4825778277735,29.763585614503626L436.1141915758907,30.922658735649527L437.1964510881138,30.54415509264854L439.9287128074969,30.458547946053393L440.16645506100167,29.349751442327097L440.75903649884185,30.19631367165838L442.380651571255,29.46694096279543L442.4693613673388,29.81978692915123L442.9483942661917,29.576179350449777L444.5167834609544,30.221995365317873L444.843235510543,30.102839451799497L445.96452733304307,30.752550726182854L447.6819489852267,31.04624428725254L448.13614314117615,29.781903091137412L448.33130469256065,29.25244800974245L449.2503381799895,29.680096468361672L450.58808190493414,27.98568409730451L451.19840530199116,28.898509269233585L453.0435690605355,29.219403600120565L453.6574408494359,28.814859509308167L453.7745377802666,29.348356954431296L455.26486235447555,29.145479229944407L456.9822840066592,28.089832378979565L457.07454219458634,29.321734094021846L458.33067290713393,28.207969070451412L459.49809382359757,28.49185318222159L460.32841751494254,28.365330049550625L460.7258374013983,27.260052038426917L462.7732594950139,28.75987255494874L463.28067952861363,27.693850353783745L463.7668092111532,27.729315978665L465.3316500140726,27.622642908356173L465.9490701948162,26.781682647622567L468.92617095139076,27.812737576954095L469.02907431484806,27.12262067804986L469.6855268058686,27.452875640280624L469.8558496143497,27.432737373746264L470.1432693536614,28.928228823431095L470.6010119014542,26.24877512041447L471.8890781405919,26.24948962659147L471.960045977459,26.002249474469178L471.9742395448324,27.025872638922102L472.04875577354284,25.633867501954274L472.7264986156236,26.218888948179902L473.1984347307897,26.314890958799353L474.0287584221347,26.860203273920387L475.4977926452836,26.20354808026241L476.58714894119345,27.180431132659074L476.71489104755415,26.00995593394945L476.80360084363804,26.977604444327685L477.9816669356318,25.703862088157067L478.6061839000622,25.994948302106128L478.7161840472061,26.10061716100234L479.9474760168502,25.90608835112966L481.25328421520476,26.125826019691797L481.53715556267304,25.051779133606402L481.9026399225386,26.03498766715809L482.0942530820797,24.935434711830574L483.8400618690102,26.036903024052673L484.968450475197,25.272654608223508L485.70651597861473,26.6759402366199L487.2961955244377,25.350505760246236L488.1371643913127,24.38268312651398L491.4442655893192,24.84389386162707L491.99071793319575,25.60049886263862L492.18587948458025,24.39145534100613L492.30297641541097,25.103661888860813L492.53007349338566,24.855190864752988L492.72168665292685,24.821549031899107L492.7678157468904,24.802875803240244L493.5271716013683,24.62092590463452L497.63975774781636,25.345243031976327L498.42750073704104,24.21997385853117L499.19395337520564,24.52427843675433L499.49556668189075,22.91730000644649L500.8510523660522,24.361256947584984L501.22008511776113,24.415757557403776L502.4904093976821,26.60491441986334L502.71750647565676,24.186019804490716L503.07944244367894,23.689341943432975L503.2710556032201,24.334480978709024L503.3420234400872,23.017489983943623L503.55492695068847,24.477253122652687L504.3497667235999,24.29983043125237L505.87912360808576,23.876239346995234L506.62428589519016,24.82989494438652L506.6562214217804,22.571515042310217L509.30687012876626,21.315410181054496L510.33235537149574,23.410141149461467L510.4530006941698,24.2875787518059L510.754614000855,22.975481223714777L511.12364675256384,22.169656353915098L511.15913067099734,24.992334020957827L511.265582426298,23.573660991678643L511.59558286773,24.09217031878256L512.1952610892569,24.58652453370174L512.9581653355782,23.41903044689857L514.5407480977143,24.178106198261634L514.5726836243045,23.349495186095265L514.9701035107603,23.55335160391702L515.1617166703014,22.492342954498103L515.7436529326116,23.661251043021224L515.8252659450087,25.091605347655996L516.0772017658869,24.200598132202504L518.6284955012588,21.56551136001148L518.7917215260532,22.58551095742397L519.2281737227858,23.448157081054244L520.881724321789,22.868872699132005L520.9278534157527,23.508229638202764L521.7262415805075,23.376328195380324L522.2265648304204,23.083942060529427L523.7097926209426,21.337412768327937L524.9517297661167,22.292692516314784L526.0978603315203,23.717883162863806L526.7862483491311,23.37780223963618L526.7897967409745,22.235901283752135L526.9033452799617,22.792045272346005L530.3985112456661,22.877200598858625L530.7746407810617,23.610491083187785L531.2004478022642,23.75268081453337L531.8178679830079,21.9031125265072L532.1656103836567,22.69583311285094L532.9107726707612,22.607294389441446L534.159806599622,23.079180687434103L534.3123874488863,23.844900145392362L541.0152996409831,22.22695794803273L541.1430417473439,22.49424630288549L542.2465916106272,22.2752321468807L542.374333716988,17.373392540984813L545.1243373955878,22.381582488559157L545.1278857874311,23.048303813357514L545.7914350621385,22.52352304338087L548.6336969286655,21.159888004616615L548.8927295332303,22.07633824464948L549.2049880154456,19.47540666899408L549.2156331909756,22.787091763135866L549.9075696004298,21.81027775965546L550.6811190222811,21.338886812583787L550.6917641978112,22.932589838208475L550.9330548431592,21.502697861099982L551.8520883305881,22.69933359269278L552.1501532454299,23.149208297031645L552.6185409687527,23.15524557401441L552.8740251814742,22.71169935295741L553.1153158268223,21.816248989848766L553.172090096316,23.185762192875725L553.4843485785312,22.901208606830497L553.5908003338319,22.297856174400486L555.2017702307148,22.299378252685084L555.4182221331595,21.879365703566442L555.8191904114585,21.621440982184225L556.2733845674079,22.080063884000882L556.6495141028036,23.44432936939188L556.9653209768621,21.931257465201252L557.3520956877877,21.942071125913337L559.2291949729223,21.966631525215256L560.3291964443622,20.897757303595963L561.4504882668623,21.66893162593899L562.1211343252563,21.801343430316408L562.4546831585317,21.748265828597965L562.617909183326,21.185192931363478L562.7704900325903,24.14743947306065L562.9621031921314,21.650534592945146L566.6346887500034,26.083147785187904L567.8801742870208,21.81508116252589L567.8872710707076,21.279889016827543L568.9269498808104,22.275043012892688L569.3385633346396,21.818233395659647L570.3214678752489,20.468621291150292L572.145341282733,20.459452795921322L572.9188907045844,20.892047258433724L575.4772812236431,20.73472380591942L576.0059916083029,21.566168825779375L576.8185733404312,21.46606891208605L578.4224464536275,21.311144158880204L579.469222047417,22.050090650089302L580.2711586040152,18.42032121573977L580.4237394532794,21.075663337410113L580.760836678398,20.87695256491335L581.1440629974804,21.034885449166843L582.6414843553761,22.28120337707401L583.4398725201308,19.677260668244244L584.7705194613889,20.18131775696169L585.9663275125994,20.470092333279347L586.0301985657798,21.93143459068207L586.9456836613653,19.651250241700783L587.5950393686991,21.28504066640609L587.6908459484697,21.404735461684044L590.9624632280427,20.56030324131315L591.2214958326075,20.196904799276293L591.3811734655585,21.416107517979817L591.4308509513654,21.383366323164147L591.5053671800758,20.404255692686288L591.7927869193876,20.04691554251983L592.2718198182405,20.556181321224926L593.5137569634146,20.804751415516957L594.2766612097358,21.09415343633456L594.9650492273466,20.12564331556642L596.0366635640397,20.95855937755543L596.7108580142772,20.436180309014L596.8776324309148,20.743285871536L597.7540852162233,21.041313002632837L598.5773121238816,21.695506452319737L599.2479581822756,19.312364164937183L599.5211843542139,20.21519975995913L600.6389277848707,20.820338457831564L600.8340893362551,21.42253507144585L601.6182839336366,22.081588964412237L603.1086085078455,20.980405854235606L604.9963529685101,20.5831494262157L605.5357085287,20.597970926197807L605.585386014507,21.492133376911813L606.2524836810577,22.067983325781714L606.3908709629485,20.538805011341097L606.4299032732254,20.213167320119545L606.6250648246099,21.843679422365824L607.0721621968726,21.544721631962826L608.5447448118648,19.702001195153823L609.1195842904882,20.92377973864662L610.5141022849266,21.084885870921383L611.2273290454409,20.552488705268274L611.3373291925848,19.832815868076835L611.4863616500057,20.42270676396239L611.9299106304251,21.047887660311776L612.8950732118175,19.085433400576516L613.5195901762479,20.97823231443671L613.551525702838,21.033885740944427L615.2476570039615,20.971732709927622L615.9502385889458,20.590531656002206L616.0850774789933,19.484325987699176L616.2412067201009,19.26333643226391L616.4363682714853,21.25180111854259L617.2312080443969,19.903566990231724L617.312821056794,18.146401162798966L617.6924989840329,20.43906235073629L618.1218543970788,21.054360245679714L618.8457263331231,20.56846302193931L619.0125007497609,21.048740264321285L619.8250824818891,19.949313398319127L620.0663731272372,20.47599151242964L620.2118571928147,19.992237807220178L620.3892767849825,20.90457813567202L621.1237938965569,17.967975761049434L622.2628276782737,21.376695597427798L622.9157317774509,20.523764356103026L623.8276684811931,20.551011658885624L624.9808958302833,20.931110932277623L625.197347732728,20.1453222567013L625.4315415943894,21.071802602353L627.4967056472217,20.769374353376115L627.8338028723405,21.43035861387108L629.4696115121269,18.61949731788961L629.8244506964623,19.85558399768277L629.8350958719924,21.30532603715336L630.1154188276174,20.947028208539592L630.55187102435,19.65233100734661L631.4496141607187,20.881542816781412L631.66251767132,19.964360057810797L632.0599375577757,21.54470061707527L633.4260684174673,20.047299814749458L633.8625206141999,21.360694261615617L634.1960694474752,21.685104082978388L636.8041374523408,22.508215198858128L637.4002672820245,21.344395715250858L637.485428686265,20.701448232534414L638.0638165567317,20.024081366124438L639.0502694891843,21.099389145463363L639.7883349926021,21.009565511785983L641.5057566447857,21.28166327376281L644.4296315237099,21.60611812702749L644.6247930750944,21.78667804092757L644.6531802098413,21.27593521583982L644.8767288959726,19.75797584922851L645.3131810927052,21.00111152273401L645.6325363586071,20.922398760321375L646.2960856333145,21.25361140099941L646.4486664825787,21.151094775236917L646.8070540587576,21.68050482472997L646.8425379771911,21.68798312257388L647.2399578636467,21.583779301553125L648.3718948616769,20.787819420398616L648.6557662091452,20.797111002826142L649.1986701611786,22.095251643451864L650.0893165138605,22.336604624931013L650.6677043843273,21.436482952530895L651.1964147689871,21.007536074073244L651.9628674071517,20.89211930947678L653.5596437366613,21.235292423302266L653.776095639106,21.00670448495129L654.7128710857515,21.4277377571799L654.8015808818354,20.898501831040907L656.448034697152,21.456846378574777L657.0902936207992,23.258074420963517L657.9099721366141,22.34583916694948L658.0341658511315,22.34223661479664L658.0625529858784,22.371717499913988L658.5628762357914,21.83693364345962L659.1873932002218,21.38487639294155L661.9444936625083,23.488115388682797L663.8499800823897,22.163796202413153L664.4248195610132,22.43742504905489L664.6412714634578,20.842299015329857L665.0599817009736,21.52438222293325L666.0322410660528,22.118575166514688L667.0967586190592,22.181373654792193L668.3067602376431,21.406422656942265L670.0277302816701,21.357175769013026L671.3619256147715,22.15107919331364L671.6457969622397,20.819065556070882L672.4406367351512,21.760499495283643L672.5932175844155,20.682997161258314L673.3703153981102,21.536246628023257L673.6293480026751,22.73781485393868L674.9954788623666,21.656791025183917L675.5064472878096,21.56487791125794L675.729995973941,21.441523523418084L676.0422544561561,20.96199381060781L676.6951585553335,21.853382296164128L676.7235456900803,21.945481541951324L676.8654813638144,21.45134348016135L677.1635462786562,22.809622724725045L678.2103218724459,21.854898370195087L678.4799996525408,20.50163868163103L679.122258576188,21.769899154275773L679.7396787569318,21.661813583310312L681.975165618245,21.808743672863706L682.1703271696296,21.55972025742579L683.3590384371533,22.085083440000478L683.6322646090917,22.226063314248076L685.7861384580079,22.14915783216546L685.9777516175491,22.433390190643717L687.6313022165523,23.36228724836463L688.287754707573,20.494052307222514L688.8696909698831,21.54105903727408L690.0264667108167,21.845441670793896L690.1080797232139,21.13810457259914L690.6438868915604,22.229855000388934L690.679370809994,21.235778767842856L691.1371133577867,20.320247178608994L692.350663368214,22.203982671678023L692.460663515358,21.757212166444173L693.8942138200732,22.058085313741792L693.9829236161571,21.75233070827709L695.1893768428977,19.80695854999988L695.9913133994959,21.266634627031895L696.193571734567,21.383894697479885L696.9813147237918,21.975971141671486L697.4497024471145,22.191154583887112L697.935832129654,22.20474821401048L697.9429289133408,21.78291637605466L698.4716392980006,23.28408484750698L699.5361568510071,20.915070568817132L699.635511822621,21.21905992372692L699.7419635779216,21.997931699169822L700.3416417994486,22.945159743095076L700.3664805423521,21.892836246491253L701.8497083328743,21.78291337392786L702.3145476643538,21.33379520554114L703.0739035188316,23.006886472107105L703.2939038131196,21.50858503174308L704.8126155220754,21.896790047478973L704.9155188855326,21.38161007898963L705.1568095308808,22.89225926685749L705.7600361442511,21.936216978664987L705.7919716708412,22.16615587407322L706.2284238675738,22.309798634787143L706.4768112966086,21.54609360390767L706.8813279667511,22.361711411309507L707.0800379099791,22.667799252848337L707.8642325073604,22.362506974909913L708.2439104345992,21.370475190710575L710.1990743402877,22.122628037686617L710.3339132303352,22.08117166878786L711.7745603187371,21.24417871861257L712.2748835686502,22.53353513623895L713.0768201252482,24.71711104498843L713.6694015630885,22.06687854312149L714.9823065451297,21.950170864003635L715.1597261372975,22.485477090520142L715.9474691265222,21.994992617038474L716.5932764420127,22.305634684923813L716.9161800997579,22.438145559485484L717.8529555464036,22.485420050111042L720.1594102445841,22.325274598410388L721.2771536752408,23.325334069656925L721.3197343773611,22.68749020249037L721.6071541166727,22.661428739791404L721.6461864269496,22.492042741818686L721.9123158152013,22.74657806205043L722.1181225421158,23.33946508047643L722.81005895157,22.75242320291842" fill="none"></path></g></g></g></g></g></g><g transform="translate(71, 374)" clip-path="url(#clip_1)"><clipPath id="clip_1"><rect width="1372" height="26"></rect></clipPath><g><g><line x1="13.135238672490797" y1="0" x2="13.135238672490797" y2="5" style="visibility: inherit;" fill="rgb(0, 0, 0)" stroke="rgb(204, 204, 204)" stroke-width="1px"></line><line x1="190.55483084022143" y1="0" x2="190.55483084022143" y2="5" style="visibility: inherit;" fill="rgb(0, 0, 0)" stroke="rgb(204, 204, 204)" stroke-width="1px"></line><line x1="367.97442300795205" y1="0" x2="367.97442300795205" y2="5" style="visibility: inherit;" fill="rgb(0, 0, 0)" stroke="rgb(204, 204, 204)" stroke-width="1px"></line><line x1="545.3940151756827" y1="0" x2="545.3940151756827" y2="5" style="visibility: inherit;" fill="rgb(0, 0, 0)" stroke="rgb(204, 204, 204)" stroke-width="1px"></line><line x1="722.8136073434133" y1="0" x2="722.8136073434133" y2="5" style="visibility: inherit;" fill="rgb(0, 0, 0)" stroke="rgb(204, 204, 204)" stroke-width="1px"></line><line x1="900.233199511144" y1="0" x2="900.233199511144" y2="5" style="visibility: inherit;" fill="rgb(0, 0, 0)" stroke="rgb(204, 204, 204)" stroke-width="1px"></line><line x1="1077.6527916788746" y1="0" x2="1077.6527916788746" y2="5" style="visibility: inherit;" fill="rgb(0, 0, 0)" stroke="rgb(204, 204, 204)" stroke-width="1px"></line><line x1="1255.0723838466051" y1="0" x2="1255.0723838466051" y2="5" style="visibility: inherit;" fill="rgb(0, 0, 0)" stroke="rgb(204, 204, 204)" stroke-width="1px"></line></g><g transform="translate(0, 8)"><text x="13.135238672490797" y="0" dx="0em" dy="0.95em" style="text-anchor: middle; visibility: inherit; font-family: Roboto, sans-serif; font-size: 12px; font-weight: 200;" fill="rgb(33, 33, 33)" stroke="none" stroke-width="1px">0</text><text x="190.55483084022143" y="0" dx="0em" dy="0.95em" style="text-anchor: middle; visibility: inherit; font-family: Roboto, sans-serif; font-size: 12px; font-weight: 200;" fill="rgb(33, 33, 33)" stroke="none" stroke-width="1px">50k</text><text x="367.97442300795205" y="0" dx="0em" dy="0.95em" style="text-anchor: middle; visibility: inherit; font-family: Roboto, sans-serif; font-size: 12px; font-weight: 200;" fill="rgb(33, 33, 33)" stroke="none" stroke-width="1px">100k</text><text x="545.3940151756827" y="0" dx="0em" dy="0.95em" style="text-anchor: middle; visibility: inherit; font-family: Roboto, sans-serif; font-size: 12px; font-weight: 200;" fill="rgb(33, 33, 33)" stroke="none" stroke-width="1px">150k</text><text x="722.8136073434133" y="0" dx="0em" dy="0.95em" style="text-anchor: middle; visibility: inherit; font-family: Roboto, sans-serif; font-size: 12px; font-weight: 200;" fill="rgb(33, 33, 33)" stroke="none" stroke-width="1px">200k</text><text x="900.233199511144" y="0" dx="0em" dy="0.95em" style="text-anchor: middle; visibility: inherit; font-family: Roboto, sans-serif; font-size: 12px; font-weight: 200;" fill="rgb(33, 33, 33)" stroke="none" stroke-width="1px">250k</text><text x="1077.6527916788746" y="0" dx="0em" dy="0.95em" style="text-anchor: middle; visibility: inherit; font-family: Roboto, sans-serif; font-size: 12px; font-weight: 200;" fill="rgb(33, 33, 33)" stroke="none" stroke-width="1px">300k</text><text x="1255.0723838466051" y="0" dx="0em" dy="0.95em" style="text-anchor: middle; visibility: inherit; font-family: Roboto, sans-serif; font-size: 12px; font-weight: 200;" fill="rgb(33, 33, 33)" stroke="none" stroke-width="1px">350k</text></g><line x1="0" y1="0" x2="1372.3125" y2="0" fill="rgb(0, 0, 0)" stroke="rgb(204, 204, 204)" stroke-width="1px"></line></g></g></g></g></svg>