<svg viewBox="0 0 1444 400" xmlns="http://www.w3.org/2000/svg"><g><g><g><g><g><line x1="71.6875" y1="358.35314625542105" x2="66.6875" y2="358.35314625542105" style="visibility: inherit;" fill="rgb(0, 0, 0)" stroke="rgb(204, 204, 204)" stroke-width="1px"></line><line x1="71.6875" y1="311.0883536204881" x2="66.6875" y2="311.0883536204881" style="visibility: inherit;" fill="rgb(0, 0, 0)" stroke="rgb(204, 204, 204)" stroke-width="1px"></line><line x1="71.6875" y1="263.8235609855551" x2="66.6875" y2="263.8235609855551" style="visibility: inherit;" fill="rgb(0, 0, 0)" stroke="rgb(204, 204, 204)" stroke-width="1px"></line><line x1="71.6875" y1="216.55876835062213" x2="66.6875" y2="216.55876835062213" style="visibility: inherit;" fill="rgb(0, 0, 0)" stroke="rgb(204, 204, 204)" stroke-width="1px"></line><line x1="71.6875" y1="169.29397571568916" x2="66.6875" y2="169.29397571568916" style="visibility: inherit;" fill="rgb(0, 0, 0)" stroke="rgb(204, 204, 204)" stroke-width="1px"></line><line x1="71.6875" y1="122.02918308075621" x2="66.6875" y2="122.02918308075621" style="visibility: inherit;" fill="rgb(0, 0, 0)" stroke="rgb(204, 204, 204)" stroke-width="1px"></line><line x1="71.6875" y1="74.76439044582324" x2="66.6875" y2="74.76439044582324" style="visibility: inherit;" fill="rgb(0, 0, 0)" stroke="rgb(204, 204, 204)" stroke-width="1px"></line><line x1="71.6875" y1="27.499597810890254" x2="66.6875" y2="27.499597810890254" style="visibility: inherit;" fill="rgb(0, 0, 0)" stroke="rgb(204, 204, 204)" stroke-width="1px"></line></g><g transform="translate(61.6875, 0)"><text x="0" y="358.35314625542105" dx="0em" dy="0.3em" style="text-anchor: end; visibility: inherit; font-family: Roboto, sans-serif; font-size: 12px; font-weight: 200;" fill="rgb(33, 33, 33)" stroke="none" stroke-width="1px">0</text><text x="0" y="311.0883536204881" dx="0em" dy="0.3em" style="text-anchor: end; visibility: inherit; font-family: Roboto, sans-serif; font-size: 12px; font-weight: 200;" fill="rgb(33, 33, 33)" stroke="none" stroke-width="1px">5e-8</text><text x="0" y="263.8235609855551" dx="0em" dy="0.3em" style="text-anchor: end; visibility: inherit; font-family: Roboto, sans-serif; font-size: 12px; font-weight: 200;" fill="rgb(33, 33, 33)" stroke="none" stroke-width="1px">1e-7</text><text x="0" y="216.55876835062213" dx="0em" dy="0.3em" style="text-anchor: end; visibility: inherit; font-family: Roboto, sans-serif; font-size: 12px; font-weight: 200;" fill="rgb(33, 33, 33)" stroke="none" stroke-width="1px">1.5e-7</text><text x="0" y="169.29397571568916" dx="0em" dy="0.3em" style="text-anchor: end; visibility: inherit; font-family: Roboto, sans-serif; font-size: 12px; font-weight: 200;" fill="rgb(33, 33, 33)" stroke="none" stroke-width="1px">2e-7</text><text x="0" y="122.02918308075621" dx="0em" dy="0.3em" style="text-anchor: end; visibility: inherit; font-family: Roboto, sans-serif; font-size: 12px; font-weight: 200;" fill="rgb(33, 33, 33)" stroke="none" stroke-width="1px">2.5e-7</text><text x="0" y="74.76439044582324" dx="0em" dy="0.3em" style="text-anchor: end; visibility: inherit; font-family: Roboto, sans-serif; font-size: 12px; font-weight: 200;" fill="rgb(33, 33, 33)" stroke="none" stroke-width="1px">3e-7</text><text x="0" y="27.499597810890254" dx="0em" dy="0.3em" style="text-anchor: end; visibility: inherit; font-family: Roboto, sans-serif; font-size: 12px; font-weight: 200;" fill="rgb(33, 33, 33)" stroke="none" stroke-width="1px">3.5e-7</text></g><line x1="71.6875" y1="0" x2="71.6875" y2="374" fill="rgb(0, 0, 0)" stroke="rgb(204, 204, 204)" stroke-width="1px"></line></g></g><g transform="translate(71, 0)" clip-path="url(#clip_0)"><clipPath id="clip_0"><rect width="1372" height="374"></rect></clipPath><g><g><g><line x1="42.65381203292225" y1="0" x2="42.65381203292225" y2="374" fill="rgb(0, 0, 0)" stroke="rgb(66, 66, 66)" stroke-width="1px" opacity="0.25"></line><line x1="187.1771314242469" y1="0" x2="187.1771314242469" y2="374" fill="rgb(0, 0, 0)" stroke="rgb(66, 66, 66)" stroke-width="1px" opacity="0.25"></line><line x1="331.70045081557157" y1="0" x2="331.70045081557157" y2="374" fill="rgb(0, 0, 0)" stroke="rgb(66, 66, 66)" stroke-width="1px" opacity="0.25"></line><line x1="476.2237702068962" y1="0" x2="476.2237702068962" y2="374" fill="rgb(0, 0, 0)" stroke="rgb(66, 66, 66)" stroke-width="1px" opacity="0.25"></line><line x1="620.7470895982209" y1="0" x2="620.7470895982209" y2="374" fill="rgb(0, 0, 0)" stroke="rgb(66, 66, 66)" stroke-width="1px" opacity="0.25"></line><line x1="765.2704089895456" y1="0" x2="765.2704089895456" y2="374" fill="rgb(0, 0, 0)" stroke="rgb(66, 66, 66)" stroke-width="1px" opacity="0.25"></line><line x1="909.7937283808702" y1="0" x2="909.7937283808702" y2="374" fill="rgb(0, 0, 0)" stroke="rgb(66, 66, 66)" stroke-width="1px" opacity="0.25"></line><line x1="1054.3170477721949" y1="0" x2="1054.3170477721949" y2="374" fill="rgb(0, 0, 0)" stroke="rgb(66, 66, 66)" stroke-width="1px" opacity="0.25"></line><line x1="1198.8403671635197" y1="0" x2="1198.8403671635197" y2="374" fill="rgb(0, 0, 0)" stroke="rgb(66, 66, 66)" stroke-width="1px" opacity="0.25"></line><line x1="1343.3636865548442" y1="0" x2="1343.3636865548442" y2="374" fill="rgb(0, 0, 0)" stroke="rgb(66, 66, 66)" stroke-width="1px" opacity="0.25"></line></g><g><line x1="0" y1="358.35314625542105" x2="1372.3125" y2="358.35314625542105" fill="rgb(0, 0, 0)" stroke="rgb(66, 66, 66)" stroke-width="1px" opacity="0.25"></line><line x1="0" y1="311.0883536204881" x2="1372.3125" y2="311.0883536204881" fill="rgb(0, 0, 0)" stroke="rgb(66, 66, 66)" stroke-width="1px" opacity="0.25"></line><line x1="0" y1="263.8235609855551" x2="1372.3125" y2="263.8235609855551" fill="rgb(0, 0, 0)" stroke="rgb(66, 66, 66)" stroke-width="1px" opacity="0.25"></line><line x1="0" y1="216.55876835062213" x2="1372.3125" y2="216.55876835062213" fill="rgb(0, 0, 0)" stroke="rgb(66, 66, 66)" stroke-width="1px" opacity="0.25"></line><line x1="0" y1="169.29397571568916" x2="1372.3125" y2="169.29397571568916" fill="rgb(0, 0, 0)" stroke="rgb(66, 66, 66)" stroke-width="1px" opacity="0.25"></line><line x1="0" y1="122.02918308075621" x2="1372.3125" y2="122.02918308075621" fill="rgb(0, 0, 0)" stroke="rgb(66, 66, 66)" stroke-width="1px" opacity="0.25"></line><line x1="0" y1="74.76439044582324" x2="1372.3125" y2="74.76439044582324" fill="rgb(0, 0, 0)" stroke="rgb(66, 66, 66)" stroke-width="1px" opacity="0.25"></line><line x1="0" y1="27.499597810890254" x2="1372.3125" y2="27.499597810890254" fill="rgb(0, 0, 0)" stroke="rgb(66, 66, 66)" stroke-width="1px" opacity="0.25"></line></g></g></g><g><g><line x1="0" y1="358.35314625542105" x2="1372.3125" y2="358.35314625542105" fill="rgb(0, 0, 0)" stroke="rgb(153, 153, 153)" stroke-width="1.5px"></line></g></g><g><g><line x1="42.65381203292225" y1="0" x2="42.65381203292225" y2="374" fill="rgb(0, 0, 0)" stroke="rgb(153, 153, 153)" stroke-width="1.5px"></line></g></g><g><g><g><g><g><path style="fill: none;" stroke="rgb(0, 119, 187)" stroke-width="2px" d="M43.35908583155191,244.07288471986956L43.99787890326157,275.6604573038365L44.26091134455378,297.6520509356081L44.55573891611208,308.2663659101684L44.977747008734745,306.91312775644803L45.61943054683223,314.38957137097174L45.92581998394184,318.28423075002087L46.86811202637328,324.42439535095457L47.01841627854026,325.8132289308084L48.26131682530564,328.56204013179644L48.31912615306217,329.9793422576516L49.88864940165197,323.5671931022015L50.437838015339,320.35547655505377L50.507209208646834,314.602411215302L51.56511990659133,220.47441601636436L52.02181359586792,239.14433849738055L52.09118478917575,245.0500266587364L52.961215171911526,265.45145633333505L54.56542401715522,241.54960047108926L54.73885200042482,-40.7990961778266L58.418415712127945,-20.681722272127313L59.03408505273498,33.89775335320956L59.51101200672636,94.51639920137377L59.609287863912456,144.27775071026107L59.941691498512505,186.64122920456253L59.98793896071773,-337.39392730115094L61.64128573455448,-17.157969880927986L62.10665082299455,59.34659779725835L62.453506789533726,119.64736784645225L62.86106255021726,166.60506575101638L64.14732009280006,205.60729715035595L64.22825315165919,235.0993150142361L64.74853710146796,247.3090397484975L64.99711721082105,268.9551083933275L65.73707660610462,-67.30777400092029L66.6186688543917,2.29863537366737L67.36151871606312,76.16618813555024L67.37886151439007,134.09938648118649L67.56385136321096,179.51523261073334L67.68236048511186,212.99502802853695L67.78352680868578,133.40703354346846L67.95117385917972,176.01335765558326L68.02054505248755,197.786376424129L69.1073604143103,161.1978157785962L69.39640705309297,196.32253294859822L69.5091352422182,229.53738023850775L69.61319203217995,232.1553824753876L69.7056869565904,255.384689531044L70.72602159149315,264.44940753796624L70.84453071339404,282.92247965391306L71.08732988997146,134.0775984623267L71.25208647407757,169.83738641837562L71.31856720099758,201.58529051468415L71.41106212540804,225.20526987456367L71.49777611704282,248.77510939688997L71.74057529362025,264.54579234434954L71.9082223441142,276.7775550913517L72.11055499126203,193.6863163760634L72.84473345376998,224.1724001746228L73.0557375000813,248.60207006778853L73.42282673133528,265.8027660612319L73.60203564738052,280.12562197287417L74.51542302593369,215.19192067434315L74.79001733277721,244.01796417347288L76.81623427064358,247.96080747315904L76.95497665725924,212.60617775897066L77.41745127931148,211.93699763079934L77.55908413231498,223.23469626198838L78.36263378813075,250.42865302800797L78.48981430919511,271.64391128398853L78.71527068744558,250.99861069461087L79.95528076782315,263.1842896220917L81.10857685656592,282.86824305873L81.35137603314334,193.6415659233513L81.73869852911209,221.4625722017606L81.81963158797124,244.23741920602805L82.08555449565127,267.9128069780159L82.1000068275904,279.669640742653L82.5480291177035,294.18266742065686L82.68388103793136,303.58000430145955L83.03651793724619,314.6984532355914L83.25330291633317,-7169.598830921502L91.31192320559344,-84.0369625985459L91.40441813000389,4.403956611643778L91.45355605859694,75.56732140897581L91.52292725190478,131.52652348949192L91.63854590741784,161.2923985557708L95.03195344672612,172.71090128884686L95.05507717782874,208.3529417970931L95.07820090893135,228.84478001607107L95.85284590086886,256.10363458557333L96.07252134634366,269.3479961044286L96.87607100215942,284.9657285793912L96.89341380048639,294.6653684187193L96.98012779212118,304.84345048587136L97.88773423789871,294.3821673895745L98.17678087668135,299.4772162298724L98.49473217934226,310.46854908384876L98.66237922983619,319.88488851410546L99.02079706192669,326.9808609716737L99.15086804937889,308.6124162652542L99.35609116291455,310.3644723702746L100.0035556337877,319.8948823951518L100.46024932306429,327.78286390201185L102.24944801712887,312.6589695815793L102.33038107598802,314.503287850309L102.89402202161418,323.46935895624665L103.26111125286815,328.5298964784746L103.45766296724035,332.3756243449163L103.50391042944557,333.718146224543L103.72647634130821,337.8279755214637L104.12536070282827,338.4829077006658L104.25254122389264,341.8257724086161L105.30756145544932,331.36911693513895L106.42617194753817,332.75015235734264L106.71232811993298,337.94389051483023L108.27317996935929,340.52973622851306L109.33976206646727,344.1618773789577L109.4409283900412,339.8913205139048L110.30806830638915,343.6132118591847L110.57977214684485,342.6506146651513L113.1176016353565,344.7670921961415L113.3806340766487,346.39878343960373L114.10036020721749,345.6752059631287L114.21597886273055,344.6026940176624L114.41831150987841,346.9167118376598L114.73626281253934,346.8209126206455L114.88945753109414,345.51715020635686L115.23920396402114,345.0618073508041L116.19883880477954,345.42319040189597L116.79138441428397,347.06956949221586L117.60071500287539,348.0446360765352L118.89564394462165,349.93198421479246L119.67317940294697,348.3374031997392L119.80903132317484,349.79435775047716L120.16455868887748,350.8036409300158L120.73687103366713,348.03196845885554L120.78022802948453,348.8778759032406L121.58666815168813,350.3979428928735L122.98565388339614,348.92216948336556L123.10416300529704,347.52528703741746L123.28048145495445,346.58346612001696L123.604213690391,348.8699849333584L123.88169846362236,346.93126373310815L125.88190120399828,347.1586632580243L126.3964042210314,339.4457511477311L126.43108981768532,342.8607916665274L127.37338186011675,342.3486071047482L127.89366580992552,343.0411294363395L128.1104507890125,345.13019317575726L128.26942644034298,347.3651670638496L128.3156739025482,349.1552212196772L128.43418302444908,350.3968828690473L128.87931484817437,343.70411279276556L129.0036049028509,346.5180820112347L129.5267793190475,347.99366092804297L129.59904097874315,348.64181059853206L130.234943584065,349.69712414998565L131.39980153835907,347.37339353502847L132.02414227812957,348.38268720817337L132.13976093364263,347.61613186723724L132.16288466474526,348.0079184135366L133.34508541736628,347.96585117901225L133.4433612745524,349.06735690165584L134.16597787150903,349.70836119051876L134.91171819956824,350.72652413600224L135.0128845231422,351.9445858012697L135.07936525006218,351.94899278087473L135.1892029727996,352.3549488100301L137.4929046838973,353.05897953540244L137.53048074693905,353.5122599215224L138.84564295340013,351.7541737707709L139.21851311742972,350.87660469229263L140.06541976906288,349.69396575269474L140.36024734062119,348.445178729883L140.53656579027862,349.3490128886291L142.27084562297452,350.7236045002128L143.678502753846,351.9458104204919L143.72475021605123,347.71199371217153L144.22480090114522,346.7064372791647L144.44736681300785,347.1223771382998L145.19888807384274,349.2398026970641L145.4127825865419,348.7769547424474L145.85502394387936,350.40549969686225L146.4591314189351,348.2722791874284L146.56029774250902,350.2580499555848L148.15872565497708,351.0691675623571L148.7165856678276,349.8448806510138L149.2860075462294,351.3994786382181L149.32069314288333,346.7467647677562L149.5895065169512,346.54733343228827L149.78894869771122,345.1371833153961L149.8294152271408,347.70735961310135L149.93636248349037,349.64991542440146L150.1271332650869,351.11104387194393L151.54924272789754,352.16216143680305L151.76602770698454,353.06614034504133L152.30943538789592,353.5236809273445L153.60725479603,354.2898188277686L153.61014526241783,354.8488974700445L153.6708450565622,353.1296075342072L153.89919190120048,353.8390994786381L154.8183602125293,354.44841782679873L154.9166360697154,354.94888149868785L155.45426281785114,351.57761736207556L157.08159539419745,352.0289190302506L157.44001322628793,351.0511920354891L158.59041884864288,347.51187239750857L158.95461761350901,347.6462409822611L158.99219367655078,348.10641620780416L159.23210238674037,349.25425996610494L159.4749015633178,350.57124015114L159.8333193954083,352.01359150593424L160.05588530727093,349.3603806734109L160.99528688331452,346.8288453241956L161.3739379801198,348.7568742023895L162.24396836285558,350.1727998068944L162.5301245352504,351.67712003879694L162.71222391768347,350.4002793039748L163.9609053972245,351.5610600287163L164.08808591828887,352.7390980353888L164.43205141844024,353.7114867276358L165.38590532642297,353.0184471987222L165.59979983912214,353.98727890359925L166.52474908322662,351.8484953651093L166.80223385645795,352.8712484898425L167.3427510709815,348.85599123417063L167.61156444504937,350.60479349796464L167.7994447602581,351.42562129579215L169.18975909280263,351.50217460892503L170.5714020261837,352.53116115437973L170.65233508504284,353.5383609019074L170.84310586663938,354.2062200440616L171.1726190348516,350.40026602586585L171.3431565517334,351.1357738735875L171.8894546990326,347.95061696179926L171.9270307620743,347.374347692157L171.9443735604013,347.5455456986708L172.0339780184239,348.7973306361174L172.6554282918066,350.6160044486513L177.0373753357516,350.2082173578922L178.1877809581065,350.1332123874299L178.6878316432005,349.36303687576486L178.69939350875183,342.8087420911877L178.74564097095706,345.7749506917751L178.829464496204,348.03821728635734L179.02023527780054,348.0569421498092L179.38443404266667,350.0675266970243L180.312273753159,350.5053878941129L181.39330818220608,351.26407306179794L181.94249679589313,344.70819844886597L182.11014384638707,347.4320296958094L182.50902820790714,349.40356629647596L182.87033650638543,351.1413983904853L183.23164480486375,352.5162241383296L183.4686630486655,353.0766517014429L184.76359199041178,351.91621151097354L185.19427148219793,353.04624923835735L185.68276030174061,354.0519290933129L186.46029576006592,354.8438984834978L187.93154315146964,355.4267409461497L189.02413944606803,355.94681682353234L189.19178649656197,356.3325948054347L192.37129952317113,356.6470856261302L192.75573155275202,356.8313623610321L192.77307435107898,356.86870445107405L192.87424067465292,356.9909719837552L192.99564026294163,356.74464193294335L193.61998100271217,356.79890549247943L193.71825685989828,355.1281773191767L193.97550836841484,355.56259918184594L194.0101939650687,356.060040294356L194.11136028864266,356.3428222207426L194.88311481419234,356.4450959303705L195.75314519692813,356.7515221662495L196.08554883152817,356.84449396833156L196.5827090502343,355.5673882744387L197.6492911473423,355.97205571274054L198.85750609745378,356.379018101762L200.0628305811774,356.73083053791794L200.45015307714615,356.8870054509835L200.95309422862795,356.90535315399865L201.85781020801767,357.0450276232574L202.0572523887777,357.2473311249893L202.6902645277117,357.4051481931141L203.0718060909048,357.4288237725396L203.3232766666457,353.7449361534963L203.44756672132226,354.327196061319L203.70481822983882,355.013567066113L204.46790135622498,355.66558361112897L205.36105547006338,356.09812398078446L205.9102440837504,356.4921072539906L207.21384442466015,356.4793253097587L207.29188701713147,356.78984712309625L207.6011669206289,357.0453752437703L208.60126829081688,357.16334247043164L208.7139964799421,357.33950403606735L210.00603495530055,357.35202326283314L210.13899640914056,356.43027597788785L210.79224181278934,356.6840728910131L211.44837768282596,356.9228516278296L211.47150141392856,357.1462097255753L212.07849935537214,357.0252156156814L212.1941180108852,357.27439510681455L212.80111595232876,356.92721593487244L213.35608549879146,357.04140511739246L214.59320511278122,357.0756131493586L214.78975682715338,355.7799835443138L216.08468576889967,356.1243405256726L216.89112589110323,356.0686889430717L217.32758631566506,356.38354262360787L218.85086210204963,356.1830260879885L220.12266731269327,355.74487613545153L221.1169877501056,356.12466656891525L221.5852433049335,356.1839119620111L221.83382341428657,356.4916363257613L222.01303233033178,355.6415637087681L222.85704851557713,355.9434694210799L222.97844810386584,355.2677706370115L224.23291051618253,355.81488728522305L224.66069954158087,356.2376864380373L226.39497937427677,356.63397908834423L226.55106455921938,356.8989747031469L226.7389448744281,356.9432696044838L227.3690665469743,357.1806731578358L227.90669329511002,357.35504832088463L229.08600358134325,356.43875252574713L230.2277378045347,356.496777091902L230.32601366172082,355.8065519674628L231.4735288176879,356.21149532836387L231.73945172536796,356.29618667542354L231.82038478422712,356.3063492871295L232.51120625091764,356.6365554756884L232.62104397365502,356.6697002513784L232.9650094738064,356.7366163733747L233.01414740239943,356.92613095763625L233.2309323814864,357.16046748269434L233.29741310840643,357.3594645001998L233.38701756642908,357.5327329718153L234.08940089867087,357.6125251555031L234.12986742810048,357.4823089467983L234.26860981471614,357.5960092746203L235.30917771433366,357.62990206829096L235.3438633109876,357.5744944946506L235.39011077319282,357.69145403920083L235.56931968923806,357.75900939744355L237.12728107227656,356.2408412796714L237.79208834147664,356.24252543392436L237.82677393813057,356.45219467918L238.72570898474459,356.73512905981585L238.91069883356548,356.9751438965026L239.18818360679683,356.1816212166372L239.74893408603515,356.53950774453995L240.47155068299176,356.16827876654696L240.52357907797267,356.04337692476815L240.90223017477794,356.0542737085824L240.99472509918837,356.06150379774454L241.59305164146846,356.1591213795546L242.28676357454682,356.59754057086764L242.77236192770167,356.61689511790706L243.42560733135048,356.9120580598711L243.62504951211048,356.3425766584989L243.94589128115925,349.3365795765494L244.04705760473314,350.93298415027317L245.55010012640292,352.2993601313999L246.02702708039433,352.6759811636499L246.68605341681877,353.7556547961292L246.70050574875788,354.4367201597534L247.51561727012495,355.17653684906685L247.73529271559977,354.3997937775328L247.75552598031456,353.0007720257352L248.11105334601723,346.4002166258985L248.33650972426767,348.8732319754163L248.47236164449552,350.76103298001465L248.61688496388686,352.33376604048664L249.88290924175487,353.5402229917582L251.6027367425116,354.45518180348034L252.35714846973434,354.8829276587987L254.01627617634674,355.47054526447766L254.24751348737286,355.11767055971006L254.35735121011027,355.73797615866005L254.96723961794166,356.09963865797795L255.2909718533782,356.47905513679086L256.08006917725487,356.83041100090446L256.3026350891175,356.9810566625777L256.3228683538323,357.1685499034386L256.6523815220445,357.00679217093875L257.10329427854543,357.14332067269544L258.7335173212796,357.3410264913683L259.4532434518484,357.43129910494144L259.75674242257014,356.0202552611712L259.8607992125319,356.22049464116594L260.0313367294136,356.6013575374573L260.7163772633285,356.28179313069415L260.875352914659,356.10150630751565L261.0719046290312,356.3322919732582L262.9622696466697,356.49269918319425L263.8640951596716,356.5745838778286L264.62139735328213,356.84841849838244L265.25440949221615,356.9214172338654L266.8326041399694,356.90055943218965L266.98001792574854,357.13212765116646L267.5494398041504,357.0341884724431L267.9656669639974,357.13755310133996L268.36744179190526,355.0812497896444L268.77210708620095,355.6790813345793L269.12763445190365,355.96212525341605L269.3328575654393,356.2800450305011L269.3675431620932,356.6350702956555L269.81556545220633,356.84518081971817L271.17408465448483,356.9918830181751L271.51515968824833,356.8294192003427L271.6654639404153,356.9812695170806L272.60197505007113,357.10621648397L273.5009100966851,357.19519545661905L275.2583136604836,357.28186767477075L275.3161229882401,357.33893796126375L278.5592262753815,357.253214988224L278.8656157124911,357.3220709954593L281.065260633627,357.38221886260214L281.8341246927889,357.4698553780689L283.0712443067787,356.92575679049185L283.49903333217696,357.08545689526784L284.86044300084325,356.29126488672205L285.17550383711637,356.5361167205727L285.42119348008157,356.4477006809734L285.5657167994729,356.7395085832725L286.26520966532695,356.9593665372692L287.8289519811411,357.1535298496716L287.93300877110283,356.43660998391056L288.71054422942814,356.75606889161764L289.5574508810613,357.0311032894607L290.0921871628092,355.8839860527575L290.60958064623014,356.07681386920797L291.8756049240981,356.4921298364716L292.3958888739069,356.8457985508456L292.4508077352756,357.0017373367225L293.1358482691905,357.1929924639399L293.73995574424623,357.23002450206934L293.81799833671755,357.3506693999194L293.94806932416975,357.4332047212519L295.0522274843195,357.6016003296621L296.1130286486518,357.67628403548076L296.4194180857614,357.78401600847775L296.7518217203614,357.8419144897327L297.2952294012728,357.86107448293495L297.66231863252676,357.849289601215L298.624843939673,357.87028910381L299.41972219632527,357.86005712514225L302.0818417395135,356.7563653590034L302.922967458371,356.87067567187825L303.2033426979902,357.06561382293563L303.29294715601276,357.2760850519159L304.4635860430825,356.9142964832993L305.1255028458948,357.112855820749L305.1717503081,357.271152842429L305.39720668635044,357.4226933933099L305.66602006041836,355.90917696424276L306.9002492080203,356.38452809847803L307.81652705296125,356.40653046519265L308.14314975478567,356.02016605782836L308.5564864482448,356.4677713529756L309.1172369274832,356.62277213044456L309.30800770907973,356.8866118647133L309.31089817546757,356.91606219943236L309.3455837721215,356.98337524225417L310.74745997021734,357.207712822776L310.95557355014085,357.3816428310319L312.49330166846454,357.53609700556655L313.5338695680821,357.6364691275559L313.66105008914644,357.72249668664887L313.68417382024904,357.5978653614488L314.3721048205517,357.514988448733L314.3952285516543,356.50904067032565L314.834579442604,356.8436617923438L315.7190621572789,354.86528591640183L316.88102964518515,355.49885208532294L317.4909180530165,354.77841644039245L317.933159410354,355.48084068567783L319.2367597512637,355.3114144190404L319.4969017261681,355.83773054236565L320.5663742896639,356.24269111685675L322.6908670847164,356.6193231464965L323.06951818152163,356.9369430041003L325.6333618675237,356.87763889123966L327.78386886006666,357.0429666734595L328.95739821352424,357.2773837620588L329.0065361421173,357.1403177728645L329.16840225983555,357.1038733434775L329.7956334659939,357.18400690179664L330.0239803106322,357.21640693902464L332.39416274864993,356.96090238664L332.7381282488013,357.1824827966989L332.9462418287248,357.16305424224555L333.60237769876136,357.311564134107L334.0012620602814,357.4544534838429L334.4001464218015,356.4832768900681L334.8799638421807,356.5999511189783L335.09674882126774,356.4082298058831L335.5014141155634,356.7749733693944L336.03904086369914,357.03596658720113L336.44659662438266,356.97456832146315L337.94674867966467,357.1902509855754L337.96120101160375,357.2641324914262L338.1953287890177,357.38127069534994L338.95263098262825,357.5192980312312L339.8110994998127,354.9866523408651L340.2359980588232,355.1730674042947L341.0540000465781,355.44859548070974L341.5424888661208,355.92513892455634L341.8402069040669,356.3778872110088L342.4529857782861,356.6906356839183L343.0224076566879,356.8310046396865L344.2450749387385,357.1083525034586L344.26530820345334,357.1806341527673L344.4560789850499,357.23326538504153L344.59771183805344,356.93281553119635L346.0573973639058,357.02694022300614L346.3753486665667,353.65001279047794L347.01414173827635,354.6087239131882L347.66738714192513,355.2042442182327L347.8755007218486,355.3992855931509L347.9246386504417,354.849652873188L348.2396994867148,355.569174576946L348.4593749321896,356.08356792195144L349.6502470839741,356.3965735856948L350.0288981807794,356.77024548890694L350.0924884413115,357.0856628285893L350.43356347507506,357.3080789626617L351.64755935796217,357.50954622616894L351.83833013955876,357.64966846224013L352.12448631195355,357.74143433005577L352.15628144221967,357.8516833369965L352.2690096313449,357.93765897058006L352.7777317156024,357.629391529373L353.74025702274855,357.6743428739486L354.19406024563733,356.71711304219986L354.3617072961313,355.63073281097496L354.44264035499043,356.0644296463283L354.68543953156785,356.4702353305685L358.1193136003057,356.75561248447326L358.3043034491266,356.88438237199284L359.15699103353546,357.0938105288359L360.3565345844834,357.28776425096174L360.68026681991995,357.07311113087985L360.7438570804522,357.2050154306456L361.77286311451843,357.2611747884002L362.05034788774975,357.40263900848186L363.411757556416,356.7792694588091L363.5331571447048,357.0659003512923L364.261554674437,357.29869480990857L364.40029706105264,356.7016520495582L364.4870110526874,353.54275658266306L365.25298464546154,354.1838818100694L366.2791002131399,354.50998363781616L367.33412044469657,353.13891178493856L367.6087147515401,354.2233009163107L367.6809764112358,354.3477102495146L367.92377558781317,354.96169080915496L367.9671325836306,355.5598381395536L368.27352202074013,355.88245951180727L368.276412487128,356.174229539806L369.1291000715368,356.6001546444759L370.5916760637771,356.9349018338859L372.60922160248,357.2102526249505L372.7566353882591,357.4195367059775L373.2162195439235,357.1702799267331L373.2451242078018,356.82084744181583L373.8376698173062,356.54358312838247L374.3897488973811,356.0577251714239L374.54583408232367,356.39380095032925L374.59208154452887,356.7710542448877L376.09223359981087,356.90387272603186L376.1037954653621,357.14635490814044L376.29167578057087,356.90106154408284L376.890002322851,356.5306780928114L376.9709353817101,356.4789850597324L378.404606710072,356.82430310444846L378.4074971764599,357.109934906742L378.6820914833034,357.34196762155653L379.12144237425304,357.50797932933403L379.6648500551644,357.45240842620467L379.6764119207157,356.95706467761323L381.29218263151074,357.0821309773613L381.57544833751774,357.29751705850055L383.0466957289214,357.4843685190879L384.88214188519123,357.5738405944803L385.3908639694487,357.43595791534386L385.61342988131133,357.4383782998102L386.69157384397056,357.26807221419284L387.2060768610037,357.48579959139846L388.0876691092908,357.61331054922465L390.31332822791717,357.67527909985216L390.5069894759016,357.77834922839105L390.9896973626686,357.8305243072028L392.3106405019053,357.86162099145736L392.38290216160095,357.92454060090824L392.77311512395755,357.8776231227954L394.05070126737684,357.955230524501L394.31662417505686,358.0126992675199L395.2300115536101,358.03148146845024L396.6289972853181,357.35436667324086L396.9989769829599,357.47362818988444L397.1579526342903,357.43396143801107L397.90658342873746,357.59696230463516L398.996289256948,357.5275276010288L399.49344947565413,357.57306505125337L400.9964919973239,357.67981832508974L401.49654268241795,357.74863086182967L401.5919280732162,357.84967669216576L402.8059239561033,357.9301637711791L404.2049096878113,357.9768139668743L404.28006181389486,357.81431316924926L405.3032869151854,357.89619677585677L406.25425035678035,357.83676696597774L406.9306194915317,357.84300732464527L407.2543517269683,357.70873710325327L408.92215083274414,357.0608454341557L409.33548752620334,357.2996236627859L409.73148142133556,355.9033413025737L411.00617709836706,356.40045114264655L411.5091182498488,356.418618334108L413.9342195492353,356.7088626210097L414.0180430744823,357.02870064745207L414.5527793562302,357.2330734875771L414.69152174284585,357.37207182510434L414.92564952025975,357.26588592885815L415.29851968428943,356.32893202099547L416.34775898307043,356.44478150758783L416.405568310827,356.11221980324433L416.41713017637824,356.4869943206723L416.47782997052263,355.94540190714247L417.02990905059744,356.1619543139032L417.4143410801784,356.5328946419705L418.0907102149298,356.87141400795826L419.28736329949,357.0901851445644L420.1747364805527,357.04958025307775L420.2787932705145,356.9622369823473L420.3510549302101,357.1321721845697L421.3106897709685,357.2148678697627L421.81941185522595,357.37491036859336L421.9090163132486,357.4498985989869L422.9120081498244,357.5876719954073L423.9756997805445,357.715845668329L424.20693709157064,357.2097498030897L424.5046551295168,356.6689815957963L424.6607403144594,356.9254205584512L426.0828497772701,357.1802171379108L427.0020180885989,357.1695743408406L427.6032350972668,356.8731358033012L428.898164039013,357.02947164793255L429.5832045729279,356.8886800543122L432.27711924638226,357.0242988602312L432.7222510701075,357.170885466605L432.88122672143794,356.3944085728393L432.9766121122363,356.75591908348747L433.16160196105716,357.04881385774763L433.31768714599974,356.6038208858751L433.3552632090415,356.90728881716876L433.9738230160364,357.10582222675066L437.3238735595273,357.0511013467982L437.96555709762475,357.2860129029861L438.5898978373953,357.4361659673835L438.8355874803606,353.014868012938L439.93974564051024,353.938711594361L440.2403541448442,354.15384253869735L441.27514111168614,351.28483361894115L441.460130960507,352.7140974071376L441.7549585320653,353.4859708057794L441.91104371700794,354.4029272583348L441.9688530447645,354.9997495636374L442.14228102803406,355.5964404134924L442.78974549890717,356.0113294282039L444.0355365120604,356.3654141931954L444.64253445350397,356.338590570419L444.6685486509944,356.6088588752482L446.82772704270076,355.08573350065365L447.6630718287827,355.63515711620926L447.76134768596876,356.157612204286L448.007037328934,356.339629912518L448.307645833268,356.69259458727424L448.3365504971462,356.7262091636623L448.423264488781,356.98601508864135L448.6920778628489,356.988296556869L449.18056668239154,356.96115639168136L449.80201695577426,357.04291948115554L451.0911649647449,357.0453174603493L451.11717916223535,357.29433694233336L451.4409113976719,357.455200459774L451.5969965826145,357.48787279750604L452.07103307021805,357.4077942979754L452.13751379713807,357.07953420137295L452.34273691067375,357.14267828499703L454.420982243521,355.55522813663583L454.55394369736103,356.0494761503266L454.9094710630636,356.43774844861974L456.2564283997909,356.7028529018854L456.29400446283256,356.99211292749084L456.94435940009356,357.25239720835816L457.3519151607771,357.43390248220726L458.56013011088857,352.0422772097759L459.57179334662777,353.2801993109871L460.50541398989577,354.0062716847165L461.06616446913415,354.8708906458115L461.06905493552193,355.4419085565387L461.1615498599324,356.0339686833046L464.0086592519415,356.5084389868864L464.3150486890511,356.80497176576176L464.66190465559026,356.88884393364333L465.1648458070721,356.88168432141833L465.4481115130791,357.16527136082993L466.0551094545226,356.3953753647481L467.07255362303755,356.74741392978535L467.19684367771407,356.9307484969794L472.65693468431834,356.9696694260527L472.76099147428016,357.1990307162357L473.65992652089415,357.2520508053425L473.7639833108559,351.748277152245L476.0040947614214,353.09987478243625L476.0069852278093,354.16276225707577L476.5475024423328,354.90463554243576L478.86276601898186,354.48033529008205L479.0737700652932,355.15604053884346L479.3281311074219,354.7163874102467L479.33680250658534,353.0410705317087L479.90044345221156,354.11374395513405L480.5305651247577,354.708740696156L480.5392365239212,354.9243186327655L480.73578823829337,355.56978306958763L481.48441903274045,355.88809436091356L481.7272182093179,356.31706818006387L482.108759772511,356.5255043665766L482.31687335243447,356.721417769874L482.5134250668067,356.778800866908L482.5596725290119,356.6906001443956L482.8140335711406,356.955991519645L482.90074756277545,357.2235067637118L484.2130193028487,357.4078210956724L484.38933775250604,357.53419652885435L484.7159604543305,357.6640514248357L485.0859401519723,357.72330655823987L485.39232958908184,357.6479989136416L485.6495810975984,357.62235591916544L485.9646419338715,357.7458590048624L487.49369865303174,357.8581683778234L488.389743233258,356.57188034959137L489.3031306118111,356.856559748509L489.8494287591103,357.07497278447045L490.121132599566,357.01309110222826L490.254094053406,357.110298809687L490.37838410808257,353.39191268203035L490.5344692930252,354.316023180584L493.5261020044256,352.4680509607954L494.54065570655274,353.6842942504845L494.54643663932836,354.49384977001876L495.3933432909615,355.2334264779447L495.7286373919494,355.8658083628182L496.52929658137737,356.2623500185936L498.01499630472017,355.3689746823399L498.64511797726635,355.8977303987145L500.7291442428892,356.03487732202603L501.15982373467534,356.40941072640675L501.8217405374877,356.7953182530931L503.12823134478526,357.07201579607886L503.98091892919405,357.1942716833845L504.63416433284283,356.74059657646643L504.7584543875194,357.03335809845333L505.03304869436295,357.0810745051836L505.34521906424817,357.2926498936684L506.56499587991095,353.22514716112573L507.2153508171719,352.74856812311486L508.29927571260686,353.88335339101354L509.2733628853043,354.71085311182105L509.3253912802852,355.3632254471757L510.07113160834444,354.36610406552967L510.60008695731676,355.1905033995104L510.678129549788,355.69796724278484L513.3431395593641,355.8454941651524L513.5541436056753,356.1959596270002L513.6842145931275,356.3338480326805L513.7246811225572,356.2211687822456L513.7853809167015,356.50126650437454L514.0195086941155,356.1827434450164L514.409721656472,356.62352259522686L515.4213848922113,356.9481227779559L516.042835165594,357.18558611605465L516.6035856448324,357.086492093501L517.476506493956,357.32674825059684L518.025695107643,357.52340672496655L518.1615470278708,357.6581834502721L518.875492225664,357.63030646556825L519.5460804276397,357.487958668514L520.092378574939,357.427039415195L520.3149444868016,357.57042857410767L521.225441398967,357.6995126661333L521.3844170502973,357.57412431217045L522.0232101220071,357.56274480663757L523.2372060048941,357.68291651975153L524.7749341232178,357.8002609689586L525.2142850141674,357.8358706316547L525.2547515435971,357.75489324073584L525.7981592245084,357.5257502421459L525.9108874136336,357.6772483361965L525.9426825438998,357.5761286762226L526.1016581952301,357.5387104653229L526.4658569600964,357.19687037641916L527.6654005110443,357.06381006892946L528.1336560658722,357.28152370292935L529.2696093562881,357.3701985373953L529.8505931002412,357.4681185977593L529.9401975582638,357.4038715139904L530.0615971465526,357.5020040740715L530.4229054450308,357.6470719389499L531.2091123025197,357.6368390905796L531.7178343867771,357.6435088961719L531.7438485842675,357.69593752984537L533.1254915176486,357.75142877117304L533.6978038624383,357.79722269499933L533.8076415851757,357.3442136533141L533.9348221062401,356.99472950816414L534.0937977575704,357.0911487368818L534.7412622284436,356.92695535943534L534.8077429553636,353.7723031181771L535.117022858861,354.71113143011297L535.4667692917881,355.39537143309644L536.0564244349047,355.99246051021305L536.1922763551325,356.2147133705934L536.8541931579448,356.41703922579285L537.050744872317,356.80136113780657L537.1692539942178,356.8774763916726L537.3137773136092,355.7237516271621L537.9121038558893,353.740881998718L538.8399435663815,354.5842057592992L539.3717893817417,354.48352134071996L540.1146392434131,355.2805740244531L541.0540408194566,355.52157296898696L541.230359269114,355.979196763982L541.4211300507106,356.4536154317804L543.1033814884257,356.84163116140047L543.3779757952691,357.08398714746426L544.7104808000571,356.53428764458357L544.9995274388398,356.6557381442217L545.0081988380033,356.64394869351673L545.2365456826416,356.9854786682967L545.5920730483442,357.1961579468157L546.3233610444644,357.3469921024193L546.4967890277339,357.1247370788352L546.8205212631705,357.09888645408967L547.9333508224837,356.9762761015307L548.2888781881863,357.23727130895816L548.5605820286421,356.95554386092834L550.6850748236945,356.21636767156934L551.1706731768494,356.603750239277L551.2400443701572,356.9209817561754L551.711190391373,356.7082758550446L552.5147400471886,357.01200600902024L553.1159570558566,357.2641900117287L554.5149427875647,357.4718379296899L556.8966870911337,357.616360121144L557.0556627424642,357.6614545401879L557.0787864735668,357.7545354009652L557.2608858559998,357.7558451745745L557.6164132217025,357.8433753078311L557.8765551966069,357.76003717097717L558.4170724111304,357.7342343309113L558.541362465807,357.79949079031405L558.8332995709774,357.74904829151956L558.8622042348557,357.79192330245775L559.1859364702923,357.8416447467758L560.1079952480089,357.81328637192763L560.3392325590349,357.8567668997054L560.7814739163724,357.70265623884876L561.5069809797169,357.4995519659078L561.9781270009327,357.5910158954104L562.4088064927188,357.6205590569915L563.0331472324893,357.6982213887777L564.3338571070112,357.6244146210004L564.5101755566686,357.1868507355872L565.2732586830548,357.2840330220986L565.3455203427504,357.23917491712336L566.6866967467021,357.45526570611565L567.2098711628986,357.3545825574077L567.8775688984865,357.3271476596833L567.9787352220604,357.2016893180827L568.001858953163,357.3558348931863L568.4094147138466,357.5402180832499L568.9181367981041,357.54508412459046L571.1640291814452,356.8042420552391L572.7162096317081,356.9955957989618L573.184465186536,357.0487797611969L573.3607836361933,357.1033640319319L573.7018586699569,357.34100887146934L574.4938464602213,357.5130656434765L575.3609863765694,357.5490402654752L576.3466354148181,357.67597605684256L577.748511612914,357.7204303639665L578.8353269747367,357.71791436937684L579.0665642857629,357.48870331347933L579.714028756636,357.65607536228754L579.8383188113125,357.1874050076258L580.4713309502465,357.24321701002117L580.6823349965579,356.94076505317196L581.7951645558711,357.1735969352903L582.2113917157182,357.2909780120544L582.3934910981512,357.5008934895441L582.6478521402798,357.65747089573347L583.17969795564,357.36944269316723L583.2028216867426,357.5035326813824L583.3184403422557,357.65433673865004L583.5612395188331,357.6804283161084L584.4139271032419,357.40572103713725L584.6336025487167,357.2230922906438L585.1567769649132,357.39549154680094L585.6597181163951,357.5428955769238L587.4807119407258,357.65704955746435L587.6396875920562,357.55345888105734L588.6079938319782,357.67022649159L588.8305597438407,357.58356993352606L590.5850728412514,357.72687555765054L590.7411580261941,357.16552517238097L592.0881153629213,356.73798824839514L592.6228516446691,356.1205320837475L593.0968881322726,356.50998713616L594.0391801747041,356.8758565220689L594.1056609016241,356.9991609303756L594.5421213261859,357.0507405903474L594.5710259900642,357.16366323102915L594.9438961540937,356.1372611419975L595.9324356587305,356.38487968623616L596.022040116753,356.7717364273146L597.189788537435,357.0786429663835L597.2620501971306,357.2729384253265L598.2448087689917,356.3162658038268L598.8980541726404,356.0122830440191L599.0628107567466,356.2693363693351L599.704494294844,356.6898109447757L600.0860358580371,356.9995141614171L600.4820297531694,357.26077683851673L600.487810685945,357.46384056460147L600.9184901777312,357.2140891669904L601.7856300940791,356.9805729982658L601.8665631529382,356.5692581802161L601.9532771445731,356.90503512805265L602.4417659641158,357.12953808545853L602.4619992288306,357.1503647512268L603.670214178942,357.2689526582288L604.0488652757473,357.1322674481763L604.6674250827422,356.92385296653976L604.8466339987873,357.00785936484925L606.0837536127772,357.2410581093666L606.1675771380241,357.1738511361389L606.3641288523962,357.2709903474629L606.8555081383269,357.3877662525088L606.8815223358173,357.4230753309784L607.2370497015199,357.47922526173784L607.4393823486677,357.2568329530747L607.76889551688,357.46063393814774L607.9307616345983,356.6575597554297L608.5695547063079,356.9210064478316L608.8788346098053,356.7205878458173L610.4714815894978,356.90826174362724L610.5813193122352,357.19535826171557L611.7548486656926,357.373209491805L612.1624044263762,357.54271544458106L612.815649830025,355.4658425295369L613.298357716792,355.7304828272768L614.3678302802879,356.16448771322547L614.5123535996792,356.61034379576455L615.1540371377766,356.91767756095965L615.680102020361,357.0340591739077L615.9431344616532,357.18953360988695L616.7062175880395,357.40959508643635L618.5850207401267,357.561995578569L619.495517652292,357.58609482364346L619.5302032489459,357.4611031421452L619.76433102636,357.6326950846496L619.796126156626,357.7586929078354L620.012911135713,356.44915401737205L620.1805581862069,356.6678734128191L620.744199131833,356.936769764685" fill="none"></path></g></g></g></g><g opacity="0.2"><g><g><g><path style="fill: none;" stroke="rgb(0, 119, 187)" stroke-width="2px" d="M43.35908583155191,244.07288471986956L43.99787890326157,300.5514645000024L44.26091134455378,328.6369748335309L44.55573891611208,328.4149667233652L44.977747008734745,303.82257631217664L45.61943054683223,333.7359878986229L45.92581998394184,329.2946972844966L46.86811202637328,342.94147093276723L47.01841627854026,330.20804676352975L48.26131682530564,337.5823826844945L48.31912615306217,334.7611155359882L49.88864940165197,301.46708927166617L50.437838015339,309.1018798711139L50.507209208646834,294.1842721691163L51.56511990659133,-116.94450241820967L52.02181359586792,306.5937148179517L52.09118478917575,266.5162033096672L52.961215171911526,339.9625083735426L54.56542401715522,153.9261063825196L54.73885200042482,-1078.934438392508L55.84590062696236,-2582.0513603506074L57.3662859469591,289.10798852177163L57.64666118657827,-71.50495737510336L57.86344616566526,286.3209011382067L57.95883155646353,331.6418421450892L58.1524928044479,108.79120539122948L58.418415712127945,64.76418888011331L59.03408505273498,236.44247678740768L59.51101200672636,319.54931165726475L59.609287863912456,329.0551081309048L59.941691498512505,343.98160878476335L59.98793896071773,-2284.015282238654L60.14980507843601,-28.550361004413574L60.80305048208481,164.63769376594152L60.96202613341525,343.4973962876857L61.64128573455448,173.4743056871426L62.10665082299455,343.65907471989465L62.453506789533726,343.7509276956773L62.86106255021726,341.12553049860054L64.14732009280006,350.5644954986633L64.22825315165919,344.71262840249744L64.74853710146796,292.689759218384L64.99711721082105,349.4095091026708L65.73707660610462,-1317.1461516551192L66.6186688543917,261.01710144506734L67.36151871606312,350.724430099583L67.37886151439007,349.4322477559232L67.56385136321096,348.3227630145855L67.68236048511186,337.437452421066L67.78352680868578,-162.41752364868367L67.95117385917972,334.37919885223533L68.02054505248755,278.7158488653181L69.1073604143103,25.19939231695926L69.39640705309297,326.8800156935704L69.5091352422182,352.99602181137817L69.61319203217995,241.8864275736615L69.7056869565904,341.7274469899464L70.72602159149315,298.1427507245811L70.84453071339404,351.5864717297966L71.08732988997146,-419.17558205151204L71.25208647407757,302.75576128378043L71.31856720099758,319.59159347899026L71.41106212540804,313.00025375911076L71.49777611704282,336.3837316597792L71.74057529362025,323.16510931318794L71.9082223441142,322.2427778856079L72.11055499126203,-115.1622044105033L72.84473345376998,337.4885852150836L73.0557375000813,339.40668376958934L73.42282673133528,329.73742389247377L73.60203564738052,333.36340411261233L74.51542302593369,-26.165411023315496L74.79001733277721,351.16382017142956L76.81623427064358,262.6162812151719L76.95497665725924,81.19368907433882L77.41745127931148,209.44966776359868L77.55908413231498,265.22802833564793L78.36263378813075,351.50807614439367L78.48981430919511,350.50062526387126L78.71527068744558,174.2604184514177L79.95528076782315,308.47822803821066L81.10857685656592,356.0331262833301L81.35137603314334,-138.0123083806287L81.73869852911209,324.87272734712855L81.81963158797124,328.89109563466894L82.08555449565127,355.91377648006596L82.1000068275904,323.3695699635828L82.5480291177035,348.1273136984356L82.68388103793136,338.5097281517756L83.03651793724619,356.0255181161732L83.25330291633317,-34988.590609434556L83.66374914340453,356.4700928746681L83.88631505526718,355.3337107740918L84.98469228264125,354.1425190989619L85.27373892142388,354.810943821205L85.5801283585335,353.7826206990604L85.61770442157525,353.65131238592147L86.19868816552838,354.4234081721643L86.21314049746749,357.06407207903743L87.08317088020328,354.3581824170948L87.77399234689382,350.7572295763012L89.59787663761233,336.7997542244322L91.31192320559344,335.80465541224237L91.40441813000389,333.1371846121015L91.45355605859694,340.0802056510797L91.52292725190478,339.5258217859287L91.63854590741784,271.93159455565467L95.03195344672612,215.15326050388296L95.05507717782874,340.8337338740291L95.07820090893135,305.0125560371544L95.85284590086886,357.4242827019821L96.07252134634366,318.57703797623907L96.87607100215942,343.01654551447996L96.89341380048639,330.7187466893564L96.98012779212118,342.6751894901306L97.88773423789871,255.49777550338794L98.17678087668135,318.41541663624383L98.49473217934226,351.3231259184082L98.66237922983619,354.8852445095664L99.02079706192669,353.35645671016937L99.15086804937889,240.33725386594713L99.35609116291455,316.8768318549711L100.0035556337877,355.3192366385549L100.46024932306429,357.10234233316555L102.24944801712887,256.4437397490365L102.33038107598802,321.3585840567185L102.89402202161418,356.7960760858609L103.26111125286815,347.3398189667546L103.45766296724035,346.67012226357593L103.50391042944557,338.7082747205137L103.72647634130821,353.10413347416875L104.12536070282827,340.91727825354894L104.25254122389264,354.2511374551482L105.30756145544932,292.5019258356113L106.42617194753817,337.8834349644016L106.71232811993298,357.2489172511519L108.27317996935929,350.14127595673006L109.33976206646727,357.6624775041953L109.4409283900412,324.0177412230483L110.30806830638915,357.4474117652247L110.57977214684485,339.0726590571404L113.1176016353565,352.63399924529386L113.3806340766487,352.46374900492555L114.10036020721749,342.98568213547617L114.21597886273055,340.6161873524385L114.41831150987841,355.51787241387683L114.73626281253934,346.46482873853546L114.88945753109414,340.67108991173706L115.23920396402114,343.369306548089L116.19883880477954,346.76644438425626L116.79138441428397,353.1891295071787L117.60071500287539,351.6689401729673L118.89564394462165,356.9472216343525L119.67317940294697,342.4103756532202L119.80903132317484,355.2098303258617L120.16455868887748,354.555127465282L120.73687103366713,337.7297141792601L120.78022802948453,352.02209791350185L121.58666815168813,356.0480032128299L122.98565388339614,343.4367475650057L123.10416300529704,342.33310134210086L123.28048145495445,343.0827355402455L123.604213690391,357.36893222068414L123.88169846362236,339.72507361142317L125.88190120399828,348.00390300158074L126.3964042210314,310.77700236041466L126.43108981768532,355.5544328401665L127.37338186011675,340.4448267524747L127.89366580992552,345.61522187640503L128.1104507890125,352.89520367887616L128.26942644034298,355.67252283657007L128.3156739025482,355.80881874228163L128.43418302444908,355.0121157921778L128.87931484817437,318.82721269790704L129.0036049028509,356.97755250252567L129.5267793190475,353.4783599207076L129.59904097874315,351.0509706945009L130.234943584065,353.61970470916236L131.39980153835907,338.7361306832065L132.02414227812957,352.13421274797594L132.13976093364263,344.7668601282861L132.16288466474526,349.46418161393217L133.34508541736628,347.80948806200684L133.4433612745524,353.1616328895951L134.16597787150903,352.09096203780183L134.91171819956824,354.51101659374257L135.0128845231422,356.47209802877325L135.07936525006218,351.96537344091604L135.1892029727996,353.86387971085315L137.4929046838973,355.67584845801275L137.53048074693905,355.19709456427006L138.84564295340013,345.2194007198643L139.21851311742972,347.6146969854962L140.06541976906288,345.2981191281515L140.36024734062119,343.8034609281111L140.53656579027862,352.70854740321346L142.27084562297452,355.83293558477874L143.678502753846,356.4887267656803L143.72475021605123,331.9749768906788L144.22480090114522,342.968802990441L144.44736681300785,348.668417746783L145.19888807384274,357.1102335475653L145.4127825865419,347.0565576281177L145.85502394387936,356.458770565159L146.4591314189351,340.3431388033065L146.56029774250902,357.639122433449L148.15872565497708,354.0840764026239L148.7165856678276,345.2942293013037L149.2860075462294,357.17789002461905L149.32069314288333,329.45271509830354L149.5895065169512,345.8060509212095L149.78894869771122,339.8956819375136L149.8294152271408,357.26065641777956L149.93636248349037,356.8703587230076L150.1271332650869,356.54203074299784L151.54924272789754,356.0691455929776L151.76602770698454,356.4262128907572L152.30943538789592,355.22435063892425L153.60725479603,357.13753894821286L153.61014526241783,356.92698223473036L153.6708450565622,346.7390392821327L153.89919190120048,356.4762676494473L154.8183602125293,356.71324263033915L154.9166360697154,356.80909552438885L155.45426281785114,339.04669217504494L157.08159539419745,353.7063988157315L157.44001322628793,347.41699924363985L158.59041884864288,334.3562880827507L158.95461761350901,348.1456864765297L158.99219367655078,349.8168788385966L159.23210238674037,353.52077355827925L159.4749015633178,355.4664306502326L159.8333193954083,357.37478427752797L160.05588530727093,339.4984460695033L160.99528688331452,337.4191761959801L161.3739379801198,355.923321164733L162.24396836285558,355.4357685632614L162.5301245352504,357.2686499573783L162.71222391768347,345.65428638397543L163.9609053972245,355.8756600810576L164.08808591828887,357.11784307905816L164.43205141844024,357.3258371497615L165.38590532642297,350.44243234596786L165.59979983912214,357.58840807078366L166.52474908322662,343.89867730694846L166.80223385645795,356.6728025572471L167.3427510709815,333.9313557744092L167.61156444504937,357.1050585162178L167.7994447602581,354.47662273300017L169.18975909280263,351.7867218294378L170.5714020261837,356.3558847289943L170.65233508504284,357.2821033596991L170.84310586663938,356.6886398743328L171.1726190348516,336.2536067506856L171.3431565517334,353.86964266606213L171.8894546990326,336.11144881798265L171.9270307620743,345.2323656899018L171.9443735604013,348.1818854587318L172.0339780184239,353.4501916300227L172.6554282918066,357.3759806952396L177.0373753357516,348.69248043563636L178.1877809581065,349.85442032740985L178.6878316432005,346.5003090305192L178.69939350875183,318.44655204285357L178.74564097095706,356.8002920939585L178.829464496204,356.45073651527633L179.02023527780054,348.1265421139605L179.38443404266667,357.54083152346504L180.312273753159,352.13290970215945L181.39330818220608,354.0840915152687L181.94249679589313,320.34013620834537L182.11014384638707,357.5564590476555L182.50902820790714,356.7317306423497L182.87033650638543,357.6008874946331L183.23164480486375,357.6264255029585L183.4686630486655,355.15975037943036L184.76359199041178,347.60287721809647L185.19427148219793,357.2465781495767L185.68276030174061,357.7900221390907L186.46029576006592,357.78763376399655L187.93154315146964,357.5931553827993L189.02413944606803,357.87992904701133L189.19178649656197,357.76652428533595L192.37129952317113,357.81604207286625L192.75573155275202,357.51631550774283L192.77307435107898,357.0075042951923L192.87424067465292,357.44543809579613L192.99564026294163,355.82903778181293L193.61998100271217,357.0006021194342L193.71825685989828,348.91811222218354L193.97550836841484,357.1773370487486L194.0101939650687,357.9090195238745L194.11136028864266,357.39391730561357L194.88311481419234,356.8252453793645L195.75314519692813,357.8905027033848L196.08554883152817,357.1900684024855L196.5827090502343,350.82041050657307L197.6492911473423,357.4761969456735L198.85750609745378,357.891689623219L200.0628305811774,358.03851072513936L200.45015307714615,357.4675046561516L200.95309422862795,356.9735512199227L201.85781020801767,357.56419499012503L202.0572523887777,357.99928942387936L202.6902645277117,357.9917512576535L203.0718060909048,357.5168254545552L203.3232766666457,340.05199538082604L203.44756672132226,356.49144515265994L203.70481822983882,357.5647951405359L204.46790135622498,358.0891168067543L205.36105547006338,357.70586837365477L205.9102440837504,357.95653564685125L207.21384442466015,356.4318150642176L207.29188701713147,357.9440508443696L207.6011669206289,357.9951684470307L208.60126829081688,357.601824426135L208.7139964799421,357.9942932517323L210.00603495530055,357.3985569925096L210.13899640914056,353.0041587112045L210.79224181278934,357.62743122847877L211.44837768282596,357.81038768731713L211.47150141392856,357.9764275605924L212.07849935537214,356.5754827921135L212.1941180108852,358.2005905738566L212.80111595232876,355.636757503314L213.35608549879146,357.4658441543066L214.59320511278122,357.20276375874215L214.78975682715338,350.9641527482037L216.08468576889967,357.4043089280818L216.89112589110323,355.8618330605742L217.32758631566506,357.55384781352535L218.85086210204963,355.43770990842194L220.12266731269327,354.1162810288518L221.1169877501056,357.5363404442427L221.5852433049335,356.4041259703109L221.83382341428657,357.6354419797008L222.01303233033178,352.4818598305102L222.85704851557713,357.06564725740884L222.97844810386584,352.756211005663L224.23291051618253,357.8485095436695L224.66069954158087,357.8092229117055L226.39497937427677,358.1069913923153L226.55106455921938,357.883958403451L226.7389448744281,357.10791291700036L227.3690665469743,358.0630976863329L227.90669329511002,358.0031975118396L229.08600358134325,353.03289834382116L230.2277378045347,356.7124533094962L230.32601366172082,353.2409982030379L231.4735288176879,357.71666216039233L231.73945172536796,356.6109828144946L231.82038478422712,356.34412352309306L232.51120625091764,357.86392564825644L232.62104397365502,356.79289875724504L232.9650094738064,356.9853423362667L233.01414740239943,357.63055309158926L233.2309323814864,358.0314919248916L233.29741310840643,358.099132659607L233.38701756642908,358.1767686115933L234.08940089867087,357.9091111967579L234.12986742810048,356.9982977559522L234.26860981471614,358.01863124784546L235.30917771433366,357.7558809428782L235.3438633109876,357.3685455888552L235.39011077319282,358.12619045951016L235.56931968923806,358.0101113894025L237.12728107227656,350.59783903059355L237.79208834147664,356.2487854035061L237.82677393813057,357.23153130777206L238.72570898474459,357.78679081425446L238.91069883356548,357.8672745158854L239.18818360679683,353.2321123877037L239.74893408603515,357.8697652161785L240.47155068299176,354.78842765966743L240.52357907797267,355.5791191355148L240.90223017477794,356.0947768484203L240.99472509918837,356.0883779027435L241.59305164146846,356.5219640893015L242.28676357454682,358.2271364329179L242.77236192770167,356.6888356040725L243.42560733135048,358.0091731460392L243.62504951211048,354.22582503453077L243.94589128115925,323.2954206115671L244.04705760473314,356.8667898299635L245.55010012640292,357.37815387256904L246.02702708039433,354.07587443446596L246.68605341681877,357.76878131685413L246.70050574875788,356.9682272660547L247.51561727012495,357.92642152443943L247.73529271559977,351.5126544361703L247.75552598031456,347.8006345709406L248.11105334601723,321.8660767434865L248.33650972426767,358.0653833689068L248.47236164449552,357.77795369522005L248.61688496388686,358.1795851520522L249.88290924175487,358.0246007162958L251.6027367425116,357.85606644327794L252.35714846973434,356.47285093234024L254.01627617634674,357.654708817662L254.24751348737286,353.806041940102L254.35735121011027,358.0436403660781L254.96723961794166,357.44393134412195L255.2909718533782,357.8893390297369L256.08006917725487,358.13639411845895L256.3026350891175,357.5410037446461L256.3228683538323,357.8654587421101L256.6523815220445,356.4055417312697L257.10329427854543,357.6507945377154L258.7335173212796,358.07589528907687L259.4532434518484,357.766840706336L259.75674242257014,350.77543191734594L259.8607992125319,356.96478063850486L260.0313367294136,358.01701773688023L260.7163772633285,355.0939782602725L260.875352914659,355.43138358739924L261.0719046290312,357.1901179383767L262.9622696466697,357.08892975597547L263.8640951596716,356.8789477427902L264.62139735328213,357.8662566162902L265.25440949221615,357.1927521563208L266.8326041399694,356.8230313769044L266.98001792574854,357.9928623518915L267.5494398041504,356.6701503930373L267.9656669639974,357.5217574766736L268.36744179190526,347.43800917824785L268.77210708620095,357.9012099072617L269.12763445190365,357.01419415928103L269.3328575654393,357.4617468434398L269.3675431620932,357.95469250764455L269.81556545220633,357.6261576733094L271.17408465448483,357.5371723218735L271.51515968824833,356.2255442548148L271.6654639404153,357.5456942792949L272.60197505007113,357.5706420024081L273.5009100966851,357.525928619107L275.2583136604836,357.60402667431583L275.3161229882401,357.5510671393605L278.5592262753815,356.93458431484976L278.8656157124911,357.5780074751827L281.065260633627,357.605787349907L281.8341246927889,357.7955986525396L283.0712443067787,354.903352606479L283.49903333217696,357.6790591715108L284.86044300084325,353.33926817571194L285.17550383711637,357.44622636714985L285.42119348008157,356.11905993000994L285.5657167994729,357.8241530503088L286.26520966532695,357.77657440401174L287.8289519811411,357.8752312184125L287.93300877110283,353.77183236966675L288.71054422942814,357.9434916240383L289.5574508810613,358.053400956915L290.0921871628092,351.62017292765324L290.60958064623014,356.7935512246936L291.8756049240981,358.0358514506401L292.3958888739069,358.16037848917915L292.4508077352756,357.5813588615858L293.1358482691905,357.9038841632196L293.73995574424623,357.36767188907896L293.81799833671755,357.7991042089092L293.94806932416975,357.73998695337457L295.0522274843195,358.2275236288472L296.1130286486518,357.95388196088214L296.4194180857614,358.1844537194287L296.7518217203614,358.0571220521333L297.2952294012728,357.93229181615845L297.66231863252676,357.80548541821815L298.624843939673,357.9483438587387L299.41972219632527,357.82202505349034L302.0818417395135,352.65396388863803L302.922967458371,357.29556494803575L303.2033426979902,357.79019525233764L303.29294715601276,358.0584026388805L304.4635860430825,355.56953519995096L305.1255028458948,357.8508971316467L305.1717503081,357.8595398852774L305.39720668635044,357.98596676167824L305.66602006041836,350.28346495431396L306.9002492080203,358.15139929554147L307.81652705296125,356.4883128471317L308.14314975478567,354.5840568455498L308.5564864482448,358.13151178965506L309.1172369274832,357.1989070957537L309.30800770907973,357.8672991788821L309.31089817546757,357.0255285379162L309.3455837721215,357.23357655236543L310.74745997021734,358.04157137679107L310.95557355014085,358.02813739002085L312.49330166846454,358.1102002580822L313.5338695680821,358.0095504111768L313.66105008914644,358.04225950063585L313.68417382024904,357.1346130772144L314.3721048205517,357.20693652788384L314.3952285516543,352.7699517581324L314.834579442604,358.0874421892793L315.7190621572789,347.511700113372L316.88102964518515,357.85380558112416L317.4909180530165,352.10057074131134L317.933159410354,358.091738352116L319.2367597512637,354.6816601826708L319.4969017261681,357.79403764227266L320.5663742896639,357.7479219314748L322.6908670847164,358.01925729440285L323.06951818152163,358.1175300219861L325.6333618675237,356.65720662268217L327.78386886006666,357.65748692057826L328.95739821352424,358.1487076574184L329.0065361421173,356.63084607718L329.16840225983555,356.96841008707696L329.7956334659939,357.4818618261149L330.0239803106322,357.33683726607984L332.39416274864993,356.0111967862669L332.7381282488013,358.0060930001252L332.9462418287248,357.0908386719191L333.60237769876136,357.86357260008253L334.0012620602814,357.98557050078574L334.4001464218015,352.8734318150939L334.8799638421807,357.03362702643705L335.09674882126774,355.69560530249123L335.5014141155634,358.13815227527596L336.03904086369914,358.0060734533884L336.44659662438266,356.7463521261732L337.94674867966467,357.9919393785963L337.96120101160375,357.53874865468305L338.1953287890177,357.81667118917966L338.95263098262825,358.0323430344124L339.8110994998127,345.57285609554185L340.2359980588232,355.8659686777975L341.0540000465781,356.4727281421014L341.5424888661208,357.6964419139485L341.8402069040669,358.06074404933196L342.4529857782861,357.85311585680824L343.0224076566879,357.35275339980603L344.2450749387385,358.1392492801212L344.26530820345334,357.44930367944295L344.4560789850499,357.42889468236274L344.59771183805344,355.81604909331907L346.0573973639058,357.37679992652534L346.3753486665667,341.09803723938245L347.01414173827635,358.17223506741334L347.66738714192513,357.41778195585096L347.8755007218486,356.12425070369574L347.9246386504417,352.80667842351465L348.2396994867148,358.24362317393343L348.4593749321896,357.9955582798018L349.6502470839741,357.56000973206164L350.0288981807794,358.15917690273307L350.0924884413115,358.2580631289182L350.43356347507506,358.1347955364779L351.64755935796217,358.2583962433562L351.83833013955876,358.1705001699011L352.12448631195355,358.08252632929475L352.15628144221967,358.2614768156252L352.2690096313449,358.25722877842844L352.7777317156024,356.4835672667733L353.74025702274855,357.8414261735974L354.19406024563733,353.15910781853L354.3617072961313,351.59267798925237L354.44264035499043,357.6764726003773L354.68543953156785,357.97860740217834L358.1193136003057,357.81635398106266L358.3043034491266,357.3630176142828L359.15699103353546,357.87225103634677L360.3565345844834,358.0086865765992L360.68026681991995,356.2752495335943L360.7438570804522,357.6953012241145L361.77286311451843,357.46991806156365L362.05034788774975,357.9284588453892L363.411757556416,354.46221660436487L363.5331571447048,358.1313019705226L364.261554674437,358.163987420237L364.40029706105264,354.48245537429347L364.4870110526874,341.8012017340151L365.25298464546154,356.5669321836364L366.2791002131399,355.72209797868624L367.33412044469657,348.0426635770728L367.6087147515401,358.25395485744843L367.6809764112358,354.8101373936878L367.92377558781317,357.2438449647991L367.9671325836306,357.78314048084684L368.27352202074013,357.08163706527836L368.276412487128,357.2587332287825L369.1291000715368,358.18331022221093L370.5916760637771,358.1791508209382L372.60922160248,358.23372632003975L372.7566353882591,358.19744168639863L373.2162195439235,356.24379718123987L373.2451242078018,355.52201348844403L373.8376698173062,355.51299690675296L374.3897488973811,354.25180031254007L374.54583408232367,357.64298827946806L374.59208154452887,358.1732976227749L376.09223359981087,357.39755651443545L376.1037954653621,358.0476566039025L376.29167578057087,355.9893107380574L376.890002322851,355.15396979280246L376.9709353817101,356.2868430311181L378.404606710072,358.1078437612232L378.4074971764599,358.1716229265881L378.6820914833034,358.2044288445464L379.12144237425304,358.12504171484636L379.6648500551644,357.24585242778056L379.6764119207157,355.1158813102073L381.29218263151074,357.54700005378334L381.57544833751774,358.09810305820696L383.0466957289214,358.17889187259163L384.88214188519123,357.9064066105616L385.3908639694487,356.9234505985536L385.61342988131133,357.44737482320414L386.69157384397056,356.6350477072753L387.2060768610037,358.295088144408L388.0876691092908,358.0872663735975L390.31332822791717,357.90561503331685L390.5069894759016,358.1614589514505L390.9896973626686,358.02445809071077L392.3106405019053,357.9772067801016L392.38290216160095,358.1584116020747L392.77311512395755,357.7032317418855L394.05070126737684,358.24369577235024L394.31662417505686,358.226309501005L395.2300115536101,358.1012945549273L396.6289972853181,354.83754375519845L396.9989769829599,357.91692099703135L397.1579526342903,357.28652086972704L397.90658342873746,358.2028334503889L398.996289256948,357.26944011781256L399.49344947565413,357.7423268945411L400.9964919973239,358.0766182297266L401.49654268241795,358.0044057625422L401.5919280732162,358.22526213699996L402.8059239561033,358.2293327252474L404.2049096878113,358.15021186408126L404.28006181389486,357.21030077052984L405.3032869151854,358.200556596643L406.25425035678035,357.61586748397445L406.9306194915317,357.86620262006977L407.2543517269683,357.20965722373967L408.92215083274414,354.65264432449123L409.33548752620334,358.18715783335483L409.73148142133556,350.7133861146152L411.00617709836706,358.2481990387662L411.5091182498488,356.486145441993L413.9342195492353,357.78769515911597L414.0180430744823,358.2175325570588L414.5527793562302,357.9927234782304L414.69152174284585,357.888726023083L414.92564952025975,356.8711949560187L415.29851968428943,352.84629202384536L416.34775898307043,356.87539186341246L416.405568310827,354.8760942229485L416.41713017637824,357.88002413073474L416.47782997052263,353.93231312477695L417.02990905059744,356.96687552393837L417.4143410801784,357.9116728425224L418.0907102149298,358.1296841041771L419.28736329949,357.9033533315717L420.1747364805527,356.89865263755223L420.2787932705145,356.63758369302826L420.3510549302101,357.7638181249058L421.3106897709685,357.52224617132924L421.81941185522595,357.9697853170771L421.9090163132486,357.7286284364873L422.9120081498244,358.09977311040393L423.9756997805445,358.19226479220777L424.20693709157064,355.32860102097385L424.5046551295168,354.6589563724605L424.6607403144594,357.8785993441686L426.0828497772701,358.1272912162794L427.0020180885989,357.13001526493827L427.6032350972668,355.77127935244687L428.898164039013,357.61056903269457L429.5832045729279,356.36536035727056L432.27711924638226,357.52839140298687L432.7222510701075,357.7157451167113L432.88122672143794,353.5082586092197L432.9766121122363,358.0996468306135L433.16160196105716,358.1374982073564L433.31768714599974,354.9497904055187L433.3552632090415,358.03527339197734L433.9738230160364,357.8437671642532L437.3238735595273,356.8477048684842L437.96555709762475,358.15917472504293L438.5898978373953,357.9942820746721L438.8355874803606,336.5809869369801L439.93974564051024,357.37262075549944L440.2403541448442,354.953480199721L441.27514111168614,340.6207815964513L441.460130960507,358.0266439406225L441.7549585320653,356.355009664882L441.91104371700794,357.811237091418L441.9688530447645,357.218126811649L442.14228102803406,357.8143290440857L442.78974549890717,357.55346406779177L444.0355365120604,357.6815405838243L444.64253445350397,356.2388876706652L444.6685486509944,357.61344106489605L446.82772704270076,349.4243052215006L447.6630718287827,357.6773543287461L447.76134768596876,358.0995679090241L448.007037328934,357.0161862997199L448.307645833268,358.0045576236324L448.3365504971462,356.8511539098593L448.423264488781,357.95170880979L448.6920778628489,356.99677673122454L449.18056668239154,356.86027690975743L449.80201695577426,357.3468313420312L451.0911649647449,357.0542307037677L451.11717916223535,358.2199376583874L451.4409113976719,358.0531271189401L451.5969965826145,357.609315260397L452.07103307021805,357.1101440261348L452.13751379713807,355.85939761588855L452.34273691067375,357.37738365242996L454.420982243521,349.6547058870669L454.55394369736103,357.88658669178096L454.9094710630636,357.8809492554828L456.2564283997909,357.6882411527031L456.29400446283256,358.0672869849298L456.94435940009356,358.2198689693179L457.3519151607771,358.10855416047673L458.56013011088857,332.00170780092697L459.57179334662777,357.8815324041683L460.50541398989577,356.7050689983901L461.06616446913415,358.0846630106365L461.06905493552193,357.56437135678857L461.1615498599324,358.2346450035477L464.0086592519415,358.2720361530301L464.3150486890511,357.90717850988347L464.66190465559026,357.20059519916526L465.1648458070721,356.855072177865L465.4481115130791,358.21935903562417L466.0551094545226,353.53368647365136L467.07255362303755,358.0559346337917L467.19684367771407,357.61219962409683L472.65693468431834,357.1143377850609L472.76099147428016,358.05156230427474L473.65992652089415,357.44912547617326L473.7639833108559,331.29085432846745L476.0040947614214,358.1237376720151L476.0069852278093,358.11349494583015L476.5475024423328,357.6621645465096L478.86276601898186,352.90321925774856L479.0737700652932,357.66762419933383L479.3281311074219,353.0822050265947L479.33680250658534,346.8139493039356L479.90044345221156,358.1008508308847L480.5305651247577,356.92033235618095L480.5392365239212,355.7256177556348L480.73578823829337,357.9689622026812L481.48441903274045,357.0712514248987L481.7272182093179,357.9115557719998L482.108759772511,357.3002577390863L482.31687335243447,357.4496241934509L482.5134250668067,356.99209275588345L482.5596725290119,356.36275972298154L482.8140335711406,357.9424462540627L482.90074756277545,358.2178558784505L484.2130193028487,358.0929139899411L484.38933775250604,358.0039316295495L484.7159604543305,358.1467196231062L485.0859401519723,357.94355677108166L485.39232958908184,357.3680818195686L485.6495810975984,357.5270413925278L485.9646419338715,358.20491764415095L487.49369865303174,358.2756201980748L488.389743233258,351.7907720182385L489.3031306118111,357.9147077029765L489.8494287591103,357.8868099181383L490.121132599566,356.783078056913L490.254094053406,357.4716180242034L490.37838410808257,339.57074160375953L490.5344692930252,357.7509244676609L493.5261020044256,345.59917308724135L494.54065570655274,358.20504761027235L494.54643663932836,357.502952361495L495.3933432909615,357.98241914702817L495.7286373919494,358.2163598971594L496.52929658137737,357.73628787119264L498.01499630472017,352.0483154136232L498.64511797726635,357.86310541995596L500.7291442428892,356.5446498482972L501.15982373467534,357.80154432382193L501.8217405374877,358.22972924851223L503.12823134478526,358.10049534264846L503.98091892919405,357.6486945097847L504.63416433284283,355.05429476395966L504.7584543875194,358.12154715187637L505.03304869436295,357.25843548869057L505.34521906424817,358.0790716206779L506.56499587991095,338.10631624959905L507.2153508171719,350.97713283088586L508.29927571260686,358.1013288207503L509.2733628853043,357.78665396086006L509.3253912802852,357.7880811087769L510.07113160834444,350.6598227035623L510.60008695731676,358.2547801692123L510.678129549788,357.58420077344664L513.3431395593641,356.39384895206564L513.5541436056753,357.4986331361325L513.6842145931275,356.84637663492646L513.7246811225572,355.8023421344026L513.7853809167015,357.542384452665L514.0195086941155,354.99879924325137L514.409721656472,358.26189037997125L515.4213848922113,358.1546555326281L516.042835165594,358.06823286332724L516.6035856448324,356.7181614813679L517.476506493956,358.2197758533868L518.025695107643,358.25438256366175L518.1615470278708,358.1591459952755L518.875492225664,357.526688239405L519.5460804276397,356.95885459267095L520.092378574939,357.20060370002795L520.3149444868016,358.1034033723302L521.225441398967,358.17931580064374L521.3844170502973,357.1080581663085L522.0232101220071,357.52044739927936L523.2372060048941,358.1295925100054L524.7749341232178,358.2364280726152L525.2142850141674,357.9682310760156L525.2547515435971,357.4539018065658L525.7981592245084,356.6740300398397L525.9108874136336,358.2403638933281L525.9426825438998,357.20026880801765L526.1016581952301,357.39962768141265L526.4658569600964,355.92625721577696L527.6654005110443,356.5692274165622L528.1336560658722,358.0907611727026L529.2696093562881,357.69980122399517L529.8505931002412,357.83208561458383L529.9401975582638,357.1650663158307L530.0615971465526,357.8667609483352L530.4229054450308,358.18628645557345L531.2091123025197,357.5988037862598L531.7178343867771,357.6683004377132L531.7438485842675,357.8908137719898L533.1254915176486,357.95768866818366L533.6978038624383,357.9674378458254L533.8076415851757,355.66038759271055L533.9348221062401,355.6957035346823L534.0937977575704,357.4495371907945L534.7412622284436,356.316651673455L534.8077429553636,342.0465202591608L535.117022858861,358.2007385518367L535.4667692917881,357.93867861399747L536.0564244349047,358.2118293440237L536.1922763551325,357.04082305917694L536.8541931579448,357.16908061210006L537.050744872317,358.22987843340496L537.1692539942178,357.16039535415587L537.3137773136092,351.43537844586814L537.9121038558893,346.370593002426L538.8399435663815,357.71882426561046L539.3717893817417,354.10927925656665L540.1146392434131,358.2432038111594L541.0540408194566,356.41736149866944L541.230359269114,357.6801757755672L541.4211300507106,358.2170206686914L543.1033814884257,358.2838783073468L543.3779757952691,357.98481977490894L544.7104808000571,354.4910649640648L544.9995274388398,357.10716735985795L545.0081988380033,356.6001275276887L545.2365456826416,358.25493914059206L545.5920730483442,357.9792488499901L546.3233610444644,357.90763981287046L546.4967890277339,356.29861934966414L546.8205212631705,357.00280016965814L547.9333508224837,356.52053573447205L548.2888781881863,358.207385570528L548.5605820286421,355.9083682522136L550.6850748236945,353.4688637224426L551.1706731768494,358.04364393434145L551.2400443701572,358.10012531898644L551.711190391373,355.91765203386035L552.5147400471886,358.14096526059024L553.1159570558566,358.20155319160705L554.5149427875647,358.24366132286656L556.8966870911337,358.1535463799451L557.0556627424642,357.82906964493566L557.0787864735668,358.10051520423195L557.2608858559998,357.7607135783675L557.6164132217025,358.1687231616339L557.8765551966069,357.45027088870876L558.4170724111304,357.6383256612326L558.541362465807,358.04204781866L558.8332995709774,357.5615544752456L558.8622042348557,357.95128890915277L559.1859364702923,358.0264584171655L560.1079952480089,357.70787882768053L560.3392325590349,358.01838320106816L560.7814739163724,357.1298298201929L561.5069809797169,356.74461721554235L561.9781270009327,357.9309855956371L562.4088064927188,357.7303704311704L563.0331472324893,357.9868908106999L564.3338571070112,357.3500762577528L564.5101755566686,355.56043402942856L565.2732586830548,357.6452577474335L565.3455203427504,357.07243818730956L566.6866967467021,358.25847109161555L567.2098711628986,356.9803451933421L567.8775688984865,357.2251726624814L567.9787352220604,356.7353630294916L568.001858953163,357.92879108743927L568.4094147138466,358.22556692178824L568.9181367981041,357.5631711084413L571.1640291814452,354.0505460616124L572.7162096317081,357.7068540539309L573.184465186536,357.2464635453538L573.3607836361933,357.306252736362L573.7018586699569,358.224330256165L574.4938464602213,358.1525974186731L575.3609863765694,357.6827572566779L576.3466354148181,358.14779399834003L577.748511612914,357.88566618478546L578.8353269747367,357.7085624649589L579.0665642857629,356.63673014344505L579.714028756636,358.27819410974456L579.8383188113125,355.4453661421851L580.4713309502465,357.45066916986804L580.6823349965579,355.8165568362041L581.7951645558711,358.03902864806975L582.2113917157182,357.7272812596491L582.3934910981512,358.2811453587043L582.6478521402798,358.23946616024864L583.17969795564,356.2988472987229L583.2028216867426,358.00194263757834L583.3184403422557,358.2148725741544L583.5612395188331,357.7774102172271L584.4139271032419,356.3846392643579L584.6336025487167,356.54426468575315L585.1567769649132,358.0362963291208L585.6597181163951,358.0907935756823L587.4807119407258,358.08135774928473L587.6396875920562,357.1684142913938L588.6079938319782,358.1042494967772L588.8305597438407,357.26146914223204L590.5850728412514,358.2595398586414L590.7411580261941,355.0789963818506L592.0881153629213,355.1488415686742L592.6228516446691,353.82545916986857L593.0968881322726,357.95758421776895L594.0391801747041,358.23578612629603L594.1056609016241,357.45748108955314L594.5421213261859,357.24246121326155L594.5710259900642,357.5833945558273L594.9438961540937,352.32214394314406L595.9324356587305,357.3052731431234L596.022040116753,358.20967563471936L597.189788537435,358.2194087814132L597.2620501971306,357.9951309802655L598.2448087689917,352.76033172013933L598.8980541726404,354.8823848613377L599.0628107567466,357.224798729472L599.704494294844,358.2527070082057L600.0860358580371,358.1506751742164L600.4820297531694,358.2318852798115L600.487810685945,358.2186246030675L600.9184901777312,356.28576793436036L601.7856300940791,356.1125978050821L601.8665631529382,355.0404087621821L601.9532771445731,358.15311170774714L602.4417659641158,357.96401134223123L602.4619992288306,357.22777707493157L603.670214178942,357.70974167104737L604.0488652757473,356.6242111013775L604.6674250827422,356.1491802706454L604.8466339987873,357.32010956233927L606.0837536127772,358.10785344276127L606.1675771380241,356.92404408470793L606.3641288523962,357.6320549631386L606.8555081383269,357.82182008824554L606.8815223358173,357.55431850944086L607.2370497015199,357.687933494938L607.4393823486677,356.43020493785514L607.76889551688,358.2181583543626L607.9307616345983,353.6725481706098L608.5695547063079,357.90023283279714L608.8788346098053,355.9756356836132L610.4714815894978,357.60584208076983L610.5813193122352,358.2624906025345L611.7548486656926,358.0342791583641L612.1624044263762,358.17276587282396L612.815649830025,347.7461450905993L613.298357716792,356.71414582076255L614.3678302802879,357.7776756855255L614.5123535996792,358.2675824421833L615.1540371377766,358.0600313674394L615.680102020361,357.4666474333561L615.9431344616532,357.7674291549421L616.7062175880395,358.2275594426669L618.5850207401267,358.12846533234506L619.495517652292,357.6756712628828L619.5302032489459,356.9965114203496L619.76433102636,358.2704990973546L619.796126156626,358.22702443929944L620.012911135713,351.581622669801L620.1805581862069,357.48084927891466L620.744199131833,357.9362524310542" fill="none"></path></g></g></g></g></g></g><g transform="translate(71, 374)" clip-path="url(#clip_1)"><clipPath id="clip_1"><rect width="1372" height="26"></rect></clipPath><g><g><line x1="42.65381203292225" y1="0" x2="42.65381203292225" y2="5" style="visibility: inherit;" fill="rgb(0, 0, 0)" stroke="rgb(204, 204, 204)" stroke-width="1px"></line><line x1="187.1771314242469" y1="0" x2="187.1771314242469" y2="5" style="visibility: inherit;" fill="rgb(0, 0, 0)" stroke="rgb(204, 204, 204)" stroke-width="1px"></line><line x1="331.70045081557157" y1="0" x2="331.70045081557157" y2="5" style="visibility: inherit;" fill="rgb(0, 0, 0)" stroke="rgb(204, 204, 204)" stroke-width="1px"></line><line x1="476.2237702068962" y1="0" x2="476.2237702068962" y2="5" style="visibility: inherit;" fill="rgb(0, 0, 0)" stroke="rgb(204, 204, 204)" stroke-width="1px"></line><line x1="620.7470895982209" y1="0" x2="620.7470895982209" y2="5" style="visibility: inherit;" fill="rgb(0, 0, 0)" stroke="rgb(204, 204, 204)" stroke-width="1px"></line><line x1="765.2704089895456" y1="0" x2="765.2704089895456" y2="5" style="visibility: inherit;" fill="rgb(0, 0, 0)" stroke="rgb(204, 204, 204)" stroke-width="1px"></line><line x1="909.7937283808702" y1="0" x2="909.7937283808702" y2="5" style="visibility: inherit;" fill="rgb(0, 0, 0)" stroke="rgb(204, 204, 204)" stroke-width="1px"></line><line x1="1054.3170477721949" y1="0" x2="1054.3170477721949" y2="5" style="visibility: inherit;" fill="rgb(0, 0, 0)" stroke="rgb(204, 204, 204)" stroke-width="1px"></line><line x1="1198.8403671635197" y1="0" x2="1198.8403671635197" y2="5" style="visibility: inherit;" fill="rgb(0, 0, 0)" stroke="rgb(204, 204, 204)" stroke-width="1px"></line><line x1="1343.3636865548442" y1="0" x2="1343.3636865548442" y2="5" style="visibility: inherit;" fill="rgb(0, 0, 0)" stroke="rgb(204, 204, 204)" stroke-width="1px"></line></g><g transform="translate(0, 8)"><text x="42.65381203292225" y="0" dx="0em" dy="0.95em" style="text-anchor: middle; visibility: inherit; font-family: Roboto, sans-serif; font-size: 12px; font-weight: 200;" fill="rgb(33, 33, 33)" stroke="none" stroke-width="1px">0</text><text x="187.1771314242469" y="0" dx="0em" dy="0.95em" style="text-anchor: middle; visibility: inherit; font-family: Roboto, sans-serif; font-size: 12px; font-weight: 200;" fill="rgb(33, 33, 33)" stroke="none" stroke-width="1px">50k</text><text x="331.70045081557157" y="0" dx="0em" dy="0.95em" style="text-anchor: middle; visibility: inherit; font-family: Roboto, sans-serif; font-size: 12px; font-weight: 200;" fill="rgb(33, 33, 33)" stroke="none" stroke-width="1px">100k</text><text x="476.2237702068962" y="0" dx="0em" dy="0.95em" style="text-anchor: middle; visibility: inherit; font-family: Roboto, sans-serif; font-size: 12px; font-weight: 200;" fill="rgb(33, 33, 33)" stroke="none" stroke-width="1px">150k</text><text x="620.7470895982209" y="0" dx="0em" dy="0.95em" style="text-anchor: middle; visibility: inherit; font-family: Roboto, sans-serif; font-size: 12px; font-weight: 200;" fill="rgb(33, 33, 33)" stroke="none" stroke-width="1px">200k</text><text x="765.2704089895456" y="0" dx="0em" dy="0.95em" style="text-anchor: middle; visibility: inherit; font-family: Roboto, sans-serif; font-size: 12px; font-weight: 200;" fill="rgb(33, 33, 33)" stroke="none" stroke-width="1px">250k</text><text x="909.7937283808702" y="0" dx="0em" dy="0.95em" style="text-anchor: middle; visibility: inherit; font-family: Roboto, sans-serif; font-size: 12px; font-weight: 200;" fill="rgb(33, 33, 33)" stroke="none" stroke-width="1px">300k</text><text x="1054.3170477721949" y="0" dx="0em" dy="0.95em" style="text-anchor: middle; visibility: inherit; font-family: Roboto, sans-serif; font-size: 12px; font-weight: 200;" fill="rgb(33, 33, 33)" stroke="none" stroke-width="1px">350k</text><text x="1198.8403671635197" y="0" dx="0em" dy="0.95em" style="text-anchor: middle; visibility: inherit; font-family: Roboto, sans-serif; font-size: 12px; font-weight: 200;" fill="rgb(33, 33, 33)" stroke="none" stroke-width="1px">400k</text><text x="1343.3636865548442" y="0" dx="0em" dy="0.95em" style="text-anchor: middle; visibility: inherit; font-family: Roboto, sans-serif; font-size: 12px; font-weight: 200;" fill="rgb(33, 33, 33)" stroke="none" stroke-width="1px">450k</text></g><line x1="0" y1="0" x2="1372.3125" y2="0" fill="rgb(0, 0, 0)" stroke="rgb(204, 204, 204)" stroke-width="1px"></line></g></g></g></g></svg>