<svg viewBox="0 0 1444 400" xmlns="http://www.w3.org/2000/svg"><g><g><g><g><g><line x1="61.40625" y1="356.4166748023647" x2="56.40625" y2="356.4166748023647" style="visibility: inherit;" fill="rgb(0, 0, 0)" stroke="rgb(204, 204, 204)" stroke-width="1px"></line><line x1="61.40625" y1="311.245686738687" x2="56.40625" y2="311.245686738687" style="visibility: inherit;" fill="rgb(0, 0, 0)" stroke="rgb(204, 204, 204)" stroke-width="1px"></line><line x1="61.40625" y1="266.07469867501095" x2="56.40625" y2="266.07469867501095" style="visibility: inherit;" fill="rgb(0, 0, 0)" stroke="rgb(204, 204, 204)" stroke-width="1px"></line><line x1="61.40625" y1="220.90371061133325" x2="56.40625" y2="220.90371061133325" style="visibility: inherit;" fill="rgb(0, 0, 0)" stroke="rgb(204, 204, 204)" stroke-width="1px"></line><line x1="61.40625" y1="175.73272254765715" x2="56.40625" y2="175.73272254765715" style="visibility: inherit;" fill="rgb(0, 0, 0)" stroke="rgb(204, 204, 204)" stroke-width="1px"></line><line x1="61.40625" y1="130.56173448397948" x2="56.40625" y2="130.56173448397948" style="visibility: inherit;" fill="rgb(0, 0, 0)" stroke="rgb(204, 204, 204)" stroke-width="1px"></line><line x1="61.40625" y1="85.39074642030181" x2="56.40625" y2="85.39074642030181" style="visibility: inherit;" fill="rgb(0, 0, 0)" stroke="rgb(204, 204, 204)" stroke-width="1px"></line><line x1="61.40625" y1="40.21975835662572" x2="56.40625" y2="40.21975835662572" style="visibility: inherit;" fill="rgb(0, 0, 0)" stroke="rgb(204, 204, 204)" stroke-width="1px"></line></g><g transform="translate(51.40625, 0)"><text x="0" y="356.4166748023647" dx="0em" dy="0.3em" style="text-anchor: end; visibility: inherit; font-family: Roboto, sans-serif; font-size: 12px; font-weight: 200;" fill="rgb(33, 33, 33)" stroke="none" stroke-width="1px">-10.3</text><text x="0" y="311.245686738687" dx="0em" dy="0.3em" style="text-anchor: end; visibility: inherit; font-family: Roboto, sans-serif; font-size: 12px; font-weight: 200;" fill="rgb(33, 33, 33)" stroke="none" stroke-width="1px">-10.2</text><text x="0" y="266.07469867501095" dx="0em" dy="0.3em" style="text-anchor: end; visibility: inherit; font-family: Roboto, sans-serif; font-size: 12px; font-weight: 200;" fill="rgb(33, 33, 33)" stroke="none" stroke-width="1px">-10.2</text><text x="0" y="220.90371061133325" dx="0em" dy="0.3em" style="text-anchor: end; visibility: inherit; font-family: Roboto, sans-serif; font-size: 12px; font-weight: 200;" fill="rgb(33, 33, 33)" stroke="none" stroke-width="1px">-10.1</text><text x="0" y="175.73272254765715" dx="0em" dy="0.3em" style="text-anchor: end; visibility: inherit; font-family: Roboto, sans-serif; font-size: 12px; font-weight: 200;" fill="rgb(33, 33, 33)" stroke="none" stroke-width="1px">-10.1</text><text x="0" y="130.56173448397948" dx="0em" dy="0.3em" style="text-anchor: end; visibility: inherit; font-family: Roboto, sans-serif; font-size: 12px; font-weight: 200;" fill="rgb(33, 33, 33)" stroke="none" stroke-width="1px">-10</text><text x="0" y="85.39074642030181" dx="0em" dy="0.3em" style="text-anchor: end; visibility: inherit; font-family: Roboto, sans-serif; font-size: 12px; font-weight: 200;" fill="rgb(33, 33, 33)" stroke="none" stroke-width="1px">-9.95</text><text x="0" y="40.21975835662572" dx="0em" dy="0.3em" style="text-anchor: end; visibility: inherit; font-family: Roboto, sans-serif; font-size: 12px; font-weight: 200;" fill="rgb(33, 33, 33)" stroke="none" stroke-width="1px">-9.9</text></g><line x1="61.40625" y1="0" x2="61.40625" y2="374" fill="rgb(0, 0, 0)" stroke="rgb(204, 204, 204)" stroke-width="1px"></line></g></g><g transform="translate(61, 0)" clip-path="url(#clip_0)"><clipPath id="clip_0"><rect width="1382" height="374"></rect></clipPath><g><g><g><line x1="35.34691507707976" y1="0" x2="35.34691507707976" y2="374" fill="rgb(0, 0, 0)" stroke="rgb(66, 66, 66)" stroke-width="1px" opacity="0.25"></line><line x1="191.2014179102877" y1="0" x2="191.2014179102877" y2="374" fill="rgb(0, 0, 0)" stroke="rgb(66, 66, 66)" stroke-width="1px" opacity="0.25"></line><line x1="347.0559207434956" y1="0" x2="347.0559207434956" y2="374" fill="rgb(0, 0, 0)" stroke="rgb(66, 66, 66)" stroke-width="1px" opacity="0.25"></line><line x1="502.9104235767035" y1="0" x2="502.9104235767035" y2="374" fill="rgb(0, 0, 0)" stroke="rgb(66, 66, 66)" stroke-width="1px" opacity="0.25"></line><line x1="658.7649264099115" y1="0" x2="658.7649264099115" y2="374" fill="rgb(0, 0, 0)" stroke="rgb(66, 66, 66)" stroke-width="1px" opacity="0.25"></line><line x1="814.6194292431194" y1="0" x2="814.6194292431194" y2="374" fill="rgb(0, 0, 0)" stroke="rgb(66, 66, 66)" stroke-width="1px" opacity="0.25"></line><line x1="970.4739320763274" y1="0" x2="970.4739320763274" y2="374" fill="rgb(0, 0, 0)" stroke="rgb(66, 66, 66)" stroke-width="1px" opacity="0.25"></line><line x1="1126.3284349095354" y1="0" x2="1126.3284349095354" y2="374" fill="rgb(0, 0, 0)" stroke="rgb(66, 66, 66)" stroke-width="1px" opacity="0.25"></line><line x1="1282.1829377427434" y1="0" x2="1282.1829377427434" y2="374" fill="rgb(0, 0, 0)" stroke="rgb(66, 66, 66)" stroke-width="1px" opacity="0.25"></line></g><g><line x1="0" y1="356.4166748023647" x2="1382.59375" y2="356.4166748023647" fill="rgb(0, 0, 0)" stroke="rgb(66, 66, 66)" stroke-width="1px" opacity="0.25"></line><line x1="0" y1="311.245686738687" x2="1382.59375" y2="311.245686738687" fill="rgb(0, 0, 0)" stroke="rgb(66, 66, 66)" stroke-width="1px" opacity="0.25"></line><line x1="0" y1="266.07469867501095" x2="1382.59375" y2="266.07469867501095" fill="rgb(0, 0, 0)" stroke="rgb(66, 66, 66)" stroke-width="1px" opacity="0.25"></line><line x1="0" y1="220.90371061133325" x2="1382.59375" y2="220.90371061133325" fill="rgb(0, 0, 0)" stroke="rgb(66, 66, 66)" stroke-width="1px" opacity="0.25"></line><line x1="0" y1="175.73272254765715" x2="1382.59375" y2="175.73272254765715" fill="rgb(0, 0, 0)" stroke="rgb(66, 66, 66)" stroke-width="1px" opacity="0.25"></line><line x1="0" y1="130.56173448397948" x2="1382.59375" y2="130.56173448397948" fill="rgb(0, 0, 0)" stroke="rgb(66, 66, 66)" stroke-width="1px" opacity="0.25"></line><line x1="0" y1="85.39074642030181" x2="1382.59375" y2="85.39074642030181" fill="rgb(0, 0, 0)" stroke="rgb(66, 66, 66)" stroke-width="1px" opacity="0.25"></line><line x1="0" y1="40.21975835662572" x2="1382.59375" y2="40.21975835662572" fill="rgb(0, 0, 0)" stroke="rgb(66, 66, 66)" stroke-width="1px" opacity="0.25"></line></g></g></g><g><g><line x1="0" y1="-8903.635878251429" x2="1382.59375" y2="-8903.635878251429" fill="rgb(0, 0, 0)" stroke="rgb(153, 153, 153)" stroke-width="1.5px"></line></g></g><g><g><line x1="35.34691507707976" y1="0" x2="35.34691507707976" y2="374" fill="rgb(0, 0, 0)" stroke="rgb(153, 153, 153)" stroke-width="1.5px"></line></g></g><g><g><g><g><g><path stroke="rgb(0, 119, 187)" stroke-width="2px" d="M35.34691507707976,327.7419611958107L36.1261875912458,232.54266949152003L36.90546010541184,187.91155617059667L37.68473261957788,170.64417038153542L38.46400513374392,217.37380224151127L39.243277647909956,219.03656526590115L40.022550162075994,224.88733827422965L40.80182267624204,191.39248311478727L41.58109519040808,220.50865368471662L42.36036770457412,206.265078739816L43.139640218740155,211.4341637931351L43.91891273290619,229.98246489978845L44.69818524707224,214.94085702725937L45.47745776123827,211.17424791343888L46.256730275404315,211.55723690007954L47.03600278957036,208.20783777616532L47.81527530373639,218.87054988052034L48.59454781790244,222.74941284945947L49.373820332068476,214.8292045299622L50.153092846234514,247.36414091387556L50.932365360400546,232.38340872966828L51.711637874566584,241.25083345157748L52.49091038873263,237.6778759820559L53.27018290289866,240.0037470069653L54.049455417064706,251.13151717573535L54.82872793123075,243.95036356068604L55.60800044539678,226.89269466842256L56.38727295956283,215.7628019900111L57.16654547372887,227.31870007075193L57.945817987894905,230.3723746874468L58.725090502060944,248.6388164216624L59.50436301622698,255.25479749598534L60.28363553039302,238.04566058651767L61.062908044559066,221.60348430188753L61.8421805587251,214.50857654130544L62.62145307289114,222.60884997915767L63.40072558705718,221.3548700675552L64.17999810122322,215.71208096608956L64.95927061538926,222.07998341004847L65.73854312955531,227.29783875590283L66.51781564372133,221.07621768783952L67.29708815788737,228.08454609892507L68.07636067205343,226.13086755937485L68.85563318621945,227.0813429064293L69.6349057003855,222.31847012688567L70.41417821455154,203.93753162210584L71.19345072871758,202.84924856659063L71.97272324288362,195.07842810427397L72.75199575704966,187.2194629211968L73.5312682712157,181.34572876691655L74.31054078538173,200.34038308236234L75.08981329954779,200.62346319550875L75.86908581371381,191.26056534248036L76.64835832787986,197.87749499363096L77.4276308420459,201.32337010099488L78.20690335621194,206.46695318195373L78.98617587037798,211.4499198518344L79.76544838454402,217.90095301429363L80.54472089871005,218.81314514068333L81.32399341287609,215.16444870968456L82.10326592704213,207.02130903247595L82.88253844120817,205.41369667468322L83.66181095537422,215.56668732741753L84.44108346954025,223.80506723399958L85.2203559837063,231.4904737792159L85.99962849787234,230.91801810728575L86.77890101203836,217.28874708813083L87.55817352620441,205.33325340243272L88.33744604037045,197.59765196361866L89.11671855453649,206.32822376129488L89.89599106870254,209.91425984023581L90.67526358286857,200.70220979415433L91.4545360970346,201.76511002502906L92.23380861120064,197.39860350546724L93.0130811253667,198.2933362057614L93.79235363953273,195.7131212456581L94.57162615369876,190.78113456816038L95.3508986678648,188.8444970098439L96.13017118203085,188.25746570582353L96.90944369619689,187.11786447971494L97.68871621036293,196.26294476126557L98.46798872452898,188.36720700885766L99.247261238695,189.29253069976264L100.02653375286104,187.7949773065588L100.80580626702708,184.5487646240249L101.58507878119313,168.8545996671071L102.36435129535917,162.9665533493314L103.14362380952521,160.4547252390343L103.92289632369123,163.32656226239823L104.70216883785729,164.16994898473214L105.48144135202332,163.18333453763321L106.26071386618936,164.85480874089018L107.0399863803554,178.49035368678844L107.81925889452145,176.17072757114144L108.59853140868748,191.44141760893848L109.37780392285352,189.61141316005387L110.15707643701955,174.90261455193084L110.93634895118561,167.33352263856364L111.71562146535165,162.03207351435282L112.49489397951768,162.77718226657043L113.27416649368371,167.6276702088513L114.05343900784976,163.80495699541515L114.8327115220158,157.47576395935906L115.61198403618184,166.5352957713573L116.39125655034789,157.8665333828627L117.17052906451391,142.60895033923657L117.94980157867995,139.40989466539543L118.72907409284599,141.8789076925184L119.50834660701204,140.47145285780368L120.28761912117808,122.0160882568318L121.06689163534412,112.76985650917307L121.84616414951014,110.1804262927511L122.6254366636762,101.26653162454511L123.40470917784224,99.18115708502222L124.18398169200827,112.78111439158985L124.96325420617433,117.702764342714L125.74252672034036,118.15277811243598L126.52179923450639,126.1229617875187L127.30107174867243,133.9486708072828L128.08034426283848,128.4880117015417L128.8596167770045,147.21734740388115L129.63888929117056,147.94813162270833L130.4181618053366,155.85933534237785L131.19743431950263,154.0545124662345L131.97670683366866,153.83133097619452L132.7559793478347,149.8724466127129L133.53525186200076,149.5461594295064L134.3145243761668,144.14057370308996L135.09379689033284,141.59570325946422L135.87306940449886,144.89645688738807L136.65234191866492,138.36299092829677L137.43161443283094,144.2472560420472L138.210886946997,121.26514791010649L138.99015946116305,128.80627596514512L139.76943197532907,125.9517541370324L140.5487044894951,114.18407252051894L141.32797700366115,116.14607180633836L142.1072495178272,123.37245364107301L142.88652203199322,121.25712535423196L143.66579454615928,120.85511459280373L144.4450670603253,120.5211796946711L145.22433957449135,112.46139786724329L146.00361208865738,123.97054880234204L146.78288460282343,123.38437335009995L147.56215711698948,126.44528882472424L148.3414296311555,129.39178249472755L149.12070214532153,121.25307871918253L149.89997465948758,127.63716151784607L150.67924717365364,118.36193310943986L151.45851968781966,125.49751966059193L152.2377922019857,132.24175476017228L153.01706471615176,140.471151838799L153.7963372303178,155.98732096618525L154.5756097444838,168.55693939683874L155.35488225864987,170.53421578227838L156.1341547728159,157.41775289498247L156.91342728698194,162.7190394071181L157.692699801148,156.87401028709462L158.47197231531402,171.26419216628494L159.25124482948004,165.88394774896298L160.0305173436461,162.08463620825302L160.80978985781215,177.75573270661062L161.58906237197817,179.7258324695998L162.3683348861442,178.94080108298348L163.14760740031025,185.72712411516557L163.9268799144763,184.0488150119998L164.70615242864233,190.65315327259017L165.48542494280838,181.14634155551465L166.26469745697443,189.12171597123515L167.04396997114046,182.05514616460016L167.82324248530648,177.50051854978423L168.60251499947253,177.5724973048106L169.38178751363859,174.4156139901151L170.1610600278046,180.31640905479733L170.94033254197066,180.3034353053111L171.7196050561367,175.72723850309973L172.49887757030274,172.51230401956258L173.27815008446876,166.0427362850178L174.05742259863482,156.06454222656384L174.83669511280087,150.01823806462517L175.6159676269669,150.8796460247549L176.39524014113294,156.2389204180489L177.174512655299,149.1425875617662L177.95378516946502,143.08514357763406L178.73305768363105,140.50689392462152L179.51233019779707,160.57049887919186L180.29160271196312,158.5181517152201L181.07087522612917,148.98803917592156L181.8501477402952,136.65362552887268L182.62942025446125,138.3241487248403L183.4086927686273,145.38340998478057L184.18796528279333,142.35229878052664L184.96723779695938,135.12831216495954L185.74651031112543,134.58064562154348L186.52578282529146,142.1483608542277L187.30505533945748,141.5121427917305L188.0843278536235,141.12568321342025L188.86360036778956,153.29601444188177L189.6428728819556,155.40612036381708L190.42214539612164,152.40613209867396L191.2014179102877,144.92047568573082L191.98069042445374,144.35257154525792L192.75996293861976,148.12720122431594L193.53923545278582,151.02834617576605L194.31850796695187,146.2973362683888L195.0977804811179,156.62610950154902L195.87705299528395,148.35693180936516L196.65632550944994,161.88994131763917L197.435598023616,175.29281294247446L198.21487053778202,175.63155434030253L198.99414305194807,159.18249087852547L199.77341556611415,162.27528371233964L200.5526880802802,142.55503033633372L201.33196059444623,151.02060921402682L202.11123310861225,154.27769985106204L202.89050562277828,151.35255867957724L203.66977813694433,151.26496947217936L204.44905065111038,146.62315857965507L205.2283231652764,148.67835917239404L206.00759567944246,156.16173460210985L206.7868681936085,146.49429426613753L207.56614070777454,155.12439931143956L208.3454132219406,159.68427525416826L209.12468573610664,171.79420814779849L209.90395825027267,171.37820121205408L210.6832307644387,166.78390444992965L211.46250327860471,165.68751642874614L212.24177579277077,165.875497563752L213.02104830693682,169.13901137990314L213.80032082110284,161.12116692808075L214.5795933352689,173.06387750190507L215.35886584943495,158.86065133085836L216.13813836360097,162.46136286632793L216.91741087776703,162.11206180234805L217.69668339193308,160.66557504157566L218.4759559060991,156.36706702077888L219.25522842026515,166.2138353710827L220.03450093443115,171.2235908965895L220.8137734485972,182.02837557145475L221.59304596276326,183.8069113846082L222.37231847692928,182.71987198336916L223.15159099109533,173.08395533650506L223.93086350526139,161.64020076161387L224.7101360194274,163.1036623120008L225.48940853359346,168.85082827023655L226.26868104775951,168.31015119227936L227.04795356192554,172.06393865480612L227.8272260760916,165.6169840172066L228.6064985902576,166.5056199637154L229.38577110442364,161.69614842947675L230.1650436185897,160.71923789302468L230.94431613275572,165.89236822882472L231.72358864692177,162.2200526074453L232.50286116108782,157.47262181721644L233.28213367525385,151.50506660454326L234.0614061894199,138.82861944320155L234.84067870358595,130.42128955473046L235.61995121775198,132.79425605336564L236.39922373191803,131.20444383253405L237.17849624608405,122.24585775623909L237.95776876025008,127.08406472249703L238.7370412744161,110.22100749859526L239.51631378858215,117.34755359250666L240.2955863027482,121.86294816896202L241.07485881691423,110.00801613963911L241.85413133108028,113.91010217165623L242.63340384524633,119.64277693179993L243.41267635941236,115.99417410407821L244.1919488735784,125.09167294757702L244.97122138774446,118.59801355012695L245.7504939019105,121.7980839498637L246.52976641607654,121.1620265075418L247.30903893024254,126.54958508935657L248.0883114444086,123.97293415717114L248.86758395857464,125.56441186871962L249.64685647274067,134.34833786431267L250.42612898690672,135.60672656281128L251.20540150107277,141.05752812342425L251.9846740152388,152.51453192870596L252.76394652940485,153.01911564246808L253.5432190435709,177.802469046188L254.32249155773692,161.92999878721008L255.10176407190298,161.31223704993982L255.88103658606897,165.3581624856372L256.660309100235,175.57512208076292L257.43958161440105,178.67020894624238L258.2188541285671,182.19702485585034L258.99812664273315,175.11846211302222L259.7773991568992,182.19663235473158L260.55667167106526,178.26972701981578L261.33594418523126,171.96488599888573L262.1152166993973,160.3479529565209L262.89448921356336,171.14829173451463L263.6737617277294,174.89436787028572L264.45303424189547,180.0724234512523L265.23230675606146,168.58910884976692L266.0115792702275,156.4713726403778L266.79085178439357,166.6432376790208L267.57012429855956,163.11496743553505L268.3493968127256,178.16670069381257L269.12866932689167,150.460793329505L269.9079418410577,162.8401163024789L270.6872143552238,162.60327026478927L271.4664868693898,161.7381807924876L272.2457593835558,155.69226205191336L273.0250318977219,145.17999128860848L273.80430441188787,137.8868317434029L274.5835769260539,147.2366364236194L275.36284944022,147.83204236151002L276.142121954386,150.27902360738534L276.9213944685521,169.67033890481375L277.70066698271813,163.13148333226962L278.4799394968841,169.9012453231884L279.2592120110502,161.10940570503192L280.03848452521623,167.33007165139657L280.8177570393823,144.36165906406669L281.59702955354834,156.13011844491865L282.3763020677144,153.42695347742122L283.1555745818804,159.55481942406172L283.93484709604644,148.20886922929304L284.71411961021244,136.20764220256567L285.4933921243785,128.1557671282602L286.27266463854454,131.60704802543054L287.0519371527106,130.15882411890698L287.83120966687665,138.3915038463094L288.6104821810427,136.0483237358443L289.3897546952087,131.5952837669216L290.16902720937475,129.9088873105859L290.9482997235408,120.29723613700322L291.72757223770685,122.00090484745571L292.50684475187285,135.63405029999078L293.2861172660389,129.53206368712074L294.06538978020495,123.64230295566057L294.84466229437095,111.82747344294273L295.623934808537,112.7181302746096L296.40320732270305,111.95624260967612L297.1824798368691,125.19008117845111L297.96175235103516,130.08239670746792L298.7410248652012,129.47676705943803L299.5202973793672,125.41657306078692L300.29956989353326,123.87566808342568L301.07884240769926,118.72948720775953L301.8581149218653,124.48481725732955L302.63738743603136,120.80276696372705L303.4166599501974,113.24364212594199L304.19593246436347,110.23316747157475L304.9752049785295,127.37073351519022L305.7544774926955,116.64791624173948L306.53375000686157,103.60272617180833L307.3130225210276,92.9582209365356L308.0922950351937,93.24757488397464L308.8715675493597,101.50842448478188L309.6508400635258,110.6487893821676L310.4301125776918,117.05851792608804L311.2093850918578,111.8212257080697L311.9886576060238,115.9435517940346L312.7679301201899,131.30848106850257L313.5472026343559,144.51674947089973L314.326475148522,133.87979928427788L315.10574766268803,124.78271448632891L315.8850201768541,130.71458892602027L316.6642926910201,121.5837364076644L317.44356520518613,128.76996653962377L318.2228377193522,134.3304240590437L319.0021102335182,139.96553407689188L319.78138274768423,148.35999587619222L320.5606552618503,143.78842962395478L321.33992777601634,145.02909387902272L322.1192002901824,150.78839017161928L322.8984728043484,137.95850771377997L323.67774531851444,127.03377557694935L324.4570178326805,131.76625666157543L325.23629034684654,135.86419953962775L326.0155628610126,148.96831959944402L326.79483537517865,142.18377750963532L327.57410788934465,141.70930816468743L328.3533804035107,134.70942643106932L329.1326529176767,127.52456162647836L329.91192543184275,127.79663633226906L330.6911979460088,137.03387342509706L331.47047046017485,133.03088730180409L332.2497429743409,140.04138788063483L333.02901548850696,132.7068340387483L333.80828800267295,127.05663025551132L334.587560516839,126.74198299077226L335.36683303100506,139.6652213492357L336.1461055451711,139.97982218055589L336.92537805933716,134.71584721708797L337.70465057350316,137.30729427346876L338.4839230876692,144.17333492242085L339.2631956018352,150.05205787290114L340.04246811600126,148.5574826220623L340.8217406301673,148.85921068569095L341.60101314433336,152.05491842883177L342.3802856584994,161.47536135616943L343.15955817266547,153.71635456057314L343.93883068683147,160.86590770321988L344.7181032009975,162.21485102425459L345.49737571516357,172.71604315577844L346.27664822932957,177.24276991358934L347.0559207434956,167.49628939901083L347.8351932576617,183.94307617252392L348.6144657718277,176.68970498309116L349.3937382859938,173.88858067467916L350.1730108001598,163.0069558119955L350.9522833143258,156.6116039368879L351.7315558284919,160.5401270052702L352.51082834265793,168.68669500018544L353.290100856824,180.23114102147963L354.06937337099004,166.83699473817842L354.84864588515603,174.81242365449828L355.6279183993221,153.15778691154634L356.40719091348814,157.22039185928045L357.1864634276542,162.43679032510875L357.96573594182024,168.09829876263444L358.7450084559863,169.9011963682532L359.5242809701523,177.708281414763L360.3035534843183,185.74631074803327L361.08282599848434,185.06889514841237L361.8620985126504,174.8414227252159L362.6413710268164,166.51452310250826L363.42064354098244,167.49255085575408L364.1999160551485,169.23016274816567L364.97918856931454,169.86566684221276L365.7584610834806,160.67848608084034L366.53773359764665,166.50706043823902L367.31700611181265,174.9403411599461L368.0962786259787,176.2149053828711L368.87555114014475,184.2547090133487L369.6548236543108,183.96971690511077L370.43409616847686,173.0613189151581L371.2133686826429,163.93766446261054L371.9926411968089,170.1331198532402L372.77191371097496,165.01408714813854L373.551186225141,168.10162251123867L374.33045873930706,177.03851913329004L375.1097312534731,179.78738333887748L375.8890037676391,184.60170904577797L376.66827628180516,188.11443622654926L377.4475487959712,181.5623166111032L378.2268213101372,172.06316202191607L379.0060938243032,167.80188164761975L379.78536633846926,176.39547270274028L380.5646388526353,175.12694943223883L381.34391136680136,172.78517108540493L382.1231838809674,150.58169710542015L382.90245639513347,139.67224522023906L383.68172890929947,151.96751295151068L384.4610014234655,149.96730643811463L385.24027393763157,164.9770200625018L386.0195464517976,153.2054513167921L386.7988189659637,159.2872625574466L387.57809148012973,170.18934116171408L388.3573639942957,159.25620891588008L389.1366365084618,177.85507501105144L389.91590902262783,180.32738846483872L390.6951815367939,177.0174823426751L391.47445405095993,184.3925759036161L392.253726565126,182.93562604553375L393.032999079292,172.89740726923196L393.81227159345804,164.4054674590071L394.5915441076241,165.11235589036568L395.37081662179014,177.96019833551279L396.1500891359561,166.12493006374268L396.92936165012213,164.32978633479038L397.7086341642882,154.679031224257L398.48790667845424,167.11733707047108L399.2671791926203,161.66567051446006L400.04645170678634,173.51149940219648L400.82572422095234,175.9186512159374L401.6049967351184,176.59053989069466L402.38426924928444,177.33816848464082L403.1635417634505,163.7602392860314L403.94281427761643,165.11965707274837L404.7220867917825,163.39392788369364L405.50135930594854,158.9501237461679L406.2806318201146,161.04607778455033L407.05990433428065,162.17717605662867L407.8391768484467,159.53414871229154L408.6184493626127,170.92992894399518L409.39772187677875,171.1851777615414L410.1769943909448,174.51290323674226L410.95626690511085,173.76535561337363L411.7355394192769,162.91252560917505L412.5148119334429,163.34439211080365L413.29408444760895,163.5928347197568L414.073356961775,167.06872769813572L414.85262947594106,169.95885529830244L415.6319019901071,176.55133989479702L416.41117450427316,176.65204267544797L417.19044701843916,174.54288069961825L417.9697195326052,175.5177392195943L418.74899204677126,171.38390346817974L419.5282645609373,165.4000413872938L420.30753707510337,164.18027150587633L421.0868095892694,147.47955544372167L421.86608210343536,132.9312310056268L422.6453546176014,139.72242810282873L423.42462713176747,139.7648389373594L424.2038996459335,137.01048429150123L424.9831721600995,144.88810079058393L425.76244467426557,157.48087273653206L426.5417171884316,162.59846655341227L427.32098970259767,169.09686858474038L428.1002622167637,172.34141033188303L428.8795347309298,175.0303514141107L429.6588072450958,169.04869470573556L430.4380797592618,156.06350953617888L431.2173522734279,143.6073394529455L431.99662478759393,137.29788424169496L432.77589730176,139.32948924293925L433.55516981592604,149.03130711210014L434.33444233009203,139.21288479362474L435.1137148442581,125.91855108599691L435.89298735842414,135.60701791068058L436.6722598725902,147.66952804531334L437.45153238675624,154.5303384255636L438.2308049009223,160.01830021040251L439.0100774150883,168.48447577179024L439.7893499292543,169.74519405915473L440.56862244342034,168.98807046631055L441.3478949575864,171.1656088630136L442.1271674717524,174.2957446830181L442.90643998591844,182.59580327562614L443.6857125000845,179.86420463554444L444.46498501425054,180.4036270915048L445.2442575284166,181.00120055764532L446.02353004258265,167.30418952859353L446.80280255674865,162.92321750577418L447.5820750709147,158.39692724287423L448.36134758508075,155.3368132000233L449.1406200992468,140.5085799125856L449.91989261341286,135.78885507400653L450.6991651275789,141.57306309555358L451.4784376417449,138.51677570271914L452.25771015591096,156.34791859343096L453.036982670077,158.72179622501488L453.81625518424306,159.32544589176797L454.5955276984091,158.17316917352642L455.3748002125751,177.1203529791291L456.15407272674116,169.67509118112062L456.9333452409072,167.0505891095728L457.7126177550732,169.65521297126602L458.4918902692392,164.34262177158877L459.27116278340526,159.86562358966032L460.0504352975713,142.07911964507127L460.82970781173736,152.4151503740008L461.6089803259034,141.52839003046117L462.38825284006947,126.74342885451497L463.16752535423547,119.60110455634707L463.9467978684015,107.95895993401034L464.72607038256757,97.21172984982172L465.5053428967336,90.70103917981432L466.2846154108997,91.05520990096936L467.0638879250657,102.96093876142795L467.8431604392317,103.85522234450266L468.6224329533978,102.59892970809436L469.40170546756383,114.21230274528632L470.1809779817299,117.26144593817975L470.96025049589593,123.03196978874557L471.739523010062,126.59698075111898L472.518795524228,120.41580362178142L473.29806803839404,114.36486111544909L474.0773405525601,120.69517985076527L474.85661306672614,128.4723419461903L475.6358855808922,127.3592184088856L476.41515809505813,129.18123244406019L477.1944306092242,128.69330808127458L477.97370312339024,124.67888096603853L478.7529756375563,127.18036208682227L479.53224815172234,142.96332723916026L480.31152066588834,148.12259375144305L481.0907931800544,143.84193841517504L481.87006569422044,133.04867748073562L482.6493382083865,138.73923924364652L483.42861072255255,128.00328489389355L484.2078832367186,147.93029953406082L484.9871557508846,156.15905603472046L485.76642826505065,153.53283322968167L486.5457007792167,144.82377622641272L487.32497329338275,142.07491263353316L488.1042458075488,147.2341874118627L488.88351832171486,146.8140547404621L489.66279083588086,148.4669915392138L490.4420633500469,143.57770371739508L491.22133586421296,133.63329548580091L492.000608378379,122.73297134705854L492.77988089254507,107.3907663178856L493.55915340671106,109.01008093568794L494.33842592087706,95.4348733120408L495.1176984350431,104.2003740471531L495.89697094920916,102.1709647792116L496.67624346337516,95.25803947431459L497.4555159775412,99.26309558383355L498.23478849170726,92.99412818687883L499.0140610058733,95.39515087222807L499.79333352003937,101.77699068486709L500.5726060342054,105.07242241234388L501.3518785483714,102.90560176476164L502.13115106253747,111.89441676001397L502.9104235767035,116.18500965368538L503.6896960908696,121.45076093666175L504.4689686050356,105.29485099700098L505.2482411192017,93.07812131929941L506.0275136333677,104.48252390819793L506.8067861475337,95.79969793846251L507.5860586616998,102.79124128853184L508.36533117586583,97.02417041452793L509.1446036900319,100.68644802578966L509.92387620419794,100.77967697518004L510.70314871836393,116.87593903036442L511.48242123253,101.16929613485169L512.261693746696,100.94256814597483L513.040966260862,98.70706751460656L513.8202387750281,107.64460870710194L514.5995112891941,114.52691818771119L515.3787838033602,123.47315989044206L516.1580563175262,135.47727926346099L516.9373288316922,130.44680576299893L517.7166013458583,141.67690271519484L518.4958738600243,135.5961736081838L519.2751463741904,129.7347693746856L520.0544188883564,121.59568102872082L520.8336914025224,122.28381557735077L521.6129639166885,106.27037946895918L522.3922364308545,106.47903486160872L523.1715089450206,114.55908880856006L523.9507814591866,111.11113712295982L524.7300539733527,123.94578831448024L525.5093264875187,121.42192541961087L526.2885990016847,118.50515549497678L527.0678715158508,142.052422962167L527.8471440300168,144.87099452539556L528.6264165441829,149.07618553557347L529.4056890583489,143.07526401362497L530.1849615725149,139.59546935739732L530.9642340866809,148.30999640478717L531.743506600847,132.39912570134078L532.522779115013,131.5165724729684L533.302051629179,139.67848796125213L534.0813241433451,131.21685858327842L534.8605966575111,139.54651469351205L535.6398691716772,133.80757072036624L536.4191416858432,134.65269892892996L537.1984142000092,135.04928170220643L537.9776867141753,146.93889318851134L538.7569592283413,147.6834667147736L539.5362317425074,153.91375502320506L540.3155042566734,147.14203103979233L541.0947767708395,153.9626881446476L541.8740492850055,161.19821306012534L542.6533217991715,154.17340087289318L543.4325943133376,161.8943556145442L544.2118668275036,160.71449145356584L544.9911393416697,159.1178404533389L545.7704118558357,158.31454860940755L546.5496843700017,159.16595161656804L547.3289568841678,167.04887817943316L548.1082293983338,160.2770715663712L548.8875019124998,169.0799127047036L549.6667744266658,173.08434109569822L550.4460469408319,164.54437906139236L551.2253194549979,164.93375042400712L552.004591969164,162.21336365867882L552.78386448333,166.03742237621344L553.5631369974961,170.13677869861084L554.3424095116621,174.8912016895511L555.1216820258281,171.30786698461063L555.9009545399942,181.44668202531076L556.6802270541602,180.70953225104745L557.4594995683264,184.00667175607606L558.2387720824923,169.15360644227604L559.0180445966583,168.7517577681901L559.7973171108245,167.5873393012556L560.5765896249904,162.20739729393372L561.3558621391566,154.57242245169093L562.1351346533226,149.63875958879254L562.9144071674887,150.77064256746007L563.6936796816547,149.1539636602849L564.4729521958207,149.9714271440485L565.2522247099868,141.53343494958722L566.0314972241528,138.49482669715545L566.8107697383188,122.52958487795418L567.5900422524847,123.09753282572593L568.3693147666509,126.83168183056677L569.1485872808169,122.03319704001385L569.927859794983,122.70583299939341L570.707132309149,119.2516410241908L571.486404823315,133.74807779643007L572.2656773374811,132.94158240399426L573.0449498516471,141.04880697608036L573.8242223658132,140.62847845796566L574.6034948799792,148.85005130268192L575.3827673941452,152.2218100557986L576.1620399083113,162.7940125402614L576.9413124224773,167.2541182689897L577.7205849366434,165.08638317896848L578.4998574508094,173.51268227358693L579.2791299649755,169.06155943833775L580.0584024791415,171.3169854934046L580.8376749933075,149.17110313385925L581.6169475074736,143.1644865560131L582.3962200216396,149.76630360334414L583.1754925358057,145.39390099038135L583.9547650499717,155.759791201868L584.7340375641377,164.99536828621223L585.5133100783037,149.55355528605287L586.2925825924698,136.35520978925032L587.0718551066358,130.51960123377341L587.8511276208018,125.91768463594289L588.6304001349679,130.0170897637887L589.4096726491339,139.30921445602513L590.1889451633,140.03210598999158L590.968217677466,153.12983761788456L591.7474901916321,146.3457521654795L592.5267627057981,137.1519523851857L593.3060352199641,127.53550201348168L594.0853077341302,128.77897602824547L594.8645802482962,124.90751241376861L595.6438527624623,126.35260578390017L596.4231252766283,134.0124001485633L597.2023977907943,139.50375520596816L597.9816703049604,136.2793478824485L598.7609428191264,145.82340676957463L599.5402153332925,129.19678587354574L600.3194878474585,126.18272353670744L601.0987603616246,126.53148316495512L601.8780328757906,129.44944976509515L602.6573053899566,132.22800729367003L603.4365779041226,127.96412339616461L604.2158504182887,130.68933158547702L604.9951229324547,132.0071640081442L605.7743954466207,142.0474662151784L606.5536679607868,146.05219768572283L607.3329404749528,140.80558937777477L608.1122129891189,145.64303072639575L608.8914855032849,143.13692840891966L609.6707580174509,139.32341879673788L610.450030531617,129.02551801655534L611.229303045783,131.544470219059L612.0085755599491,142.7173919115819L612.7878480741151,144.60759895465583L613.5671205882811,137.32391813160024L614.3463931024472,139.09063138769534L615.1256656166132,147.69763226027476L615.9049381307793,153.9781444002511L616.6842106449453,163.5873101205217L617.4634831591114,168.46863172743875L618.2427556732774,178.4691354519037L619.0220281874434,169.93398139063385L619.8013007016095,173.39514127953186L620.5805732157755,157.27833783882062L621.3598457299415,148.6023490027671L622.1391182441075,144.8085569330403L622.9183907582736,145.97260870956956L623.6976632724396,141.73012595371566L624.4769357866057,146.08246549757095L625.2562083007717,145.61739897099667L626.0354808149377,147.29075118708155L626.8147533291038,143.1271053379009L627.5940258432698,147.63176473733685L628.3732983574359,148.98621493564207L629.1525708716019,144.3734569539297L629.931843385768,153.6284619339496L630.711115899934,155.48350679093426L631.4903884141,144.58623382800025L632.2696609282661,141.36854147624138L633.0489334424321,144.7989521079019L633.8282059565983,140.82508390222722L634.6074784707642,132.31595673427523L635.3867509849302,131.6439293592671L636.1660234990964,129.7175967517609L636.9452960132624,131.55220817877748L637.7245685274285,141.25489913029276L638.5038410415943,134.70379557680548L639.2831135557605,124.4264627102038L640.0623860699264,122.76703328546722L640.8416585840926,133.89083238176536L641.6209310982586,141.51359180280372L642.4002036124247,154.16807127170316L643.1794761265907,153.7887262720486L643.9587486407567,162.87044954454757L644.7380211549228,162.47437499965238L645.5172936690888,155.51044769038728L646.2965661832549,148.44679475660138L647.0758386974209,141.46086904355911L647.8551112115869,144.17856482352659L648.634383725753,146.80639769294513L649.413656239919,136.08262543873846L650.1929287540851,134.51619331385882L650.9722012682511,132.60109059472305L651.7514737824171,115.06903737201907L652.5307462965832,118.2190155923604L653.3100188107492,115.01014999043204L654.0892913249153,114.10376244065448L654.8685638390813,128.28093699905455L655.6478363532474,128.299353680181L656.4271088674133,128.34018617293535L657.2063813815794,136.6454364378582L657.9856538957454,138.42664969022474L658.7649264099115,137.05858597474372L659.5441989240775,131.3276377674756L660.3234714382435,125.89639969688326L661.1027439524096,123.28848095065457L661.8820164665756,109.49390580358408L662.6612889807417,116.96726324671614L663.4405614949077,116.97081731370619L664.2198340090737,126.05138246648333L664.9991065232398,149.9727233392468L665.7783790374058,159.7071949653722L666.5576515515719,158.26372095798902L667.3369240657379,155.11813637137436L668.116196579904,156.4985246840353L668.89546909407,163.61079640535752L669.674741608236,172.13131705666538L670.4540141224021,167.01320161563515L671.2332866365681,169.2805936156376L672.0125591507342,176.55286798974058L672.7918316649002,178.5700892914314L673.5711041790662,180.04626280618083L674.3503766932323,173.72679352569176L675.1296492073983,167.5510775007077L675.9089217215643,171.2122819021111L676.6881942357303,178.94799068371026L677.4674667498964,169.7190607969976L678.2467392640624,166.90070409702372L679.0260117782285,175.92345814684788L679.8052842923945,180.26570089549566L680.5845568065606,177.0120689204787L681.3638293207266,178.57153992108726L682.1431018348926,166.98013499904246L682.9223743490587,176.89243101048885L683.7016468632247,180.59508022480313L684.4809193773908,191.29733872181578L685.2601918915568,195.77170814123642L686.0394644057228,193.58832883997732L686.8187369198889,188.60779207049333L687.5980094340549,180.17025315151835L688.377281948221,179.91341997910268L689.156554462387,174.23796539337803L689.9358269765531,176.6198806508021L690.7150994907191,178.54866473831325L691.4943720048851,174.43018642208025L692.2736445190512,170.14128361246352L693.0529170332171,171.62040871558565L693.8321895473833,169.66457595292832L694.6114620615492,166.0210388028423L695.3907345757153,165.14959531913135L696.1700070898813,163.36241485151646L696.9492796040474,153.6322474356439L697.7285521182134,152.80145362243712L698.5078246323795,154.199827027396L699.2870971465455,156.94089992349518L700.0663696607116,153.5013498564463L700.8456421748776,161.24841178339992L701.6249146890435,159.5567104635345L702.4041872032096,146.21980391010746L703.1834597173756,152.098253722488L703.9627322315417,141.30174163873735L704.7420047457077,148.96789044010637L705.5212772598738,133.66899505951358L706.3005497740398,132.6226798754386L707.079822288206,151.9891954908108L707.8590948023719,151.67787810272222L708.638367316538,148.57318446538423L709.417639830704,140.36812090290252L710.1969123448702,131.60348974175432L710.976184859036,142.888923502589L711.7554573732021,123.2300810841672L712.5347298873681,121.98759601859587L713.3140024015343,113.56496268390956L714.0932749157002,137.67083416146627L714.8725474298664,138.78042986016183L715.6518199440324,134.24126314160824L716.4310924581985,136.4419978390815L717.2103649723645,140.79205218444193L717.9896374865306,144.9505801306045L718.7689100006966,150.43719674224576L719.5481825148627,159.92818390063715L720.3274550290286,148.02092094218472L721.1067275431946,143.16749551662613L721.8860000573607,147.40903819234373L722.6652725715267,137.3057775765782L723.4445450856928,137.82428811088016L724.2238175998588,147.85927689873645L725.0030901140249,148.94553465147732L725.7823626281909,151.52152357429998L726.561635142357,143.7655751363041L727.3409076565229,158.43251502122033L728.1201801706891,153.23628184220524L728.899452684855,161.724722756727L729.6787251990211,155.15150467866872L730.4579977131871,165.38353826876246L731.2372702273532,176.90724920829356L732.0165427415192,175.53042651327254L732.7958152556853,177.59638094476242L733.5750877698513,170.35114874981178L734.3543602840174,172.8370894664533L735.1336327981834,178.32726513132337L735.9129053123495,174.903812495211L736.6921778265154,171.6427575315596L737.4714503406815,166.28493960000486L738.2507228548475,164.94477011622547L739.0299953690135,154.31607670263517L739.8092678831796,149.35804182685936L740.5885403973456,157.08603021998388L741.3678129115117,144.01713969556616L742.1470854256777,144.0278227167631L742.9263579398438,139.62877214278916L743.7056304540097,118.92617291679495L744.4849029681759,109.36163333127283L745.2641754823418,108.56861545156065L746.0434479965079,109.99226280351132L746.8227205106739,102.72647471548343L747.60199302484,106.00220884246104L748.381265539006,117.26395357722663L749.1605380531721,119.52290228736696L749.9398105673381,125.38875966036812L750.7190830815042,133.95235863086336L751.4983555956702,139.66034753821333L752.2776281098363,133.81878443932382L753.0569006240022,130.3751113893957L753.8361731381684,129.30347260071295L754.6154456523343,117.67909584957152L755.3947181665004,114.00796465250819L756.1739906806664,116.02194241058675L756.9532631948324,128.53620162634036L757.7325357089985,132.16709051614677L758.5118082231645,131.40774071232488L759.2910807373306,133.7028066028244L760.0703532514966,130.34042832938854L760.8496257656627,143.43861900715075L761.6288982798286,149.84264522778162L762.4081707939947,135.14948545113594L763.1874433081607,143.07838317955364L763.9667158223268,132.38190593534193L764.7459883364928,125.86991693437119L765.5252608506589,123.13502394361987L766.3045333648249,123.45278708307433L767.083805878991,144.63191772080262L767.863078393157,148.08674261565363L768.6423509073231,145.29501216768156L769.421623421489,157.47431968410748L770.2008959356552,161.2864621908664L770.9801684498211,150.43579969519948L771.7594409639872,138.93658744130576L772.5387134781532,127.7275774984175L773.3179859923193,122.77784390764928L774.0972585064853,118.37968774230009L774.8765310206513,120.15870829039844L775.6558035348174,129.9780284188538L776.4350760489834,125.22297270053569L777.2143485631495,133.80752973051284L777.9936210773154,127.05481763345966L778.7728935914815,139.75364680928544L779.5521661056475,143.3438111385303L780.3314386198136,145.80911142291163L781.1107111339796,132.29005987257435L781.8899836481457,130.1852819939141L782.6692561623117,146.8946707973337L783.4485286764778,140.93820763552313L784.2278011906438,145.51656198296484L785.00707370481,153.0938986161174L785.786346218976,152.73232420946255L786.5656187331421,161.6514767234844L787.3448912473079,156.80432518796096L788.124163761474,168.60995871568616L788.90343627564,172.95357601188852L789.6827087898062,167.5220716044803L790.4619813039722,169.67529036203723L791.2412538181383,175.91620996879462L792.0205263323043,161.74630226947053L792.7997988464703,169.21971099500053L793.5790713606364,166.15470018938805L794.3583438748022,170.4715272906112L795.1376163889685,173.70580616387608L795.9168889031343,183.40919016706852L796.6961614173005,181.14934783399383L797.4754339314665,179.72265613718486L798.2547064456326,172.89909717301674L799.0339789597987,172.1515548765401L799.8132514739647,181.73066521196225L800.5925239881308,178.6114716736504L801.3717965022968,168.4905906495737L802.1510690164629,160.84379128174007L802.9303415306289,165.12511668356967L803.709614044795,158.90410341483727L804.488886558961,154.64186048076587L805.2681590731271,163.21526483284438L806.047431587293,166.07828482022967L806.8267041014591,166.7391863961647L807.6059766156251,161.2803813887247L808.3852491297912,154.0566311692632L809.1645216439572,150.40899667686298L809.9437941581233,151.28023833084055L810.7230666722893,147.4543878057969L811.5023391864554,150.21470420074084L812.2816117006214,141.9797475160721L813.0608842147873,160.91976065676903L813.8401567289534,156.82353220062086" style="fill: none;" fill="none"></path></g></g></g></g><g opacity="0.2"><g><g><g><path stroke="rgb(0, 119, 187)" stroke-width="2px" d="M35.34691507707976,327.7419611958107L36.1261875912458,143.05533528947916L36.90546010541184,106.52225791856662L37.68473261957788,124.8133512983858L38.46400513374392,377.8869549260149L39.243277647909956,225.96835325494774L40.022550162075994,253.31452866123414L40.80182267624204,6.930140718999148L41.58109519040808,398.60508599075877L42.36036770457412,110.9791503374929L43.139640218740155,248.79818803490292L43.91891273290619,373.4472938715538L44.69818524707224,91.44050617039261L45.47745776123827,178.56314647471171L46.256730275404315,215.03419093354947L47.03600278957036,176.47642823797494L47.81527530373639,323.8485343948968L48.59454781790244,262.2929311158312L49.373820332068476,131.48533561931467L50.153092846234514,599.7683425987229L50.932365360400546,65.7726656630175L51.711637874566584,342.2895406455632L52.49091038873263,196.0503967022289L53.27018290289866,267.66222428319026L54.049455417064706,385.97966524710023L54.82872793123075,155.39902322413147L55.60800044539678,13.13946290403714L56.38727295956283,74.1979413182814L57.16654547372887,376.34560937460196L57.945817987894905,270.26071404454376L58.725090502060944,490.09673875523157L59.50436301622698,343.6809733261288L60.28363553039302,5.66018915791323L61.062908044559066,-2.5591716919913754L61.8421805587251,116.91535539575733L62.62145307289114,334.9601797702867L63.40072558705718,203.82691148537768L64.17999810122322,136.26617769018685L64.95927061538926,312.34142920503024L65.73854312955531,301.72518555801514L66.51781564372133,131.80756213481408L67.29708815788737,329.195426788451L68.07636067205343,197.7993801954476L68.85563318621945,240.93120858831185L69.6349057003855,152.60323433965135L70.41417821455154,-66.2437100507334L71.19345072871758,186.7893998704024L71.97272324288362,79.97992566458218L72.75199575704966,70.412210545275L73.5312682712157,93.76157096385623L74.31054078538173,484.4336508237406L75.08981329954779,204.8694090355228L75.86908581371381,50.450536380553814L76.64835832787986,297.63962904331413L77.4276308420459,253.3981007788904L78.20690335621194,284.3688937004335L78.98617587037798,287.0750794896946L79.76544838454402,315.99620160810105L80.54472089871005,232.70926303373744L81.32399341287609,159.486302875279L82.10326592704213,82.56032249324721L82.88253844120817,180.80580855985863L83.66181095537422,371.1986008088441L84.44108346954025,350.2556004378293L85.2203559837063,349.5999470199281L85.99962849787234,222.1102507511875L86.77890101203836,7.360063262406096L87.55817352620441,20.996103531949096L88.33744604037045,78.21026453400528L89.11671855453649,341.19362586557594L89.89599106870254,265.3566677177453L90.67526358286857,58.164156683404556L91.4545360970346,218.2237164960596L92.23380861120064,129.73721369431925L93.0130811253667,212.16689188653874L93.79235363953273,155.67989446491438L94.57162615369876,114.21433901583583L95.3508986678648,158.76258556774025L96.13017118203085,179.1343662067334L96.90944369619689,169.39864528389037L97.68871621036293,338.5210412370221L98.46798872452898,65.49093285401133L99.247261238695,203.69853782011182L100.02653375286104,164.47133661506393L100.80580626702708,133.97268307986755L101.58507878119313,-75.7424997121798L102.36435129535917,71.17125214996744L103.14362380952521,121.28350628768777L103.92289632369123,208.1244137830007L104.70216883785729,177.32938077900278L105.48144135202332,147.78534483517896L106.26071386618936,190.9473281158573L107.0399863803554,391.3937599620689L107.81925889452145,139.94507400350892L108.59853140868748,429.96961559033184L109.37780392285352,161.02161744912914L110.15707643701955,-54.928734574654015L110.93634895118561,49.044457040192775L111.71562146535165,79.16918996649414L112.49489397951768,174.4250342983918L113.27416649368371,243.46249602825102L114.05343900784976,104.03146418512068L114.8327115220158,58.498445154029625L115.61198403618184,308.22571780251513L116.39125655034789,22.273809207044327L117.17052906451391,-96.06603253067037L117.94980157867995,89.36240361588843L118.72907409284599,180.50856752283377L119.50834660701204,118.44894683316093L120.28761912117808,-166.7775213183246L121.06689163534412,-31.92744771827004L121.84616414951014,69.65489207702907L122.6254366636762,-38.24791220410862L123.40470917784224,66.54032294994256L124.18398169200827,325.66299707308326L124.96325420617433,194.7459824122126L125.74252672034036,125.19761072595998L126.52179923450639,250.89955293143512L127.30107174867243,256.46872992659064L128.08034426283848,42.991940271788174L128.8596167770045,440.46868595898354L129.63888929117056,159.39066880249712L130.4181618053366,279.7362413639621L131.19743431950263,125.79295436823293L131.97670683366866,150.3364483442531L132.7559793478347,87.87705999898742L133.53525186200076,144.43642915136562L134.3145243761668,59.48580233788607L135.09379689033284,101.74055427947117L135.87306940449886,196.59059997821322L136.65234191866492,36.03822314185314L137.43161443283094,236.406252279748L138.210886946997,-238.68572836808758L138.99015946116305,246.9191077399719L139.76943197532907,81.24212311165876L140.5487044894951,-70.13282901053107L141.32797700366115,146.87725192786243L142.1072495178272,236.56219612815815L142.88652203199322,88.12346851083991L143.66579454615928,114.55810473691677L144.4450670603253,115.29043772668817L145.22433957449135,-13.787990345744703L146.00361208865738,304.25302672506126L146.78288460282343,114.20227706071022L147.56215711698948,174.3931562741312L148.3414296311555,175.54765769330018L149.12070214532153,-6.238068005313448L149.89997465948758,227.64324188096603L150.67924717365364,-26.934659864475766L151.45851968781966,237.2772977534643L152.2377922019857,237.89159589664897L153.01706471615176,269.3870838661577L153.7963372303178,399.0539630350774L154.5756097444838,365.4657258512691L155.35488225864987,201.50929296480706L156.1341547728159,-48.05945113059855L156.91342728698194,245.76719102547267L157.692699801148,65.30741882245688L158.47197231531402,396.69757394446015L159.25124482948004,81.5979507878653L160.0305173436461,102.56507506913144L160.80978985781215,423.25799913113303L161.58906237197817,210.58936046974887L162.3683348861442,166.64248853768024L163.14760740031025,292.042020296791L163.9268799144763,157.75627388297204L164.70615242864233,294.1175381466254L165.48542494280838,32.21113709413029L166.26469745697443,314.0654272197744L167.04396997114046,71.34873520395912L167.82324248530648,106.14661417322506L168.60251499947253,178.70013582221011L169.38178751363859,124.95895632811684L170.1610600278046,272.76012346022236L170.94033254197066,180.10018418500837L171.7196050561367,104.03491045801373L172.49887757030274,122.14593607917149L173.27815008446876,64.6879512699326L174.05742259863482,-0.257922967662763L174.83669511280087,55.294272931724045L175.6159676269669,164.37484097405874L176.39524014113294,240.19973716676373L177.174512655299,37.968135961956534L177.95378516946502,48.1863350898254L178.73305768363105,100.11477504217874L179.51233019779707,474.8969521604708L180.29160271196312,126.36503566847787L181.07087522612917,-0.3156480386211893L181.8501477402952,-56.58380713153738L182.62942025446125,164.4954605253152L183.4086927686273,255.9776360393322L184.18796528279333,94.86523985785287L184.96723779695938,21.953305827991443L185.74651031112543,126.00059231003871L186.52578282529146,260.70850715325525L187.30505533945748,131.54478382671965L188.0843278536235,135.07118256452463L188.86360036778956,343.96356770335825L189.6428728819556,188.4642884964207L190.42214539612164,105.40652706944437L191.2014179102877,27.645687079073216L191.98069042445374,135.45544199209877L192.75996293861976,207.2628455597403L193.53923545278582,196.47945767741257L194.31850796695187,72.17842540295891L195.0977804811179,318.4430553621607L195.87705299528395,18.806858676644335L196.65632550944994,373.90650973455166L197.435598023616,385.27059459935685L198.21487053778202,180.93849006624077L198.99414305194807,-98.51891726229282L199.77341556611415,210.72893452191707L200.5526880802802,-166.39498502719698L201.33196059444623,283.6477610975645L202.11123310861225,205.30536255649255L202.89050562277828,105.5254234842543L203.66977813694433,149.892740709274L204.44905065111038,73.90156184947979L205.2283231652764,180.876457154166L206.00759567944246,273.4011302183281L206.7868681936085,-4.9620854666647425L207.56614070777454,290.3292226689492L208.3454132219406,231.1222543664917L209.12468573610664,361.51629711584326L209.90395825027267,164.86076545197764L210.6832307644387,94.80665321867114L211.46250327860471,148.51078527916425L212.24177579277077,168.82053300608266L213.02104830693682,220.2673563216334L213.80032082110284,35.508358684548L214.5795933352689,360.16621970999415L215.35886584943495,-63.65642067628235L216.13813836360097,218.8724773681747L216.91741087776703,156.63968146562652L217.69668339193308,138.00396079650318L218.4759559060991,89.02380730414706L219.25522842026515,320.47980264194837L220.03450093443115,249.70972721511248L220.8137734485972,351.30326739731396L221.59304596276326,211.67062858994072L222.37231847692928,165.6895940827542L223.15159099109533,22.121311631527234L223.93086350526139,-17.645231281281706L224.7101360194274,186.03121983393322L225.48940853359346,258.8897366339525L226.26868104775951,159.83954584681578L227.04795356192554,230.87326114996947L227.8272260760916,64.61471797095547L228.6064985902576,180.4275801098473L229.38577110442364,86.34777640270013L230.1650436185897,145.41430908476622L230.94431613275572,246.93806224088362L231.72358864692177,104.6871176030219L232.50286116108782,83.09621792811522L233.28213367525385,58.01338224433399L234.0614061894199,-59.7690248529312L234.84067870358595,-1.2935279720218058L235.61995121775198,169.97072658413532L236.39922373191803,106.29738861229566L237.17849624608405,-18.105308712502758L237.95776876025008,202.8826327126842L238.7370412744161,-153.96686340666503L239.51631378858215,228.9967655597082L240.2955863027482,192.60412380918714L241.07485881691423,-75.71923737015173L241.85413133108028,175.04277871446956L242.63340384524633,209.45467511971484L243.41267635941236,58.832733624654644L244.1919488735784,267.6191458720273L244.97122138774446,16.864022333192022L245.7504939019105,171.93251742849935L246.52976641607654,111.1971270979778L247.30903893024254,210.9546653964113L248.0883114444086,83.60540474806214L248.86758395857464,150.49756160200283L249.64685647274067,271.96317285370645L250.42612898690672,155.32148208403805L251.20540150107277,226.4534161646434L251.9846740152388,332.0075854691731L252.76394652940485,160.9242602399007L253.5432190435709,566.0749940916768L254.32249155773692,-86.73869494565281L255.10176407190298,151.63397008848335L255.88103658606897,228.74432607029286L256.660309100235,335.6408186666624L257.43958161440105,227.15990210771693L258.2188541285671,237.45047296633967L258.99812664273315,64.22098129292546L259.7773991568992,293.08796411982917L260.55667167106526,116.7482111604448L261.33594418523126,73.18904492884342L262.1152166993973,-21.65066195121949L262.89448921356336,340.353596847897L263.6737617277294,233.58289321212354L264.45303424189547,261.19529319939744L265.23230675606146,-11.316151113210513L266.0115792702275,-33.373159196901064L266.79085178439357,326.00245495304785L267.57012429855956,107.83873416370858L268.3493968127256,413.9771862301715L269.12866932689167,-283.5984182784311L269.9079418410577,356.7828412972504L270.6872143552238,158.89268236945256L271.4664868693898,148.18511249077181L272.2457593835558,60.9728690912336L273.0250318977219,-19.512249621087104L273.80430441188787,23.627332885786508L274.5835769260539,293.71690892280935L275.36284944022,157.1600686724758L276.142121954386,188.61506293549127L276.9213944685521,473.4676104780818L277.70066698271813,60.68941314578091L278.4799394968841,275.9608494096349L279.2592120110502,23.37058555525488L280.03848452521623,264.7871711221702L280.8177570393823,-215.47680356989778L281.59702955354834,340.5026481505211L282.3763020677144,111.0773691149446L283.1555745818804,255.55805231460434L283.93484709604644,-29.544350012731687L284.71411961021244,-51.81158074289775L285.4933921243785,2.0097245959587404L286.27266463854454,185.6771152941732L287.0519371527106,107.46998296415309L287.83120966687665,267.370152655505L288.6104821810427,99.33850207302106L289.3897546952087,61.83099104160101L290.16902720937475,103.48867620446663L290.9482997235408,-30.2852986847356L291.72757223770685,148.69171460604895L292.50684475187285,349.2199954334702L293.2861172660389,33.93427354065117L294.06538978020495,31.369384940004835L294.84466229437095,-73.27152204786887L295.623934808537,126.67175395595858L296.40320732270305,100.02000253762007L297.1824798368691,332.52021856201304L297.96175235103516,206.72867326131882L298.7410248652012,119.9885692481273L299.5202973793672,61.8068671313497L300.29956989353326,99.73482345572086L301.07884240769926,38.10598687767822L301.8581149218653,214.65165464242185L302.63738743603136,63.11731239892885L303.4166599501974,-5.182646931819394L304.19593246436347,63.069064578426264L304.9752049785295,395.8592680632277L307.3130225210276,-73.80569434629031L308.0922950351937,97.7807867253662L308.8715675493597,230.9284015162581L309.6508400635258,253.84783939143236L310.4301125776918,217.47759841471608L311.2093850918578,29.770314317633463L311.9886576060238,180.52666045552226L312.7679301201899,372.0257063031741L313.5472026343559,351.4462877223752L314.326475148522,-32.76575359950249L315.10574766268803,-17.738280649393847L315.8850201768541,223.64728846148412L316.6642926910201,-21.46628635144173L317.44356520518613,241.3542385859327L318.2228377193522,221.44425851460716L319.0021102335182,228.24892434191813L319.78138274768423,279.8732307114605L320.5606552618503,72.1672250160565L321.33992777601634,164.46616720572436L322.1192002901824,241.01736541063784L322.8984728043484,-63.04298410132087L323.67774531851444,-44.12036121385181L324.4570178326805,205.9084603127749L325.23629034684654,200.06530462262256L326.0155628610126,354.26620051710665L326.79483537517865,35.89261811212214L327.57410788934465,134.2759550944552L328.3533804035107,25.044612613049907L329.1326529176767,14.961679696232991L329.91192543184275,132.05914005600613L330.6911979460088,281.75058786994504L331.47047046017485,70.31743804071634L332.2497429743409,249.87256360930868L333.02901548850696,17.798823855429614L333.80828800267295,38.53677098930843L334.587560516839,121.81250917676968L335.36683303100506,342.12928895603676L336.1461055451711,144.90856853771237L336.92537805933716,52.246906126051826L337.70465057350316,177.90663148858724L338.4839230876692,251.7413050855606L339.2631956018352,242.15205076067187L340.04246811600126,125.1424703596713L340.8217406301673,153.5862836823915L341.60101314433336,202.12100640332199L342.3802856584994,309.06230054730105L343.15955817266547,32.15858143251138L343.93883068683147,272.87557360213924L344.7181032009975,183.3482963867002L345.49737571516357,337.23471987969424L346.27664822932957,248.16148911791342L347.0559207434956,14.801428006706548L347.8351932576617,441.6094022865804L348.6144657718277,63.053556350407554L349.3937382859938,130.00429984352996L350.1730108001598,-7.471833701022431L350.9522833143258,56.41775789485566L351.7315558284919,222.08698840915943L352.51082834265793,296.3162602523861L353.290100856824,361.09412868644563L354.06937337099004,-43.00463036472954L354.84864588515603,299.7608100089813L355.6279183993221,-186.09818872493997L356.40719091348814,220.8678693732459L357.1864634276542,244.16036628909194L357.96573594182024,256.79526428320634L358.7450084559863,198.14659218942157L359.5242809701523,300.0192804759594L360.3035534843183,311.67543696844996L361.08282599848434,174.45605075442919L361.8620985126504,14.61102142936596L362.6413710268164,36.05976234743468L363.42064354098244,182.814985656502L364.1999160551485,196.45274906249153L364.97918856931454,179.82189764889523L365.7584610834806,16.745987486605344L366.53773359764665,257.82139203710955L367.31700611181265,307.0617391328903L368.0962786259787,196.18307820861102L368.87555114014475,310.21163255713043L369.6548236543108,179.50484054273537L370.43409616847686,2.1630837396991334L371.2133686826429,21.000411373065404L371.9926411968089,267.19525430618313L372.77191371097496,84.81590810174306L373.551186225141,216.4730098663944L374.33045873930706,317.0498995451486L375.1097312534731,222.85292255963802L375.8890037676391,260.026145120433L376.66827628180516,243.1471620585377L377.4475487959712,78.91244263596252L378.2268213101372,23.24307345821233L379.0060938243032,101.04182245040697L379.78536633846926,311.02839923278134L380.5646388526353,155.25341819440047L381.34391136680136,136.09731031842782L382.1231838809674,-197.27272858062793L382.90245639513347,-31.24250098077803L383.68172890929947,344.59337407456167L384.4610014234655,118.63073772826885L385.24027393763157,400.1292001777065L386.0195464517976,-31.215792365856927L386.7988189659637,254.56897199430136L387.57809148012973,340.98857262843995L388.3573639942957,-12.029529602070149L389.1366365084618,469.237310501873L389.91590902262783,219.06029924084552L390.6951815367939,125.1622864288063L391.47445405095993,299.93570835830315L392.253726565126,160.11007826891958L393.032999079292,15.631979773929602L393.81227159345804,31.365077098888527L394.5915441076241,176.18694131495943L395.37081662179014,379.2430633094268L396.1500891359561,-19.294272860602153L396.92936165012213,136.2058679145586L397.7086341642882,3.4838678259573865L398.48790667845424,361.98412866107367L399.2671791926203,76.25622780365056L400.04645170678634,359.0961519767047L400.82572422095234,213.6306962978582L401.6049967351184,187.1167957952414L402.38426924928444,189.0510164564611L403.1635417634505,-48.96065149212899L403.94281427761643,186.4172023979539L404.7220867917825,136.35750392185247L405.50135930594854,89.33052559162776L406.2806318201146,193.88269105250563L407.05990433428065,179.89771565254216L407.8391768484467,118.12672031766152L408.6184493626127,349.4638192406529L409.39772187677875,175.18407590308425L410.1769943909448,226.64726901487694L410.95626690511085,162.05377618059512L411.7355394192769,-7.115144456592571L412.5148119334429,170.11030063630355L413.29408444760895,167.48510226002895L414.073356961775,221.52438435937037L414.85262947594106,215.23752103423894L415.6319019901071,279.83359857319056L416.41117450427316,178.2297195723099L417.19044701843916,141.49934307827075L417.9697195326052,190.79052269922389L418.74899204677126,106.62047669601833L419.5282645609373,71.65286878677004L420.30753707510337,145.0705433636853L421.0868095892694,-114.16499619670243L421.86608210343536,-94.99251852448783L422.6453546176014,246.1178492923397L423.42462713176747,140.4292753449813L424.2038996459335,93.85892817308468L424.9831721600995,268.3040926095193L425.76244467426557,354.7676332230442L426.5417171884316,242.7741030178659L427.32098970259767,270.9051670755426L428.1002622167637,223.17256437046763L428.8795347309298,217.1570950356632L429.6588072450958,75.33607294120841L430.4380797592618,-47.37105812021349L431.2173522734279,-51.539325184347504L431.99662478759393,38.44975259875912L432.77589730176,171.1579675957882L433.55516981592604,301.02645372895086L434.33444233009203,-14.609064862511923L435.1137148442581,-82.35934366682002L435.89298735842414,287.39299816407765L436.6722598725902,336.64885348787715L437.45153238675624,262.01636771616467L438.2308049009223,245.99636817285995L439.0100774150883,301.12122623350956L439.7893499292543,189.4964472278867L440.56862244342034,157.12646751176865L441.3478949575864,205.280377078018L442.1271674717524,223.3345391964406L442.90643998591844,312.6300545598225L443.6857125000845,137.0691592742656L444.46498501425054,188.8545789015577L445.2442575284166,190.36318486048674L446.02353004258265,-47.28231659321766L446.80280255674865,94.28798914826837L447.5820750709147,87.4850464574039L448.36134758508075,107.39502652872945L449.1406200992468,-91.80040825730791L449.91989261341286,61.84649926961968L450.6991651275789,232.19232209978114L451.4784376417449,90.63493988164409L452.25771015591096,435.70249054790685L453.036982670077,195.9125457865072L453.81625518424306,168.7826240042592L454.5955276984091,140.12083392105407L455.3748002125751,473.95956593356345L456.15407272674116,53.03265634566537L456.9333452409072,125.93338998862437L457.7126177550732,210.46098680448304L458.4918902692392,81.11202630994642L459.27116278340526,89.72598540610434L460.0504352975713,-136.57610882015305L460.82970781173736,314.34629846055736L461.6089803259034,-29.03085535166843L462.38825284006947,-104.88762956863403L463.16752535423547,7.7046905517102555L463.9467978684015,-74.43463914927042L465.5053428967336,-11.299781316968549L466.2846154108997,96.60388453239241L467.0638879250657,289.48402424193074L467.8431604392317,117.86566514601358L468.6224329533978,82.91701173767704L469.40170546756383,296.15514699463637L470.1809779817299,165.03135596018322L470.96025049589593,213.43684344762463L471.739523010062,182.4488191616163L472.518795524228,23.577361928837394L473.29806803839404,19.56676184956004L474.0773405525601,219.87017337071035L474.85661306672614,250.3145481078413L475.6358855808922,109.9202829911058L476.41515809505813,157.72611899515792L477.1944306092242,121.04915973096094L477.97370312339024,61.786189493991465L478.7529756375563,166.37023297912995L479.53224815172234,390.22978129244393L480.31152066588834,228.9511024438754L481.0907931800544,76.7783381469464L481.87006569422044,-36.04574382545498L482.6493382083865,227.89137352926505L483.42861072255255,-40.193333252230715L484.2078832367186,460.12019556333104L484.9871557508846,285.07624121173035L485.76642826505065,112.38867595074699L486.5457007792167,8.381883175193L487.32497329338275,99.00938301173557L488.1042458075488,228.0628256056939L488.88351832171486,140.23197622185467L489.66279083588086,174.36300138631708L490.4420633500469,66.97886117558213L491.22133586421296,-22.162433475836224L492.77988089254507,-132.9704458058081L493.55915340671106,134.3793432812465L494.33842592087706,-117.24337945841201L495.1176984350431,241.5265522305848L495.89697094920916,70.37688624812134L496.67624346337516,-13.04445696907092L497.4555159775412,162.00897463298557L498.23478849170726,-5.219694365419631L499.0140610058733,133.0111729427089L499.79333352003937,201.7591477495526L500.5726060342054,156.70085280947802L501.3518785483714,68.95874495263463L502.13115106253747,252.71918501896118L502.9104235767035,183.40429832121214L503.6896960908696,203.9475310366341L504.4689686050356,-147.81440472436225L505.2482411192017,-98.3173102980499L506.0275136333677,283.1514978009665L506.8067861475337,-40.231242254054216L507.5860586616998,212.32542043961865L508.36533117586583,6.67339338846752L509.1446036900319,158.06213060222953L509.92387620419794,102.24026384896224L510.70314871836393,369.0507112282558L511.48242123253,-144.90144256151868L512.261693746696,97.39049632022922L513.040966260862,63.68422428983419L513.8202387750281,247.6660873895387L514.5995112891941,222.34976671725389L515.3787838033602,263.63094656655466L516.1580563175262,323.541816107416L516.9373288316922,51.63605425576021L517.7166013458583,317.61508829960746L518.4958738600243,40.33141759835992L519.2751463741904,37.9061030498818L520.0544188883564,-5.916703058037303L520.8336914025224,133.06459017255108L521.6129639166885,-144.60678622916365L522.3922364308545,109.74796934645373L523.1715089450206,241.14660064412695L523.9507814591866,57.09322738189184L524.7300539733527,325.0219903149775L525.5093264875187,81.88140673331799L526.2885990016847,72.80909334238554L527.0678715158508,510.95961328148314L527.8471440300168,189.0286156826563L528.6264165441829,214.95751136167928L529.4056890583489,49.060826836434735L530.1849615725149,85.07868640983747L530.9642340866809,284.8375868138872L531.743506600847,-116.87118198596353L532.522779115013,117.68990522846849L533.302051629179,267.54849727771995L534.0813241433451,-1.348668338310448L534.8605966575111,270.04446042050546L535.6398691716772,43.897448474434924L536.4191416858432,147.8930408630865L537.1984142000092,141.26241181687413L537.9776867141753,333.2094731406214L538.7569592283413,159.34845195955737L539.5362317425074,251.5216051886292L540.3155042566734,41.05168863300565L541.0947767708395,260.8196494540559L541.8740492850055,274.55477006927384L542.6533217991715,44.11800993958958L543.4325943133376,282.85597990038815L544.2118668275036,142.22995293159562L544.9911393416697,134.10364144980315L545.7704118558357,145.72964305447954L546.5496843700017,172.5045987287443L547.3289568841678,290.5480609976574L548.1082293983338,54.18543462838783L548.8875019124998,306.99109053858297L549.6667744266658,235.82038588793088L550.4460469408319,30.751640523927083L551.2253194549979,171.03390177163874L552.004591969164,119.59397100187404L552.78386448333,225.94767561758948L553.5631369974961,234.3600277495044L554.3424095116621,249.37716188093393L555.1216820258281,115.16895660720844L555.9009545399942,340.2881176629292L556.6802270541602,169.1608524542705L557.4594995683264,235.66185733485096L558.2387720824923,-63.544416807258465L559.0180445966583,162.45612854085775L559.7973171108245,149.34478331928037L560.5765896249904,77.92163917921302L561.3558621391566,34.95781658988455L562.1351346533226,72.34470807004818L562.9144071674887,168.50347589992282L563.6936796816547,123.82599411452935L564.4729521958207,162.77835505635716L565.2522247099868,9.338223903012082L566.0314972241528,90.8899640757292L566.8107697383188,-127.59253695621643L567.5900422524847,131.99538400748483L568.3693147666509,185.33334957309225L569.1485872808169,46.85693532133453L569.927859794983,133.24379636298923L570.707132309149,65.13596674602805L571.486404823315,360.8589205614955L572.2656773374811,120.30648792251046L573.0449498516471,268.0619919387831L573.8242223658132,134.0433316741749L574.6034948799792,277.6546925365649L575.3827673941452,205.0460305212912L576.1620399083113,328.42518479685623L576.9413124224773,237.12910801906352L577.7205849366434,131.1252001019918L578.4998574508094,305.52470142259364L579.2791299649755,99.32730168611867L580.0584024791415,206.65199368944863L580.8376749933075,-197.7810538323516L581.6169475074736,49.060826836434735L582.3962200216396,253.19477067820094L583.1754925358057,76.89292672064002L583.9547650499717,318.15873784848475L584.7340375641377,309.68607594094163L585.5133100783037,-92.36818171643655L586.2925825924698,-70.4188696606535L587.0718551066358,39.095067197981194L587.8511276208018,53.820991269948664L588.6304001349679,194.24110343338197L589.4096726491339,284.8858346343898L590.1889451633,151.35740668881675L590.968217677466,358.32763312155635L591.7474901916321,40.061746744479414L592.5267627057981,-6.884244172758783L593.3060352199641,-23.122220476548353L594.0853077341302,148.26006892619546L594.8645802482962,64.25458245363261L595.6438527624623,148.99240191596684L596.4231252766283,254.01584519496814L597.2023977907943,225.5349844386477L597.9816703049604,85.76363314732953L598.7609428191264,295.3469960012181L599.5402153332925,-131.28694149755722L600.3194878474585,78.96241359291163L601.0987603616246,131.99538400748483L601.8780328757906,175.1642598339493L602.6573053899566,175.758741907999L603.4365779041226,61.163275668574144L604.2158504182887,173.3842598846932L604.9951229324547,152.65320529660048L605.7743954466207,299.34553412536974L606.5536679607868,208.79299072425084L607.3329404749528,58.60872588660695L608.1122129891189,221.4296118548117L608.8914855032849,103.8746587684873L609.6707580174509,79.57843487254281L610.450030531617,-32.30826087295114L611.229303045783,171.0080547249409L612.0085755599491,317.75983176111515L612.7878480741151,174.22084262947908L613.5671205882811,23.212918570398223L614.3463931024472,166.76913906649955L615.1256656166132,282.5406459306749L615.9049381307793,252.3728345932105L616.6842106449453,314.13090640474223L617.4634831591114,244.94267023581244L618.2427556732774,335.1436938018411L619.0220281874434,36.216567764068074L619.8013007016095,227.619979538938L620.5805732157755,-95.21824939898205L621.3598457299415,12.678523904592783L622.1391182441075,85.3724811739693L622.9183907582736,164.20941987519276L623.6976632724396,75.26456277867781L624.4769357866057,214.2691183512942L625.2562083007717,138.3313567213421L626.0354808149377,173.5066025723962L626.8147533291038,77.89665370073844L627.5940258432698,218.2047619951479L628.3732983574359,170.20593470908543L629.1525708716019,72.10691524042831L629.931843385768,298.62353995427753L630.711115899934,184.54587621703223L631.4903884141,-26.137709257959862L632.2696609282661,90.95802796536675L633.0489334424321,198.5420520038981L633.8282059565983,78.56781534665835L634.6074784707642,-0.993702230327111L635.3867509849302,121.11550048415197L636.1660234990964,99.53838590081749L636.9452960132624,160.2944538686973L637.7245685274285,293.26372403737435L638.5038410415943,32.06983990551555L639.2831135557605,-36.585085533215995L640.0623860699264,96.76930563125842L640.8416585840926,308.16368489044044L641.6209310982586,260.9368227324193L642.4002036124247,352.421582951106L643.1794761265907,147.84565461080717L643.9587486407567,305.1507808136986L644.7380211549228,156.2692071296245L645.5172936690888,46.4089198452391L646.2965661832549,37.78289879395555L647.0758386974209,32.01469953922691L647.8551112115869,186.75579870969526L648.634383725753,187.97577931383202L649.413656239919,-31.923139877153737L650.1929287540851,109.97542335739448L650.9722012682511,102.59781466161532L651.7514737824171,-159.5997964503418L652.5307462965832,167.56867437768523L653.3100188107492,64.73792222688172L654.0892913249153,99.90369082747992L654.8685638390813,350.3900050806579L655.6478363532474,128.5878816844898L656.4271088674133,128.9798952260733L657.2063813815794,266.76102392165984L657.9856538957454,166.3323239773065L658.7649264099115,115.62558776553645L659.5441989240775,41.54278252026411L660.3234714382435,40.80700325759972L661.1027439524096,82.43108725975814L661.8820164665756,-106.621104833834L662.6612889807417,234.04986318913066L663.4405614949077,117.02649769655793L664.2198340090737,268.3135698599752L664.9991065232398,524.7403970125339L665.7783790374058,312.2139171079877L666.5576515515719,135.64929484233238L667.3369240657379,105.83731118107457L668.116196579904,178.12460824907217L668.89546909407,275.0363867060764L669.674741608236,305.61947392715234L670.4540141224021,86.82939303950272L671.2332866365681,204.80306828233174L672.0125591507342,290.4851665173594L672.7918316649002,210.17322301791404L673.5711041790662,203.17298120392297L674.3503766932323,74.7217747980237L675.1296492073983,70.79819310929567L675.9089217215643,228.57115085741754L676.6881942357303,300.1407615954392L677.4674667498964,25.132492571822482L678.2467392640624,122.74644913078401L679.0260117782285,317.27993826075914L679.8052842923945,248.2941706242956L680.5845568065606,126.03850131186216L681.3638293207266,203.00325226394068L682.1431018348926,-14.618542112967798L682.9223743490587,332.1850685231648L683.7016468632247,238.6032512490621L684.4809193773908,358.96605517499233L685.2601918915568,265.8701623788086L686.0394644057228,159.38205312026452L686.8187369198889,110.57938268190006L687.5980094340549,47.98214342091267L688.377281948221,175.8897002779346L689.156554462387,85.3225102170202L689.9358269765531,213.9365530171157L690.7150994907191,208.76628210932975L691.4943720048851,109.90735946775692L692.2736445190512,102.94847292848232L693.0529170332171,194.7933686644919L693.8321895473833,139.02319600462027L694.6114620615492,108.93895678481218L695.3907345757153,151.49698074098492L696.1700070898813,135.3632541922099L696.9492796040474,1.1929579203078686L697.7285521182134,139.78568388220575L698.5078246323795,176.10767703841947L699.2870971465455,199.8843752957379L700.0663696607116,99.61506547268766L700.8456421748776,282.61904863899156L701.6249146890435,133.05338978564868L702.4041872032096,-62.72506542693777L703.1834597173756,244.19396744979915L703.9627322315417,-27.84361434001556L704.7420047457077,269.07088832822114L705.5212772598738,-106.01369923643543L706.3005497740398,116.23040865826528L707.079822288206,455.3979401316405L707.8590948023719,146.80057235599227L708.638367316538,99.93298414707075L709.417639830704,11.822125090671932L710.1969123448702,-5.709065116231571L710.976184859036,319.6940524223349L711.7554573732021,-184.75845013777L712.5347298873681,102.52199665796842L713.3140024015343,-18.38962622617875L714.0932749157002,515.3294873098602L714.8725474298664,156.16409580638674L715.6518199440324,63.12765121760795L716.4310924581985,170.92017476616832L717.2103649723645,208.94290359509816L717.9896374865306,210.1008512871602L718.7689100006966,236.39419032462234L719.5481825148627,308.6203160487684L720.3274550290286,-38.52619874022178L721.1067275431946,67.13049718287598L721.8860000573607,213.8598734452455L722.6652725715267,-20.978638737076317L723.4445450856928,145.94761981496444L724.2238175998588,305.07410124182843L725.0030901140249,165.963572777751L725.7823626281909,191.87868336520185L726.561635142357,22.25571627435588L727.3409076565229,388.2145732182378L728.1201801706891,71.82862870431518L728.899452684855,294.7102970842286L729.6787251990211,52.17108812240491L730.4579977131871,325.685397846888L731.2372702273532,357.44538726093765L732.0165427415192,153.96020429128654L732.7958152556853,209.96300037143848L733.5750877698513,56.84251102892304L734.3543602840174,211.78349402718783L735.1336327981834,264.34001721429803L735.9129053123495,121.26972119611563L736.6921778265154,120.5528964343629L737.4714503406815,82.34579200565535L738.2507228548475,143.9487815370002L739.0299953690135,-12.200120110275726L739.8092678831796,71.68216210636088L740.5885403973456,278.157848378949L741.3678129115117,-60.728811853643336L742.1470854256777,144.19519004885268L742.9263579398438,70.71031315052309L743.7056304540097,-205.41454829043914L744.4849029681759,-40.4828201752462L745.2641754823418,96.14466866939462L746.0434479965079,132.29607131740275L746.8227205106739,-11.10420533028839L747.60199302484,157.32204349844878L748.381265539006,293.6979544218976L749.1605380531721,154.9130987462126L749.9398105673381,217.28719183737553L750.7190830815042,268.1154091686253L751.4983555956702,229.085507086704L752.2776281098363,42.300962556733296L753.0569006240022,76.42423360718635L753.8361731381684,112.51446491134301L754.6154456523343,-64.43613991833303L755.3947181665004,56.49357589850258L756.1739906806664,147.57426062048015L756.9532631948324,324.5929293397937L757.7325357089985,189.0510164564611L758.5118082231645,119.51126045244104L759.2910807373306,169.65883888731506L760.0703532514966,77.66316871223486L760.8496257656627,348.643606292109L761.6288982798286,250.1723893510033L762.4081707939947,-95.04335104966025L763.1874433081607,267.2977809247511L763.9667158223268,-35.19623755732013L764.7459883364928,23.848755919164425L765.5252608506589,80.28836708850945L766.3045333648249,128.43107626785638L767.083805878991,476.43829771188376L767.863078393157,202.2123326349876L768.6423509073231,101.55790181613997L769.421623421489,348.2834707747861L770.2008959356552,221.0100281300839L770.9801684498211,-19.55791273691987L772.5387134781532,-47.88024494016036L773.3179859923193,45.23201765226532L774.0972585064853,49.47524115182302L774.8765310206513,148.03003021058493L775.6558035348174,283.8140437646538L776.4350760489834,50.72709978022041L777.2143485631495,268.2989232001798L777.9936210773154,21.2623281129366L778.7728935914815,338.70197056390674L779.5521661056475,199.5897189633828L780.3314386198136,184.43214921156186L781.1107111339796,-79.50841441605118L781.8899836481457,97.21042856156777L782.6692561623117,408.6750953842267L783.4485286764778,47.62028476714328L784.2278011906438,217.2441134262125L785.00707370481,271.80550586884976L785.786346218976,147.067658505203L786.5656187331421,301.3848661098272L787.3448912473079,80.86561779809392L788.124163761474,353.5648839833726L788.90343627564,241.00358031906572L789.6827087898062,82.42850255508836L790.4619813039722,203.40905089709634L791.2412538181383,273.6906171413436L792.0205263323043,-60.248918353287266L792.7997988464703,286.3031143616532L793.5790713606364,118.1361975681174L794.3583438748022,238.10181854312458L795.1376163889685,224.37617517836247L795.9168889031343,335.4288728837403L796.6961614173005,145.74515128249826L797.4754339314665,157.37115288717465L798.2547064456326,65.99667340106524L799.0339789597987,160.4400588984283L799.8132514739647,331.8033938002604L800.5925239881308,129.74410624010528L801.3717965022968,9.930121272391995L802.1510690164629,41.04393451899634L802.9303415306289,232.19921464556722L803.709614044795,61.441562204687266L804.488886558961,87.86672118030829L805.2681590731271,297.53193301540654L806.047431587293,210.9322646226065L806.8267041014591,177.0933110858294L807.6059766156251,75.75910293882932L808.3852491297912,40.884544397693155L809.1645216439572,93.26272296258841L809.9437941581233,164.9296909098385L810.7230666722893,87.5160629134413L811.5023391864554,193.45966105488478L812.2816117006214,12.965426122938517L813.0608842147873,457.6466331943503L813.8401567289534,92.649286387627" style="fill: none;" fill="none"></path></g></g></g></g></g></g><g transform="translate(61, 374)" clip-path="url(#clip_1)"><clipPath id="clip_1"><rect width="1382" height="26"></rect></clipPath><g><g><line x1="35.34691507707976" y1="0" x2="35.34691507707976" y2="5" style="visibility: inherit;" fill="rgb(0, 0, 0)" stroke="rgb(204, 204, 204)" stroke-width="1px"></line><line x1="191.2014179102877" y1="0" x2="191.2014179102877" y2="5" style="visibility: inherit;" fill="rgb(0, 0, 0)" stroke="rgb(204, 204, 204)" stroke-width="1px"></line><line x1="347.0559207434956" y1="0" x2="347.0559207434956" y2="5" style="visibility: inherit;" fill="rgb(0, 0, 0)" stroke="rgb(204, 204, 204)" stroke-width="1px"></line><line x1="502.9104235767035" y1="0" x2="502.9104235767035" y2="5" style="visibility: inherit;" fill="rgb(0, 0, 0)" stroke="rgb(204, 204, 204)" stroke-width="1px"></line><line x1="658.7649264099115" y1="0" x2="658.7649264099115" y2="5" style="visibility: inherit;" fill="rgb(0, 0, 0)" stroke="rgb(204, 204, 204)" stroke-width="1px"></line><line x1="814.6194292431194" y1="0" x2="814.6194292431194" y2="5" style="visibility: inherit;" fill="rgb(0, 0, 0)" stroke="rgb(204, 204, 204)" stroke-width="1px"></line><line x1="970.4739320763274" y1="0" x2="970.4739320763274" y2="5" style="visibility: inherit;" fill="rgb(0, 0, 0)" stroke="rgb(204, 204, 204)" stroke-width="1px"></line><line x1="1126.3284349095354" y1="0" x2="1126.3284349095354" y2="5" style="visibility: inherit;" fill="rgb(0, 0, 0)" stroke="rgb(204, 204, 204)" stroke-width="1px"></line><line x1="1282.1829377427434" y1="0" x2="1282.1829377427434" y2="5" style="visibility: inherit;" fill="rgb(0, 0, 0)" stroke="rgb(204, 204, 204)" stroke-width="1px"></line></g><g transform="translate(0, 8)"><text x="35.34691507707976" y="0" dx="0em" dy="0.95em" style="text-anchor: middle; visibility: inherit; font-family: Roboto, sans-serif; font-size: 12px; font-weight: 200;" fill="rgb(33, 33, 33)" stroke="none" stroke-width="1px">0</text><text x="191.2014179102877" y="0" dx="0em" dy="0.95em" style="text-anchor: middle; visibility: inherit; font-family: Roboto, sans-serif; font-size: 12px; font-weight: 200;" fill="rgb(33, 33, 33)" stroke="none" stroke-width="1px">200</text><text x="347.0559207434956" y="0" dx="0em" dy="0.95em" style="text-anchor: middle; visibility: inherit; font-family: Roboto, sans-serif; font-size: 12px; font-weight: 200;" fill="rgb(33, 33, 33)" stroke="none" stroke-width="1px">400</text><text x="502.9104235767035" y="0" dx="0em" dy="0.95em" style="text-anchor: middle; visibility: inherit; font-family: Roboto, sans-serif; font-size: 12px; font-weight: 200;" fill="rgb(33, 33, 33)" stroke="none" stroke-width="1px">600</text><text x="658.7649264099115" y="0" dx="0em" dy="0.95em" style="text-anchor: middle; visibility: inherit; font-family: Roboto, sans-serif; font-size: 12px; font-weight: 200;" fill="rgb(33, 33, 33)" stroke="none" stroke-width="1px">800</text><text x="814.6194292431194" y="0" dx="0em" dy="0.95em" style="text-anchor: middle; visibility: inherit; font-family: Roboto, sans-serif; font-size: 12px; font-weight: 200;" fill="rgb(33, 33, 33)" stroke="none" stroke-width="1px">1k</text><text x="970.4739320763274" y="0" dx="0em" dy="0.95em" style="text-anchor: middle; visibility: inherit; font-family: Roboto, sans-serif; font-size: 12px; font-weight: 200;" fill="rgb(33, 33, 33)" stroke="none" stroke-width="1px">1.2k</text><text x="1126.3284349095354" y="0" dx="0em" dy="0.95em" style="text-anchor: middle; visibility: inherit; font-family: Roboto, sans-serif; font-size: 12px; font-weight: 200;" fill="rgb(33, 33, 33)" stroke="none" stroke-width="1px">1.4k</text><text x="1282.1829377427434" y="0" dx="0em" dy="0.95em" style="text-anchor: middle; visibility: inherit; font-family: Roboto, sans-serif; font-size: 12px; font-weight: 200;" fill="rgb(33, 33, 33)" stroke="none" stroke-width="1px">1.6k</text></g><line x1="0" y1="0" x2="1382.59375" y2="0" fill="rgb(0, 0, 0)" stroke="rgb(204, 204, 204)" stroke-width="1px"></line></g></g></g></g></svg>