<svg viewBox="0 0 1444 400" xmlns="http://www.w3.org/2000/svg"><g><g><g><g><g><line x1="30.5625" y1="333.671731933763" x2="25.5625" y2="333.671731933763" style="visibility: inherit;" fill="rgb(0, 0, 0)" stroke="rgb(204, 204, 204)" stroke-width="1px"></line><line x1="30.5625" y1="283.457384168246" x2="25.5625" y2="283.457384168246" style="visibility: inherit;" fill="rgb(0, 0, 0)" stroke="rgb(204, 204, 204)" stroke-width="1px"></line><line x1="30.5625" y1="233.24303640272896" x2="25.5625" y2="233.24303640272896" style="visibility: inherit;" fill="rgb(0, 0, 0)" stroke="rgb(204, 204, 204)" stroke-width="1px"></line><line x1="30.5625" y1="183.02868863721199" x2="25.5625" y2="183.02868863721199" style="visibility: inherit;" fill="rgb(0, 0, 0)" stroke="rgb(204, 204, 204)" stroke-width="1px"></line><line x1="30.5625" y1="132.81434087169495" x2="25.5625" y2="132.81434087169495" style="visibility: inherit;" fill="rgb(0, 0, 0)" stroke="rgb(204, 204, 204)" stroke-width="1px"></line><line x1="30.5625" y1="82.59999310617795" x2="25.5625" y2="82.59999310617795" style="visibility: inherit;" fill="rgb(0, 0, 0)" stroke="rgb(204, 204, 204)" stroke-width="1px"></line><line x1="30.5625" y1="32.38564534066092" x2="25.5625" y2="32.38564534066092" style="visibility: inherit;" fill="rgb(0, 0, 0)" stroke="rgb(204, 204, 204)" stroke-width="1px"></line></g><g transform="translate(20.5625, 0)"><text x="0" y="333.671731933763" dx="0em" dy="0.3em" style="text-anchor: end; visibility: inherit; font-family: Roboto, sans-serif; font-size: 12px; font-weight: 200;" fill="rgb(33, 33, 33)" stroke="none" stroke-width="1px">2</text><text x="0" y="283.457384168246" dx="0em" dy="0.3em" style="text-anchor: end; visibility: inherit; font-family: Roboto, sans-serif; font-size: 12px; font-weight: 200;" fill="rgb(33, 33, 33)" stroke="none" stroke-width="1px">4</text><text x="0" y="233.24303640272896" dx="0em" dy="0.3em" style="text-anchor: end; visibility: inherit; font-family: Roboto, sans-serif; font-size: 12px; font-weight: 200;" fill="rgb(33, 33, 33)" stroke="none" stroke-width="1px">6</text><text x="0" y="183.02868863721199" dx="0em" dy="0.3em" style="text-anchor: end; visibility: inherit; font-family: Roboto, sans-serif; font-size: 12px; font-weight: 200;" fill="rgb(33, 33, 33)" stroke="none" stroke-width="1px">8</text><text x="0" y="132.81434087169495" dx="0em" dy="0.3em" style="text-anchor: end; visibility: inherit; font-family: Roboto, sans-serif; font-size: 12px; font-weight: 200;" fill="rgb(33, 33, 33)" stroke="none" stroke-width="1px">10</text><text x="0" y="82.59999310617795" dx="0em" dy="0.3em" style="text-anchor: end; visibility: inherit; font-family: Roboto, sans-serif; font-size: 12px; font-weight: 200;" fill="rgb(33, 33, 33)" stroke="none" stroke-width="1px">12</text><text x="0" y="32.38564534066092" dx="0em" dy="0.3em" style="text-anchor: end; visibility: inherit; font-family: Roboto, sans-serif; font-size: 12px; font-weight: 200;" fill="rgb(33, 33, 33)" stroke="none" stroke-width="1px">14</text></g><line x1="30.5625" y1="0" x2="30.5625" y2="374" fill="rgb(0, 0, 0)" stroke="rgb(204, 204, 204)" stroke-width="1px"></line></g></g><g transform="translate(30, 0)" clip-path="url(#clip_0)"><clipPath id="clip_0"><rect width="1413" height="374"></rect></clipPath><g><g><g><line x1="54.35782532641898" y1="0" x2="54.35782532641898" y2="374" fill="rgb(0, 0, 0)" stroke="rgb(66, 66, 66)" stroke-width="1px" opacity="0.25"></line><line x1="157.15115734599328" y1="0" x2="157.15115734599328" y2="374" fill="rgb(0, 0, 0)" stroke="rgb(66, 66, 66)" stroke-width="1px" opacity="0.25"></line><line x1="259.94448936556756" y1="0" x2="259.94448936556756" y2="374" fill="rgb(0, 0, 0)" stroke="rgb(66, 66, 66)" stroke-width="1px" opacity="0.25"></line><line x1="362.7378213851419" y1="0" x2="362.7378213851419" y2="374" fill="rgb(0, 0, 0)" stroke="rgb(66, 66, 66)" stroke-width="1px" opacity="0.25"></line><line x1="465.5311534047162" y1="0" x2="465.5311534047162" y2="374" fill="rgb(0, 0, 0)" stroke="rgb(66, 66, 66)" stroke-width="1px" opacity="0.25"></line><line x1="568.3244854242904" y1="0" x2="568.3244854242904" y2="374" fill="rgb(0, 0, 0)" stroke="rgb(66, 66, 66)" stroke-width="1px" opacity="0.25"></line><line x1="671.1178174438649" y1="0" x2="671.1178174438649" y2="374" fill="rgb(0, 0, 0)" stroke="rgb(66, 66, 66)" stroke-width="1px" opacity="0.25"></line><line x1="773.911149463439" y1="0" x2="773.911149463439" y2="374" fill="rgb(0, 0, 0)" stroke="rgb(66, 66, 66)" stroke-width="1px" opacity="0.25"></line><line x1="876.7044814830133" y1="0" x2="876.7044814830133" y2="374" fill="rgb(0, 0, 0)" stroke="rgb(66, 66, 66)" stroke-width="1px" opacity="0.25"></line><line x1="979.4978135025876" y1="0" x2="979.4978135025876" y2="374" fill="rgb(0, 0, 0)" stroke="rgb(66, 66, 66)" stroke-width="1px" opacity="0.25"></line><line x1="1082.291145522162" y1="0" x2="1082.291145522162" y2="374" fill="rgb(0, 0, 0)" stroke="rgb(66, 66, 66)" stroke-width="1px" opacity="0.25"></line><line x1="1185.0844775417363" y1="0" x2="1185.0844775417363" y2="374" fill="rgb(0, 0, 0)" stroke="rgb(66, 66, 66)" stroke-width="1px" opacity="0.25"></line><line x1="1287.8778095613106" y1="0" x2="1287.8778095613106" y2="374" fill="rgb(0, 0, 0)" stroke="rgb(66, 66, 66)" stroke-width="1px" opacity="0.25"></line><line x1="1390.6711415808848" y1="0" x2="1390.6711415808848" y2="374" fill="rgb(0, 0, 0)" stroke="rgb(66, 66, 66)" stroke-width="1px" opacity="0.25"></line></g><g><line x1="0" y1="333.671731933763" x2="1413.4375" y2="333.671731933763" fill="rgb(0, 0, 0)" stroke="rgb(66, 66, 66)" stroke-width="1px" opacity="0.25"></line><line x1="0" y1="283.457384168246" x2="1413.4375" y2="283.457384168246" fill="rgb(0, 0, 0)" stroke="rgb(66, 66, 66)" stroke-width="1px" opacity="0.25"></line><line x1="0" y1="233.24303640272896" x2="1413.4375" y2="233.24303640272896" fill="rgb(0, 0, 0)" stroke="rgb(66, 66, 66)" stroke-width="1px" opacity="0.25"></line><line x1="0" y1="183.02868863721199" x2="1413.4375" y2="183.02868863721199" fill="rgb(0, 0, 0)" stroke="rgb(66, 66, 66)" stroke-width="1px" opacity="0.25"></line><line x1="0" y1="132.81434087169495" x2="1413.4375" y2="132.81434087169495" fill="rgb(0, 0, 0)" stroke="rgb(66, 66, 66)" stroke-width="1px" opacity="0.25"></line><line x1="0" y1="82.59999310617795" x2="1413.4375" y2="82.59999310617795" fill="rgb(0, 0, 0)" stroke="rgb(66, 66, 66)" stroke-width="1px" opacity="0.25"></line><line x1="0" y1="32.38564534066092" x2="1413.4375" y2="32.38564534066092" fill="rgb(0, 0, 0)" stroke="rgb(66, 66, 66)" stroke-width="1px" opacity="0.25"></line></g></g></g><g><g><line x1="0" y1="383.88607969927995" x2="1413.4375" y2="383.88607969927995" fill="rgb(0, 0, 0)" stroke="rgb(153, 153, 153)" stroke-width="1.5px"></line></g></g><g><g><line x1="157.15115734599328" y1="0" x2="157.15115734599328" y2="374" fill="rgb(0, 0, 0)" stroke="rgb(153, 153, 153)" stroke-width="1.5px"></line></g></g><g><g><g><g><g><path stroke="rgb(255, 112, 67)" stroke-width="2px" d="M158.2304873321988,79.24839839924871L158.92434232333093,-423.55733331786917L162.4090362787945,-1.8077973925199768L162.70713694165127,23.10238156028273L164.2901542547527,62.03298933079216L165.6470262374111,99.92672821189814L166.85998755524207,58.785246718062595L167.27630054992136,41.5014382724743L167.99585387405835,59.01017891601512L174.9241244521777,99.01991752757925L175.67451577592055,136.15441801647265L176.8206614279388,164.66391873043017L178.66580173769017,186.78572816419364L178.8816677349313,211.5658974939056L179.1026733987734,231.5916163508578L179.7554110570977,248.4359632888456L180.12546705236815,262.78714370190056L180.24881905079164,264.4319242400497L180.5366403804464,277.49487999650756L180.79876337709635,285.91441584648567L181.65708769945977,296.35792800328363L181.83183636389305,300.7322396117392L182.17619402615867,274.6789330562107L182.67988135305455,282.08779592002674L183.5125073424131,291.37841693016804L183.98021700310215,298.1350309986329L184.0932896683237,305.01559139293397L184.12412766792957,309.82655666365844L184.25261933295403,303.9480798283051L184.32971433196872,306.7024545178107L185.0287089897018,310.9350869974663L186.48323463777882,319.1821754532451L186.6425643024091,326.28429075732373L187.34669862674323,332.41506371004135L188.26155928171747,334.61759286404214L189.38200660073082,335.42038813178345L190.17351525728154,338.6374670248494L190.57440925215786,335.719537873583L191.6537392383634,338.46028280066497L192.38357189570235,336.8202535291471L196.18692518042664,331.33528737643366L197.82647882613884,332.45775294391535L199.75899346810684,334.6788587278868L200.60189879066735,333.5619831482155L201.88167577431102,338.3791117566562L202.36994410140403,343.01929181523354L202.5909497652461,344.167560116705L203.3875980883978,340.23733003330443L205.73128605844408,343.5595181328729L205.83921905706467,346.49219883518333L207.1087167075064,346.3399202675392L208.50156635637163,348.06769012732485L209.3239130125282,348.6823391753025L209.75050534040946,351.0637126737892L211.22558965489034,347.394766635506L211.26156732109717,347.40778719268155L211.46201431853535,350.14852676116584L212.08905364385475,352.47893195706047L212.31519897429783,354.3307462670722L213.68235029015815,351.3219372588579L214.93642894079696,348.1867248880852L216.3292785896622,349.3571776101526L216.3498372560661,343.4505992973591L216.41665292187886,336.2378912991388L217.23385991143445,337.92694742988897L218.53933522808308,338.56992278791455L218.58559222749187,332.55922117608594L219.4233578834514,329.5783321930074L219.43363721665335,324.9838036284259L219.96302287655413,215.58648801497822L221.51006252344874,226.05134654707032L224.69151614945457,239.54668378868575L227.5131931133919,232.50848493101145L227.54917077959874,239.05857240469783L228.93174109526203,254.66027584166804L229.3480540899413,257.1785475940989L231.02872506846134,265.1670545319175L232.90984304441952,269.0205479571313L232.9612397104293,270.29352055215173L234.60079335614157,282.7608418727882L234.69330735495916,284.7592763666377L237.20660432283773,276.0232998596445L237.27855965525143,277.04458422852935L237.633196650719,282.5914420678841L238.90269430116072,292.54093959020867L238.91811330096363,293.58345117940155L239.6839236245095,293.8317597160654L239.8278342893369,298.443423798521L240.39319761544454,301.1358212889647L240.5011306140651,304.67713706556736L240.60392394608468,298.12279853679286L240.8403486097297,295.36083789106476L241.3234772702217,292.32565101366447L241.84258359692055,290.10283815865665L242.0224719279548,290.47743598429867L242.5312989214517,285.4205098832848L245.2553222199704,289.06225374231406L245.36839488519195,127.49094456017987L245.9183392114967,146.86478625227184L246.01085321031428,177.0662007572243L246.83319986647086,187.99886760688096L247.10046252972177,210.4403754131212L247.3831441927756,227.61947704747442L247.57845152361278,226.0701941109212L248.0924181837107,230.21652330730012L250.60057548498827,199.85772529419907L252.56392812656213,211.3613601136829L253.40169378252168,225.77925318488244L253.81800677720094,241.44999991860132L254.86135909719962,240.57033695932293L256.86582907158135,249.3747070436788L258.90627671216987,259.6148727711668L258.94225437837673,264.15906629508515L259.32772937345015,261.1278226207365L261.8564453411317,269.72789175450686L263.03342899275583,278.00747870342843L265.3411392965952,287.1822738552581L266.79052527807124,-34.126056406759545L269.1599115811224,22.252816820766135L269.81778890604767,69.93447167372081L269.92572190466825,-207.88187024129408L271.7194655484098,-56.46541325330589L272.9786838656496,6.311695727832115L273.0043821986545,52.684077940845725L273.79589085520524,96.61653658686303L273.94494118663357,134.64155208843403L274.67477384397256,149.1003553351066L275.0191315062381,178.8919354864825L275.6307518317546,195.36068363955462L275.9699698274192,216.41817184180212L278.11321080002733,224.87358736687557L279.9789097761826,229.65289494952586L280.15879810721685,249.81114918813205L282.0244970833721,262.3512739183704L283.03187173716395,261.7526659488937L286.42405169380993,250.34944898792588L286.5679623586373,259.57731353565424L288.0224880067143,271.2168323196811L288.089303672527,276.863049460047L289.2765666573531,273.7742766551154L289.51299132099814,272.9967659864403L289.54896898720494,282.46127394988986L291.1165673005035,273.2533108313772L291.2142209659221,274.9303930765369L292.7252829466098,276.44541141743133L292.76126061281667,263.9685946391929L293.9742219306477,243.30298697314424L294.8274065864101,214.91228739668202L294.99701558424243,206.96807122827607L295.6446135759657,227.59900076125714L295.73198790818236,226.7095708691256L297.33042422108673,241.0384406139905L298.56908387192266,240.6661657144773L299.0573521990156,241.4625277697761L299.6329948583252,249.47550732347858L300.5992521793092,259.7556473425391L302.8504261505379,271.87031392602745L303.91947680354144,277.3787353355611L304.274113799009,285.5412534463136L305.71322044728305,293.27378973925306L306.2785837733907,295.520716749293L307.172885761961,297.1181247579893L307.3938914258031,301.4494442449414L307.4658467582168,301.10020815364345L307.47098642481774,301.4842746600338L307.49668475782266,303.1319516321943L307.9181374191029,306.1175578250725L309.6296463972288,310.9296131692183L310.00484205910027,305.6510789947491L311.70093203742323,305.5462445243714L311.97847403387607,28.31587425041042L313.0886420196875,68.57008251170588L314.0497596740705,104.025739985764L315.05713432786234,138.11803373195616L316.2803749788953,159.45734437171245L316.51679964254026,179.2400289153964L316.5322186423432,204.06879929525445L317.45735863051937,-66.67621517246197L318.6497612819465,-4.396695572266626L318.8296496129807,45.60721468949013L319.76506893435885,-209.7040568515728L321.5074159120906,-12.676627439990998L323.2292042234185,35.063989609352994L323.5581428858811,78.97342057173654L324.6991488712984,119.76858144340635L324.7042885378994,150.33881031171455L325.71680285829217,171.67349672413246L326.7909931778967,-143.15141447476313L328.5693178218354,-15.17962919210165L330.05468146951824,41.125651546084725L330.68172079483764,65.82094755519708L332.00775477789017,108.15419612884767L332.07457044370284,140.28897139286843L332.3212744405498,172.09033303930326L332.88149810005655,197.81049037234655L333.7089844228141,219.97513150106025L336.20686239088974,238.21329142453553L344.06541262378624,246.67438486797528L346.29088826200996,263.3271516197022L346.8511119215167,266.20209187364793L347.6580395778703,260.84715043921875L350.27926954436947,263.4522486076029L351.2917838647623,271.7977450128894L352.25290151914527,284.4265553771539L352.797706178849,291.0832733702726L354.18541616111327,296.6171250649184L355.465193144757,304.6488408651206L356.52910413115956,313.99301757255404L359.3507810950969,319.7120076140667L360.296479749677,308.1247586317496L360.96463640780416,312.1775054719958L362.16217872583223,-735.4956409968912L369.6917902962661,-16.217576781615854L371.7168189370517,30.827879501400858L376.18318921330217,77.03740859968772L376.4093345437453,113.71877787067173L377.9974915234477,142.0512810231497L378.57313418275726,173.48951527639016L379.1487768420669,194.88588477930517L379.6833021685687,218.77800809275948L379.75011783438146,233.99230591065802L380.1407324960558,249.0906371845516L381.0350344846261,254.07004284693622L381.4410681461034,266.57015772882505L381.71861014255626,279.0802975380361L382.1554818036395,288.0421911599267L382.3713478008805,298.6262650064724L383.13201845782544,286.3245027253597L385.0388347667885,278.67168561490496L385.0593934331924,290.92054111588965L385.17246609841396,296.4129414997049L386.8274387439291,301.9302690670982L387.819394397918,306.36870421807606L388.9038640507245,306.8483112595911L389.09403171496075,315.64747463750126L389.6850933740733,318.627517703747L390.3943673650083,320.0193152834697L391.0008480239238,320.9528394646267L391.6690046820511,325.8625921813808L392.94364199909376,328.31202006553525L393.2057649957437,331.95180842042595L393.30855832776325,335.4080718080453L393.6683349898318,331.94408156387766L394.5986146446089,326.45696643384804L395.10230197150486,330.88578557327344L397.5076659407629,334.0573600015138L397.9856549346539,334.6613489554313L399.2448732518937,329.9795447913981L399.73314157898665,332.88232218966755L399.79481757819843,334.2147270244127L399.96956624263174,336.91004037000823L401.2853208924822,337.30385066887817L402.2207402138603,339.3846560280846L402.29783521287504,296.62090851734735L402.5291202099191,304.1121022283819L405.0886741772065,51.970534219002786L405.3764955068613,97.0770800621704L405.94699849957,137.2272221966292L408.2752674698133,167.13104698290567L409.13359179217673,196.41400490811182L410.5932571068547,220.808247754741L411.245994765179,237.43314348709643L411.33850876399663,253.33444423101457L411.66744742645926,268.9797995066123L411.70856475926706,282.54297278805967L412.17627441995614,275.6701988375107L413.8261073988703,76.02147555724405L414.47370539059364,118.80083721437742L414.4994037235985,153.00192700694956L414.9619737176866,185.50325776380097L415.337169379558,208.20416490811988L415.8614153728579,230.49135565314444L415.98990703788235,250.67624536689476L416.57582903039395,249.07553649151552L416.8533710268468,266.3660267985339L417.60376235058965,282.3556412301466L418.1177290106876,265.063932385916L421.0062216404376,275.10074269972057L422.5481216207312,287.2434029872395L422.6149372865439,293.56889077009004L423.08264694723294,303.60352970221095L424.4806362626992,308.1490363817408L426.2435419068349,314.60743083286724L426.6804135679181,319.84168603175146L427.9807492179657,321.9136841774448L428.31996721363026,326.4448916367606L429.1782915359937,327.2498917831313L430.1702471899826,137.4487229182542L432.740080490472,159.08415676463835L434.6211984664302,189.6599405625019L434.97583546189776,215.19711876437535L435.33047245736526,237.83618480767694L435.4384054559858,249.81830589447688L441.4055583797221,263.96478263623743L443.4100283541038,276.8381716324039L444.5304756731171,280.41283030696576L445.537850326909,289.1831716103307L445.54298999351,297.9718713181666L448.11796296060027,304.96353632791L449.52623160926845,168.85587197692746L449.9065669377409,180.37275029330402L451.2326009207934,207.4771954081903L451.73114858108835,229.87510841113863L453.5300318914309,249.1374720304397L454.9280212068971,112.22735481882626L458.10433516630195,24.28521317594833L459.8107044778269,71.50990605107486L460.1345034736885,112.09685533585578L460.5919338011756,149.00207675028824L460.6998667997962,177.66067275391643L461.1315987942784,206.00408601507704L461.4913754563469,228.53477793213398L461.56847045536165,248.36702747510753L463.06411343624643,263.91905904305736L463.42389009831487,279.0059085022825L464.2873540872793,290.00362603024L466.29182406166103,297.32686279640984L466.3637793940747,304.7424123542378L468.9336126945641,297.66650274005553L471.79126732470826,306.8906071801407L474.515290623227,311.82194076282167L475.75908994066384,317.64780491109525L476.54031926401257,318.14852664429395L478.02568291169547,306.343836988251L479.5007672261763,306.91388994688697L479.51618622597925,315.3420958461353L480.32825354893396,309.88725878440584L481.76736019720795,309.58283652942885L483.71015417237794,310.2964701131492L484.892277490603,310.3253742246071L487.77563045375206,319.07472221816704L490.17585475640914,323.1800285904103L490.679542083305,311.88878779978876L493.55775537985306,318.32750120941864L493.9689287079314,322.5884785123399L494.4417780352215,236.29243680685545L496.92423700349417,255.20414372485604L497.02189066891276,250.7740303883839L497.21719799974994,253.62528235824058L497.3816673309813,269.7514157125155L499.2113886409297,270.14862106460134L499.47865130418063,150.5662206413611L503.54412758555475,180.43019678113035L504.8239045691984,207.2666482742047L505.96491055461576,212.73826633520963L507.0391008742203,236.80250797472203L508.92021885017846,235.86504471039697L510.18457683401925,253.72476807392928L510.71396249392006,268.65200387437943L510.724241827122,281.0792916274728L511.6288231488943,286.8736959159815L514.6509471102697,296.5239553197471L514.6560867768707,305.8328535423876L514.7383214424864,316.1016100747952L516.0643554255389,314.5425103410628L518.7883787240576,313.944861234255L520.2326250389327,317.46294614369094L520.7979883650403,317.94680326182527L521.9595530168615,326.5078756345824L524.4214533187303,240.71396363946738L525.0690513104537,257.36412658096447L525.4288279725221,271.6976250939828L526.9501692864119,285.213117222866L527.618325944539,295.43660444031093L529.3658125888718,306.2048595573496L529.7307289175413,308.1230924926253L529.807823916556,308.5369352824928L530.9950869013821,291.1861011587484L531.0516232339928,302.9767554984802L532.3108415512326,307.62284601646707L533.7139705332997,316.1338601987377L537.6972121490583,322.39456191487517L538.1700614763483,330.38143022412726L538.2831341415699,335.4009599243469L539.1877154633422,340.67023712578634L539.5680507918146,328.78710775700347L542.6929680852096,335.44932361399145L543.7209014054054,336.1278709164048L543.9059294030407,333.4164902007758L544.548387728163,333.8225847141736L544.9441420564383,336.34526662777444L545.1959857198863,333.4499880639043L545.8949803776194,335.8443929363126L546.3112933722987,337.4580323424754L547.1130813620514,338.2360727719792L548.9839200048076,339.5239168164588L549.4156519992897,344.2842761830996L552.2476082964291,348.0350567879737L553.4245919480531,342.2199693599151L553.6661562782991,345.5997228092807L558.1325265545497,325.8760672971132L563.1385618239029,310.5440807557L563.3133104883362,316.7871505270172L563.5188971523754,322.53233582333155L566.499903780943,327.27320309780197L568.673982753157,333.46432518171645L569.1108544142403,340.0188219405244L569.2444857458656,335.99811466192546L569.414094743698,321.1804514106947L570.0771117352242,326.5931090495685L570.4831453967015,320.8893920496409L573.2123083618212,328.9838763580908L573.4076156926584,327.3435031084559L573.6645990227073,329.4280036113525L575.3092923350205,332.01702717181837L576.8460526487132,325.95835489257706L577.6529803050669,263.13602935452997L579.1177852863458,276.8289467264884L580.2228136055562,287.16378460558576L581.1787915933382,295.7218043705656L584.4681782179647,302.78076149892524L585.5115305379633,287.35227501209215L585.593765203579,295.70075669827014L587.3823691807195,302.21253171471045L588.6415874979593,311.78583186875215L589.0579004926386,314.76065011949635L589.1092971586485,320.86894409138296L589.3405821556925,315.4084016209772L589.7671744835737,324.17962501886444L591.4941024615025,328.1018067478197L592.58371178091,326.2526666929008L593.4060584370667,265.88121404282816L593.5705277682979,279.3907356634939L593.5962261013028,292.09999707430137L594.9787964169661,299.6082436373559L595.1792434144043,308.6475276733212L596.1455007353883,316.5505781574505L596.3973443988363,315.58916649993984L598.5765630376512,313.6748222098013L599.9025970207036,319.96981531329885L600.4268430140036,328.04092065111575L602.1126536591246,326.8570737267348L602.225726324346,331.5285650952096L602.4313129883852,326.4648195445782L602.4364526549863,330.99361212866813L604.0400286344916,337.02838119612977L604.6824869596139,340.69468042688686L605.9057276106469,345.6052615016113L606.0547779420752,340.61088648695625L606.1678506072968,345.0998626290228L606.7177949336015,341.6400756533615L606.7743312662122,344.18639282677236L609.2722092342879,346.02312363523833L609.6628238959623,350.17725190387574L609.9300865592131,351.6036586005668L610.0380195578338,351.46877935587673L611.6364558707381,352.7578544157932L611.6724335369449,349.1805683994495L612.2583555294566,352.2412373124162L612.6541098577319,351.8235507893741L613.7591381769423,349.2036730989777L614.334780836252,350.5566528566401L614.9309821619655,336.52669690867504L615.9691948153632,340.92965791217097L620.7696434206773,345.28887643096954L622.2858450679661,347.63685833747934L623.5193650522009,290.039014427352L624.4188067073721,302.16655749549614L625.7859580232325,312.41652664943035L627.4306513355457,320.65011355541833L629.2912106451,328.46293328409683L629.7178029729813,334.9647920948106L630.0673003018478,326.85202792348207L630.3910992977094,332.57469145240805L631.1106526218465,337.4169458412346L631.3624962852945,343.37814263904073L631.6092002821414,343.68346977964023L631.8096472795796,343.6881205899812L634.831771240955,347.9721420304102L634.9499835727776,350.09623925207575L635.1350115704128,343.9157513909386L635.2635032354373,341.4379509008568L635.7569112291312,336.1245450489247L636.5998165516918,339.35024441669907L637.3142302092277,344.12903347128855L637.4427218742522,343.0129622489192L638.0543421997687,328.00556288887225L641.3180304913902,332.91698637495307L645.707305768626,338.865447971329L646.4679764255709,344.47717227345584L647.3365800811363,340.27121049810495L648.3902117343368,342.40999723038374L649.3050723893111,342.0564488958262L649.3718880551239,345.71778351622703L649.6494300515767,347.0799692569059L649.7316647171923,348.4876635709696L652.3991516831003,349.55681202374547L653.1289843404393,353.57869892434894L653.1701016732471,353.6564539182644L654.6760239873339,354.9867335822456L657.0042929575773,357.33484190557004L658.75177960191,357.91957984790673L658.7723382683139,359.56055285259043L659.4096569268353,357.49860699491927L662.1490992251569,359.50224061411774L662.632227885649,355.0924650324455L668.0288778166766,335.8856228725621L668.6199394757891,338.0648594119021L668.9334591384488,343.0766510474733L669.3292134667241,347.73321686723114L671.1743537764755,349.5585014558499L671.2463091088892,349.74868201640135L675.6098860531201,352.6899516362346L676.1906683790307,353.0102508082652L678.3750266844467,349.68840788111316L678.6165910146926,306.0302564914825L678.6834066805054,305.9471091723686L679.4800550036571,242.1017122888912L680.1276529953803,254.18095324773088L681.0270946505517,269.53809671529785L681.2224019813889,283.8666644099004L681.2378209811918,295.7650002141919L682.0601676373484,293.9605743578383L684.331900274981,294.728841362327L688.916482883054,306.1218678802304L689.641175873792,310.36749936655843L691.820394512607,315.17353990660484L692.0002828436412,305.8032752987357L693.1258698292555,313.6180309169501L693.1464284956595,321.45373343156416L694.009892484624,326.02370292111056L696.6825191171329,331.3788559951763L697.7412904369345,336.54979342118986L698.5327990934852,340.93008920056985L699.8999504093456,341.9198434362151L702.3875490442192,343.88033903554464L703.6210690284541,339.42286630257115L705.9904553315054,327.0945934850357L707.234254648942,331.9106329252755L707.8098973082518,338.8130322682319L709.8195069492344,339.9184332577222L710.7754849370165,339.2115636146791L711.5104572609564,327.5466085366115L712.2145915852906,321.6063294156243L713.3247595711019,329.14418370024947L715.3754865448925,331.21056678061495L716.0590622028226,319.16458723492974L716.0847605358275,323.47754569280687L716.9944815242008,319.9117584020255L719.6876668231135,325.9264165978799L719.8367171545419,331.6752967916447L720.787555475723,335.3588623371984L721.0342594725699,341.09194818759113L721.4505724672493,344.8379739861077L722.5864387860656,340.80676460953185L724.0820817669503,344.26107905758766L724.1026404333543,340.0227745357143L724.4161600960141,343.49312978268375L726.3486747379819,339.16022722048075L729.2063293681263,344.40888945451707L730.1777263557111,344.40472177751855L730.9692350122618,347.4886897571601L731.0977266772863,347.5995446355868L732.8040959888114,345.97398134503845L733.7086773105834,345.41548323907847L735.6514712857535,349.6395778427727L737.229348932254,340.17144062388024L737.9540419229919,343.27697600594485L741.6803002087015,342.82513742201746L742.0709148703759,340.81999335596805L742.3535965334297,342.99311635764815L743.1142671903746,346.5643229650189L745.6224244916522,346.93551346754066L746.4653298142127,348.9285492650219L747.5138218008124,348.6783008264536L753.2394103943027,347.6927775353624L753.3781813925291,351.0578577458496L753.876729052824,344.03355869574995L754.3804163797198,342.36012224376276L755.9377353598164,331.05105656669605L756.3489086878948,333.96874770413564L758.7799709901576,310.2060790306569L758.939300654788,302.7499433584959L761.0825416273962,311.5054304611431L761.2778489582333,321.10962139930126L765.4255599052232,327.4648414917722L765.9292472321191,334.6131432791722L768.3037732017712,322.7226186595809L768.6327118642339,326.20636146447856L769.5372931860062,331.36412171149806L770.9969585006841,326.23185026498356L774.3377417913202,327.8031647136548L775.2937197791023,330.9622141250687L775.4941667765405,332.7899819593924L775.7819881061953,332.06153935440426L779.6624363899341,336.52931846135255L779.8371850543675,339.48486426138334L780.2740567154507,326.4931356523923L780.8085820419524,332.31203579451204L781.0141687059916,329.29932451560467L783.9643373349534,324.0060993368132L785.8146173113057,328.64820762968105L786.3799806374133,335.1585018386838L786.8322712982995,333.32941082995416L791.6789769030224,337.60421314715893L791.9154015666674,342.563819561406L792.1466865637116,347.3364767237262L792.2186418961252,351.0520075539658L793.3750668813454,352.1632195568028L794.1254582050882,343.5112133262256L794.942665194644,340.7147764270001L796.8905988364149,342.3621574141863L798.7460184793682,330.4220279074851L799.0389794756239,333.25090572161395L800.8378627859665,339.24857362816397L800.8789801187744,341.3291108417377L802.4979750980826,345.5636401012827L803.109595423599,340.6005894074429L803.5002100852735,345.8624477615881L803.5207687516773,350.0696514906018L808.7272510184688,351.780849781882L808.8506030168923,352.39657047820094L809.5136200084186,349.94757497006856L809.88881567029,346.02999291673257L811.2868049857562,347.2621408666423L813.517420290581,346.9718118727276L814.1752976155063,351.4435671506035L814.3963032793483,339.39110288346325L816.3236782547153,342.290544364187L816.8684829144191,344.7338162704293L819.3920592154997,348.7967653713934L819.6336235457456,352.452289509001L824.1051334885971,355.7406612126341L824.2901614862323,354.2856721402626L825.3283741396301,354.9936802890725L825.3540724726349,347.0836509084878L830.0620070791315,349.3564320502414L830.2984317427765,351.2647976876126L830.9306107346969,354.1377618728551L831.0231247335145,356.1685759773032L831.125918065534,358.5469732582807L835.1297183476964,358.15948857136135L835.1399976808984,359.09673547627114L836.9851379906497,358.45884591414887L837.0879313226693,358.8393068948341L837.2780989869057,357.1125700094295L838.1055853096632,351.16140991502976L838.4705016383326,351.7653560973659L838.650389969367,317.9328022141515L840.3824576138968,323.5687451118884L840.9118432737976,328.70744076348143L841.0814522716299,333.13298773425095L841.6313965979347,339.60879178575243L841.7136312635503,337.3560662160403L842.3201119224658,339.5774328970211L844.6021238933002,335.53532742301223L844.6278222263052,331.71763469203006L846.2056998728057,334.11265868808033L847.2079348599964,339.38379966509655L847.7681585195031,325.13337286533175L849.9679358247221,327.33552734259763L850.4870421514208,306.38195856382004L851.3916234731931,312.5709112824595L852.2448081289557,301.20563545260444L853.7044734436336,300.55188894382025L854.6758704312185,308.19815817607184L855.1589990917105,312.0481960417942L855.3954237553556,309.3037259372646L855.6832450850104,317.075893118016L855.8939714156504,320.54468842585925L857.708273725796,308.08541958164426L858.8852573774201,272.15776769150295L861.2135263476634,271.701452480316L861.8611243393868,282.1162792596386L863.017549324607,294.3463957324487L863.027828657809,300.5007683983559L865.1299522976092,303.26351064715976L866.5536399460804,311.94292116743503L870.3158758979969,320.13624175812754L873.5076088572046,325.3840238321827L874.0215755173024,307.7379546965632L874.7873858408483,316.8398602513281L875.9643694924723,322.0887142447446L877.758113136214,328.39501810552326L878.2874987961147,330.5136803081158L880.9652650952247,336.21181583879064L881.1862707590667,334.2278955300945L881.6745390861597,335.856556475383L882.2296230790654,339.06386913317704L883.766383392758,340.3197708817204L884.0028080564031,331.74974327848565L884.3985623846784,338.4064427278048L884.4242607176834,341.35236672267143L885.5549873698986,346.0704287982314L887.4823623452658,343.85450266520894L889.2144299897956,344.6119948328519L890.1909666439815,332.28675957689256L890.6329779716656,332.6329171020864L891.5735369596448,326.68966740032664L892.4524199484121,332.05190325420944L896.4510805639735,337.4367806947565L897.057561222889,339.7059388313112L897.1295165553026,341.014315713428L897.2374495539233,346.3815942545284L897.4121982183566,344.66889483835223L897.6537625486026,348.065172440727L898.3476175397348,348.1426034457637L898.8615841998325,334.8254235508491L902.2486244898776,339.57622293463623L903.800803803373,340.66105604961257L903.8162228031761,344.13517305414405L904.7773404575591,347.60817052262394L905.0189047878051,351.480330834447L906.2884024382469,353.4440588670867L906.6944360997242,355.50168388988675L908.4522020772588,354.54175524682535L908.8479564055342,352.53404606312546L910.4669513848424,352.1544257055151L910.7496330478964,294.5056826410159L913.8848296744933,302.4418204205284L916.7784619708443,312.7880888797221L917.5596912941932,314.2734978352271L918.5979039475909,321.8278076430975L918.7983509450289,320.924778647786L919.1375689406937,323.76549032953767L919.1684069402994,329.21940770432207L921.918128571823,335.5917707104111L923.2852798876835,336.0429379926489L924.4828222057114,336.9002335823561L925.3462861946759,337.564957933033L925.8037165221629,342.3056043727686L925.9630461867932,342.5289516234097L926.1789121840344,339.27636292890946L926.8213705091567,344.3374436390361L927.967516161175,347.58972476072836L928.0857284929976,350.0263565685131L928.219359824623,353.7121745135239L928.9748908149668,353.69720545191274L929.170198145804,323.1257409747269L931.626958781072,329.7274720132827L932.6446127680656,289.75831543055415L932.8399200989028,297.7966710324205L933.0660654293458,307.75360408725743L933.2253950939762,315.8184036694932L933.9346690849113,323.4828748585141L934.5000324110189,328.9992933051023L934.6182447428415,331.10419713003614L936.5045023854007,337.4456206565937L936.8077427148585,340.5829946075525L936.8385807144642,326.1394391170061L937.0801450447102,327.4655577935777L938.2571286963343,333.99834906138267L938.606626025201,332.39726017434316L938.8173523558411,332.20305926279167L938.9047266880577,332.0452219905803L939.07433568589,330.1908362361266L941.7880796512068,333.9590830033286L942.7337783057869,337.68933616989403L944.0546726222384,293.7366627949322L945.7250642675565,301.53796064957476L946.0385839302162,300.0284116613534L946.3778019258808,303.0071147513758L949.3690878876504,307.60342044047235L949.8573562147433,298.6754050216253L950.0732222119844,308.48986493684356L952.6944521784836,313.1867138822656L952.7407091778924,277.42559613868343L953.7943408310931,257.16940613840643L955.0946764811406,274.5714758945957L957.9574707778858,286.7688195174634L958.5896497698061,299.8139769054348L959.0727784302982,281.2402036244426L959.9773597520704,291.6992080189913L962.7681987164019,289.0590064038021L963.8372493694054,279.50325082143667L964.1404896988632,285.1099055544404L964.6750150253649,288.93990007495216L967.1728929934407,293.0996101803783L969.6604916283143,304.34782328857017L970.241273954225,309.8542852484322L971.3771402730413,309.04066286434573L973.8955769075209,312.07532357760016L974.1782585705747,320.1094268682389L974.2193759033825,317.57783870589134L975.1753538911646,323.96175619709743L975.6379238852526,329.7573462264283L976.5990415396357,336.59494306704494L976.8200472034777,332.69921798448587L977.3391535301765,332.6591071429063L977.3905501961864,333.8653332511908L977.734907858452,335.38425004090965L977.9661928554959,337.5165283792229L979.6057465012082,337.5017095678652L980.0169198292865,340.73763887928334L980.3252998253452,343.7074068543436L980.8032888192363,315.11596087363534L982.0933451360818,323.94305971743535L982.9311107920413,309.40552699953963L984.4781504389359,309.00971100531433L987.1199390718391,315.90239274282237L987.4334587344987,324.2307107513938L988.6978167183395,329.7733284472349L988.7903307171572,332.91739575412805L988.9188223821816,297.2912105261797L991.3036276850357,305.9593465869963L993.421170324639,280.2927030020409L993.6010586556731,292.06134145022304L994.1664219817809,295.46833045007304L994.366868979219,-204.59133752507284L1002.8575982040359,-10.174649597529871L1003.1711178666955,45.96074317049294L1003.777598525611,82.84113825230303L1005.1858671742792,123.54542785359467L1008.4803934655066,144.90502859773403L1010.9731317669813,157.19860161067453L1014.421848056238,180.92505492272753L1014.4681050556468,207.27174367803715L1014.6891107194888,226.5483104653038L1015.8146977051033,247.04318831527667L1018.1686650083515,260.15632970259344L1018.9087769988924,269.7870173344994L1019.6848666556401,275.97266392534743L1020.6305653102203,289.0218457584492L1020.671682643028,296.7114880599673L1020.8772693070672,276.99678361766405L1022.8252029488381,284.36504439891087L1023.2158176105124,295.61097401281984L1024.1460972652897,304.3015316764469L1025.04039925386,311.0835465692316L1027.502299555729,320.21216511373245L1028.2783892124767,321.4744026747464L1030.2828591868583,326.86501606905654L1030.6786135151337,311.6646765594229L1033.7983911419278,320.8759112253163L1034.0759331383806,321.6563578529075L1036.4710177744366,326.9710798951311L1036.841073769707,329.8623974596711L1037.4218560956176,335.3803548954857L1038.2647614181783,333.78527713853373L1038.6193984136457,325.5508660769576L1039.9402927300973,325.4126468739163L1040.0585050619197,307.40974261598535L1040.8345947186676,314.29647154421855L1040.8859913846773,306.46763575128006L1041.5490083762036,285.02613639152855L1043.3067743537383,297.62684902572846L1043.4661040183687,308.62090462863665L1044.4118026729489,285.5555984321539L1045.6710209901885,252.58842607954628L1047.768004963388,269.2616133259308L1048.5800722863426,246.7048914158556L1048.8730332825983,254.11008768185744L1050.0140392680155,268.8902084849045L1050.6924752593447,267.37042595220674L1052.1726992404267,272.2713294680341L1053.7145992207204,282.6886134750624L1053.8585098855476,260.07619205461543L1054.0126998835772,268.17028697965145L1054.1000742157937,282.4645447607919L1054.2028675478132,292.41064027773234L1056.2484548550028,299.72826724688287L1057.0656618445585,303.45825607297706L1057.7389581692867,307.1727587678957L1058.8388468218961,316.3737670527741L1059.1575061511567,324.7256109771596L1061.5063337878041,330.64340147674005L1061.8558311166705,335.3187767112471L1062.7295744388368,336.9896442419886L1062.7758314382456,260.5381112514337L1063.408010430166,225.93350350080465L1063.7009714264218,237.63988349457827L1063.7677870922346,249.12891720940942L1064.641530414401,262.16181392698263L1065.7773967332173,276.9370937634268L1066.327341059522,290.3038021719568L1069.1592973566612,299.0951964337609L1069.3546046874985,305.20093228666997L1071.441309327496,312.08357622076727L1072.166002318234,304.33665736450445L1073.327566970055,300.4242305093806L1074.1858912924185,296.83561995948196L1075.8100259383277,306.9488610920028L1076.0875679347805,308.23238477473654L1076.3445512648295,316.58836319880663L1077.3313672522174,317.7702886303975L1077.8504735789163,324.6526776739884L1078.420976571625,331.6585794946653L1078.8886862323138,328.92012965878286L1080.2455582149723,331.43747939979056L1083.5863415056085,327.4778454257217L1085.2670124841286,334.02654283653897L1085.6833254788078,337.6979303498954L1085.7398618114187,329.0998344827776L1086.125336806492,332.99189112973494L1086.4234374693488,336.85528501453956L1088.0784101148638,341.1039797548668L1088.2428794460952,344.4187791681457L1088.7928237724,345.6192845141407L1090.1445560884574,340.539728515923L1091.5168470709186,341.58974646064115L1093.2232163824435,329.2066815415306L1093.7680210421474,331.6428045875389L1094.2203117030335,334.2820902267694L1094.5698090319001,337.05505514471446L1094.9398650271705,339.0515876706687L1096.0500330129819,338.670430146745L1097.2784133306159,334.08211912864476L1097.3503686630295,338.5998990847091L1097.7512626579057,333.7441959652794L1098.8408719773133,311.4765751178612L1101.2462359465715,303.2058371557512L1104.6281365700154,310.6996829762073L1107.4857912001596,316.6477156454933L1110.8779711568056,318.67552164418225L1111.047580154638,325.29064991196805L1111.6848988131592,296.81243816365725L1111.8390888111885,300.7367131040501L1116.079313756996,301.1417097434315L1116.4082524194587,296.70298556201925L1116.5161854180792,299.59592762838815L1117.004453745172,309.6310104298507L1119.1065773849725,278.1207729021126L1119.3378623820165,288.16862065700985L1122.123561679747,294.06278017314696L1124.050936655114,300.7161941956134L1125.305015305753,310.419433555295L1125.474624303585,313.94635368237516L1125.5979763020084,319.3493902227211L1125.9371942976732,319.7038283432476L1126.980546617672,326.8544481109816L1129.6531732501808,332.6849196003913L1131.2207715634793,325.65836638888777L1132.973397874413,332.6530769032359L1133.1327275390433,276.41170739251095L1133.970493195003,289.4472466343017L1135.1063595138191,299.17754723638114L1136.3707174976598,296.2033407714106L1137.4243491508605,303.9790566184935L1139.4031207922374,311.84153366554386L1139.4185397920403,313.2012656549467L1139.6241264560795,313.3802941099329L1141.4846857656337,309.01591003342946L1142.0860267579483,317.063714089938L1142.4612224198197,322.49875972760617L1143.2578707429714,310.07378776716655L1144.604463392428,317.98542417110906L1144.7637930570584,325.5640913264226L1146.2234583717361,325.3068036446768L1149.1119510014862,331.9603929511041L1150.402007318332,335.04565370969556L1151.7434603011873,340.51351263212433L1151.7691586341923,316.9369807295274L1151.8565329664088,325.3431010889071L1152.1340749628616,322.11315877015375L1153.75306994217,329.6491303697574L1154.6216735977355,332.06046975249876L1154.8889362609862,333.9832247264704L1155.6496069179311,330.06434742071565L1156.5747469061073,334.54618533964594L1156.6261435721171,312.3513995282054L1156.888266568767,315.93630619525226L1157.0475962333971,314.4950274370247L1157.4279315618699,323.01064729492055L1157.9110602223618,303.1613398112495L1157.9418982219677,313.0343482990277L1158.4558648820655,321.5115439560549L1160.7327371862991,328.3225938429023L1161.0256981825548,335.0104703714298L1161.8840225049182,297.1123290082817L1162.634413828661,303.66507116646477L1163.6160901494482,309.2097266103911L1164.3613418065902,317.58620588515026L1164.829051467279,319.1350685093881L1165.0089397983133,322.5477412282619L1165.2402247953573,327.68724348646464L1165.6256997904309,322.4959623925123L1166.309275448361,321.5372668009609L1170.3747517297352,328.2403246910925L1172.5025737025403,331.27364871895344L1175.9153123255903,328.163698899015L1176.0386643240138,296.18170269727597L1176.2648096544567,304.90125529384005L1176.5937483169193,314.4171261404517L1177.0665976442094,320.36223642503023L1177.606262637312,325.1485372266677L1178.3566539610551,332.3088923645026L1178.7421289561285,331.35834809919646L1180.8236939295248,337.7103377438957L1181.738554584499,340.66199081746015L1183.2444768985858,344.4360598691695L1183.9126335567132,309.69892209432203L1184.0154268887327,313.6714306165121L1184.5962092146433,265.72239358124733L1185.0793378751353,281.8785046515557" style="fill: none;" fill="none"></path></g></g></g></g><g opacity="0.2"><g><g><g><path stroke="rgb(255, 112, 67)" stroke-width="2px" d="M158.2304873321988,79.24839839924871L158.92434232333093,-850.9422052774194L159.56680064845327,117.80622368940283L160.02937064254135,-301.9920036801832L161.39652195840168,242.14903208229066L161.81797461968196,113.71712777820912L162.4090362787945,191.84370883462685L162.70713694165127,119.00814401505669L164.2901542547527,222.52651010531534L165.6470262374111,264.9225334017612L166.85998755524207,-128.451488657841L167.27630054992136,-40.050281030489415L167.99585387405835,144.1136897012667L174.9241244521777,298.3298522255922L175.67451577592055,324.9575521740534L176.8206614279388,312.1053468024613L178.66580173769017,302.8347608023895L178.8816677349313,343.12440956952133L179.1026733987734,338.9829449910319L179.7554110570977,339.5347360125011L180.12546705236815,340.95844424373604L180.24881905079164,273.44528034668895L180.5366403804464,349.445361885572L180.79876337709635,332.48945172897527L181.65708769945977,354.3404599833928L181.83183636389305,325.0937101104207L182.17619402615867,129.20168400346915L182.67988135305455,323.54968892908266L183.5125073424131,343.4692340628142L183.98021700310215,336.078790069059L184.0932896683237,343.70791151457746L184.12412766792957,336.91186700932144L184.25261933295403,270.8203641257902L184.32971433196872,322.23743434320187L185.0287089897018,334.824465160009L186.48323463777882,365.7574460135928L186.6425643024091,366.4137873066311L187.34669862674323,367.0711252714536L188.26155928171747,347.0726395421956L189.38200660073082,339.96152104675696L190.17351525728154,356.84019362958475L190.57440925215786,319.20572039788334L191.6537392383634,353.97431329853475L192.38357189570235,327.53532851326344L196.18692518042664,300.2781869344102L197.82647882613884,338.8141512914941L199.75899346810684,347.2579935569958L200.60189879066735,327.2360695792613L201.88167577431102,365.6649994678365L202.36994410140403,369.3044961385413L202.5909497652461,350.6724893276438L203.3875980883978,317.97162523234664L205.73128605844408,362.38122782687606L205.83921905706467,363.1077042848421L207.1087167075064,345.4771416100534L208.50156635637163,357.85710114339156L209.3239130125282,352.1649619259771L209.75050534040946,364.55688301723075L211.22558965489034,326.6057480044111L211.26156732109717,347.4815652955601L211.46201431853535,365.67847997749533L212.08905364385475,365.6839077981583L212.31519897429783,364.82391922321625L213.68235029015815,334.2726292434143L214.93642894079696,330.42106146877313L216.3292785896622,355.989571674309L216.3498372560661,309.9807239011692L216.41665292187886,295.36664225564465L217.23385991143445,347.4981136387891L218.53933522808308,342.2134006775502L218.58559222749187,298.498969170033L219.4233578834514,312.6867925507733L219.43363721665335,298.9483574034324L219.96302287655413,-404.32726948136303L221.51006252344874,285.35185669859595L224.69151614945457,316.0198725079802L227.5131931133919,192.62553050670385L227.54917077959874,276.17559835003544L228.93174109526203,343.06965248155336L229.3480540899413,271.4487163011387L231.02872506846134,310.4351583466656L232.90984304441952,290.8569688095363L232.9612397104293,277.50702016146136L234.60079335614157,353.40889810300536L234.69330735495916,296.0837251568691L237.20660432283773,226.51948255998101L237.27855965525143,282.8318573927904L237.633196650719,314.0236137492828L238.90269430116072,348.92139087682L238.91811330096363,299.49101376338336L239.6839236245095,295.23884079862177L239.8278342893369,324.57617706265364L240.39319761544454,316.3927355036007L240.5011306140651,324.7445876571212L240.60392394608468,260.98155548834615L240.8403486097297,279.70973065089703L241.3234772702217,275.1262615906351L241.84258359692055,277.5069004411269L242.0224719279548,292.6001567392615L242.5312989214517,256.7645982599623L245.2553222199704,309.6988004715951L245.36839488519195,-788.0797393944433L245.9183392114967,256.64988223549454L246.01085321031428,348.2075404246257L246.83319986647086,249.9506435926729L247.10046252972177,337.60891471257605L247.3831441927756,324.967716430448L247.57845152361278,217.29092438331702L248.0924181837107,253.71238819338637L250.60057548498827,27.824540038873856L252.56392812656213,276.54862296810745L253.40169378252168,307.48064605901567L253.81800677720094,330.250896971406L254.86135909719962,235.58558024279952L256.86582907158135,299.2661370731736L258.90627671216987,317.6424781168497L258.94225437837673,289.90949609670076L259.32772937345015,243.9507752275942L261.8564453411317,318.46161661717406L263.03342899275583,324.9251378935017L265.3411392965952,339.1727795393488L266.79052527807124,-1854.8732559775135L269.1599115811224,341.733097660788L269.81778890604767,340.13051527785484L269.92572190466825,-1782.17447164005L270.29063823333775,343.39645307849514L271.7194655484098,332.97460042627426L272.9786838656496,362.04864623428466L273.0043821986545,315.4609102384775L273.79589085520524,345.5671353854577L273.94494118663357,350.11663978683674L274.67477384397256,231.0335736864305L275.0191315062381,347.7108895961946L275.6307518317546,288.68358980204033L275.9699698274192,335.7439382796256L278.11321080002733,272.78760866143415L279.9789097761826,256.7356379110594L280.15879810721685,364.04125651578977L282.0244970833721,333.4119807101286L283.03187173716395,258.3605541223838L286.42405169380993,185.73121955093316L286.5679623586373,311.8685459669406L288.0224880067143,337.17410542290395L288.089303672527,308.8582799195384L289.2765666573531,256.2712307617035L289.51299132099814,268.59087219753854L289.54896898720494,336.09348574011244L291.1165673005035,221.07485316200365L291.2142209659221,284.4338591321015L292.7252829466098,285.030515348905L292.76126061281667,193.2666328976711L293.9742219306477,126.19787686811041L294.8274065864101,54.03165646640372L294.99701558424243,161.9508462746909L295.6446135759657,344.5076014465708L295.73198790818236,221.66946814710485L297.33042422108673,322.23536916743257L298.56908387192266,238.55660795058648L299.0573521990156,245.97524608310417L299.6329948583252,294.882391460854L300.5992521793092,318.0097741169184L302.8504261505379,340.52009123216425L303.91947680354144,308.5931233228037L304.274113799009,331.795522740433L305.71322044728305,337.0914953991267L306.2785837733907,308.25330313949075L307.172885761961,306.1701034739175L307.3938914258031,325.99358800429656L307.4658467582168,299.1212036362912L307.47098642481774,303.6606515295767L307.49668475782266,312.4687878077608L307.9181374191029,323.03599291803465L309.6296463972288,338.1979267860251L310.00484205910027,275.739385339442L311.70093203742323,304.9521825255647L311.97847403387607,-1542.6562239680022L313.0886420196875,296.6772626589603L314.0497596740705,304.9411323386951L315.05713432786234,331.3076982936591L316.2803749788953,280.3801046636367L316.51679964254026,291.34190799625L316.5322186423432,344.7651647810932L317.45735863051937,-1600.8979638226365L318.6497612819465,348.52058216213106L318.8296496129807,328.96270617274917L319.76506893435885,-1656.467928917469L320.28931492765867,245.91812751153915L321.49199691228773,338.73533041630213L321.5074159120906,308.4516318455367L323.2292042234185,305.5941528889566L323.5581428858811,327.7935293585667L324.6991488712984,350.94115971619453L324.7042885378994,323.5701072321227L325.71680285829217,292.57005306116463L326.7909931778967,-1927.1592446018017L328.11188749434825,289.37203559926485L328.5693178218354,342.34888818004464L330.05468146951824,360.1889090624705L330.68172079483764,205.76095827349874L332.00775477789017,348.04260471286545L332.07457044370284,322.3860312223183L332.3212744405498,352.29804903576587L332.88149810005655,343.55804859292425L333.7089844228141,345.5747645637704L336.20686239088974,341.5628643242285L344.06541262378624,294.62058104746717L346.29088826200996,357.69282987948753L346.8511119215167,282.4934199793403L347.6580395778703,230.5024823107872L350.27926954436947,278.2144715617795L351.2917838647623,319.0888913095126L352.25290151914527,355.98981410798626L352.797706178849,328.80467533127825L354.18541616111327,327.97561800124487L355.465193144757,350.1618970662663L356.52910413115956,366.9433522480101L359.3507810950969,352.11961784930503L360.296479749677,242.46368106528595L360.96463640780416,335.1430709000579L362.16217872583223,-6672.310137653915L362.2598323912509,342.1503649284552L364.54698402868644,310.63969455205273L365.58005701548313,211.87102920643656L367.94944331853424,362.42891692559914L369.12642697015843,336.71345449904135L369.3165946343946,314.6701274993671L369.6917902962661,352.9757619050072L371.7168189370517,297.4187984384956L376.18318921330217,338.8914068233132L376.4093345437453,321.57987040624806L377.9974915234477,302.60213222052425L378.57313418275726,351.6395093780863L379.1487768420669,316.131978629157L379.6833021685687,354.16670686900056L379.75011783438146,320.2066602120832L380.1407324960558,334.6478477366151L381.0350344846261,282.28667493378265L381.4410681461034,337.4041420595284L381.71861014255626,349.971089790232L382.1554818036395,338.8262550173068L382.3713478008805,358.6026834702312L383.13201845782544,216.6145164657212L385.0388347667885,235.30572198899466L385.0593934331924,360.33072228813626L385.17246609841396,327.53654367465805L386.8274387439291,333.19512528232684L387.819394397918,331.51983674028367L388.9038640507245,309.5660844948431L389.09403171496075,365.509400445659L389.6850933740733,335.51442841247274L390.3943673650083,327.9061682352318L391.0008480239238,326.2428098245163L391.6690046820511,353.6845242429875L392.94364199909376,342.1921114090771L393.2057649957437,352.5772757648065L393.30855832776325,354.9935643378884L393.6683349898318,312.31480351359426L394.5986146446089,295.363314030347L395.10230197150486,355.98242736335084L397.5076659407629,352.0296150948756L397.9856549346539,338.08395302763097L399.2448732518937,303.44932119520973L399.73314157898665,349.33139411319456L399.79481757819843,341.7650210879685L399.96956624263174,352.18348266171614L401.2853208924822,339.5354423624744L402.2207402138603,351.175886396921L402.29783521287504,54.29300595650295L402.5291202099191,346.5621999242445L405.0886741772065,-1376.831684500812L405.3764955068613,352.6808398401204L405.94699849957,364.74469429189554L408.2752674698133,336.5860541051388L409.13359179217673,362.3507664842801L410.5932571068547,359.0422905523063L411.245994765179,331.64088597044366L411.33850876399663,343.4418151132174L411.66744742645926,357.63681273499947L411.70856475926706,359.40095471626137L412.17627441995614,236.72447978440013L413.8261073988703,-1055.3212896976L414.47370539059364,361.21721993813344L414.4994037235985,346.80810249819166L414.9619737176866,369.6774653859586L415.337169379558,336.84263872592703L415.8614153728579,356.7854365416167L415.98990703788235,365.0572870781467L416.57582903039395,240.00485286436643L416.8533710268468,364.345471871638L417.60376235058965,372.9634563426189L418.1177290106876,167.07758226860935L421.0062216404376,331.97600114461284L422.5481216207312,356.05181128318L422.6149372865439,329.41332153957666L423.08264694723294,360.4664836508957L424.4806362626992,333.9069075657436L426.2435419068349,351.2049993892503L426.6804135679181,349.50246549209515L427.9807492179657,333.6550070030407L428.31996721363026,352.1217339062164L429.1782915359937,331.81155927923226L430.1702471899826,-938.091233982716L432.740080490472,281.6849485608152L434.6211984664302,362.92271541706197L434.97583546189776,359.9077952416581L435.33047245736526,366.1242257197192L435.4384054559858,317.7169920530099L441.4055583797221,344.1281508395473L443.4100283541038,349.7873759440137L444.5304756731171,300.6692294628166L445.537850326909,338.88177232939853L445.54298999351,347.77450299590333L448.11796296060027,344.58297138312236L449.52623160926845,-602.4208926786398L449.9065669377409,245.63506075277112L451.2326009207934,361.06905105921265L451.73114858108835,356.7966154278458L453.5300318914309,358.2908658731456L454.9280212068971,-663.5966427136497L458.10433516630195,-474.0535894670263L459.8107044778269,339.116499010125L460.1345034736885,342.08956794961426L460.5919338011756,358.13166476540545L460.6998667997962,340.0593834411428L461.1315987942784,366.61676116165364L461.4913754563469,356.20869879545694L461.56847045536165,360.7497748852909L463.06411343624643,352.0472379281063L463.42389009831487,364.49805543789154L464.2873540872793,352.3240253553326L466.29182406166103,338.825204471372L466.3637793940747,346.7638598485965L468.9336126945641,257.5696815930225L471.79126732470826,359.1605323406236L474.515290623227,339.7661643980136L475.75908994066384,350.6610350846455L476.54031926401257,320.98594979908665L478.02568291169547,239.45059560400753L479.5007672261763,310.144190045824L479.51618622597925,363.1019292752092L480.32825354893396,278.97651543460574L481.76736019720795,307.85777708455925L483.71015417237794,314.34039375423134L484.892277490603,310.48916418953496L487.77563045375206,368.65436084834L490.17585475640914,346.4434313664557L490.679542083305,247.9050899862667L493.55775537985306,354.81354386398783L493.9689287079314,346.73401656222705L494.4417780352215,-252.71846619088964L496.92423700349417,362.3704829268594L497.02189066891276,225.6700548150414L497.21719799974994,269.7823768540955L497.3816673309813,361.1328380534064L499.2113886409297,272.39945139308793L499.47865130418063,-527.0673817569999L503.54412758555475,349.6593949064892L504.8239045691984,359.33987340162616L505.96491055461576,243.74410201423717L507.0391008742203,373.16654393195915L508.92021885017846,230.5527528792218L510.18457683401925,354.9298671339455L510.71396249392006,353.2396734102636L510.724241827122,351.50058889500156L511.6288231488943,319.7086535508645L514.6509471102697,351.2087586077519L514.6560867768707,358.58327680401726L514.7383214424864,374.29123042510463L516.0643554255389,305.7076118499127L518.7883787240576,310.558182962344L520.2326250389327,337.398760630495L520.7979883650403,320.6886602645862L521.9595530168615,375.0206190802061L524.4214533187303,-245.4515376661841L525.0690513104537,351.7150499161144L525.4288279725221,352.92078333442043L526.9501692864119,361.8009059532037L527.618325944539,353.3696986724988L529.3658125888718,367.22497188723554L529.7307289175413,318.9930791258541L529.807823916556,310.88204442507515L530.9950869013821,192.86470779086338L531.0516232339928,369.79046342362705L532.3108415512326,333.9506922850595L533.7139705332997,364.36294056493807L537.6972121490583,357.87187163965405L538.1700614763483,375.6403506432223L538.2831341415699,363.8449615589252L539.1877154633422,370.5294746006098L539.5680507918146,261.44937466723377L542.6929680852096,373.2018801369235L543.7209014054054,339.97297229674683L543.9059294030407,318.0519994788781L544.548387728163,336.12378695676114L544.9441420564383,350.6404641381791L545.1959857198863,317.04340953530703L545.8949803776194,349.4126872132929L546.3112933722987,346.6019889773982L547.1130813620514,342.64496853916717L548.9839200048076,346.8216997351766L549.4156519992897,371.2596459273977L552.2476082964291,369.2894802155932L553.4245919480531,309.2678072675835L553.6661562782991,364.75165902235204L558.1325265545497,214.1086860614975L563.1385618239029,223.66282368769188L563.3133104883362,352.1645458978149L563.5188971523754,355.0883858357793L566.499903780943,354.13811765313443L568.673982753157,368.5473503238981L569.1108544142403,377.16097024043626L569.2444857458656,313.21410674986475L569.414094743698,237.2136929870536L570.0771117352242,357.2648356698539L570.4831453967015,288.5683290500508L573.2123083618212,374.8526207726403L573.4076156926584,318.04805469385803L573.6645990227073,341.24017312776664L575.3092923350205,346.6881606811253L576.8460526487132,291.62587864354316L577.6529803050669,-92.8571486944037L579.1177852863458,354.42214516758645L580.2228136055562,345.7278659204704L581.1787915933382,344.2172497054516L584.4681782179647,342.7815185596298L585.5115305379633,199.9241849200381L585.593765203579,343.0088195866121L587.3823691807195,339.11259014120526L588.6415874979593,366.0345327416552L589.0579004926386,331.61795354038026L589.1092971586485,355.4826099320737L589.3405821556925,284.46532762201105L589.7671744835737,373.88322427355905L591.4941024615025,350.32750321189945L592.58371178091,315.7742063816936L593.4060584370667,-76.22368430758318L593.5705277682979,355.9446915139329L593.5962261013028,364.11914506887723L594.9787964169661,342.1549741613314L595.1792434144043,359.8701372104576L596.1455007353883,361.3345309008503L596.3973443988363,310.1411671073792L598.5765630376512,302.82687123234945L599.9025970207036,355.6414428997854L600.4268430140036,373.7771842320783L602.1126536591246,320.14860782190954L602.225726324346,358.00034951656653L602.4313129883852,297.7702614243336L602.4364526549863,356.65677010517743L604.0400286344916,371.22540591174567L604.6824869596139,361.4703760678439L605.9057276106469,373.4318875917164L606.0547779420752,312.30942807057755L606.1678506072968,370.5373941007335L606.7177949336015,322.03461612461405L606.7743312662122,358.61552347610075L609.2722092342879,356.43126488321184L609.6628238959623,373.71731209282103L609.9300865592131,359.6866298818162L610.0380195578338,350.7044636359664L611.6364558707381,360.0626130886533L611.6724335369449,328.90928097350184L612.2583555294566,369.58502781922743L612.6541098577319,349.4566604921355L613.7591381769423,334.35769952006444L614.334780836252,358.2235381500606L614.9309821619655,257.0236132035398L615.9691948153632,365.87977026531473L620.7696434206773,369.9911147041613L622.2858450679661,360.94208914103507L623.5193650522009,-36.34876773003658L624.4188067073721,370.88930154831314L625.7859580232325,370.49968518839086L627.4306513355457,367.30710602268334L629.2912106451,372.73557841327494L629.7178029729813,371.8086586888557L630.0673003018478,280.8796976192868L630.3910992977094,365.0031181163217L631.1106526218465,364.85638737791845L631.3624962852945,377.158257826609L631.6092002821414,345.4136569097041L631.8096472795796,343.71447518191354L634.831771240955,372.2482635261745L634.9499835727776,362.132790174847L635.1350115704128,308.89298684449477L635.2635032354373,327.39708145706L635.7569112291312,306.0152452213094L636.5998165516918,357.6292075007537L637.3142302092277,371.2088381139623L637.4427218742522,336.68855865549295L638.0543421997687,242.9636331819394L641.3180304913902,360.7483861294113L645.707305768626,372.5733970174591L646.4679764255709,376.27694331884135L647.3365800811363,316.43742710445L648.3902117343368,354.5297887132967L649.3050723893111,340.0530083333335L649.3718880551239,366.46534636516515L649.6494300515767,354.7990217874193L649.7316647171923,356.46459801733045L652.3991516831003,355.6153199228089L653.1289843404393,376.3693913611018L653.1701016732471,354.0970655504523L654.6760239873339,362.5249850114725L657.0042929575773,370.64078907107506L658.75177960191,361.2330948544812L658.7723382683139,368.85939987913173L659.4096569268353,345.8142471347827L662.1490992251569,370.8561644562422L662.632227885649,330.1037367363029L668.0288778166766,227.04685063322296L668.6199394757891,350.41386646816164L668.9334591384488,371.476803649044L669.3292134667241,374.1204231791918L671.1743537764755,359.90178079135626L671.2463091088892,350.82637185952615L675.6098860531201,369.357146148623L676.1906683790307,354.82527944977204L678.3750266844467,330.8646312939185L678.6165910146926,58.63406528357523L678.6834066805054,305.475941030723L679.4800550036571,-119.68887005081389L680.1276529953803,322.6299853478223L681.0270946505517,356.5619096981779L681.2224019813889,365.0618813459812L681.2378209811918,363.1889031051771L682.0601676373484,283.73549450516794L684.331900274981,299.082354387763L688.916482883054,370.6823514816827L689.641175873792,334.4260777890843L691.820394512607,342.4077696335344L692.0002828436412,252.70510918747752L693.1258698292555,357.9016460868312L693.1464284956595,365.85604768104395L694.009892484624,351.9201966952072L696.6825191171329,361.72472341488213L697.7412904369345,365.85177216859995L698.5327990934852,365.7517652837233L699.8999504093456,347.5284507715382L702.3875490442192,354.98981409841184L703.6210690284541,314.16385414905477L705.9904553315054,257.23438085233494L707.234254648942,359.20152308663427L707.8098973082518,377.9266285449848L709.8195069492344,346.1823721981675L710.7754849370165,335.2059689707683L711.5104572609564,261.4451964275616L712.2145915852906,287.94474773003L713.3247595711019,371.8586913131256L715.3754865448925,342.92007090268606L716.0590622028226,250.90403647604685L716.0847605358275,347.91764362077737L716.9944815242008,299.70563042093096L719.6876668231135,360.0094797077212L719.8367171545419,364.25228455631225L720.787555475723,356.2324004286692L721.0342594725699,373.57943467315016L721.4505724672493,366.06545351103466L722.5864387860656,317.9632448089353L724.0820817669503,363.8355275965707L724.1026404333543,316.00571557843176L724.4161600960141,363.1584761821772L726.3486747379819,314.60711270133055L729.2063293681263,374.15130878072307L730.1777263557111,344.38110494119337L730.9692350122618,364.9645083084623L731.0977266772863,348.22772228000514L732.8040959888114,336.76245603193075L733.7086773105834,342.2506606386387L735.6514712857535,373.5761139303735L737.229348932254,286.5186630501563L737.9540419229919,360.8750098376441L741.6803002087015,340.26471877976235L742.0709148703759,329.4575103150213L742.3535965334297,355.30748003383525L743.1142671903746,366.80116040678666L745.6224244916522,349.03892631516396L746.4653298142127,360.2224187840824L747.5138218008124,347.26022634123325L753.2394103943027,342.10814555251216L753.3781813925291,370.126645605277L753.876729052824,304.22919741185194L754.3804163797198,332.8773156825021L755.9377353598164,266.96635106331786L756.3489086878948,350.50233081629335L758.7799709901576,175.55095654761095L758.939300654788,260.49850788291667L761.0825416273962,361.11985737614384L761.2778489582333,375.53337004886407L765.4255599052232,363.4777553491073L765.9292472321191,375.1201867411057L768.3037732017712,255.3429791485635L768.6327118642339,345.94757069223203L769.5372931860062,360.5914297779421L770.9969585006841,297.1489787347342L774.3377417913202,336.70727992279217L775.2937197791023,348.8634941230811L775.4941667765405,343.14733302055976L775.7819881061953,327.93369792613805L779.6624363899341,361.8467334007261L779.8371850543675,356.23295712822437L780.2740567154507,252.87334020144334L780.8085820419524,365.2858032665237L781.0141687059916,312.22729393512975L783.9643373349534,294.01115665699473L785.8146173113057,354.953487955932L786.3799806374133,372.0501690230328L786.8322712982995,322.9645617804864L791.6789769030224,361.8280929446526L791.9154015666674,370.6682559088057L792.1466865637116,374.38153397687427L792.2186418961252,372.10668225865675L793.3750668813454,358.460087572879L794.1254582050882,294.48317801962156L794.942665194644,324.86830066472265L796.8905988364149,351.6973163415743L798.7460184793682,262.7612940361782L799.0389794756239,349.2812133350108L800.8378627859665,373.2353584319476L800.8789801187744,353.1188217186554L802.4979750980826,369.55930590537133L803.109595423599,312.47663547568385L803.5002100852735,375.6796451017443L803.5207687516773,373.91047262167933L808.7272510184688,361.4776400991365L808.8506030168923,355.8856544240084L809.5136200084186,336.06993375731827L809.88881567029,323.8303612811618L811.2868049857562,354.2443125827979L813.517420290581,345.32661424054396L814.1752976155063,376.78351372523343L814.3963032793483,271.0938053696686L816.3236782547153,358.72071275495483L816.8684829144191,358.57902373913606L819.3920592154997,371.8201436101897L819.6336235457456,373.1669262887773L824.1051334885971,374.3747675332217L824.2901614862323,346.04073406349085L825.3283741396301,359.00572646566184L825.3540724726349,302.2601510851745L830.0620070791315,362.2355251868449L830.2984317427765,362.07886963271596L830.9306107346969,370.41789225589616L831.0231247335145,367.676522569176L831.125918065534,372.0245578504861L835.1297183476964,355.9637420121519L835.1399976808984,364.4078012707598L836.9851379906497,354.8441383954559L837.0879313226693,360.99525245205075L837.2780989869057,347.3277276588032L838.1055853096632,317.43816938009803L838.4705016383326,355.1877177972705L838.650389969367,126.21499687593642L840.3824576138968,355.50575486573075L840.9118432737976,357.82671612250874L841.0814522716299,358.21108723527806L841.6313965979347,376.3050147442609L841.7136312635503,324.59062132100473L842.3201119224658,352.16517742257906L844.6021238933002,312.6300630702953L844.6278222263052,310.0840425497975L846.2056998728057,347.68446133236523L847.2079348599964,369.25359853485503L847.7681585195031,244.38095433333154L849.9679358247221,339.8144027137709L850.4870421514208,187.64506881741355L851.3916234731931,347.64164335475004L852.2448081289557,236.8024057500921L853.7044734436336,296.8473253940432L854.6758704312185,351.5270171588309L855.1589990917105,333.8650772808876L855.3954237553556,293.75172867826336L855.6832450850104,361.1181738089407L855.8939714156504,340.2011951703044L857.708273725796,237.48289613109264L858.8852573774201,68.56774031403562L861.2135263476634,269.11566628358986L861.8611243393868,341.1336310091333L863.017549324607,363.6503890783725L863.027828657809,335.3755468384967L865.1299522976092,318.91905005704837L866.5536399460804,361.126247448995L870.3158758979969,366.5650584387182L873.5076088572046,355.12145558516215L874.0215755173024,207.74356292805237L874.7873858408483,368.4173250616629L875.9643694924723,351.8322202074383L877.758113136214,364.1307399832685L878.2874987961147,342.5194327894737L880.9652650952247,368.5012505126149L881.1862707590667,322.985680447483L881.6745390861597,345.085635165351L882.2296230790654,357.23864086067675L883.766383392758,347.4365474567994L884.0028080564031,283.1862535268224L884.3985623846784,376.1277396072797L884.4242607176834,358.04593602691585L885.5549873698986,372.80611389307103L887.4823623452658,331.297587911415L889.2144299897956,348.90445044949564L890.1909666439815,262.44375979312264L890.6329779716656,334.5944764115184L891.5735369596448,293.0112524236879L892.4524199484121,362.43790642621195L896.4510805639735,367.95108619118986L897.057561222889,352.56450160512094L897.1295165553026,348.42845137875685L897.2374495539233,376.79617265409706L897.4121982183566,334.9635981466874L897.6537625486026,367.31074552085056L898.3476175397348,348.5813791409719L898.8615841998325,259.3614041463328L902.2486244898776,366.49741944276366L903.800803803373,346.8084437011448L903.8162228031761,363.82183607982245L904.7773404575591,367.28848951067675L905.0189047878051,373.4225726014443L906.2884024382469,364.5718510520451L906.6944360997242,367.16155901908695L908.4522020772588,349.10215960281084L908.8479564055342,341.15702735549274L910.4669513848424,350.0032436790563L910.7496330478964,-32.17052805781316L913.8848296744933,347.41326783776606L916.7784619708443,371.4169434818201L917.5596912941932,322.69081524975513L918.5979039475909,364.6355632210297L918.7983509450289,315.80761434102124L919.1375689406937,339.8628565261302L919.1684069402994,360.12493949476675L921.918128571823,371.70182774491553L923.2852798876835,338.59955259199666L924.4828222057114,341.75824192403036L925.3462861946759,341.3317292535355L925.8037165221629,369.1692675312701L925.9630461867932,343.7945860437092L926.1789121840344,320.8450269934083L926.8213705091567,373.0169009964205L927.967516161175,366.0193177836511L928.0857284929976,363.83393681262675L928.219359824623,374.5984762019185L928.9748908149668,353.6123807694493L929.170198145804,149.88744227067414L931.626958781072,367.1372812317652L932.6446127680656,63.26642812842553L932.8399200989028,343.3473527763298L933.0660654293458,364.1762247313335L933.2253950939762,361.5189346354959L933.9346690849113,366.91487826296594L934.5000324110189,360.2589978357687L934.6182447428415,343.0319854713278L936.5045023854007,373.3803539737535L936.8077427148585,358.3614469963192L936.8385807144642,244.292624670576L937.0801450447102,334.98023029415054L938.2571286963343,371.0174995789439L938.606626025201,323.324423147786L938.8173523558411,331.10258743066663L938.9047266880577,331.1508107813822L939.07433568589,319.68265029422247L941.7880796512068,355.3124813508068L942.7337783057869,358.82743744709825L944.0546726222384,44.671513670148315L945.7250642675565,345.74531515921615L946.0385839302162,291.4743007280989L946.3778019258808,319.8864322615026L949.3690878876504,333.64915267868616L949.8573562147433,248.08331764815895L950.0732222119844,364.10513778974683L952.6944521784836,339.80219123965725L952.7407091778924,74.77926225838435L953.7943408310931,142.3843294701702L955.0946764811406,373.1832045130018L957.9574707778858,355.8871000470469L958.5896497698061,373.73653543727283L959.0727784302982,175.98882169881983L959.9773597520704,350.9668995881008L962.7681987164019,274.09786391772974L963.8372493694054,225.35396918803266L964.1404896988632,316.8809490414615L964.6750150253649,310.64320235785203L967.1728929934407,316.67130077779353L969.6604916283143,368.08769756832396L970.241273954225,341.05756968765036L971.3771402730413,304.4301360211889L973.8955769075209,329.27173428604215L974.1782585705747,365.63601218185835L974.2193759033825,303.2321724525885L975.1753538911646,360.137288647265L975.6379238852526,362.59902305930325L976.5990415396357,375.3413251638724L976.8200472034777,310.62344251665144L977.3391535301765,332.43181237395544L977.3905501961864,340.70061453146957L977.734907858452,343.99144518264984L977.9661928554959,349.5994389629978L979.6057465012082,337.4177363035049L980.0169198292865,359.07457164398596L980.3252998253452,360.536092046352L980.8032888192363,153.0977669829551L982.0933451360818,373.9632864989688L982.9311107920413,227.02617493146386L984.4781504389359,306.7667537047043L987.1199390718391,354.96092258870124L987.4334587344987,371.42451279996556L988.6978167183395,361.18149539033425L988.7903307171572,350.73377715985595L988.9188223821816,95.40949423447253L991.3036276850357,355.0787842649566L993.421170324639,134.84838935396073L993.6010586556731,358.7502926565885L994.1664219817809,314.7746014492228L994.366868979219,-3038.2627893842327L995.2714503009913,358.59359669684665L1002.0249722146773,270.02682183297077L1002.8575982040359,281.1933648955397L1003.1711178666955,364.0613021892888L1003.777598525611,291.83004371589345L1005.1858671742792,354.20306892758066L1008.4803934655066,265.94276614785724L1010.9731317669813,226.86218201733746L1014.421848056238,315.3749570243608L1014.4681050556468,356.5696466247915L1014.6891107194888,335.78218892648164L1015.8146977051033,363.18082946512277L1018.1686650083515,334.46413089738843L1018.9087769988924,324.36091391530005L1019.6848666556401,311.0246612734859L1020.6305653102203,362.96720947935944L1020.671682643028,340.28612776856994L1020.8772693070672,165.28012511127906L1022.8252029488381,326.11852215930946L1023.2158176105124,359.3379084916371L1024.1460972652897,353.548025103667L1025.04039925386,349.5149642950115L1027.502299555729,371.9410035325709L1028.2783892124767,328.6270821871586L1030.2828591868583,357.4118253034803L1030.6786135151337,225.52941933816572L1033.7983911419278,373.07290766537926L1034.0759331383806,326.07888874259055L1036.4710177744366,357.08783813439805L1036.841073769707,346.246530325398L1037.4218560956176,366.6487803651017L1038.2647614181783,324.74650318247234L1038.6193984136457,278.8892033946931L1039.9402927300973,324.62940472334907L1040.0585050619197,205.3932851543765L1040.8345947186676,353.3212688042064L1040.8859913846773,262.10423292462906L1041.5490083762036,163.5243066862696L1043.3067743537383,369.03088728619457L1043.4661040183687,370.9205530451165L1044.4118026729489,154.85219665208496L1045.6710209901885,65.77444941476965L1047.768004963388,363.74300772210955L1048.5800722863426,118.88346725876288L1048.8730332825983,296.07286652253464L1050.0140392680155,352.64422636883796L1050.6924752593447,258.75832493358615L1052.1726992404267,300.0431160577222L1053.7145992207204,341.71988951489004L1053.8585098855476,131.93913733874874L1054.0126998835772,314.0368248881891L1054.1000742157937,363.4653388539209L1054.2028675478132,348.7718482070614L1056.2484548550028,341.19482007206955L1057.0656618445585,324.5948594208442L1057.7389581692867,328.22160737243445L1058.8388468218961,368.5128140004183L1059.1575061511567,372.0527265486774L1061.5063337878041,364.17754764102915L1061.8558311166705,361.8125697067873L1062.7295744388368,346.45789358285697L1062.7758314382456,-172.68724236171067L1063.408010430166,29.840726247240095L1063.7009714264218,303.9760367926289L1063.7677870922346,314.2334415934525L1064.641530414401,336.0148953265643L1065.7773967332173,360.663679503277L1066.327341059522,366.0484831536267L1069.1592973566612,348.9130972506511L1069.3546046874985,339.80010211982113L1071.441309327496,351.0852251806522L1072.166002318234,260.43745051234833L1073.327566970055,278.253811663679L1074.1858912924185,276.50016017672306L1075.8100259383277,364.2572275096208L1076.0875679347805,315.5056856435609L1076.3445512648295,363.9389076018704L1077.3313672522174,324.46786607607885L1077.8504735789163,363.6528822543373L1078.420976571625,371.35868981183415L1078.8886862323138,313.40224725544925L1080.2455582149723,345.70246126550063L1083.5863415056085,305.03991957266464L1085.2670124841286,371.1358281645036L1085.6833254788078,358.5024595922484L1085.7398618114187,280.3772912357772L1086.125336806492,355.04687879582633L1086.4234374693488,358.7478503617658L1088.0784101148638,365.17991661672147L1088.2428794460952,363.2026425100591L1088.7928237724,352.4221481414459L1090.1445560884574,311.75557785935575L1091.5168470709186,347.5398481473776L1093.2232163824435,259.03598033323715L1093.7680210421474,345.4475018482525L1094.2203117030335,349.238042182409L1094.5698090319001,352.7685230130699L1094.9398650271705,350.3652719844093L1096.0500330129819,336.51053751117763L1097.2784133306159,308.0816900260767L1097.3503686630295,364.20065216907335L1097.7512626579057,306.2285449551781L1098.8408719773133,185.29339031582464L1101.2462359465715,256.33832203712797L1104.6281365700154,353.1648092921251L1107.4857912001596,350.3532341047806L1110.8779711568056,330.1664223034197L1111.047580154638,362.776376762754L1111.6848988131592,135.4359049232292L1111.8390888111885,322.9742710996102L1116.079313756996,303.4366906999255L1116.4082524194587,271.55021520068345L1116.5161854180792,315.9892660044787L1117.004453745172,366.4964796381382L1119.1065773849725,99.56276024493015L1119.3378623820165,345.1064246014278L1122.123561679747,327.4630174312571L1124.050936655114,338.41887365625666L1125.305015305753,365.4044565934906L1125.474624303585,333.932234402496L1125.5979763020084,349.9665972846819L1125.9371942976732,321.7123110262308L1126.980546617672,367.3746267948076L1129.6531732501808,365.7242580403797L1131.2207715634793,285.8412315237009L1132.973397874413,372.2897698178754L1133.1327275390433,-42.289386501597214L1133.970493195003,363.3153023377827L1135.1063595138191,354.31591731483104L1136.3707174976598,279.3495041365774L1137.4243491508605,348.0414464186297L1139.4031207922374,356.39557026549625L1139.4185397920403,320.9064135948963L1139.6241264560795,314.3947886881876L1141.4846857656337,284.284400266577L1142.0860267579483,362.66793707681967L1142.4612224198197,353.29735167439213L1143.2578707429714,239.66561332467552L1144.604463392428,362.81803046011674L1144.7637930570584,368.5098718731993L1146.2234583717361,323.84884011478374L1149.1119510014862,369.6640656875256L1150.402007318332,352.52879800838025L1151.7434603011873,371.4980465258875L1151.7691586341923,183.33663328147827L1151.8565329664088,372.97778312539185L1152.1340749628616,303.8101522972182L1153.75306994217,372.35296943417825L1154.6216735977355,345.72472625469953L1154.8889362609862,344.87883624564284L1155.6496069179311,307.8573760214388L1156.5747469061073,359.94326688025075L1156.6261435721171,186.58094659670888L1156.888266568767,336.2507773085182L1157.0475962333971,306.3277811404017L1157.4279315618699,371.2658264896636L1157.9110602223618,190.68193073711328L1157.9418982219677,368.98139639643813L1158.4558648820655,369.54898601254195L1160.7327371862991,366.9185432017042L1161.0256981825548,372.90843736641926L1161.8840225049182,82.35619461710874L1162.634413828661,340.7972767295026L1163.6160901494482,340.6294407926404L1164.3613418065902,365.0529217754519L1164.829051467279,327.91195671340233L1165.0089397983133,341.8862199685465L1165.2402247953573,356.8110896162805L1165.6256997904309,293.0787028601157L1166.309275448361,316.104658448836L1170.3747517297352,366.2243194018384L1172.5025737025403,348.462484876832L1175.9153123255903,310.54064991936417L1176.0386643240138,114.95039088742136L1176.2648096544567,354.31205334103674L1176.5937483169193,368.34039427125094L1177.0665976442094,354.0511947043087L1177.606262637312,352.2709084359465L1178.3566539610551,372.88423814556694L1178.7421289561285,325.971930595795L1180.8236939295248,373.7049457305246L1181.738554584499,357.38802490099215L1183.2444768985858,365.82245116218957L1183.9126335567132,112.85514137018596L1184.0154268887327,336.1823122422559L1184.5962092146433,-5.988816285253085L1185.0793378751353,373.4298007166366" style="fill: none;" fill="none"></path></g></g></g></g></g></g><g transform="translate(30, 374)" clip-path="url(#clip_1)"><clipPath id="clip_1"><rect width="1413" height="26"></rect></clipPath><g><g><line x1="54.35782532641898" y1="0" x2="54.35782532641898" y2="5" style="visibility: inherit;" fill="rgb(0, 0, 0)" stroke="rgb(204, 204, 204)" stroke-width="1px"></line><line x1="157.15115734599328" y1="0" x2="157.15115734599328" y2="5" style="visibility: inherit;" fill="rgb(0, 0, 0)" stroke="rgb(204, 204, 204)" stroke-width="1px"></line><line x1="259.94448936556756" y1="0" x2="259.94448936556756" y2="5" style="visibility: inherit;" fill="rgb(0, 0, 0)" stroke="rgb(204, 204, 204)" stroke-width="1px"></line><line x1="362.7378213851419" y1="0" x2="362.7378213851419" y2="5" style="visibility: inherit;" fill="rgb(0, 0, 0)" stroke="rgb(204, 204, 204)" stroke-width="1px"></line><line x1="465.5311534047162" y1="0" x2="465.5311534047162" y2="5" style="visibility: inherit;" fill="rgb(0, 0, 0)" stroke="rgb(204, 204, 204)" stroke-width="1px"></line><line x1="568.3244854242904" y1="0" x2="568.3244854242904" y2="5" style="visibility: inherit;" fill="rgb(0, 0, 0)" stroke="rgb(204, 204, 204)" stroke-width="1px"></line><line x1="671.1178174438649" y1="0" x2="671.1178174438649" y2="5" style="visibility: inherit;" fill="rgb(0, 0, 0)" stroke="rgb(204, 204, 204)" stroke-width="1px"></line><line x1="773.911149463439" y1="0" x2="773.911149463439" y2="5" style="visibility: inherit;" fill="rgb(0, 0, 0)" stroke="rgb(204, 204, 204)" stroke-width="1px"></line><line x1="876.7044814830133" y1="0" x2="876.7044814830133" y2="5" style="visibility: inherit;" fill="rgb(0, 0, 0)" stroke="rgb(204, 204, 204)" stroke-width="1px"></line><line x1="979.4978135025876" y1="0" x2="979.4978135025876" y2="5" style="visibility: inherit;" fill="rgb(0, 0, 0)" stroke="rgb(204, 204, 204)" stroke-width="1px"></line><line x1="1082.291145522162" y1="0" x2="1082.291145522162" y2="5" style="visibility: inherit;" fill="rgb(0, 0, 0)" stroke="rgb(204, 204, 204)" stroke-width="1px"></line><line x1="1185.0844775417363" y1="0" x2="1185.0844775417363" y2="5" style="visibility: inherit;" fill="rgb(0, 0, 0)" stroke="rgb(204, 204, 204)" stroke-width="1px"></line><line x1="1287.8778095613106" y1="0" x2="1287.8778095613106" y2="5" style="visibility: inherit;" fill="rgb(0, 0, 0)" stroke="rgb(204, 204, 204)" stroke-width="1px"></line><line x1="1390.6711415808848" y1="0" x2="1390.6711415808848" y2="5" style="visibility: inherit;" fill="rgb(0, 0, 0)" stroke="rgb(204, 204, 204)" stroke-width="1px"></line></g><g transform="translate(0, 8)"><text x="54.35782532641898" y="0" dx="0em" dy="0.95em" style="text-anchor: middle; visibility: inherit; font-family: Roboto, sans-serif; font-size: 12px; font-weight: 200;" fill="rgb(33, 33, 33)" stroke="none" stroke-width="1px">-20k</text><text x="157.15115734599328" y="0" dx="0em" dy="0.95em" style="text-anchor: middle; visibility: inherit; font-family: Roboto, sans-serif; font-size: 12px; font-weight: 200;" fill="rgb(33, 33, 33)" stroke="none" stroke-width="1px">0</text><text x="259.94448936556756" y="0" dx="0em" dy="0.95em" style="text-anchor: middle; visibility: inherit; font-family: Roboto, sans-serif; font-size: 12px; font-weight: 200;" fill="rgb(33, 33, 33)" stroke="none" stroke-width="1px">20k</text><text x="362.7378213851419" y="0" dx="0em" dy="0.95em" style="text-anchor: middle; visibility: inherit; font-family: Roboto, sans-serif; font-size: 12px; font-weight: 200;" fill="rgb(33, 33, 33)" stroke="none" stroke-width="1px">40k</text><text x="465.5311534047162" y="0" dx="0em" dy="0.95em" style="text-anchor: middle; visibility: inherit; font-family: Roboto, sans-serif; font-size: 12px; font-weight: 200;" fill="rgb(33, 33, 33)" stroke="none" stroke-width="1px">60k</text><text x="568.3244854242904" y="0" dx="0em" dy="0.95em" style="text-anchor: middle; visibility: inherit; font-family: Roboto, sans-serif; font-size: 12px; font-weight: 200;" fill="rgb(33, 33, 33)" stroke="none" stroke-width="1px">80k</text><text x="671.1178174438649" y="0" dx="0em" dy="0.95em" style="text-anchor: middle; visibility: inherit; font-family: Roboto, sans-serif; font-size: 12px; font-weight: 200;" fill="rgb(33, 33, 33)" stroke="none" stroke-width="1px">100k</text><text x="773.911149463439" y="0" dx="0em" dy="0.95em" style="text-anchor: middle; visibility: inherit; font-family: Roboto, sans-serif; font-size: 12px; font-weight: 200;" fill="rgb(33, 33, 33)" stroke="none" stroke-width="1px">120k</text><text x="876.7044814830133" y="0" dx="0em" dy="0.95em" style="text-anchor: middle; visibility: inherit; font-family: Roboto, sans-serif; font-size: 12px; font-weight: 200;" fill="rgb(33, 33, 33)" stroke="none" stroke-width="1px">140k</text><text x="979.4978135025876" y="0" dx="0em" dy="0.95em" style="text-anchor: middle; visibility: inherit; font-family: Roboto, sans-serif; font-size: 12px; font-weight: 200;" fill="rgb(33, 33, 33)" stroke="none" stroke-width="1px">160k</text><text x="1082.291145522162" y="0" dx="0em" dy="0.95em" style="text-anchor: middle; visibility: inherit; font-family: Roboto, sans-serif; font-size: 12px; font-weight: 200;" fill="rgb(33, 33, 33)" stroke="none" stroke-width="1px">180k</text><text x="1185.0844775417363" y="0" dx="0em" dy="0.95em" style="text-anchor: middle; visibility: inherit; font-family: Roboto, sans-serif; font-size: 12px; font-weight: 200;" fill="rgb(33, 33, 33)" stroke="none" stroke-width="1px">200k</text><text x="1287.8778095613106" y="0" dx="0em" dy="0.95em" style="text-anchor: middle; visibility: inherit; font-family: Roboto, sans-serif; font-size: 12px; font-weight: 200;" fill="rgb(33, 33, 33)" stroke="none" stroke-width="1px">220k</text><text x="1390.6711415808848" y="0" dx="0em" dy="0.95em" style="text-anchor: middle; visibility: inherit; font-family: Roboto, sans-serif; font-size: 12px; font-weight: 200;" fill="rgb(33, 33, 33)" stroke="none" stroke-width="1px">240k</text></g><line x1="0" y1="0" x2="1413.4375" y2="0" fill="rgb(0, 0, 0)" stroke="rgb(204, 204, 204)" stroke-width="1px"></line></g></g></g></g></svg>