<svg viewBox="0 0 1444 400" xmlns="http://www.w3.org/2000/svg"><g><g><g><g><g><line x1="51.5625" y1="374.0367065362528" x2="46.5625" y2="374.0367065362528" style="visibility: inherit;" fill="rgb(0, 0, 0)" stroke="rgb(204, 204, 204)" stroke-width="1px"></line><line x1="51.5625" y1="335.0264837514515" x2="46.5625" y2="335.0264837514515" style="visibility: inherit;" fill="rgb(0, 0, 0)" stroke="rgb(204, 204, 204)" stroke-width="1px"></line><line x1="51.5625" y1="296.01626096665024" x2="46.5625" y2="296.01626096665024" style="visibility: inherit;" fill="rgb(0, 0, 0)" stroke="rgb(204, 204, 204)" stroke-width="1px"></line><line x1="51.5625" y1="257.0060381818489" x2="46.5625" y2="257.0060381818489" style="visibility: inherit;" fill="rgb(0, 0, 0)" stroke="rgb(204, 204, 204)" stroke-width="1px"></line><line x1="51.5625" y1="217.9958153970476" x2="46.5625" y2="217.9958153970476" style="visibility: inherit;" fill="rgb(0, 0, 0)" stroke="rgb(204, 204, 204)" stroke-width="1px"></line><line x1="51.5625" y1="178.9855926122464" x2="46.5625" y2="178.9855926122464" style="visibility: inherit;" fill="rgb(0, 0, 0)" stroke="rgb(204, 204, 204)" stroke-width="1px"></line><line x1="51.5625" y1="139.9753698274451" x2="46.5625" y2="139.9753698274451" style="visibility: inherit;" fill="rgb(0, 0, 0)" stroke="rgb(204, 204, 204)" stroke-width="1px"></line><line x1="51.5625" y1="100.96514704264382" x2="46.5625" y2="100.96514704264382" style="visibility: inherit;" fill="rgb(0, 0, 0)" stroke="rgb(204, 204, 204)" stroke-width="1px"></line><line x1="51.5625" y1="61.95492425784254" x2="46.5625" y2="61.95492425784254" style="visibility: inherit;" fill="rgb(0, 0, 0)" stroke="rgb(204, 204, 204)" stroke-width="1px"></line><line x1="51.5625" y1="22.944701473041263" x2="46.5625" y2="22.944701473041263" style="visibility: inherit;" fill="rgb(0, 0, 0)" stroke="rgb(204, 204, 204)" stroke-width="1px"></line></g><g transform="translate(41.5625, 0)"><text x="0" y="374.0367065362528" dx="0em" dy="0.3em" style="text-anchor: end; visibility: hidden; font-family: Roboto, sans-serif; font-size: 12px; font-weight: 200;" fill="rgb(33, 33, 33)" stroke="none" stroke-width="1px">-150</text><text x="0" y="335.0264837514515" dx="0em" dy="0.3em" style="text-anchor: end; visibility: inherit; font-family: Roboto, sans-serif; font-size: 12px; font-weight: 200;" fill="rgb(33, 33, 33)" stroke="none" stroke-width="1px">-100</text><text x="0" y="296.01626096665024" dx="0em" dy="0.3em" style="text-anchor: end; visibility: inherit; font-family: Roboto, sans-serif; font-size: 12px; font-weight: 200;" fill="rgb(33, 33, 33)" stroke="none" stroke-width="1px">-50</text><text x="0" y="257.0060381818489" dx="0em" dy="0.3em" style="text-anchor: end; visibility: inherit; font-family: Roboto, sans-serif; font-size: 12px; font-weight: 200;" fill="rgb(33, 33, 33)" stroke="none" stroke-width="1px">0</text><text x="0" y="217.9958153970476" dx="0em" dy="0.3em" style="text-anchor: end; visibility: inherit; font-family: Roboto, sans-serif; font-size: 12px; font-weight: 200;" fill="rgb(33, 33, 33)" stroke="none" stroke-width="1px">50</text><text x="0" y="178.9855926122464" dx="0em" dy="0.3em" style="text-anchor: end; visibility: inherit; font-family: Roboto, sans-serif; font-size: 12px; font-weight: 200;" fill="rgb(33, 33, 33)" stroke="none" stroke-width="1px">100</text><text x="0" y="139.9753698274451" dx="0em" dy="0.3em" style="text-anchor: end; visibility: inherit; font-family: Roboto, sans-serif; font-size: 12px; font-weight: 200;" fill="rgb(33, 33, 33)" stroke="none" stroke-width="1px">150</text><text x="0" y="100.96514704264382" dx="0em" dy="0.3em" style="text-anchor: end; visibility: inherit; font-family: Roboto, sans-serif; font-size: 12px; font-weight: 200;" fill="rgb(33, 33, 33)" stroke="none" stroke-width="1px">200</text><text x="0" y="61.95492425784254" dx="0em" dy="0.3em" style="text-anchor: end; visibility: inherit; font-family: Roboto, sans-serif; font-size: 12px; font-weight: 200;" fill="rgb(33, 33, 33)" stroke="none" stroke-width="1px">250</text><text x="0" y="22.944701473041263" dx="0em" dy="0.3em" style="text-anchor: end; visibility: inherit; font-family: Roboto, sans-serif; font-size: 12px; font-weight: 200;" fill="rgb(33, 33, 33)" stroke="none" stroke-width="1px">300</text></g><line x1="51.5625" y1="0" x2="51.5625" y2="377" fill="rgb(0, 0, 0)" stroke="rgb(204, 204, 204)" stroke-width="1px"></line></g></g><g transform="translate(51, 0)" clip-path="url(#clip_0)"><clipPath id="clip_0"><rect width="1392" height="377"></rect></clipPath><g><g><g><line x1="62.07947566047263" y1="0" x2="62.07947566047263" y2="377" fill="rgb(0, 0, 0)" stroke="rgb(66, 66, 66)" stroke-width="1px" opacity="0.25"></line><line x1="158.13481976111228" y1="0" x2="158.13481976111228" y2="377" fill="rgb(0, 0, 0)" stroke="rgb(66, 66, 66)" stroke-width="1px" opacity="0.25"></line><line x1="254.19016386175196" y1="0" x2="254.19016386175196" y2="377" fill="rgb(0, 0, 0)" stroke="rgb(66, 66, 66)" stroke-width="1px" opacity="0.25"></line><line x1="350.24550796239157" y1="0" x2="350.24550796239157" y2="377" fill="rgb(0, 0, 0)" stroke="rgb(66, 66, 66)" stroke-width="1px" opacity="0.25"></line><line x1="446.3008520630312" y1="0" x2="446.3008520630312" y2="377" fill="rgb(0, 0, 0)" stroke="rgb(66, 66, 66)" stroke-width="1px" opacity="0.25"></line><line x1="542.3561961636709" y1="0" x2="542.3561961636709" y2="377" fill="rgb(0, 0, 0)" stroke="rgb(66, 66, 66)" stroke-width="1px" opacity="0.25"></line><line x1="638.4115402643105" y1="0" x2="638.4115402643105" y2="377" fill="rgb(0, 0, 0)" stroke="rgb(66, 66, 66)" stroke-width="1px" opacity="0.25"></line><line x1="734.4668843649501" y1="0" x2="734.4668843649501" y2="377" fill="rgb(0, 0, 0)" stroke="rgb(66, 66, 66)" stroke-width="1px" opacity="0.25"></line><line x1="830.5222284655898" y1="0" x2="830.5222284655898" y2="377" fill="rgb(0, 0, 0)" stroke="rgb(66, 66, 66)" stroke-width="1px" opacity="0.25"></line><line x1="926.5775725662294" y1="0" x2="926.5775725662294" y2="377" fill="rgb(0, 0, 0)" stroke="rgb(66, 66, 66)" stroke-width="1px" opacity="0.25"></line><line x1="1022.632916666869" y1="0" x2="1022.632916666869" y2="377" fill="rgb(0, 0, 0)" stroke="rgb(66, 66, 66)" stroke-width="1px" opacity="0.25"></line><line x1="1118.6882607675088" y1="0" x2="1118.6882607675088" y2="377" fill="rgb(0, 0, 0)" stroke="rgb(66, 66, 66)" stroke-width="1px" opacity="0.25"></line><line x1="1214.7436048681484" y1="0" x2="1214.7436048681484" y2="377" fill="rgb(0, 0, 0)" stroke="rgb(66, 66, 66)" stroke-width="1px" opacity="0.25"></line><line x1="1310.7989489687882" y1="0" x2="1310.7989489687882" y2="377" fill="rgb(0, 0, 0)" stroke="rgb(66, 66, 66)" stroke-width="1px" opacity="0.25"></line></g><g><line x1="0" y1="374.0367065362528" x2="1392.4375" y2="374.0367065362528" fill="rgb(0, 0, 0)" stroke="rgb(66, 66, 66)" stroke-width="1px" opacity="0.25"></line><line x1="0" y1="335.0264837514515" x2="1392.4375" y2="335.0264837514515" fill="rgb(0, 0, 0)" stroke="rgb(66, 66, 66)" stroke-width="1px" opacity="0.25"></line><line x1="0" y1="296.01626096665024" x2="1392.4375" y2="296.01626096665024" fill="rgb(0, 0, 0)" stroke="rgb(66, 66, 66)" stroke-width="1px" opacity="0.25"></line><line x1="0" y1="257.0060381818489" x2="1392.4375" y2="257.0060381818489" fill="rgb(0, 0, 0)" stroke="rgb(66, 66, 66)" stroke-width="1px" opacity="0.25"></line><line x1="0" y1="217.9958153970476" x2="1392.4375" y2="217.9958153970476" fill="rgb(0, 0, 0)" stroke="rgb(66, 66, 66)" stroke-width="1px" opacity="0.25"></line><line x1="0" y1="178.9855926122464" x2="1392.4375" y2="178.9855926122464" fill="rgb(0, 0, 0)" stroke="rgb(66, 66, 66)" stroke-width="1px" opacity="0.25"></line><line x1="0" y1="139.9753698274451" x2="1392.4375" y2="139.9753698274451" fill="rgb(0, 0, 0)" stroke="rgb(66, 66, 66)" stroke-width="1px" opacity="0.25"></line><line x1="0" y1="100.96514704264382" x2="1392.4375" y2="100.96514704264382" fill="rgb(0, 0, 0)" stroke="rgb(66, 66, 66)" stroke-width="1px" opacity="0.25"></line><line x1="0" y1="61.95492425784254" x2="1392.4375" y2="61.95492425784254" fill="rgb(0, 0, 0)" stroke="rgb(66, 66, 66)" stroke-width="1px" opacity="0.25"></line><line x1="0" y1="22.944701473041263" x2="1392.4375" y2="22.944701473041263" fill="rgb(0, 0, 0)" stroke="rgb(66, 66, 66)" stroke-width="1px" opacity="0.25"></line></g></g></g><g><g><line x1="0" y1="257.0060381818489" x2="1392.4375" y2="257.0060381818489" fill="rgb(0, 0, 0)" stroke="rgb(153, 153, 153)" stroke-width="1.5px"></line></g></g><g><g><line x1="158.13481976111228" y1="0" x2="158.13481976111228" y2="377" fill="rgb(0, 0, 0)" stroke="rgb(153, 153, 153)" stroke-width="1.5px"></line></g></g><g><g><g><g><g><path stroke="rgb(204, 51, 17)" stroke-width="2px" d="M159.3066949591401,249.18830882004283L160.36810651145217,246.74964533302233L160.80515832711006,244.77508840042606L161.29504058202335,243.21624692481194L161.996244593958,240.72149337586023L163.0624589134751,238.58824639213964L163.5715522372085,236.2262919626417L165.1372543460489,232.13739780753437L165.3869982407106,229.4419749963791L167.45218813887433,224.93289218197035L167.54824348297498,222.0975415520674L170.15614607530733,217.49731888788156L171.06867184426343,213.2107981865688L171.18393825718417,209.9171342868008L172.9417510542259,206.54254074207847L173.70058827262093,202.3407092282722L173.8158546855417,199.4740537637642L175.26148761425634,195.5710415788926L177.92702341304906,191.00771860024386L178.215189445351,187.93878786298157L180.05464928487825,184.216763780462L182.5809048347251,179.45616997436386L183.0467732536132,176.17507122362395L183.40698079399058,173.07253019448592L183.56547211175663,171.10300400590188L183.88725751449377,168.93287327646888L184.3291120973567,166.15114606994229L185.35210151202855,163.89788111809975L186.1445581008588,161.4150186015455L186.30785218582992,160.2216574875777L186.86017041440857,159.3234549898644L186.93701468968908,158.02946129864344L187.20596965317088,156.70361265217048L188.2913950415081,155.77798572740588L188.55554723778488,154.3946261000453L189.68419753096737,152.58564278089028L190.45744305097753,150.6835388260814L191.03377511558136,148.98496971620327L191.71096529149088,147.4774854971673L193.84819669773012,144.5464233218624L193.98267417947102,143.7881990768321L194.84717227637677,141.7377976308661L195.26021025600954,139.87782514518034L196.48971866049772,138.1640978186649L197.95456265803247,136.23547240913385L199.18887382972568,134.6439616621986L199.21769043295586,132.91257585660597L199.52506753407792,130.22662512661384L199.72198098948422,129.83259885159637L199.89007784166034,128.13004760886298L200.1686383395522,126.4176836569052L200.28390475247295,125.48405657373644L202.089745221565,123.8339375744493L202.5700219420682,123.46341690031718L202.75732986306443,122.36764022252166L202.93022948244558,120.25812497413598L203.08391803300663,119.09345274231906L204.7792948563829,118.12712503303032L204.97620831178924,117.20562742128395L205.3796407570119,116.71027752850351L205.65339848769872,115.55716435133431L205.76386213341445,115.18295134683028L205.91755068397546,114.6423313253196L206.06163370012646,114.16041311568904L206.46506614534914,114.11316345948903L206.743626643241,113.13232980051876L207.07982034759323,112.05132189590569L208.29972321767136,111.12986704865894L208.65032522363867,109.86135791206486L209.26027665867775,109.00389401803841L209.55804822538974,109.2172629956698L211.07572266217986,107.6119690160528L211.53198554665786,106.72316482128905L214.89872535738527,104.91037786789273L215.12925818322682,103.15074278862785L215.89770093603192,102.02262549535435L216.13303652907854,101.8228990564176L217.4682058120774,100.37597576191035L217.6795275690988,98.32865451146766L218.0541434110913,97.81745106772297L220.11453054205003,97.03244347754952L222.03083465685776,95.807490992435L222.43426710208047,94.79962374717336L223.07783790755477,93.74935653340772L223.21231538929564,92.37989994589559L223.6541699721586,91.42301097367292L223.67818380818375,90.94460494283129L224.42261272496373,90.61091671185243L224.6483427836002,90.65666935015166L225.2342803826141,90.51674686892282L225.5944879229915,89.91053097931994L226.27648086610606,89.62670234845217L226.64629394089351,89.36140304444903L228.47134547880566,87.99393099651498L228.95162219930887,86.4779481778585L229.46071552304227,85.25254264953831L229.52315149670767,84.77262243151145L230.48850770491913,83.82993338824586L230.51252154094425,83.66015452928812L231.9581544696589,83.30133220835312L233.10601583166155,81.61729217777435L236.13656193803672,80.16706306982589L238.9846028906207,78.93996429883919L239.1382914411817,78.51740006212414L239.21993848366725,77.15328981184342L239.335204896588,76.73964470590583L239.5273155847893,76.73342253419884L245.16576428349686,74.76537867066442L245.2041864211371,73.71064574890973L245.24260855877736,73.54551204764756L246.52975016972593,72.18734264215122L246.89476047730835,70.90309167038285L248.22992976030724,69.26096559276144L248.25874636353743,68.49762935387436L248.4028293796884,66.93793145353911L249.91089828206844,66.55764581929263L250.39117500257166,66.49963362830081L250.91947939512514,65.50304732667198L251.19803989301698,64.7270834290153L251.79358302644098,64.55033217148886L252.00970755066743,63.825173086789995L252.3507040222247,64.23738979007672L253.42652387615183,63.9358518410291L254.18536109454692,63.31939571097151L257.1582739944617,62.607800702674126L257.2927514762026,61.712064084693054L258.2292910811838,61.62059789586784L258.8392425162229,61.51405053728964L259.16583068616507,61.25697861916758L259.2426749614456,61.322566420965536L259.61248803623306,60.389071377080214L260.27526991052747,59.23914430924856L260.48659166754885,59.45906355491247L262.2396016973856,59.359082102873536L264.0982726057329,58.169758016769734L264.57374655903106,58.177599269723586L267.16724084974834,57.19819508716328L268.93946194840515,56.86437503687994L269.1075588005813,55.9102257331094L270.5483889620909,54.331167864374976L270.9998490793639,53.90551752960041L275.21667868538196,53.481767199057L275.6537305010399,52.692420770195824L276.8496195350928,51.39734602264765L277.0417302232941,51.33275125012061L277.37792392764635,50.56951030150309L277.9062283201999,50.66414922639056L278.1607749820666,50.18301705559L278.74190981387545,49.908379961381755L280.3364285259461,50.07236763719752L281.3209958029776,49.93597679292566L282.6657706203865,49.54602099019415L284.8174103282409,49.124540100010364L286.1093547063945,48.86640918528157L286.33508476503096,48.34625121449175L286.92582513124995,47.99112593086201L287.87677303784625,46.79672367911167L287.9488145459217,45.98006627061033L289.2887865961257,46.15260752244022L291.6133259233611,46.53555443601902L291.81023937876745,46.42250445204465L292.1032081782744,46.00012042193786L292.641118105238,46.36148287004615L293.1021837569211,46.25591337617245L296.4256986628032,47.22850053042121L297.2805912252989,46.15666567912781L297.3382244317593,45.83594074865044L298.9039265405997,45.50619282659665L299.76842463750546,44.74676179880896L300.1286321778829,45.26002277317855L300.39278437415965,45.44249889362249L300.4696286494401,45.37437119172935L300.6665421048464,45.158032797140905L301.40616825442135,45.83558208456838L301.6126872442377,45.804068380587935L302.4819881083485,46.08068187303666L302.6020572884743,45.1806430514865L303.65866607358134,45.464982371252404L305.59418125720924,46.25319720765611L306.6315789734961,47.84474343813106L306.8236896616974,47.41927855703043L306.8621117993377,48.3167097831735L308.82644358619575,49.918461076095696L308.98973767116684,49.42728749274822L310.19042947242485,49.64181665338538L311.4295434113231,51.06965772858134L311.5976402634992,50.16089383878185L311.70810390921497,50.999829832804345L311.89060906300614,51.2167228697353L315.7184145254166,52.99038501794005L315.7808504990821,53.21556477576625L317.9661095773716,54.911659553976044L318.58566654682073,56.446400468247376L319.9928773378951,57.023752973812854L320.48275959280835,57.36604474023964L320.77572839231533,59.494539956169355L323.6573887153345,61.91295371307232L325.99633634418507,62.72005737119671L326.0731806194656,64.7873776749961L326.9040593459361,64.07099859161734L327.2738724207236,64.52388513691102L328.5225918940319,66.52862618277484L328.8779966672043,68.71749855039162L329.61282004957417,69.2456602465102L330.61659839542585,70.5012021481601L330.784695247602,71.10503325349232L333.44062551198465,71.30148824044993L334.3675595825558,72.89482082006337L335.3137047219471,73.85197881377267L335.3713379284075,75.3800355346482L335.81799527847545,75.8471269009166L336.1493862156227,77.30408607064312L336.21662495649315,77.42775854754036L336.3943273430793,78.11146891162329L336.71130997861144,77.38420484770789L339.07427144348713,76.62293323819333L339.43447898386455,76.59561684954129L340.33739921841055,76.35889322195759L342.49384169346996,79.21262598845078L342.49864446067494,80.27795228868578L342.5995025719806,81.70532601454937L342.9789211811782,81.1626090964341L344.5062011523783,82.9149318818856L344.6694952373494,84.67792515240146L345.5628099374854,84.29547097833752L348.2667678739184,86.7519261830203L348.8623110073424,88.3791700062812L350.7738123549451,91.15902250072918L351.37896102277904,94.65522253145464L351.4413969964445,98.03929069473736L351.84002667446214,97.84198603935155L352.2434591196848,99.07524104992108L352.83900225310884,100.80955369372559L353.2088153278963,102.06098470494675L354.7697146695317,104.17257083910106L355.3988771733909,108.06431968609198L356.8445101021055,111.9688805585687L357.31998405540367,114.80905512971353L357.6225583893207,115.46412771719363L359.69735382189447,118.8324962746212L359.9086755789159,119.91570986549841L360.4802048763147,124.1052617071018L362.0651180539753,129.47943703868089L362.42052282714764,134.09988067644048L363.95740833275784,139.42198138301575L364.41847398444094,141.55904299918245L365.3165914517819,144.009715093384L365.7632488018499,149.62915404229585L366.07542867017696,151.99838615019905L368.3855596957974,155.94245021088767L370.6812824198026,165.1233963310729L370.8157599015436,169.255594474932L371.1327425370756,173.91437128067685L371.6802579984493,178.7040070030211L371.9636212635462,182.51171634136043L372.87134426529724,186.53094053272963L372.93378023896264,187.79890761163347L372.96259684219285,187.74224065555092L373.11148262554883,191.62904659338224L374.14407757463067,196.45644057780683L381.42507265745917,205.36897483248657L383.3365740050619,217.5066956830495L384.1674527315324,226.43259618306192L384.1866638003526,230.396320893588L384.2635080756331,233.43729833266005L384.402788324579,238.13244479035018L384.71977096011113,241.01753421004616L385.3249196279452,244.65399859522813L386.8666079007604,247.3323805700799L388.66284283544235,253.41555338743834L389.5753686043985,254.19311572077174L389.8539291022903,258.11809200708956L390.51671097658476,260.52211342083467L391.1170568772137,262.8112406795442L391.7174027778428,265.8849808196353L392.1112296886553,269.12630361597763L394.2628693965097,273.4906441856772L394.97848171005944,277.04086828937204L395.79014936770983,279.8982228800707L397.08209374586346,284.33463556145347L399.5267022532247,291.52939174224804L401.34214825672683,296.5723732004075L401.62070875461865,301.6402971237157L406.90375268015384,307.3867094376431L407.5425207184231,311.623767360917L407.57133732165335,313.1200035834177L407.73943417382947,317.4036145333946L407.9411503964407,319.0310603371279L408.9785481127277,317.4531034737929L409.14184219769874,319.2794838026795L409.5692884789466,323.0097084852177L409.626921685407,322.3036221099959L409.79501853758313,324.43416082926166L411.07735738132664,325.81316692617474L412.5229903100413,328.1202743273062L413.07530853862,327.3673982116455L413.9013844978855,330.8852104279728L415.67360559654225,332.69801011444895L417.6811622882456,332.8305881588635L419.68391621274395,334.94049245110625L420.3274870182182,335.8992278194936L421.16316851189384,339.16185487804495L422.6664346470688,339.11866493626127L422.99782558421606,339.78398742776903L424.04963160211804,338.7644438066637L424.68359687318224,337.99116562109714L425.10143762002,337.9595631145297L425.30795660983637,340.0503321193791L425.7354028910842,340.21375123424684L427.00333343321273,340.73463756438747L428.48738849956754,339.79177583948393L429.3999142685237,341.73152996884465L431.5659622779931,341.5475307420923L431.69563699252893,340.0185780313562L432.2095330834674,341.17695377265477L433.8712905364084,341.7396359385418L434.0585984574047,339.7672799321465L436.20543539805396,338.6812825119722L436.4263626894855,338.64438043391266L437.5117880778227,338.80536694684696L438.6020162333649,338.36743886004047L438.6404383710052,338.06395199204684L439.64901948406185,338.45040353413793L439.84113017226315,338.3428549203571L440.84971128531987,336.4032756752094L441.77184258868607,335.4893439439006L443.82742695243974,334.9351945873664L444.1540151223819,333.2852749111543L446.3056548302363,333.1923016307773L447.64562688044015,330.6413036310379L448.37084472839996,329.0924307121089L450.90190304545183,326.3710605799005L453.0151206156659,324.7372361130991L454.6672725341969,321.50987308452864L455.4453208214121,319.67781990658966L455.85835880104486,318.5360903108857L456.1561303677568,315.94897783535055L457.5585383916262,314.1733824101484L457.7602546142375,314.0312563560952L459.84465558122133,313.0625068589745L460.5554651275661,311.8480136722574L463.43712545058537,309.93710586393576L463.69647487965705,308.02945675640603L464.00865474798417,306.06947314889237L465.0556579986811,304.3688261478159L465.94897269881704,302.92614040802016L467.9085017184701,302.3986887594662L469.8055947644577,301.14871022346813L469.9688888494288,299.9585055339417L471.8755874298265,297.11002387600587L472.31744201268947,297.15281407563003L472.45191949443034,295.66603386316785L473.599780856433,294.3105507654154L473.7822860102242,294.31608441136393L474.353815307623,293.186864825256L474.4354623501086,292.3125134859441L474.79566989048595,293.34138183500204L474.90613353620165,291.7643299376022L475.0550193195577,292.05396026259683L476.22209175038046,291.52168952435846L476.2893304912509,290.4738915511679L476.5198633170924,289.8457938426246L478.24885951090397,289.4297130571696L478.3064927173643,287.7579815821862L478.38333699264484,287.25179820022436L478.6811085593568,287.5438544595677L481.2698000828691,286.1718989721095L482.3744365400264,284.9672493300832L482.43206974648683,284.9526296579103L483.9257303472517,285.6204252617921L484.2331074483738,285.55638078695586L484.6941731000569,284.090700815812L485.62590993783306,282.6654243343095L486.8266017390911,281.56911881692963L486.9130515487816,279.63328549143847L487.5422140526408,280.7590360958138L487.69590260320183,279.6843880920746L488.6900754146435,279.19697755047724L489.8427395438511,278.5871288076754L490.6496044342966,280.4297198440144L491.7350298226338,279.6822463203624L492.06642075978095,280.1234664786874L492.5995279195395,280.85432913812724L492.76762477171565,280.4947675253873L495.26506371833227,281.2408930081096L496.0575203071625,281.06684029483097L497.1525512299098,282.022207022847L497.176565065935,281.32949096560094L498.530945417754,281.18561386423625L498.8959557253364,280.47542116331175L498.9295750957717,279.53275910175836L499.5203154619906,280.39795995536406L499.89493130398307,281.2273052391447L500.1206613626196,280.310881729355L500.36079972287115,279.53395791080413L502.46441175867517,279.1450911796889L505.3220582456692,279.8925352137827L506.57558048618256,280.21658047368464L509.332368861871,278.0430128233865L509.71659023827345,278.83560748362424L509.89909539206474,277.68824742345225L510.91247927232644,276.56857034304323L511.4503891992901,277.1957762045988L512.7615446462638,276.8156843191513L513.1313577210512,276.7539115808484L513.1649770914864,275.6010390949824L513.7124925528601,276.08165314807366L514.4617242368452,275.4614749010383L517.1704849404831,277.23485213475743L518.3663739745361,276.55635384463363L518.8706645310644,277.7553042778955L519.0435641504456,278.61596047858023L519.3269274155425,279.0997654019588L520.465183243135,278.792265050755L520.7293354394119,280.0488244303702L521.055923609354,277.55876585367355L524.196933361445,278.68963387648444L525.6953967294149,279.16834030484563L526.9537217371333,280.66739270720774L528.0055277550352,282.7245166670768L530.6278386489828,280.3245927512857L530.8727797764394,279.7661857523355L531.8189249158306,278.9620135699667L532.5105233933554,278.0707710845584L533.1781080348547,278.9489853690027L533.8504954435592,280.5328803259849L534.4412358097782,279.3394355372004L534.7822322813354,280.48844121036177L534.8398654877958,278.8514410188913L535.5842944045758,279.76515748825267L537.8415949909407,279.85729749110044L538.4083215211346,278.9716830782208L538.6580654157962,278.98160174163735L540.2141619902266,278.18848600982415L541.7078225909914,278.2891452871144L544.6279050516509,276.9046268157687L544.7239603957516,276.7475760944674L550.1126651997974,277.77751842524873L550.6217585235308,276.139490974336L554.2766643665602,275.9959729576091L555.5542004430987,275.65359881210804L557.6097848068524,276.0591131573641L558.3205943531972,274.9618265408955L560.5826977067672,274.2419789474443L561.1061993321157,274.3893513317016L561.5144345445434,274.4160172472929L561.754572904795,274.8011942966551L562.9168425684128,274.891391257258L565.5151396263351,274.87580112254676L565.6880392457161,273.7315131994748L566.9799836238698,273.49193098259724L568.3871944149441,274.0630065542726L569.2757063478751,272.11738125614903L570.1354016775758,273.6740542094122L572.2390137133798,272.62841655265737L573.1035118102856,272.0484742684186L573.1947643871812,272.73998013235655L574.3330202147738,272.8474893376482L575.3367985606254,273.3729084441973L575.4664732751613,272.6057864409733L575.6825977993877,273.34297167412257L577.51725487171,271.800623622568L579.2798704359567,271.67589035232527L579.7889637596901,271.57025720280296L580.3412819882689,272.89520778271805L581.2442022228148,271.2922178540089L581.8541536578539,272.039272690821L583.4534751371295,272.1404097473208L584.7742361185134,271.6763554613285L589.1975847143477,272.74698786770017L590.595189971012,271.3439277112275L591.0610583899002,270.47963614615685L591.2099441732562,270.8226421134438L593.155064891294,269.74407934157256L594.2548985812464,270.4292528433148L594.331742856527,269.93801468808255L594.7063586985195,269.94465394340943L595.1530160485875,268.49724891648066L597.2037976451361,269.0641075104646L598.7262748491313,268.53511666281753L599.2689875432999,268.3283153619456L599.9557832536194,269.17341534453254L600.8875200913957,269.74703307804276L601.2045027269277,270.1724052356402L601.2093054941328,269.97793415367596L601.2669387005932,269.53628936479294L603.5962807950336,268.8175983857968L603.942080033796,269.1154762715204L606.497152186873,269.6960585225082L608.2261483806845,269.167372302062L608.4374701377059,268.27853462088655L608.4758922753462,268.62920016652373L609.6189508701437,268.4891572101273L609.657373007784,267.01624481530945L610.3873936229488,266.63342446569385L611.8570403876887,267.8500362461745L613.7877528041115,268.53218444205964L614.8011366843733,268.0605880445859L615.5359600667432,267.9337603545724L617.7020080762126,266.21739467635604L618.1342571246655,265.327685980944L619.9112809905273,264.9603211776677L623.4413148862258,264.3033803449079L624.070477390085,263.6763870218263L628.3305319009484,262.7710709926792L631.9037907014921,262.4780985903871L633.8537141867351,263.21012727009605L633.9353612292207,261.9593554166709L634.2043161927024,261.5963169058071L635.2465166761945,261.27913026056893L635.625935285392,261.78656883910236L639.5642043935181,261.28991997282856L640.135733690917,261.3899289128308L640.4815329296792,262.1623954959546L641.5717610852216,263.1590887923107L642.2345429595159,262.4034011306514L642.8973248338103,262.76958063419465L643.6945841898457,261.99843348193286L644.0547917302231,260.179927377689L644.7271791389276,260.8926373729425L645.6204938390636,261.64519836935955L646.297684014973,262.1675513932865L648.7903201943845,261.65017929435817L648.8143340304098,261.0125447194497L649.2033581740174,259.08999958664805L650.4616831817358,259.34466844390147L651.8881050416302,258.8062222906408L652.59411182077,258.26401827256507L653.953294939794,256.6548427213228L654.7649625974444,258.327711421796L655.2596476195627,256.237994662311L656.2778342670294,256.6788873641468L657.2239794064208,256.3009479763612L659.2555499341493,254.9692495999376L659.2891693045846,254.9955350493756L659.6061519401165,254.29849038642564L659.8414875331632,254.76142175185183L662.2668849717044,255.11298040267144L662.7951893642579,255.48189926077032L663.85660091657,256.6516042231836L664.9420263049071,255.852382269767L665.2878255436694,256.5077047280569L665.3694725861551,256.70927506761575L665.8929742115035,257.6961564376634L666.2579845190859,257.0841912588221L668.236724607559,257.1018917535737L668.8658871114183,259.17503352875326L668.9715479899289,259.176390359064L669.5382745201227,259.6370495712313L671.5554367462362,261.06342647560194L671.8724193817683,260.92556564845165L672.3478933350665,261.466971550534L672.4007237743218,262.1680982468105L672.588031695318,262.8674860137674L673.4333187234038,263.50956139719085L675.0326402026793,264.98850774968014L675.7866746538695,266.1576449376096L676.0652351517612,264.78488703049885L676.1997126335021,265.5620848063373L676.6031450787249,265.5488126010748L682.3088325183029,263.86102116125033L682.6162096194248,263.6710563666793L684.0330259449092,264.0429756888047L686.0261743349976,261.9686286179535L686.5640842619612,262.2738569977103L686.6697451404718,262.6317747751063L688.3795302654632,263.0087338351016L688.8405959171463,263.31445041339697L691.1026992707164,263.41745238939484L691.3044154933277,264.64110909153186L692.5147128289958,264.8123958750356L692.7452456548373,265.80590820760574L692.8893286709882,264.98185744530394L694.1620619803217,264.9546088885025L695.8670443381081,264.1913593323403L697.6200543679448,263.61210541274585L698.0763172524228,262.901665373047L698.1963864325486,262.67547404792964L698.5998188777713,263.04852473873916L698.6718603858469,262.2182117333335L699.1809537095802,261.361332728729L699.1857564767852,261.3928274910808L700.6025728022696,260.64250693149825L703.0327730080157,262.64726362185047L706.3851045171282,263.311113292959L706.6300456445847,263.10707204563454L707.3936856301849,261.84820226846057L707.4417133022351,261.2021361275202L708.4262805792667,260.6489387763551L709.343609115428,259.4637758485427L709.6029585444996,258.26626358257363L709.6798028197802,258.86577245083254L712.1724389991917,259.1182956402983L712.1916500680119,258.9058684288833L712.5038299363389,259.6936070074689L713.4980027477804,262.0477179704101L713.6324802295213,261.8543703505712L716.0146527632173,260.61754725126116L716.0194555304223,259.80130320355033L716.4757184149004,260.0832374404252L717.2057390300653,259.8416742282129L718.1086592646112,258.463188656822L718.1278703334312,258.48541537232677L720.8126172010442,257.9203834188447L721.2832883871374,258.04924633346786L723.7278968944986,258.6725496692468L726.7776540696939,258.9084794461231L727.6229410977796,257.1165601000325L727.992754172567,255.86966918764813L729.784186340044,255.2729376715748L730.6390789025397,255.95468048214235L732.1039229000744,255.66980847760817L735.8020536479489,255.91699507001275L736.1238390506862,256.2683624656605L736.9259011739265,254.98850402726967L739.1207657866262,254.6723619517942L739.2408349667519,255.4616845626651L739.8892085394314,254.69271461985954L742.0120316440555,255.73149955086672L742.4538862269184,256.6754761712439L743.9715606637085,256.98906372928815L746.296099990944,254.74364079629103L746.910854193188,255.30134172718633L747.1750063894649,254.52024060118322L748.4189230955681,253.5684845726818L750.2295663318652,252.23535135103435L751.0556422911307,253.77686051389756L753.5530812377472,254.40805411847074L754.3839599642179,253.15347554073128L754.5424512819839,253.3052598324416L756.5596135080973,253.34524663247004L758.8841528353328,251.3856457001817L759.0090247826635,250.29378449186953L760.7092043732448,249.0279352211979L762.2893147837003,249.0570979840293L763.4131623096779,248.72672587460303L763.9510722366415,249.11726209282898L766.722268913945,249.89577635313145L767.4090646242646,249.807112215716L768.0670437313539,250.4358376384841L770.185064068773,250.42213639750048L771.0207455624485,250.2988323203502L775.0502672474704,249.76579704911356L775.1895474964164,249.60451941635856L776.0780594293473,249.77878667298785L776.3085922551887,249.71935926669536L776.6976163987964,249.8375210547461L777.3171733682454,248.6283092679394L779.060577863672,248.8305497833636L779.1566332077728,249.33875547110054L779.1758442765929,248.04390508636405L779.2767023878986,247.54574572284616L780.1940309240596,247.9073031308022L780.8327989623289,248.30056401611878L781.9566464883064,248.37291481222766L783.9449921111895,246.922663516075L785.4194416431345,247.82800276278928L785.5923412625156,249.05756680761624L785.7124104426414,248.3600395946559L787.3069291547121,248.6320387975834L788.1522161827976,248.1523447136173L788.3011019661536,248.71626446235928L789.9676621862998,248.17372888557264L791.7350805177515,247.7399188804385L792.1193018941541,247.64725727960035L792.6139869162723,246.88348022532924L792.8733363453441,246.84370438282596L795.2362978102198,244.96483945323854L796.76357778142,245.48192611733077L797.7625533600666,245.13450428180423L799.9141930679209,246.07519638657377L801.0524488955136,247.44733885059546L805.5286279306034,248.16497063957289L806.2682540801783,246.40685459510195L806.5324062764552,245.03007657766207L806.6908975942212,245.83883466960188L806.9982746953432,246.68880489885444L807.257624124415,245.53914487667996L807.3200600980803,245.32720126703236L808.3478522799571,244.85061498514648L813.9142594705892,246.18362064879113L814.9804737901064,245.38034324172017L816.0178715063932,245.368385294712L816.4261067188208,245.16253476537355L818.2607637911431,243.95898543009406L818.7602515804665,245.30012727378522L820.4796422398679,244.49353728060495L820.7870193409899,245.9067815599142L821.2769015959032,245.23000836427008L821.536251024975,245.27891720056746L821.6323063690756,245.4304564028251L821.9204724013775,244.6316967268937L822.9962922553048,244.7429415658887L825.0662849206735,245.24376341726872L826.0748660337302,244.70627849373696L826.1180909385755,245.0034343872617L829.7057580407343,246.00743086765897L831.0937577629886,245.97662605496905L831.2570518479596,245.78468754060717L831.6652870603874,245.65777277185168L832.1647748497109,245.90289240615525L832.212802521761,245.06742424339353L832.356885537912,245.51653789081584L832.8035428879799,245.25667069102607L833.6152105456305,245.24521333779666L834.6478054947123,244.19947248331624L836.7898396681566,245.10956823930945L836.8330645730018,245.11584708968638L837.3709744999654,245.93076355049965L837.6303239290371,246.2891530666525L838.4179777506624,246.44532424534626L838.5284413963782,246.4128348556714L838.8694378679354,246.40861575785362L842.3226274883534,246.4823618019159L842.5435547797848,245.42575382661312L843.1342951460038,245.3133936739952L845.3723846635487,246.22877520097225L845.4348206372141,245.03199868513758L846.5154432583463,244.24624513170073L847.1926334342558,245.84778864695755L849.2001901259592,246.92938573031915L850.8811586477204,246.24277852227644L852.4324524549457,245.13094160476484L853.3641892927219,245.9359254970185L853.3689920599269,245.0278950700219L853.522680610488,244.68876487024383L858.2534063074445,244.60216788900533L858.7624996311779,241.76703717473112L859.3388316957817,243.31509815301717L860.1745131894572,242.9048041498434L860.6451843755505,242.8909534494137L861.6537654886072,242.86637740916618L863.3443395447783,242.40683726675078L863.5508585345947,243.62195360138944L872.6232857849001,244.74550414478173L872.7961854042813,245.99878984404643L874.2898460050463,245.2740260685519L874.4627456244274,245.70607127357755L878.1848902083271,244.7087842682985L878.1896929755322,242.8191407559925L879.0878104428731,243.84698022899912L882.9348269741038,245.10604624091908L883.2854289800712,245.7204540651297L883.7080724941139,245.9319125086951L883.7224807957291,245.99354266411484L884.6590204007103,244.22703731871331L885.7060236514072,244.56108295036321L885.7204319530224,244.76466221389836L886.0470201229646,243.8261350569563L887.2909368290678,243.24822089380223L887.6943692742905,243.28356336142423L888.3283345453548,242.28154536310683L888.674133784117,242.6608024206272L889.0007219540593,243.90271714451586L889.0775662293397,243.6664087329003L889.5002097433825,243.732918963565L889.6442927595335,243.01174065378837L891.8247490706179,244.1147221540409L892.117717870125,243.4112712015377L892.6604305642936,243.03474859793184L893.2751847665376,243.8383592396594L893.7842780902711,244.75352153038352L894.2117243715189,245.24651776275135L894.7352259968674,244.87898204890976L897.2758898483293,244.10170017616926L898.7647476818893,243.99849111327168L900.2824221186794,244.19907194228156L901.1901451204304,244.48127732847547L901.6416052377034,244.65629727582504L901.8625325291349,244.70037803261928L902.0690515189513,245.36088256118313L902.328400948023,244.42770463864386L907.2992650052311,243.09696939271598L908.9850362941972,242.90089407919575L908.9946418286074,243.7449745308384L910.4018526196817,243.55562563237424L910.9589736154654,244.17777540505105L912.2893401312592,244.47488686683815L914.7579624746458,245.77990914856701L915.8049657253426,245.71399473527532L919.2677608801707,245.84676102239246L919.9833731937206,245.73082066683617L921.0832068836729,245.3586721560024L923.2540576603474,244.24929624474547L924.6708739858317,243.63348431236227L925.7562993741689,244.93215733910975L925.9628183639853,245.22759761726797L926.4190812484634,245.509875067433L926.9377801066069,244.24066279944478L928.9645478671304,243.52477722018435L930.0451704882624,242.91437968861578L931.8462081901495,243.89102035259523L933.4647407382454,244.88048601817584L933.5511905479359,245.8967523087889L934.7903044868341,246.7220731510933L935.669210885355,247.47598001484198L935.7988855998908,247.58264095555307L940.2270369629302,247.28451998042414L940.5776389688976,246.27116407849653L940.7937634931241,246.648062838155L940.8610022339946,245.11659751483822L940.9618603453002,245.2620166295696L941.3508844889078,246.8077520121496L941.9992580615872,246.46836721425586L943.6802265833484,246.21160815211044L944.7128215324302,246.02855011236542L945.6445583702064,247.1418578001432L947.094994066126,246.75485814116522L948.0075198350821,247.21232558071682L948.2332498937186,246.65687989759482L949.4195333933616,247.04405328000146L950.533775384929,246.00477421337803L951.44149838668,247.12931442915564L951.8113114614675,245.94518233089423L953.3241831310526,245.82062056066846L953.5883353273292,244.79561795710126L954.6497468796415,244.94735664874747L956.6669091057548,243.32753500464923L959.2219812588318,242.8889463235021L959.9520018739968,243.2267534919537L960.019240614867,244.6670039703251L960.9221608494131,244.69269890072619L961.1094687704094,245.18229732661212L961.1622992096649,244.88941127170065L961.4264514059415,245.23141186108055L962.0316000737755,245.89869513054066L964.0247484638637,246.80802400997732L964.802796751079,246.8163633653545L966.6902842626565,248.03517606254266L967.655640470868,246.9178135801647L967.804526254224,247.13258616733046L968.0062424768353,247.02547647144894L968.6065883774644,246.2266771278674L969.912941057233,246.004702863966L970.7582280853187,245.58027408938452L970.801452990164,244.78657531322395L973.0971757141691,245.6621192499616L974.0481236207655,245.87175096240304L974.2306287745567,247.06172628603474L974.4419505315781,247.01200704912353L974.706102727855,247.1468103828899L975.781922581782,246.75790337545882L975.8923862274979,246.5086075976033L976.4062823184362,246.34777702419504L976.9874171502452,246.8279824036152L977.9671816600717,246.63061277546916L978.1929117187083,247.87716664228532L979.2927454086605,246.8616242663968L979.6193335786027,246.40291828107405L979.8162470340089,245.2537062921851L980.0563853942606,244.34146569785713L981.0505582057021,244.9924789157019L982.5922464785175,245.59899400179987L983.4759556442433,245.34492080054275L984.7102668159366,244.74712213455325L986.2711661575719,244.90083634041395L986.564134957079,245.88853629432805L986.8811175926111,246.15154648474248L989.6763281059397,245.76666212553573L990.1325909904177,244.7759742495226L992.3466666719373,245.42921220516982L992.8269433924406,245.98188316818795L992.8413516940557,244.77387087760246L993.2207703032532,245.13647399495582L993.8115106694721,245.71124983394927L995.0266107723453,246.20517290189642L995.3147768046472,246.09537448154234L995.8526867316108,246.2710998427337L997.7017521055482,247.59176191597382L998.292492471767,247.0670674836652L998.7439525890401,247.10518665975857L1002.2739864847385,247.68665318231893L1003.0808513751839,247.32037876460413L1003.1961177881046,248.02925471190335L1003.978968842525,247.4164520368656L1005.3141381255238,245.98960457331208L1006.3131137041704,246.01800812958595L1008.6376530314059,244.9074536747822L1012.5951332083523,244.96614538504025L1012.859285404629,245.54719106107245L1012.8977075422694,246.30758736194875L1013.2002818761862,246.471644656802L1013.7910222424052,247.51699310646245L1014.2232712908581,247.23997520711416L1015.1213887581991,247.844396670478L1015.3279077480155,247.6420056282623L1015.8129872357237,247.91256557318914L1015.861014907774,247.85129188631808L1016.3989248347376,249.1054131760384L1017.9310075731427,247.0954589701195L1018.3152289495453,246.0973586160884L1019.0500523319153,246.62997673671856L1020.2555469003782,247.06275275174994L1021.0383979547985,247.47954610803794L1021.7540102683482,246.27346645248844L1022.7914079846353,247.88299316335943L1024.9526532268994,247.25469646056268L1025.2456220264064,247.13610824152514L1026.513552568535,247.30833263060634L1026.6336217486607,246.37580055358546L1028.8621057317955,247.15985721831012L1029.7314065959063,247.2243472286875L1030.8408458202687,247.37311404361907L1031.0089426724448,246.80849887743256L1031.0473648100851,247.16311375121157L1031.7245549859947,246.8262818830378L1032.5698420140802,247.6445549259411L1036.3015921323902,248.40520859350943L1038.8806781214923,246.74643003953585L1039.6587264087075,247.75070975673552L1039.9516952082145,246.10472379437851L1040.5184217384083,245.7137474462984L1041.834379952587,245.9084059659607L1043.2752101140966,246.5182342217364L1044.9129537310125,245.5998421651569L1047.242295825453,245.30729894259076L1049.048136294545,245.2799308651549L1049.4323576709476,243.97007136148954L1050.5081775248748,243.8911645133658L1050.714696514691,245.49338598722625L1051.7665025325932,244.60784382688414L1052.1171045385604,243.83737803475466L1053.9661699124977,243.59154537362562L1054.6577683900225,244.85642343825296L1054.9603427239392,243.54762195697992L1055.3829862379823,243.85234606397768L1056.2666954037081,244.98545348671286L1056.3051175413482,245.33200632668556L1056.4972282295496,245.56079668884803L1056.9006606747723,245.8272228835231L1058.3174770002568,246.13344913809433L1058.682487307839,246.0303307498328L1059.55178817195,245.78390467932402L1060.3874696656255,244.96628127669663L1063.4132130047958,244.84190662938974L1063.6773652010725,245.23794942150155L1065.286292214758,244.16380367244068L1065.6561052895456,244.11994900586066L1068.571384983,245.34364988075134L1068.8307344120717,245.52521295976229L1071.0688239296167,246.05039880198538L1071.9573358625476,246.012944633695L1072.7449896841729,244.7282455729786L1074.3106917930131,244.9716154989852L1074.421155438729,245.25061562890292L1075.146373286689,245.30662702290653L1075.1944009587392,245.53375934540657L1075.813957928188,245.8705754231084L1077.456504312309,245.25577122113793L1077.6053900956651,246.66349716341966L1079.545708046498,246.72033078076387L1079.6657772266237,245.51060569038L1081.2987180763348,246.46520158057487L1082.384143464672,246.02697446565628L1082.6579011953588,246.4503846181014L1083.724115514876,247.07006955988481L1084.35808078594,247.1005773320179L1085.0160598930295,247.38279352624096L1085.0256654274397,247.64463453859202L1085.7412777409895,246.9515615637912L1087.182107902499,246.46883006437267L1087.31658538424,246.00221693565535L1087.4606684003907,246.44138563297653L1088.2723360580412,246.57870261920897L1088.3059554284764,247.01140797511385L1090.31351212018,246.0821431570226L1090.942674624039,246.20575740317952L1091.970466805916,246.19682752295276L1092.2682383726278,245.5916525164969L1094.3238227363815,246.28176122979434L1094.4631029853274,245.4676481259678L1094.7896911552696,244.9650097111785L1095.606161580125,245.36655162303896L1095.6493864849704,243.98439019700476L1096.2401268511892,243.91494956460818L1096.5763205555415,244.3640761906894L1097.1238360169152,244.41619103508432L1097.392790980397,244.56561534687512L1098.4542025327091,245.35291095742193L1098.9680986236474,245.31943838823685L1101.6144233536202,244.4769772653055L1101.7969285074112,244.13801109564477L1103.7468519926542,243.56318361196824L1104.4240421685638,242.59290355091395L1105.509467556901,242.25262272985734L1106.3115296801413,243.4271757817224L1108.0885535460031,244.46899698855148L1108.3286919062548,245.40494284395612L1109.3949062257718,246.0574750362966L1110.2690098570877,246.65804222721647L1110.7060616727456,246.81923624168016L1111.973992214874,246.0707848094824L1115.095790898145,246.58960559303566L1116.6086625677299,247.3507533912902L1116.6662957741903,247.23676031385693L1117.0553199177978,247.62315030200455L1117.108150357053,246.90079202518572L1117.4683578974305,247.31890732722144L1117.7469183953224,247.2775900078087L1118.6834580003037,248.37273999810117" style="fill: none;" fill="none"></path></g></g></g></g><g opacity="0.2"><g><g><g><path stroke="rgb(204, 51, 17)" stroke-width="2px" d="M159.3066949591401,249.18830882004283L160.36810651145217,244.7987145434059L160.80515832711006,241.93172641748745L161.29504058202335,240.17338836441317L161.996244593958,234.82988339465592L163.0624589134751,232.85134794375955L163.5715522372085,229.25516297251508L165.1372543460489,219.21183420917382L165.3869982407106,220.46915138032116L167.45218813887433,209.31735632719062L167.54824348297498,211.9739128552681L170.15614607530733,200.67705270289795L171.06867184426343,197.24298521976687L171.18393825718417,197.46676303888484L172.9417510542259,193.63783133781973L173.70058827262093,186.12473838679247L173.8158546855417,188.33018861777606L175.26148761425634,180.3105449238344L177.92702341304906,173.08324876030815L178.215189445351,175.83997672608922L180.05464928487825,169.50031551459998L182.5809048347251,160.58942966113122L183.0467732536132,163.14751716296092L183.40698079399058,160.7356227567725L183.56547211175663,163.26210254940614L183.88725751449377,160.28514444712116L184.3291120973567,155.05786626226694L185.35210151202855,154.90661355215926L186.1445581008588,151.50277875358685L186.30785218582992,155.45559957922782L186.86017041440857,155.73509268235244L186.93701468968908,152.8586125708828L187.20596965317088,151.40441984835977L188.2913950415081,152.07782477140128L188.55554723778488,148.86399337726166L189.68419753096737,145.35264474752182L190.45744305097753,143.07759207894324L191.03377511558136,142.1924571717014L191.71096529149088,141.4488009899157L193.84819669773012,132.82412264559284L193.98267417947102,140.75570523786845L194.84717227637677,133.5370639913236L195.26021025600954,132.438568118277L196.48971866049772,131.30965503355583L197.95456265803247,128.52139078842998L199.18887382972568,128.27819595473616L199.21769043295586,125.98727395419587L199.52506753407792,119.48312170015974L199.72198098948422,128.25652889984474L199.89007784166034,121.31996413604617L200.1686383395522,119.56832560777416L200.28390475247295,121.74959088160824L202.089745221565,117.23352186859103L202.5700219420682,121.98134503412038L202.75732986306443,117.9845591350101L202.93022948244558,111.8201034437613L203.08391803300663,114.4347812452759L204.7792948563829,114.2618257653511L204.97620831178924,113.5196458004921L205.3796407570119,114.72888175298948L205.65339848769872,110.94471871122064L205.76386213341445,113.68610116394946L205.91755068397546,112.47985336023106L206.06163370012646,112.23274178969147L206.46506614534914,113.92416495332559L206.743626643241,109.20899713481121L207.07982034759323,107.72729201456612L208.29972321767136,107.44404884424873L208.65032522363867,104.78732267027442L209.26027665867775,105.57403914741306L209.55804822538974,110.07073876575538L211.07572266217986,101.19079394287058L211.53198554665786,103.167948416642L214.89872535738527,97.6592306652155L215.12925818322682,96.11220294596521L215.89770093603192,97.51015656557219L216.13303652907854,101.02399333513198L217.4682058120774,94.58828278360743L217.6795275690988,90.13936973577849L218.0541434110913,95.77263733790524L220.11453054205003,93.89241317233507L222.03083465685776,90.90768112123466L222.43426710208047,90.76815481171383L223.07783790755477,89.54828771634935L223.21231538929564,86.90207363548997L223.6541699721586,87.59545510694234L223.67818380818375,89.03098082832814L224.42261272496373,89.27616379288285L224.6483427836002,90.83967990280607L225.2342803826141,89.95705694533461L225.5944879229915,87.48566742550882L226.27648086610606,88.49138782670427L226.64629394089351,88.30020582972513L228.47134547880566,82.52404281009166L228.95162219930887,80.41401690794464L229.46071552304227,80.35092053930467L229.52315149670767,82.8529415603589L230.48850770491913,80.05917721668372L230.51252154094425,82.98103909367326L231.9581544696589,81.86604292497854L233.10601583166155,74.88113205683152L236.13656193803672,74.36614663897721L238.9846028906207,74.03156921553236L239.1382914411817,76.82714311544028L239.21993848366725,71.69684881117577L239.335204896588,75.08506428226598L239.5273155847893,76.70853384737235L245.16576428349686,66.89320321686287L245.2041864211371,69.49171406203541L245.24260855877736,72.88497724261678L246.52975016972593,66.75466502028489L246.89476047730835,65.76608778339916L248.22992976030724,62.69246128236768L248.25874636353743,65.44428439836013L248.4028293796884,60.69913985225416L249.91089828206844,65.03650328231771L250.39117500257166,66.26758486433475L250.91947939512514,61.51670212017514L251.19803989301698,61.62322783839973L251.79358302644098,63.84332714138549L252.00970755066743,60.92453674800144L252.3507040222247,65.88625660322027L253.42652387615183,62.72970004484048L254.18536109454692,60.85357119074427L257.1582739944617,59.7614206694873L257.2927514762026,58.12911761277133L258.2292910811838,61.254733140567104L258.8392425162229,61.087861102977215L259.16583068616507,60.22869094667949L259.2426749614456,61.58491762815759L259.61248803623306,56.65509120153994L260.27526991052747,54.63943603792294L260.48659166754885,60.33874053756778L262.2396016973856,58.95915629471772L264.0982726057329,53.41246167235508L264.57374655903106,58.208964281538904L267.16724084974834,53.28057835692231L268.93946194840515,55.52909483574646L269.1075588005813,52.09362851802759L270.5483889620909,48.01493638943747L270.9998490793639,52.202916190502116L275.21667868538196,51.78676587688347L275.6537305010399,49.53503505475125L276.8496195350928,46.217047032454865L277.0417302232941,51.07437216001261L277.37792392764635,47.516546507033034L277.9062283201999,51.04270492594047L278.1607749820666,48.25848837238777L278.74190981387545,48.80983158454893L280.3364285259461,50.72831834046042L281.3209958029776,49.39041341583834L282.6657706203865,47.98619777926827L284.8174103282409,47.43861653927507L286.1093547063945,47.83388552636643L286.33508476503096,46.26561933133242L286.92582513124995,46.57062479634298L287.87677303784625,42.019114672110426L287.9488145459217,42.71343663660481L289.2887865961257,46.8427725297599L291.6133259233611,48.06734209033431L291.81023937876745,45.97030451614691L292.1032081782744,44.31058430151062L292.641118105238,47.80693266247946L293.1021837569211,45.8336354006777L296.4256986628032,51.11884914741616L297.2805912252989,41.86932627395418L297.3382244317593,44.55304102674112L298.9039265405997,44.18720113838144L299.76842463750546,41.70903768765824L300.1286321778829,47.31306667065675L300.39278437415965,46.172403375398275L300.4696286494401,45.10186038415666L300.6665421048464,44.29267921878714L301.40616825442135,48.545779234278264L301.6126872442377,45.678013564666074L302.4819881083485,47.18713584283153L302.6020572884743,41.58048776528572L303.65866607358134,46.60233965031595L305.59418125720924,49.40605655327096L306.6315789734961,54.210928360031055L306.8236896616974,45.717419032628044L306.8621117993377,51.90643468774555L308.82644358619575,56.325466247784576L308.98973767116684,47.462593159358235L310.19042947242485,50.49993329593416L311.4295434113231,56.781022029365154L311.5976402634992,46.52583827958381L311.70810390921497,54.35557380889437L311.89060906300614,52.08429501745897L315.7184145254166,60.08503361075902L315.7808504990821,54.11628380707108L317.9661095773716,61.69603866681521L318.58566654682073,62.585364125332745L319.9928773378951,59.33316299607491L320.48275959280835,58.73521180594669L320.77572839231533,68.0085208198884L323.6573887153345,71.58660874068404L325.99633634418507,65.9484720036943L326.0731806194656,73.05665889019356L326.9040593459361,61.20548225810229L327.2738724207236,66.33543131808553L328.5225918940319,74.54759036623037L328.8779966672043,77.47298802085882L329.61282004957417,71.35830703098432L330.61659839542585,75.52336975475987L330.784695247602,73.52035767482128L333.44062551198465,72.08730818828025L334.3675595825558,79.26815113851718L335.3137047219471,77.68061078860994L335.3713379284075,81.4922624181504L335.81799527847545,77.71549236599014L336.1493862156227,83.1319227495493L336.21662495649315,77.92244845512927L336.3943273430793,80.84631036795494L336.71130997861144,74.47514859204655L339.07427144348713,73.57784680013492L339.43447898386455,76.48635129493314L340.33739921841055,75.41199871162272L342.49384169346996,90.6275570544236L342.49864446067494,84.53925748962575L342.5995025719806,87.41482091800383L342.9789211811782,78.99174142397327L344.5062011523783,89.92422302369141L344.6694952373494,91.72989823446471L345.5628099374854,82.76565428208191L348.2667678739184,96.57774700175125L348.8623110073424,94.88814529932506L350.7738123549451,102.27843247852107L351.37896102277904,108.64002265435647L351.4413969964445,111.57556334786817L351.84002667446214,97.05276741780847L352.2434591196848,104.00826109219904L352.83900225310884,107.7468042689436L353.2088153278963,107.06670874983129L354.7697146695317,112.6189153757185L355.3988771733909,123.63131507405556L356.8445101021055,127.5871240484755L357.31998405540367,126.16975341429276L357.6225583893207,118.08441806711424L359.69735382189447,132.30597050433133L359.9086755789159,124.24856422900746L360.4802048763147,140.8634690735155L362.0651180539753,150.97613836499696L362.42052282714764,152.581655227479L363.95740833275784,160.7103842093165L364.41847398444094,150.1072894638494L365.3165914517819,153.81240347019005L365.7632488018499,172.1069098379436L366.07542867017696,161.47531458181155L368.3855596957974,171.71870645364234L370.6812824198026,201.84718081181381L370.8157599015436,185.78438705036834L371.1327425370756,192.54947850365636L371.6802579984493,197.86254989239808L371.9636212635462,197.7425536947176L372.87134426529724,202.60783729820665L372.93378023896264,192.87077592724873L372.96259684219285,187.51557283122082L373.11148262554883,207.17627034470743L374.14407757463067,215.7660165155054L381.42507265745917,241.0191118512054L383.3365740050619,266.05757908530114L384.1674527315324,262.1361981831118L384.1866638003526,246.25121973569222L384.2635080756331,245.60120808894837L384.402788324579,256.9130306211108L384.71977096011113,252.55789188882997L385.3249196279452,259.19985613595594L386.8666079007604,258.04590846948696L388.66284283544235,277.74824465687215L389.5753686043985,257.30336505410526L389.8539291022903,273.8179971523609L390.51671097658476,270.1381990758152L391.1170568772137,271.9677497143823L391.7174027778428,278.1799413799998L392.1112296886553,282.091594801347L394.2628693965097,290.9480064644753L394.97848171005944,291.2417647041515L395.79014936770983,291.3276412428655L397.08209374586346,302.0802862869845L399.5267022532247,320.3084164654263L401.34214825672683,316.7442990330456L401.62070875461865,321.91199281694827L406.90375268015384,330.37235869335245L407.5425207184231,328.57199905401274L407.57133732165335,319.1049484734207L407.73943417382947,334.5380583333021L407.9411503964407,325.54084355206106L408.9785481127277,311.1412760204528L409.14184219769874,326.58500511822604L409.5692884789466,337.93060721537057L409.626921685407,319.47927660910864L409.79501853758313,332.9563157063246L411.07735738132664,331.32919131382715L412.5229903100413,337.3487039318323L413.07530853862,324.35589374900246L413.9013844978855,344.95645929328225L415.67360559654225,339.94920886035334L417.6811622882456,333.3609003365217L419.68391621274395,343.38010962007723L420.3274870182182,339.7341692930432L421.16316851189384,352.21236311225033L422.6664346470688,338.94590516912655L422.99782558421606,342.4452773938L424.04963160211804,334.6862693222423L424.68359687318224,334.8980528788311L425.10143762002,337.83315308825985L425.30795660983637,348.4134081387768L425.7354028910842,340.8674276937179L427.00333343321273,342.8181828849498L428.48738849956754,336.02032893986984L429.3999142685237,349.49054648628754L431.5659622779931,340.811533835083L431.69563699252893,333.9027671884117L432.2095330834674,345.810456737849L433.8712905364084,343.99036460209027L434.0585984574047,331.87785590656495L436.20543539805396,334.33729283127485L436.4263626894855,338.4967721216745L437.5117880778227,339.44931299858416L438.6020162333649,336.6157265128145L438.6404383710052,336.8500045200722L439.64901948406185,339.9962097025025L439.84113017226315,337.91266046523384L440.84971128531987,328.6449586946184L441.77184258868607,331.8336170186657L443.82742695243974,332.7185971612297L444.1540151223819,326.6855962063059L446.3056548302363,332.8204085092691L447.64562688044015,320.4373116320801L448.37084472839996,322.8969390363934L450.90190304545183,315.4855800510667L453.0151206156659,318.2019382458934L454.6672725341969,308.6004209702469L455.4453208214121,312.34960719483377L455.85835880104486,313.9691719280696L456.1561303677568,305.60052793321006L457.5585383916262,307.0710007093397L457.7602546142375,313.4627521398826L459.84465558122133,309.18750887049134L460.5554651275661,306.9900409253895L463.43712545058537,302.2934746306487L463.69647487965705,300.3988603262873L464.00865474798417,298.22953871883766L465.0556579986811,297.5662381435101L465.94897269881704,297.15539744883733L467.9085017184701,300.2888821652503L469.8055947644577,296.14879607947597L469.9688888494288,295.19768677583596L471.8755874298265,285.71609724426247L472.31744201268947,297.3239748741268L472.45191949443034,289.7189130133192L473.599780856433,288.8886183744057L473.7822860102242,294.3382189951579L474.353815307623,288.66998648082443L474.4354623501086,288.8151081286963L474.79566989048595,297.4568552312338L474.90613353620165,285.45612234800296L475.0550193195577,293.2124815625753L476.22209175038046,289.39260657140505L476.2893304912509,286.2826996584056L476.5198633170924,287.3334030084512L478.24885951090397,287.7653899153497L478.3064927173643,281.07105568225256L478.38333699264484,285.2270646723771L478.6811085593568,288.71207949694116L481.2698000828691,280.6840770222766L482.3744365400264,280.148650761978L482.43206974648683,284.8941509692185L483.9257303472517,288.29160767731946L484.2331074483738,285.30020288761096L484.6941731000569,278.2279809312365L485.62590993783306,276.9643184082995L486.8266017390911,277.1838967474104L486.9130515487816,271.8899521894736L487.5422140526408,285.2620385133152L487.69590260320183,275.3857960771177L488.6900754146435,277.24733538408776L489.8427395438511,276.14773383646803L490.6496044342966,287.8000839893703L491.7350298226338,276.69235222575463L492.06642075978095,281.8883471119874L492.5995279195395,283.7777797758865L492.76762477171565,279.0565210744276L495.26506371833227,284.2253949389986L496.0575203071625,280.37062944171663L497.1525512299098,285.8436739349112L497.176565065935,278.55862673661653L498.530945417754,280.61010545877764L498.8959557253364,277.6346503596136L498.9295750957717,275.76211085554473L499.5203154619906,283.8587633697871L499.89493130398307,284.5446863742672L500.1206613626196,276.6451876901963L500.36079972287115,276.42626263660026L502.46441175867517,277.5896242552282L505.3220582456692,282.882311350158L506.57558048618256,281.5127615132923L509.332368861871,269.3487422221941L509.71659023827345,282.0059861245753L509.89909539206474,273.0988071827641L510.91247927232644,272.08986202140727L511.4503891992901,279.70459965082097L512.7615446462638,275.2953167773611L513.1313577210512,276.50682062763696L513.1649770914864,270.9895491515184L513.7124925528601,278.00410936043863L514.4617242368452,272.980761912897L517.1704849404831,284.32836106963384L518.3663739745361,273.84236068413855L518.8706645310644,282.55110601094276L519.0435641504456,282.0585852813194L519.3269274155425,281.03498509547273L520.465183243135,277.56226364594016L520.7293354394119,285.0750619488308L521.055923609354,267.598531546887L524.196933361445,283.2131059677282L525.6953967294149,281.0831660182901L526.9537217371333,286.66360231665607L528.0055277550352,290.9530125065533L530.6278386489828,270.7248970881213L530.8727797764394,277.5325577565347L531.8189249158306,275.74532484049143L532.5105233933554,274.505801142925L533.1781080348547,282.46184250678004L533.8504954435592,286.86846015391353L534.4412358097782,274.5656563820627L534.7822322813354,285.0844639030069L534.8398654877958,272.30344025300974L535.5842944045758,283.42002336569783L537.8415949909407,280.2258575024917L538.4083215211346,275.4292254267024L538.6580654157962,279.0212763953034L540.2141619902266,275.01602308257134L541.7078225909914,278.69178239627536L544.6279050516509,271.36655293038604L544.7239603957516,276.11937320926194L550.1126651997974,281.89728774837397L550.6217585235308,269.5873811706853L554.2766643665602,275.42190089070124L555.5542004430987,274.2841022301039L557.6097848068524,277.6811705383884L558.3205943531972,270.5726800750212L560.5826977067672,271.3625885736394L561.1061993321157,274.9788408687308L561.5144345445434,274.5226809096581L561.754572904795,276.34190249410426L562.9168425684128,275.25217909966926L565.5151396263351,274.8134405837019L565.6880392457161,269.15436150718693L566.9799836238698,272.53360211508686L568.3871944149441,276.3473088409738L569.2757063478751,264.3348800636551L570.1354016775758,279.9007460224648L572.2390137133798,268.44586592563803L573.1035118102856,269.7287051314637L573.1947643871812,275.50600358810823L574.3330202147738,273.2775261588149L575.3367985606254,275.47458487039376L575.4664732751613,269.53729842807735L575.6825977993877,276.29171260671933L577.51725487171,265.6312314163498L579.2798704359567,271.17695727135435L579.7889637596901,271.14772460471374L580.3412819882689,278.19501010237826L581.2442022228148,264.88025813917255L581.8541536578539,275.0274920380692L583.4534751371295,272.54495797332015L584.7742361185134,269.82013831735935L589.1975847143477,277.02951749318686L590.595189971012,265.73168708533666L591.0610583899002,267.0224698858745L591.2099441732562,272.19466598259135L593.155064891294,265.4298282540876L594.2548985812464,273.1699468502838L594.331742856527,267.97306206715365L594.7063586985195,269.9712109647169L595.1530160485875,262.7076288087656L597.2037976451361,271.3315418864004L598.7262748491313,266.41915327222904L599.2689875432999,267.5011101584581L599.9557832536194,272.55381527488015L600.8875200913957,272.0415040120836L601.2045027269277,271.87389386603036L601.2093054941328,269.2000498258186L601.2669387005932,267.76971020926095L603.5962807950336,265.9428344698124L603.942080033796,270.30698781441464L606.497152186873,272.01838752645966L608.2261483806845,267.0526274202772L608.4374701377059,264.7231838961847L608.4758922753462,270.03186234907207L609.6189508701437,267.9289853845417L609.657373007784,261.1245952360382L610.3873936229488,265.1021430672314L611.8570403876887,272.7164833680972L613.7877528041115,271.2607772256L614.8011366843733,266.174202454691L615.5359600667432,267.4264495945186L617.7020080762126,259.35193196349064L618.1342571246655,261.76885119929597L619.9112809905273,263.4908619645624L623.4413148862258,261.67561701386853L624.070477390085,261.1684137295002L628.3305319009484,259.14980687609074L631.9037907014921,261.3062089812186L633.8537141867351,266.1382419889319L633.9353612292207,256.9562680029701L634.2043161927024,260.144162862352L635.2465166761945,260.0103836796162L635.625935285392,263.81632315323634L639.5642043935181,259.3033245077331L640.135733690917,261.78996467284L640.4815329296792,265.25226182844983L641.5717610852216,267.14586197773514L642.2345429595159,259.38065048401415L642.8973248338103,264.2342986483676L643.6945841898457,258.9138448728858L644.0547917302231,252.9059029607136L644.7271791389276,263.7434773539561L645.6204938390636,264.65544235502796L646.297684014973,264.25696348899424L648.7903201943845,259.5806908986447L648.8143340304098,258.46200641981613L649.2033581740174,251.3998190554413L650.4616831817358,260.36334387291504L651.8881050416302,256.65243767759796L652.59411182077,256.09520220026246L653.953294939794,250.21814051635351L654.7649625974444,265.01918622368885L655.2596476195627,247.87912762437097L656.2778342670294,258.4424581714901L657.2239794064208,254.78919042521883L659.2555499341493,249.64245609424322L659.2891693045846,255.10067684712735L659.6061519401165,251.51031173462587L659.8414875331632,256.6131472135568L662.2668849717044,256.5192150059498L662.7951893642579,256.957574693166L663.85660091657,261.33042407283665L664.9420263049071,252.6554944561004L665.2878255436694,259.1289945612167L665.3694725861551,257.51555642585095L665.8929742115035,261.64368191785405L666.2579845190859,254.6363305434571L668.236724607559,257.17269373258L668.8658871114183,267.46760062947146L668.9715479899289,259.18181768030695L669.5382745201227,261.47968641990053L671.5554367462362,266.7689340930845L671.8724193817683,260.37412233985043L672.3478933350665,263.63259515886375L672.4007237743218,264.97260503191603L672.588031695318,265.665037081595L673.4333187234038,266.0778629308848L675.0326402026793,270.90429315963746L675.7866746538695,270.83419368932726L676.0652351517612,259.2938554020562L676.1997126335021,268.67087590969084L676.6031450787249,265.49572378002506L682.3088325183029,257.1098554019526L682.6162096194248,262.911197188395L684.0330259449092,265.5306529773061L686.0261743349976,253.67124033454883L686.5640842619612,263.49477051673773L686.6697451404718,264.0634458846901L688.3795302654632,264.516570075083L688.8405959171463,264.5373167265782L691.1026992707164,263.82946029338615L691.3044154933277,269.5357359000804L692.5147128289958,265.4975430090501L692.7452456548373,269.7799575378865L692.8893286709882,261.68565439609677L694.1620619803217,264.8456146612966L695.8670443381081,261.1383611076916L697.6200543679448,261.29508973436776L698.0763172524228,260.0599052142519L698.1963864325486,261.77070874746005L698.5998188777713,264.5407275019773L698.6718603858469,258.8969597117108L699.1809537095802,257.9338167103112L699.1857564767852,261.5188065404878L700.6025728022696,257.64122469316806L703.0327730080157,270.6662903832593L706.3851045171282,265.96651197739334L706.6300456445847,262.2909070563366L707.3936856301849,256.81272315976463L707.4417133022351,258.6178715637588L708.4262805792667,258.43614937169474L709.343609115428,254.72312413729313L709.6029585444996,253.47621451869716L709.6798028197802,261.2638079238682L712.1724389991917,260.12838839816146L712.1916500680119,258.0561595832233L712.5038299363389,262.8445613218114L713.4980027477804,271.46416182217456L713.6324802295213,261.08097987121585L716.0146527632173,255.67025485402087L716.0194555304223,256.53632701270715L716.4757184149004,261.2109743879246L717.2057390300653,258.87542137936384L718.1086592646112,252.94924637125843L718.1278703334312,258.57432223434574L720.8126172010442,255.66025560491641L721.2832883871374,258.56469799196054L723.7278968944986,261.16576301236245L726.7776540696939,259.85219855362857L727.6229410977796,249.94888271567007L727.992754172567,250.8821055381104L729.784186340044,252.88601160728157L730.6390789025397,258.68165172441263L732.1039229000744,254.53032045947148L735.8020536479489,256.90574143963084L736.1238390506862,257.6738320482517L736.9259011739265,249.86907027370623L739.1207657866262,253.40779364989223L739.2408349667519,258.618975006149L739.8892085394314,251.61683484863715L742.0120316440555,259.88663927489534L742.4538862269184,260.4513826527525L743.9715606637085,258.24341396146525L746.296099990944,245.76194906430248L746.910854193188,257.5321454507675L747.1750063894649,251.39583609717096L748.4189230955681,249.7614604586761L750.2295663318652,246.9028184644444L751.0556422911307,259.9428971653504L753.5530812377472,256.93282853676374L754.3839599642179,248.13516122977327L754.5424512819839,253.91239699928278L756.5596135080973,253.50519383258398L758.8841528353328,243.54724197102826L759.0090247826635,245.926339658621L760.7092043732448,243.96453813851133L762.2893147837003,249.17374903535472L763.4131623096779,247.40523743689818L763.9510722366415,250.6794069657326L766.722268913945,253.00983339434129L767.4090646242646,249.45245566605422L768.0670437313539,252.95073932955646L770.185064068773,250.36733143356616L771.0207455624485,249.80561601174887L775.0502672474704,247.63365596416727L775.1895474964164,248.9594088853385L776.0780594293473,250.47585569950502L776.3085922551887,249.48164964152545L776.6976163987964,250.31016820694902L777.3171733682454,243.79146212071248L779.060577863672,249.63951184506035L779.1566332077728,251.37157822204827L779.1758442765929,242.8645035474181L779.2767023878986,245.55310826877468L780.1940309240596,249.35353276262634L780.8327989623289,249.87360755738507L781.9566464883064,248.6623179966631L783.9449921111895,241.1216583314644L785.4194416431345,251.44935974964653L785.5923412625156,253.97582298692402L785.7124104426414,245.56993074281456L787.3069291547121,249.72003560929332L788.1522161827976,246.233568377753L788.3011019661536,250.97194345732726L789.9676621862998,246.003586578426L791.7350805177515,246.004678859902L792.1193018941541,247.27661087624773L792.6139869162723,243.82837200824494L792.8733363453441,246.68460101281278L795.2362978102198,237.44937973488885L796.76357778142,247.5502727736998L797.7625533600666,243.74481693969784L799.9141930679209,249.83796480565206L801.0524488955136,252.9359087066823L805.5286279306034,251.03549779548254L806.2682540801783,239.3743904172182L806.5324062764552,239.5229645079025L806.6908975942212,249.07386703736114L806.9982746953432,250.08868581586466L807.257624124415,240.94050478798212L807.3200600980803,244.479426828442L808.3478522799571,242.94426985760305L813.9142594705892,251.51564330336987L814.9804737901064,242.16723361343614L816.0178715063932,245.32055350667932L816.4261067188208,244.33913264801978L818.2607637911431,239.1447880889762L818.7602515804665,250.6646946485496L820.4796422398679,241.26717730788414L820.7870193409899,251.5597586771513L821.2769015959032,242.52291558169355L821.536251024975,245.47455254575695L821.6323063690756,246.0366132118555L821.9204724013775,241.436658023168L822.9962922553048,245.18792092186902L825.0662849206735,247.24705082278862L826.0748660337302,242.55633879960985L826.1180909385755,246.1920579613608L829.7057580407343,250.023416789248L831.0937577629886,245.85340680420956L831.2570518479596,245.01693348315942L831.6652870603874,245.15011369682966L832.1647748497109,246.8833709433696L832.212802521761,241.72555159234685L832.356885537912,247.31299248050505L832.8035428879799,244.21720189186686L833.6152105456305,245.19938392487919L834.6478054947123,240.01650906539442L836.7898396681566,248.74995126328236L836.8330645730018,245.14096249119405L837.3709744999654,249.19042939375296L837.6303239290371,247.7227111312637L838.4179777506624,247.0700089601213L838.5284413963782,246.28287729697198L838.8694378679354,246.39173936658256L842.3226274883534,246.77734597816496L842.5435547797848,241.19932192540193L843.1342951460038,244.8639530635236L845.3723846635487,249.89030130888045L845.4348206372141,240.24489262179878L846.5154432583463,241.10323091795334L847.1926334342558,252.2539627079849L849.2001901259592,251.2557740637654L850.8811586477204,243.49634969010566L852.4324524549457,240.6835939347186L853.3641892927219,249.15586106603314L853.3689920599269,241.39577336203556L853.522680610488,243.33224407113136L858.2534063074445,244.25577996405133L858.7624996311779,230.42651431763423L859.3388316957817,249.5073420661615L860.1745131894572,241.26362813714812L860.6451843755505,242.83555064769504L861.6537654886072,242.7680732481759L863.3443395447783,240.56867669708924L863.5508585345947,248.4824189399441L872.6232857849001,249.23970631835107L872.7961854042813,251.0119326411052L874.2898460050463,242.37497096657373L874.4627456244274,247.43425209368024L878.1848902083271,240.71963624718222L878.1896929755322,235.26056670676837L879.0878104428731,247.95833812102546L882.9348269741038,250.14231028859913L883.2854289800712,248.17808536197225L883.7080724941139,246.77774628295657L883.7224807957291,246.24006328579378L884.6590204007103,237.16101593710707L885.7060236514072,245.8972654769629L885.7204319530224,245.57897926803895L886.0470201229646,240.07202642918807L887.2909368290678,240.9365642411859L887.6943692742905,243.42493323191226L888.3283345453548,238.2734733698372L888.674133784117,244.17783065070864L889.0007219540593,248.87037604007054L889.0775662293397,242.72117508643797L889.5002097433825,243.99895988622384L889.6442927595335,240.1270274146818L891.8247490706179,248.526648155051L892.117717870125,240.59746739152502L892.6604305642936,241.5286581835083L893.2751847665376,247.05280180656976L893.7842780902711,248.4141706932798L894.2117243715189,247.21850269222287L894.7352259968674,243.40883919354332L897.2758898483293,240.9925726852072L898.7647476818893,243.58565486168163L900.2824221186794,245.0013952583209L901.1901451204304,245.6100988732512L901.6416052377034,245.3563770652234L901.8625325291349,244.87670105979612L902.0690515189513,248.0029006754384L902.328400948023,240.69499294848703L907.2992650052311,237.77402840900433L908.9850362941972,242.11659282511494L908.9946418286074,247.12129633740884L910.4018526196817,242.79823003851766L910.9589736154654,246.66637449575845L912.2893401312592,245.6633327139864L914.7579624746458,250.9999982754826L915.8049657253426,245.45033708210852L919.2677608801707,246.37782617086083L919.9833731937206,245.26705924461126L921.0832068836729,243.87007811266722L923.2540576603474,239.81179259971765L924.6708739858317,241.17023658282952L925.7562993741689,250.1268494460995L925.9628183639853,246.40935872990084L926.4190812484634,246.6389848680933L926.9377801066069,239.1638137274918L928.9645478671304,240.66123490314274L930.0451704882624,240.47278956234118L931.8462081901495,247.79758300851333L933.4647407382454,248.83834868049814L933.5511905479359,249.96181747124132L934.7903044868341,250.02335652031093L935.669210885355,250.49160746983645L935.7988855998908,248.0092847183975L940.2270369629302,246.09203607990838L940.5776389688976,242.21774047078617L940.7937634931241,248.15565787678895L940.8610022339946,238.99073622157104L940.9618603453002,245.843693088495L941.3508844889078,252.99069354246973L941.9992580615872,245.11082802268083L943.6802265833484,245.1845719035288L944.7128215324302,245.2963179533852L945.6445583702064,251.59508855125443L947.094994066126,245.20685950525333L948.0075198350821,249.04219533892328L948.2332498937186,244.4350971651067L949.4195333933616,248.59274680962804L950.533775384929,241.8476579468842L951.44149838668,251.62747529226613L951.8113114614675,241.20865393784865L953.3241831310526,245.32237347976533L953.5883353273292,240.69560754283248L954.6497468796415,245.55431141533234L956.6669091057548,236.8482484282563L959.2219812588318,241.13459159891366L959.9520018739968,244.5779821657601L960.019240614867,250.42800588381084L960.9221608494131,244.79547862233025L961.1094687704094,247.1406910301561L961.1622992096649,243.71786705205471L961.4264514059415,246.59941421860023L962.0316000737755,248.56782820838097L964.0247484638637,250.445339527724L964.802796751079,246.84972078686317L966.6902842626565,252.91042685129534L967.655640470868,242.44836365065285L967.804526254224,247.99167651599348L968.0062424768353,246.59703768792295L968.6065883774644,243.0314797535412L969.912941057233,245.11680580836068L970.7582280853187,243.8825589910583L970.801452990164,241.61178020858193L973.0971757141691,249.16429499691202L974.0481236207655,246.71027781216884L974.2306287745567,251.8216275805614L974.4419505315781,246.81313010147866L974.706102727855,247.68602371795555L975.781922581782,245.2022753457346L975.8923862274979,245.5114244861809L976.4062823184362,245.7044547305622L976.9874171502452,248.74880392129594L977.9671816600717,245.84113426288474L978.1929117187083,252.86338210955006L979.2927454086605,242.7994547628429L979.6193335786027,244.56809433978302L979.8162470340089,240.65685833662926L980.0563853942606,240.69250332054517L981.0505582057021,247.5965317870809L982.5922464785175,248.02505434619178L983.4759556442433,244.32862799551435L984.7102668159366,242.35592747059528L986.2711661575719,245.51569316385653L986.564134957079,249.83933610998466L986.8811175926111,247.20358724640025L989.6763281059397,244.2271246887086L990.1325909904177,240.81322274547L992.3466666719373,248.0421640277587L992.8269433924406,248.1925670202604L992.8413516940557,239.94182171526063L993.2207703032532,246.58688646436923L993.8115106694721,248.01035318992302L995.0266107723453,248.180865173685L995.3147768046472,245.65618080012595L995.8526867316108,246.9740012874992L997.7017521055482,252.87441020893442L998.292492471767,244.96828975443054L998.7439525890401,247.257663364132L1002.2739864847385,250.01251927256047L1003.0808513751839,245.85528109374496L1003.1961177881046,250.8647585011001L1003.978968842525,244.96524133671454L1005.3141381255238,240.28221471909808L1006.3131137041704,246.1316223546814L1008.6376530314059,240.46523585556722L1012.5951332083523,245.20091222607246L1012.859285404629,247.87137376520118L1012.8977075422694,249.3491725654538L1013.2002818761862,247.12787383621517L1013.7910222424052,251.69838690510431L1014.2232712908581,246.13190360972087L1015.1213887581991,250.2620825239334L1015.3279077480155,246.83244145939943L1015.8129872357237,248.99480535289678L1015.861014907774,247.60619713883364L1016.3989248347376,254.1218983349198L1017.9310075731427,239.05564214644374L1018.3152289495453,242.1049571999641L1019.0500523319153,248.76044921923918L1020.2555469003782,248.7938568118756L1021.0383979547985,249.14671953318984L1021.7540102683482,241.44914783029054L1022.7914079846353,254.3211000068434L1024.9526532268994,244.7415096493755L1025.2456220264064,246.661755365375L1026.513552568535,247.9972301869313L1026.6336217486607,242.645672245502L1028.8621057317955,250.29608387720862L1029.7314065959063,247.48230727019686L1030.8408458202687,247.9681813033455L1031.0089426724448,244.55003821268647L1031.0473648100851,248.58157324632774L1031.7245549859947,245.47895441034274L1032.5698420140802,250.9176470975541L1036.3015921323902,251.44782326378285L1038.8806781214923,240.1113158236417L1039.6587264087075,251.76782862553395L1039.9516952082145,239.52077994495053L1040.5184217384083,244.14984205397798L1041.834379952587,246.68704004460997L1043.2752101140966,248.9575472448392L1044.9129537310125,241.92627393883893L1047.242295825453,244.13712605232635L1049.048136294545,245.17045855541133L1049.4323576709476,238.730633346828L1050.5081775248748,243.5755371208707L1050.714696514691,251.9022718826684L1051.7665025325932,241.06567518551543L1052.1171045385604,240.75551486623675L1053.9661699124977,242.60821472910965L1054.6577683900225,249.91593569676235L1054.9603427239392,238.31241603188764L1055.3829862379823,245.07124249196872L1056.2666954037081,249.51788317765352L1056.3051175413482,246.71821768657637L1056.4972282295496,246.47595813749788L1056.9006606747723,246.89292766222346L1058.3174770002568,247.35835415637928L1058.682487307839,245.61785719678667L1059.55178817195,244.79820039728878L1060.3874696656255,241.69578766618721L1063.4132130047958,244.34440804016194L1063.6773652010725,246.82212058994887L1065.286292214758,239.8672206761972L1065.6561052895456,243.94453033954045L1068.571384983,250.23845338031427L1068.8307344120717,246.251465275806L1071.0688239296167,248.15114217087765L1071.9573358625476,245.86312796053366L1072.7449896841729,239.58944933011307L1074.3106917930131,245.9450952030114L1074.421155438729,246.36661614857397L1075.146373286689,245.5306725989209L1075.1944009587392,246.44228863540678L1075.813957928188,247.2178397339156L1077.456504312309,242.7965544132561L1077.6053900956651,252.29440093254678L1079.545708046498,246.94766525014057L1079.6657772266237,240.67170532884444L1081.2987180763348,250.2835851413547L1082.384143464672,244.27406600598175L1082.6579011953588,248.14402522788188L1083.724115514876,249.5488093270185L1084.35808078594,247.22260842055022L1085.0160598930295,248.51165830313332L1085.0256654274397,248.6919985879962L1085.7412777409895,244.17926966458776L1087.182107902499,244.53790406669847L1087.31658538424,244.13576442078613L1087.4606684003907,248.19806042226125L1088.2723360580412,247.1279705641388L1088.3059554284764,248.74222939873346L1090.31351212018,242.3650838846576L1090.942674624039,246.70021438780734L1091.970466805916,246.16110800204538L1092.2682383726278,243.1709524906735L1094.3238227363815,249.0421960829842L1094.4631029853274,242.21119571066166L1094.7896911552696,242.95445605202147L1095.606161580125,246.97271927048075L1095.6493864849704,238.45574449286778L1096.2401268511892,243.63718703502204L1096.5763205555415,246.16058269501403L1097.1238360169152,244.62465041266424L1097.392790980397,245.16331259403844L1098.4542025327091,248.5020933996089L1098.9680986236474,245.1855481114964L1101.6144233536202,241.10713277358008L1101.7969285074112,242.78214641700205L1103.7468519926542,241.2638736772619L1104.4240421685638,238.71178330669682L1105.509467556901,240.8914994456311L1106.3115296801413,248.12538798918263L1108.0885535460031,248.6362818158677L1108.3286919062548,249.14872626557454L1109.3949062257718,248.66760380565862L1110.2690098570877,249.06031099089586L1110.7060616727456,247.46401229953506L1111.973992214874,243.07697908069133L1115.095790898145,248.66488872724858L1116.6086625677299,250.39534458430825L1116.6662957741903,246.78078800412402L1117.0553199177978,249.16871025459497L1117.108150357053,244.01135891791037L1117.4683578974305,248.99136853536433L1117.7469183953224,247.11232073015762L1118.6834580003037,252.75333995927127" style="fill: none;" fill="none"></path></g></g></g></g></g></g><g transform="translate(51, 377)" clip-path="url(#clip_1)"><clipPath id="clip_1"><rect width="1392" height="23"></rect></clipPath><g><g><line x1="62.07947566047263" y1="0" x2="62.07947566047263" y2="5" style="visibility: inherit;" fill="rgb(0, 0, 0)" stroke="rgb(204, 204, 204)" stroke-width="1px"></line><line x1="158.13481976111228" y1="0" x2="158.13481976111228" y2="5" style="visibility: inherit;" fill="rgb(0, 0, 0)" stroke="rgb(204, 204, 204)" stroke-width="1px"></line><line x1="254.19016386175196" y1="0" x2="254.19016386175196" y2="5" style="visibility: inherit;" fill="rgb(0, 0, 0)" stroke="rgb(204, 204, 204)" stroke-width="1px"></line><line x1="350.24550796239157" y1="0" x2="350.24550796239157" y2="5" style="visibility: inherit;" fill="rgb(0, 0, 0)" stroke="rgb(204, 204, 204)" stroke-width="1px"></line><line x1="446.3008520630312" y1="0" x2="446.3008520630312" y2="5" style="visibility: inherit;" fill="rgb(0, 0, 0)" stroke="rgb(204, 204, 204)" stroke-width="1px"></line><line x1="542.3561961636709" y1="0" x2="542.3561961636709" y2="5" style="visibility: inherit;" fill="rgb(0, 0, 0)" stroke="rgb(204, 204, 204)" stroke-width="1px"></line><line x1="638.4115402643105" y1="0" x2="638.4115402643105" y2="5" style="visibility: inherit;" fill="rgb(0, 0, 0)" stroke="rgb(204, 204, 204)" stroke-width="1px"></line><line x1="734.4668843649501" y1="0" x2="734.4668843649501" y2="5" style="visibility: inherit;" fill="rgb(0, 0, 0)" stroke="rgb(204, 204, 204)" stroke-width="1px"></line><line x1="830.5222284655898" y1="0" x2="830.5222284655898" y2="5" style="visibility: inherit;" fill="rgb(0, 0, 0)" stroke="rgb(204, 204, 204)" stroke-width="1px"></line><line x1="926.5775725662294" y1="0" x2="926.5775725662294" y2="5" style="visibility: inherit;" fill="rgb(0, 0, 0)" stroke="rgb(204, 204, 204)" stroke-width="1px"></line><line x1="1022.632916666869" y1="0" x2="1022.632916666869" y2="5" style="visibility: inherit;" fill="rgb(0, 0, 0)" stroke="rgb(204, 204, 204)" stroke-width="1px"></line><line x1="1118.6882607675088" y1="0" x2="1118.6882607675088" y2="5" style="visibility: inherit;" fill="rgb(0, 0, 0)" stroke="rgb(204, 204, 204)" stroke-width="1px"></line><line x1="1214.7436048681484" y1="0" x2="1214.7436048681484" y2="5" style="visibility: inherit;" fill="rgb(0, 0, 0)" stroke="rgb(204, 204, 204)" stroke-width="1px"></line><line x1="1310.7989489687882" y1="0" x2="1310.7989489687882" y2="5" style="visibility: inherit;" fill="rgb(0, 0, 0)" stroke="rgb(204, 204, 204)" stroke-width="1px"></line></g><g transform="translate(0, 8)"><text x="62.07947566047263" y="0" dx="0em" dy="0.95em" style="text-anchor: middle; visibility: inherit; font-family: Roboto, sans-serif; font-size: 12px; font-weight: 200;" fill="rgb(33, 33, 33)" stroke="none" stroke-width="1px">-20k</text><text x="158.13481976111228" y="0" dx="0em" dy="0.95em" style="text-anchor: middle; visibility: inherit; font-family: Roboto, sans-serif; font-size: 12px; font-weight: 200;" fill="rgb(33, 33, 33)" stroke="none" stroke-width="1px">0</text><text x="254.19016386175196" y="0" dx="0em" dy="0.95em" style="text-anchor: middle; visibility: inherit; font-family: Roboto, sans-serif; font-size: 12px; font-weight: 200;" fill="rgb(33, 33, 33)" stroke="none" stroke-width="1px">20k</text><text x="350.24550796239157" y="0" dx="0em" dy="0.95em" style="text-anchor: middle; visibility: inherit; font-family: Roboto, sans-serif; font-size: 12px; font-weight: 200;" fill="rgb(33, 33, 33)" stroke="none" stroke-width="1px">40k</text><text x="446.3008520630312" y="0" dx="0em" dy="0.95em" style="text-anchor: middle; visibility: inherit; font-family: Roboto, sans-serif; font-size: 12px; font-weight: 200;" fill="rgb(33, 33, 33)" stroke="none" stroke-width="1px">60k</text><text x="542.3561961636709" y="0" dx="0em" dy="0.95em" style="text-anchor: middle; visibility: inherit; font-family: Roboto, sans-serif; font-size: 12px; font-weight: 200;" fill="rgb(33, 33, 33)" stroke="none" stroke-width="1px">80k</text><text x="638.4115402643105" y="0" dx="0em" dy="0.95em" style="text-anchor: middle; visibility: inherit; font-family: Roboto, sans-serif; font-size: 12px; font-weight: 200;" fill="rgb(33, 33, 33)" stroke="none" stroke-width="1px">100k</text><text x="734.4668843649501" y="0" dx="0em" dy="0.95em" style="text-anchor: middle; visibility: inherit; font-family: Roboto, sans-serif; font-size: 12px; font-weight: 200;" fill="rgb(33, 33, 33)" stroke="none" stroke-width="1px">120k</text><text x="830.5222284655898" y="0" dx="0em" dy="0.95em" style="text-anchor: middle; visibility: inherit; font-family: Roboto, sans-serif; font-size: 12px; font-weight: 200;" fill="rgb(33, 33, 33)" stroke="none" stroke-width="1px">140k</text><text x="926.5775725662294" y="0" dx="0em" dy="0.95em" style="text-anchor: middle; visibility: inherit; font-family: Roboto, sans-serif; font-size: 12px; font-weight: 200;" fill="rgb(33, 33, 33)" stroke="none" stroke-width="1px">160k</text><text x="1022.632916666869" y="0" dx="0em" dy="0.95em" style="text-anchor: middle; visibility: inherit; font-family: Roboto, sans-serif; font-size: 12px; font-weight: 200;" fill="rgb(33, 33, 33)" stroke="none" stroke-width="1px">180k</text><text x="1118.6882607675088" y="0" dx="0em" dy="0.95em" style="text-anchor: middle; visibility: inherit; font-family: Roboto, sans-serif; font-size: 12px; font-weight: 200;" fill="rgb(33, 33, 33)" stroke="none" stroke-width="1px">200k</text><text x="1214.7436048681484" y="0" dx="0em" dy="0.95em" style="text-anchor: middle; visibility: inherit; font-family: Roboto, sans-serif; font-size: 12px; font-weight: 200;" fill="rgb(33, 33, 33)" stroke="none" stroke-width="1px">220k</text><text x="1310.7989489687882" y="0" dx="0em" dy="0.95em" style="text-anchor: middle; visibility: inherit; font-family: Roboto, sans-serif; font-size: 12px; font-weight: 200;" fill="rgb(33, 33, 33)" stroke="none" stroke-width="1px">240k</text></g><line x1="0" y1="0" x2="1392.4375" y2="0" fill="rgb(0, 0, 0)" stroke="rgb(204, 204, 204)" stroke-width="1px"></line></g></g></g></g></svg>