<svg viewBox="0 0 1444 400" xmlns="http://www.w3.org/2000/svg"><g><g><g><g><g><line x1="51.5625" y1="358.60983157031114" x2="46.5625" y2="358.60983157031114" style="visibility: inherit;" fill="rgb(0, 0, 0)" stroke="rgb(204, 204, 204)" stroke-width="1px"></line><line x1="51.5625" y1="308.3006909193431" x2="46.5625" y2="308.3006909193431" style="visibility: inherit;" fill="rgb(0, 0, 0)" stroke="rgb(204, 204, 204)" stroke-width="1px"></line><line x1="51.5625" y1="257.9915502683751" x2="46.5625" y2="257.9915502683751" style="visibility: inherit;" fill="rgb(0, 0, 0)" stroke="rgb(204, 204, 204)" stroke-width="1px"></line><line x1="51.5625" y1="207.68240961740705" x2="46.5625" y2="207.68240961740705" style="visibility: inherit;" fill="rgb(0, 0, 0)" stroke="rgb(204, 204, 204)" stroke-width="1px"></line><line x1="51.5625" y1="157.37326896643904" x2="46.5625" y2="157.37326896643904" style="visibility: inherit;" fill="rgb(0, 0, 0)" stroke="rgb(204, 204, 204)" stroke-width="1px"></line><line x1="51.5625" y1="107.064128315471" x2="46.5625" y2="107.064128315471" style="visibility: inherit;" fill="rgb(0, 0, 0)" stroke="rgb(204, 204, 204)" stroke-width="1px"></line><line x1="51.5625" y1="56.75498766450296" x2="46.5625" y2="56.75498766450296" style="visibility: inherit;" fill="rgb(0, 0, 0)" stroke="rgb(204, 204, 204)" stroke-width="1px"></line><line x1="51.5625" y1="6.44584701353497" x2="46.5625" y2="6.44584701353497" style="visibility: inherit;" fill="rgb(0, 0, 0)" stroke="rgb(204, 204, 204)" stroke-width="1px"></line></g><g transform="translate(41.5625, 0)"><text x="0" y="358.60983157031114" dx="0em" dy="0.3em" style="text-anchor: end; visibility: inherit; font-family: Roboto, sans-serif; font-size: 12px; font-weight: 200;" fill="rgb(33, 33, 33)" stroke="none" stroke-width="1px">-100</text><text x="0" y="308.3006909193431" dx="0em" dy="0.3em" style="text-anchor: end; visibility: inherit; font-family: Roboto, sans-serif; font-size: 12px; font-weight: 200;" fill="rgb(33, 33, 33)" stroke="none" stroke-width="1px">0</text><text x="0" y="257.9915502683751" dx="0em" dy="0.3em" style="text-anchor: end; visibility: inherit; font-family: Roboto, sans-serif; font-size: 12px; font-weight: 200;" fill="rgb(33, 33, 33)" stroke="none" stroke-width="1px">100</text><text x="0" y="207.68240961740705" dx="0em" dy="0.3em" style="text-anchor: end; visibility: inherit; font-family: Roboto, sans-serif; font-size: 12px; font-weight: 200;" fill="rgb(33, 33, 33)" stroke="none" stroke-width="1px">200</text><text x="0" y="157.37326896643904" dx="0em" dy="0.3em" style="text-anchor: end; visibility: inherit; font-family: Roboto, sans-serif; font-size: 12px; font-weight: 200;" fill="rgb(33, 33, 33)" stroke="none" stroke-width="1px">300</text><text x="0" y="107.064128315471" dx="0em" dy="0.3em" style="text-anchor: end; visibility: inherit; font-family: Roboto, sans-serif; font-size: 12px; font-weight: 200;" fill="rgb(33, 33, 33)" stroke="none" stroke-width="1px">400</text><text x="0" y="56.75498766450296" dx="0em" dy="0.3em" style="text-anchor: end; visibility: inherit; font-family: Roboto, sans-serif; font-size: 12px; font-weight: 200;" fill="rgb(33, 33, 33)" stroke="none" stroke-width="1px">500</text><text x="0" y="6.44584701353497" dx="0em" dy="0.3em" style="text-anchor: end; visibility: inherit; font-family: Roboto, sans-serif; font-size: 12px; font-weight: 200;" fill="rgb(33, 33, 33)" stroke="none" stroke-width="1px">600</text></g><line x1="51.5625" y1="0" x2="51.5625" y2="377" fill="rgb(0, 0, 0)" stroke="rgb(204, 204, 204)" stroke-width="1px"></line></g></g><g transform="translate(51, 0)" clip-path="url(#clip_0)"><clipPath id="clip_0"><rect width="1392" height="377"></rect></clipPath><g><g><g><line x1="71.8684231140201" y1="0" x2="71.8684231140201" y2="377" fill="rgb(0, 0, 0)" stroke="rgb(66, 66, 66)" stroke-width="1px" opacity="0.25"></line><line x1="246.07018215376377" y1="0" x2="246.07018215376377" y2="377" fill="rgb(0, 0, 0)" stroke="rgb(66, 66, 66)" stroke-width="1px" opacity="0.25"></line><line x1="420.2719411935074" y1="0" x2="420.2719411935074" y2="377" fill="rgb(0, 0, 0)" stroke="rgb(66, 66, 66)" stroke-width="1px" opacity="0.25"></line><line x1="594.4737002332511" y1="0" x2="594.4737002332511" y2="377" fill="rgb(0, 0, 0)" stroke="rgb(66, 66, 66)" stroke-width="1px" opacity="0.25"></line><line x1="768.6754592729949" y1="0" x2="768.6754592729949" y2="377" fill="rgb(0, 0, 0)" stroke="rgb(66, 66, 66)" stroke-width="1px" opacity="0.25"></line><line x1="942.8772183127386" y1="0" x2="942.8772183127386" y2="377" fill="rgb(0, 0, 0)" stroke="rgb(66, 66, 66)" stroke-width="1px" opacity="0.25"></line><line x1="1117.0789773524823" y1="0" x2="1117.0789773524823" y2="377" fill="rgb(0, 0, 0)" stroke="rgb(66, 66, 66)" stroke-width="1px" opacity="0.25"></line><line x1="1291.280736392226" y1="0" x2="1291.280736392226" y2="377" fill="rgb(0, 0, 0)" stroke="rgb(66, 66, 66)" stroke-width="1px" opacity="0.25"></line></g><g><line x1="0" y1="358.60983157031114" x2="1392.4375" y2="358.60983157031114" fill="rgb(0, 0, 0)" stroke="rgb(66, 66, 66)" stroke-width="1px" opacity="0.25"></line><line x1="0" y1="308.3006909193431" x2="1392.4375" y2="308.3006909193431" fill="rgb(0, 0, 0)" stroke="rgb(66, 66, 66)" stroke-width="1px" opacity="0.25"></line><line x1="0" y1="257.9915502683751" x2="1392.4375" y2="257.9915502683751" fill="rgb(0, 0, 0)" stroke="rgb(66, 66, 66)" stroke-width="1px" opacity="0.25"></line><line x1="0" y1="207.68240961740705" x2="1392.4375" y2="207.68240961740705" fill="rgb(0, 0, 0)" stroke="rgb(66, 66, 66)" stroke-width="1px" opacity="0.25"></line><line x1="0" y1="157.37326896643904" x2="1392.4375" y2="157.37326896643904" fill="rgb(0, 0, 0)" stroke="rgb(66, 66, 66)" stroke-width="1px" opacity="0.25"></line><line x1="0" y1="107.064128315471" x2="1392.4375" y2="107.064128315471" fill="rgb(0, 0, 0)" stroke="rgb(66, 66, 66)" stroke-width="1px" opacity="0.25"></line><line x1="0" y1="56.75498766450296" x2="1392.4375" y2="56.75498766450296" fill="rgb(0, 0, 0)" stroke="rgb(66, 66, 66)" stroke-width="1px" opacity="0.25"></line><line x1="0" y1="6.44584701353497" x2="1392.4375" y2="6.44584701353497" fill="rgb(0, 0, 0)" stroke="rgb(66, 66, 66)" stroke-width="1px" opacity="0.25"></line></g></g></g><g><g><line x1="0" y1="308.3006909193431" x2="1392.4375" y2="308.3006909193431" fill="rgb(0, 0, 0)" stroke="rgb(153, 153, 153)" stroke-width="1.5px"></line></g></g><g><g><line x1="246.07018215376377" y1="0" x2="246.07018215376377" y2="377" fill="rgb(0, 0, 0)" stroke="rgb(153, 153, 153)" stroke-width="1.5px"></line></g></g><g><g><g><g><g><path stroke="rgb(204, 51, 17)" stroke-width="2px" d="M246.92028673787772,308.1961621160341L247.6902585128334,308.1773528434435L248.0073057142857,308.1805900119994L248.36267730272678,308.07979930715516L248.87134643912285,305.95150064478224L249.64480224925933,306.47215837606257L250.01410997842356,306.8194160342231L251.1499054473627,306.61390383306L251.331075276764,306.87888462067116L252.82921040450583,306.8479434605976L252.89889110812172,307.0046418016759L254.7907222112933,307.11997561788576L255.45268889564437,301.10080036752515L255.53630573998342,295.3075273290505L256.81146261615436,277.7411292781585L257.36194017471996,283.71022812510404L257.44555701905904,276.24562227891937L258.4942516084783,282.3452025565813L260.4278911338194,287.2263037316332L260.63693324466715,276.85201982932074L261.97131871891156,271.67700618250393L263.8039212240097,256.03513270292916L264.1418726365468,265.12074260490124L264.40317527510643,273.3994708027515L264.51814843607264,243.46764865130973L264.7515787931859,255.1245734634592L265.072110029819,265.44354936861873L265.8142095233283,247.8791969539596L266.38907532815944,245.9047546750604L266.5075325243065,241.5415336813574L266.9081965700979,239.42775757150477L266.9639411329906,252.72737146460392L267.15904710311514,256.18068947498114L267.94643905397476,266.01246954296573L268.1380609889185,243.96080376880434L268.9568092564053,221.08970341907488L269.51773892051324,217.28400620405816L269.9358231422087,234.983959092555L270.4270721027007,218.94689001440736L271.97746775815443,236.33021758574128L272.0750207432167,249.6217731403594L272.7021470757598,239.67479278468923L273.0017741013082,241.95377242367093L273.89368710759163,254.85819632084073L274.95631783773405,233.0012103012319L275.85171487919837,232.27767840652848L275.87261909028314,246.49173509171496L276.095597341854,258.3900199444429L276.23844278426657,229.48307495113295L276.36038401559443,244.48363615035063L276.5624580560805,256.5891434000012L276.6460749004196,266.3507483221639L277.95607212839843,218.25649782938356L278.30447564647795,234.58895922892995L278.4403530185289,220.66788393132907L278.56577828503754,180.68467160984162L278.677267410823,205.57128103475264L279.90713182964356,212.89658844080213L280.0499772720562,230.95108765408003L280.3426362272429,245.81150653830164L280.54122623254824,227.3697888649265L280.6213590417065,184.22109187609294L280.73284816749197,176.07647312698157L280.8373692229158,200.53218706203938L281.1300281781026,221.49594512664518L281.33210221858866,238.26581141642342L281.57598468124434,251.7762259571019L282.46092961716624,262.1567497887961L282.7152641853643,270.64177861671055L283.15773665332523,276.86624594576494L283.3737468345345,251.23947415199927L284.4747019516657,228.82940557698234L284.8056852938412,243.04177033788753L287.2479939555784,255.72382868558017L287.4152276442565,265.3618624128401L287.9726732731837,273.40424349587715L288.1433909970426,244.67909433704324L289.11195277730366,225.6505152804566L289.2652503252586,241.15410746576876L289.5370050693606,254.01490771921596L291.0316561619216,264.3717012066195L292.4217861990588,272.70208641036953L292.71444515424554,276.29736478500104L293.18130586847207,281.82508113655206L293.2788588535343,286.61159686954886L293.59939009016745,201.10237503791447L293.6168102660714,177.64226929862605L294.1568357190946,143.28098261717184L294.32058537259195,171.81821981560873L294.74563766464894,104.4781292457916L295.0069403032086,102.90819675249074L295.5016732988814,143.2430768436846L295.7699440078026,136.60851268276446L297.0938773765047,170.20904049807774L297.44228089458414,197.42500684111326L297.81158862374843,174.96562779582476L297.8568810810988,200.66267220002013L298.5571721524385,192.08629518340493L298.57459232834253,214.54997509517656L299.62328691776173,186.85727375231852L300.45597132597175,210.30215254763107L302.6543975250533,229.24761858366276L304.7204303872647,243.07819075736137L304.8319195130501,205.72734537403778L304.89114811112364,225.3212543828971L304.97476495546266,239.3600646223971L305.1141263626945,183.76457683122655L309.20438366494767,102.01843579683073L309.23225594639405,45.384838526487776L309.26012822784037,44.48132288724765L310.1938496562934,96.72090706766082L310.4586363300338,138.67524438822264L311.4271981102948,117.33947657065214L311.44810232137957,154.77998872669522L311.5526233768034,184.27623739315422L312.646610423573,146.39036258977964L312.9950139416525,176.230730802744L313.3782578115399,151.73810892912923L313.580331852026,36.508733211608266L314.0123522144446,36.85856727864606L314.16913379758034,31.482254983008772L314.41650029541677,28.29421504712414L315.19692417591483,7.5762877209767705L315.74740173448043,11.016275543097876L317.90401951139245,69.936865921506L318.0015724964547,43.639220766327455L318.6809593567097,-31.571061940754696L319.36034621696473,-48.7974114511971L319.4160907798574,21.874206193114105L319.6843614887786,78.71911838210357L320.1651583437283,123.136727765618L320.31845589168336,159.38104340192152L321.5901287326734,120.63945864820073L322.9384503476411,157.0273276030771L323.28336983053975,186.83778591135382L325.16474882816897,210.32653362062123L326.4503578098823,227.61421165676023L326.5722990412101,98.28789651166132L327.6175095954486,72.53991193285692L327.9450089024433,44.1913557072633L331.0039917911812,29.604421568367883L331.32103899263353,83.18939659778776L332.1885637526514,127.2053429151205L332.32792515988325,105.22090055200397L332.57180762253887,144.9798412706745L332.9550514924263,177.00316104053496L333.13970535700844,67.57241723546825L333.5612736138846,46.017091276284866L334.7179732939085,97.73274429608331L335.4322005059715,138.9570141412917L336.407730356594,172.39544402335554L337.96857811759014,198.8945199764438L338.90578358122394,219.28067468304005L339.06953323472135,85.78628747762075L339.4980695619591,128.95936427883595L340.18790852775646,97.39197886960498L340.2401690554684,137.93313633393547L341.2122148709102,169.85189073594356L342.8984878984149,196.8816429275326L343.04133334082746,217.61411350935276L343.25385948685596,233.07283476726732L343.644071427105,126.52552420356241L343.9785388044613,161.6517029927849L346.38949114957137,118.09023131633404L347.00964941175283,155.55726714605203L347.05145783392237,101.33544908524303L348.18725330286145,64.21231375762764L348.8143796354046,112.03654458212154L349.0756822739642,150.42728900186793L349.2673042089079,180.52165788846474L349.32304877180064,144.95272452031975L349.4658942142132,105.41851876930569L350.00243563205566,141.11880714196454L350.1522491448298,173.77447505966907L350.7828595125537,199.82231810405156L350.86996039207355,219.48154987673482L351.63644813184845,236.39881995520147L353.0405143097088,182.9510191145735L353.7930659087604,131.06369602725232L353.9324273159923,165.35765915884707L353.9602995974386,192.91822559637686L355.3852699863837,215.17839036666376L355.5037271825308,232.5358796637527L356.3747359777295,246.81056018534855L357.27361705437454,258.2022356241503L357.3955582857024,267.39405197052963L357.4756910948606,273.54676936985106L357.6080844317309,216.1631924766889L360.3848604708244,166.78988255299637L360.43015292817466,193.44550495250135L362.01538893543636,214.5722925399332L362.46482947375887,232.68101930438712L363.4856517817318,246.12009044299984L363.8410233701729,190.7442299877097L364.0535495162014,213.2341007065001L366.1439706246783,167.296242425317L367.84069575772537,193.93932742420355L367.89644032061807,202.5596629518259L368.49917840689557,170.1820994964951L368.7674491158168,50.16341321409926L369.67329826282355,99.64310847009479L369.9311168662023,129.21171236682594L370.4641742488639,163.54211552436047L371.1923376016501,115.87146179629742L371.3142788329779,151.65977089533658L373.24095028795745,182.543629282936L373.91336907785086,206.3772581693699L374.5997240084675,225.50318831094964L374.64153243063697,218.1676018863264L374.96554770245086,235.6315140926722L375.2059461299258,249.1356759702664L375.2547226224569,259.59852694793324L375.3836319241463,266.27535197384077L375.61357824607876,273.93248151223503L377.3277235550298,280.1859849437596L377.58902619358946,285.0813802050369L378.24402480757885,288.823580965986L379.8083566037558,246.09661893715955L379.81184063893653,178.11995470621457L379.88500537773325,201.05052121436955L380.16024415701605,221.26211458603086L381.26816734450887,166.73917531024532L381.3866245406558,108.09159452789737L382.03465508428366,63.4216889185965L383.9961668910712,111.10130706194094L384.42818725348974,149.72919625316243L385.8148332554461,147.8552625284278L386.2538216882263,105.31320069316068L386.29911414557665,52.383783134835056L386.5882890655826,102.59390196689833L386.8809480207693,141.9886278551539L387.3129683831879,173.72758033896773L387.5812390921092,199.7807012182485L388.71355052586745,220.00868404345002L389.16995913455156,180.64091297544383L390.2186537239709,205.33225718170735L390.56357320686953,225.06561096977524L390.78306742325964,240.6780934382351L392.288170621363,252.20557261216968L392.441468169318,217.70997228360014L392.8560683558326,234.7640304942934L394.0057999654949,224.9760772063186L394.2636185688737,188.61959354587074L395.378509826728,211.15056826024224L395.7129772040844,229.7541284564274L396.364491782893,244.5616957965758L396.688507054707,255.80158952516996L396.9149693414586,264.9147387821456L398.5907902634209,272.8294251073628L400.2561590798409,278.9348766407296L400.35371206490316,283.915559383016L400.5836583868356,288.46758962331694L400.9808383974462,290.67867872964365L401.1863964731131,293.7279787593304L401.8448791222833,292.742508798419L401.89017157963366,258.1736398173311L401.9110757907184,236.8606498876522L402.0190808813231,250.09343114238226L402.76814844519396,260.34635847318197L408.04994577927897,268.03047295086066L409.4365917812354,275.2548006076265L410.0393298675129,279.47194142976264L410.05326600823605,274.4750050360459L410.1090105711288,279.70248254828243L410.21004759137185,265.320653236839L410.43999391330425,262.52180315908737L410.87898234608446,270.6546479197397L411.9973576391196,266.03063405536324L413.30038679673686,273.9663822971894L413.9623534810879,278.95375207043605L414.164427521574,283.1950847769702L414.64522437652374,287.3166510731473L415.08072877412303,263.25361965099717L415.51623317172243,247.35751900454L415.8019240565476,242.1549215405979L417.36277181754366,253.93151297705012L417.88189305948214,263.256749795033L418.4706950050365,271.6369840389458L419.4079004686703,251.11502752306404L421.18127437569484,261.56132735401934L422.4982396740354,269.5184688136952L422.7003137145215,276.10314805219633L426.5327524133958,281.07361672603L426.99612909244155,285.78940974356556L427.0170333035263,289.7388133944124L427.1389745348542,265.87441646089553L427.28530401244745,273.79490272328724L428.0378556114992,279.38559700678456L428.1563128076462,284.3013906172813L428.46639193873693,286.14547908147466L428.50820036090647,288.79286470302316L428.63014159223434,291.7843633007295L429.5603789855066,294.1989270206723L430.6090735749258,263.85574238989017L431.0097376207172,271.5142126866715L431.6089916718139,277.7940313358434L432.8946006535272,251.47142609499423L434.35092735909956,262.43889670452387L435.803770029491,271.0688075403698L436.2706307437175,277.8584081092556L436.8768528651758,255.80936824197835L437.9673558767646,238.04434814339774L438.2077543042394,250.92984806521673L438.9707580088335,260.7540708862699L439.43065065269843,269.5993793527599L439.7337617134276,275.86115584840434L439.8835752262018,281.20480358234806L440.19365435729253,286.1446817670954L441.11343964502237,290.044999233074L442.190006515888,285.745773387476L442.851973200239,289.8674222347428L444.4232730667775,289.5224645976206L444.517342016659,270.76407392380895L444.890133781004,274.8892065145111L446.095609953559,276.2487324455789L446.23148732561003,280.85350224509494L447.78885105142535,248.16405657947192L447.94911666974195,259.61034899116885L448.7365086206015,268.6319376921357L449.52738460664193,276.1586682385987L449.55525688808837,282.2975707004485L450.2869042760553,287.21074819032776L450.42626568328706,290.7885533339626L451.15791307125403,291.14747653885263L451.8268478259666,294.14440305137134L453.3180148833468,296.56750789670394L453.5549292756408,295.72331109118045L455.115777036637,283.6375293007678L456.0878228520788,282.10946648014374L456.61391216437875,275.1855741079959L458.4499987046576,281.36807909377666L459.98297418420736,278.4944724988854L461.18148228640086,284.18359457298993L461.74589598568963,288.4689556792102L462.045523011238,281.62785284597925L462.2615331924473,286.5689652849859L463.2788714652393,290.6724798176291L463.42520094283276,292.8299307166477L464.93727221129774,293.8663173461451L465.45290941805536,296.52862576745696L467.5433305265323,298.7248271906867L467.7314684262952,300.0703141789495L467.9579307130469,301.49591064507064L468.7174503824602,302.7409596505262L469.365480926088,303.71200135429507L470.7869672798523,302.62869043434875L472.16316117626627,303.40040574159826L472.28161837241333,296.9640674508234L473.66478033918884,292.23695613766006L473.985311575822,295.25145686557437L474.0828645608842,297.6570263301128L474.91554896909423,293.2990067691736L475.0479423059644,296.19827801402084L475.46254249247903,298.53288919431054L475.52177109055253,300.34032371322184L475.7830737291122,301.8092093863017L475.8632065382704,302.9968339773226L475.97121162887504,303.8543176967487L476.81783217780827,304.36088339794213L476.8666086703393,304.70355285338354L477.0338423590175,299.47859961308L478.2880950241037,301.08533429495554L478.3299034462732,302.4037825618099L478.38564800916595,303.3907517150038L478.60165819037525,298.8618397792183L480.4795531528236,300.5584950324343L481.2808812444065,301.5023610523043L481.322689666576,297.0648957515661L482.4062246078032,299.1809929356907L482.62920285937406,300.81703960413006L482.9636702367304,302.1238676577956L483.63957306180464,298.66761323490755L484.5105818570033,300.4295845744652L484.5732944902576,301.8341480331061L485.02970309894175,287.92623379522126L485.1411922247272,291.91435225461373L485.8623875071517,295.01324270215156L486.69855595054247,297.33543687038406L487.28387386091606,294.83549373207023L488.0712658117756,296.08875729776184L488.31166423925055,294.4910389119712L488.69839214431875,296.96236785898816L488.8203333756465,293.378657816366L490.6320316696599,296.1765245873288L491.2068974744911,298.53257542367766L492.00125749571225,295.7622073702626L492.0186776716163,298.0851175340515L493.00117559260036,299.90213595425854L493.2659622663408,301.3873582298145L493.2903505126064,297.32656054968544L493.7188868398441,299.3558710041452L493.99064158394617,300.8417199630595L494.1543912374435,302.2163515546265L494.3285929964832,303.1540227108505L495.85460040567136,299.0908198081729L497.92760133824436,295.7861806869584L498.83693452043184,288.4834185283923L500.8367707142081,292.33076798575206L501.11549352867166,293.75109493703394L501.24788686554183,296.5274242830444L501.9830182886896,296.85376084849906L502.3732302289386,299.0274040917738L503.32437183329563,298.5817848931059L503.5926425422169,300.4528032190764L503.6170307884824,299.66341243652016L504.014210799093,296.08999381904925L504.55772028729706,298.15186613934844L506.52271612926535,292.8047808293186L507.39024088928323,289.710698523541L507.7560645832667,293.26980985777664L507.8814898497753,295.9295124117898L508.0870479254422,293.2678712145715L508.9127642632906,296.1410094996169L509.1043861982343,298.31458907142263L509.3413005905284,295.76633720650295L511.61985959876824,291.76594445452264L512.7068785751762,288.81889819369707L513.6196957925445,292.60074539701435L514.3826994971386,293.86150048290193L516.2849827058526,289.0723814142543L516.462668500073,292.7638062020119L517.1490234306897,293.703306036308L517.6507244967241,296.4814987248081L518.1350053868546,298.43410248625855L518.6227703121659,295.1073664837081L519.0513066394037,297.6416844256662L519.2986731372401,289.3637011352846L519.3404815594096,292.93853885148974L519.8805070124329,295.7856174671524L521.5180035474065,297.8960117844496L521.9291196987402,289.72049551228275L522.1102895281416,288.5356154913335L523.2391169267191,292.1150924427651L524.3226518679463,294.6183602893872L526.4409452578697,297.2141434182654L526.5106259614855,298.9893253898962L530.4197134343374,300.4255957852651L530.7890211635016,301.8367051181484L533.4403719360864,303.04234925098785L534.3671252941779,303.9936392260202L535.8582923515581,304.7221865890435L536.3739295583158,305.2887023496713L538.0149101284702,304.481387829945L538.3946699631769,305.07099466564L538.6908129535443,305.29918792796025L538.8650147125841,305.6390418211203L539.7081512263366,305.9651888270193L541.5930142591465,305.75719622921076L541.7184395256551,306.165737359928L542.6556449892889,304.3378144451171L543.6764672972619,301.8923057249296L544.321013805709,302.8639636044653L544.9446561030712,303.8462525437239L546.4706635122593,301.37929525457724L547.0977898448024,302.58180916981854L547.1639865132375,301.52690772619144L547.9897028510859,302.7431977481425L548.717866203872,300.63017417205737L548.8119351537536,301.8516580454996L548.9687167368892,302.0903317730361L550.2996181759529,299.78430954383947L551.5782590873046,299.31290880791636L551.9475668164689,300.979238610486L552.3482308622603,302.3405223474995L553.0032294762497,297.46280576027027L553.4457019442107,299.5429447362017L554.6058856594153,300.60901374759567L555.563995334134,302.0081631751073L558.772791735646,299.472165736147L559.7866459732574,298.82449306389736L560.1245973857945,299.0981993900022L560.232602476399,295.5997852313772L561.6436367246209,297.7496143969901L562.4414807810231,299.79710874162066L562.4972253439157,301.3431788789665L562.7689800880178,299.0880619629067L563.0929953598317,300.57126853875087L564.5806783820311,301.9032419146116L565.685117534343,303.0907654695006L566.0788135097729,301.7404302459035L566.5770305406265,302.69785661738746L567.2529333657008,303.7125850238822L567.4828796876333,304.3482026699711L567.4863637228141,304.87601419260363L567.5281721449835,305.4789374346008L569.217929207669,304.8406430999757L569.4687797406863,302.1280524249959L571.3222864568692,303.20718121037237L572.5765391219553,303.77637690867795L572.7298366699104,304.33151687413124L572.7577089513567,305.01129481803747L573.5869093243858,303.1556407531024L573.6147816058321,303.7869128786969L574.144354953313,304.63815696809615L575.2104697186362,302.8456165842434L576.6110518613158,303.8228027960305L577.3461832844635,304.63839570432805L577.879240667125,305.25148014524893L579.4505405336636,303.7046441486977L579.7641036999352,302.38270664514323L581.0531967168292,303.4080059153004L583.6139625747135,299.8627155261149L584.0703711833976,301.44711043054826L587.1607103887626,302.57923181502673L589.7528325632741,295.46900240709357L591.1673508466768,297.845292537199L591.2265794447502,299.7945868257034L591.4216854148748,301.3185024633843L592.1777210491073,302.6242630197949L592.45295982839,303.5214405566971L595.3098686766418,304.133984153989L595.7244688631564,304.68596325515955L595.9753193961736,304.1506903149194L596.766195382214,304.2100274876937L597.2469922371638,304.90700432083923L597.7277890921135,300.367700540506L598.3061389321255,300.6940565045339L598.5674415706851,300.6499004906558L599.0552064959963,297.0146602929682L599.7032370396242,295.9314457226875L600.1944860001163,298.2606512087828L602.0027002589488,299.8215138831508L602.0201204348527,301.40197702173964L602.3023272844972,302.62774648598196L603.2151445018654,303.67336483437435L604.2499029505616,304.37289224362974L604.7620561221383,305.0608795068335L605.7480380783034,305.53695522010486L606.3368400238576,304.25180300103676L606.6956956474795,303.3281729101976L607.434311105808,304.1889724366774L608.1206660364246,304.87170252967127L609.5944129179009,305.1106544698576L609.6188011641664,305.44004657229755L609.8487474860989,305.91739929674446L610.0194652099578,305.53255542489916L611.7789029762592,306.0002634203545L612.1621468461467,306.39437923772863L612.9321186211023,305.8911194683545L613.7195105719619,306.29225240058946L613.9703611049791,305.8097862818802L614.0295897030528,306.1864477628531L614.4093495377593,306.47750862948095L614.6741362114998,306.7342405458852L616.1095587059872,306.95133470079475L616.5659673146714,306.1073188043447L616.6426160886489,306.4499487338171L617.0537322399827,306.4401521030918L618.5170270159165,303.59272684794763L618.746973337849,302.31662125815274L619.0918928207477,301.51455920934245L619.1302172077365,302.78673408574446L619.2660945797875,303.79844790082194L619.8792847716073,304.558213219542L621.039468486812,302.9701158985383L621.5864620101968,302.8089682765675L621.7885360506829,303.7010731368127L621.8860890357452,302.42966364588756L622.1787479909319,296.5427145263246L626.3177817857162,298.5284557450499L626.5407600372871,299.6740812072382L627.5685504156215,301.3025921330597L629.0144250156515,300.980494857646L629.4046369559005,302.2020209017469L629.481285729878,301.6642971263233L630.7216022542409,299.81611921161755L631.0560696315973,296.8827391064971L632.6970502017517,299.0441794646462L632.843379679345,296.50025795080285L633.7213565449053,290.5614197570189L633.8885902335835,294.0533382500656L633.9931112890073,296.6137876944386L634.9163806119179,298.8587160348155L636.1532131011002,300.5568603342419L637.4248859420903,300.7008132098858L637.7558692842658,301.48032675633726L637.8429701637856,302.7320115851856L638.1356291189725,303.7582396953168L638.1878896466844,304.4344492980466L638.5571973758485,305.06312243848294L638.5606814110293,304.28845802199055L639.5884717893639,304.7859074993416L641.3513935908461,305.3680532718372L643.7832501470409,305.6748530102116L643.9609359412615,306.0095436118023L644.5148975350079,306.42135090170376L644.5497378868158,305.66523742813285L645.2639650988788,306.0045553723201L645.9294158184106,306.27833250050577L646.1175537181736,306.4734418809706L646.1732982810662,306.7116333855803L647.9815125398987,306.98679984591246L647.995448680622,307.21275543433853L648.2219109673737,307.31449201264974L648.9431062497981,306.55181583406227L649.0406592348604,305.8835139672793L650.7687406845347,305.2538534795369L650.7722247197154,303.82365055236266L651.103208061891,304.6636469318927L651.6327814093718,304.297078913724L652.2877800233613,304.86838494335245L652.3017161640844,304.5052442863804L654.2492918301488,304.36562127971274L654.5907272778666,300.5771253393989L656.3641011848913,302.05950334492604L658.576463524696,296.92436485236465L659.1896537165159,299.0952972982486L659.4579244254371,298.69572084881395L660.7574695478735,298.67898944427725L661.3776278100551,300.4060337857333L662.4402585401974,301.20664268309525L665.1229656294096,302.5384289109612L665.3563959865228,303.4054299461292L665.9382298617155,304.2916193618064L667.5304339393388,304.4002672867212L667.6175348188586,305.0693814513564L668.087879568266,304.9589629733055L669.6278231181773,305.0174322415354L669.9483543548105,305.5364776875237L671.0493094719416,305.48887299456356L672.7355824994463,305.4968245008987L673.181539002588,305.805725419475L673.3731609375318,305.2220933292894L674.2755260493577,305.56869418984945L675.5890073125173,300.7606034004076L676.1882613636141,302.1892910468583L677.9999596576274,297.06753741287224L678.602697743905,299.23631215743507L678.717670904871,300.95371045060904L680.180965680805,302.3772278286174L681.8672387083097,303.14563406134374L681.9578236230104,303.7363484773954L683.1911720770117,304.54054019769615L684.3374196514933,304.58500401369207L685.1526838837992,305.2195890830541L685.5428958240483,300.0956210210243L687.5531841233669,301.65662411203203L688.0514011542206,302.889798920357L688.5287139739895,303.9339260745551L690.06517348872,304.47366998983404L690.6713956101784,305.1688817644806L693.5945011268652,305.50472783065976L693.6955381471083,305.78246267123234L694.3400846555554,306.03057574525025L694.5073183442335,305.9550938464669L694.7895251938779,306.3927895304193L695.2389657322004,306.7064077931121L696.5036705028291,306.91839092351944L696.573351206445,307.15372849607274L696.587287347168,307.2847276620191L696.6604520859647,307.41211343003624L697.3259028054965,307.50769910321316L697.7892794845422,307.613394306303L698.6045437168483,307.7107102882752L700.0469342816974,307.4794124579363L701.1165330822014,307.5394106370386L701.24195834871,307.5536379169389L701.3290592282299,307.458670399524L702.4857589082538,300.84098586198695L703.0989491000737,302.04289396464435L703.2069541906784,303.2014412794112L704.4159143984142,304.1516955171807L705.6980393449467,304.8617778605957L705.9767621594102,305.46235599996123L706.3356177830321,305.7670512643643L706.523755682795,306.1769531974629L708.2379009917461,298.38845103295245L709.3458241792389,300.2700641778095L710.0705034968441,301.65158415427146L711.6313512578404,302.91667810908797L712.4570675956887,303.61073051425177L715.7041883841896,303.63378708794824L716.2407298020319,304.44619822972766L716.4323517369755,305.13943596361173L716.547324897942,305.52298868161733L716.7703031495128,305.97838403616515L716.9584410492756,306.0222425424948L717.003733506626,306.4243546774332L717.7493170353162,306.48485538635543L721.7873138098573,298.97627478659047L722.5607696199937,300.7552251098813L723.3133212190455,302.15581049608085L723.6094642094131,303.26250939721075L724.9403656484767,304.1587326936899L725.3027053072793,304.82532422510235L726.549989902004,304.9987709937192L726.7729681535748,305.49072887346796L727.128339742016,305.9996857797144L727.3164776417789,306.2011198790237L727.3861583453947,306.3953702367859L727.5952004562424,306.72222331828834L728.3756243367404,306.67563753934115L729.8772434996631,306.9230173559059L730.60889088763,307.0987816999515L730.6402472042571,306.86276811404986L733.242821484311,298.81757576840835L734.2497076515607,300.57622492147374L734.3681648477076,301.8942251086495L734.6643078380753,302.95306058610925L735.0266474968779,303.9932636712981L735.0614878486857,304.75459849838353L735.1660089041097,305.3437586024026L735.4900241759235,305.80376902892135L736.078826121478,306.2350130077195L736.8278936853488,303.71264197565915L738.3817733759834,304.4720334522481L738.4131296926105,305.0837872883313L738.8033416328595,305.681690324384L738.9914795326224,306.13521966518033L739.5628613022727,306.17615185783063L739.6429941114311,306.33848765983754L739.8903606092675,306.64190199241426L742.3953819042591,306.7215948988145L742.5556475225756,299.6068340185863L742.9841838498133,292.88315364208967L744.6077442440638,295.9127276763233L744.6530367014141,298.3480566179029L745.436944617093,299.8603049388782L745.928193577585,301.34046868747816L747.3845202831574,302.5782092824483L748.6039325964356,303.5247921845152L749.7292759598323,304.22565057400067L750.4051787849064,304.92920998707007L750.4086628200872,305.4169314195076L750.5201519458727,305.88244504935295L753.9519265989557,306.29595786301957L754.32123432812,306.37885178898347L754.7393185498153,300.2611784881195L755.3455406712735,301.82283369951205L755.6869761189914,303.02891790036233L756.4186235069584,303.9297315954297L757.6450038905982,304.69572097193986L757.7948174033723,305.27224307538404L764.376159859894,295.8876470352241L764.5015851264025,298.2904136519061L765.5851200676298,300.1053586110564L765.7105453341384,301.6575750057755L768.4106725992543,302.76635948412826L768.4141566344351,303.75645315301114L769.0656712132438,304.4754419534588L771.8563833930605,305.187675079804L772.1107179612585,305.7930871966599L772.4173130571685,306.18177794718173L772.4277651627109,306.41477035749983L773.1071520229658,306.6733658281627L773.8666716923791,306.89015963182544L773.8771237979215,307.1287066149167L774.1140381902155,299.55924040714865L775.0164033020415,301.1554477645041L775.3090622572282,302.38522953166245L775.7689549010931,302.8890228985621L776.0198054341104,303.9461028147362L776.2567198264044,297.42588638392175L776.3124643892972,299.527112036751L776.619059485207,301.1300080265435L776.7235805406309,302.44965239473254L778.3053325127119,303.55039100080313L778.5178586587404,304.43169222586704L778.9115546341701,305.1662099585817L779.3575111373119,305.5360352633411L779.7268188664762,306.0701347249709L780.0368979975668,306.2060337628615L780.4166578322735,306.3329429273448L782.259712442914,306.61420255413395L783.3397633489603,306.8622052700348L784.4407184660917,306.9995795674617L785.0992011152617,306.92512437414564L785.4267004222565,307.12888302789565L785.5869660405731,307.220790901253L785.7367795533473,307.24512136521616L785.9249174531102,307.3522954887179L789.5308938652328,307.474539555983L790.7537902136918,307.5645906963635L790.7607582840534,307.6013683867601L791.7815805920263,307.6899110456915L792.1857286729985,307.64887364602185L793.1508064180788,307.61291235920004L794.9416005010074,307.70426332634935L795.7011201704206,307.7702423532548L798.2131095357737,307.7850648196962L798.7322307777121,307.7939412327424L799.5300748341141,307.6799390344965L801.1048587358334,307.77183123215934L802.132649114168,307.78459853609354L802.9200410650276,307.8690619139166L803.0698545778018,307.9255592856717L803.4008379199772,307.9116411444628L803.7771137195032,307.84381141585277L805.2473765657985,307.8322155681452L806.0312844814773,307.842519859827L807.3377976742755,307.7561571481555L808.5119175302033,304.3905136458422L808.5746301634578,305.0066459224568L809.4735112401028,305.4296448827435L810.1110896781881,305.94079522339644L810.2051586280697,306.30449634410405L813.4174390647626,306.59335269820224L813.6717736329605,306.78917016353967L813.8285552160963,306.6349753916032L813.8773317086274,306.87697912516614L813.9504964474241,307.0237451599747L814.2327032970685,307.13993625040354L814.7030480464758,307.25652988632027L815.922460359754,307.28064759866305L816.6715279236249,307.23162046618353L817.3474307486991,307.3050213310119L818.3996093732992,307.2682229362904L819.0615760576503,307.382733092536L819.2253257111475,307.4292648078576L820.0858824008038,307.43630646373333L820.8941785627483,307.42650564537485L821.5526612119186,307.4869079800775L821.8209319208397,307.35122764291316L822.9184030027902,306.4698165070621L823.1100249377339,306.76781509029297L823.8799967126895,306.9673444823385L825.3432914886234,307.14757830931416L827.1967982048063,307.17689911386515L827.726371552287,307.3006208568147L827.7751480448183,307.29122535513903L828.4301466588075,307.34727810217515L828.5660240308587,307.3663253599676L828.6043484178474,299.0351138762647L828.7959703527911,300.6704916085597L829.2349587855712,302.04305209445914L830.6808333856011,303.11188006783465L831.2452470848899,304.026179373065L832.6144729109423,304.7158024770816L833.314763982282,305.26580473915175L833.4227690728868,305.72068249759246L833.56909855048,306.0034648878022L834.0046029480794,306.3941753487232L834.9522605172556,306.75267053767743L835.5654507090757,306.9305446994594L835.5968070257027,307.06228732375325L837.2621758421227,307.0852932220966L837.95201480792,307.30142000669383L838.0844081447902,307.37028686245293L838.2377056927452,307.1166223275033L838.4293276276888,307.2890706817064L839.2097515081869,307.39983072921916L839.2898843173452,307.12038883774113L839.6626760816903,307.0228908657162L840.0842443385665,307.01846051916374L840.7949875154486,307.1904424208604L840.958737168946,298.6365378669407L841.7565812253481,300.2389480771999L841.993495617642,301.7446334167208L842.1363410600546,302.7438329214553L842.3105428190944,303.4784830590226L843.031738101519,304.37085321846075L844.1501133945541,305.0316046619283L844.7911758678204,305.4754887614954L845.6865729092847,305.9610480714013L846.818884343043,306.38593778675136L847.0314104890715,306.71726067853257L847.261356811004,306.9205340333684L849.2890652862264,306.9399172620451L849.6200486284021,307.0822518405626L851.2261888467484,307.11354705271464L851.5745923648279,307.31080438797477L851.5850444703703,307.224622557621L851.8602832496531,307.39371530958465L852.2888195768909,307.12760945093146L853.170280477632,307.2905383821711L853.3793225884797,307.31953245480287L853.7695345287289,307.41011691226703L855.1108880733348,307.52425570132874L855.5394244005726,307.63289286119897L855.8669237075673,307.74059566467014L858.4276895654515,307.816628235269L859.013007475825,307.69740906854355L859.0966243201641,307.7032582972267L859.6645220546337,307.3614125888832L860.6330838348946,307.5045515043957L861.3577631525,307.3608990262762L863.0440361800048,307.39129560702975L865.9148811689796,307.36413355849453L866.1065031039234,307.4192191020203L866.1343753853697,307.44984411916926L866.3538696017598,307.5795490901991L866.7824059289976,307.5456260175803L867.0959690952692,307.637682907762L867.7474836740778,307.69687456228735L867.897297186852,307.66575162069034L868.2491847401122,307.6907984548895L868.2840250919202,307.68432901693217L868.6742370321692,307.68831386437927L869.7856442548427,307.7045122976628L870.0643670693063,307.69104760962983L870.597424451968,307.6480955400639L871.4719172823476,307.5914553873854L872.0398150168171,307.4467210888261L872.5589362587555,307.5629381515941L873.3114878578073,307.63693050967623L874.8793036891649,307.65060687181324L875.0918298351934,307.6707226569393L876.0116151229232,307.6498442611704L876.0987160024431,298.32752974961085L877.7153083263319,300.2308539970072L878.3459186940557,301.63971098395035L879.1507308208194,302.87331414557667L879.2726720521472,303.92918875014044L879.3005443335936,304.0090575735163L879.7917932940857,304.761629199469L880.4049834859055,296.1395916041824L883.1120788213831,297.9345352764155L884.98300571347,299.9082869901919L885.5474194127587,301.56198368844986L885.7599455587872,302.7552492681819L886.1710617101211,303.2971665399173L887.1256873496588,304.20998079638764L888.1708979038974,305.00012690481714L889.3589539005484,305.54964084754084L891.0487109632338,305.93382287965073L892.3587081912128,306.17708116479133L892.6374310056764,306.55522066280173L893.4178548861744,306.87168002624634L893.5676683989486,307.0288067358139L894.3306721035426,307.20287417341166L894.5850066717408,307.20506693005103L895.9263602163467,307.34169464552906L896.4280612823812,307.4673211727069L896.6475554987712,289.5495448318281L896.9541505946813,293.24178494854766L897.5952130679475,295.91799812543104L897.6230853493938,298.1879545211292L897.7624467566255,291.3157365729173L898.0551057118123,294.6694855787866L899.082896090147,297.3109387693755L899.3476827638873,299.48004775448084L899.9782931316112,300.98846139745774L900.5845152530695,302.3673033066661L902.7794574169702,303.50287550274885L902.9710793519139,304.3790829277978L904.1382311374803,305.0201229755371L904.4065018464014,305.64796386596373L906.521311201144,306.0626990239357L906.7094491009069,306.3376796768922L908.3330094951573,306.5133244760031L908.9775560036043,306.75511893717004L909.5489377732547,306.63891873123765L910.6847332421937,306.92333749936216L910.7648660513521,307.03868869775926L911.2909553636522,307.16023853014156L911.32579571546,307.278042236178L911.7752362537826,307.2639169468951L912.9667762856144,307.3269725300969L913.0747813762191,307.37097717371216L914.4823315892604,307.51428786660637L914.5694324687801,307.5008285949173L915.7540044302505,307.63334149268854L916.5413963811101,307.57137022665927L916.7399863864154,307.666512831042L917.5134421965519,307.7332538998561L917.9733348404168,304.5481651837336L918.4506476601856,305.1874599602521L918.4576157305472,305.7283911737915L918.9767369724857,305.85234391637056L920.0219475267241,306.1300063888171L920.1195005117864,306.4745632073432L920.2240215672102,306.7905177866314L920.8128235127646,306.88747574456L920.8372117590302,307.1335911192944L922.2935384646024,299.2796309467723L922.7499470732865,300.9327185554514L923.4955306019766,302.1720835460282L923.7115407831859,303.2854018797105L925.2027078405662,304.19393090201095L925.3037448608092,304.9406131792873L925.5406592531033,305.47882107828605L926.1329452338384,305.8136254555495L926.1643015504656,306.14690187992L926.5928378777032,305.5735732489075L926.836720340359,305.85209367834796L927.2339003509695,296.9353648799059L927.429006321094,299.0769907072628L928.1989780960498,300.86221930796165L928.5717698603947,302.14437670353493L930.4914732450127,303.3382033739255L930.623866581883,304.27157786351916L932.0383848652857,304.99959780411336L932.5296338257778,305.58721563736657L933.3170257766374,301.18502444546226L933.8988596518302,302.4656690469595L935.1879526687243,303.3427310721077L935.3621544277639,304.22398975456093L936.1356102379004,304.933332400814L936.7697046408052,305.5131457035003L937.0867518422574,305.7834421600967L938.0065371299872,306.1485302962912L940.2711599975039,306.3815753920898L941.3686310794543,306.74813887766487L941.4104395016238,307.0062762526957L941.6926463512683,296.5143416325455L941.730970738257,296.91138394628365L941.9922733768166,299.10006036255214L942.1943474173028,300.8617546907927L942.8737342775578,302.11615606088776" style="fill: none;" fill="none"></path></g></g></g></g><g opacity="0.2"><g><g><g><path stroke="rgb(204, 51, 17)" stroke-width="2px" d="M246.92028673787772,308.1961621160341L247.6902585128334,308.1623054253711L248.0073057142857,308.18525153471984L248.36267730272678,307.88305585129916L248.87134643912285,300.9253105237224L249.64480224925933,307.8723527996401L250.01410997842356,307.84432062070175L251.1499054473627,305.9642511578854L251.331075276764,307.7609821747314L252.82921040450583,306.7407902291305L252.89889110812172,307.56413374096246L254.7907222112933,307.54168248522564L255.45268889564437,278.6786376604309L255.53630573998342,273.40838938888874L256.81146261615436,210.56585050100603L257.36194017471996,306.7465475334225L257.44555701905904,247.2276387968643L258.4942516084783,306.19412231791705L260.4278911338194,306.39898802491103L260.63693324466715,235.9529209703645L261.97131871891156,251.21560697603869L263.8039212240097,194.04472205845207L264.1418726365468,301.1950223398051L264.40317527510643,306.3189076513413L264.51814843607264,124.30575618033907L264.7515787931859,301.5761182447731L265.072110029819,306.5947042252196L265.8142095233283,177.79165928843412L266.38907532815944,238.02226206666563L266.5075325243065,224.11565673638734L266.9081965700979,230.983120044416L266.9639411329906,305.87314183845547L267.15904710311514,269.9830175148685L267.94643905397476,305.31466329109514L268.1380609889185,155.79886676392616L268.9568092564053,129.6424125021874L269.51773892051324,202.06615742141483L269.9358231422087,305.76538996458663L270.4270721027007,154.81193677755974L271.97746775815443,305.8519746682433L272.0750207432167,302.7809283557315L272.7021470757598,199.89110233953258L273.0017741013082,251.0689154830121L273.89368710759163,306.47237899119386L274.95631783773405,145.5780262528359L275.85171487919837,229.3836768847493L275.87261909028314,303.3459806821086L276.095597341854,305.9818326522605L276.23844278426657,113.85787356355227L276.36038401559443,304.48481047140325L276.5624580560805,305.0104812963122L276.6460749004196,305.39672217951517L277.95607212839843,25.881253103908268L278.30447564647795,299.9183274287339L278.4403530185289,164.98390827171514L278.56577828503754,20.752570298679192L278.677267410823,305.1173462869557L279.90713182964356,242.1977303618678L280.0499772720562,303.16891157944457L280.3426362272429,305.2530682075596L280.54122623254824,153.60303121882646L280.6213590417065,11.626515521353168L280.73284816749197,143.49803008341115L280.8373692229158,298.35496604676865L281.1300281781026,305.35092474841144L281.33210221858866,305.3452428903663L281.57598468124434,305.81786240941665L282.46092961716624,303.67883177088623L282.7152641853643,304.58188520202214L283.15773665332523,301.7641101407879L283.3737468345345,148.73240384452436L284.4747019516657,139.18914307719302L284.8056852938412,299.8912233945613L287.2479939555784,306.45205780250575L287.4152276442565,303.9139947234709L287.9726732731837,305.5737660934481L288.1433909970426,129.7785026580499L289.11195277730366,149.53620168071845L289.2652503252586,303.1684744949878L289.5370050693606,305.4581075968514L291.0316561619216,305.79887442427867L292.4217861990588,306.0236267543771L292.71444515424554,290.6784781209082L293.18130586847207,303.9359463427356L293.2788588535343,305.75765966297604L293.59939009016745,-140.93451030836496L293.6168102660714,83.80184677611139L294.1568357190946,5.835836400636938L294.32058537259195,285.96716827098743L294.74563766464894,-164.88223239471014L295.0069403032086,96.62846679120072L295.5016732988814,304.5825969635936L295.7699440078026,110.07025607130565L297.0938773765047,304.61115162878156L297.44228089458414,306.2888721286607L297.81158862374843,85.1281116705185L297.8568810810988,303.45084976568273L298.5571721524385,157.78078713059267L298.57459232834253,304.40469471366373L299.62328691776173,76.08646840909185L300.45597132597175,304.08166770977806L302.6543975250533,305.02948271544005L304.7204303872647,298.4004794449433L304.8319195130501,56.323963856325705L304.89114811112364,303.69689041179504L304.97476495546266,295.5153055766486L305.1141263626945,-38.61737432158058L309.23225594639405,-181.14955054714224L309.26012822784037,40.867260330385925L310.1938496562934,305.6792437847428L310.4586363300338,306.4925936675336L311.4271981102948,31.996405301564668L311.44810232137957,304.5420373491907L311.5526233768034,302.26123205793317L312.646610423573,-5.153136622632456L312.9950139416525,295.59220365391695L313.3782578115399,53.76762143511961L313.580331852026,-424.4087696567845L314.0123522144446,38.25790354679345L314.16913379758034,9.977005800510048L314.41650029541677,15.542055303609542L315.19692417591483,-75.29542158348794L315.74740173448043,24.77622683156547L317.90401951139245,305.6192274349119L318.0015724964547,-61.551359854305794L318.6809593567097,-332.41219276889797L319.12343182467066,36.782252684816164L319.36034621696473,-172.38546119339628L319.4160907798574,304.56067677026954L319.6843614887786,306.09876713800406L320.1651583437283,300.80716529964L320.31845589168336,304.35830594711217L321.5901287326734,-34.326880366662536L322.9384503476411,302.5788034225677L323.28336983053975,306.07961914445076L325.16474882816897,304.28152445768467L326.4503578098823,296.7649238013124L326.5722990412101,-419.01736406871265L331.0039917911812,-28.743314987212635L331.32103899263353,297.52929671546394L332.1885637526514,303.2691281844488L332.32792515988325,17.283131099538817L332.57180762253887,304.0156041453555L332.9550514924263,305.0964401199756L333.13970535700844,-370.15055798479614L333.5612736138846,-40.20421256044825L334.7179732939085,304.59535637527637L335.4322005059715,303.8540935221248L336.407730356594,306.14916355161074L337.96857811759014,304.8908237887966L338.90578358122394,300.825293509425L339.06953323472135,-448.19126134405565L339.4980695619591,301.6516714836964L340.18790852775646,-28.877562767318828L340.2401690554684,300.09776619125734L341.2122148709102,297.5269083439757L342.8984878984149,305.0006516938887L343.04133334082746,300.54399583663337L343.25385948685596,294.9077197989256L343.644071427105,-299.6637180512572L343.9785388044613,302.15641814967466L346.38949114957137,-56.15565538946934L347.00964941175283,305.42541046492397L347.05145783392237,-115.55182315799324L348.18725330286145,-84.28022755283389L348.8143796354046,303.3334678800973L349.0756822739642,303.9902666808534L349.2673042089079,300.89913343485216L349.32304877180064,2.676991047739584L349.4658942142132,-52.71830423475052L350.00243563205566,283.9199606325998L350.1522491448298,304.39714673048724L350.7828595125537,304.0136902815816L350.86996039207355,298.1184769674677L351.63644813184845,304.06790026906816L353.0405143097088,-30.840184247938538L353.7930659087604,-76.48559632203259L353.9324273159923,302.5335116852263L353.9602995974386,303.16049134649603L355.3852699863837,304.2190494478113L355.5037271825308,301.9658368521086L356.3747359777295,303.90928227173185L357.27361705437454,303.7689373793573L357.3955582857024,304.161317356047L357.4756910948606,298.15763896713673L357.6080844317309,-13.371115095960027L360.3848604708244,-30.703357141773548L360.43015292817466,300.067994550521L362.01538893543636,299.07944288966075L362.46482947375887,305.11592636220286L363.4856517817318,299.8763749974507L363.8410233701729,-30.759211833450827L364.0535495162014,303.1935835816618L366.1439706246783,-16.455190699415738L367.84069575772537,300.51166741974987L367.89644032061807,237.04100506231532L368.49917840689557,40.67184567517186L368.7674491158168,-429.91133191548414L369.67329826282355,297.56188949407704L369.9311168662023,247.48612795375055L370.4641742488639,300.86372815449863L371.1923376016501,-74.81115311595472L371.3142788329779,294.8130072914932L373.24095028795745,306.0790628333338L373.91336907785086,301.7117737151056L374.5997240084675,302.0069088772687L374.64153243063697,188.82525618783325L374.96554770245086,305.4871629180554L375.2059461299258,303.15232348064325L375.2547226224569,301.4499308586005L375.3836319241463,292.9826520774711L375.61357824607876,304.5609996658123L377.3277235550298,305.1999986698575L377.58902619358946,304.66296125014605L378.24402480757885,303.79238400978244L379.8083566037558,75.18877082185365L379.81184063893653,-93.78670221756526L379.88500537773325,292.7727872469895L380.16024415701605,302.108488072676L381.26816734450887,-51.3525817928968L382.03465508428366,-115.25793351860698L383.9961668910712,301.8197796353189L384.42818725348974,304.2407530180484L385.8148332554461,140.35952762948915L386.2538216882263,-64.85504664790786L386.29911414557665,-159.33388709846747L386.5882890655826,303.4343772951516L386.8809480207693,299.56753140817614L387.3129683831879,300.68339027422326L387.5812390921092,303.9931847353715L388.71355052586745,300.920615344256L389.16995913455156,23.169828703418883L390.2186537239709,304.0976340067616L390.56357320686953,303.99902612204664L390.78306742325964,303.12802331207473L392.288170621363,298.31548930790797L392.441468169318,79.72757096932185L392.8560683558326,302.9802633370665L394.0057999654949,185.8242640544192L394.2636185688737,43.19365890407933L395.378509826728,301.27446711772825L395.7129772040844,304.1683692411682L396.364491782893,303.79196515716916L396.688507054707,300.7611644395466L396.9149693414586,301.3673358100483L398.5907902634209,304.48817040823167L400.2561590798409,303.3566827741969L400.35371206490316,303.8382903521613L400.5836583868356,306.675710584521L400.9808383974462,299.5230351549503L401.1863964731131,305.9251788780774L401.8448791222833,288.8006289547735L401.89017157963366,119.89816389297931L401.9110757907184,151.60869016893648L402.0190808813231,303.0245561613026L402.76814844519396,301.3580677963807L408.04994577927897,298.7669308615757L409.4365917812354,304.1521112346899L410.0393298675129,296.3405047183072L410.05326600823605,254.4872594611788L410.1090105711288,300.6123925972285L410.21004759137185,207.79333599106528L410.43999391330425,251.32640284808085L410.87898234608446,303.186026962349L411.9973576391196,247.5345785978574L413.30038679673686,305.70937526449404L413.9623534810879,298.9032311634229L414.164427521574,300.16041560310657L414.64522437652374,303.80291625785577L415.08072877412303,167.0014939623966L415.51623317172243,183.7731164187112L415.8019240565476,221.3445316848295L417.36277181754366,301.0378787228592L417.88189305948214,300.5576970669645L418.4706950050365,305.15792101459715L419.4079004686703,169.0272014595369L421.18127437569484,303.34652667784053L422.4982396740354,301.3470346523987L422.7003137145215,302.4418650062007L426.5327524133958,300.95549142136497L426.99612909244155,304.65258181370774L427.0170333035263,305.53642799779925L427.1389745348542,170.4168287268281L427.28530401244745,305.4768477728544L428.0378556114992,301.7483741407739L428.1563128076462,303.9645650592682L428.46639193873693,293.52183293824794L428.50820036090647,299.3824071892173L428.63014159223434,303.7503576915549L429.5603789855066,303.85718190044327L430.6090735749258,142.48300386676172L431.0097376207172,302.14809387379677L431.6089916718139,302.913305932531L432.8946006535272,146.18100513159754L434.35092735909956,306.30877914264266L435.803770029491,305.5884508837533L436.2706307437175,305.0168103847989L436.8768528651758,167.61320877286917L437.9673558767646,166.98426774907557L438.2077543042394,302.47184775249247L438.9707580088335,300.05096217048265L439.43065065269843,304.9806132187199L439.7337617134276,300.908261830982L439.8835752262018,302.5793945181228L440.19365435729253,305.9041945060848L441.11343964502237,305.64626909698853L442.190006515888,268.5488700050838L442.851973200239,306.3540176238099L444.4232730667775,288.14263404913197L444.517342016659,195.7305112285622L444.890133781004,291.3897368773199L446.095609953559,281.6868361698499L446.23148732561003,299.2725814431593L447.78885105142535,117.40627391697974L447.94911666974195,305.3955186379567L448.7365086206015,304.718292496003L449.52738460664193,306.2655904244507L449.55525688808837,306.8531805478476L450.2869042760553,306.86345814984475L450.42626568328706,305.0997739085023L451.15791307125403,292.5831693584127L451.8268478259666,306.1321091014462L453.3180148833468,306.25992727803424L453.5549292756408,292.3465238690866L455.115777036637,235.29440213911727L456.0878228520788,275.9972151976474L456.61391216437875,247.49000461940437L458.4499987046576,306.0980990368997L459.98297418420736,267.00004611932036L461.18148228640086,306.9400828694081L461.74589598568963,305.6104001040912L462.045523011238,254.26344151305568L462.2615331924473,306.33341504101213L463.2788714652393,307.08653794820196L463.42520094283276,301.4597343127223L464.93727221129774,298.01186386413474L465.45290941805536,307.1778594527043L467.5433305265323,307.50963288360555L467.7314684262952,305.4522621320008L467.9579307130469,307.1982965095553L468.7174503824602,307.7211556723482L469.365480926088,307.5961681693708L470.7869672798523,298.29544675456367L472.16316117626627,306.4872669705961L472.28161837241333,271.218714287724L473.66478033918884,273.3285108850064L473.985311575822,307.30945977723167L474.0828645608842,307.2793041882664L474.91554896909423,275.86692852541717L475.0479423059644,307.7953629934095L475.46254249247903,307.8713339154694L475.52177109055253,307.570061788867L475.7830737291122,307.68475207862105L475.8632065382704,307.74733234140626L475.97121162887504,307.2842525744529L476.81783217780827,306.38714620271617L476.8666086703393,306.0742306751491L477.0338423590175,278.57878665186587L478.2880950241037,307.51227302245786L478.3299034462732,307.6775756292275L478.38564800916595,307.338628327779L478.60165819037525,280.74619203607676L480.4795531528236,307.345116045298L481.2808812444065,305.27782513178437L481.322689666576,279.31503454861314L482.4062246078032,307.6453816721892L482.62920285937406,307.36122627788757L482.9636702367304,307.3511798724575L483.63957306180464,284.84259554335557L484.5105818570033,307.4774699326957L484.5732944902576,307.4524018676694L485.02970309894175,232.2945768436822L485.1411922247272,307.8668260921835L485.8623875071517,307.4088044923028L486.69855595054247,306.62421354331406L487.28387386091606,284.83572117881505L488.0712658117756,301.1018115605282L488.31166423925055,288.10016536880875L488.69839214431875,306.8476836470561L488.8203333756465,279.0438176458774L490.6320316696599,307.36799167117977L491.2068974744911,307.9567787690732L492.00125749571225,284.68073515660234L492.0186776716163,307.37675818920695L493.00117559260036,307.17020963508674L493.2659622663408,307.3282473320383L493.2903505126064,281.08336982916944L493.7188868398441,307.4731128219839L493.99064158394617,306.7851157987169L494.1543912374435,307.71487792089437L494.3285929964832,306.9047073357465L495.85460040567136,282.8380081974628L497.92760133824436,282.5676242021002L498.83693452043184,259.2723698941278L500.8367707142081,307.72016581519136L501.11549352867166,299.4324027421614L501.24788686554183,307.6327416670862L501.9830182886896,298.1591071103175L502.3732302289386,307.7219770648729L503.32437183329563,296.7993080984344L503.5926425422169,307.9368765229582L503.6170307884824,296.50584930629526L504.014210799093,281.79631934916574L504.55772028729706,306.39935542054525L506.52271612926535,271.4164395891991L507.39024088928323,277.33436930043064L507.7560645832667,307.506255194719L507.8814898497753,306.5683226278426L508.0870479254422,282.62130642569826L508.9127642632906,307.6335626397987L509.1043861982343,307.0089073586456L509.3413005905284,285.573329746824L511.61985959876824,275.76437344660144L512.7068785751762,277.0307131503948L513.6196957925445,307.72813421028354L514.3826994971386,298.90452082645226L516.2849827058526,269.91590513966383L516.462668500073,307.5295053530421L517.1490234306897,297.4613053734922L517.6507244967241,307.5942694788087L518.1350053868546,306.2445175320604L518.6227703121659,281.8004224735063L519.0513066394037,307.7789561934986L519.2986731372401,256.251767973758L519.3404815594096,307.2378897163105L519.8805070124329,307.17393192980313L521.5180035474065,306.33758905363857L521.9291196987402,257.018430423615L522.1102895281416,283.79609540753665L523.2391169267191,306.43300024849157L524.3226518679463,304.6314316758756L526.4409452578697,307.5972759337781L526.5106259614855,306.0900532764194L530.4197134343374,306.1706773667406L530.7890211635016,307.4811424496817L533.4403719360864,307.86492578234584L534.3671252941779,307.79879912614933L535.8582923515581,307.6363760411366L536.3739295583158,307.55476539218284L538.0149101284702,301.25212975103966L538.3946699631769,307.4294220084197L538.6908129535443,306.21196097724146L538.8650147125841,306.9984573937604L539.7081512263366,307.2697768506154L541.5930142591465,304.9252258379766L541.7184395256551,307.7999018827971L542.6556449892889,297.0261227858735L543.6764672972619,292.11027084417947L544.321013805709,306.7505951226084L544.9446561030712,307.77540830075804L546.4706635122593,291.5114660979906L547.0977898448024,307.3918648307839L547.1639865132375,297.307301951683L547.9897028510859,307.60835783594666L548.717866203872,292.1780798677169L548.8119351537536,306.7375935392685L548.9687167368892,303.04502668318196L550.2996181759529,290.56022062705324L551.5782590873046,297.42730586422357L551.9475668164689,307.6445578207646L552.3482308622603,307.78565729555345L553.0032294762497,277.9519394113536L553.4457019442107,307.86350063992734L554.6058856594153,304.8732897931715L555.563995334134,307.60476088515384L558.772791735646,289.3281759803061L559.7866459732574,296.2338023748985L560.1245973857945,300.19302469442164L560.232602476399,281.6061285968772L561.6436367246209,306.34893105944167L562.4414807810231,307.987086120143L562.4972253439157,307.52745942834974L562.7689800880178,290.0675942986674L563.0929953598317,306.5040948421277L564.5806783820311,307.2311354180546L565.685117534343,307.8408596890565L566.0788135097729,296.3390893515153L566.5770305406265,306.5275621033231L567.2529333657008,307.7714986498612L567.4828796876333,306.89067325432654L567.4863637228141,306.9872602831339L567.5281721449835,307.89063040258947L569.217929207669,302.28746576147506L569.4687797406863,291.27768972507664L571.3222864568692,307.5236963518783L572.5765391219553,306.0531597019002L572.7298366699104,306.55207673594447L572.7577089513567,307.7304065936626L573.5869093243858,295.73302449336194L573.6147816058321,306.31200138107477L574.144354953313,308.04313332569325L575.2104697186362,295.6754550488323L576.6110518613158,307.7315476431789L577.3461832844635,307.90076733751835L577.879240667125,307.70381790893254L579.4505405336636,297.5173001624927L579.7641036999352,297.0949566309254L581.0531967168292,307.50920299592906L583.6139625747135,285.68155396937306L584.0703711833976,307.7846900482814L587.1607103887626,307.1077173529406L589.7528325632741,267.0280847753609L591.1673508466768,307.3504530576206L591.2265794447502,307.5917639797212L591.4216854148748,307.4141650141077L592.1777210491073,307.84730524543767L592.45295982839,307.1101507043057L595.3098686766418,306.5841585431564L595.7244688631564,306.89387965984196L595.9753193961736,302.0095985539587L596.766195382214,304.44737617879105L597.2469922371638,307.69491165342123L597.7277890921135,282.2104854191732L598.3061389321255,301.99948036064524L598.5674415706851,300.4732764351434L599.0552064959963,282.4736995022177L599.7032370396242,291.59858744156475L600.1944860001163,307.57747315316414L602.0027002589488,306.06496458062287L602.0201204348527,307.7238295760947L602.3023272844972,307.5308243429512L603.2151445018654,307.8558382279442L604.2499029505616,307.17100188065115L604.7620561221383,307.81282855964866L605.7480380783034,307.4412580731903L606.3368400238576,299.1111941247644L606.6956956474795,299.63365254684106L607.434311105808,307.6321705425964L608.1206660364246,307.6026229016468L609.5944129179009,306.06646223060284L609.6188011641664,306.75761498205725L609.8487474860989,307.82681019453213L610.0194652099578,303.99317993751794L611.7789029762592,307.8710954021757L612.1621468461467,307.9708425072253L612.9321186211023,303.87808039085763L613.7195105719619,307.8967841295295L613.9703611049791,303.8799218070432L614.0295897030528,307.6930936867448L614.4093495377593,307.64175209599233L614.6741362114998,307.7611682115021L616.1095587059872,307.8197113204329L616.5659673146714,302.73125521854473L616.6426160886489,307.8204684517068L617.0537322399827,306.40096558019053L618.5170270159165,292.2030258273708L618.746973337849,297.21219889897304L619.0918928207477,298.30631101410137L619.1302172077365,307.8754335913527L619.2660945797875,307.84530316113194L619.8792847716073,307.5972744944221L621.039468486812,296.6177266145235L621.5864620101968,302.16437778868413L621.7885360506829,307.26949257779364L621.8860890357452,297.34402568218707L622.1787479909319,272.9949180480727L626.3177817857162,306.4714206199509L626.5407600372871,304.25658305599165L627.5685504156215,307.81663583634577L629.0144250156515,299.69210575599124L629.4046369559005,307.0881250781503L629.481285729878,299.51340202462893L630.7216022542409,292.42340755279434L631.0560696315973,285.14921868601556L632.6970502017517,307.68994089724265L632.843379679345,286.3245718954293L633.7213565449053,266.806066981883L633.8885902335835,308.0210122222526L633.9931112890073,306.85558547193057L634.9163806119179,307.8384293963231L636.1532131011002,307.34943753194744L637.4248859420903,301.27662471246157L637.7558692842658,304.5983809421429L637.8429701637856,307.738750900579L638.1356291189725,307.8631521358414L638.1878896466844,307.1392877089661L638.5571973758485,307.57781500022827L638.5606814110293,301.189800356021L639.5884717893639,306.77570540874575L641.3513935908461,307.6966363618196L643.7832501470409,306.90205196370925L643.9609359412615,307.3483060181651L644.5148975350079,308.06858006130955L644.5497378868158,302.6407835338492L645.2639650988788,307.36182714906926L645.9294158184106,307.37344101324817L646.1175537181736,307.25387940282997L646.1732982810662,307.66439940401904L647.9815125398987,308.0874656872411L647.995448680622,308.116577788043L648.2219109673737,307.72143832589444L648.9431062497981,303.5011111197125L649.0406592348604,303.21030650014734L650.7687406845347,302.73521152856716L650.7722247197154,298.1028388436658L651.103208061891,308.0236324500127L651.6327814093718,302.8308068410495L652.2877800233613,307.15360906186623L652.3017161640844,303.05268165849213L654.2492918301488,303.80712925304215L654.5907272778666,285.4231415781433L656.3641011848913,307.98901536703477L658.576463524696,276.38381088211906L659.1896537165159,307.77902708178453L659.4579244254371,297.09741505107513L660.7574695478735,298.6120638261306L661.3776278100551,307.3142111515575L662.4402585401974,304.4090782725431L665.1229656294096,307.8655738224251L665.3563959865228,306.873434086801L665.9382298617155,307.83637702451506L667.5304339393388,304.8348589863807L667.6175348188586,307.7458381098969L668.087879568266,304.5172890611023L669.6278231181773,305.2513093144548L669.9483543548105,307.61265947147706L671.0493094719416,305.2984542227229L672.7355824994463,305.52863052623917L673.181539002588,307.0413290937803L673.3731609375318,302.8875649685468L674.2755260493577,306.9550976320899L675.5890073125173,281.5282402426399L676.1882613636141,307.9040416326612L677.9999596576274,276.58052287692817L678.602697743905,307.91141113568625L678.717670904871,307.82330362330515L680.180965680805,308.07129734065063L681.8672387083097,306.21925899224885L681.9578236230104,306.0992061416022L683.1911720770117,307.75730707889915L684.3374196514933,304.7628592776758L685.1526838837992,307.7579293605022L685.5428958240483,279.59974877290495L687.5531841233669,307.90063647606326L688.0514011542206,307.82249815365685L688.5287139739895,308.11043469134717L690.06517348872,306.6326456509501L690.6713956101784,307.9497288630666L693.5945011268652,306.8481120953765L693.6955381471083,306.8934020335229L694.3400846555554,307.02302804132177L694.5073183442335,305.6531662513334L694.7895251938779,308.14357226622883L695.2389657322004,307.9608808438833L696.5036705028291,307.766323445149L696.573351206445,308.0950787862859L696.587287347168,307.8087243258045L696.6604520859647,307.92165650210495L697.3259028054965,307.89004179592087L697.7892794845422,308.03617511866224L698.6045437168483,308.09997421616407L700.0469342816974,306.5542211365805L701.1165330822014,307.7794033534477L701.24195834871,307.61054703654014L701.3290592282299,307.0788003298647L702.4857589082538,274.3702477118387L703.0989491000737,306.8505263752738L703.2069541906784,307.83563053847865L704.4159143984142,307.95271246825854L705.6980393449467,307.7021072342558L705.9767621594102,307.8646685574234L706.3356177830321,306.9858323219765L706.523755682795,307.8165609298575L708.2379009917461,267.23444237491066L709.3458241792389,307.7965167572376L710.0705034968441,307.17766406011924L711.6313512578404,307.97705392835405L712.4570675956887,306.386940134907L715.7041883841896,303.72601338273387L716.2407298020319,307.69584279684545L716.4323517369755,307.9123868991483L716.547324897942,307.0571995536396L716.7703031495128,307.79996545435637L716.9584410492756,306.1976765678135L717.003733506626,308.0328032171866L717.7493170353162,306.7268582220445L721.7873138098573,268.9419523875306L722.5607696199937,307.8710264030446L723.3133212190455,307.7581520408792L723.6094642094131,307.6893050017302L724.9403656484767,307.7436258796065L725.3027053072793,307.49169035075215L726.549989902004,305.6925580681866L726.7729681535748,307.45856039246297L727.128339742016,308.03551340470045L727.3164776417789,307.0068562762607L727.3861583453947,307.1723716678345L727.5952004562424,308.0296356442982L728.3756243367404,306.4892944235524L729.8772434996631,307.9125366221651L730.60889088763,307.8018390761337L730.6402472042571,305.91871377044316L733.242821484311,266.6368063858422L734.2497076515607,307.61082153373536L734.3681648477076,307.1662258573528L734.6643078380753,307.1884024959481L735.0266474968779,308.15407601205345L735.0614878486857,307.7999378067254L735.1660089041097,307.7003990184789L735.4900241759235,307.6438107349965L736.078826121478,307.9599889229117L736.8278936853488,293.62315784741804L738.3817733759834,307.50959935860396L738.4131296926105,307.53080263266395L738.8033416328595,308.0733024685947L738.9914795326224,307.9493370283659L739.5628613022727,306.33988062843173L739.6429941114311,306.98783086786517L739.8903606092675,307.85555932272104L742.3953819042591,307.04036652441545L742.5556475225756,271.1477904976736L742.9841838498133,265.98843213610286L744.6077442440638,308.03102381325795L744.6530367014141,308.08937238422124L745.436944617093,305.9092982227794L745.928193577585,307.2611236818779L747.3845202831574,307.52917166232896L748.6039325964356,307.31112379278284L749.7292759598323,307.02908413194245L750.4051787849064,307.7434476393478L750.4086628200872,307.3678171492576L750.5201519458727,307.7444995687346L753.9519265989557,307.950009117686L754.32123432812,306.710427492839L754.7393185498153,275.79048528466365L755.3455406712735,308.06945454508224L755.6869761189914,307.8532547037636L756.4186235069584,307.532986375699L757.6450038905982,307.7596784779804L757.7948174033723,307.578331489161L764.376159859894,258.3492628745845L764.5015851264025,307.9014801186337L765.5851200676298,307.3651384476575L765.7105453341384,307.8664405846522L768.4106725992543,307.20149739753913L768.4141566344351,307.7168278285429L769.0656712132438,307.3513971552494L771.8563833930605,308.0366075851849L772.1107179612585,308.21473566408326L772.4173130571685,307.73654094926906L772.4277651627109,307.34673999877225L773.1071520229658,307.70774771081426L773.8666716923791,307.75733484647645L773.8771237979215,308.08289454728185L774.1140381902155,269.2813755760762L775.0164033020415,307.54027719392616L775.3090622572282,307.3043566002956L775.7689549010931,304.90419636616076L776.0198054341104,308.17442247943245L776.2567198264044,271.34502066066426L776.3124643892972,307.93201464806816L776.619059485207,307.5415919857134L776.7235805406309,307.7282298674883L778.3053325127119,307.9533454250858L778.5178586587404,307.95689712612256L778.9115546341701,308.10428088944064L779.3575111373119,307.01533648237836L779.7268188664762,308.2065325714903L780.0368979975668,306.7496299144241L780.4166578322735,306.84057958527774L782.259712442914,307.7392410612905L783.3397633489603,307.8542161336382L784.4407184660917,307.54907675716953L785.0992011152617,306.6273036008813L785.4267004222565,307.94391764289554L785.5869660405731,307.58842239468254L785.7367795533473,307.3424432210686L785.9249174531102,307.7809919827253L789.5308938652328,307.963515825043L790.7537902136918,307.9247952578855L790.7607582840534,307.74847914834675L791.7815805920263,308.044081681417L792.1857286729985,307.4847240473433L793.1508064180788,307.46906721191255L794.9416005010074,308.06966719494676L795.7011201704206,308.0341584608764L798.2131095357737,307.84435468546184L798.7322307777121,307.8294468849272L799.5300748341141,307.223930241513L801.1048587358334,308.1394000228109L802.132649114168,307.8356677518301L802.9200410650276,308.2069154252088L803.0698545778018,308.15154877269214L803.4008379199772,307.85596857962736L803.7771137195032,307.5724925014126L805.2473765657985,307.7858321773147L806.0312844814773,307.8837370265543L807.3377976742755,307.41070630146965L808.5119175302033,290.9279396365888L808.5746301634578,307.47117502891547L809.4735112401028,307.12164072389027L810.1110896781881,307.9853965860083L810.2051586280697,307.7593008269343L813.4174390647626,307.7487781145949L813.6717736329605,307.5724400248896L813.8285552160963,306.018196303857L813.8773317086274,307.8449940594181L813.9504964474241,307.6108092992088L814.2327032970685,307.6047006121188L814.7030480464758,307.7229044299874L815.922460359754,307.377118448034L816.6715279236249,307.03551193626555L817.3474307486991,307.5986247903255L818.3996093732992,307.121029357404L819.0615760576503,307.8407737175185L819.2253257111475,307.615391669144L820.0858824008038,307.46447308723623L820.8941785627483,307.3873023719409L821.5526612119186,307.7285173188881L821.8209319208397,306.8085062942558L822.9184030027902,302.944171963658L823.1100249377339,307.9598094232164L823.8799967126895,307.7654620505205L825.3432914886234,307.868513617217L827.1967982048063,307.29418233206894L827.726371552287,307.795507828613L827.7751480448183,307.25364334843624L828.4301466588075,307.5714890903196L828.5660240308587,307.44251439113765L828.6043484178474,265.7102679414529L828.7959703527911,307.21200253774L829.2349587855712,307.53329403805674L830.6808333856011,307.38719196133655L831.2452470848899,307.68337659398657L832.6144729109423,307.47429489314777L833.314763982282,307.4658137874326L833.4227690728868,307.54019353135516L833.56909855048,307.1345944486411L834.0046029480794,307.95701719240714L834.9522605172556,308.1866512934945L835.5654507090757,307.6420413465871L835.5968070257027,307.58925782092876L837.2621758421227,307.17731681546985L837.95201480792,308.16592714508283L838.0844081447902,307.64575428548915L838.2377056927452,306.10196418770505L838.4293276276888,307.9788640985185L839.2097515081869,307.8428709192705L839.2898843173452,306.00262127182896L839.6626760816903,306.63289897761655L840.0842443385665,307.00073913295387L840.7949875154486,307.8783700276472L840.958737168946,264.4209196512618L841.7565812253481,306.64858891823667L841.993495617642,307.7673747748042L842.1363410600546,306.74063094039326L842.3105428190944,306.41708360929204L843.031738101519,307.9403338562133L844.1501133945541,307.6746104357984L844.7911758678204,307.25102515976386L845.6865729092847,307.90328531102506L846.818884343043,308.08549664815155L847.0314104890715,308.04255224565736L847.261356811004,307.7336274527118L849.2890652862264,307.0174501767519L849.6200486284021,307.6515901546327L851.2261888467484,307.2387279013225L851.5745923648279,308.0998337290153L851.5850444703703,306.8798952362061L851.8602832496531,308.07008631743935L852.2888195768909,306.0631860163186L853.170280477632,307.94225410712966L853.3793225884797,307.4355087453298L853.7695345287289,307.7724547421238L855.1108880733348,307.98081085757565L855.5394244005726,308.0674415006799L855.8669237075673,308.1714068785547L858.4276895654515,308.1207585176644L859.013007475825,307.2205324016417L859.0966243201641,307.72665521195916L859.6645220546337,305.99402975550936L860.6330838348946,308.0771071664455L861.3577631525,306.78628911379815L863.0440361800048,307.5128819300442L865.9148811689796,307.2554853643535L866.1065031039234,307.6395612761233L866.1343753853697,307.57234418776534L866.3538696017598,308.0983689743186L866.7824059289976,307.4099337271047L867.0959690952692,308.00591046848893L867.7474836740778,307.93364118038863L867.897297186852,307.5412598543026L868.2491847401122,307.790985791686L868.2840250919202,307.6584512651028L868.6742370321692,307.70425325416744L869.7856442548427,307.7693060307971L870.0643670693063,307.6371888574981L870.597424451968,307.4762872618001L871.4719172823476,307.3648947766713L872.0398150168171,306.86778389458914L872.5589362587555,308.027806402666L873.3114878578073,307.93289994200455L874.8793036891649,307.70531232036143L875.0918298351934,307.75118579744355L876.0116151229232,307.56633067809474L876.0987160024431,261.0382717033727L877.7153083263319,307.8441509865928L878.3459186940557,307.27513893172267L879.1507308208194,307.807726792082L879.2726720521472,308.15268716839563L879.3005443335936,304.3285328670198L879.7917932940857,307.7719157032795L880.4049834859055,261.6514412230361L883.1120788213831,305.11430996534796L884.98300571347,307.8032938452978L885.5474194127587,308.1767704814812L885.7599455587872,307.52831158711024L886.1710617101211,305.4648356268592L887.1256873496588,307.8612378222688L888.1708979038974,308.1607113385351L889.3589539005484,307.7476966184356L891.0487109632338,307.4705510080905L892.3587081912128,307.15011430535355L892.6374310056764,308.0677786548435L893.4178548861744,308.1375174800246L893.5676683989486,307.6573135740841L894.3306721035426,307.8991439238026L894.5850066717408,307.2138379566086L895.9263602163467,307.8882055074413L896.4280612823812,307.96982728141796L896.6475554987712,217.87843946831296L896.9541505946813,308.01074541542596L897.5952130679475,306.6228508329647L897.6230853493938,307.2677801039217L897.7624467566255,263.82686478006957L898.0551057118123,308.08448160226374L899.082896090147,307.8767515317313L899.3476827638873,308.15648369490214L899.9782931316112,307.02211596936536L900.5845152530695,307.88267094349953L902.7794574169702,308.0451642870799L902.9710793519139,307.8839126279936L904.1382311374803,307.5842831664942L904.4065018464014,308.1593274276704L906.521311201144,307.72163965582325L906.7094491009069,307.43760228871844L908.3330094951573,307.21590367244676L908.9775560036043,307.7222967818376L909.5489377732547,306.1741179075084L910.6847332421937,308.06101257185986L910.7648660513521,307.5000934913475L911.2909553636522,307.6464378596711L911.32579571546,307.7492570603237L911.7752362537826,307.20741578976344L912.9667762856144,307.57919486290405L913.0747813762191,307.54699574817323L914.4823315892604,308.0875306381833L914.5694324687801,307.446991508161L915.7540044302505,308.1633930837735L916.5413963811101,307.323485162542L916.7399863864154,308.0470832485732L917.5134421965519,308.00021817511225L917.9733348404168,291.80781031924374L918.4506476601856,307.7446390663261L918.4576157305472,307.89211602794904L918.9767369724857,306.3481548866866L920.0219475267241,307.24065627860335L920.1195005117864,307.8527904814478L920.2240215672102,308.05433610378424L920.8128235127646,307.2753075762743L920.8372117590302,308.1180526182321L922.2935384646024,267.8637902566838L922.7499470732865,307.545068990168L923.4955306019766,307.1295435083354L923.7115407831859,307.7386752144396L925.2027078405662,307.8280469912129L925.3037448608092,307.9273422883927L925.5406592531033,307.63165267428076L926.1329452338384,307.1528429646035L926.1643015504656,307.4800075774019L926.5928378777032,303.28025872485756L926.836720340359,306.96617539610986L927.2339003509695,261.2684496861377L927.429006321094,307.6434940166902L928.1989780960498,308.0031337107573L928.5717698603947,307.27300628582776L930.4914732450127,308.11351005548795L930.623866581883,308.00507582189385L932.0383848652857,307.91167756649014L932.5296338257778,307.93768697037945L933.3170257766374,283.5762596778451L933.8988596518302,307.5882474529481L935.1879526687243,306.8509791727009L935.3621544277639,307.74902448437376L936.1356102379004,307.7707029858261L936.7697046408052,307.83239891424563L937.0867518422574,306.86462798648216L938.0065371299872,307.60888284106943L940.2711599975039,307.3137557752841L941.3686310794543,308.2143928199652L941.4104395016238,308.0388257528191L941.6926463512683,254.5466031519445L941.730970738257,298.4995532012362L941.9922733768166,307.8547660276261L942.1943474173028,307.9085320037549L942.8737342775578,307.133761541268" style="fill: none;" fill="none"></path></g></g></g></g></g></g><g transform="translate(51, 377)" clip-path="url(#clip_1)"><clipPath id="clip_1"><rect width="1392" height="23"></rect></clipPath><g><g><line x1="71.8684231140201" y1="0" x2="71.8684231140201" y2="5" style="visibility: inherit;" fill="rgb(0, 0, 0)" stroke="rgb(204, 204, 204)" stroke-width="1px"></line><line x1="246.07018215376377" y1="0" x2="246.07018215376377" y2="5" style="visibility: inherit;" fill="rgb(0, 0, 0)" stroke="rgb(204, 204, 204)" stroke-width="1px"></line><line x1="420.2719411935074" y1="0" x2="420.2719411935074" y2="5" style="visibility: inherit;" fill="rgb(0, 0, 0)" stroke="rgb(204, 204, 204)" stroke-width="1px"></line><line x1="594.4737002332511" y1="0" x2="594.4737002332511" y2="5" style="visibility: inherit;" fill="rgb(0, 0, 0)" stroke="rgb(204, 204, 204)" stroke-width="1px"></line><line x1="768.6754592729949" y1="0" x2="768.6754592729949" y2="5" style="visibility: inherit;" fill="rgb(0, 0, 0)" stroke="rgb(204, 204, 204)" stroke-width="1px"></line><line x1="942.8772183127386" y1="0" x2="942.8772183127386" y2="5" style="visibility: inherit;" fill="rgb(0, 0, 0)" stroke="rgb(204, 204, 204)" stroke-width="1px"></line><line x1="1117.0789773524823" y1="0" x2="1117.0789773524823" y2="5" style="visibility: inherit;" fill="rgb(0, 0, 0)" stroke="rgb(204, 204, 204)" stroke-width="1px"></line><line x1="1291.280736392226" y1="0" x2="1291.280736392226" y2="5" style="visibility: inherit;" fill="rgb(0, 0, 0)" stroke="rgb(204, 204, 204)" stroke-width="1px"></line></g><g transform="translate(0, 8)"><text x="71.8684231140201" y="0" dx="0em" dy="0.95em" style="text-anchor: middle; visibility: inherit; font-family: Roboto, sans-serif; font-size: 12px; font-weight: 200;" fill="rgb(33, 33, 33)" stroke="none" stroke-width="1px">-50k</text><text x="246.07018215376377" y="0" dx="0em" dy="0.95em" style="text-anchor: middle; visibility: inherit; font-family: Roboto, sans-serif; font-size: 12px; font-weight: 200;" fill="rgb(33, 33, 33)" stroke="none" stroke-width="1px">0</text><text x="420.2719411935074" y="0" dx="0em" dy="0.95em" style="text-anchor: middle; visibility: inherit; font-family: Roboto, sans-serif; font-size: 12px; font-weight: 200;" fill="rgb(33, 33, 33)" stroke="none" stroke-width="1px">50k</text><text x="594.4737002332511" y="0" dx="0em" dy="0.95em" style="text-anchor: middle; visibility: inherit; font-family: Roboto, sans-serif; font-size: 12px; font-weight: 200;" fill="rgb(33, 33, 33)" stroke="none" stroke-width="1px">100k</text><text x="768.6754592729949" y="0" dx="0em" dy="0.95em" style="text-anchor: middle; visibility: inherit; font-family: Roboto, sans-serif; font-size: 12px; font-weight: 200;" fill="rgb(33, 33, 33)" stroke="none" stroke-width="1px">150k</text><text x="942.8772183127386" y="0" dx="0em" dy="0.95em" style="text-anchor: middle; visibility: inherit; font-family: Roboto, sans-serif; font-size: 12px; font-weight: 200;" fill="rgb(33, 33, 33)" stroke="none" stroke-width="1px">200k</text><text x="1117.0789773524823" y="0" dx="0em" dy="0.95em" style="text-anchor: middle; visibility: inherit; font-family: Roboto, sans-serif; font-size: 12px; font-weight: 200;" fill="rgb(33, 33, 33)" stroke="none" stroke-width="1px">250k</text><text x="1291.280736392226" y="0" dx="0em" dy="0.95em" style="text-anchor: middle; visibility: inherit; font-family: Roboto, sans-serif; font-size: 12px; font-weight: 200;" fill="rgb(33, 33, 33)" stroke="none" stroke-width="1px">300k</text></g><line x1="0" y1="0" x2="1392.4375" y2="0" fill="rgb(0, 0, 0)" stroke="rgb(204, 204, 204)" stroke-width="1px"></line></g></g></g></g></svg>