<svg viewBox="0 0 1444 400" xmlns="http://www.w3.org/2000/svg"><g><g><g><g><g><line x1="82.734375" y1="377" x2="77.734375" y2="377" style="visibility: inherit;" fill="rgb(0, 0, 0)" stroke="rgb(204, 204, 204)" stroke-width="1px"></line><line x1="82.734375" y1="345.5833333333333" x2="77.734375" y2="345.5833333333333" style="visibility: inherit;" fill="rgb(0, 0, 0)" stroke="rgb(204, 204, 204)" stroke-width="1px"></line><line x1="82.734375" y1="314.1666666666667" x2="77.734375" y2="314.1666666666667" style="visibility: inherit;" fill="rgb(0, 0, 0)" stroke="rgb(204, 204, 204)" stroke-width="1px"></line><line x1="82.734375" y1="282.75" x2="77.734375" y2="282.75" style="visibility: inherit;" fill="rgb(0, 0, 0)" stroke="rgb(204, 204, 204)" stroke-width="1px"></line><line x1="82.734375" y1="251.33333333333337" x2="77.734375" y2="251.33333333333337" style="visibility: inherit;" fill="rgb(0, 0, 0)" stroke="rgb(204, 204, 204)" stroke-width="1px"></line><line x1="82.734375" y1="219.91666666666663" x2="77.734375" y2="219.91666666666663" style="visibility: inherit;" fill="rgb(0, 0, 0)" stroke="rgb(204, 204, 204)" stroke-width="1px"></line><line x1="82.734375" y1="188.5" x2="77.734375" y2="188.5" style="visibility: inherit;" fill="rgb(0, 0, 0)" stroke="rgb(204, 204, 204)" stroke-width="1px"></line><line x1="82.734375" y1="157.08333333333331" x2="77.734375" y2="157.08333333333331" style="visibility: inherit;" fill="rgb(0, 0, 0)" stroke="rgb(204, 204, 204)" stroke-width="1px"></line><line x1="82.734375" y1="125.66666666666669" x2="77.734375" y2="125.66666666666669" style="visibility: inherit;" fill="rgb(0, 0, 0)" stroke="rgb(204, 204, 204)" stroke-width="1px"></line><line x1="82.734375" y1="94.25" x2="77.734375" y2="94.25" style="visibility: inherit;" fill="rgb(0, 0, 0)" stroke="rgb(204, 204, 204)" stroke-width="1px"></line><line x1="82.734375" y1="62.83333333333332" x2="77.734375" y2="62.83333333333332" style="visibility: inherit;" fill="rgb(0, 0, 0)" stroke="rgb(204, 204, 204)" stroke-width="1px"></line><line x1="82.734375" y1="31.416666666666682" x2="77.734375" y2="31.416666666666682" style="visibility: inherit;" fill="rgb(0, 0, 0)" stroke="rgb(204, 204, 204)" stroke-width="1px"></line><line x1="82.734375" y1="0" x2="77.734375" y2="0" style="visibility: inherit;" fill="rgb(0, 0, 0)" stroke="rgb(204, 204, 204)" stroke-width="1px"></line></g><g transform="translate(72.734375, 0)"><text x="0" y="377" dx="0em" dy="0.3em" style="text-anchor: end; visibility: hidden; font-family: Roboto, sans-serif; font-size: 12px; font-weight: 200;" fill="rgb(33, 33, 33)" stroke="none" stroke-width="1px">-1.2e+3</text><text x="0" y="345.5833333333333" dx="0em" dy="0.3em" style="text-anchor: end; visibility: inherit; font-family: Roboto, sans-serif; font-size: 12px; font-weight: 200;" fill="rgb(33, 33, 33)" stroke="none" stroke-width="1px">-1.1e+3</text><text x="0" y="314.1666666666667" dx="0em" dy="0.3em" style="text-anchor: end; visibility: inherit; font-family: Roboto, sans-serif; font-size: 12px; font-weight: 200;" fill="rgb(33, 33, 33)" stroke="none" stroke-width="1px">-1e+3</text><text x="0" y="282.75" dx="0em" dy="0.3em" style="text-anchor: end; visibility: inherit; font-family: Roboto, sans-serif; font-size: 12px; font-weight: 200;" fill="rgb(33, 33, 33)" stroke="none" stroke-width="1px">-900</text><text x="0" y="251.33333333333337" dx="0em" dy="0.3em" style="text-anchor: end; visibility: inherit; font-family: Roboto, sans-serif; font-size: 12px; font-weight: 200;" fill="rgb(33, 33, 33)" stroke="none" stroke-width="1px">-800</text><text x="0" y="219.91666666666663" dx="0em" dy="0.3em" style="text-anchor: end; visibility: inherit; font-family: Roboto, sans-serif; font-size: 12px; font-weight: 200;" fill="rgb(33, 33, 33)" stroke="none" stroke-width="1px">-700</text><text x="0" y="188.5" dx="0em" dy="0.3em" style="text-anchor: end; visibility: inherit; font-family: Roboto, sans-serif; font-size: 12px; font-weight: 200;" fill="rgb(33, 33, 33)" stroke="none" stroke-width="1px">-600</text><text x="0" y="157.08333333333331" dx="0em" dy="0.3em" style="text-anchor: end; visibility: inherit; font-family: Roboto, sans-serif; font-size: 12px; font-weight: 200;" fill="rgb(33, 33, 33)" stroke="none" stroke-width="1px">-500</text><text x="0" y="125.66666666666669" dx="0em" dy="0.3em" style="text-anchor: end; visibility: inherit; font-family: Roboto, sans-serif; font-size: 12px; font-weight: 200;" fill="rgb(33, 33, 33)" stroke="none" stroke-width="1px">-400</text><text x="0" y="94.25" dx="0em" dy="0.3em" style="text-anchor: end; visibility: inherit; font-family: Roboto, sans-serif; font-size: 12px; font-weight: 200;" fill="rgb(33, 33, 33)" stroke="none" stroke-width="1px">-300</text><text x="0" y="62.83333333333332" dx="0em" dy="0.3em" style="text-anchor: end; visibility: inherit; font-family: Roboto, sans-serif; font-size: 12px; font-weight: 200;" fill="rgb(33, 33, 33)" stroke="none" stroke-width="1px">-200</text><text x="0" y="31.416666666666682" dx="0em" dy="0.3em" style="text-anchor: end; visibility: inherit; font-family: Roboto, sans-serif; font-size: 12px; font-weight: 200;" fill="rgb(33, 33, 33)" stroke="none" stroke-width="1px">-100</text><text x="0" y="0" dx="0em" dy="0.3em" style="text-anchor: end; visibility: hidden; font-family: Roboto, sans-serif; font-size: 12px; font-weight: 200;" fill="rgb(33, 33, 33)" stroke="none" stroke-width="1px">0</text></g><line x1="82.734375" y1="0" x2="82.734375" y2="377" fill="rgb(0, 0, 0)" stroke="rgb(204, 204, 204)" stroke-width="1px"></line></g></g><g transform="translate(82, 0)" clip-path="url(#clip_0)"><clipPath id="clip_0"><rect width="1361" height="377"></rect></clipPath><g><g><g><line x1="0" y1="0" x2="0" y2="377" fill="rgb(0, 0, 0)" stroke="rgb(66, 66, 66)" stroke-width="1px" opacity="0.25"></line><line x1="113.43880208333333" y1="0" x2="113.43880208333333" y2="377" fill="rgb(0, 0, 0)" stroke="rgb(66, 66, 66)" stroke-width="1px" opacity="0.25"></line><line x1="226.87760416666666" y1="0" x2="226.87760416666666" y2="377" fill="rgb(0, 0, 0)" stroke="rgb(66, 66, 66)" stroke-width="1px" opacity="0.25"></line><line x1="340.31640625" y1="0" x2="340.31640625" y2="377" fill="rgb(0, 0, 0)" stroke="rgb(66, 66, 66)" stroke-width="1px" opacity="0.25"></line><line x1="453.7552083333333" y1="0" x2="453.7552083333333" y2="377" fill="rgb(0, 0, 0)" stroke="rgb(66, 66, 66)" stroke-width="1px" opacity="0.25"></line><line x1="567.1940104166667" y1="0" x2="567.1940104166667" y2="377" fill="rgb(0, 0, 0)" stroke="rgb(66, 66, 66)" stroke-width="1px" opacity="0.25"></line><line x1="680.6328125" y1="0" x2="680.6328125" y2="377" fill="rgb(0, 0, 0)" stroke="rgb(66, 66, 66)" stroke-width="1px" opacity="0.25"></line><line x1="794.0716145833334" y1="0" x2="794.0716145833334" y2="377" fill="rgb(0, 0, 0)" stroke="rgb(66, 66, 66)" stroke-width="1px" opacity="0.25"></line><line x1="907.5104166666666" y1="0" x2="907.5104166666666" y2="377" fill="rgb(0, 0, 0)" stroke="rgb(66, 66, 66)" stroke-width="1px" opacity="0.25"></line><line x1="1020.94921875" y1="0" x2="1020.94921875" y2="377" fill="rgb(0, 0, 0)" stroke="rgb(66, 66, 66)" stroke-width="1px" opacity="0.25"></line><line x1="1134.3880208333335" y1="0" x2="1134.3880208333335" y2="377" fill="rgb(0, 0, 0)" stroke="rgb(66, 66, 66)" stroke-width="1px" opacity="0.25"></line><line x1="1247.8268229166665" y1="0" x2="1247.8268229166665" y2="377" fill="rgb(0, 0, 0)" stroke="rgb(66, 66, 66)" stroke-width="1px" opacity="0.25"></line><line x1="1361.265625" y1="0" x2="1361.265625" y2="377" fill="rgb(0, 0, 0)" stroke="rgb(66, 66, 66)" stroke-width="1px" opacity="0.25"></line></g><g><line x1="0" y1="377" x2="1361.265625" y2="377" fill="rgb(0, 0, 0)" stroke="rgb(66, 66, 66)" stroke-width="1px" opacity="0.25"></line><line x1="0" y1="345.5833333333333" x2="1361.265625" y2="345.5833333333333" fill="rgb(0, 0, 0)" stroke="rgb(66, 66, 66)" stroke-width="1px" opacity="0.25"></line><line x1="0" y1="314.1666666666667" x2="1361.265625" y2="314.1666666666667" fill="rgb(0, 0, 0)" stroke="rgb(66, 66, 66)" stroke-width="1px" opacity="0.25"></line><line x1="0" y1="282.75" x2="1361.265625" y2="282.75" fill="rgb(0, 0, 0)" stroke="rgb(66, 66, 66)" stroke-width="1px" opacity="0.25"></line><line x1="0" y1="251.33333333333337" x2="1361.265625" y2="251.33333333333337" fill="rgb(0, 0, 0)" stroke="rgb(66, 66, 66)" stroke-width="1px" opacity="0.25"></line><line x1="0" y1="219.91666666666663" x2="1361.265625" y2="219.91666666666663" fill="rgb(0, 0, 0)" stroke="rgb(66, 66, 66)" stroke-width="1px" opacity="0.25"></line><line x1="0" y1="188.5" x2="1361.265625" y2="188.5" fill="rgb(0, 0, 0)" stroke="rgb(66, 66, 66)" stroke-width="1px" opacity="0.25"></line><line x1="0" y1="157.08333333333331" x2="1361.265625" y2="157.08333333333331" fill="rgb(0, 0, 0)" stroke="rgb(66, 66, 66)" stroke-width="1px" opacity="0.25"></line><line x1="0" y1="125.66666666666669" x2="1361.265625" y2="125.66666666666669" fill="rgb(0, 0, 0)" stroke="rgb(66, 66, 66)" stroke-width="1px" opacity="0.25"></line><line x1="0" y1="94.25" x2="1361.265625" y2="94.25" fill="rgb(0, 0, 0)" stroke="rgb(66, 66, 66)" stroke-width="1px" opacity="0.25"></line><line x1="0" y1="62.83333333333332" x2="1361.265625" y2="62.83333333333332" fill="rgb(0, 0, 0)" stroke="rgb(66, 66, 66)" stroke-width="1px" opacity="0.25"></line><line x1="0" y1="31.416666666666682" x2="1361.265625" y2="31.416666666666682" fill="rgb(0, 0, 0)" stroke="rgb(66, 66, 66)" stroke-width="1px" opacity="0.25"></line><line x1="0" y1="0" x2="1361.265625" y2="0" fill="rgb(0, 0, 0)" stroke="rgb(66, 66, 66)" stroke-width="1px" opacity="0.25"></line></g></g></g><g><g><line x1="0" y1="0" x2="1361.265625" y2="0" fill="rgb(0, 0, 0)" stroke="rgb(153, 153, 153)" stroke-width="1.5px"></line></g></g><g><g><line x1="113.43880208333333" y1="0" x2="113.43880208333333" y2="377" fill="rgb(0, 0, 0)" stroke="rgb(153, 153, 153)" stroke-width="1.5px"></line></g></g><g><g><g><g><g><path stroke="rgb(204, 51, 17)" stroke-width="2px" d="M138.39533854166666,381.172859704628L139.5297265625,368.67332936010587L140.66411458333334,359.37660080749293L141.79850260416669,353.355741776858L142.932890625,346.40705489731585L144.06727864583334,351.0174650276279L145.20166666666668,356.09469700521254L146.3360546875,359.34817673717953L147.47044270833334,351.7241911859955L148.60483072916665,356.03848140881394L149.73921875,357.1043441817298L150.87360677083333,370.7467072577154L152.00799479166668,363.43089439607684L153.14238281250002,365.1247067390586L154.27677083333333,362.2325273355831L155.41115885416667,354.5118407282201L156.545546875,346.682867327889L157.67993489583333,342.0937080893745L158.81432291666667,340.38177895515L159.94871093749998,341.7027585630979L161.08309895833332,338.7834504944437L162.21748697916667,337.96214066698764L163.351875,339.4883325161075L164.48626302083335,343.3091815352968L165.62065104166666,346.04669772313315L166.7550390625,346.47510926886156L167.88942708333335,342.35494738062465L169.02381510416666,346.17791965365564L170.158203125,343.3325232659794L171.2925911458333,343.79304410028266L172.42697916666668,341.6068498669311L173.5613671875,341.6733048263119L174.69575520833334,334.0151672698783L175.83014322916668,338.87564726072014L176.96453125,345.71327311758876L178.09891927083333,342.1044956152981L179.23330729166665,341.1990085353391L180.36769531250002,341.2364288094458L181.50208333333333,347.1550413560006L182.63647135416664,342.65678689232635L183.77085937500001,341.81312040055394L184.90524739583333,337.7456340158571L186.03963541666667,334.87434105727215L187.1740234375,324.68746764459377L188.30841145833332,325.64291985731586L189.44279947916667,331.68429343280314L190.5771875,335.94718218475407L191.71157552083335,334.22358990591715L192.84596354166666,331.9801901515472L193.98035156249998,323.2147664121609L195.11473958333335,326.8361649566408L196.24912760416666,326.37848814784417L197.38351562499997,326.3730784818508L198.51790364583334,325.06159185895405L199.65229166666666,324.91223393122783L200.7866796875,323.2536530253006L201.92106770833334,324.22513689889024L203.05545572916668,318.7349788373927L204.18984375,322.04588401596436L205.32423177083336,321.6746465091107L206.45861979166668,320.77879546659983L207.5930078125,320.62707773367276L208.7273958333333,325.69101827501294L209.86178385416667,322.3477296944505L210.996171875,323.1027426776287L212.13055989583333,323.8497617916155L213.26494791666667,323.634071985678L214.3993359375,314.3460157089425L215.53372395833333,311.0149701548719L216.6681119791667,312.5124278672522L217.8025,312.553680076638L218.93688802083332,313.52045712358506L220.07127604166664,311.1122739615312L221.2056640625,310.5234975746938L222.34005208333332,311.693483403645L223.47444010416666,299.7751465417137L224.608828125,298.0063188625592L225.74321614583334,303.8878964405294L226.87760416666666,305.90623581323416L228.01199218750003,314.88589899111344L229.14638020833334,317.16201024944326L230.28076822916665,319.21650702378207L231.41515625000002,313.7440453606851L232.54954427083334,319.44070151915827L233.68393229166665,309.98921129019953L234.8183203125,315.0920153132585L235.95270833333333,307.8097779201668L237.08709635416668,308.4640436699694L238.221484375,310.08861197050913L239.35587239583333,314.77921102829583L240.49026041666667,316.90855463402124L241.62464843749999,310.53186764311357L242.75903645833336,312.6341464887735L243.89342447916667,310.47357930648496L245.02781249999998,310.9731662609455L246.16220052083335,312.3145112904182L247.29658854166667,304.70129316520604L248.4309765625,309.09260647227933L249.56536458333332,313.8840608044601L250.69975260416666,316.38542912452886L251.834140625,316.1362973604951L252.96852864583332,307.0268348752852L254.1029166666667,301.4560215806438L255.2373046875,304.56409162771683L256.37169270833334,308.1007011382755L257.5060807291667,304.1955892411039L258.64046875,304.58182900803627L259.7748567708333,308.13186493982835L260.9092447916667,301.5982410668516L262.0436328125,300.4163298428203L263.17802083333333,300.49718474421064L264.3124088541667,304.19436322302187L265.446796875,300.9131172670566L266.5811848958333,306.0556842433331L267.71557291666664,301.1255728666714L268.8499609375,288.2742950141211L269.9843489583333,275.5747991704761L271.11873697916667,268.7690658887082L272.253125,273.1866280670051L273.38751302083335,272.1085983927316L274.52190104166664,225.5239962208477L275.65628906250004,243.30643949987171L276.7906770833333,242.41251735307114L277.92506510416666,194.23034362655721L279.059453125,219.67429153332597L280.19384114583335,238.26993627841864L281.3282291666667,198.50941432679159L282.4626171875,223.3860775022862L283.59700520833337,208.81311390917756L284.73139322916666,174.98993283622465L285.86578125,147.57323002014954L287.00016927083334,133.66183239614483L288.1345572916667,163.7435239206594L289.26894531249997,153.22733221330972L290.40333333333336,130.57981967893227L291.53772135416665,111.82713891066696L292.672109375,152.95725272399258L293.80649739583333,145.3053340700632L294.9408854166667,163.83603025653886L296.0752734375,146.41109124421223L297.2096614583333,125.04569945970485L298.3440494791667,131.557439674372L299.4784375,112.74460998331269L300.6128255208333,98.18027629307718L301.74721354166667,135.04015844290902L302.8816015625,115.65347279568867L304.01598958333335,122.42426953904118L305.15037760416664,105.90067201957929L306.28476562500003,149.24549277516866L307.4191536458333,134.91074248419335L308.55354166666666,115.68248292625846L309.6879296875,155.30051722479587L310.82231770833334,131.94497209002753L311.95670572916663,113.41848315882828L313.09109375,147.30878238684454L314.2254817708333,125.87866539133796L315.35986979166665,122.89960308435131L316.4942578125,98.57975127818246L317.62864583333334,86.83700404709222L318.7630338541667,77.08429116619148L319.89742187499996,125.67289326010162L321.03180989583336,115.75874906395289L322.16619791666665,156.4819799335353L323.3005859375,140.7401349595032L324.43497395833333,120.0899028475159L325.5693619791667,152.10371985491705L326.70375,121.89208820272754L327.83813802083336,104.96476469365177L328.9725260416667,99.81936000066928L330.1069140625,110.60018046981439L331.2413020833333,88.70555829104858L332.37569010416667,85.74433635502714L333.510078125,76.30392379720735L334.6444661458333,83.27613532988015L335.7788541666667,81.83902539545521L336.9132421875,72.92331443511827L338.0476302083333,66.08487998996877L339.18201822916666,76.63031324287022L340.31640625,61.71103170529811L341.45079427083334,57.49036926377464L342.5851822916666,53.91151398300049L343.7195703125,58.72078378008938L344.85395833333337,70.2742023007642L345.98834635416665,71.19103340026308L347.122734375,57.138017018767755L348.2571223958334,53.7721270193518L349.3915104166667,50.45004766320074L350.5258984375,47.934623021561976L351.66028645833336,46.516079688611896L352.79467447916664,58.91110941230713L353.9290625,55.05109935235542L355.06345052083327,51.84575530840214L356.19783854166667,49.083096210426106L357.3322265625,47.3023872492043L358.4666145833333,45.82965051057568L359.60100260416664,52.09079365573426L360.73539062500004,57.671262744920284L361.8697786458333,54.54869038697628L363.00416666666666,59.44552408692471L364.1385546875,47.742711858131386L365.2729427083333,45.714786223870796L366.4073307291667,44.19628571915811L367.54171875000003,35.39063786002549L368.6761067708333,35.613471141596975L369.81049479166666,36.14510048352907L370.94488281250005,36.44404075084712L372.07927083333334,51.54372068356341L373.2136588541667,48.83196959011451L374.348046875,46.52271766529638L375.4824348958333,59.434244465082124L376.61682291666665,55.244506230075544L377.75121093750005,51.995316926097374L378.88559895833333,41.84495453711788L380.0199869791667,41.1950222348884L381.154375,33.080743865507095L382.2887630208333,34.33996522866669L383.4231510416667,35.20545629980544L384.5575390625,36.140168223082085L385.6919270833333,37.02438521170537L386.82631510416667,44.9199761233642L387.96070312499995,43.77411373280793L389.09509114583335,42.73871439984092L390.2294791666667,41.89610460703098L391.3638671875,40.705162367061895L392.4982552083333,40.02288212524743L393.63264322916666,39.51232833661153L394.76703124999995,39.14253294465949L395.90141927083334,38.4632312291305L397.0358072916667,45.450493234748926L398.17019531249997,52.78292976948043L399.3045833333333,49.58113092623091L400.4389713541667,62.46857642270673L401.573359375,50.260543417513766L402.70774739583334,47.66560213437113L403.8421354166667,45.702340388221984L404.97652343749996,44.21450079212465L406.11091145833336,42.74699917928278L407.2452994791667,41.9135362241737L408.3796875,47.67081121047913L409.51407552083333,52.42008862750196L410.64846354166673,41.995004094671906L411.7828515625,33.632894465312724L412.91723958333336,26.95238988300986L414.05162760416664,29.506181933568506L415.186015625,31.100923575470162L416.3204036458333,32.47920935369273L417.4547916666666,26.063651419832265L418.5891796875,28.90048991994372L419.72356770833335,30.604755538911125L420.85795572916663,39.15859385983988L421.99234375,38.58159060428016L423.1267317708334,38.398283598180406L424.26111979166666,38.57008600533468L425.3955078125,38.49884314457945L426.52989583333334,38.303963744484356L427.6642838541666,52.23154652964508L428.798671875,49.19171111719956L429.93305989583337,39.47611833661517L431.06744791666665,38.94691557764783L432.2018359375,38.700481130280295L433.3362239583334,45.580749329883425L434.4706119791667,44.103939523822916L435.605,42.67319187683013L436.73938802083336,42.108638157225805L437.87377604166664,49.280944257877046L439.0081640625,46.6096410340482L440.14255208333327,44.82451104628354L441.27694010416667,43.22839576965423L442.411328125,56.10467305188059L443.5457161458333,52.95696368411927L444.68010416666664,49.721930425292236L445.81449218750004,47.56545250139707L446.9488802083333,45.46093845655186L448.08326822916666,60.15249052150776L449.21765625,55.54568421255531L450.3520442708333,52.194724845019856L451.4864322916667,49.424844869556296L452.62082031250003,47.29276292974338L453.7552083333333,37.965380371090426L454.88959635416666,38.19932269897196L456.02398437500005,38.3755888761372L457.15837239583334,45.842796291135954L458.2927604166667,57.86840281456568L459.4271484375,54.05777118913224L460.5615364583333,51.167147869681465L461.69592447916665,63.51996417078581L462.83031250000005,50.8540609057701L463.96470052083333,48.21117457325909L465.0990885416667,54.24821967010221L466.2334765625,50.893443519946146L467.3678645833333,40.83196007595558L468.5022526041667,40.46366353246449L469.636640625,53.500029362145064L470.7710286458333,42.89001597853738L471.90541666666667,56.93995323794873L473.03980468749995,60.59353834261732L474.17419270833335,56.2351059172172L475.3085807291667,52.44472625395608L476.44296875,49.626302833405724L477.5773567708333,54.123745735047365L478.71174479166666,58.096733638412196L479.84613281249995,68.3943220252724L480.98052083333334,54.926442727997404L482.1149088541667,63.38473627976937L483.24929687499997,58.25588096310586L484.3836848958333,46.76114138984594L485.5180729166667,44.883438872527336L486.6524609375,50.61570212493838L487.78684895833334,47.96531375352942L488.9212369791667,46.28855877768523L490.05562499999996,44.90432360626481L491.19001302083336,58.62364770235395L492.3244010416667,54.75920172104656L493.4587890625,51.633015942012634L494.59317708333333,56.45066792888274L495.72756510416673,52.65346111617751L496.861953125,56.724707857785745L497.99634114583336,60.70290125784723L499.13072916666664,56.38817834931573L500.2651171875,46.014119097216614L501.3995052083333,52.22313381943993L502.5338932291666,49.42549994241314L503.66828125,54.25586671774478L504.80266927083335,51.16653235582425L505.93705729166663,49.270526388708035L507.0714453125,47.80917057436574L508.2058333333334,39.095718948220124L509.34022135416666,32.19505401148391L510.474609375,26.422554628483432L511.60899739583334,29.03609811435694L512.7433854166667,31.72270145392862L513.8777734375,40.73179430879309L515.0121614583334,40.948098044690724L516.1465494791667,41.423614656048834L517.2809375,41.33048842487164L518.4153255208333,51.433670102893714L519.5497135416666,49.275983242145664L520.6841015625,39.99930943866692L521.8184895833334,39.85692290035978L522.9528776041667,39.58825341326468L524.087265625,39.770319486796694L525.2216536458333,39.76879444721527L526.3560416666667,39.62527948477416L527.4904296875001,47.93349943112174L528.6248177083334,53.028649286515176L529.7592057291666,63.323058268933835L530.89359375,59.00447184046851L532.0279817708333,54.98281316471698L533.1623697916666,63.50867534663356L534.2967578125,58.692909032393146L535.4311458333333,54.861704625359074L536.5655338541667,59.22462124067219L537.699921875,55.793258271834645L538.8343098958333,59.65899275129746L539.9686979166667,62.30991001626419L541.1030859375,57.91450616852893L542.2374739583333,68.44680981967018L543.3718619791666,70.09722691101362L544.50625,56.52835124288029L545.6406380208333,45.591689694913434L546.7750260416667,44.62249453750629L547.9094140625,36.187960486709095L549.0438020833333,43.636018657921916L550.1781901041667,49.378187983385075L551.3125781250001,47.207124037068176L552.4469661458334,45.26845761308755L553.5813541666666,43.82492291648935L554.7157421874999,42.439290807404085L555.8501302083333,41.38722927296796L556.9845182291667,33.29694091387304L558.11890625,42.049558097105965L559.2532942708333,41.5267235600008L560.3876822916667,40.90847525175834L561.5220703125,47.92696755136193L562.6564583333334,46.16522863169621L563.7908463541667,50.70918509245013L564.925234375,54.79461778577239L566.0596223958333,58.74499745381732L567.1940104166667,54.82941321573941L568.3283984375,58.67551288765499L569.4627864583333,61.18964426805044L570.5971744791667,63.08095473328801L571.7315625,66.51865073171906L572.8659505208334,61.37557999903087L574.0003385416667,49.43698593651557L575.1347265625,54.5157330541237L576.2691145833334,51.581968327555956L577.4035026041666,49.21535995943857L578.5378906249999,54.67330049755979L579.6722786458333,44.4326102409586L580.8066666666667,43.37948379086055L581.9410546875,49.53826129314582L583.0754427083333,54.19774019652426L584.2098307291666,59.15517153496601L585.34421875,55.47927705697265L586.4786067708334,53.01911528724068L587.6129947916667,43.36488903552404L588.7473828125,42.62978440499392L589.8817708333333,41.96832148024312L591.0161588541666,40.81352774388685L592.150546875,40.65400182793214L593.2849348958333,40.252745552616744L594.4193229166666,46.78160645084176L595.5537109375,45.19755210174398L596.6880989583334,43.93442122597115L597.8224869791667,43.102303998141444L598.956875,42.262894304012455L600.0912630208334,41.64594735035511L601.2256510416667,41.501461091750585L602.3600390625,47.25816462382769L603.4944270833333,45.440644116918975L604.6288151041666,57.91236578283372L605.763203125,54.0616950770828L606.8975911458334,50.56260630835001L608.0319791666667,47.9585614782087L609.1663671875,45.874786790650056L610.3007552083333,59.239427770329286L611.4351432291667,55.15042246274369L612.5695312500001,51.7538056215622L613.7039192708334,49.25395665112955L614.8383072916666,47.11026914043284L615.9726953125,45.325834397022355L617.1070833333333,51.58373249971424L618.2414713541666,48.93614303432746L619.375859375,46.495805665356706L620.5102473958333,44.75181164527156L621.6446354166667,50.864079450799835L622.7790234375,48.617194894817445L623.9134114583333,46.191386514558L625.0477994791667,44.54548198767788L626.1821875,50.38850960595047L627.3165755208333,40.40961621679965L628.4509635416666,39.84081651749696L629.5853515625,39.43599951348686L630.7197395833333,46.7940860996404L631.8541276041667,44.944852679710316L632.988515625,43.37765833547965L634.1229036458333,42.456588946114046L635.2572916666667,41.92323468202753L636.3916796875001,41.391467755591144L637.5260677083334,41.14132955038964L638.6604557291666,40.623769043957516L639.7948437499999,47.98354125140141L640.9292317708333,60.34650966229458L642.0636197916667,73.00563921278652L643.1980078125,74.9033102034405L644.3323958333333,68.50389666739106L645.4667838541667,63.04898084150157L646.601171875,58.99482660028456L647.7355598958334,55.0205503734995L648.8699479166667,51.653949605389435L650.0043359375,48.717653864355015L651.1387239583333,47.151619299674955L652.2731119791667,45.30864431033528L653.4075,43.711602887233084L654.5418880208333,42.74426494019826L655.6762760416667,41.53753143864945L656.8106640625,40.54728589310704L657.9450520833334,47.591284156278476L659.0794401041667,45.36953185942627L660.213828125,52.40803613715854L661.3482161458334,63.65737022442409L662.4826041666666,58.42302280332874L663.6169921874999,46.82365882193031L664.7513802083333,45.020080192208205L665.8857682291667,50.19796243867861L667.02015625,47.63917846967053L668.1545442708333,52.56545428188059L669.2889322916666,49.5616293963704L670.4233203125,47.48242970346713L671.5577083333334,52.20028075313015L672.6920963541667,49.75206257705248L673.826484375,54.62757754933325L674.9608723958333,51.40039751411664L676.0952604166666,48.320662215242315L677.2296484375,52.777100936642896L678.3640364583333,49.8085186005208L679.4984244791666,47.60748033909584L680.6328125,46.099823883601644L681.7672005208334,44.284725638253434L682.9015885416667,51.131385236758305L684.0359765625,48.66219459484291L685.1703645833333,46.457818627280126L686.3047526041667,37.3208470755594L687.439140625,29.863190149356598L688.5735286458333,31.848477294198403L689.7079166666667,25.53909549345707L690.8423046874999,28.27971398758998L691.9766927083333,30.176733153725554L693.1110807291667,31.9415979792793L694.24546875,33.495984672079004L695.3798567708334,34.39387186318204L696.5142447916668,42.61175307933138L697.6486328125,49.21879684975664L698.7830208333334,47.28125238204735L699.9174088541666,45.711406896787764L701.051796875,51.22878091039492L702.1861848958333,48.50873584002046L703.3205729166667,46.24697652093399L704.4549609374999,44.973284688884654L705.5893489583333,43.204291383818486L706.7237369791667,34.59998895139152L707.858125,27.758123624270382L708.9925130208334,29.893595782554375L710.1269010416665,24.886224173892522L711.2612890624999,28.825382738263592L712.3956770833333,37.99545184846812L713.5300651041666,46.1260416164088L714.664453125,52.03405313413042L715.7988411458334,56.82600897408084L716.9332291666666,53.82057431997106L718.0676171875,57.85316967377065L719.2020052083333,67.09363831876908L720.3363932291667,62.312932167364714L721.4707812500001,58.21948763554379L722.6051692708334,54.36817510370485L723.7395572916666,51.67694706284263L724.8739453124999,48.962853836085394L726.0083333333333,46.63632236025023L727.1427213541667,44.73217442720164L728.277109375,43.152985746137524L729.4114973958334,42.11979438660321L730.5458854166666,40.927635209701705L731.6802734375,47.70072524336353L732.8146614583334,46.156857230721926L733.9490494791667,59.807342474030655L735.0834375000001,55.7460740969715L736.2178255208335,44.626138829460785L737.3522135416666,43.502368908620696L738.4866015625,42.32219787017246L739.6209895833333,48.501888479040005L740.7553776041667,53.11101338994181L741.8897656250001,49.96960341113153L743.0241536458333,47.987907309034156L744.1585416666667,46.012237557330735L745.2929296875,59.36021470813671L746.4273177083334,62.43361451298968L747.5617057291666,57.18101199079336L748.69609375,53.35154220524455L749.8304817708332,56.62666717484017L750.9648697916666,60.49607916477855L752.0992578125,72.04978595958976L753.2336458333333,72.09814443895681L754.3680338541667,65.57886859122485L755.5024218750001,67.32373716373102L756.6368098958333,61.55136363235201L757.7711979166667,49.56343016757238L758.9055859375,47.23604365391469L760.0399739583333,52.379644595169474L761.1743619791667,50.14530023525835L762.30875,40.60794213931303L763.4431380208333,40.34703515625433L764.5775260416666,46.967586104841494L765.7119140625,52.47208174448928L766.8463020833334,49.93346787438167L767.9806901041667,47.600924334091964L769.115078125,54.0681775928839L770.2494661458333,65.27174245272508L771.3838541666667,60.33561959135081L772.5182421875,56.692656050583075L773.6526302083333,60.347186348645174L774.7870182291667,62.972868066953254L775.9214062499999,65.45611806704729L777.0557942708333,60.26601689906227L778.1901822916667,48.95693528915486L779.3245703125,47.69668711427878L780.4589583333334,53.46728540614472L781.5933463541668,57.933064134241974L782.727734375,65.84721388572201L783.8621223958334,53.24362890604134L784.9965104166666,50.226238492671634L786.1308984375,55.190333974475834L787.2652864583333,58.939390750340785L788.3996744791667,62.106305179923496L789.5340624999999,64.60234151484943L790.6684505208333,66.5371656185975L791.8028385416667,61.40687204413335L792.9372265625,64.4584877069213L794.0716145833334,59.52213579491123L795.2060026041665,55.81446730292115L796.3403906249999,45.52105727319939L797.4747786458333,44.46303305407383L798.6091666666666,55.25892776568739L799.7435546875,52.29730396080029L800.8779427083334,42.65894052972798L802.0123307291666,49.77430436826077L803.14671875,48.116526868632015L804.2811067708333,46.308289425763014L805.4154947916667,45.32187722491622L806.5498828125001,50.61184466018199L807.6842708333334,48.347975992631305L808.8186588541666,52.61944896783144L809.9530468749999,56.9751504091081L811.0874348958333,59.95183786675586L812.2218229166667,55.785362177254775L813.3562109375,52.28084104312419L814.4905989583334,49.32966369194162L815.6249869791666,46.94956193957622L816.759375,37.83160747292752L817.8937630208334,45.20036356419816L819.0281510416667,43.64814098716179L820.1625390625001,35.185291785958526L821.2969270833335,36.309284975499445L822.4313151041666,51.46399432561438L823.565703125,48.73038505348873L824.7000911458333,46.82285122643562L825.8344791666667,51.83923426127953L826.9688671875001,49.17421419760798L828.1032552083333,39.4552511840162L829.2376432291667,39.39622647643861L830.37203125,31.640985192185834L831.5064192708334,39.53896200221874L832.6408072916666,39.15871673998905L833.7751953125,38.83994689001781L834.9095833333332,45.76378891002456L836.0439713541666,51.34979193887168L837.178359375,55.987425388662416L838.3127473958333,52.45669612961484L839.4471354166667,49.50060768316165L840.5815234375001,39.72146165760339L841.7159114583333,45.771191764132055L842.8502994791667,44.1161020611571L843.9846875,49.915322749999866L845.1190755208333,47.92228651395458L846.2534635416667,38.43715558627061L847.3878515625,38.158009461234506L848.5222395833333,38.003853714363174L849.6566276041666,44.39609775217089L850.791015625,42.7862234458265L851.9254036458334,41.77922407221295L853.0597916666667,48.04322499395608L854.1941796875,53.0351862828032L855.3285677083333,56.96070824051664L856.4629557291667,53.332732965348285L857.59734375,50.16651909144567L858.7317317708333,54.5061389334349L859.8661197916667,51.22912963480532L861.0005078124999,48.594265413369996L862.1348958333333,53.19207496141296L863.2692838541667,50.79194447433871L864.403671875,48.73757525313631L865.5380598958334,55.599511511713146L866.6724479166668,53.2030380728959L867.8068359375,51.267972684472376L868.9412239583334,42.40028178546394L870.0756119791666,49.01654640971474L871.21,54.53193303790768L872.3443880208333,52.102723391589194L873.4787760416667,62.989023790785986L874.6131640624999,59.23207113935892L875.7475520833333,62.592298637663085L876.8819401041667,58.53575144420847L878.016328125,61.84070652493462L879.1507161458334,50.41647292016849L880.2851041666665,48.272996358544816L881.4194921874999,53.403496714012775L882.5538802083333,50.511123551986216L883.6882682291666,54.43217977624065L884.82265625,51.108888780760175L885.9570442708334,41.03591845646498L887.0914322916666,40.62927076192691L888.2258203125,40.03219719324111L889.3602083333333,39.617655464757256L890.4945963541667,39.25126461406454L891.6289843750001,31.54615938417036L892.7633723958334,33.12209953238106L893.8977604166666,40.496806505279054L895.0321484374999,40.05454007192954L896.1665364583333,48.37562380762496L897.3009244791667,46.32720791476253L898.4353125,44.932463948387145L899.5697005208334,43.781842276619486L900.7040885416666,42.71072844598025L901.8384765625,42.33727850161651L902.9728645833334,41.96261251229179L904.1072526041667,40.883291359727615L905.2416406250001,40.11369805716283L906.3760286458335,40.06873379947982L907.5104166666666,39.68698491098278L908.6448046875,39.86255283865767L909.7791927083333,39.99341573996092L910.9135807291667,47.62435743429459L912.0479687500001,46.02591152269203L913.1823567708333,51.205214572259244L914.3167447916667,48.43234562961933L915.4511328125,46.13237318236573L916.5855208333334,44.71124176819282L917.7199088541666,43.77041420109392L918.854296875,35.145502147653254L919.9886848958332,35.939635412834946L921.1230729166666,36.71338273822693L922.2574609375,36.9088687259311L923.3918489583333,36.988910452393995L924.5262369791667,37.22184101475744L925.6606250000001,44.013247688718394L926.7950130208333,49.95965221540751L927.9294010416667,48.398581009996875L929.0637890625,53.96227787867616L930.1981770833333,58.355602357669156L931.3325651041667,55.10839777969L932.466953125,52.43490066037717L933.6013411458333,57.3187164470843L934.7357291666666,46.66389156288238L935.8701171875,45.81038030963209L937.0045052083334,37.24790005096647L938.1388932291667,30.271612560342543L939.27328125,31.909763660741497L940.4076692708333,33.18633482894313L941.5420572916667,34.33145979532413L942.6764453125,45.913792307287885L943.8108333333333,51.485820339767514L944.9452213541667,48.844820182997665L946.0796093749999,39.315983546001654L947.2139973958333,39.154020644683044L948.3483854166667,39.26841558190855L949.4827734375,38.99931914689281L950.6171614583334,31.44857385398655L951.7515494791668,32.853894983305246L952.8859375,33.88804421184353L954.0203255208334,34.93472418020482L955.1547135416666,49.88389734037969L956.2891015625,47.64784063155059L957.4234895833333,53.6757602015702L958.5578776041667,50.678257134085364L959.6922656249999,55.28001370694278L960.8266536458333,58.840579658079456L961.9610416666667,54.34732088512444L963.0954296875,43.599472873479236L964.2298177083334,42.52748584323736L965.3642057291665,34.09859862594686L966.4985937499999,34.91043430414901L967.6329817708333,35.068803147054595L968.7673697916666,28.23677789249171L969.9017578125,37.53662534489756L971.0361458333334,53.33944106876472L972.1705338541666,57.22298814757361L973.304921875,53.46580379218813L974.4393098958333,42.92389236888052L975.5736979166667,41.759711290683455L976.7080859375001,47.85506279221067L977.8424739583334,46.229329356439L978.9768619791666,51.13584057306214L980.1112499999999,55.28989035650067L981.2456380208333,51.85857657149616L982.3800260416667,55.354010907770615L983.5144140625,58.834144504516445L984.6488020833334,61.87578022611075L985.7831901041666,57.303841830984204L986.917578125,66.97041746910057L988.0519661458334,68.44332997239145L989.1863541666667,62.820380207669814L990.3207421875001,64.74688500720029L991.4551302083335,59.169473709088685L992.5895182291666,54.98649366428227L993.72390625,59.078975248096555L994.8582942708333,54.72857807903144L995.9926822916667,51.598571804910115L997.1270703125001,48.807047910490965L998.2614583333333,46.985622216383106L999.3958463541667,45.370211382166175L1000.530234375,50.723051811421364L1001.6646223958334,48.22835040630059L1002.7990104166666,46.26147625908183L1003.9333984375,51.779732401410165L1005.0677864583332,48.99629940989771L1006.2021744791666,47.18677637865669L1007.3365625,52.44489866741914L1008.4709505208333,42.1106072084381L1009.6053385416667,41.31249332748039L1010.7397265625001,40.57578535081698L1011.8741145833333,32.59488171193403L1013.0085026041667,33.720237216420195L1014.142890625,34.62295495435968L1015.2772786458333,45.35210113084616L1016.4116666666667,44.00413496046306L1017.5460546875,35.33233164532213L1018.6804427083333,28.398094863877517L1019.8148307291666,29.896536102283655L1020.94921875,37.754450820913874L1022.0836067708334,51.861958310946605L1023.2179947916667,55.997577757155696L1024.3523828124999,58.76464587475126L1025.4867708333334,54.40707040870396L1026.6211588541667,51.52268838695056L1027.755546875,48.556706962357886L1028.8899348958334,58.294186335063735L1030.0243229166667,54.61079223669112L1031.1587109375,51.55519483341013L1032.2930989583333,48.93317889987018L1033.4274869791666,39.29289888110626L1034.561875,39.11816387213761L1035.6962630208334,38.7113318013946L1036.8306510416667,38.42687137602166L1037.9650390625,45.88295173643743L1039.0994270833332,44.73368357212318L1040.2338151041668,43.85227095437827L1041.368203125,35.25336352449879L1042.5025911458333,51.256886640725305L1043.6369791666668,48.55195410119518L1044.7713671875,53.135052668468305L1045.9057552083334,50.34274548229865L1047.0401432291667,47.716846233505336L1048.17453125,52.10113785258799L1049.3089192708335,49.52338486347095L1050.4433072916665,47.10778811640339L1051.5776953125,53.051572022968855L1052.7120833333333,49.92691267183178L1053.8464713541666,48.05009433627723L1054.9808593750001,56.2936643616406L1056.1152473958334,45.3483124816456L1057.2496354166667,44.08472761822049L1058.3840234375,35.57629563921539L1059.5184114583333,48.900456377298426L1060.6527994791668,47.31747755148469L1061.7871875,52.79993580705688L1062.9215755208334,49.752246696843876L1064.0559635416666,48.0434116381758L1065.1903515625,46.12187317294705L1066.3247395833332,44.46236111770331L1067.4591276041667,53.48299189098885L1068.593515625,57.05062152741914L1069.7279036458333,61.03683260503264L1070.8622916666666,56.76671654560448L1071.9966796874999,53.2094701717558L1073.1310677083334,50.80951064413888L1074.2654557291667,48.095017171113454L1075.39984375,53.300013157056846L1076.5342317708335,49.933056331258655L1077.6686197916665,47.362009446924226L1078.8030078125,51.97936990952912L1079.9373958333333,49.48296642856936L1081.0717838541666,39.76164868853202L1082.206171875,45.6880379653113L1083.3405598958332,44.62759707960577L1084.4749479166667,43.40293132299663L1085.6093359375,34.93705686854901L1086.7437239583332,35.708639833828485L1087.8781119791668,42.460640278419376L1089.0125,41.72796053485911L1090.1468880208333,33.5405615116107L1091.2812760416666,35.02597205932521L1092.4156640625,42.33941916001298L1093.5500520833334,34.11566036973364L1094.6844401041667,35.44169888141929L1095.818828125,44.39174768545768L1096.9532161458333,52.50808137590518L1098.0876041666666,49.54822011196484L1099.2219921875,47.69329437672188L1100.3563802083333,45.798833601149624L1101.4907682291666,51.03727689271984L1102.6251562500001,56.02487565998887L1103.7595442708332,62.083266820308815L1104.8939322916667,57.27665091657418L1106.0283203125,53.50005099220103L1107.1627083333333,57.24142858825542L1108.2970963541668,46.11896923440628L1109.4314843749999,37.19647264089534L1110.5658723958334,44.5228944772589L1111.7002604166667,50.06312423404916L1112.8346484375,47.79047479261446L1113.9690364583334,46.24400039505555L1115.1034244791667,44.67906569664949L1116.2378125,50.33073053634388L1117.3722005208333,48.27510145661211L1118.5065885416666,46.483623072282306L1119.6409765625,45.30513079832059L1120.7753645833334,44.12461708728526L1121.9097526041667,43.25576364282013L1123.044140625,49.04089234990468L1124.1785286458332,39.56374160975291L1125.3129166666668,39.54283301329674L1126.4473046875,31.92753560214095L1127.5816927083333,39.56535351935105L1128.7160807291668,39.207192021871236L1129.85046875,38.80668632496566L1130.9848567708334,38.79701127743058L1132.1192447916667,45.62675524437697L1133.2536328125,51.16788212874943L1134.3880208333335,54.941079656755235L1135.5224088541665,58.454591116965084L1136.656796875,61.11714617797553L1137.7911848958333,56.76260489836394L1138.9255729166666,60.20119401594049L1140.0599609375001,55.95686135466928L1141.1943489583334,52.55565272916189L1142.3287369791667,49.656134407908375L1143.463125,39.89765961415821L1144.5975130208333,46.389430733420504L1145.7319010416668,44.80487293426037L1146.8662890625,43.97419764855577L1148.0006770833334,49.727780026905286L1149.1350651041666,47.583384650796724L1150.269453125,53.30605852274103L1151.4038411458332,57.97753679774606L1152.5382291666667,54.482077925542235L1153.6726171875,51.14696264484666L1154.8070052083333,48.694201814485695L1155.9413932291666,47.00421787655606L1157.0757812499999,45.18410101251805L1158.2101692708334,50.1211510594447L1159.3445572916667,55.38727771248498L1160.4789453125,52.429380476364116L1161.6133333333335,49.73124427977295L1162.7477213541665,47.39355399595174L1163.882109375,45.38324343607011L1165.0164973958333,51.79582156821233L1166.1508854166666,49.00763864393347L1167.2852734375,46.8616851885741L1168.4196614583332,55.94045772930983L1169.5540494791667,52.43753739596208L1170.6884375,49.40008906619389L1171.8228255208332,47.47526683629862L1172.9572135416668,38.08046319799673L1174.0916015625,44.345753009772665L1175.2259895833333,43.369695712770174L1176.3603776041666,50.36035891600065L1177.494765625,40.41435415691226L1178.6291536458334,40.1699608340747L1179.7635416666667,39.59902237819726L1180.8979296875,39.284897316671234L1182.0323177083333,38.81331770990435L1183.1667057291666,31.084997432533086L1184.30109375,41.564646612408275L1185.4354817708333,33.50567361243767L1186.5698697916666,34.54094147402605L1187.7042578125001,51.35738918080775L1188.8386458333332,48.85238401615498L1189.9730338541667,46.59061902017495L1191.107421875,37.30396135635062L1192.2418098958333,37.68640396362051L1193.3761979166668,44.87252463726606L1194.5105859374999,43.793864178247524L1195.6449739583334,42.59485187752025L1196.7793619791667,41.90492720336105L1197.91375,41.04200771753298L1199.0481380208334,47.10237871380095L1200.1825260416667,37.68916469435919L1201.3169140625,30.16858910885277L1202.4513020833333,31.447113397016732L1203.5856901041666,40.9394536062039L1204.720078125,40.65575767866422L1205.8544661458334,49.45988648249029L1206.9888541666667,47.28489015701072L1208.1232421875,53.41376762996245L1209.2576302083332,50.36218216808734L1210.3920182291668,40.42819363842092L1211.52640625,39.73492208043476L1212.6607942708333,46.310543026286346L1213.7951822916668,37.09920587963496L1214.9295703125,37.41407171969918L1216.0639583333334,37.66485270885876L1217.1983463541667,45.6551603271822L1218.332734375,50.93100355166277L1219.4671223958335,40.77356413817869L1220.6015104166665,39.84562998180758L1221.7358984375,46.24390901982919L1222.8702864583333,52.058060318788954L1224.0046744791666,49.327568224717034L1225.1390625000001,46.997043138224925L1226.2734505208334,45.20646968514056L1227.4078385416667,50.76618471519409L1228.5422265625,48.45524450346841L1229.6766145833333,46.71749284017093L1230.8110026041668,44.85044186836885L1231.945390625,43.76138223589587L1233.0797786458334,49.29676591190595L1234.2141666666666,53.33099540927334L1235.3485546875,62.93553377452152L1236.4829427083332,58.95811715684462L1237.6173307291667,62.63711291950645L1238.75171875,51.22760073694944L1239.8861067708333,57.05178804296938L1241.0204947916666,68.57155496643934L1242.1548828124999,56.11792592912478L1243.2892708333334,60.01660386840153L1244.4236588541667,62.89997299289423L1245.558046875,59.013890854642504" style="fill: none;" fill="none"></path></g></g></g></g><g opacity="0.2"><g><g><g><path stroke="rgb(204, 51, 17)" stroke-width="2px" d="M123.64829427083333,396.84852996826174L124.78268229166666,370.53005350748697L125.9170703125,410.2712164306641L130.45462239583335,430.80790639241536L131.58901041666667,347.69582804361977L132.7233984375,390.4548624674479L134.99217447916666,383.95312347412107L136.1265625,315.381032816569L137.26095052083332,368.6551780192057L138.39533854166666,373.3098072306315L139.5297265625,318.97034479777017L140.66411458333334,322.3652968343099L141.79850260416669,329.3632903035482L142.932890625,318.6963118489583L144.06727864583334,369.41451639811197L145.20166666666668,376.36434173583984L146.3360546875,372.3419576009115L147.47044270833334,321.26600112915037L148.60483072916665,373.2785516357422L149.73921875,361.3644174194336L150.87360677083333,425.28157206217446L152.00799479166668,334.1824811808268L153.14238281250002,371.8972077433268L154.27677083333333,350.6675639851888L155.41115885416667,323.6371119181315L156.545546875,315.37347778320316L157.67993489583333,323.7401211547852L158.81432291666667,333.534972635905L159.94871093749998,346.98611511230473L161.08309895833332,327.1072116088867L162.21748697916667,334.6771249389648L163.351875,345.5927675374349L164.48626302083335,358.5919119262695L165.62065104166666,356.99638092041016L166.7550390625,348.1887076822917L167.88942708333335,325.8746673583984L169.02381510416666,361.469535929362L170.158203125,331.9511001586914L171.2925911458333,345.6351064046224L172.42697916666668,332.8621528116862L173.5613671875,341.9391227213542L174.69575520833334,303.38279612223306L175.83014322916668,358.3174762980143L176.96453125,373.063674214681L178.09891927083333,327.6694288126628L179.23330729166665,337.57706888834633L180.36769531250002,341.38610961914065L181.50208333333333,370.82945526123046L182.63647135416664,324.66379109700523L183.77085937500001,338.4384577433268L184.90524739583333,321.4757012430827L186.03963541666667,323.38917643229166L187.1740234375,283.9399944559733L188.30841145833332,329.46472717285155L189.44279947916667,355.8497799682617L190.5771875,352.998732808431L191.71157552083335,327.32922220865885L192.84596354166666,323.00659261067705L193.98035156249998,288.1530760701497L195.11473958333335,341.3217576090495L196.24912760416666,324.5477810668946L197.38351562499997,326.3514398193359L198.51790364583334,319.81564565022785L199.65229166666666,324.3148022460938L200.7866796875,316.61932963053385L201.92106770833334,328.11107228597007L203.05545572916668,296.774347076416L204.18984375,335.28950449625654L205.32423177083336,320.18969650268554L206.45861979166668,317.19539133707684L207.5930078125,320.02020680745443L208.7273958333333,345.9467802937825L209.86178385416667,308.97457544962566L210.996171875,326.1227945963542L212.13055989583333,326.8378382364909L213.26494791666667,322.7713127644857L214.3993359375,277.19379069010415L215.53372395833333,297.6907879638672L216.6681119791667,318.5022587076823L217.8025,312.7186889139811L218.93688802083332,317.3875653076172L220.07127604166664,301.47954132080076L221.2056640625,308.1683920288086L222.34005208333332,316.3734267171224L223.47444010416666,252.10179911295575L224.608828125,290.93100814819337L225.74321614583334,327.41420674641927L226.87760416666666,313.97959330240883L228.01199218750003,350.80455169677737L229.14638020833334,326.26645528157553L230.28076822916665,327.43449412027996L231.41515625000002,291.8541987101237L232.54954427083334,342.22732615152995L233.68393229166665,272.18325037638346L234.8183203125,335.5032314046224L235.95270833333333,278.68082834879556L237.08709635416668,311.08110666910807L238.221484375,316.586885172526L239.35587239583333,333.5416072591146L240.49026041666667,325.4259290568034L241.62464843749999,285.02511967976886L242.75903645833336,321.04326187133785L243.89342447916667,301.83131057739257L245.02781249999998,312.97151407877607L246.16220052083335,317.6798914082845L247.29658854166667,274.2484206644694L248.4309765625,326.6578597005208L249.56536458333332,333.049878133138L250.69975260416666,326.39090240478515L251.834140625,315.13977030436195L252.96852864583332,270.58898493448896L254.1029166666667,279.1727684020996L255.2373046875,316.99637181599934L256.37169270833334,322.24713918050134L257.5060807291667,288.57514165242515L258.64046875,306.126788075765L259.7748567708333,322.3320086669922L260.9092447916667,275.4637455749512L262.0436328125,295.68868494669596L263.17802083333333,300.8206043497721L264.3124088541667,318.98307713826495L265.446796875,287.7881334431966L266.5811848958333,326.6259521484375L267.71557291666664,281.40512736002603L268.8499609375,236.86918360392252L269.9843489583333,224.77681579589841L271.11873697916667,241.54613276163735L272.253125,290.85687678019207L273.38751302083335,267.79647969563797L274.52190104166664,39.185587533315015L275.65628906250004,314.43621261596684L276.7906770833333,238.83682876586914L277.92506510416666,1.5016487205028684L279.059453125,321.45008316040037L280.19384114583335,312.6525152587891L281.3282291666667,39.46732652028401L282.4626171875,322.89273020426435L283.59700520833337,150.52125953674317L284.73139322916666,39.69720854441326L285.86578125,37.90641875584921L287.00016927083334,78.01624190012615L288.1345572916667,284.07029001871746L289.26894531249997,111.16256538391112L290.40333333333336,39.989769541422525L291.53772135416665,36.816415837605774L292.672109375,317.4777079772949L293.80649739583333,114.6976594543457L294.9408854166667,237.95881500244138L296.0752734375,76.71133519490562L297.2096614583333,39.58413232167561L298.3440494791667,157.60440053304035L299.4784375,37.49329121907551L300.6128255208333,39.92294153213503L301.74721354166667,282.4796870422363L302.8816015625,38.10673020680746L304.01598958333335,149.50745651245117L305.15037760416664,39.80628194173177L306.28476562500003,322.62477579752607L307.4191536458333,77.57174132029213L308.55354166666666,38.76944469451904L309.6879296875,313.7726544189453L310.82231770833334,38.52279155095418L311.95670572916663,39.31252743403116L313.09109375,282.8699792989095L314.2254817708333,40.15819740931192L315.35986979166665,110.98335385640463L316.4942578125,1.3003440535068362L317.62864583333334,39.866015122731525L318.7630338541667,38.07343964258829L319.89742187499996,320.0273016357422L321.03180989583336,76.10217227935789L322.16619791666665,319.3749034118652L323.3005859375,77.77275506337483L324.43497395833333,37.488974399566665L325.5693619791667,280.1589878845215L326.70375,1.0455615939696608L327.83813802083336,37.25547065734862L328.9725260416667,79.23774122873941L330.1069140625,153.72346234639488L331.2413020833333,1.1270695759852654L332.37569010416667,73.89944861094155L333.510078125,38.542273565928134L334.6444661458333,111.16498146057131L335.7788541666667,76.09058565775555L336.9132421875,37.26047059377035L338.0476302083333,38.73114220937093L339.18201822916666,118.81204625447592L340.31640625,2.033905555009845L341.45079427083334,40.60771949768068L342.5851822916666,39.59609285990398L343.7195703125,77.95786296844484L344.85395833333337,116.48787638346352L345.98834635416665,74.85835779825847L347.122734375,0.9259514927863991L348.2571223958334,40.308567021687836L349.3915104166667,37.16173023859662L350.5258984375,37.87292445500691L351.66028645833336,40.841906356811535L352.79467447916664,108.49122830708822L353.9290625,39.611059112548816L355.06345052083327,39.0243791325887L356.19783854166667,38.032459818522135L357.3322265625,40.1795514043172L358.4666145833333,39.938703556060794L359.60100260416664,77.13536623636881L360.73539062500004,79.99313910166423L361.8697786458333,42.05840095520021L363.00416666666666,79.03285888671876L364.1385546875,0.9314629429578597L365.2729427083333,37.603083686828626L366.4073307291667,38.12228370030722L367.54171875000003,0.1680464234948108L368.6761067708333,36.50480426788328L369.81049479166666,38.27161785125732L370.94488281250005,37.63980182011921L372.07927083333334,111.94244041442869L373.2136588541667,37.98496521631878L374.348046875,37.28570996602375L375.4824348958333,111.08035166422526L376.61682291666665,38.485553290049225L377.75121093750005,38.99855971018472L378.88559895833333,1.2435049811999144L380.0199869791667,38.595293025970456L381.154375,0.6236303879817254L382.2887630208333,39.376850681304944L383.4231510416667,38.66742058436078L384.5575390625,39.87901591618857L385.6919270833333,40.561253166198746L386.82631510416667,76.5023397699992L387.96070312499995,39.190664170583084L389.09509114583335,38.597117067972825L390.2294791666667,38.525665435791L391.3638671875,35.94139340718589L392.4982552083333,37.293761157989486L393.63264322916666,37.470113182067855L394.76703124999995,37.66335137685139L395.90141927083334,35.746024367014556L397.0358072916667,73.39954125722248L398.17019531249997,82.11267590840659L399.3045833333333,36.77393555323282L400.4389713541667,114.01835840861004L401.573359375,1.428411396741857L402.70774739583334,37.28583700180055L403.8421354166667,37.849293403625474L404.97652343749996,38.263142407735174L406.11091145833336,36.876992727915436L407.2452994791667,38.57968440373738L408.3796875,70.69991115570069L409.51407552083333,71.41719829559328L410.64846354166673,0.29466596335173323L411.7828515625,0.18445594787598996L412.91723958333336,0.23037155379849594L414.05162760416664,39.72135013580321L415.186015625,37.479890143076574L416.3204036458333,37.99235246658325L417.4547916666666,0.40141968439020914L418.5891796875,40.247843920389826L419.72356770833335,37.42181801478067L420.85795572916663,73.37394714355469L421.99234375,36.27357758204143L423.1267317708334,37.665055573781316L424.26111979166666,39.25729563395181L425.3955078125,38.21387170155844L426.52989583333334,37.52444614410398L427.6642838541666,107.9418776702881L428.798671875,37.0323694674174L429.93305989583337,0.6137472142775714L431.06744791666665,36.83010454177855L432.2018359375,37.714743340810145L433.3362239583334,73.1018221282959L434.4706119791667,38.1967002995809L435.605,36.95020128885904L436.73938802083336,39.850423278808584L437.87377604166664,77.97016866048176L439.0081640625,35.92442813873289L440.14255208333327,37.683991095225025L441.27694010416667,36.84393466313679L442.411328125,107.60978218078613L443.5457161458333,40.36612621307371L444.68010416666664,36.78179738998413L445.81449218750004,38.93954080581664L446.9488802083333,37.04288227717082L448.08326822916666,118.91869878133139L449.21765625,37.1184589767456L450.3520442708333,38.79088737487793L451.4864322916667,38.34532496770224L452.62082031250003,38.76443517049153L453.7552083333333,0.6558501364787314L454.88959635416666,39.13509201049804L456.02398437500005,39.08065358479818L457.15837239583334,75.71162595113118L458.2927604166667,105.9708289082845L459.4271484375,38.81524468739829L460.5615364583333,39.60465459187824L461.69592447916665,112.93122937520347L462.83031250000005,0.19044784570734097L463.96470052083333,37.63962924321492L465.0990885416667,78.39640005747478L466.2334765625,37.47433891932171L467.3678645833333,0.5860262999931943L468.5022526041667,38.99047735850016L469.636640625,105.6454926808675L470.7710286458333,0.44996244410674335L471.90541666666667,113.13970227559408L473.03980468749995,75.2078787612915L474.17419270833335,38.80137621561687L475.3085807291667,37.28320760091146L476.44296875,38.35260915120444L477.5773567708333,72.11351734161379L478.71174479166666,73.98868525187176L479.84613281249995,109.58467557271324L480.98052083333334,1.0549255388975025L482.1149088541667,97.21791048685712L483.24929687499997,37.740459696451815L484.3836848958333,0.7821830968061971L485.5180729166667,37.37262880325319L486.6524609375,73.5447551345825L487.78684895833334,37.36376026789347L488.9212369791667,39.581538874308286L490.05562499999996,39.36738292058309L491.19001302083336,113.50094408671063L492.3244010416667,39.30141779581704L493.4587890625,39.12827282587687L494.59317708333333,75.72127587636311L495.72756510416673,37.46463386535643L496.861953125,73.00969482421876L497.99634114583336,76.61567485809324L499.13072916666664,39.129286715189636L500.2651171875,4.517882088820153L501.3995052083333,77.05919270833331L502.5338932291666,38.23496443430582L503.66828125,73.57733381907146L504.80266927083335,38.80919490814211L505.93705729166663,41.68650252024332L507.0714453125,41.963747316996255L508.2058333333334,4.241912443637851L509.34022135416666,4.592394264539102L510.474609375,3.3325570964813047L511.60899739583334,39.49027205785117L512.7433854166667,42.46911481221519L513.8777734375,76.76816572825115L515.0121614583334,41.81331298828125L516.1465494791667,43.32568110148113L517.2809375,40.95798350016275L518.4153255208333,91.8463968149821L519.5497135416666,40.64523579915367L520.6841015625,2.89261422475178L521.8184895833334,39.28737674713137L522.9528776041667,38.513575464884454L524.087265625,40.49858378092446L525.2216536458333,39.762694288889584L526.3560416666667,39.05121963500975L527.4904296875001,81.16637921651206L528.6248177083334,73.40924870808918L529.7592057291666,104.50069419860839L530.89359375,41.73012612660727L532.0279817708333,38.89617846171059L533.1623697916666,97.61212407430013L534.2967578125,39.42984377543132L535.4311458333333,39.536886997222915L536.5655338541667,76.67628770192462L537.699921875,42.06780639648436L538.8343098958333,75.12193066914875L539.9686979166667,72.91357907613117L541.1030859375,40.3328907775879L542.2374739583333,110.57602442423503L543.3718619791666,76.69889527638752L544.50625,2.252848570346812L545.6406380208333,1.845043503046024L546.7750260416667,40.74571390787762L547.9094140625,2.4498242835203947L549.0438020833333,73.42825134277345L550.1781901041667,72.34686528523763L551.3125781250001,38.52286825180055L552.4469661458334,37.513791917165115L553.5813541666666,38.05078413009644L554.7157421874999,36.89676237106323L555.8501302083333,37.178983135223376L556.9845182291667,0.9357874774932928L558.11890625,77.06002683003744L559.2532942708333,39.435385411580405L560.3876822916667,38.43548201878867L561.5220703125,76.00093674977622L562.6564583333334,39.11827295303343L563.7908463541667,68.88501093546547L564.925234375,71.13634855906169L566.0596223958333,74.54651612599692L567.1940104166667,39.16707626342772L568.3283984375,74.0599115753174L569.4627864583333,71.24616978963218L570.5971744791667,70.64619659423828L571.7315625,80.26943472544352L572.8659505208334,40.803297068277985L574.0003385416667,1.6826096864541267L575.1347265625,74.83072152455648L576.2691145833334,39.84690942128499L577.4035026041666,39.74892648696901L578.5378906249999,76.50506265004475L579.6722786458333,3.4698492145538515L580.8066666666667,39.16697799046833L581.9410546875,74.17337130228677L583.0754427083333,72.83565581003826L584.2098307291666,78.9848968887329L585.34421875,40.77569914499917L586.4786067708334,43.178468208312985L587.6129947916667,4.747984028657277L588.7473828125,39.68936588287354L589.8817708333333,39.32246978123981L591.0161588541666,36.1943527984619L592.150546875,40.015898164113366L593.2849348958333,38.647720451355L594.4193229166666,72.89705004374187L595.5537109375,38.86133470535277L596.6880989583334,38.88189772288004L597.8224869791667,39.773835086822494L598.956875,38.90525552749633L600.0912630208334,39.1781595357259L601.2256510416667,40.92351605733238L602.3600390625,70.28497875213621L603.4944270833333,38.170562089284246L604.6288151041666,107.79925244649252L605.763203125,38.65901225407919L606.8975911458334,36.56625123341879L608.0319791666667,37.54238215764364L609.1663671875,37.53968804041546L610.3007552083333,112.6979916890462L611.4351432291667,38.794401232401526L612.5695312500001,38.16733825683592L613.7039192708334,39.25456076939899L614.8383072916666,38.53551909764609L615.9726953125,38.18809542338054L617.1070833333333,76.61532491048177L618.2414713541666,38.345785172780374L619.375859375,36.73445618947346L620.5102473958333,37.775835564931214L621.6446354166667,75.3131506729126L622.7790234375,39.62965667088826L623.9134114583333,36.48815299352012L625.0477994791667,37.96186388015745L626.1821875,73.76062007904052L627.3165755208333,0.4940426601966066L628.4509635416666,37.56561772028606L629.5853515625,37.81673149744669L630.7197395833333,76.22643244425457L631.8541276041667,37.54791899998983L632.988515625,37.10888095855712L634.1229036458333,38.772311388651545L635.2572916666667,39.78981762568156L636.3916796875001,39.26440004984537L637.5260677083334,40.140776729583756L638.6604557291666,38.553527018229175L639.7948437499999,77.42263008117676L640.9292317708333,109.7983833058675L642.0636197916667,123.64215741475422L643.1980078125,82.49399416605632L644.3323958333333,42.90624252319334L645.4667838541667,41.22931753794353L646.601171875,42.77820963541669L647.7355598958334,39.12344546635946L648.8699479166667,38.187546532948794L650.0043359375,36.9724709002177L651.1387239583333,40.887481040954604L652.2731119791667,37.93674435297649L653.4075,37.323437194824216L654.5418880208333,38.87491315205892L655.6762760416667,36.71059743245443L656.8106640625,36.5863037109375L657.9450520833334,75.767277208964L659.0794401041667,36.48252267201742L660.213828125,80.56205324808757L661.3482161458334,108.65470657348635L662.4826041666666,37.485633118947355L663.6169921874999,0.42620289633670494L664.7513802083333,37.80576567331949L665.8857682291667,70.90949142456053L667.02015625,37.40404259363811L668.1545442708333,72.27055753072102L669.2889322916666,37.54632985432942L670.4233203125,39.16563093185427L671.5577083333334,71.07168495178225L672.6920963541667,39.959189872741696L673.826484375,74.12963743845624L674.9608723958333,38.49167737325031L676.0952604166666,36.00172101974489L677.2296484375,70.60285582224529L678.3640364583333,37.93418925603231L679.4984244791666,38.80332729339599L680.6328125,40.06919806162518L681.7672005208334,37.02433265686033L682.9015885416667,78.518023630778L684.0359765625,38.78543202718099L685.1703645833333,37.64031475702923L686.3047526041667,0.7729608686765013L687.439140625,0.032562444545311875L688.5735286458333,39.78962587356567L689.7079166666667,0.3015682904918916L690.8423046874999,39.242187964121484L691.9766927083333,37.764809818267814L693.1110807291667,39.00105728149412L694.24546875,39.713531443278015L695.3798567708334,37.98542062759398L696.5142447916668,75.48327794392904L697.6486328125,75.64697193145751L698.7830208333334,39.53107451121011L699.9174088541666,39.43202495574951L701.051796875,73.2982769648234L702.1861848958333,37.628555558522564L703.3205729166667,37.19993924458823L704.4549609374999,39.87851736068725L705.5893489583333,36.12831816355388L706.7237369791667,0.1827792216837607L707.858125,0.3906623157858815L708.9925130208334,38.43548441569009L710.1269010416665,4.856737739245084L711.2612890624999,44.582016995747864L712.3956770833333,74.67572828928627L713.5300651041666,78.64840068817136L714.664453125,75.66609920501708L715.7988411458334,75.99383233388266L716.9332291666666,41.79883570353192L718.0676171875,73.98355108896891L719.2020052083333,104.05551289876303L720.3363932291667,43.19010756174721L721.4707812500001,41.84570950826009L722.6051692708334,38.96292497634888L723.7395572916666,40.91203489939373L724.8739453124999,38.10648092905681L726.0083333333333,37.33019645690919L727.1427213541667,37.11558269500732L728.277109375,36.83623102188111L729.4114973958334,37.98702894846599L730.5458854166666,36.15899850209556L731.6802734375,74.79308537801104L732.8146614583334,39.981385180155456L733.9490494791667,114.40928344726564L735.0834375000001,39.50100058873495L736.2178255208335,0.14639775941769673L737.3522135416666,39.007289225260415L738.4866015625,37.601513716379806L739.6209895833333,73.2206509145101L740.7553776041667,71.54751303354898L741.8897656250001,37.403963495890316L743.0241536458333,40.061122900644925L744.1585416666667,38.109558550516745L745.2929296875,112.75212331136068L746.4273177083334,74.72721373240154L747.5617057291666,36.170601902008066L748.69609375,38.033663063049325L749.8304817708332,69.72716705322264L750.9648697916666,75.97372712453206L752.0992578125,118.26461313883462L753.2336458333333,72.29157835642496L754.3680338541667,39.50176520029706L755.5024218750001,74.30321145375571L756.6368098958333,38.461869506835946L757.7711979166667,1.6116963084538822L758.9055859375,37.92649759928386L760.0399739583333,72.9540483601888L761.1743619791667,41.2079227956136L762.30875,2.4585097555319506L763.4431380208333,39.30340722401939L764.5775260416666,73.44978989919026L765.7119140625,74.49006430308026L766.8463020833334,39.779012393951405L767.9806901041667,38.270750172932935L769.115078125,79.93719062805178L770.2494661458333,110.08600189208985L771.3838541666667,40.59112814585367L772.5182421875,42.1208018875122L773.6526302083333,74.96530754089356L774.7870182291667,73.47559494018553L775.9214062499999,75.38911806742351L777.0557942708333,39.50561222712199L778.1901822916667,3.720608849525455L779.3245703125,42.655694414774594L780.4589583333334,76.5496785736084L781.5933463541668,75.79617904663085L782.727734375,97.50381289164226L783.8621223958334,2.8292889873186553L784.9965104166666,38.15667683919269L786.1308984375,75.0467159016927L787.2652864583333,73.93561785380047L788.3996744791667,74.77396289825438L789.5340624999999,74.58648685455323L790.6684505208333,74.27646203358968L791.8028385416667,40.88569774627684L792.9372265625,76.6649503580729L794.0716145833334,39.776728146870944L795.2060026041665,40.98379333496095L796.3403906249999,4.34741715431214L797.4747786458333,40.23093617757161L798.6091666666666,98.44250661214191L799.7435546875,40.450808741251606L800.8779427083334,4.105486805439016L802.0123307291666,78.23575972239175L803.14671875,41.485416870117184L804.2811067708333,39.075339654286694L805.4154947916667,41.37622842152912L806.5498828125001,71.7717144012451L807.6842708333334,39.29250132242839L808.8186588541666,69.70534086863199L809.9530468749999,74.39795617421466L811.0874348958333,71.858587697347L812.2218229166667,39.1194594192505L813.3562109375,38.26275650660198L814.4905989583334,37.52495428721108L815.6249869791666,37.429154930114755L816.759375,1.3597896063327939L817.8937630208334,74.67538792928059L819.0281510416667,37.439250679016105L820.1625390625001,1.3338949811458454L821.2969270833335,40.80525773366293L822.4313151041666,112.08283172607423L823.565703125,37.79594796498617L824.7000911458333,39.19271591822306L825.8344791666667,71.90476640065509L826.9688671875001,38.51413394292197L828.1032552083333,0.5793991296489961L829.2376432291667,39.16012764612832L830.37203125,0.6200200551748343L831.5064192708334,71.13086924235026L832.6408072916666,37.637735691070574L833.7751953125,37.56486749013266L834.9095833333332,73.45915699005127L836.0439713541666,73.69380405426026L837.178359375,74.5379591878255L838.3127473958333,38.33377909342447L839.4471354166667,37.67625389734904L840.5815234375001,0.6048775553703141L841.7159114583333,69.9701121902466L842.8502994791667,37.495743249257416L843.9846875,73.1122055053711L845.1190755208333,39.950141569773365L846.2534635416667,0.4966318755348702L847.3878515625,37.04142496109008L848.5222395833333,37.38723072687785L849.6566276041666,69.96507390340167L850.791015625,36.346726220448794L851.9254036458334,37.75122657775877L853.0597916666667,73.09922868092853L854.1941796875,73.00303143819174L855.3285677083333,72.66279607137042L856.4629557291667,38.82083186467487L857.59734375,37.50166359583538L858.7317317708333,71.8646183013916L859.8661197916667,38.12109244028728L861.0005078124999,38.054808527628595L862.1348958333333,71.5833131535848L863.2692838541667,41.19142252604166L864.403671875,40.520098368326835L865.5380598958334,83.04725654602052L866.6724479166668,43.617144317626945L867.8068359375,43.52771113077797L868.9412239583334,6.929518189430252L870.0756119791666,75.48160490671793L871.21,76.59347955067952L872.3443880208333,42.3858848063151L873.4787760416667,106.53422538757323L874.6131640624999,44.20426053365072L875.7475520833333,76.03320863087974L876.8819401041667,42.309562670389795L878.016328125,75.06052684783936L879.1507161458334,4.7195385011037L880.2851041666665,39.699090112050364L881.4194921874999,73.9254981358846L882.5538802083333,38.9416309038798L883.6882682291666,70.11640467325847L884.82265625,37.81572479883832L885.9570442708334,0.7440371592839503L887.0914322916666,39.00267998377483L888.2258203125,37.64390291849773L889.3602083333333,37.95948855082195L890.4945963541667,37.78570121129354L891.6289843750001,0.7257384645938924L892.7633723958334,39.425860125223814L893.8977604166666,69.99563439687091L895.0321484374999,38.2854743385315L896.1665364583333,81.65995875040691L897.3009244791667,38.13354434331258L898.4353125,39.35348808288576L899.5697005208334,39.17935558954873L900.7040885416666,38.42627312342325L901.8384765625,40.84347872416178L902.9728645833334,40.46394855499269L904.1072526041667,36.566006749471015L905.2416406250001,37.03532484690348L906.3760286458335,39.88887676874797L907.5104166666666,38.15998935699463L908.6448046875,40.56482454935708L909.7791927083333,40.516867345174155L910.9135807291667,78.14812421162924L912.0479687500001,39.63212787628176L913.1823567708333,71.92242677052815L914.3167447916667,37.34086985905966L915.4511328125,36.932483393351255L916.5855208333334,39.02671611150105L917.7199088541666,40.007103932698584L918.854296875,0.6458539338906584L919.9886848958332,39.116168473561615L921.1230729166666,39.808372039794925L922.2574609375,37.690812676747626L923.3918489583333,37.309077358245865L924.5262369791667,38.15356326421103L925.6606250000001,71.17887438456218L926.7950130208333,73.74527032216389L927.9294010416667,42.1542961883545L929.0637890625,76.21706535339356L930.1981770833333,75.92890027364098L931.3325651041667,42.11957946777342L932.466953125,41.74091218312582L933.6013411458333,76.85397959391275L934.7357291666666,4.044592026074742L935.8701171875,42.396335296630845L937.0045052083334,2.997979016304011L938.1388932291667,2.3664625978469864L939.27328125,38.46236806233722L940.4076692708333,38.29261950174967L941.5420572916667,38.911959660848L942.6764453125,92.24312235514321L943.8108333333333,73.77393246968589L944.9452213541667,38.280819555918384L946.0796093749999,1.200636998017635L947.2139973958333,38.506169039408384L948.3483854166667,39.725995330810555L949.4827734375,37.92293340682985L950.6171614583334,1.245592682361608L951.7515494791668,38.47517950057985L952.8859375,38.024641125996894L954.0203255208334,39.12144405364992L955.1547135416666,109.68058998107911L956.2891015625,38.70361379623414L957.4234895833333,77.78743848164875L958.5578776041667,38.68824486414591L959.6922656249999,73.6870399983724L960.8266536458333,73.08284346262616L961.9610416666667,36.37428579330446L963.0954296875,0.608080826898422L964.2298177083334,38.23953772226968L965.3642057291665,0.38304975678522823L966.4985937499999,38.1577770169576L967.6329817708333,35.70227851867674L968.7673697916666,0.9086768742402188L969.9017578125,74.73601515452067L971.0361458333334,116.55070396423339L972.1705338541666,72.75717646280924L973.304921875,38.43706637064616L974.4393098958333,0.7562466756502944L975.5736979166667,37.1029869778951L976.7080859375001,72.23646879831949L977.8424739583334,39.726395613352445L978.9768619791666,70.76188543955485L980.1112499999999,71.90608949025473L981.2456380208333,38.13332143147786L982.3800260416667,69.33574825286867L983.5144140625,72.75467889149984L984.6488020833334,74.0423231124878L985.7831901041666,39.01608825047812L986.917578125,105.63672002156574L988.0519661458334,74.33497998555502L989.1863541666667,40.328581148783364L990.3207421875001,72.45290420532226L991.4551302083335,36.859828516642246L992.5895182291666,38.25457348505657L993.72390625,75.44890158335369L994.8582942708333,37.32698940277099L995.9926822916667,39.07854670842489L997.1270703125001,37.64095233281454L998.2614583333333,39.69991943995156L999.3958463541667,38.90856804529827L1000.530234375,72.1344135284424L1001.6646223958334,38.24954478581746L1002.7990104166666,38.39397967020671L1003.9333984375,73.85275697072348L1005.0677864583332,37.86256744384766L1006.2021744791666,39.94868425369263L1007.3365625,73.47738782246907L1008.4709505208333,0.7734413725137577L1009.6053385416667,38.12003780364991L1010.7397265625001,37.62895344416299L1011.8741145833333,0.6712671564022856L1013.0085026041667,38.22165923436481L1014.142890625,38.233825906117765L1015.2772786458333,88.268685836792L1016.4116666666667,38.61227027893065L1017.5460546875,0.6451183847586487L1018.6804427083333,0.6611477380990999L1019.8148307291666,35.89030105590822L1020.94921875,69.18610969543455L1022.0836067708334,108.29198827107747L1023.2179947916667,72.54005554199219L1024.3523828124999,69.83291834513348L1025.4867708333334,36.976768544514954L1026.6211588541667,39.98516029993695L1027.755546875,36.69278126398722L1028.8899348958334,97.24410382588704L1030.0243229166667,39.87721584320068L1031.1587109375,39.33280522028605L1032.2930989583333,38.44511516571046L1033.4274869791666,0.731778806050623L1034.561875,38.419223836263L1035.6962630208334,37.08400351842243L1036.8306510416667,37.28902967453004L1037.9650390625,75.70727317810058L1039.0994270833332,40.13661091486615L1040.2338151041668,40.32662048339842L1041.368203125,0.857733804980911L1042.5025911458333,115.27097910563153L1043.6369791666668,37.73222394307455L1044.7713671875,71.46744693756102L1045.9057552083334,39.17351673762002L1047.0401432291667,37.21324923833213L1048.17453125,69.63830432891848L1049.3089192708335,39.21237290700276L1050.4433072916665,37.44540112813314L1051.5776953125,76.82670764923097L1052.7120833333333,37.428275267283134L1053.8464713541666,40.54282099405924L1054.9808593750001,89.26794446309407L1056.1152473958334,1.5669049616654591L1057.2496354166667,39.030388164520275L1058.3840234375,1.5425677231947588L1059.5184114583333,102.19709932963055L1060.6527994791668,40.98556224822997L1061.7871875,74.72976882934572L1062.9215755208334,37.561490255991636L1064.0559635416666,41.2080714035034L1065.1903515625,38.43571931203205L1066.3247395833332,37.82431289672851L1067.4591276041667,89.56551498413084L1068.593515625,71.32114007314048L1069.7279036458333,76.98167691548664L1070.8622916666666,39.686252307891834L1071.9966796874999,38.98048467636107L1073.1310677083334,41.20967253367106L1074.2654557291667,37.23704327901204L1075.39984375,74.11999710083009L1076.5342317708335,36.46522902806601L1077.6686197916665,37.0778219095866L1078.8030078125,70.44881175994873L1079.9373958333333,39.49735250473021L1081.0717838541666,0.8763777283827319L1082.206171875,69.39359507242838L1083.3405598958332,40.38583353678385L1084.4749479166667,38.504268296559644L1085.6093359375,1.0735590507586656L1086.7437239583332,38.794971694946284L1087.8781119791668,69.46864205678303L1089.0125,38.79724156061809L1090.1468880208333,0.7909654186169212L1091.2812760416666,40.96761425018312L1092.4156640625,71.59320756276449L1093.5500520833334,1.22062520861627L1094.6844401041667,40.74585292816162L1095.818828125,80.19194290161133L1096.9532161458333,84.97341613769532L1098.0876041666666,37.70877505620322L1099.2219921875,40.273591435750326L1100.3563802083333,38.220990498860665L1101.4907682291666,71.99105005900064L1102.6251562500001,75.97527072906493L1103.7595442708332,86.31683146158855L1104.8939322916667,38.05018730163573L1106.0283203125,38.39365129470826L1107.1627083333333,72.20693897247314L1108.2970963541668,1.629131819009801L1109.4314843749999,1.5064862668514252L1110.5658723958334,73.82858182271323L1111.7002604166667,72.22404326121013L1112.8346484375,38.699877026875825L1113.9690364583334,40.05810280481976L1115.1034244791667,38.419326903025315L1116.2378125,72.93738989512126L1117.3722005208333,40.052585137685156L1118.5065885416666,39.31770953496296L1119.6409765625,40.59116170247397L1120.7753645833334,39.40256224314372L1121.9097526041667,39.780349864959696L1123.044140625,72.181407178243L1124.1785286458332,1.6551386491457443L1125.3129166666668,39.459198627471906L1126.4473046875,1.4663459575176172L1127.5816927083333,70.11662518819172L1128.7160807291668,37.774546031951886L1129.85046875,37.204663537343365L1130.9848567708334,38.758311087290444L1132.1192447916667,72.94573111216229L1133.2536328125,73.33238966623942L1134.3880208333335,70.03386976877847L1135.5224088541665,72.50863695780436L1136.656796875,71.76736642201743L1137.7911848958333,39.344439779917394L1138.9255729166666,73.95555048624674L1140.0599609375001,38.97953070958455L1141.1943489583334,38.95081822713216L1142.3287369791667,38.05806112289429L1143.463125,0.863760439157496L1144.5975130208333,72.35651521046954L1145.7319010416668,38.46664173762004L1146.8662890625,40.65149650573732L1148.0006770833334,72.74210954030356L1149.1350651041666,39.00580314636231L1150.269453125,76.19675401051842L1151.4038411458332,76.6634498977661L1152.5382291666667,40.50024243672689L1153.6726171875,37.80650152206419L1154.8070052083333,38.883158493042004L1155.9413932291666,40.244282124837234L1157.0757812499999,37.90363355636596L1158.2101692708334,69.86935124715168L1159.3445572916667,76.45178432464598L1160.4789453125,40.59779153188069L1161.6133333333335,38.93869949340821L1162.7477213541665,38.04279286066691L1163.882109375,37.342001196543364L1165.0164973958333,77.4461340967814L1166.1508854166666,37.85490694681805L1167.2852734375,38.277871367136626L1168.4196614583332,92.25554789225261L1169.5540494791667,38.42585606257123L1170.6884375,37.250295747121164L1171.8228255208332,39.775977916717544L1172.9572135416668,0.5012486447890795L1174.0916015625,69.40691225687664L1175.2259895833333,39.46546652475992L1176.3603776041666,78.32301172892252L1177.494765625,0.6303351205587253L1178.6291536458334,39.1923875427246L1179.7635416666667,37.315268554687506L1180.8979296875,38.0283970705668L1182.0323177083333,36.9269992828369L1183.1667057291666,0.17171632304788975L1184.30109375,83.4832433319092L1185.4354817708333,1.2697816125551866L1186.5698697916666,38.68201292037962L1187.7042578125001,118.6231800079346L1188.8386458333332,38.83236335754394L1189.9730338541667,37.54355903625488L1191.107421875,0.15733070105315594L1192.2418098958333,39.216174392700204L1193.3761979166668,73.61700733184816L1194.5105859374999,39.47922234217325L1195.6449739583334,37.798802674611395L1196.7793619791667,39.145228506724045L1197.91375,37.59032977422078L1199.0481380208334,71.34386269887288L1200.1825260416667,0.0363086165922456L1201.3169140625,0.08628676682712322L1202.4513020833333,36.561210549672445L1203.5856901041666,78.90881444295249L1204.720078125,39.52097396850587L1205.8544661458334,84.6764016977946L1206.9888541666667,38.58490485509237L1208.1232421875,77.92927752176921L1209.2576302083332,38.155840320587146L1210.3920182291668,0.6922395197550311L1211.52640625,36.96183584849038L1212.6607942708333,72.61302680969237L1213.7951822916668,0.2538572930296089L1214.9295703125,38.673535079956046L1216.0639583333334,38.66797666549684L1217.1983463541667,77.6163908004761L1218.332734375,72.03437644958497L1219.4671223958335,0.1438064842422898L1220.6015104166665,36.13389335632326L1221.7358984375,71.83702517191568L1222.8702864583333,75.31466551462812L1224.0046744791666,38.405599848429354L1225.1390625000001,37.67494279225666L1226.2734505208334,38.04417587280274L1227.4078385416667,73.00504483540853L1228.5422265625,39.21148365656536L1229.6766145833333,39.766486186981204L1230.8110026041668,37.382237981160465L1231.945390625,39.405143706003805L1233.0797786458334,71.43830061594645L1234.2141666666666,69.46791339874268L1235.3485546875,101.35368723551434L1236.4829427083332,43.04845068613686L1237.6173307291667,77.3530959701538L1238.75171875,5.58955200672149L1239.8861067708333,80.34853726704914L1241.0204947916666,114.650622660319L1242.1548828124999,6.303409779866544L1243.2892708333334,75.61131562550862L1244.4236588541667,74.43344949086509L1245.558046875,43.46956230163575" style="fill: none;" fill="none"></path></g></g></g></g></g></g><g transform="translate(82, 377)" clip-path="url(#clip_1)"><clipPath id="clip_1"><rect width="1361" height="23"></rect></clipPath><g><g><line x1="0" y1="0" x2="0" y2="5" style="visibility: inherit;" fill="rgb(0, 0, 0)" stroke="rgb(204, 204, 204)" stroke-width="1px"></line><line x1="113.43880208333333" y1="0" x2="113.43880208333333" y2="5" style="visibility: inherit;" fill="rgb(0, 0, 0)" stroke="rgb(204, 204, 204)" stroke-width="1px"></line><line x1="226.87760416666666" y1="0" x2="226.87760416666666" y2="5" style="visibility: inherit;" fill="rgb(0, 0, 0)" stroke="rgb(204, 204, 204)" stroke-width="1px"></line><line x1="340.31640625" y1="0" x2="340.31640625" y2="5" style="visibility: inherit;" fill="rgb(0, 0, 0)" stroke="rgb(204, 204, 204)" stroke-width="1px"></line><line x1="453.7552083333333" y1="0" x2="453.7552083333333" y2="5" style="visibility: inherit;" fill="rgb(0, 0, 0)" stroke="rgb(204, 204, 204)" stroke-width="1px"></line><line x1="567.1940104166667" y1="0" x2="567.1940104166667" y2="5" style="visibility: inherit;" fill="rgb(0, 0, 0)" stroke="rgb(204, 204, 204)" stroke-width="1px"></line><line x1="680.6328125" y1="0" x2="680.6328125" y2="5" style="visibility: inherit;" fill="rgb(0, 0, 0)" stroke="rgb(204, 204, 204)" stroke-width="1px"></line><line x1="794.0716145833334" y1="0" x2="794.0716145833334" y2="5" style="visibility: inherit;" fill="rgb(0, 0, 0)" stroke="rgb(204, 204, 204)" stroke-width="1px"></line><line x1="907.5104166666666" y1="0" x2="907.5104166666666" y2="5" style="visibility: inherit;" fill="rgb(0, 0, 0)" stroke="rgb(204, 204, 204)" stroke-width="1px"></line><line x1="1020.94921875" y1="0" x2="1020.94921875" y2="5" style="visibility: inherit;" fill="rgb(0, 0, 0)" stroke="rgb(204, 204, 204)" stroke-width="1px"></line><line x1="1134.3880208333335" y1="0" x2="1134.3880208333335" y2="5" style="visibility: inherit;" fill="rgb(0, 0, 0)" stroke="rgb(204, 204, 204)" stroke-width="1px"></line><line x1="1247.8268229166665" y1="0" x2="1247.8268229166665" y2="5" style="visibility: inherit;" fill="rgb(0, 0, 0)" stroke="rgb(204, 204, 204)" stroke-width="1px"></line><line x1="1361.265625" y1="0" x2="1361.265625" y2="5" style="visibility: inherit;" fill="rgb(0, 0, 0)" stroke="rgb(204, 204, 204)" stroke-width="1px"></line></g><g transform="translate(0, 8)"><text x="0" y="0" dx="0em" dy="0.95em" style="text-anchor: middle; visibility: hidden; font-family: Roboto, sans-serif; font-size: 12px; font-weight: 200;" fill="rgb(33, 33, 33)" stroke="none" stroke-width="1px">-100</text><text x="113.43880208333333" y="0" dx="0em" dy="0.95em" style="text-anchor: middle; visibility: inherit; font-family: Roboto, sans-serif; font-size: 12px; font-weight: 200;" fill="rgb(33, 33, 33)" stroke="none" stroke-width="1px">0</text><text x="226.87760416666666" y="0" dx="0em" dy="0.95em" style="text-anchor: middle; visibility: inherit; font-family: Roboto, sans-serif; font-size: 12px; font-weight: 200;" fill="rgb(33, 33, 33)" stroke="none" stroke-width="1px">100</text><text x="340.31640625" y="0" dx="0em" dy="0.95em" style="text-anchor: middle; visibility: inherit; font-family: Roboto, sans-serif; font-size: 12px; font-weight: 200;" fill="rgb(33, 33, 33)" stroke="none" stroke-width="1px">200</text><text x="453.7552083333333" y="0" dx="0em" dy="0.95em" style="text-anchor: middle; visibility: inherit; font-family: Roboto, sans-serif; font-size: 12px; font-weight: 200;" fill="rgb(33, 33, 33)" stroke="none" stroke-width="1px">300</text><text x="567.1940104166667" y="0" dx="0em" dy="0.95em" style="text-anchor: middle; visibility: inherit; font-family: Roboto, sans-serif; font-size: 12px; font-weight: 200;" fill="rgb(33, 33, 33)" stroke="none" stroke-width="1px">400</text><text x="680.6328125" y="0" dx="0em" dy="0.95em" style="text-anchor: middle; visibility: inherit; font-family: Roboto, sans-serif; font-size: 12px; font-weight: 200;" fill="rgb(33, 33, 33)" stroke="none" stroke-width="1px">500</text><text x="794.0716145833334" y="0" dx="0em" dy="0.95em" style="text-anchor: middle; visibility: inherit; font-family: Roboto, sans-serif; font-size: 12px; font-weight: 200;" fill="rgb(33, 33, 33)" stroke="none" stroke-width="1px">600</text><text x="907.5104166666666" y="0" dx="0em" dy="0.95em" style="text-anchor: middle; visibility: inherit; font-family: Roboto, sans-serif; font-size: 12px; font-weight: 200;" fill="rgb(33, 33, 33)" stroke="none" stroke-width="1px">700</text><text x="1020.94921875" y="0" dx="0em" dy="0.95em" style="text-anchor: middle; visibility: inherit; font-family: Roboto, sans-serif; font-size: 12px; font-weight: 200;" fill="rgb(33, 33, 33)" stroke="none" stroke-width="1px">800</text><text x="1134.3880208333335" y="0" dx="0em" dy="0.95em" style="text-anchor: middle; visibility: inherit; font-family: Roboto, sans-serif; font-size: 12px; font-weight: 200;" fill="rgb(33, 33, 33)" stroke="none" stroke-width="1px">900</text><text x="1247.8268229166665" y="0" dx="0em" dy="0.95em" style="text-anchor: middle; visibility: inherit; font-family: Roboto, sans-serif; font-size: 12px; font-weight: 200;" fill="rgb(33, 33, 33)" stroke="none" stroke-width="1px">1k</text><text x="1361.265625" y="0" dx="0em" dy="0.95em" style="text-anchor: middle; visibility: hidden; font-family: Roboto, sans-serif; font-size: 12px; font-weight: 200;" fill="rgb(33, 33, 33)" stroke="none" stroke-width="1px">1.1k</text></g><line x1="0" y1="0" x2="1361.265625" y2="0" fill="rgb(0, 0, 0)" stroke="rgb(204, 204, 204)" stroke-width="1px"></line></g></g></g></g></svg>