<svg viewBox="0 0 1444 400" xmlns="http://www.w3.org/2000/svg"><g><g><g><g><g><line x1="40.84375" y1="363.67332740450706" x2="35.84375" y2="363.67332740450706" style="visibility: inherit;" fill="rgb(0, 0, 0)" stroke="rgb(204, 204, 204)" stroke-width="1px"></line><line x1="40.84375" y1="318.0157329391435" x2="35.84375" y2="318.0157329391435" style="visibility: inherit;" fill="rgb(0, 0, 0)" stroke="rgb(204, 204, 204)" stroke-width="1px"></line><line x1="40.84375" y1="272.35813847378" x2="35.84375" y2="272.35813847378" style="visibility: inherit;" fill="rgb(0, 0, 0)" stroke="rgb(204, 204, 204)" stroke-width="1px"></line><line x1="40.84375" y1="226.7005440084165" x2="35.84375" y2="226.7005440084165" style="visibility: inherit;" fill="rgb(0, 0, 0)" stroke="rgb(204, 204, 204)" stroke-width="1px"></line><line x1="40.84375" y1="181.042949543053" x2="35.84375" y2="181.042949543053" style="visibility: inherit;" fill="rgb(0, 0, 0)" stroke="rgb(204, 204, 204)" stroke-width="1px"></line><line x1="40.84375" y1="135.38535507768944" x2="35.84375" y2="135.38535507768944" style="visibility: inherit;" fill="rgb(0, 0, 0)" stroke="rgb(204, 204, 204)" stroke-width="1px"></line><line x1="40.84375" y1="89.72776061232594" x2="35.84375" y2="89.72776061232594" style="visibility: inherit;" fill="rgb(0, 0, 0)" stroke="rgb(204, 204, 204)" stroke-width="1px"></line><line x1="40.84375" y1="44.070166146962436" x2="35.84375" y2="44.070166146962436" style="visibility: inherit;" fill="rgb(0, 0, 0)" stroke="rgb(204, 204, 204)" stroke-width="1px"></line></g><g transform="translate(30.84375, 0)"><text x="0" y="363.67332740450706" dx="0em" dy="0.3em" style="text-anchor: end; visibility: inherit; font-family: Roboto, sans-serif; font-size: 12px; font-weight: 200;" fill="rgb(33, 33, 33)" stroke="none" stroke-width="1px">-90</text><text x="0" y="318.0157329391435" dx="0em" dy="0.3em" style="text-anchor: end; visibility: inherit; font-family: Roboto, sans-serif; font-size: 12px; font-weight: 200;" fill="rgb(33, 33, 33)" stroke="none" stroke-width="1px">-80</text><text x="0" y="272.35813847378" dx="0em" dy="0.3em" style="text-anchor: end; visibility: inherit; font-family: Roboto, sans-serif; font-size: 12px; font-weight: 200;" fill="rgb(33, 33, 33)" stroke="none" stroke-width="1px">-70</text><text x="0" y="226.7005440084165" dx="0em" dy="0.3em" style="text-anchor: end; visibility: inherit; font-family: Roboto, sans-serif; font-size: 12px; font-weight: 200;" fill="rgb(33, 33, 33)" stroke="none" stroke-width="1px">-60</text><text x="0" y="181.042949543053" dx="0em" dy="0.3em" style="text-anchor: end; visibility: inherit; font-family: Roboto, sans-serif; font-size: 12px; font-weight: 200;" fill="rgb(33, 33, 33)" stroke="none" stroke-width="1px">-50</text><text x="0" y="135.38535507768944" dx="0em" dy="0.3em" style="text-anchor: end; visibility: inherit; font-family: Roboto, sans-serif; font-size: 12px; font-weight: 200;" fill="rgb(33, 33, 33)" stroke="none" stroke-width="1px">-40</text><text x="0" y="89.72776061232594" dx="0em" dy="0.3em" style="text-anchor: end; visibility: inherit; font-family: Roboto, sans-serif; font-size: 12px; font-weight: 200;" fill="rgb(33, 33, 33)" stroke="none" stroke-width="1px">-30</text><text x="0" y="44.070166146962436" dx="0em" dy="0.3em" style="text-anchor: end; visibility: inherit; font-family: Roboto, sans-serif; font-size: 12px; font-weight: 200;" fill="rgb(33, 33, 33)" stroke="none" stroke-width="1px">-20</text></g><line x1="40.84375" y1="0" x2="40.84375" y2="374" fill="rgb(0, 0, 0)" stroke="rgb(204, 204, 204)" stroke-width="1px"></line></g></g><g transform="translate(40, 0)" clip-path="url(#clip_0)"><clipPath id="clip_0"><rect width="1403" height="374"></rect></clipPath><g><g><g><line x1="47.147260049756724" y1="0" x2="47.147260049756724" y2="374" fill="rgb(0, 0, 0)" stroke="rgb(66, 66, 66)" stroke-width="1px" opacity="0.25"></line><line x1="147.0699813595343" y1="0" x2="147.0699813595343" y2="374" fill="rgb(0, 0, 0)" stroke="rgb(66, 66, 66)" stroke-width="1px" opacity="0.25"></line><line x1="246.9927026693119" y1="0" x2="246.9927026693119" y2="374" fill="rgb(0, 0, 0)" stroke="rgb(66, 66, 66)" stroke-width="1px" opacity="0.25"></line><line x1="346.9154239790895" y1="0" x2="346.9154239790895" y2="374" fill="rgb(0, 0, 0)" stroke="rgb(66, 66, 66)" stroke-width="1px" opacity="0.25"></line><line x1="446.83814528886705" y1="0" x2="446.83814528886705" y2="374" fill="rgb(0, 0, 0)" stroke="rgb(66, 66, 66)" stroke-width="1px" opacity="0.25"></line><line x1="546.7608665986446" y1="0" x2="546.7608665986446" y2="374" fill="rgb(0, 0, 0)" stroke="rgb(66, 66, 66)" stroke-width="1px" opacity="0.25"></line><line x1="646.6835879084223" y1="0" x2="646.6835879084223" y2="374" fill="rgb(0, 0, 0)" stroke="rgb(66, 66, 66)" stroke-width="1px" opacity="0.25"></line><line x1="746.6063092181998" y1="0" x2="746.6063092181998" y2="374" fill="rgb(0, 0, 0)" stroke="rgb(66, 66, 66)" stroke-width="1px" opacity="0.25"></line><line x1="846.5290305279774" y1="0" x2="846.5290305279774" y2="374" fill="rgb(0, 0, 0)" stroke="rgb(66, 66, 66)" stroke-width="1px" opacity="0.25"></line><line x1="946.451751837755" y1="0" x2="946.451751837755" y2="374" fill="rgb(0, 0, 0)" stroke="rgb(66, 66, 66)" stroke-width="1px" opacity="0.25"></line><line x1="1046.3744731475326" y1="0" x2="1046.3744731475326" y2="374" fill="rgb(0, 0, 0)" stroke="rgb(66, 66, 66)" stroke-width="1px" opacity="0.25"></line><line x1="1146.2971944573103" y1="0" x2="1146.2971944573103" y2="374" fill="rgb(0, 0, 0)" stroke="rgb(66, 66, 66)" stroke-width="1px" opacity="0.25"></line><line x1="1246.2199157670877" y1="0" x2="1246.2199157670877" y2="374" fill="rgb(0, 0, 0)" stroke="rgb(66, 66, 66)" stroke-width="1px" opacity="0.25"></line><line x1="1346.1426370768654" y1="0" x2="1346.1426370768654" y2="374" fill="rgb(0, 0, 0)" stroke="rgb(66, 66, 66)" stroke-width="1px" opacity="0.25"></line></g><g><line x1="0" y1="363.67332740450706" x2="1403.15625" y2="363.67332740450706" fill="rgb(0, 0, 0)" stroke="rgb(66, 66, 66)" stroke-width="1px" opacity="0.25"></line><line x1="0" y1="318.0157329391435" x2="1403.15625" y2="318.0157329391435" fill="rgb(0, 0, 0)" stroke="rgb(66, 66, 66)" stroke-width="1px" opacity="0.25"></line><line x1="0" y1="272.35813847378" x2="1403.15625" y2="272.35813847378" fill="rgb(0, 0, 0)" stroke="rgb(66, 66, 66)" stroke-width="1px" opacity="0.25"></line><line x1="0" y1="226.7005440084165" x2="1403.15625" y2="226.7005440084165" fill="rgb(0, 0, 0)" stroke="rgb(66, 66, 66)" stroke-width="1px" opacity="0.25"></line><line x1="0" y1="181.042949543053" x2="1403.15625" y2="181.042949543053" fill="rgb(0, 0, 0)" stroke="rgb(66, 66, 66)" stroke-width="1px" opacity="0.25"></line><line x1="0" y1="135.38535507768944" x2="1403.15625" y2="135.38535507768944" fill="rgb(0, 0, 0)" stroke="rgb(66, 66, 66)" stroke-width="1px" opacity="0.25"></line><line x1="0" y1="89.72776061232594" x2="1403.15625" y2="89.72776061232594" fill="rgb(0, 0, 0)" stroke="rgb(66, 66, 66)" stroke-width="1px" opacity="0.25"></line><line x1="0" y1="44.070166146962436" x2="1403.15625" y2="44.070166146962436" fill="rgb(0, 0, 0)" stroke="rgb(66, 66, 66)" stroke-width="1px" opacity="0.25"></line></g></g></g><g><g><line x1="0" y1="-47.24502278376462" x2="1403.15625" y2="-47.24502278376462" fill="rgb(0, 0, 0)" stroke="rgb(153, 153, 153)" stroke-width="1.5px"></line></g></g><g><g><line x1="147.0699813595343" y1="0" x2="147.0699813595343" y2="374" fill="rgb(0, 0, 0)" stroke="rgb(153, 153, 153)" stroke-width="1.5px"></line></g></g><g><g><g><g><g><path stroke="rgb(255, 112, 67)" stroke-width="2px" d="M181.3184940884606,-0.2296829567781109L185.01563477692238,5.639737317671045L186.6094021818133,23.97391572688283L188.48794934243713,39.74753272118944L189.3073156571773,53.111462614969525L190.55135353748403,69.67780924708552L191.02598646370546,83.35642758932126L191.24082031452147,92.01606101032174L192.01522140467227,103.92847006131298L194.2934594505352,114.87919116286643L194.39837830791046,125.9857825194589L195.63242391608625,131.76619426986275L196.98637678983368,139.98379766128812L197.7857585603119,142.5200951278438L198.2004378537475,145.36700565537168L199.6343289045428,148.25153915609L199.66930185700122,150.77799571477505L199.86415116355533,150.90854190245986L200.47367976354496,156.79467347570005L200.69350975042647,161.12272559212735L202.02248194384651,161.08794283550208L203.24153914382578,164.63692757674613L204.59549201757326,166.05672489416037L204.6154765618352,165.75466452824205L204.68042633068657,171.132064319087L205.47481196509932,172.05173684063217L206.7438305257335,172.4859559808456L206.7887957503229,172.95444408304795L207.60316592899756,178.7824327854706L207.61315820112856,181.0127211300513L208.1277602158739,183.42482994393526L209.63159717158604,189.69230001275565L212.72420539612366,202.5390032459402L215.4670840960771,216.8620807094895L215.5020570485355,225.55403940002913L216.846017650152,232.87395680411754L217.25070467145662,239.0008887258948L218.88444116487148,243.716373384294L220.71302696484037,247.82795334766112L220.76298832549531,248.76638606888253L222.35675573038623,247.29561155168435L222.44668617956503,242.84134522597688L224.88979671558909,247.77724422938522L224.95974262050592,249.46687202254594L225.30447600902468,251.85661520020793L226.53852161720042,259.2563677597673L226.5535100253969,266.58307210180493L227.29793429915475,271.69333021780534L227.43782610898845,265.6101791334534L227.9874010761922,266.2927741005619L228.0923199335675,271.64173360116536L228.19224265487725,274.1125950292787L228.42206491388973,275.10713369150443L228.89170170404572,273.2920911792306L229.39631144666006,271.7302909851736L229.57117620895218,274.3919399817994L230.06579367943556,276.6908231835233L232.71374579414467,281.6737426413169L232.82366078758545,281.34401471944597L233.35824734659278,282.3783595728256L233.44817779577156,287.3904635389649L234.24755956624978,290.0585340945804L234.50735864165517,290.51263217421626L234.7821461252571,295.866820804805L234.97199929574566,294.67392657989495L235.47161290229454,293.68552767176584L237.90972730225315,301.22592186470916L239.81825127926987,302.9684666434879L240.63262145794457,305.04124654124314L241.03730847924913,307.2344203105888L242.0515241005434,310.3221424132594L244.00001716608406,314.84801451203384L245.98348318408313,316.17115328053455L246.01845613654154,320.499735791348L246.39316634145325,320.3905952050918L248.85126528567378,321.94159943608895L249.99538044467073,326.9703101145247L252.23864553807522,326.89153431635856L253.64755590854307,328.5837919085289L255.95077463473348,330.43958116158444L256.59028005111605,332.7586104975707L256.6951989084913,332.6925148746446L257.049924569141,333.16061460603225L258.4388503953469,333.1233323966207L259.6629037313917,336.88409631778393L259.68788441171915,336.53052212425524L260.45728936580446,338.06085805786574L260.6021773117036,340.1209808264292L261.311628633003,339.0639351595482L261.6463697493908,340.08229931194825L262.240909941184,340.29375804446437L262.5706549215062,338.9611720098229L264.6540436608151,338.4530924289514L266.46764105258757,336.9505083532863L266.64250581487966,335.7934525449287L268.45610320665213,338.3915971396005L269.43534587548794,338.5355528603742L272.7327956787106,337.5876115738411L272.87268748854433,336.2368681854902L274.2865939950776,332.7372231908752L274.351543763929,334.95336100756924L275.50565119505694,333.180017069912L275.73547345406945,333.6136624144988L275.77044640652787,332.61138360202773L277.29426790650194,332.00115437462824L277.38919449174625,332.3566078131021L278.85805849499997,330.1031953077275L278.8930314474584,332.714191727239L280.07211955891376,331.44933426186134L280.9014781457849,331.6127049385484L281.0663506359461,331.28491659861356L281.69586378019767,333.42956588147547L281.7807980933109,331.7850493357504L283.334596409678,335.92356109935025L284.53866520146084,333.572744052424L285.0132981276823,332.79448954015504L285.572865367017,335.7283520159827L286.51213894732894,335.8922173320551L288.70044654401306,337.3015828593589L289.73964284563476,337.96068975179054L290.0843762341535,339.7195887677924L291.48329433249035,339.1449711002446L292.03286929969414,342.1552240234707L292.9021969750892,340.81212915696545L293.11703082590526,341.78724802556496L293.1869767308221,344.3351141836212L293.19197286688757,344.7721397691172L293.21695354721504,346.4957203235896L293.6266367045851,346.8942326658746L295.2903500143929,349.1944957046853L295.65506794717356,349.48541093375724L297.30379284878495,349.32865302607837L297.57358419632135,346.5069709839597L298.6527495864669,344.76025192452994L299.58702703071333,345.38755106614076L300.56626969954914,339.4319581484744L301.7553500831355,339.3825577502518L301.985172342148,338.37000041466905L302.0001607503445,338.1239652924169L302.89946524213246,340.125924070376L304.0585688093259,337.871992031648L304.233433571618,340.892387782876L305.14273033553695,342.7154300009013L305.65233621421686,343.56757516070803L306.82143205354123,345.03879481537984L306.8364204617377,344.83814442530337L308.5101260436765,344.90661888214623L308.8298787518678,344.86036725587866L309.9390209584063,344.56538415112556L309.94401709447175,346.2874204687459L310.9282558993731,346.19918779589585L311.97244833706026,347.03254179081557L313.2564553058909,346.2230803778115L313.7011114157194,347.31708364189006L315.14499473864566,349.1531331922554L315.75452333863535,350.5461750979607L317.04352644353145,351.2401361668717L317.1084762123828,350.0424608082462L317.34829074352626,350.98330472689696L317.8928695746646,351.91480945486074L318.6972474812083,350.74328961787205L321.1253696090359,349.24742462076165L328.7644616531684,344.94059168598835L330.9277885695251,344.02270882377616L331.47236740066336,344.2400577890153L332.25676076294513,342.79328876446823L334.80479015634444,342.0992747415512L335.7890289612457,340.15982998810426L336.72330640549217,341.11396457553764L337.252896828434,339.9963277374567L338.60185356611595,340.00492227470795L339.8458914464227,338.0593632943682L340.8800916119789,340.8250774739855L343.6229703119323,342.5350920520975L344.5422593479823,342.7207764516716L345.1917570364958,341.3318070443409L346.3558567397547,340.56725752404026L346.450783324999,338.73322669349363L348.67406387414155,334.27506135264815L349.67828722330484,333.54316471231203L351.9815059494952,331.50503559953984L353.12562110849217,330.04202663108526L353.31047814291526,328.2631787182948L353.6751960756959,326.32840061740023L355.6436736854986,324.41356586303533L359.9853159264084,319.86870105240945L360.2051459132899,317.64277173903565L361.74895195752595,316.83451099695566L362.30851919686074,317.7244393229783L362.8680864361955,319.55367442044326L363.3876845870063,321.04531625460294L363.45263435585764,317.9624929767772L363.8323406968348,318.1488010823284L364.7016683722299,320.34418272170035L365.0963631214035,321.2283203069512L365.3661544689399,321.59692646928823L365.7908260345065,321.09505342035L366.000663749257,321.5083747747894L366.7400918869493,316.7276128553056L368.59365836724567,315.32595882830236L368.61364291150767,316.93899833004167L368.72355790494845,317.30384317205153L370.3323137180359,315.0627449651838L371.2965679786752,312.27212096829203L372.35075268849334,311.3575112082296L372.53560972291643,311.46752861563635L373.1101653704477,312.09374205341277L373.79963214748517,313.47343493578734L374.38917620321286,312.0920471841878L375.0386738917264,310.1764002022991L376.27771563596764,311.1139311866428L376.53251857530756,309.51326017871605L376.63244129661734,307.28766455964956L376.9821708212015,307.6816374262877L377.8864714490551,304.5457541156886L378.376092783473,306.1869506961233L380.7142844621217,307.0740674584826L381.17892511621227,306.83355083876853L382.402978452257,307.42698402740245L382.87761137847843,306.3263778346469L382.9375650112643,305.46774987349613L383.10743363749094,306.44951158849057L384.3864444702561,302.68704183688095L385.29574123417507,303.205109927127L385.3706832751574,301.76891078375473L385.5955093981044,298.0736557390928L388.0835851587179,294.7832929770525L388.3633687783853,295.25227477054693L388.9179398816545,291.7413453997958L391.181189519321,289.4819853956092L392.0155442422576,286.9937703495464L393.4344468848564,286.05168598950274L394.0689561651735,284.0339317107741L394.1588866143523,282.7745996616738L394.4786393225436,280.02126817081535L394.5186084110675,282.2147530903224L394.973256793027,275.8785822474334L396.57701647004893,276.39037791519615L397.20652961430056,273.9380365183494L397.231510294628,274.65318466646085L397.68116254052194,275.58015204244464L398.0458804733027,274.01008207736004L398.55548635198255,270.8944646852436L398.6803897536198,270.1096319284986L399.24994926508555,269.60377057939087L399.5197406126219,270.66944632995813L400.2491764781833,270.5054843534798L400.7487900847322,268.2146359484369L403.55661855353685,263.9981185914428L405.05545937318357,265.06268568122954L405.1204091420349,266.0750793038907L405.5750575239944,265.43148087847266L406.93400653380735,260.9134399186908L408.6476812042701,259.55233265121996L409.07235276983664,257.88885489318255L410.3363751944053,255.58295383666027L410.66612017472755,254.4024335877778L411.5004748976642,255.7473224065033L412.46472915830356,256.0604398897563L414.962797191048,253.03319803426942L416.791382991017,251.20985171753168L417.1361163795357,251.12408998430433L417.48084976805444,251.17917603753907L417.5857686254297,248.3998878932911L423.38628259746224,246.39744206693976L425.3347756630029,245.1463882644574L426.42393332527956,239.92582173940673L427.4031759941153,239.03549135882938L427.4081721301808,237.404214784656L429.91123629899073,233.33910911016739L431.2801775809347,232.8533330025637L431.64989164978084,230.051409675405L432.93889475467705,229.37004754404424L433.4235199530294,227.2252547232L435.17216757595054,226.2794223646506L436.53111658576347,226.4809119921532L439.6187286742356,223.98512406450587L441.27744584797796,224.1592122379285L441.5922024201038,225.0223645026964L442.03685852993226,221.4515671995399L442.1417773873075,220.39981019624983L442.5614528168086,220.21018594762015L442.9111823413928,218.602505151767L442.9861243823751,218.1139887162709L444.4399999774324,217.62103949062674L444.78972950201666,217.80215594229284L445.62908036101874,217.9036554022936L447.5775734265594,216.2029467614757L447.64751933147625,216.5489700973038L450.1455873642207,213.87080916659417L452.92343901663247,212.03597406292673L455.5713911313416,209.7669162263363L456.78045605918993,210.33799753271762L457.53986874114423,208.87666044455815L458.98375206407053,209.2458602399207L460.4176431148658,209.55836856662606L460.43263152306235,210.25885934405326L461.22202102140955,211.82630130402922L462.6209391197464,209.90197813602163L464.5094785525012,209.58813803786452L465.65858984756363,212.05682719803332L468.4614221803029,210.43060707337065L470.79461772288624,208.7415675839378L471.2842390573042,207.9661873663444L474.0820752539779,207.48165593489014L474.4817661392171,205.3323967568884L474.941410657242,205.4402962816L477.35454437687315,204.62452386431994L477.44947096211746,200.2791846607682L477.639324132606,197.72312905923806L477.7992004867017,198.42492523489636L479.5778249260157,198.64176247139417L479.8376240014211,197.83776792093119L483.7895676292228,196.57929576215307L485.03360550952954,191.4340657752332L486.1427477160681,191.58569277322013L487.1869401537553,191.58409721120265L489.0155259537242,188.2566427724213L490.2445754258344,185.96989825607065L490.7591774405798,187.23911153966063L490.7691697127108,187.52451707288765L491.6484896602368,186.16724454379784L494.58621766674423,185.5589872593513L494.59121380280976,183.85604397158406L494.6711519798576,184.02662409753646L495.9601550847537,182.67064277106635L498.60810719946284,181.7125837806308L500.0120214338652,181.06293653456677L500.5615964010689,179.1857118590305L501.69072315186946,178.0970751116954L504.0838723272387,173.485636930713L504.7133854714902,172.43069148434458L505.06311499607443,169.81870606700912L506.5419712714592,169.71119500427L507.1914689599727,169.65463064750205L508.89015522223895,170.33241619756816L509.24488088288865,169.7761796263635L509.319822923871,168.7232882693615L510.4739303549989,165.46314603518704L510.52888785171933,165.6867973324371L511.75294118776407,167.13308741075383L513.1168863336426,168.514865732771L516.9888917843964,169.0548284612867L517.4485363024214,168.51981873622066L517.5584512958621,163.79478461426854L518.4377712433882,162.92099129974386L518.8074853122343,160.52721731217764L521.8451360400516,160.9492011276305L522.8443632531494,161.32403553311457L523.024224151507,161.20434535165884L523.648741159693,161.22627890630713L524.0334436367357,159.83716633766488L524.2782543039447,160.30861200823867L524.9577288088511,159.84282118814917L525.3624158301558,159.69578342501453L526.141813056372,158.78596301548268L527.96040658421,159.74028616034414L528.3800820137111,157.46373938623833L531.1329529857954,157.83144542503305L532.2770681447925,154.0957314623154L532.5118865398704,151.25273779053256L536.8535287807802,148.1027698133548L541.7197653085664,147.68298307987658L541.889633934793,147.93832366087602L542.0894793774125,147.7393252544742L544.9872382953961,147.10913756067205L547.1006038510978,146.2361718826294L547.5252754166644,146.796796482126L547.6551749543671,148.57541111960114L547.8200474445282,148.67780544031433L548.4645489969764,146.88354442983947L548.85924374615,145.70704104430106L551.5121919969246,146.39146426953238L551.7020451674132,144.7458226262005L551.9518519706876,142.9454419474824L553.5506155116441,142.10571421898652L555.0444601952253,138.480670503892L555.8288535575069,136.76139109917125L557.2527523361713,135.7138574148543L558.3269215902513,136.46421784991568L559.2562028984323,138.04146008874915L562.4537299803452,138.626940556689L563.4679456016394,137.16923702105763L563.5478837786873,138.70468157177962L565.2865391294774,139.63783739538434L566.5105924655222,140.50371400777888L566.9152794868268,140.23661851480196L566.9652408474817,140.960134383622L567.1900669704287,140.73601670357223L567.6047462638643,140.9020511708848L569.2834479818686,140.15950422194874L570.3426288277522,140.4972969825635L571.1420105982304,140.54381556137733L571.3018869523261,140.93349794251654L571.3268676326535,141.73731447926602L572.67082823427,140.89842245903094L572.8656775408241,140.8877374589351L573.8049511211359,139.61309229659201L574.0497617883449,140.64111345318412L576.1681234801122,137.92977813992442L577.4571265850084,136.71779190013777L577.9667324636882,137.88996109106705L579.6054650931685,137.97798709964528L579.7153800866092,138.94507812514266L579.9152255292289,138.27531417130348L579.9202216652943,136.11551095207233L581.4790161177269,138.21213326100437L582.1035331259129,138.84956886821624L583.2926135094993,140.60530980018254L583.4375014553985,138.8997656238067L583.5474164488393,138.9911484149069L584.0820030078465,136.06965205935046L584.136960504567,135.21044481377314L586.5650826323946,135.11048219751595L586.9447889733717,135.43562138882763L587.2045880487772,135.09911978379162L587.3095069061524,134.0873770814573L588.8633052225194,134.87276577422952L588.8982781749778,135.24261229707776L589.4678376864437,135.38702511063622L589.8525401634862,135.05254343698135L590.9267094175663,135.72443721975236L591.486276656901,135.5164745188051L592.0658284404977,133.70245080891996L593.0750479257266,131.29636492164917L597.7414390108931,128.3500925852945L599.2152991502123,128.04733744213593L600.4143718059297,126.40815334904278L601.2886956173903,126.29065097234005L602.6176678108103,126.76691666282002L604.2164313517668,125.27832931665081L606.0250326074737,124.392215363356L606.4397119009093,124.51460629901582L606.7794491533625,120.15198661099625L607.0942057254883,119.02088092352089L607.7936647746568,116.32647496037066L608.0384754418657,115.89807042600947L608.2782899730092,115.31413547808435L608.4731392795633,115.35657665186031L611.4108672860707,116.11438907624067L611.5257784155771,116.7376893374883L611.7056393139346,115.2925541876239L611.8305427155718,112.62233293070047L612.3101717778587,113.20269101500041L613.129538092599,113.02461483254244L613.8240010057019,111.86128463664757L613.9489044073391,112.00181427830363L614.5434445991323,112.75564089070838L617.7159910007176,114.49781261308934L621.9826912006453,115.05616247263004L622.7221193383375,116.06164016095636L623.5664663334052,114.7270223442311L624.5906742268304,116.180869910677L625.4799864464875,113.10159977404086L625.5449362153388,115.12289017286876L625.8147275628752,114.38430314463386L625.8946657399231,113.63468364609469L628.4876603579117,112.532413348686L629.1971116792112,113.30095787669899L629.237080767735,113.61250983040897L630.7009486349233,110.61289868133396L632.9641982725898,110.82411430170704L634.662884534856,108.867267384384L634.682869079118,107.97882939314964L635.3023899512385,107.96937511005767L637.9653304741441,106.44822271669301L638.4349672643001,107.71360351881374L643.6809101330634,105.62601188373947L644.2554657805947,104.72571119447977L644.5602300805895,106.00103626188353L644.9449325576321,105.55091138210044L646.7385454051425,102.60250697219205L646.8084913100595,101.47106926891936L651.0502108296595,102.13061645087599L651.6147742050598,101.88855737598428L653.7381320328925,100.04960642353616L653.9729504279705,99.00553835181817L654.0379001968219,97.22889307362121L654.8123012869726,94.99170238073052L655.4418144312242,95.31948243851761L656.3161382426848,95.03848759648824L656.5059914131733,92.31710825227833L656.5209798213699,91.38624698356607L657.320361591848,90.55287188512274L659.5286537327942,90.52265141247777L663.9852071032102,90.40073209258523L664.6896622884441,91.06295097896286L666.8080239802115,92.39989074299602L666.9828887425035,92.14886952994395L668.0770425408457,90.2069427393923L668.0970270851076,91.13679097724737L668.9363779441096,93.49621550833898L671.5343686981639,94.06990869788328L672.5635727276546,93.95235888396856L673.3329776817399,95.78818062365191L674.66194987516,96.55432030316146L677.0800797308566,96.15790446511238L678.2791523865739,96.33056908442714L680.5823711127642,93.27752247599798L681.7914360406126,91.80239321745579L682.3510032799473,92.78631308143504L684.3044924815536,91.2459965222264L685.2337737897344,92.49337656410486L685.9482212470994,90.0968795497388L686.6326918880713,88.68334570860328L687.7118572782168,91.43277685081222L689.7053155683469,92.36047100876391L690.369801665057,91.40297433402397L690.3947823453844,91.05675095658961L691.279098428976,90.62576732255538L693.8970737272921,91.74686744076966L694.0419616731913,91.12207143245632L694.9662468453067,92.78502482175767L695.2060613764502,91.32565276344052L695.6107483977548,93.23654049892761L696.7148944682278,94.11313071599345L698.1687700632851,93.02644139916133L698.1887546075471,92.9128140277765L698.4935189075419,91.90591566505081L700.3720660681657,92.32451722804831L703.1499177205775,92.68995057276379L704.0941874369549,91.29655113075665L704.8635923910401,91.94634439455093L704.9884957926774,94.75679754287164L706.6472129664197,94.89475141599763L707.5265329139457,95.58779046831461L709.4150723467006,94.48993410738804L710.9488861188057,91.99008662220236L711.6533413040397,91.05907647188572L715.275539951519,89.73781462954317L715.6552462924961,91.75878483159941L715.9300337760982,91.89600067236645L716.6694619137904,94.40313561909123L719.107576313749,95.55701051623734L719.9269426284892,96.60670492070348L720.9461543858489,95.88428829504366L726.5118499628035,94.23347955587646L726.6467456365717,94.1117406410698L727.1313708349242,94.81312997751441L727.6209921693421,92.27590644298336L729.1348213971852,89.0314025447465L729.5345122824243,88.5310996066347L731.8976846414006,86.82551046024288L732.0525648594307,87.80358795473975L734.1359535987397,90.14135060302716L734.3258067692282,90.85395755727201L738.3576885740777,90.26844931773698L738.8473099084955,90.9299981957044L741.1555247707515,89.22017346393996L741.4752774789428,91.05499559254054L742.3545974264687,89.82348995613252L743.7735000690677,91.91208319099798L747.0209885116353,91.9572311077615L747.9502698198163,93.01011036869494L748.1451191263703,94.35640684642016L748.4249027460377,94.66106355425046L752.1969854754819,95.42594569396746L752.3668541017084,96.49349977584974L752.7915256672751,95.59946926997482L753.3111238180859,95.82647664722448L753.5109692607055,94.57071859850544L756.378751362296,92.2949461129251L758.177360345872,94.35724103217908L758.7269353130758,93.6872227848464L759.1665952868389,92.30044331789664L763.8779515965948,92.17691262769272L764.1077738556073,92.26329508849851L764.3325999785544,92.60199051838853L764.4025458834712,94.20508296777392L765.5266764982061,95.09391542700949L766.2561123637677,94.98493332747586L767.0504979981803,94.54892214809519L768.9440335670006,94.5703333874073L770.7476386866421,94.95482922369044L771.0324184423748,95.22465663248009L772.781066065296,95.16566556329315L772.8210351538199,94.51515297518625L774.3948180144489,94.32489909729773L774.9893582062421,94.01349210903298L775.3690645472192,95.83194568772782L775.3890490914813,94.17111197646858L780.4501349258215,96.28173788930386L780.5700421913932,93.34496184561833L781.2145437438413,94.63954144915354L781.5792616766221,93.6369331435745L782.938210686435,91.75353404245091L785.1065337388571,89.82344540621601L785.7460391552397,91.16692950654365L785.9608730060556,91.15758005106234L787.8344240306141,91.88198261262745L788.3640144535559,93.31300059725763L790.8171172617109,92.69630126545584L791.0519356567889,94.0542403383034L795.3985740337642,95.03791525791252L795.5784349321218,94.48730080226144L796.5876544173506,93.55183872274435L796.612635097678,93.70475062172532L801.1890957336659,90.42520231945139L801.4189179926783,90.38363861543166L802.0334427287335,89.51622452259261L802.1233731779122,92.21880508006427L802.2232958992221,93.9449111246075L806.1152858942379,92.35393818908952L806.1252781663688,91.32728495996291L807.9188910138794,91.87098370244965L808.0188137351892,90.80346349855552L808.2036707696122,92.02070027668131L809.0080486761559,91.2275316104875L809.3627743368057,91.06010995427602L809.5376390990976,92.14434082164271L811.2213369531676,91.81324617315856L811.7359389679128,89.81652609637919L811.9008114580739,89.63100513864023L812.4353980170813,91.14133310991267L812.5153361941291,90.8052286127411L813.1048802498567,89.31475390017924L815.3231646629339,90.64103077754277L815.3481453432612,89.90833216628086L816.8819591153663,89.06167037103803L817.8562056481368,90.21558917240851L818.400784479275,90.05812754204607L820.5391307153043,91.63733713400579L821.0437404579187,91.92350597574662L821.9230604054446,93.46549699468014L822.7524189923157,92.27615155726212L824.1713216349148,93.26702751274149L825.115591351292,93.75492428264809L825.585228141448,94.89286572893957L825.8150504004604,94.32256976442035L826.0948340201279,94.96635293741619L826.299675598813,93.84429382582663L828.0633116299305,90.55466395690547L829.2074267889274,90.23855258238389L831.470676426594,89.8122964195904L832.1001895708456,90.59342976977914L833.2243201855805,89.51223161219202L833.2343124577114,90.860457234095L835.2777321084964,92.91747864177898L836.6616617986368,91.0087303100824L840.3188333985746,90.34763501016566L843.4214338952434,90.07000937189584L843.9210475017923,88.12775516498589L844.6654717755499,85.90164081472199L845.8095869345469,85.85350575869397L847.5532384214026,88.09409822552028L848.067840436148,89.03155262179983L850.6708273262676,89.2463718326322L850.8856611770838,88.72825913813747L851.3602941033051,89.79036873477429L851.8998767983779,88.54106721797913L853.3937214819591,89.73338665532276L853.6235437409716,89.16921197609605L854.0082462180143,88.66798457120544L854.0332268983417,90.51643907384246L855.1323768327492,91.35334382273551L857.0059278573076,90.93520363586272L858.6896257113773,90.50878063357717L859.6388915638203,89.76637292652009L860.0685592654523,88.98061909032022L860.9828521654367,88.27615265039026L861.8371914326352,88.60017754322266L865.7241852915856,90.50209825398848L866.3137293473133,89.07069141024152L866.3836752522303,89.91668755065767L866.4885941096054,91.41586904886219L866.6584627358321,90.86966591801885L866.8932811309102,88.85396659269392L867.5677594997511,88.75155354144641L868.0673731063,85.66582841038584L871.359826773457,85.12501168478086L872.8686598652348,83.17397941967137L872.8836482734312,83.24522797985266L873.8179257176777,82.85177404431897L874.0527441127557,82.43819626705863L875.2867897209314,82.49867234447953L875.681484470105,83.6376169481573L877.3901630045023,83.25929334749597L877.7748654815449,84.34021401059931L879.3486483421739,85.20646867386635L879.6234358257758,85.68726744303142L882.671078825724,86.43539090608908L885.4839034305943,85.14577967050248L886.2433161125485,84.05893953098821L887.2525355977772,84.1386902034682L887.4473849043312,86.2257614328855L887.7771298846536,84.79841642687323L887.8071067010466,85.2097668694821L890.4800394960831,86.93907418282674L891.8090116895031,87.13074378898204L892.973111392762,84.76433978816364L893.8124622517641,85.28530889213316L894.2571183615927,83.61844484400832L894.4119985796227,84.17391601985335L894.6218362943733,83.57272970143399L895.2463533025593,84.28983989149907L896.3604916451635,84.88240198773013L896.4754027746698,86.38042487689678L896.6053023123725,86.02908924007916L897.3397343139992,86.92813893189611L897.5295874844878,88.51727210045834L899.9177405237916,88.84044942538078L900.9069754647584,86.99633542684123L901.0968286352469,85.9542024396175L901.3166586221286,86.71210172820321L901.4715388401586,88.18980008765128L902.1610056171961,89.35219297296719L902.7105805843997,90.21924894784112L902.8254917139061,91.11393472953684L904.6590736499405,89.15693089648907L904.9538456778042,85.36415916238462L904.9838224941973,85.127130624671L905.2186408892753,86.1520715467065L906.3627560482723,85.84317533017803L906.7024933007255,86.08877774453862L906.9073348794104,83.46324731158414L906.9922691925237,83.9450020287089L907.1571416826849,82.64793113099955L909.795101525263,81.6974137152446L910.714390561313,83.32966737288733L911.9983975301437,83.29920457258284L913.6221417514275,85.11129523990843L913.9269060514224,82.29854789621237L914.2566510317446,82.90454876369311L917.1644022218592,84.84039256979533L917.6390351480806,83.68314649995317L917.8488728628311,83.30745872977934L920.3969022562304,83.94344167656385L920.4418674808198,85.5912004212641L921.4660753742451,84.17961939852185L922.7300977988137,84.8491036275412L925.512945587291,85.64356284503134L926.1274703233462,85.98492376053814L926.5971071135021,85.99290178654788L927.4764270610282,86.6279579186047L930.1893289445887,87.36419968479876L931.2285252462103,87.85334799852781L931.5232972740743,86.37926525437015L932.042895424885,85.51553068690863L934.4710175527127,83.62977757758416L936.8891474084094,82.23417617747504L937.4537107838095,81.19540510732085L938.5578568542826,81.22582017022249L941.005963526372,82.4787321459891L941.280751009974,82.83019158888538L941.3207200984979,82.57170948098977L942.2500014066788,83.73078914775128L942.6996536525729,85.25921448236647L943.6339310968192,87.36163540721087L943.8487649476353,84.24361899410091L944.3533746902496,84.69839340642523L944.4033360509045,85.6416674568472L944.7380771672922,87.26469065525727L944.9629032902393,87.39342178505454L946.5566706951303,85.30634308439703L946.9563615803693,85.8335581945496L947.2561297442987,87.27898048772191L947.7207703983892,87.18459225818142L948.9748005508269,85.85227618230658L949.7891707295016,85.3502442116548L951.2930076852136,82.8468714574002L953.8610216228749,83.88331553568291L954.1657859228698,85.69163407792081L955.39483539498,85.82509355694317L955.4847658441589,85.87937164679653L955.6096692457961,88.09625759975422L957.927876380183,87.54069021005327L959.9862844391644,86.93466540071431L960.1611492014565,85.52463541429951L960.7107241686602,84.4307869070544L960.9055734752144,82.05747159001889L961.7848934227403,81.72345384585837L968.3498162127927,82.46881103174151L969.159190255402,82.33246618753738L969.4639545553968,85.07299122846823L970.0534986111245,84.30851387585524L971.4224398930684,84.63000141171385L974.6249631110467,84.32635240470552L977.0480891028088,86.2745976050733L980.400496402752,83.72583590484119L980.4454616273414,84.24345026147789L980.6602954781573,85.65302673758606L981.7544492764994,84.3751173591984L984.0426795944933,82.52962378270868L984.7621231879236,84.61130891225511L985.5165397338125,84.72490280072788L986.4358287698624,86.22524392855988L986.4757978583864,85.25258088957348L986.675643301006,83.00876315618956L988.5691788698263,84.54618811434531L988.9488852108034,83.088314279881L989.8531858386568,84.43039521378654L990.722513514052,85.16866564001549L993.1156626894211,82.60319618770691L993.87007923531,81.4169209986485L995.8185723008505,80.10726619283452L996.2032747778932,80.73973839774537L999.235929369645,82.28121676253382L999.5057207171814,82.3218623164239L1001.8339201236993,83.3195165957753L1002.1936419204144,81.13808724327593L1002.7582052958146,80.8495242844044L1003.5775716105549,76.68226443106737L1003.9223049990735,79.16191076008933L1005.2063119679042,80.38750534153591L1005.3212230974104,80.65939755296564L1006.0756396432993,80.90916867297224L1006.1256010039542,81.60453434474141L1006.7701025564022,82.28244672845923L1008.4787810907994,80.66376705450028L1008.6336613088296,78.02616294686268L1009.5529503448795,78.72819807762363L1010.7770036809244,75.0436441099715L1012.8154271956437,74.83459062266368L1013.604816693991,77.18768527049177L1013.8895964497239,78.21329071305722L1014.9987386562625,81.16237103713175L1015.658228616907,82.78658871327335L1017.0971158037678,82.10814587967995L1018.5959566234144,82.33961824608618L1018.7358484332481,83.73149313682796L1018.8857325152128,80.89087020407877L1018.9706668283261,82.23765423490778L1019.0705895496358,83.79829788963028L1021.0590517037004,80.55806839738766L1021.8534373381132,78.24194415710376L1022.5079311626921,80.61418645829124L1023.5771042807067,81.14155994001673L1023.8868647167671,83.72163040913154L1026.1700988986956,83.54671030024913L1026.5098361511489,83.69097065973729L1027.359179282282,83.15490447813207L1027.4041445068713,83.3648903150752L1028.0186692429265,82.30961791724484L1028.3034489986592,82.76958362573204L1028.3683987675106,83.79073122321107L1029.2177418986437,84.70571296016021L1030.321887969117,83.18965727529026L1030.8564745281242,83.20409427713368L1033.6093455002085,82.95513830931684L1033.799198670697,83.65380164549352L1035.8276299132856,84.61150858105933L1036.5320850985195,87.39499259595307L1037.6612118493201,84.17545461232548L1038.4955665722566,86.9127360375724L1040.074345568951,86.44993797084237L1040.3441369164875,85.63661726012023L1040.593943719762,85.77399112500943L1041.5532018443357,82.82089292572851L1042.05781158695,84.52009239285968L1042.6123826902194,86.27451230430816L1043.067031072179,84.93909624161198L1044.386010993468,83.36126619875044L1047.633499436036,85.63659364043016L1049.2672359294506,86.28169503225855L1049.6719229507553,88.84289272888093L1049.7268804474754,87.7052907918284L1050.1015906523871,90.09113935865543L1050.3913665441855,90.49897264422535L1052.000122357273,90.54954036396535L1052.1599987113686,90.34749461340571L1052.694585270376,88.33422253069291L1054.0085690555995,90.13450429028L1055.342537385085,91.85791039776723L1057.0012545588274,91.66186219769826L1057.5308449817692,92.37918093530496L1057.9705049555323,94.39670889705988L1058.3102422079855,92.50238103993006L1058.6699640047007,92.57678670428268L1059.7491293948462,88.09986111426605L1060.943205914498,88.05554753195479L1061.013151819415,85.3597748546173L1061.402850432523,82.35200205194917L1062.4620312784068,84.42097762288185L1064.8002229570554,85.16999924240062L1068.0876804881473,86.09534508558481L1070.865532140559,86.40338250458332L1074.1629819437817,88.16411960584063L1074.3278544339428,90.27325552786571L1074.9473753060633,94.45213999353192L1075.097259388028,95.32319189436969L1079.2190716420564,97.1335421901956L1079.5388243502478,98.05512535582213L1079.643743207623,95.34395881457156L1080.1183761338443,93.76719917373885L1082.1617957846292,93.02551446848487L1082.3866219075765,92.16439051663693L1085.0945276550713,92.81981206299606L1086.9680786796298,92.85643670648582L1088.187135879609,94.10788514431853L1088.3520083697701,93.85963756108636L1088.471915635342,96.9498525583025L1088.801660615664,97.60493115846043L1089.8158762369583,96.18598595016296L1092.4138669910126,97.02775871810282L1093.9376884909868,95.52089726078056L1095.6413708893183,95.67305310567328L1095.7962511073486,96.02312632893418L1096.6106212860234,99.12640891707169L1097.7147673564964,97.71756263901798L1098.9438168286065,97.21712219021796L1099.9680247220317,96.94238082453582L1101.8915371072449,97.15114990159408L1101.9065255154414,98.96059474592303L1102.106370958061,98.60703062683794L1103.914972213768,99.65254881986891L1104.4995201334302,96.66392730009753L1104.8642380662109,96.73029279850824L1105.6386391563617,97.21401190668698L1106.9476268055196,97.37081673184028L1107.1025070235498,97.28940029027697L1108.5214096661487,97.27220039934242L1111.3292381349534,98.54240441821021L1112.5832682873913,96.78713351823326L1113.8872598004837,97.62998785791832L1113.9122404808113,96.88584267585033L1113.9971747939246,98.28171238556119L1114.266966141461,96.6035343583863L1115.84074900209,99.29486443432147L1116.6850959971575,98.18359812352885L1116.944895072563,98.92480264948634L1117.6843232102553,97.69800989302117L1118.5836277020435,96.77197778025901L1118.633589062698,96.05919447112674L1118.888392002038,94.63425681807739L1119.0432722200683,94.88407139821L1119.4129862889145,96.65205449617979L1119.8826230790705,97.35708537874622L1119.9125998954632,99.2449489312206L1120.4122135020123,100.30961394841411L1122.6255017790238,100.00726568237779L1122.9102815347567,101.21966621591888L1123.7446362576932,100.13419782180647L1124.4740721232547,98.37573532938855L1125.4283341117632,100.6645127584247L1126.152773841259,101.40297616082452L1126.6074222232185,98.17343419805269L1126.7822869855106,97.44357552515287L1127.0071131084576,98.1260853523068L1127.381823313369,98.37837521778523L1128.0463094100792,97.10571457741094L1131.998253037881,96.88663092058395L1134.0666533689932,98.51063291938294L1137.384087716478,98.02275153941639L1137.5039949820498,97.6896709944904L1137.7238249689312,99.97652956474012L1138.0435776771224,99.18081485488119L1138.5032221951476,99.64144107622415L1139.0278164820238,98.37841765404313L1139.757252347585,100.5905951444967L1140.1319625524968,101.44072146903027L1142.1553976590199,100.97013091384028L1143.044709878677,102.23113503452605L1144.508577745865,102.19506418947856L1145.1580754343788,102.61355331127328L1145.2579981556885,103.40150476582097L1145.8225615310887,103.73143102946514L1146.2921983212448,99.91575281933416" style="fill: none;" fill="none"></path></g></g></g></g><g opacity="0.2"><g><g><g><path stroke="rgb(255, 112, 67)" stroke-width="2px" d="M178.40075062621509,-8.564988048749637L179.17015558030036,36.82529045292428L179.5598541934085,47.58179710311671L180.60904276716118,41.46189350659558L181.3184940884606,13.325695264447587L185.01563477692238,38.87370265578658L186.6094021818133,127.79834003059437L188.48794934243713,129.0807181759251L189.3073156571773,128.80392736963404L190.55135353748403,163.51534416287527L191.02598646370546,160.84162718229712L191.24082031452147,141.07280351911348L192.01522140467227,171.4151509347489L194.2934594505352,176.9200170692041L194.39837830791046,188.91170182162077L195.63242391608625,164.5168036752669L196.98637678983368,186.54410585862195L197.7857585603119,156.8908442383614L198.2004378537475,161.49796903632875L199.6343289045428,164.59591164419305L199.66930185700122,165.09360213562056L199.86415116355533,151.6482605574638L200.47367976354496,190.14776819033887L200.69350975042647,185.64732245658828L202.02248194384651,160.89084759625243L203.24153914382578,184.74722982644016L204.59549201757326,174.1020351598247L204.6154765618352,164.04302671121403L204.68042633068657,201.60342765617028L205.47481196509932,177.2631317737053L206.7438305257335,174.94649792366948L206.7887957503229,175.60917956208888L207.60316592899756,211.80738029619516L207.61315820112856,193.65091707232602L208.1277602158739,197.09335032690754L209.63159717158604,225.20775120597514L212.72420539612366,275.3366179467116L215.4670840960771,298.0258354209227L215.5020570485355,274.8082909697401L216.846017650152,274.35335918894964L217.25070467145662,273.7200774297788L218.88444116487148,270.43739280817624L220.71302696484037,271.12686177733286L220.76298832549531,254.08416281786677L222.35675573038623,238.9612341725601L222.44668617956503,217.60053245039163L224.88979671558909,275.7473105727085L224.95974262050592,259.04142136733606L225.30447600902468,265.39848340922975L226.53852161720042,301.1882731430391L226.5535100253969,308.10104167030426L227.29793429915475,300.6514466749104L227.43782610898845,231.1390026744859L227.9874010761922,270.16081100576616L228.0923199335675,301.9524958336028L228.19224265487725,288.1141398743765L228.42206491388973,280.74285166636525L228.89170170404572,263.00685199992574L229.39631144666006,262.88009114615113L229.57117620895218,289.4746158032089L230.06579367943556,289.71782665263305L232.71374579414467,309.91028376544017L232.82366078758545,279.4755566344406L233.35824734659278,288.23964670486566L233.44817779577156,315.7923844879558L234.24755956624978,305.17759988601347L234.50735864165517,293.085854525609L234.7821461252571,326.2072220438234L234.97199929574566,287.9141928283017L235.47161290229454,288.08460065920724L237.90972730225315,343.9548214256536L239.81825127926987,312.84288688651105L240.63262145794457,316.7869991232475L241.03730847924913,319.6624048489082L242.0515241005434,327.81923414333636L244.00001716608406,340.49462284119437L245.98348318408313,323.66893957807775L246.01845613654154,345.02836985997067L246.39316634145325,319.7721318863882L248.85126528567378,330.7306233704944L249.99538044467073,355.4663371786594L252.23864553807522,326.4451381282643L253.64755590854307,338.17325156985777L255.95077463473348,340.9557202364718L256.59028005111605,345.8997767074633L256.6951989084913,332.31797301205944L257.049924569141,335.81317974657185L258.4388503953469,332.9120665435588L259.6629037313917,358.19509184787836L259.68788441171915,334.52693502944425L260.45728936580446,346.7327616748478L260.6021773117036,351.7950098404964L261.311628633003,333.0740097172873L261.6463697493908,345.8530295060988L262.240909941184,341.49202419489825L262.5706549215062,331.4098511494862L264.6540436608151,335.57397480486526L266.46764105258757,328.4358652599943L266.64250581487966,329.23680296563856L268.45610320665213,353.1144165067291L269.43534587548794,339.35130194463204L272.7327956787106,332.2159442841931L272.87268748854433,328.5826556523565L274.2865939950776,312.90590155660675L274.351543763929,347.51147530115486L275.50565119505694,323.13106809054443L275.73547345406945,336.07098603367984L275.77044640652787,326.9318036649736L277.29426790650194,328.54318875284383L277.38919449174625,334.37084396438127L278.85805849499997,317.33385777766017L278.8930314474584,347.5098381040877L280.07211955891376,324.2818086248792L280.9014781457849,332.5384721064242L281.0663506359461,329.4274493390127L281.69586378019767,345.5825784841955L281.7807980933109,322.4661222434151L283.334596409678,359.3751277595214L284.53866520146084,320.2514474532853L285.0132981276823,328.384380637329L285.572865367017,352.3535727122403L286.51213894732894,336.8207874564604L288.70044654401306,345.28798751404656L289.73964284563476,341.69562880888907L290.0843762341535,349.6866831917719L291.48329433249035,335.88880431748277L292.03286929969414,359.2133239217134L292.9021969750892,333.20125824678405L293.11703082590526,347.31292161428615L293.1869767308221,358.77302241258695L293.19197286688757,347.2486180869248L293.21695354721504,356.26267679892356L293.6266367045851,349.15246927215463L295.2903500143929,362.2293195912692L295.65506794717356,351.133930565164L297.30379284878495,348.440358215899L297.57358419632135,330.5174394119617L298.6527495864669,334.862177254431L299.58702703071333,348.94224620193484L300.56626969954914,305.68359828170736L301.7553500831355,339.102622160324L301.985172342148,332.63217551303416L302.0001607503445,336.72976626632214L302.89946524213246,351.470357145476L304.0585688093259,325.09971047885773L304.233433571618,358.00796370649965L305.14273033553695,353.0460025697098L305.65233621421686,348.39639773294664L306.82143205354123,353.3757061918524L306.8364204617377,343.7011255482036L308.5101260436765,345.29464080425566L308.8298787518678,344.59827470702885L309.9390209584063,342.89381322419143L309.94401709447175,356.04562626859394L310.9282558993731,345.69920264974576L311.97244833706026,351.7548810953608L313.2564553058909,341.6361323707888L313.7011114157194,353.5164354716681L315.14499473864566,359.5574139776589L315.75452333863535,358.4400792302903L317.04352644353145,355.17258222403416L317.1084762123828,343.2556337760345L317.34829074352626,356.31475359925145L317.8928695746646,357.19333624665546L318.6972474812083,344.10467720826927L321.1253696090359,340.77085630380293L328.7644616531684,320.53520505560687L330.9277885695251,338.82137260457347L331.47236740066336,345.4717019253703L332.25676076294513,334.59493095870175L334.80479015634444,338.16652861168836L335.7890289612457,329.1696430519047L336.72330640549217,346.5207272376601L337.252896828434,333.6630523216645L338.60185356611595,340.0536246524649L339.8458914464227,327.0345290724431L340.8800916119789,356.49745782515083L343.6229703119323,352.22517466139846L344.5422593479823,343.77298804925806L345.1917570364958,333.4609804028004L346.3558567397547,336.2348102423366L346.450783324999,328.34038532039654L348.67406387414155,309.0121244211905L349.67828722330484,329.395750417074L351.9815059494952,319.9556372938311L353.12562110849217,321.7516424765091L353.31047814291526,318.1830405458156L353.6751960756959,315.3646580456644L355.6436736854986,313.56283558830097L359.9853159264084,294.1144671255295L360.2051459132899,305.0291722965841L361.74895195752595,312.2543667918361L362.30851919686074,322.76736650377313L362.8680864361955,329.9193399727448L363.3876845870063,329.49795331484114L363.45263435585764,300.4931610690979L363.8323406968348,319.2045470137849L364.7016683722299,332.7846786781414L365.0963631214035,326.23843329003995L365.3661544689399,323.6856947225311L365.7908260345065,318.2511061430333L366.000663749257,323.8505291166122L366.7400918869493,289.63662864489777L368.59365836724567,307.38325267528376L368.61364291150767,326.0795555065648L368.72355790494845,319.3712972767745L370.3323137180359,302.3631884595997L371.2965679786752,296.45858498590553L372.35075268849334,306.17472256787613L372.53560972291643,312.09096059094117L373.1101653704477,315.64228486747913L373.79963214748517,321.2916946025767L374.38917620321286,304.264183258457L375.0386738917264,299.32106730492967L376.27771563596764,316.4266067645907L376.53251857530756,300.44279113379747L376.63244129661734,294.67595605160614L376.9821708212015,309.91415033723706L377.8864714490551,286.77574868896073L378.376092783473,315.48706465192L380.7142844621217,312.10106244518533L381.17892511621227,305.47062332705553L382.402978452257,310.78977209632814L382.87761137847843,300.0896094090322L382.9375650112643,300.6021914269749L383.10743363749094,312.0128279734593L384.3864444702561,281.36637991109336L385.29574123417507,306.14082910518783L385.3706832751574,293.63044897131175L385.5955093981044,277.1338771526751L388.0835851587179,276.1379039921575L388.3633687783853,297.9098382670152L388.9179398816545,271.8460789655396L391.181189519321,276.67894537188465L392.0155442422576,272.89388508852403L393.4344468848564,280.71320794925555L394.0689561651735,272.5999907979782L394.1588866143523,275.6383847167719L394.4786393225436,264.41905638928455L394.5186084110675,294.64450096752853L394.973256793027,239.97361413772958L396.57701647004893,279.2905533658511L397.20652961430056,260.0414352695513L397.231510294628,278.70569083909214L397.68116254052194,280.83296717301954L398.0458804733027,265.1130189418808L398.55548635198255,253.23929946325026L398.6803897536198,265.6622463069438L399.24994926508555,266.7372229344471L399.5197406126219,276.70827558317296L400.2491764781833,269.5763664867691L400.7487900847322,255.23316165319392L403.55661855353685,240.1045202351423L405.05545937318357,271.09523252335447L405.1204091420349,271.81197649897047L405.5750575239944,261.78442313443736L406.93400653380735,235.3112078132603L408.6476812042701,251.8393914688853L409.07235276983664,248.46248093097046L410.3363751944053,242.5161811830339L410.66612017472755,247.71281884411053L411.5004748976642,263.36835904594744L412.46472915830356,257.83477229485663L414.962797191048,235.8788275198438L416.791382991017,240.8775559226845L417.1361163795357,250.6381068293494L417.48084976805444,251.49133033920248L417.5857686254297,232.65058840921947L423.38628259746224,235.0502490509486L425.3347756630029,238.05708338372426L426.42393332527956,210.34261143078643L427.4031759941153,233.99028586889096L427.4081721301808,228.16031419767336L429.91123629899073,210.30351028806533L431.2801775809347,230.10060172614263L431.64989164978084,214.173844154839L432.93889475467705,225.50899546633318L433.4235199530294,215.07142873841622L435.17216757595054,220.91970566620387L436.53111658576347,227.62268654800113L439.6187286742356,209.84232580783754L441.27744584797796,225.14571188732373L441.5922024201038,229.9135606697143L442.03685852993226,201.21704914831977L442.1417773873075,214.4398538442729L442.5614528168086,219.1356485387182L442.9111823413928,209.49231397526614L442.9861243823751,215.34572891512633L444.4399999774324,214.82766054530967L444.78972950201666,218.82848250173424L445.62908036101874,218.47881900896436L447.5775734265594,206.56559779684102L447.64751933147625,218.5097690003298L450.1455873642207,198.69456389257326L452.92343901663247,201.63857514214405L455.5713911313416,196.9089218189906L456.78045605918993,213.57412493554511L457.53986874114423,200.59575027832142L458.98375206407053,211.33799241364144L460.4176431148658,211.3292490846232L460.43263152306235,214.22830708280733L461.22202102140955,220.7084724105597L462.6209391197464,198.9974801839786L464.5094785525012,207.80971081497435L465.65858984756363,226.04606577232298L468.4614221803029,201.21535970028236L470.79461772288624,199.17034381048492L471.2842390573042,203.57236613331486L474.0820752539779,204.73597782331598L474.4817661392171,193.15326141487867L474.941410657242,206.0517269216327L477.35454437687315,200.0018134997328L477.44947096211746,175.65559584064195L477.639324132606,183.23881398390043L477.7992004867017,202.40177023029324L479.5778249260157,199.87050681154832L479.8376240014211,193.28179880164106L483.7895676292228,189.44795352907698L485.03360550952954,162.27776251602057L486.1427477160681,192.44491242847946L487.1869401537553,191.57505569310362L489.0155259537242,169.40106761932682L490.2445754258344,173.01167933008412L490.7591774405798,194.43132014667046L490.7691697127108,189.14181509450756L491.6484896602368,178.47603354562207L494.58621766674423,182.1121959808212L494.59121380280976,174.20603200756975L494.6711519798576,184.99324481126655L495.9601550847537,174.9867485877356L498.60810719946284,176.28358283482956L500.0120214338652,177.38160214020368L500.5615964010689,168.5481053643249L501.69072315186946,171.92813354346336L504.0838723272387,147.35415390514598L504.7133854714902,166.4526672882568L505.06311499607443,155.01745536877488L506.5419712714592,169.10196564874818L507.1914689599727,169.3340992924838L508.89015522223895,174.1732009812761L509.24488088288865,166.6241723895372L509.319822923871,162.7569039130169L510.4739303549989,146.9890067081984L510.52888785171933,166.95415468352095L511.75294118776407,175.32873118788186L513.1168863336426,176.34494289086803L516.9888917843964,172.1146172562093L517.4485363024214,165.48809696084655L517.5584512958621,137.01959125653968L518.4377712433882,157.96949585077078L518.8074853122343,146.96249804930238L521.8451360400516,163.34044274853005L522.8443632531494,163.44809716419104L523.024224151507,160.5261009900766L523.648741159693,161.35056904931383L524.0334436367357,151.9655284486919L524.2782543039447,162.98013747482364L524.9577288088511,157.20333987430868L525.3624158301558,158.86256943391822L526.141813056372,153.63031402813579L527.96040658421,165.14811731455907L528.3800820137111,144.56330766630532L531.1329529857954,159.91511297820335L532.2770681447925,132.92668567358214L532.5118865398704,135.14244031709666L536.8535287807802,130.25295127601393L541.7197653085664,145.30419159016688L541.889633934793,149.38525361987257L542.0894793774125,146.61166761819743L544.9872382953961,143.5380739624597L547.1006038510978,141.289366373721L547.5252754166644,149.97366921260704L547.6551749543671,158.6542273986267L547.8200474445282,149.25803992435598L548.4645489969764,136.71606537048166L548.85924374615,139.0401885262503L551.5121919969246,150.26986254584293L551.7020451674132,135.42051998065332L551.9518519706876,132.74328476807972L553.5506155116441,137.3472570908433L555.0444601952253,117.9387561183562L555.8288535575069,127.0188078057537L557.2527523361713,129.77783320372512L558.3269215902513,140.71626031526353L559.2562028984323,146.97916610880532L562.4537299803452,141.94466320834812L563.4679456016394,128.90891698581342L563.5478837786873,147.40553402587076L565.2865391294774,144.92572039581097L566.5105924655222,145.41034814468134L566.9152794868268,138.72307738793285L566.9652408474817,145.06005764026872L567.1900669704287,139.4660165166234L567.6047462638643,141.84291315232292L569.2834479818686,135.95173817797755L570.3426288277522,142.41145595938045L571.1420105982304,140.80742084132237L571.3018869523261,143.1416981023054L571.3268676326535,146.29227485418L572.67082823427,136.1447010110318L572.8656775408241,140.82718912505888L573.8049511211359,132.3901030433145L574.0497617883449,146.46656667387256L576.1681234801122,122.56554469811957L577.4571265850084,129.84986987468034L577.9667324636882,144.53225317299945L579.6054650931685,138.47680114825533L579.7153800866092,144.42526060296132L579.9152255292289,134.47998509954826L579.9202216652943,123.87662604309587L581.4790161177269,150.09299301161911L582.1035331259129,142.46170397575025L583.2926135094993,150.55450841465833L583.4375014553985,129.23501529101017L583.5474164488393,139.50898423114137L584.0820030078465,119.5145060445305L584.136960504567,130.34160375550178L586.5650826323946,134.54402737205842L586.9447889733717,137.2780768062606L587.2045880487772,133.1922773552542L587.3095069061524,128.35416843489625L588.8633052225194,139.32330169993898L588.8982781749778,137.33840925988457L589.4678376864437,136.2053643874672L589.8525401634862,133.1571472862705L590.9267094175663,139.53183532212137L591.486276656901,134.33801921343712L592.0658284404977,123.42298311957106L593.0750479257266,117.66187822711477L597.7414390108931,111.6545493459512L599.2152991502123,126.33172496423755L600.4143718059297,117.11944348818147L601.2886956173903,125.62480417102458L602.6176678108103,129.46575557553973L604.2164313517668,116.843001021692L606.0250326074737,119.37090296135219L606.4397119009093,125.20815493442163L606.7794491533625,95.43047504555179L607.0942057254883,112.61128202782713L607.7936647746568,101.05817450251938L608.0384754418657,113.47044473129621L608.2782899730092,112.00517077317524L608.4731392795633,115.59707663659077L611.4108672860707,120.40865948106266L611.5257784155771,120.26972415122476L611.7056393139346,107.10345500505899L611.8305427155718,97.49107914146742L612.3101717778587,116.49138682603358L613.129538092599,112.01551646528051L613.8240010057019,105.26908019324316L613.9489044073391,112.79814891435474L614.5434445991323,117.02732502766843L617.7159910007176,124.37011903991502L621.9826912006453,118.22014501002735L622.7221193383375,121.75934706147225L623.5664663334052,107.16418804945474L624.5906742268304,124.41933945387039L625.4799864464875,95.65240233310276L625.5449362153388,126.57686909956013L625.8147275628752,110.1989766513027L625.8946657399231,109.38683982103939L628.4876603579117,106.2862149967034L629.1971116792112,117.65604353543925L629.237080767735,115.37797090143209L630.7009486349233,93.61510216990904L632.9641982725898,112.02100281715454L634.662884534856,97.77846818621981L634.682869079118,102.94434744282187L635.3023899512385,107.91580083920324L637.9653304741441,97.82835915429311L638.4349672643001,114.88409473083128L643.6809101330634,93.79632595165197L644.2554657805947,99.62400728867452L644.5602300805895,113.2278783105049L644.9449325576321,103.00020372999623L646.7385454051425,85.89488198271113L646.8084913100595,95.05958895037404L651.0502108296595,105.8680504819638L651.6147742050598,100.51688928493111L653.7381320328925,89.62888435966333L653.9729504279705,93.08915261208287L654.0379001968219,87.16123649717176L654.8123012869726,82.31428845435015L655.4418144312242,97.17690276597781L656.3161382426848,93.44618349165498L656.5059914131733,76.89595863508858L656.5209798213699,86.1113664608633L657.320361591848,85.83041299394405L659.5286537327942,90.35140206748954L663.9852071032102,89.70985594652763L664.6896622884441,94.81552466843621L666.8080239802115,99.97588273918409L666.9828887425035,90.72641598931531L668.0770425408457,79.20269092626611L668.0970270851076,96.40593099175962L668.9363779441096,106.86628785119134L671.5343686981639,97.32083677196758L672.5635727276546,93.28624327178522L673.3329776817399,106.19117048185753L674.66194987516,100.89577848704886L677.0800797308566,93.91154804950109L678.2791523865739,97.30900192721079L680.5823711127642,75.97692502823256L681.7914360406126,83.44332741904998L682.3510032799473,98.3618589773173L684.3044924815536,82.5175360200444L685.2337737897344,99.56186346808263L685.9482212470994,76.51672980166434L686.6326918880713,80.67332060883548L687.7118572782168,107.01288665666273L689.7053155683469,97.61740457049012L690.369801665057,85.97715984383113L690.3947823453844,89.09481848446168L691.279098428976,88.18352672969452L693.8970737272921,98.09976811065059L694.0419616731913,87.58156071868079L694.9662468453067,102.20842736113201L695.2060613764502,83.05587776630979L695.6107483977548,104.06490433335458L696.7148944682278,99.08047527936645L698.1687700632851,86.86853527044612L698.1887546075471,92.26892558992921L698.4935189075419,86.20015827627181L700.3720660681657,94.69659275170086L703.1499177205775,94.76073952615151L704.0941874369549,83.4006209593831L704.8635923910401,95.62850622271822L704.9884957926774,110.6826987166891L706.6472129664197,95.67649003037813L707.5265329139457,99.51501176477767L709.4150723467006,88.26874806213742L710.9488861188057,77.82428420615024L711.6533413040397,85.78335228675819L715.275539951519,82.25066418960178L715.6552462924961,103.2109493099183L715.9300337760982,92.67355710337955L716.6694619137904,108.61023365053157L719.107576313749,102.09563493339854L719.9269426284892,102.55497321267823L720.9461543858489,91.79059408297135L726.5118499628035,84.87889670059594L726.6467456365717,93.4218867904987L727.1313708349242,98.78766955070036L727.6209921693421,77.8983064139741L729.1348213971852,70.64588045473792L729.5345122824243,85.69604962400118L731.8976846414006,77.16050529735601L732.0525648594307,93.3460270902218L734.1359535987397,103.38867227665588L734.3258067692282,94.8920636313261L738.3576885740777,86.95056929370503L738.8473099084955,94.67877517085292L741.1555247707515,79.53116665060826L741.4752774789428,101.45232098794388L742.3545974264687,82.84495801648694L743.7735000690677,103.7474448552356L747.0209885116353,92.2130693027548L747.9502698198163,98.9764261806512L748.1451191263703,101.98542022019629L748.4249027460377,96.38745156528879L752.1969854754819,99.76027781903073L752.3668541017084,102.54297290651573L752.7915256672751,90.53329640335039L753.3111238180859,97.11285178497259L753.5109692607055,87.45475632243101L756.378751362296,79.39890202796957L758.177360345872,106.04357890795178L758.7269353130758,89.89045271662776L759.1665952868389,84.44202633851454L763.8779515965948,91.47690538320388L764.1077738556073,92.75279569973124L764.3325999785544,94.52126462109874L764.4025458834712,103.289273514291L765.5266764982061,100.13063269601116L766.2561123637677,94.36736809678541L767.0504979981803,92.07819213160468L768.9440335670006,94.6916637435093L770.7476386866421,97.13363896262854L771.0324184423748,96.75367861562113L772.781066065296,94.83138283790059L772.8210351538199,90.82891497591378L774.3948180144489,93.2467937892626L774.9893582062421,92.24885250886636L775.3690645472192,106.13651596699842L775.3890490914813,84.75972094599952L780.4501349258215,108.24195139537024L780.5700421913932,76.70323093140033L781.2145437438413,101.9754925358529L781.5792616766221,87.9554860786268L782.938210686435,81.08093913608393L785.1065337388571,78.88627646755174L785.7460391552397,98.78000607506681L785.9608730060556,91.10459980333496L787.8344240306141,95.9869304614964L788.3640144535559,101.42210251016165L790.8171172617109,89.20167171857918L791.0519356567889,101.74922841777293L795.3985740337642,100.61207313569757L795.5784349321218,91.36715222023871L796.5876544173506,88.25088693881423L796.612635097678,94.57125138261746L801.1890957336659,71.84109527323228L801.4189179926783,90.1481109593201L802.0334427287335,84.60087799650455L802.1233731779122,107.53342823907023L802.2232958992221,103.72617871035257L806.1152858942379,83.33842488782098L806.1252781663688,85.50958332824536L807.9188910138794,94.95194324320808L808.0188137351892,84.75418234315528L808.2036707696122,98.9183753527272L809.0080486761559,86.73290916872271L809.3627743368057,90.11138723574443L809.5376390990976,98.28831573672053L811.2213369531676,89.9370431650816L811.7359389679128,78.50177899462943L811.9008114580739,88.57971971145297L812.4353980170813,99.69985828045641L812.5153361941291,88.90063646210207L813.1048802498567,80.86873052899546L815.3231646629339,98.15659974926928L815.3481453432612,85.75637336913013L816.8819591153663,84.26392019799525L817.8562056481368,96.75446238017453L818.400784479275,89.16584496999243L820.5391307153043,100.58619148844434L821.0437404579187,93.54512941227789L821.9230604054446,102.20344610197024L822.7524189923157,85.53652741189323L824.1713216349148,98.88199126045802L825.115591351292,96.5196726454523L825.585228141448,101.34120059125769L825.8150504004604,91.09089263214501L826.0948340201279,98.61445758439251L826.299675598813,87.4859588601525L828.0633116299305,71.91342803301875L829.2074267889274,88.44725479342843L831.470676426594,87.39684483042761L832.1001895708456,95.01985208751518L833.2243201855805,83.3854420525317L833.2343124577114,98.50040242487846L835.2777321084964,104.57393328532171L836.6616617986368,80.19248976380175L840.3188333985746,86.60142831063747L843.4214338952434,88.4967974217002L843.9210475017923,77.12164799249604L844.6654717755499,73.28699282989342L845.8095869345469,85.58074044120168L847.5532384214026,100.79078887086949L848.067840436148,94.34379420071726L850.6708273262676,90.46368069401579L850.8856611770838,85.79228720266724L851.3602941033051,95.80898978238288L851.8998767983779,81.46169195613979L853.3937214819591,96.48986346693685L853.6235437409716,85.97222212714452L854.0082462180143,85.82769594349219L854.0332268983417,100.99101458878552L855.1323768327492,96.09580406646276L857.0059278573076,88.56574257691682L858.6896257113773,88.09238362062575L859.6388915638203,85.55939591986329L860.0685592654523,84.52801401852076L860.9828521654367,84.28417615745387L861.8371914326352,90.43631860260606L865.7241852915856,101.27964894832837L866.3137293473133,80.95938596234208L866.3836752522303,94.71066567968244L866.4885941096054,99.91123087202119L866.6584627358321,87.77451484324L866.8932811309102,77.43167041585247L867.5677594997511,88.17121291771065L868.0673731063,68.18005266770928L871.359826773457,82.06038357301925L872.8686598652348,72.11812991738437L872.8836482734312,83.64896982087971L873.8179257176777,80.62220174296182L874.0527441127557,80.09458886258338L875.2867897209314,82.84137011653127L875.681484470105,90.09163636899801L877.3901630045023,81.11545961041494L877.7748654815449,90.46543110151843L879.3486483421739,90.1152450990463L879.6234358257758,88.41179380163325L882.671078825724,90.67475719674931L885.4839034305943,77.83798266884519L886.2433161125485,77.90017874040731L887.2525355977772,84.59061068085462L887.4473849043312,98.05249839958378L887.7771298846536,76.71012805947053L887.8071067010466,87.54075271093224L890.4800394960831,96.73848229177962L891.8090116895031,88.21687155719542L892.973111392762,71.35471711685925L893.8124622517641,88.23746714796053L894.2571183615927,74.17288190463442L894.4119985796227,87.32158601630833L894.6218362943733,80.16600723039085L895.2463533025593,88.35346430186806L896.3604916451635,88.24025386637274L896.4754027746698,94.86922124884114L896.6053023123725,84.03818729811265L897.3397343139992,92.02275385219212L897.5295874844878,97.52236005564431L899.9177405237916,90.67178759994133L900.9069754647584,76.54635610178396L901.0968286352469,80.048782178683L901.3166586221286,91.00686436352235L901.4715388401586,96.56342412452372L902.1610056171961,95.93908598975709L902.7105805843997,95.13256613879334L902.8254917139061,96.18382082581287L904.6590736499405,78.06724250921822L904.9538456778042,63.871786002459515L904.9838224941973,83.78396891096034L905.2186408892753,91.96007010490786L906.3627560482723,84.0927634365164L906.7024933007255,87.48052475924871L906.9073348794104,68.58524152484206L906.9922691925237,86.67494542574913L907.1571416826849,75.2978627106465L909.795101525263,76.31114835929988L910.714390561313,92.57910476619631L911.9983975301437,83.12658203752412L913.6221417514275,95.37980902142009L913.9269060514224,66.35964628193453L914.2566510317446,86.33855367941732L917.1644022218592,95.81017413770806L917.6390351480806,77.12541877084753L917.8488728628311,81.17856136546105L920.3969022562304,87.5473450416761L920.4418674808198,94.92849997456551L921.4660753742451,76.18066026964895L922.7300977988137,88.6428475919842L925.512945587291,90.14549841080867L926.1274703233462,87.91930228174351L926.5971071135021,86.03811060060279L927.4764270610282,90.22660933359356L930.1893289445887,91.53623635989848L931.2285252462103,90.62518844299244L931.5232972740743,78.02612970414336L932.042895424885,80.62103480462673L934.4710175527127,72.94384329141208L936.8891474084094,74.32576824352334L937.4537107838095,75.30903570978037L938.5578568542826,81.39817219333189L941.005963526372,89.57856667533318L941.280751009974,84.82179509863111L941.3207200984979,81.10697753624787L942.2500014066788,90.29890725939985L942.6996536525729,93.92029137851931L943.6339310968192,99.27535398132906L943.8487649476353,66.57485931981115L944.3533746902496,87.27544840959646L944.4033360509045,90.98688707590493L944.7380771672922,96.46182211291419L944.9629032902393,88.12289818723926L946.5566706951303,73.47956378067099L946.9563615803693,88.82111048541414L947.2561297442987,95.46970681569843L947.7207703983892,86.64972562411876L948.9748005508269,78.30248508568246L949.7891707295016,82.50539637796129L951.2930076852136,68.66109251662395L953.8610216228749,89.7564986459517L954.1657859228698,95.93877248393572L955.39483539498,86.58136393806969L955.4847658441589,86.186947489299L955.6096692457961,100.65861133318117L957.927876380183,84.39247500174773L959.9862844391644,83.50052481446023L960.1611492014565,77.53446549128219L960.7107241686602,78.23231203266548L960.9055734752144,68.60868479348467L961.7848934227403,79.83068662894874L968.3498162127927,86.69250175174594L969.159190255402,81.55984540371425L969.4639545553968,100.60263312707627L970.0534986111245,79.9764755443816L971.4224398930684,86.45176411491263L974.6249631110467,82.605674698325L977.0480891028088,97.31465374049053L980.400496402752,69.28285293685933L980.4454616273414,87.17659828241898L980.6602954781573,93.64062676886572L981.7544492764994,77.13363088166844L984.0426795944933,72.0718268492668L984.7621231879236,96.40752464635159L985.5165397338125,85.36860150207352L986.4358287698624,94.72717698627467L986.4757978583864,79.74082366865058L986.675643301006,70.29379600034746L988.5691788698263,93.25826287722778L988.9488852108034,74.82702921791648L989.8531858386568,92.03552050591797L990.722513514052,89.35219805531278L993.1156626894211,68.06553595795825L993.87007923531,74.69469492731749L995.8185723008505,72.68588895988844L996.2032747778932,84.32374755890704L999.235929369645,91.01626082966847L999.5057207171814,82.55218712180101L1001.8339201236993,88.97289084543318L1002.1936419204144,68.77665424577957L1002.7582052958146,79.21433418413207L1003.5775716105549,53.06779192882432L1003.9223049990735,93.2132399578808L1005.2063119679042,87.33254130306625L1005.3212230974104,82.20012008440061L1006.0756396432993,82.32453835300997L1006.1256010039542,85.54493981810006L1006.7701025564022,86.12395023619337L1008.4787810907994,71.49124890206659L1008.6336613088296,63.07973967024912L1009.5529503448795,82.70639715193572L1010.7770036809244,54.164504959942725L1012.8154271956437,73.64995419458648L1013.604816693991,90.52188827485045L1013.8895964497239,84.02505488759516L1014.9987386562625,97.87382620688705L1015.658228616907,91.99048887807594L1017.0971158037678,78.26363648931749L1018.5959566234144,83.65129498905486L1018.7358484332481,91.61878418436464L1018.8857325152128,64.79400691849948L1018.9706668283261,89.86943040960581L1019.0705895496358,92.64194526639123L1021.0590517037004,62.1967679413459L1021.8534373381132,65.11724012882871L1022.5079311626921,94.05689283168701L1023.5771042807067,84.13000966979439L1023.8868647167671,98.34202973411557L1026.1700988986956,82.5554963499155L1026.5098361511489,84.50844603017013L1027.359179282282,80.1171961157023L1027.4041445068713,84.554810057753L1028.0186692429265,76.32974099620623L1028.3034489986592,85.37605597382613L1028.3683987675106,89.57723427559235L1029.2177418986437,89.89060946953848L1030.321887969117,74.59867506102738L1030.8564745281242,83.28590395424622L1033.6093455002085,81.5443878250216L1033.799198670697,87.61289388382788L1035.8276299132856,90.03851454926559L1036.5320850985195,103.1680686803507L1037.6612118493201,65.9314060384359L1038.4955665722566,102.4239974473052L1040.074345568951,83.82741559270545L1040.3441369164875,81.02779989936143L1040.593943719762,86.55244302604812L1041.5532018443357,66.0866697964702L1042.05781158695,94.14888937326953L1042.6123826902194,96.21622513584961L1043.067031072179,77.37173855300024L1044.386010993468,74.42022928920164L1047.633499436036,98.5301158099485L1049.2672359294506,89.9372695859526L1049.6719229507553,103.35634634307445L1049.7268804474754,81.25887981519745L1050.1015906523871,103.61094790400838L1050.3913665441855,92.81002792912166L1052.000122357273,90.83609077582518L1052.1599987113686,89.20256869356811L1052.694585270376,76.92568072865362L1054.0085690555995,100.33610092794014L1055.342537385085,101.62387834019447L1057.0012545588274,90.55092239730752L1057.5308449817692,96.44398711507613L1057.9705049555323,105.82936734700456L1058.3102422079855,81.76785651619436L1058.6699640047007,92.9984188022809L1059.7491293948462,62.73061610417163L1060.943205914498,87.80443723219093L1061.013151819415,70.08372968303834L1061.402850432523,65.30795617016314L1062.4620312784068,96.14517252483374L1064.8002229570554,89.41445508634015L1068.0876804881473,91.3389715302954L1070.865532140559,88.14892787890815L1074.1629819437817,98.14162984629877L1074.3278544339428,102.22502575267465L1074.9473753060633,118.13248529897379L1075.097259388028,100.25915266578346L1079.2190716420564,107.39219386654233L1079.5388243502478,103.27742996103919L1079.643743207623,79.98068174748502L1080.1183761338443,84.83222787568675L1082.1617957846292,88.82263447204582L1082.3866219075765,87.28468812283188L1085.0945276550713,96.53386749236441L1086.9680786796298,93.06397635292774L1088.187135879609,101.1994262920374L1088.3520083697701,92.45290125610414L1088.471915635342,114.46107087586043L1088.801660615664,101.31704322602198L1089.8158762369583,88.14529643647728L1092.4138669910126,101.79780440309545L1093.9376884909868,86.98201566928763L1095.6413708893183,96.53526956006554L1095.7962511073486,98.00687459407918L1096.6106212860234,116.71167691651743L1097.7147673564964,89.7341003967137L1098.9438168286065,94.38129298035132L1099.9680247220317,95.38551308567006L1101.8915371072449,98.33417467159119L1101.9065255154414,109.2141155304537L1102.106370958061,96.60350061868907L1103.914972213768,105.57715191371105L1104.4995201334302,79.72840535472622L1104.8642380662109,97.10636395616922L1105.6386391563617,99.95508685303308L1106.9476268055196,98.25937740770894L1107.1025070235498,96.82804045475147L1108.5214096661487,97.17473435071334L1111.3292381349534,105.74022719179455L1112.5832682873913,86.8405984183639L1113.8872598004837,102.40616244946717L1113.9122404808113,92.6690199774647L1113.9971747939246,106.1916407405896L1114.266966141461,87.09385887106198L1115.84074900209,114.54573486462087L1116.6850959971575,91.88642236237067L1116.944895072563,103.12496162991208L1117.6843232102553,90.7461842730518L1118.5836277020435,91.52446247460699L1118.633589062698,92.02008905271049L1118.888392002038,86.55961011746452L1119.0432722200683,96.29968735229481L1119.4129862889145,106.67062538467528L1119.8826230790705,101.35226037995608L1119.9125998954632,109.94284239524204L1120.4122135020123,106.3427157125106L1122.6255017790238,98.29395884150526L1122.9102815347567,108.08993590598513L1123.7446362576932,93.98321025516964L1124.4740721232547,88.41111453902028L1125.4283341117632,113.63425152296288L1126.152773841259,105.58760210775677L1126.6074222232185,79.87269640901253L1126.7822869855106,93.30770971205415L1127.0071131084576,101.99364103951228L1127.381823313369,99.80801778882962L1128.0463094100792,89.89397094862315L1131.998253037881,95.64515686523104L1134.0666533689932,107.71331091257727L1137.384087716478,95.25809038627253L1137.5039949820498,95.8022145732432L1137.7238249689312,112.93539479615524L1138.0435776771224,94.67176483234722L1138.5032221951476,102.25165633050116L1139.0278164820238,91.22128492835049L1139.757252347585,113.12626759040032L1140.1319625524968,106.25810397472038L1142.1553976590199,98.30345110109674L1143.044709878677,109.37682505174558L1144.508577745865,101.99066273420924L1145.1580754343788,104.9849916681102L1145.2579981556885,107.8665630082578L1145.8225615310887,105.60101319011547L1146.2921983212448,78.29357629525849" style="fill: none;" fill="none"></path></g></g></g></g></g></g><g transform="translate(40, 374)" clip-path="url(#clip_1)"><clipPath id="clip_1"><rect width="1403" height="26"></rect></clipPath><g><g><line x1="47.147260049756724" y1="0" x2="47.147260049756724" y2="5" style="visibility: inherit;" fill="rgb(0, 0, 0)" stroke="rgb(204, 204, 204)" stroke-width="1px"></line><line x1="147.0699813595343" y1="0" x2="147.0699813595343" y2="5" style="visibility: inherit;" fill="rgb(0, 0, 0)" stroke="rgb(204, 204, 204)" stroke-width="1px"></line><line x1="246.9927026693119" y1="0" x2="246.9927026693119" y2="5" style="visibility: inherit;" fill="rgb(0, 0, 0)" stroke="rgb(204, 204, 204)" stroke-width="1px"></line><line x1="346.9154239790895" y1="0" x2="346.9154239790895" y2="5" style="visibility: inherit;" fill="rgb(0, 0, 0)" stroke="rgb(204, 204, 204)" stroke-width="1px"></line><line x1="446.83814528886705" y1="0" x2="446.83814528886705" y2="5" style="visibility: inherit;" fill="rgb(0, 0, 0)" stroke="rgb(204, 204, 204)" stroke-width="1px"></line><line x1="546.7608665986446" y1="0" x2="546.7608665986446" y2="5" style="visibility: inherit;" fill="rgb(0, 0, 0)" stroke="rgb(204, 204, 204)" stroke-width="1px"></line><line x1="646.6835879084223" y1="0" x2="646.6835879084223" y2="5" style="visibility: inherit;" fill="rgb(0, 0, 0)" stroke="rgb(204, 204, 204)" stroke-width="1px"></line><line x1="746.6063092181998" y1="0" x2="746.6063092181998" y2="5" style="visibility: inherit;" fill="rgb(0, 0, 0)" stroke="rgb(204, 204, 204)" stroke-width="1px"></line><line x1="846.5290305279774" y1="0" x2="846.5290305279774" y2="5" style="visibility: inherit;" fill="rgb(0, 0, 0)" stroke="rgb(204, 204, 204)" stroke-width="1px"></line><line x1="946.451751837755" y1="0" x2="946.451751837755" y2="5" style="visibility: inherit;" fill="rgb(0, 0, 0)" stroke="rgb(204, 204, 204)" stroke-width="1px"></line><line x1="1046.3744731475326" y1="0" x2="1046.3744731475326" y2="5" style="visibility: inherit;" fill="rgb(0, 0, 0)" stroke="rgb(204, 204, 204)" stroke-width="1px"></line><line x1="1146.2971944573103" y1="0" x2="1146.2971944573103" y2="5" style="visibility: inherit;" fill="rgb(0, 0, 0)" stroke="rgb(204, 204, 204)" stroke-width="1px"></line><line x1="1246.2199157670877" y1="0" x2="1246.2199157670877" y2="5" style="visibility: inherit;" fill="rgb(0, 0, 0)" stroke="rgb(204, 204, 204)" stroke-width="1px"></line><line x1="1346.1426370768654" y1="0" x2="1346.1426370768654" y2="5" style="visibility: inherit;" fill="rgb(0, 0, 0)" stroke="rgb(204, 204, 204)" stroke-width="1px"></line></g><g transform="translate(0, 8)"><text x="47.147260049756724" y="0" dx="0em" dy="0.95em" style="text-anchor: middle; visibility: inherit; font-family: Roboto, sans-serif; font-size: 12px; font-weight: 200;" fill="rgb(33, 33, 33)" stroke="none" stroke-width="1px">-20k</text><text x="147.0699813595343" y="0" dx="0em" dy="0.95em" style="text-anchor: middle; visibility: inherit; font-family: Roboto, sans-serif; font-size: 12px; font-weight: 200;" fill="rgb(33, 33, 33)" stroke="none" stroke-width="1px">0</text><text x="246.9927026693119" y="0" dx="0em" dy="0.95em" style="text-anchor: middle; visibility: inherit; font-family: Roboto, sans-serif; font-size: 12px; font-weight: 200;" fill="rgb(33, 33, 33)" stroke="none" stroke-width="1px">20k</text><text x="346.9154239790895" y="0" dx="0em" dy="0.95em" style="text-anchor: middle; visibility: inherit; font-family: Roboto, sans-serif; font-size: 12px; font-weight: 200;" fill="rgb(33, 33, 33)" stroke="none" stroke-width="1px">40k</text><text x="446.83814528886705" y="0" dx="0em" dy="0.95em" style="text-anchor: middle; visibility: inherit; font-family: Roboto, sans-serif; font-size: 12px; font-weight: 200;" fill="rgb(33, 33, 33)" stroke="none" stroke-width="1px">60k</text><text x="546.7608665986446" y="0" dx="0em" dy="0.95em" style="text-anchor: middle; visibility: inherit; font-family: Roboto, sans-serif; font-size: 12px; font-weight: 200;" fill="rgb(33, 33, 33)" stroke="none" stroke-width="1px">80k</text><text x="646.6835879084223" y="0" dx="0em" dy="0.95em" style="text-anchor: middle; visibility: inherit; font-family: Roboto, sans-serif; font-size: 12px; font-weight: 200;" fill="rgb(33, 33, 33)" stroke="none" stroke-width="1px">100k</text><text x="746.6063092181998" y="0" dx="0em" dy="0.95em" style="text-anchor: middle; visibility: inherit; font-family: Roboto, sans-serif; font-size: 12px; font-weight: 200;" fill="rgb(33, 33, 33)" stroke="none" stroke-width="1px">120k</text><text x="846.5290305279774" y="0" dx="0em" dy="0.95em" style="text-anchor: middle; visibility: inherit; font-family: Roboto, sans-serif; font-size: 12px; font-weight: 200;" fill="rgb(33, 33, 33)" stroke="none" stroke-width="1px">140k</text><text x="946.451751837755" y="0" dx="0em" dy="0.95em" style="text-anchor: middle; visibility: inherit; font-family: Roboto, sans-serif; font-size: 12px; font-weight: 200;" fill="rgb(33, 33, 33)" stroke="none" stroke-width="1px">160k</text><text x="1046.3744731475326" y="0" dx="0em" dy="0.95em" style="text-anchor: middle; visibility: inherit; font-family: Roboto, sans-serif; font-size: 12px; font-weight: 200;" fill="rgb(33, 33, 33)" stroke="none" stroke-width="1px">180k</text><text x="1146.2971944573103" y="0" dx="0em" dy="0.95em" style="text-anchor: middle; visibility: inherit; font-family: Roboto, sans-serif; font-size: 12px; font-weight: 200;" fill="rgb(33, 33, 33)" stroke="none" stroke-width="1px">200k</text><text x="1246.2199157670877" y="0" dx="0em" dy="0.95em" style="text-anchor: middle; visibility: inherit; font-family: Roboto, sans-serif; font-size: 12px; font-weight: 200;" fill="rgb(33, 33, 33)" stroke="none" stroke-width="1px">220k</text><text x="1346.1426370768654" y="0" dx="0em" dy="0.95em" style="text-anchor: middle; visibility: inherit; font-family: Roboto, sans-serif; font-size: 12px; font-weight: 200;" fill="rgb(33, 33, 33)" stroke="none" stroke-width="1px">240k</text></g><line x1="0" y1="0" x2="1403.15625" y2="0" fill="rgb(0, 0, 0)" stroke="rgb(204, 204, 204)" stroke-width="1px"></line></g></g></g></g></svg>