<svg viewBox="0 0 1444 400" xmlns="http://www.w3.org/2000/svg"><g><g><g><g><g><line x1="51.125" y1="360.1203702959561" x2="46.125" y2="360.1203702959561" style="visibility: inherit;" fill="rgb(0, 0, 0)" stroke="rgb(204, 204, 204)" stroke-width="1px"></line><line x1="51.125" y1="312.1188114872145" x2="46.125" y2="312.1188114872145" style="visibility: inherit;" fill="rgb(0, 0, 0)" stroke="rgb(204, 204, 204)" stroke-width="1px"></line><line x1="51.125" y1="264.1172526784729" x2="46.125" y2="264.1172526784729" style="visibility: inherit;" fill="rgb(0, 0, 0)" stroke="rgb(204, 204, 204)" stroke-width="1px"></line><line x1="51.125" y1="216.1156938697313" x2="46.125" y2="216.1156938697313" style="visibility: inherit;" fill="rgb(0, 0, 0)" stroke="rgb(204, 204, 204)" stroke-width="1px"></line><line x1="51.125" y1="168.11413506098967" x2="46.125" y2="168.11413506098967" style="visibility: inherit;" fill="rgb(0, 0, 0)" stroke="rgb(204, 204, 204)" stroke-width="1px"></line><line x1="51.125" y1="120.11257625224803" x2="46.125" y2="120.11257625224803" style="visibility: inherit;" fill="rgb(0, 0, 0)" stroke="rgb(204, 204, 204)" stroke-width="1px"></line><line x1="51.125" y1="72.11101744350646" x2="46.125" y2="72.11101744350646" style="visibility: inherit;" fill="rgb(0, 0, 0)" stroke="rgb(204, 204, 204)" stroke-width="1px"></line><line x1="51.125" y1="24.109458634764824" x2="46.125" y2="24.109458634764824" style="visibility: inherit;" fill="rgb(0, 0, 0)" stroke="rgb(204, 204, 204)" stroke-width="1px"></line></g><g transform="translate(41.125, 0)"><text x="0" y="360.1203702959561" dx="0em" dy="0.3em" style="text-anchor: end; visibility: inherit; font-family: Roboto, sans-serif; font-size: 12px; font-weight: 200;" fill="rgb(33, 33, 33)" stroke="none" stroke-width="1px">-200</text><text x="0" y="312.1188114872145" dx="0em" dy="0.3em" style="text-anchor: end; visibility: inherit; font-family: Roboto, sans-serif; font-size: 12px; font-weight: 200;" fill="rgb(33, 33, 33)" stroke="none" stroke-width="1px">-150</text><text x="0" y="264.1172526784729" dx="0em" dy="0.3em" style="text-anchor: end; visibility: inherit; font-family: Roboto, sans-serif; font-size: 12px; font-weight: 200;" fill="rgb(33, 33, 33)" stroke="none" stroke-width="1px">-100</text><text x="0" y="216.1156938697313" dx="0em" dy="0.3em" style="text-anchor: end; visibility: inherit; font-family: Roboto, sans-serif; font-size: 12px; font-weight: 200;" fill="rgb(33, 33, 33)" stroke="none" stroke-width="1px">-50</text><text x="0" y="168.11413506098967" dx="0em" dy="0.3em" style="text-anchor: end; visibility: inherit; font-family: Roboto, sans-serif; font-size: 12px; font-weight: 200;" fill="rgb(33, 33, 33)" stroke="none" stroke-width="1px">0</text><text x="0" y="120.11257625224803" dx="0em" dy="0.3em" style="text-anchor: end; visibility: inherit; font-family: Roboto, sans-serif; font-size: 12px; font-weight: 200;" fill="rgb(33, 33, 33)" stroke="none" stroke-width="1px">50</text><text x="0" y="72.11101744350646" dx="0em" dy="0.3em" style="text-anchor: end; visibility: inherit; font-family: Roboto, sans-serif; font-size: 12px; font-weight: 200;" fill="rgb(33, 33, 33)" stroke="none" stroke-width="1px">100</text><text x="0" y="24.109458634764824" dx="0em" dy="0.3em" style="text-anchor: end; visibility: inherit; font-family: Roboto, sans-serif; font-size: 12px; font-weight: 200;" fill="rgb(33, 33, 33)" stroke="none" stroke-width="1px">150</text></g><line x1="51.125" y1="0" x2="51.125" y2="374" fill="rgb(0, 0, 0)" stroke="rgb(204, 204, 204)" stroke-width="1px"></line></g></g><g transform="translate(51, 0)" clip-path="url(#clip_0)"><clipPath id="clip_0"><rect width="1392" height="374"></rect></clipPath><g><g><g><line x1="47.95059747859449" y1="0" x2="47.95059747859449" y2="374" fill="rgb(0, 0, 0)" stroke="rgb(66, 66, 66)" stroke-width="1px" opacity="0.25"></line><line x1="226.72110877732717" y1="0" x2="226.72110877732717" y2="374" fill="rgb(0, 0, 0)" stroke="rgb(66, 66, 66)" stroke-width="1px" opacity="0.25"></line><line x1="405.4916200760598" y1="0" x2="405.4916200760598" y2="374" fill="rgb(0, 0, 0)" stroke="rgb(66, 66, 66)" stroke-width="1px" opacity="0.25"></line><line x1="584.2621313747926" y1="0" x2="584.2621313747926" y2="374" fill="rgb(0, 0, 0)" stroke="rgb(66, 66, 66)" stroke-width="1px" opacity="0.25"></line><line x1="763.0326426735253" y1="0" x2="763.0326426735253" y2="374" fill="rgb(0, 0, 0)" stroke="rgb(66, 66, 66)" stroke-width="1px" opacity="0.25"></line><line x1="941.8031539722579" y1="0" x2="941.8031539722579" y2="374" fill="rgb(0, 0, 0)" stroke="rgb(66, 66, 66)" stroke-width="1px" opacity="0.25"></line><line x1="1120.5736652709904" y1="0" x2="1120.5736652709904" y2="374" fill="rgb(0, 0, 0)" stroke="rgb(66, 66, 66)" stroke-width="1px" opacity="0.25"></line><line x1="1299.3441765697232" y1="0" x2="1299.3441765697232" y2="374" fill="rgb(0, 0, 0)" stroke="rgb(66, 66, 66)" stroke-width="1px" opacity="0.25"></line></g><g><line x1="0" y1="360.1203702959561" x2="1392.875" y2="360.1203702959561" fill="rgb(0, 0, 0)" stroke="rgb(66, 66, 66)" stroke-width="1px" opacity="0.25"></line><line x1="0" y1="312.1188114872145" x2="1392.875" y2="312.1188114872145" fill="rgb(0, 0, 0)" stroke="rgb(66, 66, 66)" stroke-width="1px" opacity="0.25"></line><line x1="0" y1="264.1172526784729" x2="1392.875" y2="264.1172526784729" fill="rgb(0, 0, 0)" stroke="rgb(66, 66, 66)" stroke-width="1px" opacity="0.25"></line><line x1="0" y1="216.1156938697313" x2="1392.875" y2="216.1156938697313" fill="rgb(0, 0, 0)" stroke="rgb(66, 66, 66)" stroke-width="1px" opacity="0.25"></line><line x1="0" y1="168.11413506098967" x2="1392.875" y2="168.11413506098967" fill="rgb(0, 0, 0)" stroke="rgb(66, 66, 66)" stroke-width="1px" opacity="0.25"></line><line x1="0" y1="120.11257625224803" x2="1392.875" y2="120.11257625224803" fill="rgb(0, 0, 0)" stroke="rgb(66, 66, 66)" stroke-width="1px" opacity="0.25"></line><line x1="0" y1="72.11101744350646" x2="1392.875" y2="72.11101744350646" fill="rgb(0, 0, 0)" stroke="rgb(66, 66, 66)" stroke-width="1px" opacity="0.25"></line><line x1="0" y1="24.109458634764824" x2="1392.875" y2="24.109458634764824" fill="rgb(0, 0, 0)" stroke="rgb(66, 66, 66)" stroke-width="1px" opacity="0.25"></line></g></g></g><g><g><line x1="0" y1="168.11413506098967" x2="1392.875" y2="168.11413506098967" fill="rgb(0, 0, 0)" stroke="rgb(153, 153, 153)" stroke-width="1.5px"></line></g></g><g><g><line x1="47.95059747859449" y1="0" x2="47.95059747859449" y2="374" fill="rgb(0, 0, 0)" stroke="rgb(153, 153, 153)" stroke-width="1.5px"></line></g></g><g><g><g><g><g><path stroke="rgb(255, 112, 67)" stroke-width="2px" d="M47.95059747859449,270.141398502665L48.84445003508815,274.33904062401837L49.73830259158181,277.3820100815462L50.632155148075476,277.43151808531746L51.52600770456914,278.56330752775864L52.4198602610628,278.18279656230504L53.31371281755647,277.31740158813164L54.20756537405013,275.9120955749835L55.101417930543796,274.57190075532833L55.99527048703746,273.4953690912154L56.88912304353112,272.6762994579909L57.78297560002478,272.217498832061L58.67682815651844,272.6056936754344L59.57068071301211,274.6126618333385L60.464533269505765,276.39994465323434L61.35838582599943,277.8223972313923L62.2522383824931,279.06296018631167L63.14609093898676,279.51967530079276L64.03994349548041,279.43436874846964L64.93379605197408,279.17849217633164L65.82764860846774,278.9981758788926L66.72150116496141,278.5170701724766L67.61535372145508,278.704756908499L68.50920627794873,277.16729977412916L69.4030588344424,276.86790034485347L70.29691139093606,277.30855558393137L71.19076394742973,277.91544529727724L72.0846165039234,287.24184825258584L72.97846906041705,295.29717747967527L73.87232161691071,292.16323937958776L74.76617417340438,288.8829875678978L75.66002672989805,285.24096684808615L76.55387928639172,290.9167298504454L77.44773184288537,287.8971230737644L78.34158439937903,284.2991281157038L79.2354369558727,282.9767826979843L80.12928951236637,282.09033124083527L81.02314206886003,281.72113647733596L81.9169946253537,278.53846216677067L82.81084718184735,281.2976461308308L83.70469973834102,284.9985298797559L84.59855229483469,290.6284436275424L85.49240485132835,295.3988228535413L86.38625740782201,296.75441194352373L87.28010996431566,291.3598085549466L88.17396252080934,291.9698007311591L89.067815077303,292.68888087925575L89.96166763379667,294.5529495122813L90.85552019029032,298.71080618134226L91.74937274678398,293.8152748724494L92.64322530327766,289.69905385457474L93.53707785977132,286.32032817956593L94.43093041626499,283.1502833472668L95.32478297275864,281.63704396845793L96.2186355292523,280.2548520726804L97.11248808574597,279.72431543910966L98.00634064223964,278.97032213533566L98.9001931987333,278.9000376934618L99.79404575522696,281.346619904236L100.68789831172062,280.5731402125939L101.58175086821429,280.9160436924707L102.47560342470794,278.4984291436467L103.36945598120163,282.6507488718774L104.26330853769528,279.6232661112282L105.15716109418894,278.636447394586L106.0510136506826,278.05956710456996L106.94486620717626,277.59003923418607L107.83871876366995,278.9981912281987L108.7325713201636,278.9096459625983L109.62642387665726,281.4936437023516L110.52027643315091,281.0461818305884L111.41412898964458,281.52658182906885L112.30798154613824,286.3904340592391L113.20183410263192,289.27719516549257L114.09568665912558,289.90224924090205L114.98953921561923,292.56177986307296L115.8833917721129,302.5469640660946L116.77724432860656,303.85208280985273L117.67109688510024,301.518210700837L118.5649494415939,296.75292352274045L119.45880199808755,292.5857437002347L120.35265455458122,288.18532998352055L121.24650711107488,290.3054707445058L122.14035966756853,286.47057639161113L123.03421222406222,284.41594704216584L123.92806478055587,281.48321336670165L124.82191733704954,283.80613258184195L125.7157698935432,287.4778881154671L126.60962245003685,287.1145562246423L127.50347500653054,284.5616378471517L128.3973275630242,282.8147395552994L129.29118011951786,281.8744390932741L130.1850326760115,280.0442655033628L131.07888523250517,279.5031507836105L131.97273778899884,281.1293488562555L132.8665903454925,285.3130585484319L133.76044290198618,268.44297799874477L134.65429545847982,262.2031801705104L135.5481480149735,261.73331280286124L136.44200057146716,260.23290142141923L137.33585312796083,261.2495622981608L138.2297056844545,265.625597200514L139.12355824094814,269.777700086706L140.0174107974418,272.77294557500755L140.91126335393548,276.2436150533107L141.80511591042912,280.52565705858973L142.69896846692282,282.31985813062033L143.59282102341646,283.2406778235677L144.48667357991013,283.86590569451056L145.3805261364038,285.2375275587253L146.27437869289744,286.2110534519045L147.16823124939114,286.0404738436133L148.06208380588478,285.8559763538132L148.95593636237845,287.33974352266705L149.84978891887212,287.9114058810368L150.74364147536576,287.5591490820368L151.63749403185943,287.46362719651273L152.5313465883531,287.42668466497526L153.42519914484677,287.32016974553784L154.31905170134044,287.12384566947003L155.21290425783408,287.2541962886754L156.10675681432775,286.1421554069378L157.00060937082142,285.56097105541255L157.8944619273151,289.726305370498L158.78831448380876,291.558500121326L159.6821670403024,289.97568103839217L160.57601959679607,289.7928562646233L161.46987215328974,289.2731894711765L162.3637247097834,288.6794279643186L163.25757726627708,286.10382956922496L164.15142982277072,284.6099720568508L165.0452823792644,289.29295154854987L165.93913493575806,289.74325570380137L166.8329874922517,295.0225951246123L167.72684004874537,295.17070179652177L168.62069260523904,303.1672865400995L169.5145451617327,298.8738030753694L170.40839771822635,303.3829543659409L171.30225027472002,307.3822757245713L172.1961028312137,310.7679039976632L173.08995538770736,313.59341338286976L173.98380794420103,315.8242665938939L174.8776605006947,317.77529999954214L175.77151305718837,319.5350547332896L176.665365613682,321.0311604761298L177.55921817017568,322.1514252740992L178.45307072666935,323.40126865984325L179.346923283163,321.83547108870704L180.24077583965666,322.635606254221L181.13462839615033,320.72351611562794L182.02848095264397,322.1392440135916L182.92233350913764,322.5262009606709L183.8161860656313,323.3801944054919L184.710038622125,324.4016680123441L185.60389117861865,324.6741983517389L186.49774373511232,324.3446031310405L187.391596291606,317.5561097421807L188.28544884809963,311.1334109210072L189.1793014045933,312.59729841238135L190.07315396108697,312.0518740058605L190.96700651758061,306.3032898775836L191.86085907407428,301.76598321732234L192.75471163056795,298.0853111097179L193.6485641870616,294.30131374870956L194.5424167435553,291.1269543443189L195.43626930004896,291.78655003093087L196.33012185654263,296.55178650814486L197.22397441303627,295.2430336931427L198.11782696952994,299.6480388437524L199.0116795260236,304.2750140260299L199.90553208251725,308.7631748288239L200.79938463901092,301.4932946322532L201.6932371955046,293.62236668069903L202.58708975199823,291.0330832908356L203.4809423084919,287.54345756574776L204.3747948649856,286.83174014654185L205.26864742147927,283.9451238479514L206.1624999779729,290.0970769381066L207.05635253446658,289.97059732469654L207.95020509096025,290.0713060096691L208.8440576474539,286.6090078986019L209.73791020394756,285.06862019289366L210.63176276044123,295.2545261234031L211.52561531693487,286.38408363225966L212.41946787342854,287.2791227887248L213.3133204299222,289.69362627874744L214.2071729864159,287.2402664230792L215.10102554290955,290.6799517830614L215.99487809940322,287.3961809979785L216.88873065589686,287.8759437468233L217.78258321239053,283.0530330360583L218.6764357688842,287.9241498045671L219.57028832537785,289.78536732689383L220.46414088187151,292.7514674308536L221.35799343836518,297.8078937845144L222.25184599485883,295.03611891114656L223.1456985513525,291.07990290793816L224.03955110784617,288.4020973598227L224.93340366433986,287.5651876041556L225.8272562208335,284.05059132160994L226.72110877732717,281.64595011035306L227.61496133382084,278.53817976250133L228.50881389031449,275.34416884432665L229.40266644680815,274.1016511285097L230.29651900330182,275.0428519329437L231.19037155979547,273.17422003657964L232.08422411628914,267.85121757728865L232.9780766727828,268.67078678647414L233.87192922927645,269.06335971477876L234.76578178577014,270.65090541496943L235.65963434226381,273.42333446544933L236.55348689875748,271.53681288150426L237.44733945525113,268.8002467793115L238.3411920117448,273.82378756579004L239.23504456823846,272.6706948542473L240.1288971247321,274.3010759943673L241.02274968122578,275.1532173493889L241.91660223771945,282.50258650614813L242.8104547942131,287.86781608943835L243.70430735070676,290.24530802151526L244.59815990720045,287.2542328877175L245.49201246369412,291.9267332536747L246.38586502018777,293.59093939503276L247.27971757668143,299.12464252089694L248.1735701331751,303.9939759783052L249.06742268966875,302.96440588109994L249.96127524616242,303.406627555033L250.85512780265609,313.56459218718817L251.74898035914973,313.9312147336345L252.6428329156434,307.79525732109954L253.53668547213707,311.241270696044L254.43053802863076,311.1241742550872L255.3243905851244,309.8961647159809L256.2182431416181,306.78462735066194L257.1120956981117,298.3992821203813L258.0059482546054,303.1653568431095L258.89980081109906,300.7635239367656L259.7936533675927,299.50951571128587L260.6875059240864,301.00493896690574L261.58135848058004,301.4781385454016L262.4752110370737,302.5749188283114L263.3690635935674,302.26458800568923L264.2629161500611,296.9453991062326L265.1567687065547,295.0628573388777L266.05062126304836,294.5594327695513L266.94447381954205,294.8834659820867L267.8383263760357,298.79018034848144L268.73217893252934,307.5415355951613L269.62603148902303,311.42783635548955L270.5198840455167,320.41786275542415L271.4137366020103,331.9394120747624L272.307589158504,330.82968572039795L273.20144171499766,329.2560309045476L274.09529427149135,324.8727087048989L274.989146827985,323.65761920113687L275.8829993844787,320.5861060687463L276.77685194097234,319.6396554481996L277.670704497466,317.9667782535951L278.5645570539597,319.9541767520943L279.4584096104533,316.72539683028344L280.35226216694696,318.31039309566995L281.2461147234406,319.7353004021891L282.1399672799343,322.1244507845451L283.03381983642794,318.77456999063475L283.92767239292164,311.72453471678386L284.8215249494153,307.54437376977785L285.715377505909,308.280854049598L286.6092300624026,307.4908543897617L287.50308261889626,310.75999729626915L288.39693517538996,311.8398119833331L289.2907877318836,310.52877251602825L290.18464028837724,305.6914398222236L291.07849284487094,308.5237632231323L291.9723454013646,311.3040383062032L292.8661979578582,305.2320624097219L293.7600505143519,303.80380685553644L294.6539030708456,298.2984959815864L295.54775562733926,292.01125069605826L296.4416081838329,287.1242195970007L297.3354607403266,284.4006436177148L298.22931329682024,291.69744046331584L299.1231658533139,291.92050017470166L300.0170184098076,285.9378912149105L300.9108709663012,292.11946184148735L301.80472352279486,292.932675601758L302.69857607928856,293.1362962484008L303.59242863578226,294.5146614738691L304.4862811922759,291.5822572935668L305.38013374876954,287.27802368166994L306.27398630526324,284.6112557823073L307.1678388617569,282.2806792178815L308.0616914182505,281.30727801103285L308.9555439747442,283.1339558397976L309.84939653123786,281.30233532458783L310.7432490877315,279.2483894987036L311.6371016442252,282.61936650624483L312.53095420071884,283.9847485949373L313.42480675721254,281.9440033457981L314.3186593137062,284.1312010994986L315.2125118701999,286.9660334928022L316.1063644266935,284.66964066967483L317.00021698318716,282.5307210835618L317.89406953968086,280.6409370336506L318.7879220961745,275.194020529293L319.68177465266814,278.58722418675404L320.57562720916184,272.46495413399475L321.4694797656555,270.383539320169L322.3633323221491,274.07369077398903L323.2571848786428,272.36212618021574L324.1510374351365,273.89528344450355L325.04488999163016,273.90130219211466L325.9387425481238,272.21792286548606L326.8325951046175,273.32738183426466L327.72644766111114,272.0700394670686L328.6203002176048,271.1296416120419L329.5141527740985,268.84696034312145L330.4080053305921,269.5645526107717L331.30185788708576,270.683388408512L332.19571044357946,271.5962970133303L333.0895630000731,270.7253685557211L333.9834155565668,271.72862341358285L334.87726811306044,273.6137385087873L335.77112066955414,273.6828285406893L336.6649732260478,272.92698906470446L337.5588257825414,271.9177086664198L338.4526783390351,270.13785069045264L339.34653089552876,279.4597214532944L340.2403834520224,279.2597249193435L341.1342360085161,280.98200965259934L342.02808856500974,276.8131420463043L342.9219411215034,276.486604802182L343.8157936779971,276.72450604583304L344.7096462344908,279.08308973651583L345.6034987909844,278.5972098982935L346.49735134747806,278.4814524013167L347.39120390397176,278.0088388568978L348.28505646046546,271.8288066516685L349.1789090169591,257.10044609186775L350.07276157345274,260.9288332246663L350.96661412994644,264.6132140525644L351.8604666864401,266.71803319262773L352.7543192429337,263.32655595363946L353.6481717994274,263.914147982364L354.54202435592106,266.2291201251103L355.4358769124147,269.590419533546L356.3297294689084,271.9973731819916L357.22358202540204,271.90422786900047L358.1174345818957,272.84533064960306L359.0112871383894,274.6929934433345L359.905139694883,281.1655129302059L360.79899225137666,283.38472197218L361.69284480787036,283.30594262983107L362.586697364364,287.0088106186011L363.48054992085764,286.45778858311996L364.37440247735134,289.6562731837533L365.268255033845,289.2544655452513L366.1621075903386,290.16849839049644L367.0559601468323,289.9694142671357L367.949812703326,292.4326584983304L368.8436652598197,292.03590711715395L369.73751781631336,278.6743012132893L370.631370372807,288.96273415514577L371.5252229293007,285.61893743358723L372.41907548579434,286.4643547535747L373.312928042288,280.3715004864075L374.2067805987816,276.63254421678323L375.1006331552753,273.5671382947315L375.99448571176896,280.82636349034715L376.8883382682626,274.9684350265897L377.7821908247563,270.91652367605064L378.67604338124994,268.42827247647534L379.5698959377436,263.01762483438415L380.4637484942373,257.94452964754396L381.3576010507309,255.02565980397978L382.25145360722456,252.32636005323624L383.14530616371826,250.19623367119118L384.0391587202119,243.22875870843677L384.93301127670554,248.00432466132798L385.82686383319924,250.02909194877145L386.7207163896929,250.6271027904978L387.6145689461865,250.4519665938983L388.5084215026803,252.0744862318436L389.4022740591739,252.98732774722603L390.2961266156676,255.6110869779678L391.18997917216126,256.35718115069193L392.0838317286549,262.7998545107599L392.9776842851486,256.1049421895036L393.87153684164224,259.2695710083493L394.7653893981359,263.9711741030351L395.6592419546296,262.25820044889724L396.5530945111232,256.03359782155115L397.44694706761686,255.30090294837626L398.34079962411056,251.8549462855039L399.2346521806042,251.78081164880516L400.12850473709784,250.7958308661915L401.02235729359154,250.37150318785652L401.9162098500852,250.0751385173863L402.8100624065788,262.10671472325646L403.7039149630725,229.30800884369012L404.59776751956616,229.83691747325696L405.4916200760598,208.48134261834437L406.3854726325535,221.7338967841331L407.27932518904714,227.62044273568046L408.1731777455409,232.91578677760862L409.06703030203454,198.99999352526112L409.9608828585282,211.24041050391244L410.8547354150219,218.87994590263344L411.7485879715155,226.63229328411956L412.64244052800916,233.27256242401666L413.53629308450286,229.93148750117587L414.4301456409965,233.24347409484358L415.32399819749014,208.63718261121076L416.21785075398384,219.33701496789618L417.1117033104775,232.35409481253035L418.0055558669711,244.48444416741702L418.8994084234648,252.50068076538147L419.79326097995846,258.886466997679L420.6871135364521,262.70196074066854L421.5809660929458,283.988025797737L422.47481864943944,285.6374515438343L423.3686712059331,283.92104343446255L424.2625237624268,283.9298110743626L425.1563763189204,294.3699075350694L426.05022887541406,296.05624317142536L426.94408143190776,295.7890478468312L427.83793398840146,294.205109194842L428.73178654489516,297.6263146002837L429.6256391013888,298.3280568544557L430.51949165788244,302.78472709162594L431.41334421437614,303.1561762190604L432.3071967708698,304.49494852394764L433.2010493273634,304.5845049704291L434.0949018838571,302.94207751260615L434.98875444035076,302.5673473891899L435.8826069968444,306.71588761967354L436.7764595533381,307.01803820922066L437.67031210983174,306.2901076686613L438.5641646663254,304.4092954510853L439.4580172228191,302.8309392225735L440.3518697793127,302.07173180596396L441.24572233580636,300.76404243944893L442.13957489230006,296.3841753661239L443.0334274487937,296.77088091567583L443.92728000528734,299.09554486405443L444.82113256178104,301.8991032342417L445.7149851182747,304.7427819683977L446.6088376747683,307.60809751923057L447.5026902312621,308.69100760368514L448.3965427877557,306.9866412974147L449.2903953442494,306.99417327223847L450.18424790074306,304.71693146727404L451.0781004572367,304.7103949759964L451.9719530137304,300.2466410817382L452.86580557022404,304.0142833599647L453.7596581267177,310.6813007393152L454.6535106832114,314.3000771724619L455.547363239705,307.0974264962552L456.44121579619866,301.479399634653L457.33506835269236,306.96492747051883L458.22892090918606,298.641772175751L459.12277346567976,284.6621795428828L460.0166260221734,281.53459307710017L460.91047857866704,280.1170005507281L461.80433113516074,287.5968301547736L462.6981836916544,290.57070286774103L463.592036248148,282.71363289830504L464.4858888046417,279.5584972421891L465.37974136113536,279.61072999928354L466.273593917629,278.12111635720726L467.16744647412264,274.18720627349387L468.06129903061634,262.53877115941316L468.95515158711,264.80868656026024L469.8490041436036,255.09139366044027L470.7428567000973,259.5430540190999L471.63670925659096,257.4604875837691L472.5305618130846,248.35693564471146L473.4244143695783,251.73499049401224L474.318266926072,250.52589332776913L475.2121194825657,249.72993254527628L476.10597203905934,250.71186309778255L476.999824595553,248.71346321434382L477.8936771520467,252.84688306580117L478.7875297085403,254.5793230465767L479.68138226503396,265.3677499694712L480.57523482152766,265.588317536132L481.4690873780213,252.2883037303232L482.36293993451494,223.88353553909786L483.25679249100864,239.7020887990063L484.1506450475023,245.8687232722819L485.0444976039959,213.77555714175566L485.9383501604896,220.44835569908471L486.83220271698326,214.00179673241L487.7260552734769,221.07605508203426L488.6199078299706,225.79851716565227L489.51376038646424,231.59870101953183L490.4076129429579,221.8461537512736L491.3014654994516,228.1998586866708L492.1953180559452,234.36668303118262L493.08917061243886,232.5626298550255L493.9830231689326,222.133582095804L494.87687572542626,229.40697662874442L495.77072828191996,232.5463161400007L496.6645808384136,216.9932576018397L497.55843339490724,232.53050345727527L498.45228595140094,238.70620266479892L499.3461385078946,240.58742821506135L500.2399910643882,241.59242537315095L501.1338436208819,245.56478861990962L502.02769617737556,258.1724902209941L502.9215487338692,259.8435472809023L503.8154012903629,243.91693302034696L504.70925384685654,248.9398161924635L505.6031064033502,238.2722964873774L506.4969589598439,234.00951594854777L507.3908115163375,226.7818106502056L508.28466407283116,208.58042005481988L509.17851662932486,201.9554023458136L510.0723691858185,193.54526838436507L510.96622174231214,158.79258149372194L511.86007429880584,169.04735262544082L512.7539268552995,182.703361216442L513.6477794117932,194.83383584024998L514.5416319682869,205.2466275889866L515.4354845247806,189.84682829036365L516.3293370812742,204.03040812627387L517.2231896377679,200.9853932103092L518.1170421942616,197.26708049816875L519.0108947507551,208.18261502092037L519.9047473072488,211.4201466371829L520.7985998637425,210.02931681143977L521.6924524202361,189.13566165504093L522.5863049767298,152.12218171663875L523.4801575332235,164.02567009373095L524.3740100897171,140.14121436491837L525.2678626462108,122.06262004129141L526.1617152027045,153.43621797392535L527.0555677591981,158.24402135728727L527.9494203156918,128.88717713315899L528.8432728721855,145.38964853225121L529.7371254286791,162.0366923340729L530.6309779851728,138.07790832511844L531.5248305416665,145.71572860290863L532.41868309816,156.46716253211432L533.3125356546537,141.43118256236318L534.2063882111474,137.794354897574L535.1002407676411,158.3801967419846L535.9940933241348,174.3113676550301L536.8879458806284,194.85649332200668L537.7817984371221,187.94729157151826L538.6756509936158,177.49158102390444L539.5695035501094,190.44021716901932L540.4633561066031,206.3629587591331L541.3572086630968,215.44124572296795L542.2510612195904,218.67575285664205L543.1449137760841,227.52829176016925L544.0387663325778,232.61521758876793L544.9326188890714,239.29279413627248L545.8264714455651,238.58752587884578L546.7203240020588,234.3040097060419L547.6141765585523,240.98117652786368L548.508029115046,243.48313804385808L549.4018816715397,247.82162386343185L550.2957342280333,253.6368479157381L551.189586784527,244.53086744258692L552.0834393410207,250.20292768743676L552.9772918975143,254.45518507618434L553.8711444540081,255.61920177218443L554.7649970105017,259.5579289032349L555.6588495669954,211.91710924067752L556.5527021234891,169.59134525269158L557.4465546799827,182.89442338444306L558.3404072364764,145.27227823769388L559.2342597929701,113.30118729179529L560.1281123494637,135.05317698796011L561.0219649059574,151.8345210208053L561.9158174624511,165.85312532372015L562.8096700189446,153.47098439897857L563.7035225754383,151.77456361219058L564.597375131932,165.9446071922354L565.4912276884256,157.1749800932382L566.3850802449193,175.03197173957267L567.278932801413,137.51016125202096L568.1727853579066,153.19211018115448L569.0666379144003,165.34941717645034L569.960490470894,180.79127850224884L570.8543430273876,188.46310869424033L571.7481955838813,148.34362582085603L572.642048140375,160.12675460144297L573.5359006968687,153.0891498258457L574.4297532533624,159.75260300727686L575.323605809856,167.0793290255805L576.2174583663497,178.05945700229663L577.1113109228434,170.86513911513097L578.0051634793369,144.4045110298708L578.8990160358306,143.14014122247764L579.7928685923243,114.07305338074771L580.6867211488179,125.58376378406754L581.5805737053116,135.3571495664274L582.4744262618053,135.396966061357L583.3682788182989,137.68384928146503L584.2621313747926,106.17217519456793L585.1559839312863,92.79802170811872L586.0498364877799,98.33323120264582L586.9436890442736,123.23375712401517L587.8375416007673,144.6231995904151L588.7313941572609,144.57880357094282L589.6252467137546,130.66273876535067L590.5190992702483,145.76987868512495L591.4129518267418,113.37609169156302L592.3068043832355,118.13696238116843L593.2006569397292,136.82010944302212L594.0945094962229,145.54650737792244L594.9883620527166,160.565479646183L595.8822146092102,166.32899744501304L596.7760671657039,151.6437229300019L597.6699197221976,162.28638258989346L598.5637722786912,166.8846907824729L599.4576248351849,180.50550774888566L600.3514773916786,182.78239412274718L601.2453299481722,189.9195728678563L602.1391825046659,174.46993897083806L603.0330350611596,181.74323159519983L603.9268876176532,192.94852016431125L604.8207401741469,177.1111806141288L605.7145927306404,176.02146157440345L606.6084452871341,169.91587447216605L607.5022978436278,176.99591945496752L608.3961504001214,140.61993492431873L609.2900029566151,160.34645723901343L610.1838555131088,131.10681099615036L611.0777080696024,146.93359010139272L611.9715606260961,161.65794466009052L612.8654131825898,164.0308813548157L613.7592657390835,173.5888914151117L614.6531182955772,136.20945536522052L615.5469708520708,156.23570094899776L616.4408234085645,162.1516108471058L617.3346759650582,175.68126930571256L618.2285285215518,186.1455038248182L619.1223810780455,191.22251087032512L620.0162336345392,194.0794240107011L620.9100861910327,181.96821089307934L621.8039387475264,140.82016474059697L622.6977913040201,151.61782948268154L623.5916438605137,136.2094768177114L624.4854964170074,148.5883393719013L625.3793489735011,163.2082895547892L626.2732015299947,126.53833202997858L627.1670540864884,141.39736866762496L628.0609066429821,152.06180445520437L628.9547591994757,115.4368806314361L629.8486117559694,138.95513718843267L630.7424643124631,106.03663618432726L631.6363168689567,115.2089331479987L632.5301694254504,119.91118154893775L633.4240219819441,136.4058554772721L634.3178745384378,105.7075927892412L635.2117270949315,123.90864922863182L636.105579651425,145.93838989451476L636.9994322079187,160.07894342709997L637.8932847644124,175.9419155752146L638.787137320906,181.1510519816984L639.6809898773997,177.50873571367745L640.5748424338934,180.1005545733697L641.468694990387,188.05591680008897L642.3625475468807,188.95742234644686L643.2564001033744,181.02543622433726L644.150252659868,179.47573126669343L645.0441052163617,171.69787003972232L645.9379577728554,133.16875769103004L646.831810329349,152.9662408368419L647.7256628858427,169.4167088841919L648.6195154423364,182.31258741564673L649.51336799883,192.22224971700848L650.4072205553236,188.353774902779L651.3010731118173,194.1959130109124L652.1949256683109,169.58409252667778L653.0887782248047,167.22751145758335L653.9826307812983,175.7209261536801L654.876483337792,182.57556631174253L655.7703358942857,189.89268605175096L656.6641884507793,197.42155732730544L657.558041007273,197.74173831921803L658.4518935637667,172.68978725239342L659.3457461202603,186.8806533831869L660.239598676754,200.91926346776145L661.1334512332477,198.7650848428198L662.0273037897413,170.09234171000014L662.921156346235,174.46579502661808L663.8150089027287,136.1617451902425L664.7088614592222,145.9067980583825L665.602714015716,154.1554898828495L666.4965665722096,152.8907092699462L667.3904191287032,148.68689387693647L668.2842716851969,137.9038140596231L669.1781242416906,147.40569286746793L670.0719767981842,155.121529420494L670.9658293546779,180.9522146058311L671.8596819111716,139.0335808919883L672.7535344676653,149.87625129981097L673.647387024159,172.51844456836724L674.5412395806526,166.49090693820597L675.4350921371463,173.74888847755395L676.32894469364,183.58326165519586L677.2227972501336,184.73596944046082L678.1166498066273,197.29772224493786L679.010502363121,177.02558670533273L679.9043549196145,135.59998947057812L680.7982074761082,126.52233172383255L681.692060032602,145.786056692579L682.5859125890955,109.2164672367874L683.4797651455892,130.6351069971174L684.3736177020829,148.77892985842368L685.2674702585765,159.145634256745L686.1613228150702,173.74634911356569L687.0551753715639,176.02427371843405L687.9490279280575,182.6221833857448L688.8428804845512,182.50034956793525L689.7367330410449,169.35965802640436L690.6305855975385,175.94574892809416L691.5244381540322,161.76005271243383L692.4182907105259,169.22959860403904L693.3121432670196,179.0063814175745L694.2059958235133,180.0511767994559L695.0998483800068,176.6331491699068L695.9937009365005,183.41348549402068L696.8875534929941,189.41865532312065L697.7814060494878,191.7469550100018L698.6752586059814,146.50582689554923L699.5691111624751,108.30646223596447L700.4629637189688,123.0016820394664L701.3568162754624,126.86467193934729L702.2506688319562,92.05139617625734L703.1445213884499,110.91159437694246L704.0383739449436,124.91312003234844L704.9322265014372,142.64350579222452L705.8260790579309,145.27784666365332L706.7199316144246,155.98657374378737L707.6137841709182,165.78866560624587L708.5076367274119,167.7053484476004L709.4014892839056,127.2544348246085L710.2953418403991,141.21638312128914L711.1891943968928,129.44176335454748L712.0830469533865,146.88404451892825L712.9768995098801,159.01806552455776L713.8707520663738,173.38837291955397L714.7646046228675,187.3185743121356L715.6584571793611,194.10603623125238L716.5523097358548,191.7587614463731L717.4461622923485,199.85095167676076L718.3400148488421,181.4837747957514L719.2338674053358,183.74461651891167L720.1277199618295,189.5661785678987L721.0215725183231,145.6624013864008L721.9154250748168,159.66020097478602L722.8092776313105,170.63214869249452L723.703130187804,178.4236571872184L724.5969827442977,175.97842307665147L725.4908353007914,181.11842430822577L726.384687857285,186.722044732919L727.2785404137787,192.03892297605793L728.1723929702724,191.0423202765217L729.066245526766,146.76259191816223L729.9600980832597,161.01106612364748L730.8539506397534,121.87037949611157L731.747803196247,130.5045846454607L732.6416557527407,96.42297235375375L733.5355083092344,110.69274821633611L734.429360865728,131.52509340529778L735.3232134222217,128.589074455882L736.2170659787154,142.91660097923412L737.110918535209,149.70193099390124L738.0047710917027,163.8765771714816L738.8986236481963,173.47009562647042L739.7924762046899,178.63993030707996L740.6863287611836,188.67755983786154L741.5801813176773,198.2492940360019L742.4740338741711,200.7926230482111L743.3678864306647,202.32274579309075L744.2617389871584,207.44154559097288L745.1555915436521,214.7274029533225L746.0494441001457,216.8401807289073L746.9432966566394,217.3904220420352L747.8371492131331,223.099919573212L748.7310017696267,229.0650438463994L749.6248543261204,225.87491375828037L750.5187068826141,227.14567817403633L751.4125594391077,227.10298048981693L752.3064119956014,228.2519085034022L753.2002645520951,231.10111293607844L754.0941171085886,225.31295045670316L754.9879696650823,177.74287320330404L755.881822221576,168.51702975417396L756.7756747780696,144.28821792978215L757.6695273345633,152.09469317488524L758.563379891057,165.3817007021366L759.4572324475506,174.5355569017299L760.3510850040443,185.4629206797031L761.244937560538,194.09684479924564L762.1387901170316,191.56306076121447L763.0326426735253,199.57884606811447L763.926495230019,201.11265499450803L764.8203477865126,191.03602344163002L765.7142003430063,192.21556085956345L766.6080528995,199.4641183603757L767.5019054559936,199.66064464204925L768.3957580124872,202.6082532860748L769.289610568981,206.22421903727195L770.1834631254745,224.0628095070158L771.0773156819682,228.2422862265363L771.9711682384619,237.22865913196898L772.8650207949555,251.84011296967975L773.7588733514492,257.956025124078L774.6527259079429,263.4029308357057L775.5465784644365,266.2715856597538L776.4404310209302,263.65883694577684L777.3342835774239,263.6486489879323L778.2281361339175,240.78542465402498L779.1219886904112,238.78930364745048L780.0158412469049,241.13853705071762L780.9096938033985,242.26281194141586L781.8035463598923,245.7640242356343L782.697398916386,236.9756154863975L783.5912514728797,228.76613007534675L784.4851040293732,180.6332282313566L785.378956585867,189.7796752636127L786.2728091423606,190.6056675710299L787.1666616988542,198.792605475522L788.0605142553479,199.61944327053325L788.9543668118416,201.8406460132971L789.8482193683352,195.31544930139947L790.7420719248289,205.33071515222386L791.6359244813225,209.8748028398262L792.5297770378162,215.71727136036543L793.4236295943099,215.06041118428396L794.3174821508035,194.81090890376643L795.2113347072972,194.8500284743856L796.1051872637909,191.77563015707247L796.9990398202845,149.65831651354512L797.8928923767781,167.44116650173254L798.7867449332718,177.76391247968027L799.6805974897654,156.0601432857331L800.5744500462591,119.541231302506L801.4683026027528,87.03055077542432L802.3621551592464,95.87867393129234L803.2560077157401,115.79248255788451L804.1498602722338,130.97353124276424L805.0437128287274,141.3656044225067L805.9375653852211,121.96212727411816L806.8314179417148,89.13463221486676L807.7252704982084,81.65006585478399L808.6191230547021,89.53184243364963L809.5129756111958,98.60057317133416L810.4068281676894,69.730824001807L811.300680724183,45.43148201142581L812.1945332806768,63.08840490113814L813.0883858371703,84.09867352573558L813.982238393664,103.69400781195354L814.8760909501577,72.59729164137502L815.7699435066513,93.58126435810394L816.663796063145,102.14601595218673L817.5576486196387,110.9447713853693L818.4515011761323,115.2212729058528L819.345353732626,131.54231004235064L820.2392062891197,144.3845191611346L821.1330588456133,151.95995167258167L822.0269114021071,165.20279504362858L822.9207639586008,157.5721743746173L823.8146165150945,167.74236159116066L824.7084690715881,126.26158099461745L825.6023216280818,140.71068630602952L826.4961741845755,104.2065497328868L827.390026741069,119.5562052026811L828.2838792975627,129.62145797169413L829.1777318540564,137.09032348259313L830.07158441055,156.397324689971L830.9654369670437,146.64632676454153L831.8592895235374,150.74874741581922L832.753142080031,155.92196288295585L833.6469946365247,158.4291797660027L834.5408471930184,171.7863850867217L835.434699749512,177.47086261810554L836.3285523060057,176.53814031452518L837.2224048624994,169.72267155132084L838.116257418993,172.16318016238142L839.0101099754867,177.83121676029228L839.9039625319804,174.11680059164544L840.797815088474,179.70541098650426L841.6916676449677,187.46337491710102L842.5855202014613,183.56986272043753L843.4793727579549,181.64824515790238L844.3732253144486,175.6179961485586L845.2670778709423,188.73583106595427L846.1609304274359,201.62388324185346L847.0547829839296,212.97784199268938L847.9486355404233,196.36977961018485L848.8424880969169,204.42177479495794L849.7363406534106,198.49501997723476L850.6301932099043,203.47842228007596L851.5240457663979,204.81479185537523L852.4178983228916,209.05315903875726L853.3117508793853,216.2958587136514L854.2056034358789,218.43767810002424L855.0994559923726,221.28260659923637L855.9933085488663,194.52442244297686L856.8871611053598,197.99971141648396L857.7810136618535,201.78917741244095L858.6748662183472,208.3404997476399L859.5687187748408,161.50704238201538L860.4625713313345,167.4268369577657L861.3564238878283,165.9576157973789L862.250276444322,147.2983346602583L863.1441290008156,131.09875596787793L864.0379815573093,96.17285038799352L864.931834113803,121.94503068207712L865.8256866702966,142.88930630269783L866.7195392267903,154.23709235382123L867.613391783284,150.18575599603918L868.5072443397776,112.6958623698005L869.4010968962713,130.78899412532607L870.294949452765,135.35999817859346L871.1888020092586,153.00202596759465L872.0826545657523,170.65682617381273L872.976507122246,164.58320567469215L873.8703596787395,156.5769995291248L874.7642122352332,136.4336295413087L875.6580647917269,143.16749979832733L876.5519173482205,160.44248924740467L877.4457699047142,172.35751207151384L878.3396224612079,166.50025480385295L879.2334750177015,161.27352655715123L880.1273275741952,165.06304375421334L881.0211801306889,176.06124286015512L881.9150326871825,180.73031764827772L882.8088852436762,188.12920443867785L883.7027378001699,184.31290566446577L884.5965903566635,194.2998106789251L885.4904429131572,195.77893161483655L886.3842954696509,181.98232927757746L887.2781480261444,194.1084341640558L888.1720005826381,182.31381201362927L889.0658531391318,140.47622334361202L889.9597056956254,138.98234695644317L890.8535582521191,154.39005186655916L891.7474108086128,167.1111783261717L892.6412633651064,167.61667853256648L893.5351159216001,155.27642876192468L894.4289684780938,116.97501909058235L895.3228210345874,85.62533026512506L896.2166735910811,111.29585660336654L897.1105261475748,80.43502450293525L898.0043787040684,55.22221798126321L898.898231260562,65.70526523830506L899.7920838170558,93.77032807855129L900.6859363735496,65.39346361899325L901.5797889300432,82.87543212789645L902.4736414865368,110.31216866633076L903.3674940430305,113.19156384015452L904.2613465995241,82.89054857579663L905.1551991560178,90.43447224384047L906.0490517125115,63.752858458018174L906.9429042690051,86.82515632351182L907.8367568254988,103.92415737505692L908.7306093819925,127.6430763237969L909.6244619384861,128.61710484303902L910.5183144949798,93.90260625950117L911.4121670514735,115.79828852325954L912.3060196079671,130.2670295747918L913.1998721644608,128.68311289954835L914.0937247209545,145.96494090483682L914.987577277448,158.0361842181161L915.8814298339416,163.876982821553L916.7752823904352,145.5953190222607L917.6691349469289,155.65478724169603L918.5629875034226,116.37505187895643L919.4568400599162,133.89986802881774L920.3506926164099,146.1803353121069L921.2445451729036,156.44118218144683L922.1383977293972,161.75067445101865L923.0322502858909,124.22087543848595L923.9261028423846,140.13289056797487L924.8199553988782,104.40766360887609L925.7138079553719,129.34327597905133L926.6076605118656,148.3262236738844L927.5015130683594,147.91362780345833L928.395365624853,150.0664107848399L929.2892181813467,168.80976108603264L930.1830707378404,181.70982435233412L931.0769232943339,181.04235124838365L931.9707758508276,191.35663991162627L932.8646284073213,201.42906277055224L933.7584809638149,211.06264248719552L934.6523335203086,219.51054901563418L935.5461860768023,222.93890686537566L936.4400386332959,226.23133313778922L937.3338911897896,206.80833424391852L938.2277437462833,217.28997944863622L939.1215963027769,221.23574854346603L940.0154488592706,226.40533599267528" style="fill: none;" fill="none"></path></g></g></g></g><g opacity="0.2"><g><g><g><path stroke="rgb(255, 112, 67)" stroke-width="2px" d="M47.95059747859449,270.141398502665L48.84445003508815,277.9070364271687L49.73830259158181,282.1670795535087L50.632155148075476,277.5397735240639L51.52600770456914,281.6289077799749L52.4198602610628,276.98329793347335L53.31371281755647,274.2630020747075L54.20756537405013,270.50157865623254L55.101417930543796,269.046875654303L55.99527048703746,268.80796652875006L56.88912304353112,268.9486766645952L57.78297560002478,270.05269933317436L58.67682815651844,274.492565193632L59.57068071301211,284.6104450324833L60.464533269505765,285.4870359990101L61.35838582599943,285.17883751397073L62.2522383824931,285.5708424314884L63.14609093898676,281.94438677488L64.03994349548041,278.9768978301406L64.93379605197408,277.7946426405598L65.82764860846774,278.01598771917315L66.72150116496141,275.88062296490955L67.61535372145508,279.7385314502466L68.50920627794873,268.6624222515454L69.4030588344424,275.205630341988L70.29691139093606,279.7626582103046L71.19076394742973,281.30421461866024L72.0846165039234,339.4347864402933L72.97846906041705,340.4619389367994L73.87232161691071,274.5636856672698L74.76617417340438,270.43673524190547L75.66002672989805,264.7367112714127L76.55387928639172,322.9020669374645L77.44773184288537,270.8662047549594L78.34158439937903,263.99170416780083L79.2354369558727,275.5088628454491L80.12928951236637,277.08156284329056L81.02314206886003,279.63415061916396L81.9169946253537,260.5408084115657L82.81084718184735,296.9053877570523L83.70469973834102,305.93869868406824L84.59855229483469,322.49054966755017L85.49240485132835,322.4016307643614L86.38625740782201,304.42899633748925L87.28010996431566,260.81436221686187L88.17396252080934,295.42411895101526L89.067815077303,296.761359642365L89.96166763379667,305.1109178963594L90.85552019029032,322.26234889755426L91.74937274678398,266.0835836231985L92.64322530327766,266.380700205394L93.53707785977132,267.17902935309274L94.43093041626499,265.1905346026794L95.32478297275864,273.0635783588438L96.2186355292523,272.42364058523543L97.11248808574597,276.71833571577525L98.00634064223964,274.69817001500047L98.9001931987333,278.5017969524353L99.79404575522696,295.20946842573926L100.68789831172062,276.1903888836625L101.58175086821429,282.85905026684134L102.47560342470794,264.7992914286487L103.36945598120163,306.1795707639914L104.26330853769528,262.4681439493245L105.15716109418894,273.044644638519L106.0510136506826,274.7906632530126L106.94486620717626,274.92943973231394L107.83871876366995,286.977570242653L108.7325713201636,278.4078974187549L109.62642387665726,296.1361000797937L110.52027643315091,278.5105936248184L111.41412898964458,284.24882196096456L112.30798154613824,313.9520350820512L113.20183410263192,305.6353929360412L114.09568665912558,293.44420113928675L114.98953921561923,307.6323767316602L115.8833917721129,359.12942991290674L116.77724432860656,311.2477285120549L117.67109688510024,288.2929767288622L118.5649494415939,269.7497012123248L119.45880199808755,268.9717780007285L120.35265455458122,263.2497000913971L121.24650711107488,302.3195821329784L122.14035966756853,264.7395385116624L123.03421222406222,272.7730611120497L123.92806478055587,264.8644058478702L124.82191733704954,296.96933026321693L125.7157698935432,308.28448775214656L126.60962245003685,285.055676776152L127.50347500653054,270.0951079369193L128.3973275630242,272.9156536332424L129.29118011951786,276.54607182087426L130.1850326760115,269.6732851565613L131.07888523250517,276.4368348750623L131.97273778899884,290.344469130538L132.8665903454925,309.02074213011514L133.76044290198618,172.8458709038207L134.65429545847982,226.8443308470753L135.5481480149735,259.07073137522156L136.44200057146716,251.73057113492197L137.33585312796083,267.0106400957361L138.2297056844545,290.42312647002274L139.12355824094814,293.3062816214083L140.0174107974418,289.74600243022905L140.91126335393548,295.9107411989607L141.80511591042912,304.79056081335517L142.69896846692282,292.4869972033616L143.59282102341646,288.4586559372749L144.48667357991013,287.4088635454017L145.3805261364038,293.01005129846203L146.27437869289744,291.72770008491267L147.16823124939114,285.0738560774464L148.06208380588478,284.81049059128827L148.95593636237845,295.7477573905787L149.84978891887212,291.15082588267626L150.74364147536576,285.56302723629045L151.63749403185943,286.9223365153921L152.5313465883531,287.2173436540853L153.42519914484677,286.71658520489154L154.31905170134044,286.01134257619003L155.21290425783408,287.99284979500186L156.10675681432775,279.8405904285854L157.00060937082142,282.2675930715037L157.8944619273151,313.32986644016745L158.78831448380876,301.9409370243089L159.6821670403024,281.0063729152608L160.57601959679607,288.7568492145914L161.46987215328974,286.32841097817845L162.3637247097834,285.31477942856577L163.25757726627708,271.50877200848913L164.15142982277072,276.1447794923811L165.0452823792644,315.8298353197881L165.93913493575806,292.29497924899607L166.8329874922517,324.9388518302768L167.72684004874537,296.0099729370498L168.62069260523904,348.4812667402856L169.5145451617327,274.54406344802413L170.40839771822635,328.9348116737113L171.30225027472002,330.04509675268804L172.1961028312137,329.9531308755514L173.08995538770736,329.6046332302694L173.98380794420103,328.46576812161874L174.8776605006947,328.83115596383254L175.77151305718837,329.5069982237203L176.665365613682,329.5090930183094L177.55921817017568,328.49959246222215L178.45307072666935,330.48371451204207L179.346923283163,312.9626181859758L180.24077583965666,327.1697055253042L181.13462839615033,309.8883386639306L182.02848095264397,330.161702101845L182.92233350913764,324.7189569940714L183.8161860656313,328.21949059272083L184.710038622125,330.19001845108124L185.60389117861865,326.2185369416218L186.49774373511232,322.47689688043783L187.391596291606,279.08798053901717L188.28544884809963,274.73811760132594L189.1793014045933,320.8926608634429L190.07315396108697,308.9611357022609L190.96700651758061,273.727979817514L191.86085907407428,276.05457880928634L192.75471163056795,277.22816916670297L193.6485641870616,272.85866203639625L194.5424167435553,273.1389177194863L195.43626930004896,295.52425892172346L196.33012185654263,323.5547932123058L197.22397441303627,287.8267677414758L198.11782696952994,324.60973469717254L199.0116795260236,330.4945400589048L199.90553208251725,334.19608604463116L200.79938463901092,260.29730685172126L201.6932371955046,249.02044162192433L202.58708975199823,276.3604774149516L203.4809423084919,267.76891179026023L204.3747948649856,282.7986747710436L205.26864742147927,267.5876314892782L206.1624999779729,324.95814444897525L207.05635253446658,289.25387951537306L207.95020509096025,290.64198855784684L208.8440576474539,266.98931860255794L209.73791020394756,276.3397565272152L210.63176276044123,352.974659729615L211.52561531693487,236.1182428491199L212.41946787342854,292.35101134202694L213.3133204299222,303.37581272220774L214.2071729864159,273.3378939076269L215.10102554290955,310.17150215629295L215.99487809940322,268.788146549176L216.88873065589686,290.59459932361034L217.78258321239053,255.72320567505764L218.6764357688842,315.52714482611594L219.57028832537785,300.33226662007854L220.46414088187151,309.55936801995847L221.35799343836518,326.4609764552585L222.25184599485883,279.32939462872906L223.1456985513525,268.6613455564244L224.03955110784617,273.22786592050153L224.93340366433986,282.822698988709L225.8272562208335,264.1345457205181L226.72110877732717,268.0196499132308L227.61496133382084,260.9274811246747L228.50881389031449,257.2447736413373L229.40266644680815,267.06071740554677L230.29651900330182,280.3763231580696L231.19037155979547,262.5853059571835L232.08422411628914,237.68753697463995L232.9780766727828,273.31501230519183L233.87192922927645,271.2879396418382L234.76578178577014,279.6469977160497L235.65963434226381,289.1337657515021L236.55348689875748,260.8465239058159L237.44733945525113,253.29303886688587L238.3411920117448,302.29051868916844L239.23504456823846,266.136502822172L240.1288971247321,283.5399024550471L241.02274968122578,279.9820183611779L241.91660223771945,324.1490117277836L242.8104547942131,318.270783728083L243.70430735070676,303.71776230328453L244.59815990720045,270.3048071295301L245.49201246369412,318.4042353274322L246.38586502018777,303.0214408627283L247.27971757668143,330.48229356746066L248.1735701331751,331.5868655702852L249.06742268966875,297.1301753302702L249.96127524616242,305.9125503739872L250.85512780265609,371.12639176940087L251.74898035914973,316.0087424968301L252.6428329156434,273.02483198340155L253.53668547213707,330.76867982072935L254.43053802863076,310.46062775633203L255.3243905851244,302.93744399437827L256.2182431416181,289.1525822805212L257.1120956981117,250.8823258154578L258.0059482546054,330.17311360523615L258.89980081109906,287.1531374674829L259.7936533675927,292.4034691002343L260.6875059240864,309.4790040820847L261.58135848058004,304.1596028235449L262.4752110370737,308.7900070981338L263.3690635935674,300.5060466774967L264.2629161500611,266.80332867597855L265.1567687065547,284.3951206571996L266.05062126304836,291.70669354336854L266.94447381954205,296.7196541864542L267.8383263760357,320.92822842471844L268.73217893252934,357.1325486596803L269.62603148902303,333.45020733068316L270.5198840455167,371.36134568838685L271.4137366020103,397.2281915510128L272.307589158504,324.54123637899943L273.20144171499766,320.33865361472834L274.09529427149135,300.03388290689026L274.989146827985,316.7721120131516L275.8829993844787,303.18086498520006L276.77685194097234,314.27643526510167L277.670704497466,308.4871408175031L278.5645570539597,331.216101576923L279.4584096104533,298.4289772733551L280.35226216694696,327.2920385995265L281.2461147234406,327.80977513913143L282.1399672799343,335.6629696178953L283.03381983642794,299.79191215847635L283.92767239292164,271.77433483162883L284.8215249494153,283.85679507007706L285.715377505909,312.45424230191253L286.6092300624026,303.014189650689L287.50308261889626,329.28514043314465L288.39693517538996,317.9587618766956L289.2907877318836,303.0995488679676L290.18464028837724,278.2798878906634L291.07849284487094,324.5735958282818L291.9723454013646,327.05893044360505L292.8661979578582,270.8241989963279L293.7600505143519,295.71035871515187L294.6539030708456,267.10173436253666L295.54775562733926,256.38352741139863L296.4416081838329,259.43104336900797L297.3354607403266,268.9670464017614L298.22931329682024,333.0459559217214L299.1231658533139,293.18450520588794L300.0170184098076,252.0364404427609L300.9108709663012,327.1483620587562L301.80472352279486,297.5408869099579L302.69857607928856,294.2901465793769L303.59242863578226,302.32539775152304L304.4862811922759,274.9653002718537L305.38013374876954,262.8873665475876L306.27398630526324,269.49957101925247L307.1678388617569,269.07407868613524L308.0616914182505,275.7913378388905L308.9555439747442,293.4851302027974L309.84939653123786,270.92315240506593L310.7432490877315,267.60936315202616L311.6371016442252,301.721569548979L312.53095420071884,291.7219137641945L313.42480675721254,270.37978026734237L314.3186593137062,296.5253217038014L315.2125118701999,303.0300837215226L316.1063644266935,271.6567480052868L317.00021698318716,270.4101767622545L317.89406953968086,269.93216075082034L318.7879220961745,244.32816033793355L319.68177465266814,297.81537824569955L320.57562720916184,237.772090501692L321.4694797656555,258.58885537515636L322.3633323221491,294.9845490123025L323.2571848786428,262.66326014883407L324.1510374351365,282.5831746088013L325.04488999163016,273.93540842857715L325.9387425481238,262.67877334792416L326.8325951046175,279.6143159906767L327.72644766111114,264.94509938629113L328.6203002176048,265.80072043355693L329.5141527740985,255.91176648590545L330.4080053305921,273.6309087941234L331.30185788708576,277.02345792904043L332.19571044357946,276.7694457739673L333.0895630000731,265.7901072959358L333.9834155565668,277.4137342747992L334.87726811306044,284.29605738161234L335.77112066955414,274.0743387214672L336.6649732260478,268.6438987007905L337.5588257825414,266.19845307613997L338.4526783390351,260.0519888266387L339.34653089552876,332.2836557760642L340.2403834520224,278.12641122695516L341.1342360085161,290.7416231410493L342.02808856500974,253.1895589439656L342.9219411215034,274.63622708548905L343.8157936779971,278.072613093189L344.7096462344908,292.4483973170515L345.6034987909844,275.8438908150338L346.49735134747806,277.8254932517815L347.39120390397176,275.3306954385242L348.28505646046546,236.80862415536924L349.1789090169591,173.63973625299704L350.07276157345274,282.62302697719093L350.96661412994644,285.4913720773205L351.8604666864401,278.64534165298676L352.7543192429337,244.10818493270546L353.6481717994274,267.2438361451368L354.54202435592106,279.3472956006725L355.4358769124147,288.63778284801504L356.3297294689084,285.6367771898497L357.22358202540204,271.3764044287175L358.1174345818957,278.1782464063512L359.0112871383894,285.1630826078126L359.905139694883,317.8431233558105L360.79899225137666,295.9602398766995L361.69284480787036,282.8595263565207L362.586697364364,307.9917292216312L363.48054992085764,283.33533038206L364.37440247735134,307.78101925400887L365.268255033845,286.9775555937398L366.1621075903386,295.3480178468858L367.0559601468323,288.84127090142454L367.949812703326,306.39104247510073L368.8436652598197,289.787649290487L369.73751781631336,202.95853442472335L370.631370372807,347.26385415899915L371.5252229293007,266.67075601142193L372.41907548579434,291.25505290017026L373.312928042288,245.84532630579344L374.2067805987816,255.44512535557942L375.1006331552753,256.19650473643793L375.99448571176896,321.9619729321694L376.8883382682626,241.77350706529745L377.7821908247563,247.95569268966298L378.67604338124994,254.32818234554836L379.5698959377436,232.35728819586768L380.4637484942373,229.19699025544938L381.3576010507309,238.485397357116L382.25145360722456,237.03032813235623L383.14530616371826,238.12551750626935L384.0391587202119,203.74640058616143L384.93301127670554,275.065865061045L385.82686383319924,261.50277324428436L386.7207163896929,254.01583089361378L387.6145689461865,249.45952814650113L388.5084215026803,261.26876418020044L389.4022740591739,258.16009633439313L390.2961266156676,270.4790559521711L391.18997917216126,260.58504812946194L392.0838317286549,299.30833688447876L392.9776842851486,218.16710570238445L393.87153684164224,277.20246764847485L394.7653893981359,290.613591639588L395.6592419546296,252.5513497421161L396.5530945111232,220.76084959992326L397.44694706761686,251.1489653337185L398.34079962411056,232.32785852922743L399.2346521806042,251.36071537417882L400.12850473709784,245.21427309804736L401.02235729359154,247.96697967729185L401.9162098500852,248.39573871805507L402.8100624065788,330.2856465565206L403.7039149630725,43.4486755261477L404.59776751956616,232.83406637413557L405.4916200760598,87.46641844050643L406.3854726325535,296.83170372360263L407.27932518904714,260.9775364611156L408.1731777455409,262.9227363485347L409.06703030203454,6.810498428625252L409.9608828585282,280.60277338293685L410.8547354150219,262.1706464953855L411.7485879715155,270.56226177920774L412.64244052800916,270.9007542167668L413.53629308450286,210.99872960507813L414.4301456409965,252.0113981256272L415.32399819749014,69.20153087062472L416.21785075398384,279.96939832244686L417.1117033104775,306.1175472654574L418.0055558669711,313.22309051177484L418.8994084234648,297.92602148717975L419.79326097995846,295.0725889806987L420.6871135364521,284.3230919509427L421.5809660929458,404.60906112112485L422.47481864943944,294.9841974383855L423.3686712059331,274.19473081468914L424.2625237624268,283.9794943671297L425.1563763189204,353.5304541457412L426.05022887541406,305.6121451107759L426.94408143190776,294.2749410074642L427.83793398840146,285.2294568335702L428.73178654489516,317.01314523112006L429.6256391013888,302.3045962947639L430.51949165788244,328.03919176892384L431.41334421437614,305.26105460785567L432.3071967708698,312.0813249183084L433.2010493273634,305.0919915004912L434.0949018838571,293.6349885849426L434.98875444035076,300.4438766898307L435.8826069968444,330.224282259081L436.7764595533381,308.730224883321L437.67031210983174,302.16516793882465L438.5641646663254,293.75135955148824L439.4580172228191,293.8869205943398L440.3518697793127,297.76955644517653L441.24572233580636,293.3538026958637L442.13957489230006,271.56492861728225L443.0334274487937,298.96221236313687L443.92728000528734,312.26864057153324L444.82113256178104,317.7859339986361L445.7149851182747,320.8569614619485L446.6088376747683,323.8448856406168L447.5026902312621,314.8274980822609L448.3965427877557,297.32856556188233L449.2903953442494,307.03685446290655L450.18424790074306,291.8125612391421L451.0781004572367,304.6733548587565L451.9719530137304,274.95203568094144L452.86580557022404,325.36425626991485L453.7596581267177,348.46106588896805L454.6535106832114,334.80647696029354L455.547363239705,266.2824059977504L456.44121579619866,269.64391408557384L457.33506835269236,338.04958520709175L458.22892090918606,251.47722550539993L459.12277346567976,205.44448795662973L460.0166260221734,263.8116031043321L460.91047857866704,272.0839762346195L461.80433113516074,329.98253124436525L462.6981836916544,307.42264824122293L463.592036248148,238.19023640483414L464.4858888046417,261.6793951908655L465.37974136113536,279.9067156228184L466.273593917629,269.679972385442L467.16744647412264,251.89504913245145L468.06129903061634,196.5309721796224L468.95515158711,277.67154049839394L469.8490041436036,200.02673389479347L470.7428567000973,284.7691293848379L471.63670925659096,245.65927778356124L472.5305618130846,196.7701413233848L473.4244143695783,270.87730130671656L474.318266926072,243.67434271905807L475.2121194825657,245.21948811115033L476.10597203905934,256.2761362286512L476.999824595553,237.38919720819135L477.8936771520467,276.2695955573926L478.7875297085403,264.39648293763815L479.68138226503396,326.5021691992069L480.57523482152766,266.8382004138766L481.4690873780213,176.92155883073988L482.36293993451494,62.92318245548771L483.25679249100864,329.3405572718206L484.1506450475023,280.81298528751006L485.0444976039959,31.9142824021071L485.9383501604896,258.2608808572826L486.83220271698326,177.4712959212535L487.7260552734769,261.1635190632383L488.6199078299706,252.55913563948758L489.51376038646424,264.4664095248493L490.4076129429579,166.58171923114358L491.3014654994516,264.2041866539216L492.1953180559452,269.31202098341623L493.08917061243886,222.33966185680197L493.9830231689326,163.03564479354876L494.87687572542626,270.62287898207353L495.77072828191996,250.33590670378638L496.6645808384136,128.8592592189273L497.55843339490724,320.5748966380769L498.45228595140094,273.7018315074329L499.3461385078946,251.24770633321506L500.2399910643882,247.28740926899195L501.1338436208819,268.07484701820863L502.02769617737556,329.61613262713985L502.9215487338692,269.31287062038245L503.8154012903629,153.66611887719947L504.70925384685654,277.40282083445726L505.6031064033502,177.82301815855595L506.4969589598439,209.85375956184683L507.3908115163375,185.8248139596002L508.28466407283116,105.43920668096729L509.17851662932486,164.41363532811155L510.0723691858185,145.8878426028233L510.96622174231214,-38.139310886589136L511.86007429880584,227.15772237184788L512.7539268552995,260.08740989878214L513.6477794117932,263.5731920418284L514.5416319682869,264.25244749849423L515.4354845247806,102.58129893150036L516.3293370812742,284.4040271964316L517.2231896377679,183.7303086865095L518.1170421942616,176.19664179603933L519.0108947507551,270.0373106498466L519.9047473072488,229.76615912933698L520.7985998637425,202.14794779889556L521.6924524202361,70.73828243544725L522.5863049767298,-57.620871267640176L523.4801575332235,231.47877089725367L524.3740100897171,4.795965234979957L525.2678626462108,19.617252207405514L526.1617152027045,331.21993959218423L527.0555677591981,185.4882405296717L527.9494203156918,-37.46827347023454L528.8432728721855,238.90365312710722L529.7371254286791,256.3699405443957L530.6309779851728,2.311465607709729L531.5248305416665,188.99671017705307L532.41868309816,217.39195479761327L533.3125356546537,56.22729606710682L534.2063882111474,117.18566479710222L535.1002407676411,275.03330052697765L535.9940933241348,264.58800282895453L536.8879458806284,311.27887210154074L537.7817984371221,148.79514831875076L538.6756509936158,118.24255458742606L539.5695035501094,263.81582199133686L540.4633561066031,296.59182776977786L541.3572086630968,266.8848718513658L542.2510612195904,237.0046266141281L543.1449137760841,277.6926788801569L544.0387663325778,261.44113061749385L544.9326188890714,277.1323945721316L545.8264714455651,234.59100575342774L546.7203240020588,210.0307513934865L547.6141765585523,278.8184551848539L548.508029115046,257.6609199678262L549.4018816715397,272.4063768410167L550.2957342280333,286.58978421213993L551.189586784527,192.93031142806385L552.0834393410207,282.34460240825223L552.9772918975143,278.5513102790875L553.8711444540081,262.2152963828516L554.7649970105017,281.87738264585437L555.6588495669954,-58.04753551381432L556.5527021234891,-70.25465067922872L557.4465546799827,258.2785327977015L558.3404072364764,-67.91987759388482L559.2342597929701,-67.86832806829646L560.1281123494637,258.314451932894L561.0219649059574,246.92880387359463L561.9158174624511,245.29188304023754L562.8096700189446,83.30551915877636L563.7035225754383,142.16151248705862L564.597375131932,246.24152081248934L565.4912276884256,107.48042653225416L566.3850802449193,276.2215910688012L567.278932801413,-75.11343151077205L568.1727853579066,242.0564874462447L569.0666379144003,234.24082348312655L569.960490470894,268.29515934844056L570.8543430273876,231.93681311552507L571.7481955838813,-79.00011046165487L572.642048140375,226.89781769143576L573.5359006968687,113.20938943079462L574.4297532533624,197.51217103538664L575.323605809856,208.59744312930118L576.2174583663497,240.280182203688L577.1113109228434,130.09733775452565L578.0051634793369,-5.539048119936595L578.8990160358306,135.97537898058286L579.7928685923243,-50.64044438905509L580.6867211488179,190.81112273621318L581.5805737053116,190.73966899979982L582.4744262618053,135.62259286595844L583.3682788182989,150.64285419541045L584.2621313747926,-72.39397796451574L585.1559839312863,17.0111519515735L586.0498364877799,129.69941833829915L586.9436890442736,264.3367373451084L587.8375416007673,265.8300402333481L588.7313941572609,144.3272261272664L589.6252467137546,51.80503820032846L590.5190992702483,231.37700489717912L591.4129518267418,-70.18870127195429L592.3068043832355,145.11522962226582L593.2006569397292,242.69127612685946L594.0945094962229,194.99609567569087L594.9883620527166,245.67298916632643L595.8822146092102,198.98893163838318L596.7760671657039,68.42716734493862L597.6699197221976,222.59478732927906L598.5637722786912,192.9417705404229L599.4576248351849,257.6901372252248L600.3514773916786,195.6847502412955L601.2453299481722,230.36358575680796L602.1391825046659,86.9220135544015L603.0330350611596,222.9585564665832L603.9268876176532,256.44515538927595L604.8207401741469,87.36625649642846L605.7145927306404,169.84638701595964L606.6084452871341,135.31754755948765L607.5022978436278,217.1161743575091L608.3961504001214,-65.51064408269109L609.2900029566151,272.1300836889501L610.1838555131088,-34.58451771340739L611.0777080696024,236.61867169776642L611.9715606260961,245.0959538260447L612.8654131825898,177.47752262492511L613.7592657390835,227.75094842345564L614.6531182955772,-75.60734891749637L615.5469708520708,269.7177592570689L616.4408234085645,195.67510026971792L617.3346759650582,252.34933390448433L618.2285285215518,245.44283276641693L619.1223810780455,219.99221746153086L620.0162336345392,210.26859847283166L620.9100861910327,113.338003226556L621.8039387475264,-92.35209679013643L622.6977913040201,212.80459635449398L623.5916438605137,48.89547838288069L624.4854964170074,218.73522717897748L625.3793489735011,246.05467392448716L626.2732015299947,-81.25809394394844L627.1670540864884,225.59857628095452L628.0609066429821,212.49360725148796L628.9547591994757,-92.10435436991749L629.8486117559694,272.2252576780799L630.7424643124631,-80.50153617226985L631.6363168689567,167.18528260880353L632.5301694254504,146.5572558209257L633.4240219819441,229.87567440450002L634.3178745384378,-68.24922910960044L635.2117270949315,227.0479690518452L636.105579651425,270.7735870011849L636.9994322079187,240.2087467784161L637.8932847644124,265.8320910811976L638.787137320906,210.66949161843988L639.6809898773997,156.86894352822546L640.5748424338934,194.78752811162556L641.468694990387,233.1363027514982L642.3625475468807,194.06595377580823L643.2564001033744,136.07751486571598L644.150252659868,170.69406984004547L645.0441052163617,127.623323086886L645.9379577728554,-85.16287895155969L646.831810329349,265.151978663109L647.7256628858427,262.6360278191754L648.6195154423364,255.38923242722407L649.51336799883,248.3770027580586L650.4072205553236,166.43241762214504L651.3010731118173,227.30136229033513L652.1949256683109,30.117109782681762L653.0887782248047,153.873552066048L653.9826307812983,223.8502760982283L654.876483337792,221.41852720742978L655.7703358942857,231.35636457846527L656.6641884507793,240.08516122211427L657.558041007273,199.55609727338918L658.4518935637667,30.728731207053887L659.3457461202603,267.29556145768373L660.239598676754,280.4713872803503L661.1334512332477,186.55807263481717L662.0273037897413,7.613463957355221L662.921156346235,199.24869715411978L663.8150089027287,-80.89453721588588L664.7088614592222,201.12876431117598L665.602714015716,200.89807688816256L666.4965665722096,145.72361913016084L667.3904191287032,124.86527331654791L668.2842716851969,76.79969509484738L669.1781242416906,201.24967277858863L670.0719767981842,198.84460322097502L670.9658293546779,327.32609732274136L671.8596819111716,-98.50534348645432L672.7535344676653,211.31805027747274L673.647387024159,300.82420642351946L674.5412395806526,132.33486036729218L675.4350921371463,214.8774505338593L676.32894469364,239.31137632849993L677.2227972501336,191.26798022362863L678.1166498066273,268.4809881369746L679.010502363121,62.15015198090378L679.9043549196145,-99.14506152636451L680.7982074761082,75.08227115894098L681.692060032602,254.94716484880885L682.5859125890955,-98.01120634603181L683.4797651455892,252.0073989723207L684.3736177020829,251.59392607249276L685.2674702585765,217.89029251389894L686.1613228150702,256.4837333022163L687.0551753715639,188.93251314602142L687.9490279280575,220.01033816717242L688.8428804845512,181.80995793368098L689.7367330410449,94.89573929106285L690.6305855975385,213.26693070433612L691.5244381540322,81.37444082369227L692.4182907105259,211.5570253231351L693.3121432670196,234.40815069427546L694.2059958235133,185.97168396345046L695.0998483800068,157.26432593579526L695.9937009365005,221.83539133066597L696.8875534929941,223.44795102135373L697.7814060494878,204.94065323566176L698.6752586059814,-109.86056575301512L699.5691111624751,-108.15660416834932L700.4629637189688,206.2745942593108L701.3568162754624,148.75494803867238L702.2506688319562,-105.2238331479193L703.1445213884499,217.7860508474918L704.0383739449436,204.25509874631535L704.9322265014372,243.1156917648558L705.8260790579309,160.20577826841682L706.7199316144246,216.66936053121367L707.6137841709182,221.33385282684378L708.5076367274119,178.56655121527606L709.4014892839056,-101.96740903901252L710.2953418403991,220.33409013581326L711.1891943968928,62.718918009678056L712.0830469533865,245.72363778375237L712.9768995098801,227.77751788979154L713.8707520663738,254.82011482453268L714.7646046228675,266.2563822034316L715.6584571793611,232.5683204395807L716.5523097358548,178.45753766539053L717.4461622923485,245.70669631562419L718.3400148488421,77.40310580336491L719.2338674053358,196.55605295015326L720.1277199618295,222.55503017882532L721.0215725183231,-103.12566930875417L721.9154250748168,238.98106530896905L722.8092776313105,232.80651909284288L723.703130187804,222.57553865732024L724.5969827442977,162.12209645010552L725.4908353007914,210.24509795381343L726.384687857285,218.4758938061806L727.2785404137787,222.16789968717848L728.1723929702724,185.3949049791499L729.066245526766,-104.15586877920822L729.9600980832597,241.7524199547307L730.8539506397534,-99.9268447265918L731.747803196247,179.43174715843915L732.6416557527407,-96.70616396591913L733.5355083092344,191.55481143763612L734.429360865728,249.5750494760805L735.3232134222217,111.951633742526L736.2170659787154,224.10591794489613L737.110918535209,188.15213441034817L738.0047710917027,244.19957217777028L738.8986236481963,227.83336687140724L739.7924762046899,207.9356601638674L740.6863287611836,245.55746051229045L741.5801813176773,252.48912115879713L742.4740338741711,215.20482078406314L743.3678864306647,210.9934413474091L744.2617389871584,236.44807777897145L745.1555915436521,256.0139280066367L746.0494441001457,228.81258812388805L746.9432966566394,220.50845614975992L747.8371492131331,255.45373891654728L748.7310017696267,262.86741472779465L749.6248543261204,207.79750992560582L750.5187068826141,234.3466765299869L751.4125594391077,226.86102694590716L752.3064119956014,234.7625005803851L753.2002645520951,247.2466047212436L754.0941171085886,192.51336307357667L754.9879696650823,-91.82089789929094L755.881822221576,116.23725020910346L756.7756747780696,6.991617591562042L757.6695273345633,196.33138623046943L758.563379891057,240.67474335656092L759.4572324475506,226.40740869942536L760.3510850040443,247.38464875488447L761.244937560538,243.02241480998683L762.1387901170316,177.20495121237113L763.0326426735253,245.00162947388117L763.926495230019,209.80423891073815L764.8203477865126,133.93511130865468L765.7142003430063,198.8996062278528L766.6080528995,240.5392775316452L767.5019054559936,200.77429357153238L768.3957580124872,219.31136893555336L769.289610568981,226.7146916273891L770.1834631254745,325.14815550223096L771.0773156819682,251.9259876371524L771.9711682384619,288.15143892942064L772.8650207949555,334.63835138337464L773.7588733514492,292.61286066566777L774.6527259079429,294.2687298682629L775.5465784644365,282.5272963293592L776.4404310209302,248.85326089990747L777.3342835774239,263.5909172268133L778.2281361339175,111.2271534285505L779.1219886904112,227.47795127686152L780.0158412469049,254.4508596692312L780.9096938033985,248.6337029887059L781.8035463598923,265.60422723620553L782.697398916386,187.1746325740554L783.5912514728797,182.24571274605944L784.4851040293732,-92.11988221792085L785.378956585867,241.60954177973036L786.2728091423606,195.28629064639435L787.1666616988542,245.18525360097698L788.0605142553479,204.3048574422637L788.9543668118416,214.42746155562546L789.8482193683352,158.33933460064654L790.7420719248289,262.08388830689523L791.6359244813225,235.62463306957304L792.5297770378162,248.82459297675422L793.4236295943099,211.33820351982232L794.3174821508035,80.06372931416705L795.2113347072972,195.0717060412278L796.1051872637909,174.35403969229793L796.9990398202845,-89.00646079977669L797.8928923767781,268.2106497681282L798.7867449332718,236.25947302138405L799.6805974897654,33.07211785336568L800.5744500462591,-87.39926993578067L801.4683026027528,-97.19663887803897L802.3621551592464,146.01803848121148L803.2560077157401,228.63739810857328L804.1498602722338,216.99947379041626L805.0437128287274,200.25401910771373L805.9375653852211,12.009090099916584L806.8314179417148,-96.88783978755795L807.7252704982084,39.237523147648375L808.6191230547021,134.19524304722154L809.5129756111958,149.9900473515465L810.4068281676894,-93.8644212921802L811.300680724183,-92.26478926740087L812.1945332806768,163.14430127617476L813.0883858371703,203.15686239845436L813.982238393664,214.73423543385513L814.8760909501577,-103.61743332523659L815.7699435066513,212.49044308623445L816.663796063145,150.67960831865602L817.5576486196387,160.80438550673688L818.4515011761323,139.4547815219259L819.345353732626,224.028187149172L820.2392062891197,217.15703750091023L821.1330588456133,194.8874025707818L822.0269114021071,240.24557414622777L822.9207639586008,114.33199058355319L823.8146165150945,225.3734224849064L824.7084690715881,-108.79617571912742L825.6023216280818,222.5889497373646L826.4961741845755,-102.65022418158853L827.390026741069,206.53758619818205L828.2838792975627,186.6578903294347L829.1777318540564,179.4138947110207L830.07158441055,265.80366486511224L830.9654369670437,91.39067185377469L831.8592895235374,173.99579777305965L832.753142080031,185.2368505300633L833.6469946365247,172.636742103268L834.5408471930184,247.47721523746273L835.434699749512,209.6829019626141L836.3285523060057,171.25271392756972L837.2224048624994,131.10168189316278L838.116257418993,185.99272895839172L839.0101099754867,209.95009081512023L839.9039625319804,153.06844230264684L840.797815088474,211.37420322403756L841.6916676449677,231.42517052381578L842.5855202014613,161.5066269393444L843.4793727579549,170.7590789702032L844.3732253144486,141.4465850956107L845.2670778709423,263.0702289311964L846.1609304274359,274.65617890528205L847.0547829839296,277.31694158075965L847.9486355404233,102.25742610932554L848.8424880969169,250.04974750867243L849.7363406534106,164.91007601013644L850.6301932099043,231.71770199617637L851.5240457663979,212.38755278207094L852.4178983228916,233.07057307792192L853.3117508793853,257.3378235380515L854.2056034358789,230.574654622804L855.0994559923726,237.40386809477184L855.9933085488663,42.894712224172764L856.8871611053598,217.69301559969077L857.7810136618535,223.2628180561972L858.6748662183472,245.4646596471008L859.5687187748408,-103.88254935652343L860.4625713313345,200.9723395536841L861.3564238878283,157.63202922185351L862.250276444322,41.56240821657504L863.1441290008156,39.30114337772235L864.0379815573093,-101.74061456468485L864.931834113803,267.9873856818843L865.8256866702966,261.5735348195485L866.7195392267903,218.54121331018703L867.613391783284,127.22818330194121L868.5072443397776,-99.74686817888549L869.4010968962713,233.3167407399707L870.294949452765,161.2623544804422L871.1888020092586,252.97351677193456L872.0826545657523,270.7006940090487L872.976507122246,130.1660228463422L873.8703596787395,111.20849803757672L874.7642122352332,22.28786627701733L875.6580647917269,181.32609792143285L876.5519173482205,258.3340961255096L877.4457699047142,239.8759747414658L878.3396224612079,133.3091302871078L879.2334750177015,131.6553998258414L880.1273275741952,186.5369745375655L881.0211801306889,238.3843711271586L881.9150326871825,207.18840811430593L882.8088852436762,230.05622958427816L883.7027378001699,162.6872126105977L884.5965903566635,250.89227242752784L885.4904429131572,204.16061691833477L886.3842954696509,103.80158269977606L887.2781480261444,262.8230285207663L888.1720005826381,115.477619827879L889.0658531391318,-96.60344578648589L889.9597056956254,130.51704742915302L890.8535582521191,241.7003796905498L891.7474108086128,239.1975615973096L892.6412633651064,170.48117970213667L893.5351159216001,85.34834672828809L894.4289684780938,-100.06630238035743L895.3228210345874,-92.02290641246618L896.2166735910811,256.7621725200682L897.1105261475748,-94.44302406617543L898.0043787040684,-87.65035230821161L898.898231260562,125.1091996948755L899.7920838170558,252.80568417327984L900.6859363735496,-95.40876831850242L901.5797889300432,181.93992034501488L902.4736414865368,265.7870090507917L903.3674940430305,129.50813649182246L904.2613465995241,-88.81520458889813L905.1551991560178,133.18337302942243L906.0490517125115,-87.44295299497485L906.9429042690051,217.5681775613094L907.8367568254988,200.8184966671456L908.7306093819925,262.05028369998996L909.6244619384861,134.1365997854109L910.5183144949798,-102.81288571387984L911.4121670514735,239.8738213512238L912.3060196079671,212.25656220014108L913.1998721644608,119.7075850731691L914.0937247209545,243.89529960147132L914.987577277448,226.43989632669832L915.8814298339416,196.9748415743625L916.7752823904352,41.99922415960418L917.6691349469289,212.65844048516277L918.5629875034226,-106.2101151765676L919.4568400599162,233.20715954469827L920.3506926164099,215.76964991741207L921.2445451729036,214.5859811077065L922.1383977293972,191.83779731192584L923.0322502858909,-88.4479856325329L923.9261028423846,230.30097630174552L924.8199553988782,-98.03528915935011L925.7138079553719,270.6450794100443L926.6076605118656,255.89626061127194L927.5015130683594,145.57558453771034L928.395365624853,162.26551434600196L929.2892181813467,275.02207945945827L930.1830707378404,254.8101828613759L931.0769232943339,177.260003659331L931.9707758508276,249.80427567000115L932.8646284073213,258.50612563779913L933.7584809638149,265.65292754817443L934.6523335203086,267.3820193434531L935.5461860768023,242.36626801391085L936.4400386332959,244.88841534813247L937.3338911897896,96.74467384531808L938.2277437462833,276.68596894203625L939.1215963027769,243.59510674750157L940.0154488592706,255.69966487152809" style="fill: none;" fill="none"></path></g></g></g></g></g></g><g transform="translate(51, 374)" clip-path="url(#clip_1)"><clipPath id="clip_1"><rect width="1392" height="26"></rect></clipPath><g><g><line x1="47.95059747859449" y1="0" x2="47.95059747859449" y2="5" style="visibility: inherit;" fill="rgb(0, 0, 0)" stroke="rgb(204, 204, 204)" stroke-width="1px"></line><line x1="226.72110877732717" y1="0" x2="226.72110877732717" y2="5" style="visibility: inherit;" fill="rgb(0, 0, 0)" stroke="rgb(204, 204, 204)" stroke-width="1px"></line><line x1="405.4916200760598" y1="0" x2="405.4916200760598" y2="5" style="visibility: inherit;" fill="rgb(0, 0, 0)" stroke="rgb(204, 204, 204)" stroke-width="1px"></line><line x1="584.2621313747926" y1="0" x2="584.2621313747926" y2="5" style="visibility: inherit;" fill="rgb(0, 0, 0)" stroke="rgb(204, 204, 204)" stroke-width="1px"></line><line x1="763.0326426735253" y1="0" x2="763.0326426735253" y2="5" style="visibility: inherit;" fill="rgb(0, 0, 0)" stroke="rgb(204, 204, 204)" stroke-width="1px"></line><line x1="941.8031539722579" y1="0" x2="941.8031539722579" y2="5" style="visibility: inherit;" fill="rgb(0, 0, 0)" stroke="rgb(204, 204, 204)" stroke-width="1px"></line><line x1="1120.5736652709904" y1="0" x2="1120.5736652709904" y2="5" style="visibility: inherit;" fill="rgb(0, 0, 0)" stroke="rgb(204, 204, 204)" stroke-width="1px"></line><line x1="1299.3441765697232" y1="0" x2="1299.3441765697232" y2="5" style="visibility: inherit;" fill="rgb(0, 0, 0)" stroke="rgb(204, 204, 204)" stroke-width="1px"></line></g><g transform="translate(0, 8)"><text x="47.95059747859449" y="0" dx="0em" dy="0.95em" style="text-anchor: middle; visibility: inherit; font-family: Roboto, sans-serif; font-size: 12px; font-weight: 200;" fill="rgb(33, 33, 33)" stroke="none" stroke-width="1px">0</text><text x="226.72110877732717" y="0" dx="0em" dy="0.95em" style="text-anchor: middle; visibility: inherit; font-family: Roboto, sans-serif; font-size: 12px; font-weight: 200;" fill="rgb(33, 33, 33)" stroke="none" stroke-width="1px">200</text><text x="405.4916200760598" y="0" dx="0em" dy="0.95em" style="text-anchor: middle; visibility: inherit; font-family: Roboto, sans-serif; font-size: 12px; font-weight: 200;" fill="rgb(33, 33, 33)" stroke="none" stroke-width="1px">400</text><text x="584.2621313747926" y="0" dx="0em" dy="0.95em" style="text-anchor: middle; visibility: inherit; font-family: Roboto, sans-serif; font-size: 12px; font-weight: 200;" fill="rgb(33, 33, 33)" stroke="none" stroke-width="1px">600</text><text x="763.0326426735253" y="0" dx="0em" dy="0.95em" style="text-anchor: middle; visibility: inherit; font-family: Roboto, sans-serif; font-size: 12px; font-weight: 200;" fill="rgb(33, 33, 33)" stroke="none" stroke-width="1px">800</text><text x="941.8031539722579" y="0" dx="0em" dy="0.95em" style="text-anchor: middle; visibility: inherit; font-family: Roboto, sans-serif; font-size: 12px; font-weight: 200;" fill="rgb(33, 33, 33)" stroke="none" stroke-width="1px">1k</text><text x="1120.5736652709904" y="0" dx="0em" dy="0.95em" style="text-anchor: middle; visibility: inherit; font-family: Roboto, sans-serif; font-size: 12px; font-weight: 200;" fill="rgb(33, 33, 33)" stroke="none" stroke-width="1px">1.2k</text><text x="1299.3441765697232" y="0" dx="0em" dy="0.95em" style="text-anchor: middle; visibility: inherit; font-family: Roboto, sans-serif; font-size: 12px; font-weight: 200;" fill="rgb(33, 33, 33)" stroke="none" stroke-width="1px">1.4k</text></g><line x1="0" y1="0" x2="1392.875" y2="0" fill="rgb(0, 0, 0)" stroke="rgb(204, 204, 204)" stroke-width="1px"></line></g></g></g></g></svg>